<!-- Generated by IcoMoon.io -->
<svg version="1.1" xmlns="http://www.w3.org/2000/svg" width="32" height="32" viewBox="0 0 32 32">
<title>cctv</title>
<path d="M31.228 13.249l-2.353-0.975 0.536-1.293c0.264-0.638-0.039-1.369-0.677-1.633l-22.488-9.315c-0.637-0.264-1.369 0.039-1.633 0.676l-4.517 10.905c-0.264 0.638 0.039 1.369 0.676 1.633l10.089 4.179-2.904 7.011h-5.457v-3.75c0-0.69-0.56-1.25-1.25-1.25s-1.25 0.56-1.25 1.25v10c0 0.69 0.56 1.25 1.25 1.25s1.25-0.56 1.25-1.25v-3.75h6.292c0.506 0 0.961-0.305 1.155-0.772l3.223-7.782 10.089 4.179c0.637 0.264 1.369-0.039 1.633-0.677l0.535-1.293 2.353 0.975c0.639 0.265 1.37-0.040 1.633-0.677l2.489-6.010c0.264-0.637-0.039-1.369-0.677-1.633zM23.062 19.775l-20.179-8.358 3.561-8.596 20.178 8.358c-0.431 1.041-3.194 7.712-3.56 8.596zM27.584 18.78l-1.198-0.496c0.166-0.401 1.364-3.295 1.533-3.7l1.198 0.497z"></path>
</svg>
