<svg height="511pt" viewBox="1 1 511 511.99969" width="511pt" xmlns="http://www.w3.org/2000/svg"><path d="m500.148438 212.980469-37.652344-15.597657 8.570312-20.683593c4.222656-10.207031-.621094-21.90625-10.824218-26.132813l-359.8125-149.039062c-10.195313-4.226563-21.902344.621094-26.128907 10.824218l-72.273437 174.484376c-4.226563 10.203124.621094 21.902343 10.824218 26.128906l161.425782 66.867187-46.460938 112.167969h-87.3125v-60c0-11.046875-8.953125-20-20-20s-20 8.953125-20 20v160c0 11.046875 8.953125 20 20 20s20-8.953125 20-20v-60h100.675782c8.089843 0 15.382812-4.875 18.480468-12.347656l51.574219-124.511719 161.425781 66.863281c10.199219 4.226563 21.90625-.621094 26.132813-10.824218l8.566406-20.683594 37.652344 15.59375c10.226562 4.238281 21.914062-.640625 26.128906-10.824219l39.832031-96.15625c4.226563-10.199219-.621094-21.902344-10.824218-26.128906zm-130.65625 104.417969-322.859376-133.734376 56.96875-137.53125 322.855469 133.734376c-6.898437 16.652343-51.109375 123.386718-56.964843 137.53125zm72.347656-15.914063-19.171875-7.941406c2.65625-6.414063 21.832031-52.714844 24.523437-59.207031l19.171875 7.945312zm0 0"/></svg>