<svg height="512pt" viewBox="-96 0 512 512" width="512pt" xmlns="http://www.w3.org/2000/svg"><path d="m314.144531 92.199219c-7.8125 7.8125-20.472656 7.8125-28.285156.003906-33.675781-33.664063-78.375-52.203125-125.859375-52.203125s-92.183594 18.539062-125.859375 52.203125c-7.8125 7.808594-20.476563 7.808594-28.285156-.003906-7.808594-7.8125-7.804688-20.476563.003906-28.285157 41.234375-41.214843 95.972656-63.914062 154.140625-63.914062 58.164062 0 112.90625 22.699219 154.140625 63.914062 7.808594 7.808594 7.8125 20.472657.003906 28.285157zm-219.339843 52.714843c17.984374-16.066406 41.140624-24.914062 65.195312-24.914062 24.058594 0 47.210938 8.847656 65.195312 24.914062 8.238282 7.359376 20.878907 6.648438 28.242188-1.589843 7.355469-8.238281 6.644531-20.882813-1.59375-28.238281-25.328125-22.625-57.945312-35.085938-91.84375-35.085938s-66.515625 12.460938-91.84375 35.085938c-8.238281 7.355468-8.953125 20-1.59375 28.238281 7.328125 8.203125 19.96875 8.980469 28.242188 1.589843zm197.195312 159.085938c0 48.542969-26.34375 91.039062-65.480469 113.972656v74.027344c0 11.046875-8.953125 20-20 20h-93.042969c-11.042968 0-20-8.953125-20-20v-74.027344c-39.132812-22.933594-65.476562-65.429687-65.476562-113.972656 0-72.785156 59.214844-132 132-132s132 59.214844 132 132zm-105.480469 129.324219c-8.570312 1.753906-17.4375 2.675781-26.519531 2.675781s-17.949219-.921875-26.519531-2.675781v38.675781h53.042969v-38.675781zm65.480469-129.324219c0-50.726562-41.273438-92-92-92s-92 41.273438-92 92c0 50.730469 41.269531 92 92 92s92-41.269531 92-92zm0 0"/></svg>