<!-- Generated by IcoMoon.io -->
<svg version="1.1" xmlns="http://www.w3.org/2000/svg" width="32" height="32" viewBox="0 0 32 32">
<title>smart</title>
<path d="M25.634 5.762c-0.488 0.488-1.28 0.488-1.768 0-2.105-2.104-4.898-3.263-7.866-3.263s-5.761 1.159-7.866 3.263c-0.488 0.488-1.28 0.488-1.768-0s-0.488-1.28 0-1.768c2.577-2.576 5.998-3.995 9.634-3.995s7.057 1.419 9.634 3.995c0.488 0.488 0.488 1.28 0 1.768zM11.925 9.057c1.124-1.004 2.571-1.557 4.075-1.557s2.951 0.553 4.075 1.557c0.515 0.46 1.305 0.416 1.765-0.099s0.415-1.305-0.1-1.765c-1.583-1.414-3.622-2.193-5.74-2.193s-4.157 0.779-5.74 2.193c-0.515 0.46-0.56 1.25-0.1 1.765 0.458 0.513 1.248 0.561 1.765 0.099zM24.25 19c0 3.034-1.646 5.69-4.093 7.123v4.627c0 0.69-0.56 1.25-1.25 1.25h-5.815c-0.69 0-1.25-0.56-1.25-1.25v-4.627c-2.446-1.433-4.092-4.089-4.092-7.123 0-4.549 3.701-8.25 8.25-8.25s8.25 3.701 8.25 8.25zM17.657 27.083c-0.536 0.11-1.090 0.167-1.657 0.167s-1.122-0.058-1.657-0.167v2.417h3.315v-2.417zM21.75 19c0-3.17-2.58-5.75-5.75-5.75s-5.75 2.58-5.75 5.75c0 3.171 2.579 5.75 5.75 5.75s5.75-2.579 5.75-5.75z"></path>
</svg>
