<svg height="512pt" viewBox="0 0 512.00078 512" width="512pt" xmlns="http://www.w3.org/2000/svg"><path d="m118 0c-65.066406 0-118 52.933594-118 118 0 29.875 11.167969 57.1875 29.539062 78h-9.539062c-11.046875 0-20 8.953125-20 20v276c0 11.046875 8.953125 20 20 20h196c11.046875 0 20-8.953125 20-20v-276c0-11.046875-8.953125-20-20-20h-9.539062c18.371093-20.808594 29.539062-48.125 29.539062-78 0-65.066406-52.933594-118-118-118zm78 472h-156v-236h156zm-78-276c-43.007812 0-78-34.992188-78-78s34.992188-78 78-78 78 34.992188 78 78-34.992188 78-78 78zm279.660156 242.339844c7.808594 7.8125 7.808594 20.476562 0 28.285156-7.8125 7.8125-20.476562 7.808594-28.285156 0-56.34375-56.34375-87.375-131.144531-87.375-210.625s31.03125-154.28125 87.375-210.625c7.8125-7.8125 20.476562-7.8125 28.285156 0 7.808594 7.808594 7.808594 20.472656 0 28.285156-48.789062 48.789063-75.660156 113.546875-75.660156 182.339844 0 68.796875 26.871094 133.550781 75.660156 182.339844zm56.539063-56.539063c7.8125 7.808594 7.8125 20.472657 0 28.28125-7.808594 7.8125-20.472657 7.8125-28.28125 0-41.21875-41.214843-63.917969-95.9375-63.917969-154.082031s22.699219-112.867188 63.917969-154.082031c7.808593-7.8125 20.472656-7.8125 28.28125 0 7.8125 7.808593 7.8125 20.472656 0 28.28125-33.660157 33.664062-52.199219 78.339843-52.199219 125.800781s18.539062 92.136719 52.199219 125.800781zm52.714843-60.601562c7.359376 8.238281 6.648438 20.878906-1.589843 28.238281-8.230469 7.351562-20.875 6.652344-28.238281-1.59375-22.625-25.328125-35.085938-57.945312-35.085938-91.84375s12.460938-66.515625 35.085938-91.84375c7.355468-8.238281 20-8.949219 28.238281-1.59375 8.238281 7.359375 8.949219 20.003906 1.589843 28.242188-16.066406 17.984374-24.914062 41.140624-24.914062 65.195312s8.847656 47.210938 24.914062 65.199219zm0 0"/></svg>