<!-- Generated by IcoMoon.io -->
<svg version="1.1" xmlns="http://www.w3.org/2000/svg" width="32" height="32" viewBox="0 0 32 32">
<title>motion-sensor</title>
<path d="M7.375 0c-4.067 0-7.375 3.308-7.375 7.375 0 1.867 0.698 3.574 1.846 4.875h-0.596c-0.69 0-1.25 0.56-1.25 1.25v17.25c0 0.69 0.56 1.25 1.25 1.25h12.25c0.69 0 1.25-0.56 1.25-1.25v-17.25c0-0.69-0.56-1.25-1.25-1.25h-0.596c1.148-1.301 1.846-3.008 1.846-4.875 0-4.067-3.308-7.375-7.375-7.375zM12.25 29.5h-9.75v-14.75h9.75zM7.375 12.25c-2.688 0-4.875-2.187-4.875-4.875s2.187-4.875 4.875-4.875 4.875 2.187 4.875 4.875-2.187 4.875-4.875 4.875zM24.854 27.396c0.488 0.488 0.488 1.28 0 1.768s-1.28 0.488-1.768 0c-3.521-3.521-5.461-8.197-5.461-13.164s1.939-9.643 5.461-13.164c0.488-0.488 1.28-0.488 1.768 0s0.488 1.28 0 1.768c-3.049 3.049-4.729 7.097-4.729 11.396s1.679 8.347 4.729 11.396zM28.387 23.863c0.488 0.488 0.488 1.28 0 1.768s-1.28 0.488-1.768 0c-2.576-2.576-3.995-5.996-3.995-9.63s1.419-7.054 3.995-9.63c0.488-0.488 1.28-0.488 1.768 0s0.488 1.28 0 1.768c-2.104 2.104-3.262 4.896-3.262 7.863s1.159 5.759 3.262 7.863zM31.682 20.075c0.46 0.515 0.416 1.305-0.099 1.765s-1.305 0.416-1.765-0.1c-1.414-1.583-2.193-3.622-2.193-5.74s0.779-4.157 2.193-5.74c0.46-0.515 1.25-0.559 1.765-0.1s0.559 1.25 0.099 1.765c-1.004 1.124-1.557 2.571-1.557 4.075s0.553 2.951 1.557 4.075z"></path>
</svg>
