<!-- Generated by IcoMoon.io -->
<svg version="1.1" xmlns="http://www.w3.org/2000/svg" width="32" height="32" viewBox="0 0 32 32">
<title>zero-emission</title>
<path d="M16 0c-8.843 0-16 7.156-16 16 0 8.843 7.156 16 16 16 8.843 0 16-7.156 16-16 0-8.843-7.156-16-16-16zM16 29.5c-7.461 0-13.5-6.038-13.5-13.5 0-3.186 1.097-6.203 3.111-8.621l3.183 3.183c-0.889 0.999-1.443 2.302-1.483 3.731-0.987 0.998-1.542 2.336-1.542 3.76 0 2.953 2.402 5.355 5.355 5.355h9.751c0.243 0 0.481-0.018 0.716-0.049l3.030 3.030c-2.418 2.014-5.435 3.111-8.621 3.111zM9.809 14.46c0-0.806 0.284-1.546 0.758-2.126l8.574 8.574h-8.016c-1.574 0-2.855-1.281-2.855-2.856 0-0.875 0.395-1.691 1.082-2.237 0.586-0.465 0.457-1.088 0.457-1.355zM21.447 15.254c1.323 0.268 2.284 1.445 2.284 2.798 0 1.058-0.578 1.982-1.435 2.476l-9.422-9.422c0.1-0.009 0.201-0.014 0.304-0.014 0.861 0 1.681 0.325 2.308 0.915 0.546 0.513 1.418 0.435 1.863-0.169 0.35-0.474 0.887-0.746 1.474-0.746 1.009 0 1.829 0.821 1.829 1.829 0 0.226-0.041 0.448-0.123 0.658-0.278 0.721 0.158 1.521 0.918 1.676zM26.389 24.621l-2.293-2.293c1.296-0.979 2.135-2.531 2.135-4.276 0-2.107-1.243-3.987-3.088-4.852 0.006-0.093 0.009-0.186 0.009-0.28 0-2.387-1.942-4.329-4.329-4.329-0.938 0-1.846 0.309-2.586 0.859-0.914-0.56-1.967-0.859-3.059-0.859-0.829 0-1.618 0.173-2.334 0.484l-3.465-3.465c2.418-2.014 5.435-3.111 8.621-3.111 7.461 0 13.5 6.038 13.5 13.5 0 3.186-1.097 6.203-3.111 8.621z"></path>
</svg>
