<svg height="512pt" viewBox="0 0 512 512" width="512pt" xmlns="http://www.w3.org/2000/svg"><path d="m256 0c-141.484375 0-256 114.496094-256 256 0 141.484375 114.496094 256 256 256 141.484375 0 256-114.496094 256-256 0-141.484375-114.496094-256-256-256zm0 472c-119.378906 0-216-96.605469-216-216 0-50.976562 17.550781-99.25 49.773438-137.941406l50.933593 50.933594c-14.226562 15.976562-23.089843 36.828124-23.734375 59.703124-15.789062 15.960938-24.667968 37.375-24.667968 60.152344 0 47.25 38.4375 85.6875 85.6875 85.6875h156.015624c3.886719 0 7.703126-.285156 11.453126-.789062l48.480468 48.480468c-38.695312 32.222657-86.964844 49.773438-137.941406 49.773438zm-99.0625-240.632812c0-12.890626 4.550781-24.734376 12.128906-34.019532l137.183594 137.1875h-128.257812c-25.191407 0-45.6875-20.496094-45.6875-45.691406 0-14.003906 6.3125-27.050781 17.316406-35.792969 9.371094-7.441406 7.316406-17.40625 7.316406-21.683593zm186.214844 12.703124c21.175781 4.292969 36.542968 23.121094 36.542968 44.773438 0 16.921875-9.253906 31.714844-22.957031 39.609375l-150.757812-150.757813c1.601562-.144531 3.21875-.230468 4.859375-.230468 13.777344 0 26.894531 5.199218 36.929687 14.644531 8.730469 8.214844 22.695313 6.953125 29.808594-2.703125 5.59375-7.589844 14.1875-11.941406 23.585937-11.941406 16.136719 0 29.265626 13.128906 29.265626 29.265625 0 3.621093-.660157 7.164062-1.960938 10.53125-4.453125 11.535156 2.535156 24.34375 14.683594 26.808593zm79.074218 149.871094-36.6875-36.683594c20.730469-15.65625 34.15625-40.492187 34.15625-68.414062 0-33.71875-19.894531-63.792969-49.410156-77.636719.097656-1.484375.144532-2.976562.144532-4.476562 0-38.191407-31.074219-69.265625-69.269532-69.265625-15.015625 0-29.53125 4.949218-41.371094 13.75-14.621093-8.953125-31.476562-13.75-48.949218-13.75-13.265625 0-25.890625 2.769531-37.339844 7.75l-55.441406-55.441406c38.695312-32.222657 86.964844-49.773438 137.941406-49.773438 119.378906 0 216 96.605469 216 216 0 50.976562-17.550781 99.25-49.773438 137.941406zm0 0"/></svg>