<!-- Generated by IcoMoon.io -->
<svg version="1.1" xmlns="http://www.w3.org/2000/svg" width="32" height="32" viewBox="0 0 32 32">
<title>energy-saving</title>
<path d="M17.781 1.75c-7.451 0-13.536 5.713-14.164 12.969h-1.117c-0.581 0-1.086 0.401-1.218 0.967l-1.25 5.375c-0.182 0.783 0.414 1.533 1.218 1.533h0.625v1.375c0 0.69 0.56 1.25 1.25 1.25s1.25-0.56 1.25-1.25v-1.375h0.875v1.375c0 0.69 0.56 1.25 1.25 1.25s1.25-0.56 1.25-1.25v-1.375h0.625c0.804 0 1.4-0.75 1.218-1.533l-1.25-5.375c-0.132-0.566-0.636-0.967-1.218-0.967h-0.996c0.626-5.876 5.613-10.469 11.652-10.469 6.462 0 11.719 5.257 11.719 11.719 0 6.040-4.593 11.026-10.468 11.652v-2.884c2.923-0.583 5.133-3.168 5.133-6.259 0-6.625-5.394-10.826-5.623-11.001-0.448-0.343-1.071-0.343-1.519 0-0.23 0.176-5.623 4.377-5.623 11.001 0 3.092 2.21 5.677 5.133 6.259v4.201c0 0.69 0.56 1.25 1.25 1.25 7.858 0 14.218-6.359 14.218-14.219 0-7.858-6.359-14.219-14.218-14.219zM6.133 17.219l0.669 2.875h-3.977l0.669-2.875zM17.781 15c-0.69 0-1.25 0.56-1.25 1.25v5.903c-1.529-0.521-2.633-1.971-2.633-3.675 0-3.205 1.643-6.151 3.883-8.336 2.245 2.19 3.883 5.131 3.883 8.336 0 1.704-1.103 3.153-2.633 3.675v-5.903c0-0.69-0.56-1.25-1.25-1.25z"></path>
</svg>
