<svg height="511pt" viewBox="-9 0 511 511.99939" width="511pt" xmlns="http://www.w3.org/2000/svg"><path d="m19.125 246.671875c9.839844-64.898437 47.195312-122.714844 102.484375-158.628906 38.621094-25.082031 82.65625-37.644531 128.0625-37.085938l-16.816406-16.8125c-7.808594-7.8125-7.808594-20.476562 0-28.285156 7.8125-7.8125 20.476562-7.8125 28.285156 0l56.878906 56.875c10.523438 7.289063 11.285157 22.328125 2.664063 30.953125l-59.542969 59.539062c-7.808594 7.8125-20.472656 7.8125-28.285156 0-7.808594-7.808593-7.808594-20.472656 0-28.285156l33.042969-33.042968c-43.460938-4.171876-85.972657 5.964843-122.5 29.691406-45.714844 29.695312-76.597657 77.46875-84.722657 131.078125-1.652343 10.898437-11.832031 18.4375-22.773437 16.773437-10.921875-1.65625-18.429688-11.847656-16.777344-22.769531zm297.082031 212.316406c-50.488281 19.765625-107.296875 16.910157-155.871093-7.835937-38.808594-19.769532-68.839844-51.515625-86.957032-91.234375l45.101563 12.082031c10.667969 2.859375 21.632812-3.476562 24.492187-14.144531s-3.472656-21.636719-14.140625-24.496094l-81.355469-21.792969c-11.742187-3.144531-24.179687 5.027344-25.390624 17.492188l-20.898438 77.984375c-2.859375 10.671875 3.472656 21.640625 14.140625 24.5 10.734375 2.875 21.652344-3.542969 24.492187-14.140625l6.175782-23.039063c22.21875 39.632813 55.128906 71.515625 96.183594 92.429688 57.5625 29.328125 126.289062 33.839843 188.609374 9.441406 10.28125-4.027344 15.355469-15.628906 11.332032-25.914063-4.027344-10.285156-15.628906-15.355468-25.914063-11.332031zm176.605469-51.945312c-2.855469-10.667969-13.828125-17.003907-24.492188-14.144531l-23.035156 6.171874c23.191406-39.046874 34.335938-83.46875 31.921875-129.464843-3.457031-65.839844-34.847656-127.09375-86.125-168.0625-8.632812-6.894531-21.214843-5.488281-28.109375 3.144531-6.894531 8.628906-5.488281 21.214844 3.140625 28.105469 42.359375 33.84375 68.292969 84.472656 71.148438 138.910156 2.285156 43.484375-10.183594 85.355469-35.511719 120.902344l-12.089844-45.105469c-2.859375-10.667969-13.824218-17-24.496094-14.140625-10.667968 2.859375-17 13.828125-14.140624 24.496094l21.800781 81.335937c3.21875 12.015625 16.527343 18.589844 28.046875 13.1875l77.796875-20.84375c10.671875-2.855468 17.003906-13.820312 14.144531-24.492187zm0 0"/></svg>