<!-- Generated by IcoMoon.io -->
<svg version="1.1" xmlns="http://www.w3.org/2000/svg" width="32" height="32" viewBox="0 0 32 32">
<title>recycle</title>
<path d="M1.789 15.417c0.615-4.056 2.95-7.67 6.405-9.914 2.414-1.568 5.166-2.353 8.004-2.318l-1.051-1.051c-0.488-0.488-0.488-1.28 0-1.768s1.28-0.488 1.768 0l3.555 3.555c0.658 0.456 0.705 1.396 0.166 1.935l-3.721 3.721c-0.488 0.488-1.28 0.488-1.768 0s-0.488-1.28 0-1.768l2.065-2.065c-2.716-0.261-5.373 0.373-7.656 1.856-2.857 1.856-4.787 4.842-5.295 8.192-0.103 0.681-0.74 1.152-1.423 1.048-0.683-0.104-1.152-0.74-1.049-1.423zM20.357 28.687c-3.156 1.235-6.706 1.057-9.742-0.49-2.426-1.236-4.303-3.22-5.435-5.702l2.819 0.755c0.667 0.179 1.352-0.217 1.531-0.884s-0.217-1.352-0.884-1.531l-5.085-1.362c-0.734-0.197-1.511 0.314-1.587 1.093l-1.306 4.874c-0.179 0.667 0.217 1.353 0.884 1.531 0.671 0.18 1.353-0.221 1.531-0.884l0.386-1.44c1.389 2.477 3.446 4.47 6.011 5.777 3.598 1.833 7.893 2.115 11.788 0.59 0.643-0.252 0.96-0.977 0.708-1.62s-0.977-0.96-1.62-0.708zM31.395 25.44c-0.178-0.667-0.864-1.063-1.531-0.884l-1.44 0.386c1.449-2.44 2.146-5.217 1.995-8.092-0.216-4.115-2.178-7.943-5.383-10.504-0.54-0.431-1.326-0.343-1.757 0.197s-0.343 1.326 0.196 1.757c2.647 2.115 4.268 5.28 4.447 8.682 0.143 2.718-0.636 5.335-2.22 7.556l-0.756-2.819c-0.179-0.667-0.864-1.063-1.531-0.884s-1.063 0.864-0.884 1.531l1.363 5.084c0.201 0.751 1.033 1.162 1.753 0.824l4.862-1.303c0.667-0.178 1.063-0.864 0.884-1.531z"></path>
</svg>
