<svg height="512" viewBox="0 0 510 510" width="512" xmlns="http://www.w3.org/2000/svg"><g id="Layer_2" data-name="Layer 2"><g id="_06.number_5" data-name="06.number_5"><path id="background" d="m255 23a232.07 232.07 0 0 1 90.3 445.78 232.07 232.07 0 0 1 -180.6-427.56 230.57 230.57 0 0 1 90.3-18.22m0-23c-140.83 0-255 114.17-255 255 0 140.83 114.17 255 255 255 140.83 0 255-114.17 255-255 0-140.83-114.17-255-255-255z"/><path d="m330.75 291.9c0 46.2-36 70.2-76.5 70.2-33.3 0-62.1-14.1-75-45l41.4-24c4.8 13.8 13.8 22.2 33.6 22.2s28.5-10.5 28.5-23.4-8.7-23.4-27-23.4h-65.7l8.7-120.6h121.5v45h-76.5l-2.1 28.8h17.1c39 0 72 24 72 70.2z"/></g></g></svg>