<!-- Generated by IcoMoon.io -->
<svg version="1.1" xmlns="http://www.w3.org/2000/svg" width="32" height="32" viewBox="0 0 32 32">
<title>dimmer</title>
<path d="M30.75 0h-29.5c-0.69 0-1.25 0.56-1.25 1.25v29.5c0 0.69 0.56 1.25 1.25 1.25h29.5c0.69 0 1.25-0.56 1.25-1.25v-29.5c0-0.69-0.56-1.25-1.25-1.25zM29.5 29.5h-27v-27h27zM8.625 17.25h6.125v8.75c0 0.69 0.56 1.25 1.25 1.25s1.25-0.56 1.25-1.25v-8.75h6.125c0.69 0 1.25-0.56 1.25-1.25v-4.75c0-0.69-0.56-1.25-1.25-1.25h-6.125v-4c0-0.69-0.56-1.25-1.25-1.25s-1.25 0.56-1.25 1.25v4h-6.125c-0.69 0-1.25 0.56-1.25 1.25v4.75c0 0.69 0.56 1.25 1.25 1.25zM9.875 12.5h12.25v2.25h-12.25z"></path>
</svg>
