<svg height="512pt" viewBox="0 0 512 512" width="512pt" xmlns="http://www.w3.org/2000/svg"><path d="m492 0h-472c-11.046875 0-20 8.953125-20 20v472c0 11.046875 8.953125 20 20 20h472c11.046875 0 20-8.953125 20-20v-472c0-11.046875-8.953125-20-20-20zm-20 472h-432v-432h432zm-334-196h98v140c0 11.046875 8.953125 20 20 20s20-8.953125 20-20v-140h98c11.046875 0 20-8.953125 20-20v-76c0-11.046875-8.953125-20-20-20h-98v-64c0-11.046875-8.953125-20-20-20s-20 8.953125-20 20v64h-98c-11.046875 0-20 8.953125-20 20v76c0 11.046875 8.953125 20 20 20zm20-76h196v36h-196zm0 0"/></svg>