<!-- Generated by IcoMoon.io -->
<svg version="1.1" xmlns="http://www.w3.org/2000/svg" width="32" height="32" viewBox="0 0 32 32">
<title>number-6</title>
<path d="M16 1.443c8.037 0.006 14.551 6.523 14.551 14.561 0 5.992-3.619 11.138-8.79 13.373l-0.094 0.036c-1.661 0.715-3.594 1.13-5.625 1.13-8.042 0-14.561-6.519-14.561-14.561 0-5.98 3.605-11.118 8.76-13.36l0.094-0.036c1.663-0.723 3.601-1.143 5.637-1.143 0.010 0 0.021 0 0.031 0h-0.002zM16 0c-8.836 0-16 7.164-16 16s7.164 16 16 16c8.836 0 16-7.164 16-16s-7.164-16-16-16z"></path>
<path d="M20.894 18.071c0 2.729-1.995 4.649-4.894 4.649-2.918 0-4.894-1.92-4.894-4.649 0-1.016 0.282-1.939 0.772-2.673l4.028-6.118h3.464l-2.861 4.16c2.616 0.207 4.386 2.071 4.386 4.631zM17.882 18.071c0-1.148-0.885-1.826-1.882-1.826-1.016 0-1.882 0.659-1.882 1.826s0.866 1.826 1.882 1.826c0.998 0 1.882-0.678 1.882-1.826z"></path>
</svg>
