<svg height="512pt" viewBox="-67 0 512 512" width="512pt" xmlns="http://www.w3.org/2000/svg"><path d="m358 168.882812h-50v-49.882812c0-65.617188-53.382812-119-119-119s-119 53.382812-119 119v49.882812h-50c-11.046875 0-20 8.953126-20 20v69.878907c0 97.460937 74.152344 177.921875 169 187.941406v25.296875h-13.558594c-11.046875 0-20 8.953125-20 20s8.953125 20 20 20h67.117188c11.046875 0 20-8.953125 20-20s-8.953125-20-20-20h-13.558594v-25.296875c94.847656-10.019531 169-90.480469 169-187.941406v-69.878907c0-11.046874-8.953125-20-20-20zm-248-49.882812c0-43.5625 35.4375-79 79-79s79 35.4375 79 79v139.761719c0 43.5625-35.4375 79-79 79s-79-35.4375-79-79zm228 139.761719c0 82.160156-66.839844 149-149 149s-149-66.839844-149-149v-49.878907h30v49.878907c0 65.617187 53.382812 119 119 119s119-53.382813 119-119v-49.878907h30zm0 0"/></svg>