<!-- Generated by IcoMoon.io -->
<svg version="1.1" xmlns="http://www.w3.org/2000/svg" width="32" height="32" viewBox="0 0 32 32">
<title>microphone</title>
<path d="M26.563 10.555h-3.125v-3.118c0-4.101-3.336-7.438-7.438-7.438s-7.438 3.336-7.438 7.438v3.118h-3.125c-0.69 0-1.25 0.56-1.25 1.25v4.367c0 6.091 4.635 11.12 10.563 11.746v1.581h-0.847c-0.69 0-1.25 0.56-1.25 1.25s0.56 1.25 1.25 1.25h4.195c0.69 0 1.25-0.56 1.25-1.25s-0.56-1.25-1.25-1.25h-0.847v-1.581c5.928-0.626 10.563-5.655 10.563-11.746v-4.367c0-0.69-0.56-1.25-1.25-1.25zM11.063 7.438c0-2.723 2.215-4.938 4.938-4.938s4.938 2.215 4.938 4.938v8.735c0 2.723-2.215 4.938-4.938 4.938s-4.938-2.215-4.938-4.938zM25.313 16.173c0 5.135-4.178 9.313-9.313 9.313s-9.313-4.177-9.313-9.313v-3.117h1.875v3.117c0 4.101 3.336 7.438 7.438 7.438s7.438-3.336 7.438-7.438v-3.117h1.875z"></path>
</svg>
