<!-- Generated by IcoMoon.io -->
<svg version="1.1" xmlns="http://www.w3.org/2000/svg" width="32" height="32" viewBox="0 0 32 32">
<title>dial</title>
<path d="M16 0c-8.843 0-16 7.156-16 16 0 8.843 7.156 16 16 16 8.843 0 16-7.156 16-16 0-8.843-7.156-16-16-16zM16 29.5c-7.461 0-13.5-6.038-13.5-13.5s6.038-13.5 13.5-13.5c7.461 0 13.5 6.038 13.5 13.5s-6.038 13.5-13.5 13.5zM22.187 8.045l-2.562 2.562c-1.036-0.699-2.284-1.107-3.625-1.107-3.584 0-6.5 2.916-6.5 6.5s2.916 6.5 6.5 6.5 6.5-2.916 6.5-6.5c0-1.341-0.408-2.589-1.107-3.625l2.562-2.562c0.488-0.488 0.488-1.28 0-1.768s-1.28-0.488-1.768 0zM16 20c-2.206 0-4-1.794-4-4s1.794-4 4-4 4 1.794 4 4-1.794 4-4 4z"></path>
</svg>
