<svg height="512pt" viewBox="0 0 512 512" width="512pt" xmlns="http://www.w3.org/2000/svg"><path d="m256 0c-141.484375 0-256 114.496094-256 256 0 141.484375 114.496094 256 256 256 141.484375 0 256-114.496094 256-256 0-141.484375-114.496094-256-256-256zm0 472c-119.378906 0-216-96.605469-216-216 0-119.378906 96.605469-216 216-216 119.378906 0 216 96.605469 216 216 0 119.378906-96.605469 216-216 216zm98.996094-343.277344-40.996094 40.992188c-16.578125-11.179688-36.539062-17.714844-58-17.714844-57.347656 0-104 46.652344-104 104s46.652344 104 104 104 104-46.652344 104-104c0-21.460938-6.535156-41.417969-17.714844-58l40.992188-40.992188c7.8125-7.8125 7.8125-20.476562 0-28.285156-7.808594-7.8125-20.472656-7.8125-28.28125 0zm-98.996094 191.277344c-35.289062 0-64-28.710938-64-64s28.710938-64 64-64 64 28.710938 64 64-28.710938 64-64 64zm0 0"/></svg>