<!-- Generated by IcoMoon.io -->
<svg version="1.1" xmlns="http://www.w3.org/2000/svg" width="32" height="32" viewBox="0 0 32 32">
<title>cctv-1</title>
<path d="M30.75 4.502h-1.428l0.29-0.726c0.328-0.82-0.277-1.714-1.161-1.714h-27.201c-0.69 0-1.25 0.56-1.25 1.25v15.083c0 0.69 0.56 1.25 1.25 1.25h9.625l-5.29 5.29h-3.085v-1.168c0-0.69-0.56-1.25-1.25-1.25s-1.25 0.56-1.25 1.25v4.858c0 0.69 0.56 1.25 1.25 1.25s1.25-0.56 1.25-1.25v-1.19h3.603c0.332 0 0.649-0.132 0.884-0.366l7.424-7.424h10.209c0.69 0 1.25-0.56 1.25-1.25v-1.176h4.88c0.69 0 1.25-0.56 1.25-1.25v-10.217c0-0.69-0.56-1.25-1.25-1.25zM23.37 17.145h-20.87v-2.991h20.87zM23.773 11.651h-21.273v-7.088h24.106zM29.5 14.719h-3.63v-1.578l2.453-6.139h1.177z"></path>
</svg>
