<svg height="512pt" viewBox="0 -33 512 512" width="512pt" xmlns="http://www.w3.org/2000/svg"><path d="m492 39.035156h-22.847656l4.640625-11.613281c5.242187-13.117187-4.433594-27.421875-18.570313-27.421875h-435.222656c-11.046875 0-20 8.953125-20 20v241.320312c0 11.046876 8.953125 20 20 20h154l-84.640625 84.644532h-49.359375v-18.691406c0-11.046876-8.953125-20-20-20s-20 8.953124-20 20v77.726562c0 11.046875 8.953125 20 20 20s20-8.953125 20-20v-19.035156h57.644531c5.304688 0 10.390625-2.109375 14.140625-5.859375l118.785156-118.785157h163.351563c11.046875 0 20-8.953124 20-20v-18.820312h78.078125c11.046875 0 20-8.953125 20-20v-163.464844c0-11.042968-8.953125-20-20-20zm-118.078125 202.285156h-333.921875v-47.859374h333.921875zm6.453125-87.910156h-340.375v-113.410156h385.691406zm91.625 49.089844h-58.078125v-25.242188l39.246094-98.222656h18.832031zm0 0"/></svg>