<!-- Generated by IcoMoon.io -->
<svg version="1.1" xmlns="http://www.w3.org/2000/svg" width="32" height="32" viewBox="0 0 32 32">
<title>air-conditioner</title>
<path d="M2.836 7.229c-0.488-0.488-0.488-1.28 0-1.768 3.521-3.522 8.197-5.461 13.164-5.461s9.643 1.939 13.164 5.461c0.488 0.488 0.488 1.28 0 1.768s-1.28 0.488-1.768 0c-3.049-3.049-7.096-4.729-11.396-4.729s-8.347 1.679-11.396 4.729c-0.488 0.488-1.28 0.488-1.768 0zM25.63 10.762c0.488-0.488 0.488-1.28 0-1.768-2.576-2.576-5.996-3.995-9.63-3.995s-7.054 1.419-9.63 3.995c-0.488 0.488-0.488 1.28 0 1.768s1.28 0.488 1.768 0c2.104-2.104 4.896-3.262 7.863-3.262s5.759 1.159 7.863 3.262c0.488 0.488 1.28 0.488 1.768 0zM16 10c-2.119 0-4.157 0.779-5.74 2.193-0.515 0.46-0.56 1.25-0.1 1.765s1.251 0.559 1.765 0.099c1.124-1.004 2.572-1.557 4.075-1.557s2.951 0.553 4.075 1.557c0.515 0.46 1.305 0.416 1.765-0.099s0.415-1.305-0.1-1.765c-1.583-1.414-3.622-2.193-5.74-2.193zM32 17.25v13.5c0 0.69-0.56 1.25-1.25 1.25-1.73 0-28.273 0-29.5 0-0.69 0-1.25-0.56-1.25-1.25v-13.5c0-0.69 0.56-1.25 1.25-1.25h29.5c0.69 0 1.25 0.56 1.25 1.25zM22.125 26h-12.25v3.5h12.25zM29.5 18.5h-27v11h4.875v-4.75c0-0.69 0.56-1.25 1.25-1.25h14.75c0.69 0 1.25 0.56 1.25 1.25v4.75h4.875zM26.625 22.938c0.863 0 1.563-0.699 1.563-1.563s-0.699-1.563-1.563-1.563-1.563 0.699-1.563 1.563 0.699 1.563 1.563 1.563z"></path>
</svg>
