<svg height="512" viewBox="0 0 510 510" width="512" xmlns="http://www.w3.org/2000/svg"><g id="Layer_2" data-name="Layer 2"><g id="_11.number_10" data-name="11.number_10"><path id="background" d="m255 23a232.07 232.07 0 0 1 90.3 445.78 232.07 232.07 0 0 1 -180.6-427.56 230.57 230.57 0 0 1 90.3-18.22m0-23c-140.83 0-255 114.17-255 255 0 140.83 114.17 255 255 255 140.83 0 255-114.17 255-255 0-140.83-114.17-255-255-255z"/><path d="m203 150v210h-48v-159.3l-37.2 10.2-11.7-41.1 54.9-19.8z"/><path d="m233 255c0-64.8 31.2-109.2 85.5-109.2s85.5 44.4 85.5 109.2-31.2 109.2-85.5 109.2-85.5-44.4-85.5-109.2zm123 0c0-40.5-12.3-62.4-37.5-62.4s-37.5 21.9-37.5 62.4 12.3 62.4 37.5 62.4 37.5-21.9 37.5-62.4z"/></g></g></svg>