<svg height="512pt" viewBox="0 0 512 512" width="512pt" xmlns="http://www.w3.org/2000/svg"><path d="m45.375 115.660156c-7.8125-7.8125-7.8125-20.476562 0-28.285156 56.34375-56.34375 131.144531-87.375 210.625-87.375s154.28125 31.03125 210.625 87.375c7.8125 7.8125 7.8125 20.472656 0 28.285156-7.808594 7.808594-20.472656 7.808594-28.285156 0-48.789063-48.789062-113.542969-75.660156-182.339844-75.660156s-133.550781 26.871094-182.339844 75.660156c-7.8125 7.808594-20.476562 7.808594-28.285156 0zm364.710938 56.539063c7.808593-7.808594 7.808593-20.472657 0-28.285157-41.21875-41.214843-95.941407-63.914062-154.085938-63.914062s-112.867188 22.699219-154.085938 63.914062c-7.808593 7.8125-7.808593 20.476563 0 28.285157 7.8125 7.8125 20.476563 7.8125 28.285157 0 33.664062-33.660157 78.339843-52.199219 125.800781-52.199219s92.136719 18.539062 125.800781 52.199219c7.808594 7.8125 20.472657 7.8125 28.285157 0zm-154.085938-12.199219c-33.898438 0-66.515625 12.460938-91.84375 35.085938-8.238281 7.355468-8.953125 20-1.59375 28.238281 7.367188 8.246093 20.007812 8.941406 28.238281 1.589843 17.988281-16.066406 41.144531-24.914062 65.199219-24.914062s47.210938 8.847656 65.195312 24.914062c8.238282 7.359376 20.882813 6.648438 28.242188-1.589843 7.355469-8.238281 6.644531-20.882813-1.59375-28.238281-25.328125-22.625-57.945312-35.085938-91.84375-35.085938zm256 116v216c0 11.046875-8.953125 20-20 20-27.679688 0-452.363281 0-472 0-11.046875 0-20-8.953125-20-20v-216c0-11.046875 8.953125-20 20-20h472c11.046875 0 20 8.953125 20 20zm-158 140h-196v56h196zm118-120h-432v176h78v-76c0-11.046875 8.953125-20 20-20h236c11.046875 0 20 8.953125 20 20v76h78zm-46 71c13.808594 0 25-11.191406 25-25s-11.191406-25-25-25-25 11.191406-25 25 11.191406 25 25 25zm0 0"/></svg>