<svg height="512pt" viewBox="0 0 512.00063 512" width="512pt" xmlns="http://www.w3.org/2000/svg"><path d="m506.144531 241.859375-236-236c-7.8125-7.8125-20.476562-7.8125-28.285156 0-9.539063 9.539063-225.71875 225.714844-236 236-7.8125 7.808594-7.8125 20.472656 0 28.28125 7.808594 7.8125 20.472656 7.8125 28.28125 0l41.859375-41.855469v263.714844c0 11.046875 8.953125 20 20 20h320c11.046875 0 20-8.953125 20-20v-263.714844l41.855469 41.859375c7.8125 7.808594 20.476562 7.808594 28.285156 0 7.8125-7.8125 7.8125-20.476562.003906-28.285156zm-190.144531 230.140625h-120v-38.667969h120zm0-78.664062h-120v-38.667969h120zm0-78.667969h-120v-38.667969h120zm80 157.332031h-40v-216c0-11.046875-8.953125-20-20-20h-160c-11.046875 0-20 8.953125-20 20v216h-40v-283.714844l140-140 140 140zm-125.898438-361.894531c.011719.011719.027344.023437.039063.035156l28.285156 28.285156c7.808594 7.8125 7.808594 20.472657 0 28.285157-3.90625 3.902343-9.023437 5.855468-14.140625 5.855468-2.832031 0-5.660156-.617187-8.285156-1.8125v25.246094c0 11.046875-8.953125 20-20 20s-20-8.953125-20-20v-25.246094c-7.375 3.355469-16.359375 2.023438-22.425781-4.042968-7.8125-7.8125-7.8125-20.476563 0-28.285157l28.28125-28.28125c7.585937-7.585937 20.265625-7.976562 28.246093-.039062zm0 0"/></svg>