<!-- Generated by IcoMoon.io -->
<svg version="1.1" xmlns="http://www.w3.org/2000/svg" width="32" height="32" viewBox="0 0 32 32">
<title>garage</title>
<path d="M31.634 15.116l-14.75-14.75c-0.488-0.488-1.28-0.488-1.768 0-0.596 0.596-14.107 14.107-14.75 14.75-0.488 0.488-0.488 1.28 0 1.768s1.28 0.488 1.768 0l2.616-2.616v16.482c0 0.69 0.56 1.25 1.25 1.25h20c0.69 0 1.25-0.56 1.25-1.25v-16.482l2.616 2.616c0.488 0.488 1.28 0.488 1.768 0s0.488-1.28 0-1.768zM19.75 29.5h-7.5v-2.417h7.5zM19.75 24.584h-7.5v-2.417h7.5zM19.75 19.667h-7.5v-2.417h7.5zM24.75 29.5h-2.5v-13.5c0-0.69-0.56-1.25-1.25-1.25h-10c-0.69 0-1.25 0.56-1.25 1.25v13.5h-2.5v-17.732l8.75-8.75 8.75 8.75zM16.881 6.882c0.001 0.001 0.002 0.001 0.002 0.002l1.768 1.768c0.488 0.488 0.488 1.28 0 1.768-0.244 0.244-0.564 0.366-0.884 0.366-0.177 0-0.354-0.039-0.518-0.113v1.578c0 0.69-0.56 1.25-1.25 1.25s-1.25-0.56-1.25-1.25v-1.578c-0.461 0.21-1.022 0.126-1.402-0.253-0.488-0.488-0.488-1.28 0-1.768l1.768-1.768c0.474-0.474 1.267-0.499 1.765-0.002z"></path>
</svg>
