<svg height="512pt" viewBox="0 0 512 512" width="512pt" xmlns="http://www.w3.org/2000/svg"><path d="m101.921875 92.238281c-7.8125-7.808593-7.816406-20.46875-.011719-28.28125 41.21875-41.242187 95.941406-63.957031 154.089844-63.957031s112.871094 22.714844 154.089844 63.957031c7.804687 7.8125 7.800781 20.476563-.011719 28.28125-7.8125 7.8125-20.476563 7.800781-28.28125-.007812-33.664063-33.679688-78.339844-52.230469-125.796875-52.230469s-92.132812 18.550781-125.796875 52.230469c-7.808594 7.816406-20.46875 7.816406-28.28125.007812zm154.078125-12.09375c-33.898438 0-66.515625 12.460938-91.84375 35.085938-8.238281 7.359375-8.953125 20-1.59375 28.238281 7.328125 8.203125 19.96875 8.980469 28.242188 1.59375 17.984374-16.066406 41.140624-24.917969 65.195312-24.917969s47.210938 8.851563 65.195312 24.917969c8.238282 7.355469 20.882813 6.644531 28.242188-1.59375s6.644531-20.878906-1.59375-28.238281c-25.328125-22.625-57.945312-35.085938-91.84375-35.085938zm256 149.984375v261.871094c0 11.046875-8.953125 20-20 20h-94.398438c-11.046874 0-20-8.953125-20-20v-66.144531h-54.402343v66.144531c0 11.046875-8.953125 20-20 20h-94.398438c-11.046875 0-20-8.953125-20-20v-66.144531h-54.402343v66.144531c0 11.046875-8.953126 20-20 20h-94.398438c-11.046875 0-20-8.953125-20-20v-261.871094c0-5.875 2.582031-11.453125 7.066406-15.253906l47.199219-40.023438c7.460937-6.328124 18.40625-6.328124 25.871094 0l47.199219 40.023438c4.480468 3.800781 7.0625 9.378906 7.0625 15.253906v26.019532h54.402343v-26.019532c0-5.875 2.582031-11.453125 7.0625-15.253906l47.203125-40.023438c7.460938-6.328124 18.40625-6.328124 25.867188 0l47.203125 40.023438c4.480469 3.800781 7.0625 9.378906 7.0625 15.253906v26.019532h54.402343v-26.019532c0-5.875 2.582032-11.453125 7.0625-15.253906l47.199219-40.023438c7.464844-6.328124 18.410157-6.328124 25.871094 0l47.199219 40.023438c4.484375 3.800781 7.066406 9.378906 7.066406 15.253906zm-417.601562 9.265625-27.199219-23.066406-27.199219 23.066406v232.605469h54.398438zm94.402343 56.75h-54.402343v89.707031h54.402343zm94.398438-56.75-27.199219-23.066406-27.199219 23.0625v232.609375h54.398438c0-29.785156 0-203.59375 0-232.605469zm94.402343 56.75h-54.402343v89.707031h54.402343zm94.398438-56.75-27.199219-23.066406-27.199219 23.066406v232.605469h54.398438zm0 0"/></svg>