<!-- Generated by IcoMoon.io -->
<svg version="1.1" xmlns="http://www.w3.org/2000/svg" width="32" height="32" viewBox="0 0 32 32">
<title>gate</title>
<path d="M6.37 5.765c-0.488-0.488-0.489-1.279-0.001-1.768 2.576-2.578 5.996-3.997 9.631-3.997s7.054 1.42 9.631 3.997c0.488 0.488 0.488 1.28-0.001 1.768s-1.28 0.488-1.768-0c-2.104-2.105-4.896-3.264-7.862-3.264s-5.758 1.159-7.862 3.264c-0.488 0.489-1.279 0.489-1.768 0zM16 5.009c-2.119 0-4.157 0.779-5.74 2.193-0.515 0.46-0.56 1.25-0.1 1.765 0.458 0.513 1.248 0.561 1.765 0.1 1.124-1.004 2.571-1.557 4.075-1.557s2.951 0.553 4.075 1.557c0.515 0.46 1.305 0.415 1.765-0.1s0.415-1.305-0.1-1.765c-1.583-1.414-3.622-2.193-5.74-2.193zM32 14.383v16.367c0 0.69-0.56 1.25-1.25 1.25h-5.9c-0.69 0-1.25-0.56-1.25-1.25v-4.134h-3.4v4.134c0 0.69-0.56 1.25-1.25 1.25h-5.9c-0.69 0-1.25-0.56-1.25-1.25v-4.134h-3.4v4.134c0 0.69-0.56 1.25-1.25 1.25h-5.9c-0.69 0-1.25-0.56-1.25-1.25v-16.367c0-0.367 0.161-0.716 0.442-0.953l2.95-2.501c0.466-0.396 1.15-0.396 1.617 0l2.95 2.501c0.28 0.238 0.441 0.586 0.441 0.953v1.626h3.4v-1.626c0-0.367 0.161-0.716 0.441-0.953l2.95-2.501c0.466-0.396 1.15-0.396 1.617 0l2.95 2.501c0.28 0.238 0.441 0.586 0.441 0.953v1.626h3.4v-1.626c0-0.367 0.161-0.716 0.441-0.953l2.95-2.501c0.467-0.396 1.151-0.396 1.617 0l2.95 2.501c0.28 0.238 0.442 0.586 0.442 0.953zM5.9 14.962l-1.7-1.442-1.7 1.442v14.538h3.4zM11.8 18.509h-3.4v5.607h3.4zM17.7 14.962l-1.7-1.442-1.7 1.441v14.538h3.4c0-1.862 0-12.725 0-14.538zM23.6 18.509h-3.4v5.607h3.4zM29.5 14.962l-1.7-1.442-1.7 1.442v14.538h3.4z"></path>
</svg>
