<svg height="512pt" viewBox="-38 0 512 512" width="512pt" xmlns="http://www.w3.org/2000/svg"><path d="m416 0h-396c-11.046875 0-20 8.953125-20 20v472c0 11.046875 8.953125 20 20 20h396c11.046875 0 20-8.953125 20-20v-472c0-11.046875-8.953125-20-20-20zm-20 472h-356v-432h356zm-320-56v-198c0-78.300781 63.699219-142 142-142s142 63.699219 142 142v198c0 11.046875-8.953125 20-20 20s-20-8.953125-20-20v-198c0-56.242188-45.757812-102-102-102s-102 45.757812-102 102v198c0 11.046875-8.953125 20-20 20s-20-8.953125-20-20zm204-198v198c0 11.046875-8.953125 20-20 20s-20-8.953125-20-20v-198c0-12.132812-9.867188-22-22-22s-22 9.867188-22 22v198c0 11.046875-8.953125 20-20 20s-20-8.953125-20-20v-198c0-34.1875 27.8125-62 62-62s62 27.8125 62 62zm0 0"/></svg>