<!-- Generated by IcoMoon.io -->
<svg version="1.1" xmlns="http://www.w3.org/2000/svg" width="32" height="32" viewBox="0 0 32 32">
<title>fingerprint</title>
<path d="M28.375 0h-24.75c-0.69 0-1.25 0.56-1.25 1.25v29.5c0 0.69 0.56 1.25 1.25 1.25h24.75c0.69 0 1.25-0.56 1.25-1.25v-29.5c0-0.69-0.56-1.25-1.25-1.25zM27.125 29.5h-22.25v-27h22.25zM7.125 26v-12.375c0-4.894 3.981-8.875 8.875-8.875s8.875 3.981 8.875 8.875v12.375c0 0.69-0.56 1.25-1.25 1.25s-1.25-0.56-1.25-1.25v-12.375c0-3.515-2.86-6.375-6.375-6.375s-6.375 2.86-6.375 6.375v12.375c0 0.69-0.56 1.25-1.25 1.25s-1.25-0.56-1.25-1.25zM19.875 13.625v12.375c0 0.69-0.56 1.25-1.25 1.25s-1.25-0.56-1.25-1.25v-12.375c0-0.758-0.617-1.375-1.375-1.375s-1.375 0.617-1.375 1.375v12.375c0 0.69-0.56 1.25-1.25 1.25s-1.25-0.56-1.25-1.25v-12.375c0-2.137 1.738-3.875 3.875-3.875s3.875 1.738 3.875 3.875z"></path>
</svg>
