<svg height="512pt" viewBox="0 -38 512.00004 512" width="512pt" xmlns="http://www.w3.org/2000/svg"><path d="m511.023438 249.867188c-3.175782-9.867188-72.570313-225.363282-75.996094-236-2.660156-8.261719-10.351563-13.867188-19.035156-13.867188h-319.984376c-8.683593 0-16.375 5.605469-19.035156 13.867188-3.441406 10.679687-72.828125 226.160156-75.996094 236-4.15625 12.914062 5.488282 26.132812 19.035157 26.132812h215.988281v46.101562c-43.363281 9.226563-75.996094 47.820313-75.996094 93.898438 0 11.046875 8.953125 20 20 20h151.992188c11.042968 0 20-8.953125 20-20 0-46.078125-32.632813-84.671875-75.996094-93.898438v-46.101562h215.988281c13.566407 0 23.1875-13.238281 19.035157-26.132812zm-326.644532-209.867188h51.621094v78h-58.230469zm-56.75 196h-80.167968l25.117187-78h61.660156zm10-118h-52.167968l25.117187-78h33.660156zm30.140625 118 6.609375-78h61.621094v78zm140.539063 160h-104.613282c8.066407-21.03125 28.46875-36 52.304688-36s44.238281 14.96875 52.308594 36zm-32.308594-356h51.617188l6.613281 78h-58.230469zm0 196v-78h61.617188l6.613281 78zm91.761719-196h33.660156l25.117187 78h-52.167968zm16.609375 196-6.609375-78h61.65625l25.121093 78zm0 0"/></svg>