<svg height="512" viewBox="0 0 510 510" width="512" xmlns="http://www.w3.org/2000/svg"><g id="Layer_2" data-name="Layer 2"><g id="_15.number_14" data-name="15.number_14"><path id="background" d="m255 23a232.07 232.07 0 0 1 90.3 445.78 232.07 232.07 0 0 1 -180.6-427.56 230.57 230.57 0 0 1 90.3-18.22m0-23c-140.83 0-255 114.17-255 255 0 140.83 114.17 255 255 255 140.83 0 255-114.17 255-255 0-140.83-114.17-255-255-255z"/><path d="m207.45 150v210h-48v-159.3l-37.2 10.2-11.7-41.1 54.9-19.8z"/><path d="m399.45 326.4h-21v33.6h-48.6v-33.6h-95.4v-44.4l66.9-132h51.65l-66.9 132h43.8v-45h48.6v45h21z"/></g></g></svg>