<!-- Generated by IcoMoon.io -->
<svg version="1.1" xmlns="http://www.w3.org/2000/svg" width="32" height="32" viewBox="0 0 32 32">
<title>solar-panel</title>
<path d="M31.939 17.992c-0.198-0.617-4.536-14.085-4.75-14.75-0.166-0.516-0.647-0.867-1.19-0.867h-19.999c-0.543 0-1.023 0.35-1.19 0.867-0.215 0.667-4.552 14.135-4.75 14.75-0.26 0.807 0.343 1.633 1.19 1.633h13.499v2.881c-2.71 0.577-4.75 2.989-4.75 5.869 0 0.69 0.56 1.25 1.25 1.25h9.499c0.69 0 1.25-0.56 1.25-1.25 0-2.88-2.040-5.292-4.75-5.869v-2.881h13.499c0.848 0 1.449-0.827 1.19-1.633zM11.524 4.875h3.226v4.875h-3.639zM7.977 17.125h-5.011l1.57-4.875h3.854zM8.602 9.75h-3.261l1.57-4.875h2.104zM10.486 17.125l0.413-4.875h3.851v4.875zM19.269 27.125h-6.538c0.504-1.314 1.779-2.25 3.269-2.25s2.765 0.936 3.269 2.25zM17.25 4.875h3.226l0.413 4.875h-3.639zM17.25 17.125v-4.875h3.851l0.413 4.875zM22.985 4.875h2.104l1.57 4.875h-3.261zM24.023 17.125l-0.413-4.875h3.854l1.57 4.875z"></path>
</svg>
