<svg height="512pt" viewBox="0 0 512 512" width="512pt" xmlns="http://www.w3.org/2000/svg"><path d="m492 0c-21.390625 0-451.332031 0-472 0-11.046875 0-20 8.953125-20 20s8.953125 20 20 20h56v74c0 11.046875 8.953125 20 20 20h90v36h-22.375c-11.046875 0-20 8.953125-20 20s8.953125 20 20 20h184.75c11.046875 0 20-8.953125 20-20s-8.953125-20-20-20h-22.375v-36h90c11.046875 0 20-8.953125 20-20v-74h56c11.046875 0 20-8.953125 20-20s-8.953125-20-20-20zm-206 170h-60v-36h60zm110-76c-21.667969 0-268.386719 0-280 0v-54h280zm83.484375 297.144531c7.8125 7.8125 7.8125 20.476563 0 28.285157-7.808594 7.8125-20.472656 7.808593-28.285156 0l-149.285157-149.285157c-7.8125-7.8125-7.8125-20.476562 0-28.285156 7.8125-7.8125 20.476563-7.8125 28.285157 0zm-269.398437-149.289062c7.8125 7.8125 7.8125 20.476562 0 28.285156l-149.285157 149.289063c-7.8125 7.8125-20.476562 7.808593-28.285156 0-7.8125-7.8125-7.8125-20.476563 0-28.285157l149.285156-149.285156c7.808594-7.8125 20.472657-7.8125 28.285157-.003906zm65.914062 39.394531v210.75c0 11.046875-8.953125 20-20 20s-20-8.953125-20-20v-210.75c0-11.046875 8.953125-20 20-20s20 8.953125 20 20zm0 0"/></svg>