<!-- Generated by IcoMoon.io -->
<svg version="1.1" xmlns="http://www.w3.org/2000/svg" width="32" height="32" viewBox="0 0 32 32">
<title>smoke-detector</title>
<path d="M30.75 0c-1.337 0-28.208 0-29.5 0-0.69 0-1.25 0.56-1.25 1.25s0.56 1.25 1.25 1.25h3.5v4.625c0 0.69 0.56 1.25 1.25 1.25h5.625v2.25h-1.398c-0.69 0-1.25 0.56-1.25 1.25s0.56 1.25 1.25 1.25h11.547c0.69 0 1.25-0.56 1.25-1.25s-0.56-1.25-1.25-1.25h-1.398v-2.25h5.625c0.69 0 1.25-0.56 1.25-1.25v-4.625h3.5c0.69 0 1.25-0.56 1.25-1.25s-0.56-1.25-1.25-1.25zM17.875 10.625h-3.75v-2.25h3.75zM24.75 5.875c-1.354 0-16.774 0-17.5 0v-3.375h17.5zM29.968 24.447c0.488 0.488 0.488 1.28 0 1.768s-1.28 0.488-1.768 0l-9.33-9.33c-0.488-0.488-0.488-1.28 0-1.768s1.28-0.488 1.768 0zM13.13 15.116c0.488 0.488 0.488 1.28 0 1.768l-9.33 9.331c-0.488 0.488-1.28 0.488-1.768 0s-0.488-1.28 0-1.768l9.33-9.33c0.488-0.488 1.28-0.488 1.768-0zM17.25 17.578v13.172c0 0.69-0.56 1.25-1.25 1.25s-1.25-0.56-1.25-1.25v-13.172c0-0.69 0.56-1.25 1.25-1.25s1.25 0.56 1.25 1.25z"></path>
</svg>
