<svg height="511pt" viewBox="-45 1 511 511.999" width="511pt" xmlns="http://www.w3.org/2000/svg"><path d="m421.296875 129.214844v-109.214844c0-11.046875-8.945313-20-19.980469-20h-380.636718c-11.035157 0-19.980469 8.953125-19.980469 20v109.238281c-.667969 4.699219.339843 9.566407 3.003906 13.679688l58.621094 90.585937c3.683593 5.691406 9.996093 9.125 16.769531 9.125h257.945312c6.460938 0 12.523438-3.125 16.273438-8.394531l64.484375-90.585937c3.023437-4.25 4.214844-9.429688 3.5-14.433594zm-94.554687 73.414062h-236.78125l-32.738282-50.585937h305.53125zm54.59375-90.585937h-340.675782v-72.042969h340.675782zm-311.117188 219.402343c-2.449219 4.085938-3.109375 5.183594-3.109375 9.574219 0 4.394531.660156 5.492188 3.109375 9.578125 3.507812 5.84375 8.808594 14.679688 8.808594 30.152344s-5.300782 24.308594-8.808594 30.15625c-2.453125 4.085938-3.109375 5.183594-3.109375 9.578125 0 11.042969-8.953125 20-20 20s-20-8.957031-20-20c0-15.472656 5.300781-24.308594 8.808594-30.15625 2.453125-4.085937 3.109375-5.183594 3.109375-9.578125 0-4.390625-.660156-5.488281-3.109375-9.574219-3.507813-5.847656-8.808594-14.683593-8.808594-30.15625 0-15.472656 5.300781-24.308593 8.808594-30.152343 2.449219-4.085938 3.109375-5.183594 3.109375-9.574219 0-11.046875 8.953125-20 20-20s20 8.953125 20 20c0 15.472656-5.300782 24.308593-8.808594 30.152343zm105.285156 71.515626c-2.449218 4.085937-3.109375 5.183593-3.109375 9.574218 0 4.394532.660157 5.492188 3.109375 9.578125 3.507813 5.847657 8.808594 14.683594 8.808594 30.152344 0 15.472656-5.300781 24.308594-8.808594 30.15625-2.449218 4.085937-3.109375 5.183594-3.109375 9.578125 0 11.046875-8.953125 20-20 20s-20-8.953125-20-20c0-15.472656 5.300781-24.308594 8.808594-30.15625 2.453125-4.085938 3.109375-5.183594 3.109375-9.578125 0-4.390625-.65625-5.488281-3.109375-9.574219-3.507813-5.847656-8.808594-14.683594-8.808594-30.15625s5.300781-24.308594 8.808594-30.152344c2.453125-4.085937 3.109375-5.183593 3.109375-9.574218 0-11.046875 8.957031-20 20-20 11.046875 0 20 8.953125 20 20 0 15.472656-5.300781 24.304687-8.808594 30.152344zm105.285156-71.515626c-2.449218 4.085938-3.105468 5.183594-3.105468 9.574219 0 4.394531.65625 5.492188 3.105468 9.578125 3.511719 5.84375 8.8125 14.679688 8.8125 30.152344s-5.300781 24.308594-8.8125 30.15625c-2.449218 4.085938-3.105468 5.183594-3.105468 9.578125 0 11.042969-8.957032 20-20 20-11.046875 0-20-8.957031-20-20 0-15.472656 5.300781-24.308594 8.808594-30.15625 2.449218-4.085937 3.109374-5.183594 3.109374-9.578125 0-4.390625-.660156-5.488281-3.109374-9.574219-3.507813-5.847656-8.808594-14.683593-8.808594-30.15625 0-15.472656 5.300781-24.308593 8.808594-30.152343 2.449218-4.085938 3.109374-5.183594 3.109374-9.574219 0-11.046875 8.953126-20 20-20 11.046876 0 20 8.953125 20 20 0 15.472656-5.304687 24.308593-8.8125 30.152343zm105.289063 71.515626c-2.453125 4.085937-3.109375 5.183593-3.109375 9.574218 0 4.394532.660156 5.492188 3.109375 9.578125 3.507813 5.847657 8.808594 14.683594 8.808594 30.152344 0 15.472656-5.300781 24.308594-8.808594 30.15625-2.449219 4.085937-3.109375 5.183594-3.109375 9.578125 0 11.046875-8.953125 20-20 20s-20-8.953125-20-20c0-15.472656 5.300781-24.308594 8.808594-30.15625 2.449218-4.085938 3.109375-5.183594 3.109375-9.578125 0-4.390625-.660157-5.488281-3.109375-9.574219-3.507813-5.847656-8.808594-14.683594-8.808594-30.15625s5.300781-24.308594 8.808594-30.152344c2.453125-4.085937 3.109375-5.183593 3.109375-9.574218 0-11.046875 8.953125-20 20-20s20 8.953125 20 20c0 15.472656-5.300781 24.304687-8.808594 30.152344zm0 0"/></svg>