<!-- Generated by IcoMoon.io -->
<svg version="1.1" xmlns="http://www.w3.org/2000/svg" width="32" height="32" viewBox="0 0 32 32">
<title>smoke-detector-1</title>
<path d="M29.175 8.013v-6.826c0-0.69-0.559-1.25-1.249-1.25h-23.79c-0.69 0-1.249 0.56-1.249 1.25v6.827c-0.042 0.294 0.021 0.598 0.188 0.855l3.664 5.662c0.23 0.356 0.625 0.57 1.048 0.57h16.122c0.404 0 0.783-0.195 1.017-0.525l4.030-5.662c0.189-0.266 0.263-0.589 0.219-0.902zM23.265 12.602h-14.799l-2.046-3.162h19.096zM26.677 6.94h-21.292v-4.503h21.292zM7.232 20.653c-0.153 0.255-0.194 0.324-0.194 0.598s0.041 0.343 0.194 0.599c0.219 0.365 0.551 0.917 0.551 1.885s-0.331 1.519-0.551 1.885c-0.153 0.255-0.194 0.324-0.194 0.599 0 0.69-0.56 1.25-1.25 1.25s-1.25-0.56-1.25-1.25c0-0.967 0.331-1.519 0.551-1.885 0.153-0.255 0.194-0.324 0.194-0.599s-0.041-0.343-0.194-0.598c-0.219-0.365-0.551-0.918-0.551-1.885s0.331-1.519 0.551-1.885c0.153-0.255 0.194-0.324 0.194-0.598 0-0.69 0.56-1.25 1.25-1.25s1.25 0.56 1.25 1.25c0 0.967-0.331 1.519-0.551 1.885zM13.813 25.123c-0.153 0.255-0.194 0.324-0.194 0.598s0.041 0.343 0.194 0.599c0.219 0.365 0.551 0.918 0.551 1.885s-0.331 1.519-0.551 1.885c-0.153 0.255-0.194 0.324-0.194 0.599 0 0.69-0.56 1.25-1.25 1.25s-1.25-0.56-1.25-1.25c0-0.967 0.331-1.519 0.551-1.885 0.153-0.255 0.194-0.324 0.194-0.599s-0.041-0.343-0.194-0.598c-0.219-0.365-0.551-0.918-0.551-1.885s0.331-1.519 0.551-1.885c0.153-0.255 0.194-0.324 0.194-0.598 0-0.69 0.56-1.25 1.25-1.25s1.25 0.56 1.25 1.25c0 0.967-0.331 1.519-0.551 1.885zM20.393 20.653c-0.153 0.255-0.194 0.324-0.194 0.598s0.041 0.343 0.194 0.599c0.219 0.365 0.551 0.917 0.551 1.885s-0.331 1.519-0.551 1.885c-0.153 0.255-0.194 0.324-0.194 0.599 0 0.69-0.56 1.25-1.25 1.25s-1.25-0.56-1.25-1.25c0-0.967 0.331-1.519 0.551-1.885 0.153-0.255 0.194-0.324 0.194-0.599s-0.041-0.343-0.194-0.598c-0.219-0.365-0.551-0.918-0.551-1.885s0.331-1.519 0.551-1.885c0.153-0.255 0.194-0.324 0.194-0.598 0-0.69 0.56-1.25 1.25-1.25s1.25 0.56 1.25 1.25c0 0.967-0.332 1.519-0.551 1.885zM26.974 25.123c-0.153 0.255-0.194 0.324-0.194 0.598s0.041 0.343 0.194 0.599c0.219 0.365 0.551 0.918 0.551 1.885s-0.331 1.519-0.551 1.885c-0.153 0.255-0.194 0.324-0.194 0.599 0 0.69-0.56 1.25-1.25 1.25s-1.25-0.56-1.25-1.25c0-0.967 0.331-1.519 0.551-1.885 0.153-0.255 0.194-0.324 0.194-0.599s-0.041-0.343-0.194-0.598c-0.219-0.365-0.551-0.918-0.551-1.885s0.331-1.519 0.551-1.885c0.153-0.255 0.194-0.324 0.194-0.598 0-0.69 0.56-1.25 1.25-1.25s1.25 0.56 1.25 1.25c0 0.967-0.331 1.519-0.551 1.885z"></path>
</svg>
