<!-- Generated by IcoMoon.io -->
<svg version="1.1" xmlns="http://www.w3.org/2000/svg" width="32" height="32" viewBox="0 0 32 32">
<title>smoke-detector-2</title>
<path d="M30.75 0h-29.5c-0.69 0-1.25 0.56-1.25 1.25s0.56 1.25 1.25 1.25h4.172l4.626 5.435c0.238 0.279 0.585 0.44 0.952 0.44h3.75v2.25h-1.844c-0.69 0-1.25 0.56-1.25 1.25s0.56 1.25 1.25 1.25h6.188c0.69 0 1.25-0.56 1.25-1.25s-0.56-1.25-1.25-1.25h-1.844v-2.25h3.75c0.366 0 0.714-0.161 0.952-0.44l4.626-5.435h4.172c0.69 0 1.25-0.56 1.25-1.25s-0.56-1.25-1.25-1.25zM20.422 5.875h-8.845l-2.872-3.375h14.589zM17.017 15.273c-0.498-0.696-1.535-0.696-2.033 0-0.052 0.073-1.294 1.813-2.556 3.926-2.677 4.481-2.677 6.040-2.677 6.552 0 3.446 2.804 6.25 6.25 6.25s6.25-2.804 6.25-6.25c0-0.512 0-2.071-2.677-6.552-1.262-2.112-2.504-3.853-2.556-3.926zM16 29.5c-0.689 0-1.25-0.561-1.25-1.25s0.561-1.25 1.25-1.25 1.25 0.561 1.25 1.25-0.561 1.25-1.25 1.25zM19.535 27c-0.516-1.455-1.905-2.5-3.535-2.5s-3.019 1.045-3.535 2.5c-0.139-0.391-0.215-0.812-0.215-1.25 0-1.361 1.953-4.826 3.75-7.542 1.797 2.715 3.75 6.18 3.75 7.542 0 0.438-0.076 0.859-0.215 1.25z"></path>
</svg>
