<!-- Generated by IcoMoon.io -->
<svg version="1.1" xmlns="http://www.w3.org/2000/svg" width="32" height="32" viewBox="0 0 32 32">
<title>number-17</title>
<path d="M16 1.443c8.037 0.006 14.551 6.523 14.551 14.561 0 5.992-3.619 11.138-8.79 13.373l-0.094 0.036c-1.661 0.715-3.594 1.13-5.625 1.13-8.042 0-14.561-6.519-14.561-14.561 0-5.98 3.605-11.118 8.76-13.36l0.094-0.036c1.663-0.723 3.601-1.143 5.637-1.143 0.010 0 0.021 0 0.031 0h-0.002zM16 0c-8.836 0-16 7.164-16 16s7.164 16 16 16c8.836 0 16-7.164 16-16s-7.164-16-16-16z"></path>
<path d="M13.958 9.412v13.176h-3.012v-9.995l-2.334 0.64-0.734-2.579 3.445-1.242z"></path>
<path d="M24.122 9.412v2.522l-4.292 10.654h-3.2l4.141-10.278h-5.308v-2.899z"></path>
</svg>
