<svg height="512pt" viewBox="0 0 512 512.001" width="512pt" xmlns="http://www.w3.org/2000/svg"><path d="m492 0h-472c-11.046875 0-20 8.953125-20 20s8.953125 20 20 20h66.757812l74.011719 86.964844c3.800781 4.464844 9.367188 7.039062 15.230469 7.039062h60v36h-29.5c-11.046875 0-20 8.953125-20 20s8.953125 20 20 20h99c11.046875 0 20-8.953125 20-20s-8.953125-20-20-20h-29.5v-36h60c5.863281 0 11.429688-2.574218 15.230469-7.039062l74.011719-86.964844h66.757812c11.046875 0 20-8.953125 20-20s-8.953125-20-20-20zm-165.242188 94.003906h-141.515624l-45.957032-54h233.429688zm-54.492187 150.363282c-7.96875-11.140626-24.558594-11.140626-32.53125 0-.835937 1.167968-20.710937 29.011718-40.902344 62.808593-42.828125 71.691407-42.828125 96.632813-42.828125 104.828125 0 55.136719 44.859375 99.996094 99.996094 99.996094 55.140625 0 100-44.859375 100-99.996094 0-8.195312 0-33.136718-42.832031-104.828125-20.191407-33.796875-40.066407-61.640625-40.902344-62.808593zm-16.265625 227.632812c-11.027344 0-20-8.972656-20-20s8.972656-20 20-20 20 8.972656 20 20-8.972656 20-20 20zm56.558594-40.003906c-8.257813-23.277344-30.484375-39.996094-56.558594-39.996094-26.070312 0-48.300781 16.71875-56.558594 39.996094-2.21875-6.257813-3.4375-12.984375-3.4375-19.996094 0-21.773438 31.246094-77.214844 60-120.675781 28.753906 43.445312 59.996094 98.875 59.996094 120.675781 0 7.011719-1.222656 13.738281-3.441406 19.996094zm0 0"/></svg>