<svg height="512pt" viewBox="0 0 512 512" width="512pt" xmlns="http://www.w3.org/2000/svg"><path d="m492 274.007812h-98v-18.007812c0-11.046875-8.953125-20-20-20h-98v-28h33.519531c11.046875 0 20-8.953125 20-20s-8.953125-20-20-20h-53.5c-.003906 0-.011719 0-.019531 0-.003906 0-.011719 0-.019531 0h-53.5c-11.046875 0-20 8.953125-20 20s8.953125 20 20 20h33.519531v28h-98c-11.046875 0-20 8.953125-20 20v18.007812h-98c-11.046875 0-20 8.953126-20 20v159.988282c0 11.046875 8.953125 20 20 20h98v18.003906c0 11.046875 8.953125 20 20 20h236c11.046875 0 20-8.953125 20-20v-18.003906h98c11.046875 0 20-8.953125 20-20v-159.988282c0-11.046874-8.953125-20-20-20zm-374 159.988282h-78v-119.988282h78zm236 38.003906h-196c0-8.625 0-182.625 0-196h196zm118-38.003906h-78v-119.988282h78zm-370.082031-341.796875c-7.8125-7.808594-7.8125-20.472657-.003907-28.28125 41.21875-41.21875 95.941407-63.917969 154.085938-63.917969s112.867188 22.699219 154.085938 63.917969c7.808593 7.808593 7.808593 20.472656-.003907 28.28125-7.8125 7.816406-20.476562 7.808593-28.28125 0-33.664062-33.660157-78.339843-52.199219-125.800781-52.199219s-92.136719 18.539062-125.800781 52.199219c-7.808594 7.8125-20.472657 7.8125-28.28125 0zm245.925781 22.882812c8.238281 7.359375 8.953125 20.003907 1.59375 28.238281-7.378906 8.261719-20.023438 8.933594-28.238281 1.59375-17.988281-16.066406-41.144531-24.914062-65.199219-24.914062s-47.210938 8.847656-65.195312 24.914062c-8.238282 7.359376-20.882813 6.644532-28.242188-1.59375-7.355469-8.234374-6.644531-20.878906 1.59375-28.238281 25.328125-22.621093 57.945312-35.082031 91.84375-35.082031s66.515625 12.460938 91.84375 35.082031zm0 0"/></svg>