<!-- Generated by IcoMoon.io -->
<svg version="1.1" xmlns="http://www.w3.org/2000/svg" width="32" height="32" viewBox="0 0 32 32">
<title>smart-1</title>
<path d="M30.75 17.125h-6.125v-1.126c0-0.69-0.56-1.25-1.25-1.25h-6.125v-1.75h2.095c0.69 0 1.25-0.56 1.25-1.25s-0.56-1.25-1.25-1.25h-3.344c-0 0-0.001 0-0.001 0s-0.001 0-0.001 0h-3.344c-0.69 0-1.25 0.56-1.25 1.25s0.56 1.25 1.25 1.25h2.095v1.75h-6.125c-0.69 0-1.25 0.56-1.25 1.25v1.126h-6.125c-0.69 0-1.25 0.56-1.25 1.25v9.999c0 0.69 0.56 1.25 1.25 1.25h6.125v1.125c0 0.69 0.56 1.25 1.25 1.25h14.75c0.69 0 1.25-0.56 1.25-1.25v-1.125h6.125c0.69 0 1.25-0.56 1.25-1.25v-9.999c0-0.69-0.56-1.25-1.25-1.25zM7.375 27.125h-4.875v-7.499h4.875zM22.125 29.5h-12.25c0-0.539 0-11.414 0-12.25h12.25zM29.5 27.125h-4.875v-7.499h4.875zM6.37 5.762c-0.488-0.488-0.488-1.28-0-1.768 2.576-2.576 5.996-3.995 9.63-3.995s7.054 1.419 9.63 3.995c0.488 0.488 0.488 1.28-0 1.768s-1.28 0.488-1.768 0c-2.104-2.104-4.896-3.262-7.863-3.262s-5.759 1.159-7.863 3.262c-0.488 0.488-1.28 0.488-1.768 0zM21.74 7.193c0.515 0.46 0.56 1.25 0.1 1.765-0.461 0.516-1.251 0.558-1.765 0.1-1.124-1.004-2.572-1.557-4.075-1.557s-2.951 0.553-4.075 1.557c-0.515 0.46-1.305 0.415-1.765-0.1s-0.415-1.305 0.1-1.765c1.583-1.414 3.622-2.193 5.74-2.193s4.157 0.779 5.74 2.193z"></path>
</svg>
