<!-- Generated by IcoMoon.io -->
<svg version="1.1" xmlns="http://www.w3.org/2000/svg" width="32" height="32" viewBox="0 0 32 32">
<title>battery</title>
<path d="M26 4.75h-3.5v-3.5c0-0.69-0.56-1.25-1.25-1.25s-1.25 0.56-1.25 1.25v3.5h-8v-3.5c0-0.69-0.56-1.25-1.25-1.25s-1.25 0.56-1.25 1.25v3.5h-3.5c-0.69 0-1.25 0.56-1.25 1.25v24.75c0 0.69 0.56 1.25 1.25 1.25h20c0.69 0 1.25-0.56 1.25-1.25v-24.75c0-0.69-0.56-1.25-1.25-1.25zM24.75 29.5h-17.5v-22.25h17.5zM11.214 17.682l4.917-7.375c0.383-0.574 1.159-0.73 1.733-0.347s0.73 1.159 0.347 1.733l-3.621 5.432h5.157c0.998 0 1.593 1.115 1.040 1.943l-4.917 7.375c-0.384 0.576-1.161 0.728-1.733 0.347-0.574-0.383-0.729-1.159-0.347-1.733l3.621-5.432h-5.157c-0.998 0-1.593-1.115-1.040-1.943z"></path>
</svg>
