<svg height="512pt" viewBox="-76 0 512 512" width="512pt" xmlns="http://www.w3.org/2000/svg"><path d="m340 76h-56v-56c0-11.046875-8.953125-20-20-20s-20 8.953125-20 20v56h-128v-56c0-11.046875-8.953125-20-20-20s-20 8.953125-20 20v56h-56c-11.046875 0-20 8.953125-20 20v396c0 11.046875 8.953125 20 20 20h320c11.046875 0 20-8.953125 20-20v-396c0-11.046875-8.953125-20-20-20zm-20 396h-280v-356h280zm-216.578125-189.09375 78.667969-118c6.125-9.191406 18.542968-11.675781 27.734375-5.546875 9.191406 6.125 11.671875 18.542969 5.546875 27.734375l-57.9375 86.90625h82.503906c15.964844 0 25.480469 17.835938 16.640625 31.09375l-78.667969 118c-6.148437 9.222656-18.574218 11.652344-27.734375 5.546875-9.191406-6.125-11.671875-18.542969-5.546875-27.734375l57.9375-86.90625h-82.503906c-15.964844 0-25.480469-17.835938-16.640625-31.09375zm0 0"/></svg>