<!-- Generated by IcoMoon.io -->
<svg version="1.1" xmlns="http://www.w3.org/2000/svg" width="32" height="32" viewBox="0 0 32 32">
<title>vacuum</title>
<path d="M16 0c-8.843 0-16 7.156-16 16 0 8.843 7.156 16 16 16 8.843 0 16-7.156 16-16 0-8.843-7.156-16-16-16zM16 2.5c7.080 0 12.819 5.419 13.442 12.25h-3.583c-0.617-4.892-4.803-8.688-9.859-8.688s-9.242 3.796-9.859 8.688h-3.583c0.623-6.83 6.362-12.25 13.442-12.25zM16 29.5c-7.080 0-12.819-5.419-13.442-12.25h4.755c0.69 0 1.25-0.56 1.25-1.25 0-4.101 3.336-7.438 7.438-7.438s7.438 3.336 7.438 7.438c0 0.69 0.56 1.25 1.25 1.25h4.755c-0.623 6.83-6.362 12.25-13.442 12.25zM16 11c-2.757 0-5 2.243-5 5s2.243 5 5 5 5-2.243 5-5-2.243-5-5-5zM16 18.5c-1.378 0-2.5-1.122-2.5-2.5s1.122-2.5 2.5-2.5 2.5 1.122 2.5 2.5-1.122 2.5-2.5 2.5z"></path>
</svg>
