<svg height="512pt" viewBox="0 0 512 512" width="512pt" xmlns="http://www.w3.org/2000/svg"><path d="m256 0c-141.484375 0-256 114.496094-256 256 0 141.484375 114.496094 256 256 256 141.484375 0 256-114.496094 256-256 0-141.484375-114.496094-256-256-256zm0 40c113.28125 0 205.109375 86.707031 215.078125 196h-57.332031c-9.867188-78.265625-76.847656-139-157.746094-139s-147.878906 60.734375-157.746094 139h-57.332031c9.96875-109.28125 101.785156-196 215.078125-196zm0 432c-113.28125 0-205.109375-86.707031-215.078125-196h76.078125c11.046875 0 20-8.953125 20-20 0-65.617188 53.382812-119 119-119s119 53.382812 119 119c0 11.046875 8.953125 20 20 20h76.078125c-9.96875 109.28125-101.785156 196-215.078125 196zm0-296c-44.113281 0-80 35.886719-80 80s35.886719 80 80 80 80-35.886719 80-80-35.886719-80-80-80zm0 120c-22.054688 0-40-17.945312-40-40s17.945312-40 40-40 40 17.945312 40 40-17.945312 40-40 40zm0 0"/></svg>