<!-- Generated by IcoMoon.io -->
<svg version="1.1" xmlns="http://www.w3.org/2000/svg" width="32" height="32" viewBox="0 0 32 32">
<title>water</title>
<path d="M32 16.578c0 3.63-1.419 7.046-3.995 9.619-0.489 0.488-1.28 0.487-1.768-0.001s-0.487-1.28 0.001-1.768c2.103-2.101 3.262-4.888 3.262-7.85s-1.158-5.749-3.262-7.85c-0.489-0.488-0.489-1.279-0.001-1.768s1.279-0.489 1.768-0.001c2.576 2.573 3.995 5.989 3.995 9.619zM24.808 10.839c-0.46-0.515-1.25-0.559-1.765-0.1s-0.559 1.25-0.1 1.765c1.004 1.124 1.557 2.572 1.557 4.075s-0.553 2.951-1.557 4.075c-0.46 0.515-0.415 1.305 0.1 1.765 0.513 0.459 1.304 0.416 1.765-0.1 1.414-1.583 2.193-3.622 2.193-5.74s-0.779-4.157-2.193-5.74zM2.5 16.578c0-2.961 1.158-5.749 3.262-7.85 0.489-0.488 0.489-1.279 0.001-1.768s-1.279-0.489-1.768-0.001c-2.576 2.573-3.995 5.989-3.995 9.619s1.419 7.046 3.995 9.619c0.488 0.487 1.28 0.488 1.768-0.001s0.487-1.28-0.001-1.768c-2.103-2.101-3.262-4.888-3.262-7.85zM8.957 10.739c-0.515-0.46-1.305-0.415-1.765 0.1-1.414 1.583-2.193 3.622-2.193 5.74s0.779 4.157 2.193 5.74c0.46 0.515 1.251 0.559 1.765 0.099s0.56-1.25 0.1-1.765c-1.004-1.124-1.557-2.572-1.557-4.075s0.553-2.951 1.557-4.075c0.46-0.515 0.415-1.305-0.1-1.765zM19.573 9.942c2.677 4.475 2.677 6.032 2.677 6.544 0 3.443-2.803 6.243-6.25 6.243s-6.25-2.801-6.25-6.243c0-0.512 0-2.069 2.677-6.544 1.262-2.109 2.504-3.847 2.556-3.92 0.498-0.695 1.534-0.695 2.032 0 0.052 0.073 1.295 1.811 2.556 3.92zM19.75 16.486c0-1.36-1.953-4.82-3.75-7.531-1.797 2.712-3.75 6.172-3.75 7.531 0 2.064 1.682 3.743 3.75 3.743s3.75-1.679 3.75-3.743z"></path>
</svg>
