<svg height="512pt" viewBox="0 -88 512 512" width="512pt" xmlns="http://www.w3.org/2000/svg"><path d="m512 177.25c0 58.078125-22.699219 112.734375-63.921875 153.902344-7.820313 7.8125-20.484375 7.789062-28.285156-.019532-7.804688-7.816406-7.796875-20.480468.019531-28.285156 33.652344-33.609375 52.1875-78.214844 52.1875-125.597656s-18.535156-91.988281-52.1875-125.597656c-7.816406-7.804688-7.824219-20.46875-.019531-28.285156 7.804687-7.8125 20.46875-7.820313 28.285156-.015626 41.222656 41.164063 63.921875 95.820313 63.921875 153.898438zm-115.070312-91.832031c-7.355469-8.238281-20-8.949219-28.238282-1.59375-8.238281 7.359375-8.949218 20-1.59375 28.238281 16.066406 17.988281 24.917969 41.144531 24.917969 65.199219 0 24.054687-8.851563 47.210937-24.917969 65.195312-7.355468 8.238281-6.644531 20.882813 1.59375 28.242188 8.214844 7.335937 20.863282 6.664062 28.238282-1.59375 22.625-25.328125 35.085937-57.949219 35.085937-91.84375s-12.460937-66.515625-35.085937-91.84375zm-356.929688 91.832031c0-47.382812 18.535156-91.988281 52.1875-125.597656 7.816406-7.804688 7.824219-20.46875.019531-28.285156-7.804687-7.8125-20.46875-7.824219-28.285156-.015626-41.222656 41.164063-63.921875 95.820313-63.921875 153.898438s22.699219 112.734375 63.921875 153.902344c7.808594 7.796875 20.472656 7.804687 28.285156-.019532 7.804688-7.816406 7.796875-20.480468-.019531-28.285156-33.652344-33.609375-52.1875-78.214844-52.1875-125.597656zm103.308594-93.425781c-8.238282-7.355469-20.882813-6.644531-28.238282 1.59375-22.625 25.328125-35.085937 57.949219-35.085937 91.84375 0 33.898437 12.460937 66.515625 35.085937 91.847656 7.367188 8.246094 20.011719 8.941406 28.238282 1.589844 8.238281-7.355469 8.953125-20 1.59375-28.238281-16.066406-17.988282-24.917969-41.144532-24.917969-65.195313 0-24.054687 8.851563-47.210937 24.917969-65.199219 7.359375-8.238281 6.644531-20.882812-1.59375-28.242187zm169.851562-12.753907c42.835938 71.605469 42.835938 96.519532 42.835938 104.703126 0 55.082031-44.855469 99.890624-99.996094 99.890624s-99.996094-44.808593-99.996094-99.890624c0-8.1875 0-33.097657 42.835938-104.703126 20.1875-33.75 40.066406-61.558593 40.902344-62.726562 7.972656-11.125 24.542968-11.125 32.515624 0 .835938 1.167969 20.714844 28.976562 40.902344 62.726562zm2.835938 104.703126c0-21.761719-31.242188-77.113282-59.992188-120.492188-28.753906 43.394531-60 98.753906-60 120.492188 0 33.023437 26.914063 59.890624 59.996094 59.890624s59.996094-26.867187 59.996094-59.890624zm0 0"/></svg>