<svg height="512pt" viewBox="-76 0 512 512" width="512pt" xmlns="http://www.w3.org/2000/svg"><path d="m340 0h-320c-11.046875 0-20 8.953125-20 20v396c0 11.046875 8.953125 20 20 20h98v36h-56c-11.046875 0-20 8.953125-20 20s8.953125 20 20 20h76c11.046875 0 20-8.953125 20-20v-56h44v56c0 11.046875 8.953125 20 20 20h76c11.046875 0 20-8.953125 20-20s-8.953125-20-20-20h-56v-36h98c11.046875 0 20-8.953125 20-20v-396c0-11.046875-8.953125-20-20-20zm-20 396h-280v-356h280zm-140-37.929688c33.910156 0 61.5-27.589843 61.5-61.5 0-33.910156-27.589844-61.5-61.5-61.5s-61.5 27.589844-61.5 61.5c0 33.910157 27.589844 61.5 61.5 61.5zm0-83c11.855469 0 21.5 9.644532 21.5 21.5 0 11.855469-9.644531 21.5-21.5 21.5s-21.5-9.644531-21.5-21.5c0-11.855468 9.644531-21.5 21.5-21.5zm-61.5-98.570312c0-11.046875 8.953125-20 20-20h83c11.046875 0 20 8.953125 20 20s-8.953125 20-20 20h-83c-11.046875 0-20-8.953125-20-20zm0-78.570312c0-11.046876 8.953125-20 20-20h83c11.046875 0 20 8.953124 20 20 0 11.046874-8.953125 20-20 20h-83c-11.046875 0-20-8.953126-20-20zm0 0"/></svg>