<!-- Generated by IcoMoon.io -->
<svg version="1.1" xmlns="http://www.w3.org/2000/svg" width="32" height="32" viewBox="0 0 32 32">
<title>water-heater</title>
<path d="M26 0h-20c-0.69 0-1.25 0.56-1.25 1.25v24.75c0 0.69 0.56 1.25 1.25 1.25h6.125v2.25h-3.5c-0.69 0-1.25 0.56-1.25 1.25s0.56 1.25 1.25 1.25h4.75c0.69 0 1.25-0.56 1.25-1.25v-3.5h2.75v3.5c0 0.69 0.56 1.25 1.25 1.25h4.75c0.69 0 1.25-0.56 1.25-1.25s-0.56-1.25-1.25-1.25h-3.5v-2.25h6.125c0.69 0 1.25-0.56 1.25-1.25v-24.75c0-0.69-0.56-1.25-1.25-1.25zM24.75 24.75h-17.5v-22.25h17.5zM16 22.379c2.119 0 3.844-1.724 3.844-3.844s-1.724-3.844-3.844-3.844-3.844 1.724-3.844 3.844c0 2.119 1.724 3.844 3.844 3.844zM16 17.192c0.741 0 1.344 0.603 1.344 1.344s-0.603 1.344-1.344 1.344-1.344-0.603-1.344-1.344c0-0.741 0.603-1.344 1.344-1.344zM12.156 11.031c0-0.69 0.56-1.25 1.25-1.25h5.188c0.69 0 1.25 0.56 1.25 1.25s-0.56 1.25-1.25 1.25h-5.188c-0.69 0-1.25-0.56-1.25-1.25zM12.156 6.121c0-0.69 0.56-1.25 1.25-1.25h5.188c0.69 0 1.25 0.56 1.25 1.25s-0.56 1.25-1.25 1.25h-5.188c-0.69 0-1.25-0.56-1.25-1.25z"></path>
</svg>
