<svg height="512" viewBox="0 0 510 510" width="512" xmlns="http://www.w3.org/2000/svg"><g id="Layer_2" data-name="Layer 2"><g id="_23.number_22" data-name="23.number_22"><path id="background" d="m255 23a232.07 232.07 0 0 1 90.3 445.78 232.07 232.07 0 0 1 -180.6-427.56 230.57 230.57 0 0 1 90.3-18.22m0-23c-140.83 0-255 114.17-255 255 0 140.83 114.17 255 255 255 140.83 0 255-114.17 255-255 0-140.83-114.17-255-255-255z"/><path d="m104.7 327.3 70.5-73.2c12.3-12.6 21.3-24.9 21.3-37.2 0-13.2-8.4-22.2-22.5-22.2-14.7 0-25.2 9.6-30.9 22.8l-40.5-23.7c13.5-31.2 41.7-45.9 70.8-45.9 37.5 0 71.1 24.6 71.1 66.9 0 25.2-13.5 46.8-32.7 66l-34.8 35.1h70.5v46.2h-142.8z"/><path d="m264.6 327.3 70.5-73.2c12.3-12.6 21.3-24.9 21.3-37.2 0-13.2-8.4-22.2-22.5-22.2-14.7 0-25.2 9.6-30.9 22.8l-40.5-23.7c13.5-31.2 41.7-45.9 70.8-45.9 37.5 0 71.1 24.6 71.1 66.9 0 25.2-13.5 46.8-32.7 66l-34.8 35.1h70.5v46.2h-142.8z"/></g></g></svg>