<svg height="512pt" viewBox="-13 0 512 512" width="512pt" xmlns="http://www.w3.org/2000/svg"><path d="m266.058594 0h-246.058594c-11.046875 0-20 8.953125-20 20v472c0 11.046875 8.953125 20 20 20h246.058594c11.042968 0 19.996094-8.953125 19.996094-20v-472c.003906-11.046875-8.953126-20-19.996094-20zm-20 472h-206.0625v-432h206.0625zm-103.007813-35.859375c33.914063 0 61.5-27.589844 61.5-61.5s-27.585937-61.5-61.5-61.5c-33.910156 0-61.5 27.589844-61.5 61.5s27.589844 61.5 61.5 61.5zm0-83c11.855469 0 21.5 9.644531 21.5 21.5s-9.644531 21.5-21.5 21.5-21.5-9.644531-21.5-21.5 9.644531-21.5 21.5-21.5zm-61.5-128.570313c0-11.046874 8.957031-20 20-20h83c11.046875 0 20 8.953126 20 20 0 11.046876-8.953125 20-20 20h-83c-11.042969 0-20-8.953124-20-20zm0-108.570312c0-11.046875 8.957031-20 20-20h83c11.046875 0 20 8.953125 20 20s-8.953125 20-20 20h-83c-11.042969 0-20-8.953125-20-20zm401.066407 151.097656-78.6875 118c-6.144532 9.210938-18.566407 11.65625-27.734376 5.542969-9.1875-6.128906-11.671874-18.546875-5.542968-27.738281l57.949218-86.902344h-82.527343c-15.964844 0-25.480469-17.839844-16.636719-31.097656l78.683594-118c6.132812-9.1875 18.542968-11.671875 27.738281-5.542969 9.1875 6.128906 11.667969 18.546875 5.542969 27.738281l-57.953125 86.902344h82.527343c15.964844 0 25.480469 17.839844 16.640626 31.097656zm0 0"/></svg>