<svg height="512" viewBox="0 0 510 510" width="512" xmlns="http://www.w3.org/2000/svg"><g id="Layer_2" data-name="Layer 2"><g id="_24.number_23" data-name="24.number_23"><path id="background" d="m255 23a232.07 232.07 0 0 1 90.3 445.78 232.07 232.07 0 0 1 -180.6-427.56 230.57 230.57 0 0 1 90.3-18.22m0-23c-140.83 0-255 114.17-255 255 0 140.83 114.17 255 255 255 140.83 0 255-114.17 255-255 0-140.83-114.17-255-255-255z"/><path d="m102.9 325.2 70.5-73.2c12.3-12.6 21.3-24.9 21.3-37.2 0-13.2-8.4-22.2-22.5-22.2-14.7 0-25.2 9.6-30.9 22.8l-40.5-23.7c13.5-31.2 41.7-45.9 70.8-45.9 37.5 0 71.1 24.6 71.1 66.9 0 25.2-13.5 46.8-32.7 66l-34.8 35.1h70.5v46.2h-142.8z"/><path d="m409.2 294c0 46.2-36 70.2-76.5 70.2-31.8 0-60.6-14.1-73.5-45l41.4-24c4.8 13.8 13.8 22.2 32.1 22.2 19.8 0 28.5-10.5 28.5-23.4s-8.7-23.4-28.5-23.4h-9.9l-18.3-27.3 38.1-48.3h-76.8v-45h135v39l-36.3 46.2c25.8 9 44.7 29.7 44.7 58.8z"/></g></g></svg>