<!-- Generated by IcoMoon.io -->
<svg version="1.1" xmlns="http://www.w3.org/2000/svg" width="32" height="32" viewBox="0 0 32 32">
<title>control</title>
<path d="M17.441 0h-15.379c-0.69 0-1.25 0.56-1.25 1.25v29.5c0 0.69 0.56 1.25 1.25 1.25h15.379c0.69 0 1.25-0.56 1.25-1.25v-29.5c0-0.69-0.56-1.25-1.25-1.25zM16.191 29.5h-12.879v-27h12.879zM9.753 27.259c2.12 0 3.844-1.724 3.844-3.844s-1.724-3.844-3.844-3.844c-2.119 0-3.844 1.724-3.844 3.844s1.724 3.844 3.844 3.844zM9.753 22.071c0.741 0 1.344 0.603 1.344 1.344s-0.603 1.344-1.344 1.344-1.344-0.603-1.344-1.344 0.603-1.344 1.344-1.344zM5.909 14.036c0-0.69 0.56-1.25 1.25-1.25h5.187c0.69 0 1.25 0.56 1.25 1.25s-0.56 1.25-1.25 1.25h-5.188c-0.69 0-1.25-0.56-1.25-1.25zM5.909 7.25c0-0.69 0.56-1.25 1.25-1.25h5.187c0.69 0 1.25 0.56 1.25 1.25s-0.56 1.25-1.25 1.25h-5.188c-0.69 0-1.25-0.56-1.25-1.25zM30.976 16.694l-4.918 7.375c-0.384 0.576-1.16 0.729-1.733 0.346-0.574-0.383-0.73-1.159-0.346-1.734l3.622-5.431h-5.158c-0.998 0-1.593-1.115-1.040-1.944l4.918-7.375c0.383-0.574 1.159-0.729 1.734-0.346s0.729 1.159 0.346 1.734l-3.622 5.431h5.158c0.998 0 1.593 1.115 1.040 1.944z"></path>
</svg>
