<svg height="512pt" viewBox="0 0 512 512" width="512pt" xmlns="http://www.w3.org/2000/svg"><path d="m265.804688 0h-245.804688c-11.046875 0-20 8.953125-20 20v472c0 11.046875 8.953125 20 20 20h245.804688c11.046874 0 20-8.953125 20-20v-472c0-11.046875-8.953126-20-20-20zm-20 472h-205.804688v-432h205.804688zm-102.992188-35.859375c33.910156 0 61.5-27.589844 61.5-61.5s-27.589844-61.5-61.5-61.5-61.5 27.589844-61.5 61.5 27.589844 61.5 61.5 61.5zm0-83c11.855469 0 21.5 9.644531 21.5 21.5s-9.644531 21.5-21.5 21.5-21.5-9.644531-21.5-21.5 9.644531-21.5 21.5-21.5zm-61.5-128.570313c0-11.046874 8.953125-20 20-20h83c11.046875 0 20 8.953126 20 20 0 11.046876-8.953125 20-20 20h-83c-11.042969 0-20-8.953124-20-20zm0-108.570312c0-11.046875 8.953125-20 20-20h83c11.046875 0 20 8.953125 20 20s-8.953125 20-20 20h-83c-11.042969 0-20-8.953125-20-20zm395.527344 191.355469v-210.855469c0-31.980469-26.003906-58-57.96875-58s-57.96875 26.019531-57.96875 58v210.855469c-22.226563 17.59375-35.179688 44.136719-35.160156 73.023437.035156 51.207032 41.890624 93.121094 93.128906 93.121094.167968 0 .335937 0 .503906-.003906 51.074219-.269532 92.625-42.074219 92.625-93.183594 0-28.859375-12.953125-55.375-35.160156-72.957031zm-57.675782 126.144531c-.097656 0-.191406 0-.285156 0-29.070312 0-53.117187-23.949219-53.136718-53.148438-.011719-18.742187 9.542968-35.757812 25.5625-45.515624 5.960937-3.632813 9.597656-10.105469 9.597656-17.082032v-221.253906c0-9.925781 8.0625-18 17.96875-18s17.96875 8.074219 17.96875 18v221.253906c0 6.980469 3.636718 13.449219 9.597656 17.082032 16.003906 9.75 25.5625 26.753906 25.5625 45.476562 0 29.171875-23.703125 53.03125-52.835938 53.1875zm0 0"/></svg>