<!-- Generated by IcoMoon.io -->
<svg version="1.1" xmlns="http://www.w3.org/2000/svg" width="32" height="32" viewBox="0 0 32 32">
<title>thermostat</title>
<path d="M16.613 0h-15.363c-0.69 0-1.25 0.56-1.25 1.25v29.5c0 0.69 0.56 1.25 1.25 1.25h15.363c0.69 0 1.25-0.56 1.25-1.25v-29.5c0-0.69-0.56-1.25-1.25-1.25zM15.363 29.5h-12.863v-27h12.863zM8.926 27.259c2.119 0 3.844-1.724 3.844-3.844s-1.724-3.844-3.844-3.844-3.844 1.724-3.844 3.844 1.724 3.844 3.844 3.844zM8.926 22.071c0.741 0 1.344 0.603 1.344 1.344s-0.603 1.344-1.344 1.344-1.344-0.603-1.344-1.344 0.603-1.344 1.344-1.344zM5.082 14.036c0-0.69 0.56-1.25 1.25-1.25h5.188c0.69 0 1.25 0.56 1.25 1.25s-0.56 1.25-1.25 1.25h-5.188c-0.69 0-1.25-0.56-1.25-1.25zM5.082 7.25c0-0.69 0.56-1.25 1.25-1.25h5.188c0.69 0 1.25 0.56 1.25 1.25s-0.56 1.25-1.25 1.25h-5.188c-0.69 0-1.25-0.56-1.25-1.25zM29.802 19.21v-13.178c0-1.999-1.625-3.625-3.623-3.625s-3.623 1.626-3.623 3.625v13.178c-1.389 1.1-2.199 2.759-2.198 4.564 0.002 3.2 2.618 5.82 5.821 5.82 0.011 0 0.021 0 0.032-0 3.192-0.017 5.789-2.63 5.789-5.824 0-1.804-0.81-3.461-2.197-4.56zM26.198 27.094c-0.006 0-0.012 0-0.018 0-1.817 0-3.32-1.497-3.321-3.322-0.001-1.171 0.596-2.235 1.598-2.845 0.373-0.227 0.6-0.632 0.6-1.068v-13.828c0-0.62 0.504-1.125 1.123-1.125s1.123 0.505 1.123 1.125v13.828c0 0.436 0.227 0.841 0.6 1.068 1 0.609 1.598 1.672 1.598 2.842 0 1.823-1.481 3.314-3.302 3.324z"></path>
</svg>
