<!-- Generated by IcoMoon.io -->
<svg version="1.1" xmlns="http://www.w3.org/2000/svg" width="32" height="32" viewBox="0 0 32 32">
<title>home-automation</title>
<path d="M28.832 25.858v-3.671c0-0.69-0.56-1.25-1.25-1.25h-3.001v-9.402l1.348 1.348c0.488 0.488 1.28 0.488 1.768 0s0.488-1.28 0-1.768l-10.813-10.813c-0.488-0.488-1.28-0.488-1.768 0-0.438 0.438-10.342 10.342-10.813 10.813-0.488 0.488-0.488 1.28 0 1.768s1.28 0.488 1.768 0l1.348-1.348v9.402h-3.001c-0.69 0-1.25 0.56-1.25 1.25v3.671c-1.127 0.486-1.918 1.608-1.918 2.911 0 1.747 1.421 3.168 3.168 3.168s3.168-1.421 3.168-3.168c0-1.303-0.791-2.425-1.918-2.911v-2.421h9.082v2.421c-1.127 0.486-1.918 1.607-1.918 2.911 0 1.747 1.421 3.168 3.168 3.168s3.168-1.421 3.168-3.168c0-1.303-0.791-2.425-1.918-2.911v-2.421h9.082v2.421c-1.127 0.486-1.918 1.607-1.918 2.911 0 1.747 1.421 3.168 3.168 3.168s3.168-1.421 3.168-3.168c0-1.303-0.791-2.425-1.918-2.911zM4.418 29.438c-0.368 0-0.668-0.3-0.668-0.668s0.3-0.668 0.668-0.668c0.369 0 0.668 0.3 0.668 0.668s-0.3 0.668-0.668 0.668zM16 29.438c-0.368 0-0.668-0.3-0.668-0.668s0.3-0.668 0.668-0.668 0.668 0.3 0.668 0.668c0 0.368-0.3 0.668-0.668 0.668zM17.875 20.938h-3.75v-3.75h3.75zM22.081 20.938h-1.706v-5c0-0.69-0.56-1.25-1.25-1.25h-6.25c-0.69 0-1.25 0.56-1.25 1.25v5h-1.706v-11.902l6.081-6.080 6.081 6.080zM27.582 29.438c-0.369 0-0.668-0.3-0.668-0.668s0.3-0.668 0.668-0.668 0.668 0.3 0.668 0.668c0 0.368-0.3 0.668-0.668 0.668z"></path>
</svg>
