<svg height="512pt" viewBox="0 0 512 512" width="512pt" xmlns="http://www.w3.org/2000/svg"><path d="m474 389.558594v-93.554688c0-11.046875-8.953125-20-20-20h-135.542969v-40h135.542969c11.046875 0 20-8.953125 20-20v-93.558594c22.15625-8.164062 38-29.488281 38-54.441406 0-31.984375-26.019531-58.003906-58-58.003906s-58 26.019531-58 58c0 24.957031 15.84375 46.28125 38 54.445312v73.558594h-96.265625c21.046875-21.15625 33.265625-49.972656 33.265625-81.003906 0-63.410156-51.589844-115-115-115s-115 51.589844-115 115c0 31.03125 12.21875 59.847656 33.265625 81.003906h-96.265625v-73.558594c22.15625-8.164062 38-29.488281 38-54.445312 0-31.980469-26.019531-58-58-58s-58 26.019531-58 58c0 24.957031 15.84375 46.28125 38 54.445312v93.558594c0 11.042969 8.953125 20 20 20h135.542969v40h-135.542969c-11.046875 0-20 8.953125-20 20v93.554688c-22.15625 8.164062-38 29.488281-38 54.445312 0 31.980469 26.019531 58 58 58s58-26.019531 58-58c0-24.957031-15.84375-46.28125-38-54.445312v-73.554688h115.542969v120c0 4.363282 1.429687 8.605469 4.0625 12.082032l42.457031 56c8.003906 10.558593 23.886719 10.539062 31.875 0l42.457031-56c2.636719-3.476563 4.0625-7.71875 4.0625-12.082032v-120h115.542969v73.554688c-22.15625 8.164062-38 29.488281-38 54.445312 0 31.980469 26.019531 58 58 58s58-26.019531 58-58c0-24.953125-15.84375-46.277344-38-54.445312zm-20-339.558594c9.925781 0 18 8.074219 18 18s-8.074219 18-18 18-18-8.074219-18-18 8.074219-18 18-18zm-396 36c-9.925781 0-18-8.074219-18-18s8.074219-18 18-18 18 8.074219 18 18-8.074219 18-18 18zm0 376.003906c-9.925781 0-18-8.074218-18-18 0-9.925781 8.074219-18 18-18s18 8.074219 18 18c0 9.925782-8.074219 18-18 18zm231.503906-279.886718c-6.769531 3.390624-11.046875 10.3125-11.046875 17.886718v229.277344l-22.457031 29.621094-22.457031-29.621094v-229.277344c0-7.574218-4.277344-14.496094-11.046875-17.886718-25.597656-12.808594-41.496094-38.527344-41.496094-67.117188 0-41.355469 33.644531-75 75-75s75 33.644531 75 75c0 28.589844-15.898438 54.308594-41.496094 67.117188zm164.496094 279.886718c-9.925781 0-18-8.074218-18-18 0-9.925781 8.074219-18 18-18s18 8.074219 18 18c0 9.925782-8.074219 18-18 18zm0 0"/></svg>