<!-- Generated by IcoMoon.io -->
<svg version="1.1" xmlns="http://www.w3.org/2000/svg" width="32" height="32" viewBox="0 0 32 32">
<title>key</title>
<path d="M29.625 24.347v-5.847c0-0.69-0.56-1.25-1.25-1.25h-8.471v-2.5h8.471c0.69 0 1.25-0.56 1.25-1.25v-5.847c1.385-0.51 2.375-1.843 2.375-3.403 0-1.999-1.626-3.625-3.625-3.625s-3.625 1.626-3.625 3.625c0 1.56 0.99 2.893 2.375 3.403v4.597h-6.017c1.315-1.322 2.079-3.123 2.079-5.063 0-3.963-3.224-7.188-7.188-7.188s-7.188 3.224-7.188 7.188c0 1.939 0.764 3.74 2.079 5.063h-6.017v-4.597c1.385-0.51 2.375-1.843 2.375-3.403 0-1.999-1.626-3.625-3.625-3.625s-3.625 1.626-3.625 3.625c0 1.56 0.99 2.893 2.375 3.403v5.847c0 0.69 0.56 1.25 1.25 1.25h8.471v2.5h-8.471c-0.69 0-1.25 0.56-1.25 1.25v5.847c-1.385 0.51-2.375 1.843-2.375 3.403 0 1.999 1.626 3.625 3.625 3.625s3.625-1.626 3.625-3.625c0-1.56-0.99-2.893-2.375-3.403v-4.597h7.221v7.5c0 0.273 0.089 0.538 0.254 0.755l2.654 3.5c0.5 0.66 1.493 0.659 1.992 0l2.654-3.5c0.165-0.217 0.254-0.482 0.254-0.755v-7.5h7.221v4.597c-1.385 0.51-2.375 1.843-2.375 3.403 0 1.999 1.626 3.625 3.625 3.625s3.625-1.626 3.625-3.625c0-1.56-0.99-2.892-2.375-3.403zM28.375 3.125c0.62 0 1.125 0.505 1.125 1.125s-0.505 1.125-1.125 1.125-1.125-0.505-1.125-1.125 0.505-1.125 1.125-1.125zM3.625 5.375c-0.62 0-1.125-0.505-1.125-1.125s0.505-1.125 1.125-1.125 1.125 0.505 1.125 1.125-0.505 1.125-1.125 1.125zM3.625 28.875c-0.62 0-1.125-0.505-1.125-1.125s0.505-1.125 1.125-1.125 1.125 0.505 1.125 1.125c0 0.62-0.505 1.125-1.125 1.125zM18.094 11.382c-0.423 0.212-0.69 0.645-0.69 1.118v14.33l-1.404 1.851-1.404-1.851v-14.33c0-0.473-0.267-0.906-0.69-1.118-1.6-0.801-2.594-2.408-2.594-4.195 0-2.585 2.103-4.688 4.688-4.688s4.688 2.103 4.688 4.688c0 1.787-0.994 3.394-2.593 4.195zM28.375 28.875c-0.62 0-1.125-0.505-1.125-1.125s0.505-1.125 1.125-1.125 1.125 0.505 1.125 1.125c0 0.62-0.505 1.125-1.125 1.125z"></path>
</svg>
