<!-- Generated by IcoMoon.io -->
<svg version="1.1" xmlns="http://www.w3.org/2000/svg" width="32" height="32" viewBox="0 0 32 32">
<title>air-purifier</title>
<path d="M27.007 30.223l-2.383-5.125v-16.473c0-4.756-3.869-8.625-8.624-8.625s-8.624 3.869-8.624 8.625v16.473l-2.383 5.125c-0.385 0.827 0.22 1.777 1.133 1.777h19.748c0.912 0 1.519-0.949 1.133-1.777zM9.876 8.625c0-3.377 2.747-6.125 6.124-6.125s6.124 2.748 6.124 6.125v15.5h-12.249zM8.086 29.5l1.337-2.875h13.154l1.337 2.875zM20.25 19.344c0 0.69-0.56 1.25-1.25 1.25h-6c-0.69 0-1.25-0.56-1.25-1.25s0.56-1.25 1.25-1.25h6c0.69 0 1.25 0.56 1.25 1.25zM20.25 13.313c0 0.69-0.56 1.25-1.25 1.25h-6c-0.69 0-1.25-0.56-1.25-1.25s0.56-1.25 1.25-1.25h6c0.69 0 1.25 0.56 1.25 1.25zM20.25 7.281c0 0.69-0.56 1.25-1.25 1.25h-6c-0.69 0-1.25-0.56-1.25-1.25s0.56-1.25 1.25-1.25h6c0.69 0 1.25 0.56 1.25 1.25z"></path>
</svg>
