<svg height="512pt" viewBox="-78 0 512 512" width="512pt" xmlns="http://www.w3.org/2000/svg"><path d="m354.113281 483.566406-38.128906-81.992187v-263.574219c0-76.09375-61.898437-138-137.984375-138s-137.984375 61.90625-137.984375 138v263.574219l-38.132813 81.992187c-6.152343 13.230469 3.519532 28.433594 18.132813 28.433594h315.96875c14.589844 0 24.296875-15.179688 18.128906-28.433594zm-274.101562-345.566406c0-54.039062 43.957031-98 97.988281-98s97.988281 43.960938 97.988281 98v248h-195.976562zm-28.636719 334 21.390625-46h210.46875l21.390625 46zm194.625-162.5c0 11.046875-8.953125 20-20 20h-96c-11.046875 0-20-8.953125-20-20s8.953125-20 20-20h96c11.046875 0 20 8.953125 20 20zm0-96.5c0 11.046875-8.953125 20-20 20h-96c-11.046875 0-20-8.953125-20-20s8.953125-20 20-20h96c11.046875 0 20 8.953125 20 20zm0-96.5c0 11.046875-8.953125 20-20 20h-96c-11.046875 0-20-8.953125-20-20s8.953125-20 20-20h96c11.046875 0 20 8.953125 20 20zm0 0"/></svg>