<!-- Generated by IcoMoon.io -->
<svg version="1.1" xmlns="http://www.w3.org/2000/svg" width="32" height="32" viewBox="0 0 32 32">
<title>gate-1</title>
<path d="M30.75 0h-4.75c-0.69 0-1.25 0.56-1.25 1.25v29.5c0 0.69 0.56 1.25 1.25 1.25h4.75c0.69 0 1.25-0.56 1.25-1.25v-29.5c0-0.69-0.56-1.25-1.25-1.25zM29.5 29.5h-2.25v-27h2.25zM16 0c-0.69 0-1.25 0.56-1.25 1.25v4.412h-2.5v-4.412c0-0.69-0.56-1.25-1.25-1.25s-1.25 0.56-1.25 1.25v4.412h-2.5v-4.412c0-0.69-0.56-1.25-1.25-1.25h-4.75c-0.69 0-1.25 0.56-1.25 1.25v29.5c0 0.69 0.56 1.25 1.25 1.25h4.75c0.69 0 1.25-0.56 1.25-1.25v-4.412h2.5v4.412c0 0.69 0.56 1.25 1.25 1.25s1.25-0.56 1.25-1.25v-4.412h2.5v4.412c0 0.69 0.56 1.25 1.25 1.25s1.25-0.56 1.25-1.25v-29.5c0-0.69-0.56-1.25-1.25-1.25zM4.75 29.5h-2.25v-27h2.25zM9.75 23.838h-2.5v-6.588h2.5zM9.75 14.75h-2.5v-6.588h2.5zM14.75 23.838h-2.5v-6.588h2.5zM14.75 14.75h-2.5v-6.588h2.5z"></path>
</svg>
