<svg height="512pt" viewBox="0 0 512 512" width="512pt" xmlns="http://www.w3.org/2000/svg"><path d="m492 0h-76c-11.046875 0-20 8.953125-20 20v472c0 11.046875 8.953125 20 20 20h76c11.046875 0 20-8.953125 20-20v-472c0-11.046875-8.953125-20-20-20zm-20 472h-36v-432h36zm-216-472c-11.046875 0-20 8.953125-20 20v70.585938h-40v-70.585938c0-11.046875-8.953125-20-20-20s-20 8.953125-20 20v70.585938h-40v-70.585938c0-11.046875-8.953125-20-20-20h-76c-11.046875 0-20 8.953125-20 20v472c0 11.046875 8.953125 20 20 20h76c11.046875 0 20-8.953125 20-20v-70.585938h40v70.585938c0 11.046875 8.953125 20 20 20s20-8.953125 20-20v-70.585938h40v70.585938c0 11.046875 8.953125 20 20 20s20-8.953125 20-20v-472c0-11.046875-8.953125-20-20-20zm-180 472h-36v-432h36zm80-90.585938h-40v-105.414062h40zm0-145.414062h-40v-105.414062h40zm80 145.414062h-40v-105.414062h40zm0-145.414062h-40v-105.414062h40zm0 0"/></svg>