<!-- Generated by IcoMoon.io -->
<svg version="1.1" xmlns="http://www.w3.org/2000/svg" width="32" height="32" viewBox="0 0 32 32">
<title>eco-home</title>
<path d="M31.634 15.116c-0.641-0.642-14.149-14.149-14.75-14.75-0.488-0.488-1.28-0.488-1.768 0-0.601 0.601-14.109 14.108-14.75 14.75-0.488 0.488-0.488 1.28 0 1.768s1.28 0.488 1.768 0l2.616-2.616v16.482c0 0.69 0.56 1.25 1.25 1.25h20c0.69 0 1.25-0.56 1.25-1.25v-16.482l2.616 2.616c0.488 0.488 1.28 0.488 1.768 0s0.488-1.28 0-1.768zM16 18.188c-0.69 0-1.25 0.56-1.25 1.25v5.068c-1.216-0.495-2.076-1.689-2.076-3.082 0-3.433 2.143-6.054 3.326-7.239 1.183 1.185 3.326 3.806 3.326 7.239 0 1.392-0.86 2.586-2.076 3.082v-5.068c0-0.69-0.56-1.25-1.25-1.25zM24.75 29.5h-7.5v-2.386c2.614-0.573 4.576-2.907 4.576-5.691 0-5.973-4.86-9.758-5.067-9.917-0.448-0.343-1.071-0.343-1.519 0-0.207 0.158-5.067 3.944-5.067 9.917 0 2.784 1.962 5.117 4.576 5.691v2.386h-7.5v-17.732l8.75-8.75 8.75 8.75z"></path>
</svg>
