<svg height="512pt" viewBox="0 0 512.0005 512" width="512pt" xmlns="http://www.w3.org/2000/svg"><path d="m506.140625 241.859375c-10.261719-10.265625-226.378906-226.378906-236-236-7.808594-7.8125-20.472656-7.8125-28.28125 0-9.621094 9.617187-225.738281 225.734375-236 236-7.8125 7.808594-7.8125 20.472656 0 28.28125 7.808594 7.8125 20.472656 7.8125 28.28125 0l41.859375-41.855469v263.714844c0 11.046875 8.953125 20 20 20h320c11.046875 0 20-8.953125 20-20v-263.714844l41.859375 41.855469c7.808594 7.8125 20.472656 7.8125 28.28125 0 7.8125-7.808594 7.8125-20.472656 0-28.28125zm-250.140625 49.140625c-11.046875 0-20 8.953125-20 20v81.085938c-19.460938-7.921876-33.21875-27.03125-33.21875-49.304688 0-54.925781 34.292969-96.859375 53.21875-115.816406 18.925781 18.957031 53.21875 60.890625 53.21875 115.816406 0 22.273438-13.757812 41.382812-33.21875 49.304688v-81.085938c0-11.046875-8.953125-20-20-20zm140 181h-120v-38.167969c41.820312-9.175781 73.21875-46.511719 73.21875-91.050781 0-95.5625-77.757812-156.132812-81.070312-158.667969-7.167969-5.484375-17.128907-5.484375-24.296876 0-3.3125 2.535157-81.070312 63.105469-81.070312 158.667969 0 44.539062 31.398438 81.875 73.21875 91.050781v38.167969h-120v-283.714844l140-140 140 140zm0 0"/></svg>