<!-- Generated by IcoMoon.io -->
<svg version="1.1" xmlns="http://www.w3.org/2000/svg" width="32" height="32" viewBox="0 0 32 32">
<title>disaster</title>
<path d="M30.75 20.375h-6.169v-8.777l1.348 1.348c0.488 0.488 1.28 0.488 1.768 0s0.488-1.28 0-1.768l-10.812-10.812c-0.488-0.488-1.28-0.488-1.768 0l-10.812 10.812c-0.488 0.488-0.488 1.28 0 1.768s1.28 0.488 1.768 0l1.348-1.348v8.777h-6.17c-0.69 0-1.25 0.56-1.25 1.25s0.56 1.25 1.25 1.25h9.256l-1.6 2.895c-0.46 0.832 0.143 1.855 1.094 1.855h1.792l-1.489 2.482c-0.355 0.592-0.163 1.36 0.429 1.715s1.361 0.162 1.715-0.429l2.625-4.375c0.499-0.832-0.102-1.893-1.072-1.893h-1.881l1.244-2.25h5.144l-1.6 2.895c-0.46 0.832 0.143 1.855 1.094 1.855h1.792l-1.489 2.482c-0.355 0.592-0.163 1.36 0.429 1.715s1.361 0.162 1.715-0.429l2.625-4.375c0.499-0.832-0.102-1.893-1.072-1.893h-1.881l1.244-2.25h9.387c0.69 0 1.25-0.56 1.25-1.25s-0.56-1.25-1.25-1.25zM17.875 20.375h-3.75v-3.75h3.75zM22.081 20.375c-0.651 0-1.093 0-1.706 0v-5c0-0.69-0.56-1.25-1.25-1.25h-6.25c-0.69 0-1.25 0.56-1.25 1.25v5h-1.705v-11.277l6.080-6.080 6.081 6.080z"></path>
</svg>
