<svg height="512pt" viewBox="0 0 512 512.00199" width="512pt" xmlns="http://www.w3.org/2000/svg"><path d="m492 325.996094h-98.710938v-140.425782l21.570313 21.570313c7.808594 7.808594 20.472656 7.8125 28.285156 0 7.808594-7.808594 7.808594-20.472656 0-28.285156l-173-172.996094c-7.8125-7.8125-20.476562-7.8125-28.285156 0l-173 172.996094c-7.8125 7.8125-7.8125 20.476562 0 28.285156 7.8125 7.8125 20.472656 7.8125 28.285156 0l21.570313-21.570313v140.425782h-98.714844c-11.046875 0-20 8.957031-20 20 0 11.046875 8.953125 20 20 20h148.097656l-25.601562 46.328125c-7.355469 13.304687 2.285156 29.671875 17.503906 29.671875h28.675781l-23.824219 39.710937c-5.683593 9.472657-2.613281 21.757813 6.859376 27.441407 9.488281 5.695312 21.769531 2.589843 27.441406-6.859376l42-70c7.988281-13.316406-1.628906-30.289062-17.152344-30.289062h-30.097656l19.898437-36h82.296875l-25.601562 46.324219c-7.355469 13.308593 2.285156 29.675781 17.503906 29.675781h28.675781l-23.824219 39.707031c-5.683593 9.472657-2.613281 21.757813 6.859376 27.441407 9.488281 5.695312 21.769531 2.589843 27.441406-6.859376l42-70c7.988281-13.316406-1.628906-30.289062-17.152344-30.289062h-30.097656l19.898437-36h150.199219c11.046875 0 20-8.953125 20-20s-8.953125-20.003906-20-20.003906zm-206 0h-60v-60h60zm67.289062 0c-10.421874 0-17.484374 0-27.289062 0v-79.996094c0-11.046875-8.953125-20-20-20h-100c-11.046875 0-20 8.953125-20 20v79.996094h-27.285156v-180.425782l97.285156-97.285156 97.289062 97.285156zm0 0"/></svg>