<svg height="512pt" viewBox="0 0 512 512" width="512pt" xmlns="http://www.w3.org/2000/svg"><path d="m310.023438 0h-290.023438c-11.046875 0-20 8.953125-20 20v472c0 11.046875 8.953125 20 20 20h290.023438c11.046874 0 20-8.953125 20-20 0-14.042969 0-444.195312 0-472 0-11.046875-8.953126-20-20-20zm-20 472h-250.023438v-234.667969h250.023438zm0-274.667969h-250.023438v-157.332031h250.023438zm-206.003907-50.664062v-56c0-11.046875 8.957031-20 20-20 11.046875 0 20 8.953125 20 20v56c0 11.046875-8.953125 20-20 20-11.042969 0-20-8.953125-20-20zm0 274.664062v-133.332031c0-11.046875 8.957031-20 20-20 11.046875 0 20 8.953125 20 20v133.332031c0 11.046875-8.953125 20-20 20-11.042969 0-20-8.953125-20-20zm427.980469-165.332031c0 58.144531-22.699219 112.867188-63.921875 154.085938-7.8125 7.808593-20.472656 7.808593-28.285156-.003907-7.808594-7.808593-7.808594-20.472656 0-28.28125 33.667969-33.664062 52.207031-78.339843 52.207031-125.800781s-18.539062-92.136719-52.203125-125.800781c-7.8125-7.808594-7.8125-20.472657-.003906-28.28125 7.8125-7.8125 20.472656-7.8125 28.285156-.003907 41.222656 41.21875 63.921875 95.941407 63.921875 154.085938zm-80.019531 0c0 33.898438-12.460938 66.515625-35.085938 91.84375-7.375 8.257812-20.019531 8.933594-28.238281 1.59375-8.238281-7.359375-8.953125-20.003906-1.59375-28.238281 16.070312-17.988281 24.917969-41.144531 24.917969-65.199219s-8.847657-47.210938-24.917969-65.195312c-7.355469-8.238282-6.644531-20.882813 1.59375-28.242188 8.238281-7.355469 20.882812-6.644531 28.238281 1.59375 22.625 25.328125 35.085938 57.945312 35.085938 91.84375zm0 0"/></svg>