<!-- Generated by IcoMoon.io -->
<svg version="1.1" xmlns="http://www.w3.org/2000/svg" width="32" height="32" viewBox="0 0 32 32">
<title>fridge</title>
<path d="M19.376 0h-18.126c-0.69 0-1.25 0.56-1.25 1.25v29.5c0 0.69 0.56 1.25 1.25 1.25h18.126c0.69 0 1.25-0.56 1.25-1.25 0-0.878 0-27.762 0-29.5 0-0.69-0.56-1.25-1.25-1.25zM18.126 29.5h-15.626v-14.667h15.626zM18.126 12.333h-15.626v-9.833h15.626zM5.251 9.167v-3.5c0-0.69 0.56-1.25 1.25-1.25s1.25 0.56 1.25 1.25v3.5c0 0.69-0.56 1.25-1.25 1.25s-1.25-0.56-1.25-1.25zM5.251 26.333v-8.333c0-0.69 0.56-1.25 1.25-1.25s1.25 0.56 1.25 1.25v8.333c0 0.69-0.56 1.25-1.25 1.25s-1.25-0.56-1.25-1.25zM32 16c0 3.634-1.419 7.054-3.995 9.63-0.488 0.488-1.28 0.488-1.768-0s-0.488-1.28 0-1.768c2.104-2.104 3.263-4.896 3.263-7.863s-1.159-5.759-3.263-7.863c-0.488-0.488-0.488-1.28-0-1.768s1.28-0.488 1.768-0c2.576 2.576 3.995 5.996 3.995 9.63zM26.999 16c0 2.119-0.779 4.157-2.193 5.74-0.461 0.516-1.251 0.558-1.765 0.1-0.515-0.46-0.56-1.25-0.1-1.765 1.004-1.124 1.557-2.572 1.557-4.075s-0.553-2.951-1.557-4.075c-0.46-0.515-0.415-1.305 0.1-1.765s1.305-0.415 1.765 0.1c1.414 1.583 2.193 3.622 2.193 5.74z"></path>
</svg>
