<!-- Generated by IcoMoon.io -->
<svg version="1.1" xmlns="http://www.w3.org/2000/svg" width="32" height="32" viewBox="0 0 32 32">
<title>microwave</title>
<path d="M6.37 5.762c-0.488-0.488-0.488-1.28 0-1.768 2.576-2.576 5.996-3.995 9.63-3.995s7.054 1.419 9.63 3.995c0.488 0.488 0.488 1.28-0 1.768s-1.28 0.488-1.768 0c-2.104-2.104-4.896-3.262-7.863-3.262s-5.759 1.159-7.863 3.262c-0.488 0.488-1.28 0.488-1.768 0zM16 5c-2.119 0-4.157 0.779-5.74 2.193-0.515 0.46-0.56 1.25-0.1 1.765s1.25 0.56 1.765 0.1c1.124-1.004 2.572-1.557 4.075-1.557s2.951 0.553 4.075 1.557c0.513 0.459 1.304 0.417 1.765-0.1 0.46-0.515 0.415-1.305-0.1-1.765-1.583-1.414-3.622-2.193-5.74-2.193zM5 25.75v-8.75c0-0.69 0.56-1.25 1.25-1.25h9.657c0.69 0 1.25 0.56 1.25 1.25v8.75c0 0.69-0.56 1.25-1.25 1.25h-9.657c-0.69 0-1.25-0.56-1.25-1.25zM7.5 24.5h7.157v-6.25h-7.157zM32 12v18.75c0 0.69-0.56 1.25-1.25 1.25-1.482 0-28.883 0-29.5 0-0.69 0-1.25-0.56-1.25-1.25v-18.75c0-0.69 0.56-1.25 1.25-1.25h29.5c0.69 0 1.25 0.56 1.25 1.25zM19.657 13.25h-17.157v16.25h17.157c0-0.825 0-15.626 0-16.25zM29.5 19.5h-7.343v10h7.343zM29.5 13.25h-7.343v3.75h7.343z"></path>
</svg>
