<svg height="512pt" viewBox="0 0 512 512" width="512pt" xmlns="http://www.w3.org/2000/svg"><path d="m101.917969 92.199219c-7.8125-7.808594-7.8125-20.472657 0-28.28125 41.214843-41.21875 95.9375-63.917969 154.082031-63.917969s112.867188 22.699219 154.085938 63.917969c7.808593 7.808593 7.808593 20.472656-.003907 28.28125-7.8125 7.816406-20.476562 7.808593-28.28125 0-33.664062-33.660157-78.339843-52.199219-125.800781-52.199219s-92.136719 18.539062-125.800781 52.199219c-7.808594 7.8125-20.472657 7.8125-28.28125 0zm154.082031-12.199219c-33.898438 0-66.515625 12.460938-91.84375 35.082031-8.238281 7.359375-8.953125 20.003907-1.59375 28.238281 7.359375 8.238282 20 8.953126 28.238281 1.59375 17.988281-16.066406 41.144531-24.914062 65.199219-24.914062s47.210938 8.847656 65.195312 24.914062c8.214844 7.339844 20.863282 6.667969 28.242188-1.59375 7.355469-8.234374 6.644531-20.878906-1.59375-28.238281-25.328125-22.621093-57.945312-35.082031-91.84375-35.082031zm-176 332v-140c0-11.046875 8.953125-20 20-20h154.519531c11.046875 0 20 8.953125 20 20v140c0 11.046875-8.953125 20-20 20h-154.519531c-11.046875 0-20-8.953125-20-20zm40-20h114.519531v-100h-114.519531zm392-200v300c0 11.046875-8.953125 20-20 20-23.710938 0-462.132812 0-472 0-11.046875 0-20-8.953125-20-20v-300c0-11.046875 8.953125-20 20-20h472c11.046875 0 20 8.953125 20 20zm-197.480469 20h-274.519531v260h274.519531c0-13.199219 0-250.007812 0-260zm157.480469 100h-117.480469v160h117.480469zm0-100h-117.480469v60h117.480469zm0 0"/></svg>