<!-- Generated by IcoMoon.io -->
<svg version="1.1" xmlns="http://www.w3.org/2000/svg" width="32" height="32" viewBox="0 0 32 32">
<title>33</title>
<path d="M16 1.443c8.037 0.006 14.551 6.523 14.551 14.561 0 5.992-3.619 11.138-8.79 13.373l-0.094 0.036c-1.661 0.715-3.594 1.13-5.625 1.13-8.042 0-14.561-6.519-14.561-14.561 0-5.98 3.605-11.118 8.76-13.36l0.094-0.036c1.663-0.723 3.601-1.143 5.637-1.143 0.010 0 0.021 0 0.031 0h-0.002zM16 0c-8.836 0-16 7.164-16 16s7.164 16 16 16c8.836 0 16-7.164 16-16s-7.164-16-16-16z"></path>
<path d="M15.624 18.315c0 2.899-2.259 4.405-4.8 4.405-1.995 0-3.802-0.885-4.612-2.824l2.598-1.506c0.301 0.866 0.866 1.393 2.014 1.393 1.242 0 1.788-0.659 1.788-1.468s-0.546-1.468-1.788-1.468h-0.621l-1.148-1.713 2.391-3.031h-4.819v-2.824h8.471v2.447l-2.278 2.899c1.619 0.565 2.805 1.864 2.805 3.689z"></path>
<path d="M25.788 18.315c0 2.899-2.259 4.405-4.8 4.405-1.995 0-3.802-0.885-4.612-2.824l2.598-1.506c0.301 0.866 0.866 1.393 2.014 1.393 1.242 0 1.788-0.659 1.788-1.468s-0.546-1.468-1.788-1.468h-0.621l-1.148-1.713 2.391-3.031h-4.819v-2.824h8.471v2.447l-2.278 2.899c1.619 0.565 2.805 1.864 2.805 3.689z"></path>
</svg>
