<!-- Generated by IcoMoon.io -->
<svg version="1.1" xmlns="http://www.w3.org/2000/svg" width="32" height="32" viewBox="0 0 32 32">
<title>video-doorbell</title>
<path d="M26 0h-20c-0.69 0-1.25 0.56-1.25 1.25v29.5c0 0.69 0.56 1.25 1.25 1.25h20c0.69 0 1.25-0.56 1.25-1.25 0-1.824 0-28.396 0-29.5 0-0.69-0.56-1.25-1.25-1.25zM24.75 29.5h-17.5v-11h17.5zM24.75 16h-17.5v-7.5h17.5zM24.75 6h-17.5v-3.5h17.5zM16 27.844c2.119 0 3.844-1.724 3.844-3.844s-1.724-3.844-3.844-3.844-3.844 1.724-3.844 3.844 1.724 3.844 3.844 3.844zM16 22.656c0.741 0 1.344 0.603 1.344 1.344s-0.603 1.344-1.344 1.344-1.344-0.603-1.344-1.344 0.603-1.344 1.344-1.344z"></path>
</svg>
