<svg height="512pt" viewBox="-76 0 512 512" width="512pt" xmlns="http://www.w3.org/2000/svg"><path d="m340 0h-320c-11.046875 0-20 8.953125-20 20v472c0 11.046875 8.953125 20 20 20h320c11.046875 0 20-8.953125 20-20 0-29.179688 0-454.34375 0-472 0-11.046875-8.953125-20-20-20zm-20 472h-280v-176h280zm0-216h-280v-120h280zm0-160h-280v-56h280zm-140 349.5c33.910156 0 61.5-27.589844 61.5-61.5s-27.589844-61.5-61.5-61.5-61.5 27.589844-61.5 61.5 27.589844 61.5 61.5 61.5zm0-83c11.855469 0 21.5 9.644531 21.5 21.5s-9.644531 21.5-21.5 21.5-21.5-9.644531-21.5-21.5 9.644531-21.5 21.5-21.5zm0 0"/></svg>