<!-- Generated by IcoMoon.io -->
<svg version="1.1" xmlns="http://www.w3.org/2000/svg" width="32" height="32" viewBox="0 0 32 32">
<title>processor</title>
<path d="M24.972 17.25c0.511 1.385 1.843 2.375 3.403 2.375 1.999 0 3.625-1.626 3.625-3.625s-1.626-3.625-3.625-3.625c-1.56 0-2.892 0.99-3.403 2.375h-2.722v-2.926l3.617-1.55c0.46-0.197 0.758-0.649 0.758-1.149v-2.097c1.385-0.511 2.375-1.843 2.375-3.403 0-1.999-1.626-3.625-3.625-3.625s-3.625 1.626-3.625 3.625c0 1.56 0.99 2.892 2.375 3.403v1.273l-3.382 1.449h-3.493v-2.722c1.385-0.511 2.375-1.843 2.375-3.403 0-1.999-1.626-3.625-3.625-3.625s-3.625 1.626-3.625 3.625c0 1.56 0.99 2.892 2.375 3.403v2.722h-3.493l-3.382-1.449v-1.273c1.385-0.51 2.375-1.843 2.375-3.403 0-1.999-1.626-3.625-3.625-3.625s-3.625 1.626-3.625 3.625c0 1.56 0.99 2.892 2.375 3.403v2.097c0 0.5 0.298 0.952 0.758 1.149l3.617 1.55v2.926h-2.722c-0.51-1.385-1.843-2.375-3.403-2.375-1.999 0-3.625 1.626-3.625 3.625s1.626 3.625 3.625 3.625c1.56 0 2.893-0.99 3.403-2.375h2.722v2.926l-3.617 1.55c-0.459 0.197-0.758 0.649-0.758 1.149v2.097c-1.385 0.511-2.375 1.843-2.375 3.403 0 1.999 1.626 3.625 3.625 3.625s3.625-1.626 3.625-3.625c0-1.56-0.99-2.892-2.375-3.403v-1.273l3.382-1.449h3.493v2.722c-1.385 0.511-2.375 1.843-2.375 3.403 0 1.999 1.626 3.625 3.625 3.625s3.625-1.626 3.625-3.625c0-1.56-0.99-2.892-2.375-3.403v-2.722h3.493l3.382 1.449v1.273c-1.385 0.51-2.375 1.843-2.375 3.403 0 1.999 1.626 3.625 3.625 3.625s3.625-1.626 3.625-3.625c0-1.56-0.99-2.892-2.375-3.403v-2.097c0-0.5-0.298-0.952-0.758-1.149l-3.617-1.55v-2.926zM28.375 14.875c0.62 0 1.125 0.505 1.125 1.125s-0.505 1.125-1.125 1.125-1.125-0.505-1.125-1.125 0.505-1.125 1.125-1.125zM25.375 2.5c0.62 0 1.125 0.505 1.125 1.125s-0.505 1.125-1.125 1.125-1.125-0.505-1.125-1.125 0.505-1.125 1.125-1.125zM6.625 4.75c-0.62 0-1.125-0.505-1.125-1.125s0.505-1.125 1.125-1.125 1.125 0.505 1.125 1.125-0.505 1.125-1.125 1.125zM3.625 17.125c-0.62 0-1.125-0.505-1.125-1.125s0.505-1.125 1.125-1.125 1.125 0.505 1.125 1.125-0.505 1.125-1.125 1.125zM6.625 29.5c-0.62 0-1.125-0.505-1.125-1.125s0.505-1.125 1.125-1.125 1.125 0.505 1.125 1.125-0.505 1.125-1.125 1.125zM16 2.5c0.62 0 1.125 0.505 1.125 1.125s-0.505 1.125-1.125 1.125-1.125-0.505-1.125-1.125 0.505-1.125 1.125-1.125zM16 29.5c-0.62 0-1.125-0.505-1.125-1.125s0.505-1.125 1.125-1.125 1.125 0.505 1.125 1.125-0.505 1.125-1.125 1.125zM19.75 19.75h-7.5v-7.5h7.5zM25.375 27.25c0.62 0 1.125 0.505 1.125 1.125s-0.505 1.125-1.125 1.125-1.125-0.505-1.125-1.125 0.505-1.125 1.125-1.125z"></path>
</svg>
