<svg height="512" viewBox="0 0 510 510" width="512" xmlns="http://www.w3.org/2000/svg"><g id="Layer_2" data-name="Layer 2"><g id="_35.number_34" data-name="35.number_34"><path id="background" d="m255 23a232.07 232.07 0 0 1 90.3 445.78 232.07 232.07 0 0 1 -180.6-427.56 230.57 230.57 0 0 1 90.3-18.22m0-23c-140.83 0-255 114.17-255 255 0 140.83 114.17 255 255 255 140.83 0 255-114.17 255-255 0-140.83-114.17-255-255-255z"/><path d="m238.5 291.9c0 46.2-36 70.2-76.5 70.2-31.8 0-60.6-14.1-73.5-45l41.4-24c4.8 13.8 13.8 22.2 32.1 22.2 19.8 0 28.5-10.5 28.5-23.4s-8.7-23.4-28.5-23.4h-9.9l-18.3-27.3 38.1-48.3h-76.8v-45h135v39l-36.3 46.2c25.8 9 44.7 29.7 44.7 58.8z"/><path d="m421.5 324.3h-21v33.6h-48.6v-33.6h-95.4v-44.4l66.9-132h51.6l-66.9 132h43.8v-45h48.6v45h21z"/></g></g></svg>