<svg id="Layer_1" enable-background="new 0 0 512 512" height="512" viewBox="0 0 512 512" width="512" xmlns="http://www.w3.org/2000/svg"><g><path d="m497 33.951h-321.295c-12.371-20.335-34.745-33.944-60.237-33.944h-45.013c-38.849-.001-70.455 31.606-70.455 70.454v371.077c0 38.849 31.606 70.455 70.455 70.455h45.013c25.492 0 47.866-13.61 60.237-33.944h321.295c8.284 0 15-6.716 15-15v-414.098c0-8.284-6.716-15-15-15zm-341.077 407.588c0 22.307-18.148 40.455-40.455 40.455h-45.013c-22.307 0-40.455-18.149-40.455-40.455v-371.078c0-22.307 18.148-40.455 40.455-40.455h45.013c22.307 0 40.455 18.148 40.455 40.455zm326.077 6.51h-296.076v-384.098h296.076z"/><path d="m234.954 298.764h198.782c8.284 0 15-6.716 15-15v-169.5c0-8.284-6.716-15-15-15h-198.782c-8.284 0-15 6.716-15 15v169.5c0 8.284 6.715 15 15 15zm59.838-30c4.914-12.609 17.188-21.567 31.514-21.567h16.384c14.327 0 26.6 8.958 31.514 21.567zm40.862-51.567h-2.313c-10.137-.603-18.205-9.017-18.205-19.303 0-10.676 8.686-19.361 19.361-19.361s19.361 8.686 19.361 19.361c.001 10.285-8.067 18.7-18.204 19.303zm-85.7-87.933h168.782v139.5h-13.43c-3.547-18.18-14.835-33.615-30.283-42.736 5.563-7.988 8.837-17.684 8.837-28.134 0-27.218-22.144-49.361-49.361-49.361s-49.361 22.144-49.361 49.361c0 10.451 3.274 20.146 8.837 28.134-15.448 9.121-26.736 24.556-30.283 42.736h-13.736v-139.5z"/><circle cx="234.953" cy="341.402" r="15"/><circle cx="295.511" cy="341.402" r="15"/><path d="m422.327 384.959h-187.373c-8.284 0-15 6.716-15 15s6.716 15 15 15h187.374c8.284 0 15-6.716 15-15s-6.717-15-15.001-15z"/></g></svg>