<!-- Generated by IcoMoon.io -->
<svg version="1.1" xmlns="http://www.w3.org/2000/svg" width="32" height="32" viewBox="0 0 32 32">
<title>intercom</title>
<path d="M31.063 2.122h-20.081c-0.773-1.271-2.172-2.122-3.765-2.122h-2.813c-2.428-0-4.403 1.975-4.403 4.403v23.192c0 2.428 1.975 4.403 4.403 4.403h2.813c1.593 0 2.992-0.851 3.765-2.122h20.081c0.518 0 0.938-0.42 0.938-0.938v-25.881c0-0.518-0.42-0.938-0.938-0.938zM9.745 27.596c0 1.394-1.134 2.528-2.528 2.528h-2.813c-1.394 0-2.528-1.134-2.528-2.528v-23.192c0-1.394 1.134-2.528 2.528-2.528h2.813c1.394 0 2.528 1.134 2.528 2.528zM30.125 28.003h-18.505v-24.006h18.505z"></path>
<path d="M14.685 18.673h12.424c0.518 0 0.938-0.42 0.938-0.938v-10.594c0-0.518-0.42-0.938-0.938-0.938h-12.424c-0.518 0-0.938 0.42-0.938 0.938v10.594c0 0.518 0.42 0.938 0.938 0.938zM18.424 16.798c0.307-0.788 1.074-1.348 1.97-1.348h1.024c0.895 0 1.663 0.56 1.97 1.348zM20.978 13.575h-0.145c-0.634-0.038-1.138-0.564-1.138-1.206 0-0.667 0.543-1.21 1.21-1.21s1.21 0.543 1.21 1.21c0 0.643-0.504 1.169-1.138 1.206zM15.622 8.079h10.549v8.719h-0.839c-0.222-1.136-0.927-2.101-1.893-2.671 0.348-0.499 0.552-1.105 0.552-1.758 0-1.701-1.384-3.085-3.085-3.085s-3.085 1.384-3.085 3.085c0 0.653 0.205 1.259 0.552 1.758-0.965 0.57-1.671 1.535-1.893 2.671h-0.858v-8.719z"></path>
<path d="M15.622 21.338c0 0.518-0.42 0.938-0.938 0.938s-0.938-0.42-0.938-0.938c0-0.518 0.42-0.938 0.938-0.938s0.938 0.42 0.938 0.938z"></path>
<path d="M19.407 21.338c0 0.518-0.42 0.938-0.938 0.938s-0.938-0.42-0.938-0.938c0-0.518 0.42-0.938 0.938-0.938s0.938 0.42 0.938 0.938z"></path>
<path d="M26.395 24.060h-11.711c-0.518 0-0.938 0.42-0.938 0.938s0.42 0.938 0.938 0.938h11.711c0.518 0 0.938-0.42 0.938-0.938s-0.42-0.938-0.938-0.938z"></path>
</svg>
