<!-- Generated by IcoMoon.io -->
<svg version="1.1" xmlns="http://www.w3.org/2000/svg" width="32" height="32" viewBox="0 0 32 32">
<title>motion-sensor-1</title>
<path d="M25.885 20.509c0.024-0.024 0.047-0.049 0.070-0.074 0.001-0.001 0.001-0.001 0.002-0.002l4.108-4.127c1.172-1.172 1.172-3.078 0-4.25-0.283-0.283-0.608-0.497-0.955-0.643 1.135-1.175 1.122-3.053-0.037-4.212-0.321-0.321-0.701-0.56-1.116-0.707 0.554-1.123 0.365-2.523-0.568-3.456-0.568-0.568-1.322-0.88-2.125-0.88-0.206 0-0.41 0.021-0.608 0.061-0.119-0.5-0.373-0.973-0.762-1.362-1.13-1.13-2.969-1.13-4.1-0l-5.348 5.346c0.008-0.106 0.011-0.21 0.009-0.314-0.027-1.877-1.325-3.482-3.157-3.903l-0.994-0.229c-0.483-0.111-0.968 0.173-1.109 0.647-0.008 0.026-0.66 2.221-1.631 5.010-0.439-0.321-0.942-0.553-1.488-0.678l-0.994-0.228c-0.485-0.112-0.972 0.175-1.111 0.653-0.022 0.077-2.234 7.699-3.488 11.148-0.022 0.059-0.042 0.118-0.063 0.176-0.474 1.362-0.55 2.828-0.219 4.24 0.329 1.404 1.043 2.686 2.065 3.708l3.259 3.259c1.471 1.471 3.428 2.287 5.509 2.297 0.013 0 0.025 0 0.038 0 2.067 0 4.016-0.797 5.492-2.245l4.519-4.435c0.001-0.001 0.002-0.002 0.003-0.004s0.002-0.002 0.003-0.003zM28.738 14.982l-2.214 2.224c-0.146-0.344-0.359-0.667-0.639-0.947-0.283-0.283-0.608-0.496-0.956-0.643l2.306-2.318c0.443-0.354 1.093-0.326 1.504 0.084 0.441 0.441 0.441 1.157-0.002 1.6zM27.745 10.127l-1.784 1.794c-0.051 0.044-0.101 0.091-0.149 0.139l-0.281 0.284c-0.149-0.347-0.363-0.666-0.638-0.941-0.284-0.284-0.612-0.499-0.961-0.645l2.27-2.28c0.206-0.182 0.468-0.283 0.746-0.283 0.302 0 0.586 0.118 0.799 0.331 0.441 0.441 0.441 1.157-0.002 1.6zM26.063 4.364c0.441 0.441 0.441 1.157-0.001 1.599l-2.214 2.223c-0.146-0.344-0.358-0.666-0.639-0.946-0.285-0.285-0.613-0.5-0.964-0.646l2.219-2.23c0-0 0-0 0.001-0 0.213-0.213 0.497-0.331 0.799-0.331s0.585 0.118 0.799 0.331zM21.12 2.183c0.193-0.193 0.451-0.3 0.724-0.3s0.531 0.107 0.724 0.3c0.192 0.192 0.298 0.446 0.297 0.714-0.001 0.269-0.108 0.525-0.303 0.719-0.002 0.002-0.004 0.004-0.006 0.006l-2.233 2.243c-0.14-0.308-0.336-0.597-0.589-0.85-0.255-0.255-0.546-0.452-0.857-0.592zM10.737 3.781l0.143 0.033c0.988 0.227 1.688 1.092 1.702 2.103 0.003 0.216-0.035 0.449-0.114 0.693l-0.793 2.367-2.52 2.52c0.158-0.79 0.079-1.593-0.222-2.328 0.813-2.261 1.464-4.296 1.803-5.388zM15.252 28.406c-1.123 1.102-2.606 1.708-4.179 1.708-0.010 0-0.019-0-0.029-0-1.583-0.007-3.072-0.628-4.192-1.748l-3.259-3.259c-1.573-1.573-2.123-3.931-1.4-6.006 0.017-0.050 0.035-0.101 0.054-0.152 1.037-2.852 2.659-8.308 3.278-10.416l0.132 0.030c0.572 0.132 1.058 0.478 1.368 0.975s0.409 1.086 0.277 1.657l-0.71 3.064c-0.094 0.408 0.093 0.828 0.458 1.031s0.822 0.139 1.118-0.157l8.793-8.793c0.399-0.399 1.049-0.399 1.448 0s0.399 1.049 0 1.448l-7.417 7.417c-0.366 0.366-0.366 0.96 0 1.326s0.96 0.366 1.326 0l7.966-7.966c0.441-0.441 1.157-0.441 1.598 0 0.422 0.422 0.439 1.099 0.051 1.542l-1.292 1.297c-0 0-0 0-0.001 0.001l-6.725 6.725c-0.366 0.366-0.366 0.96 0 1.326 0.183 0.183 0.423 0.275 0.663 0.275s0.48-0.092 0.663-0.275l6.727-6.727c0.441-0.441 1.157-0.441 1.598 0s0.441 1.157 0 1.598l-6.727 6.727c-0.366 0.366-0.366 0.96 0 1.326 0.183 0.183 0.423 0.275 0.663 0.275s0.48-0.092 0.663-0.275l4.795-4.795c0.213-0.213 0.497-0.331 0.799-0.331s0.586 0.118 0.799 0.331c0.213 0.213 0.331 0.497 0.331 0.799s-0.118 0.586-0.331 0.799l-4.789 4.789z"></path>
<path d="M23.114 28.121c-0.213-0.472-0.768-0.682-1.24-0.47s-0.682 0.768-0.47 1.24l1.148 2.547c0.156 0.347 0.498 0.553 0.855 0.553 0.129 0 0.26-0.027 0.385-0.083 0.472-0.213 0.682-0.768 0.47-1.24z"></path>
<path d="M26.734 25.756c-0.348-0.383-0.941-0.411-1.324-0.063s-0.411 0.941-0.063 1.324l1.955 2.15c0.185 0.203 0.439 0.307 0.694 0.307 0.225 0 0.451-0.081 0.63-0.244 0.383-0.348 0.411-0.941 0.063-1.324z"></path>
<path d="M31.448 22.76l-2.666-1.204c-0.472-0.213-1.027-0.003-1.24 0.469s-0.003 1.027 0.469 1.24l2.666 1.204c0.125 0.056 0.256 0.083 0.385 0.083 0.357 0 0.698-0.205 0.855-0.552 0.213-0.472 0.003-1.027-0.469-1.24z"></path>
</svg>
