<!-- Generated by IcoMoon.io -->
<svg version="1.1" xmlns="http://www.w3.org/2000/svg" width="32" height="32" viewBox="0 0 32 32">
<title>voice-assistant</title>
<path d="M10.779 17.73c0 0.519-0.421 0.939-0.939 0.939s-0.939-0.421-0.939-0.939c0-0.519 0.421-0.939 0.939-0.939s0.939 0.421 0.939 0.939z"></path>
<path d="M14.426 17.73c0 0.519-0.421 0.939-0.939 0.939s-0.939-0.421-0.939-0.939c0-0.519 0.421-0.939 0.939-0.939s0.939 0.421 0.939 0.939z"></path>
<path d="M26.989 23.743l-1.572-20.554c-0.021-0.324-0.029-0.531-0.075-0.707-0.338-1.264-1.708-2.11-3.868-2.384-1.883-0.239-4.239-0.044-6.635 0.549s-4.571 1.52-6.125 2.609c-1.722 1.207-2.543 2.543-2.335 3.781l-1.364 16.663c-0.174 2.13 0.556 4.253 2.004 5.825s3.504 2.473 5.642 2.473h6.679c2.129 0 4.181-0.896 5.628-2.458s2.184-3.676 2.022-5.799zM8.1 9.045c0.595 0.282 1.331 0.483 2.193 0.592 0.524 0.066 1.085 0.099 1.673 0.099 1.525 0 3.233-0.221 4.962-0.649 2.396-0.593 4.571-1.52 6.125-2.609 0.249-0.175 0.479-0.353 0.691-0.532l1.12 14.641h-17.709zM9.792 4.796c1.369-0.96 3.322-1.785 5.498-2.324 1.735-0.429 3.241-0.596 4.475-0.596 2.209 0 3.544 0.534 3.747 1.047l0.020 0.258c-0.162 0.938-2.478 2.95-7.056 4.083-2.176 0.539-4.288 0.72-5.947 0.509-1.456-0.185-2.2-0.641-2.292-1.012s0.353-1.122 1.555-1.964zM23.589 28.265c-1.109 1.197-2.618 1.856-4.249 1.856h-6.679c-1.637 0-3.15-0.663-4.26-1.867s-1.647-2.766-1.514-4.398l0.114-1.39h18.006l0.109 1.421c0.125 1.627-0.418 3.182-1.526 4.379z"></path>
</svg>
