<svg id="Layer_1" enable-background="new 0 0 510.975 510.975" height="512" viewBox="0 0 510.975 510.975" width="512" xmlns="http://www.w3.org/2000/svg"><g><circle cx="157.118" cy="283.117" r="15"/><circle cx="215.36" cy="283.117" r="15"/><path d="m430.959 379.135-25.099-328.207c-.331-5.178-.463-8.472-1.201-11.282-5.39-20.18-27.278-33.688-61.763-38.06-30.069-3.813-67.696-.698-105.949 8.772s-72.987 24.268-97.805 41.668c-27.49 19.274-40.608 40.601-37.288 60.382l-21.785 266.071c-2.785 34.012 8.881 67.912 32.006 93.008s55.959 39.489 90.085 39.489h106.655c34.001 0 66.755-14.305 89.862-39.248 23.108-24.942 34.874-58.691 32.282-92.593zm-301.626-234.706c9.505 4.5 21.257 7.706 35.023 9.451 8.373 1.062 17.325 1.586 26.72 1.586 24.346 0 51.627-3.525 79.229-10.358 38.252-9.47 72.987-24.268 97.805-41.668 3.983-2.793 7.654-5.63 11.028-8.498l17.879 233.788h-282.775zm27.031-67.839c21.863-15.329 53.042-28.508 87.792-37.111 27.7-6.857 51.755-9.515 71.454-9.515 35.281 0 56.586 8.524 59.837 16.711l.315 4.117c-2.579 14.985-39.575 47.101-112.665 65.195-34.75 8.603-68.476 11.49-94.966 8.131-23.247-2.948-35.131-10.241-36.596-16.161-1.467-5.92 5.643-17.915 24.829-31.367zm220.307 374.75c-17.706 19.111-41.804 29.636-67.855 29.636h-106.656c-26.147 0-50.305-10.589-68.023-29.818-17.719-19.229-26.302-44.17-24.168-70.23l1.817-22.196h287.524l1.735 22.691c1.988 25.975-6.669 50.805-24.374 69.917z"/></g></svg>