<svg height="512" viewBox="0 0 510 510" width="512" xmlns="http://www.w3.org/2000/svg"><g id="Layer_2" data-name="Layer 2"><g id="_39.number_38" data-name="39.number_38"><path id="background" d="m255 23a232.07 232.07 0 0 1 90.3 445.78 232.07 232.07 0 0 1 -180.6-427.56 230.57 230.57 0 0 1 90.3-18.22m0-23c-140.83 0-255 114.17-255 255 0 140.83 114.17 255 255 255 140.83 0 255-114.17 255-255 0-140.83-114.17-255-255-255z"/><path d="m243.9 294c0 46.2-36 70.2-76.5 70.2-31.8 0-60.6-14.1-73.5-45l41.4-24c4.8 13.8 13.8 22.2 32.1 22.2 19.8 0 28.5-10.5 28.5-23.4s-8.7-23.4-28.5-23.4h-9.9l-18.3-27.3 38.1-48.3h-76.8v-45h135v39l-36.3 46.2c25.8 9 44.7 29.7 44.7 58.8z"/><path d="m416.1 300.9c0 38.4-27.6 63.3-77.1 63.3s-77.1-24.9-77.1-63.3c0-20.7 9.6-39 27.3-50.4-12.3-9.6-20.1-23.4-20.1-42.3 0-40.8 31.2-62.4 69.9-62.4s69.9 21.6 69.9 62.4c0 18.9-7.8 32.7-20.1 42.3 17.7 11.4 27.3 29.7 27.3 50.4zm-48-6.9c0-15.9-12.3-25.2-29.1-25.2s-29.1 9.3-29.1 25.2 12.3 25.2 29.1 25.2 29.1-9.3 29.1-25.2zm-51-82.8c0 11.7 8.4 20.4 21.9 20.4s21.9-8.7 21.9-20.4-8.4-20.4-21.9-20.4-21.9 8.7-21.9 20.4z"/></g></g></svg>