<!-- Generated by IcoMoon.io -->
<svg version="1.1" xmlns="http://www.w3.org/2000/svg" width="32" height="32" viewBox="0 0 32 32">
<title>thermostat-1</title>
<path d="M12.618 21.898v-16.892c0-0.518-0.42-0.938-0.938-0.938s-0.938 0.42-0.938 0.938v16.892c-1.295 0.401-2.238 1.61-2.238 3.034 0 1.751 1.425 3.176 3.176 3.176s3.176-1.425 3.176-3.176c0-1.425-0.943-2.633-2.238-3.034zM11.68 26.233c-0.717 0-1.301-0.583-1.301-1.301s0.583-1.301 1.301-1.301 1.301 0.584 1.301 1.301-0.584 1.301-1.301 1.301z"></path>
<path d="M16.46 19.726v-14.937c0-2.635-2.144-4.779-4.779-4.779s-4.779 2.144-4.779 4.779v0.617h-2.171c-0.518 0-0.938 0.42-0.938 0.938s0.42 0.938 0.938 0.938h2.171v1.93h-2.171c-0.518 0-0.938 0.42-0.938 0.938s0.42 0.938 0.938 0.938h2.171v1.879h-2.171c-0.518 0-0.938 0.42-0.938 0.938s0.42 0.938 0.938 0.938h2.171v1.929h-2.171c-0.518 0-0.938 0.42-0.938 0.938s0.42 0.938 0.938 0.938h2.171v1.082c-1.46 1.338-2.288 3.211-2.288 5.207 0 1.906 0.748 3.694 2.105 5.032 1.333 1.315 3.092 2.035 4.962 2.035 0.034 0 0.068-0 0.101-0.001 1.85-0.026 3.593-0.768 4.907-2.090s2.046-3.069 2.060-4.92c0.016-2.018-0.813-3.911-2.288-5.263zM11.755 30.125c-1.404 0.019-2.723-0.511-3.72-1.495s-1.547-2.297-1.547-3.697c0-1.579 0.707-3.054 1.939-4.047 0.221-0.178 0.35-0.446 0.35-0.73v-15.367c0-1.601 1.303-2.904 2.904-2.904s2.904 1.303 2.904 2.904v15.367c0 0.284 0.129 0.552 0.35 0.73 1.245 1.002 1.951 2.493 1.939 4.088-0.022 2.801-2.318 5.111-5.118 5.15z"></path>
<path d="M20.268 3.41c-0.518 0-0.938 0.42-0.938 0.938s0.42 0.938 0.938 0.938c1.464 0 2.655 1.191 2.655 2.655 0 0.518 0.42 0.937 0.938 0.937s0.938-0.42 0.938-0.938c0-2.498-2.032-4.53-4.53-4.53z"></path>
<path d="M20.268 0c-0.518 0-0.938 0.42-0.938 0.938s0.42 0.938 0.938 0.938c3.344 0 6.065 2.721 6.065 6.065 0 0.518 0.42 0.937 0.938 0.937s0.938-0.42 0.938-0.938c0-4.378-3.562-7.94-7.94-7.94z"></path>
<path d="M21.205 7.94c0 0.518-0.42 0.937-0.938 0.937s-0.938-0.42-0.938-0.938c0-0.518 0.42-0.938 0.938-0.938s0.938 0.42 0.938 0.938z"></path>
</svg>
