<svg id="Layer_1" enable-background="new 0 0 512 512" height="512" viewBox="0 0 512 512" width="512" xmlns="http://www.w3.org/2000/svg"><g><path d="m244.741 122.297c-.525-.222-1.069-.407-1.622-.569-14.077-4.76-29.147-7.343-44.811-7.343-15.115 0-29.675 2.414-43.325 6.86-.36.101-.712.218-1.06.345-55.621 18.611-95.819 71.197-95.819 132.999 0 36.357 13.913 69.524 36.692 94.463-8.526 6.502-15.913 14.426-21.816 23.514-10.001 15.4-15.288 33.43-15.288 52.14v72.294c0 8.284 6.716 15 15 15h247.191c8.284 0 15-6.716 15-15v-72.294c0-29.497-12.919-56.299-34.707-73.888 23.751-25.129 38.336-59.006 38.336-96.23.001-61.04-39.214-113.086-93.771-132.291zm-20.849 25.092v42.079c-7.486-3.829-15.952-6.005-24.922-6.005s-17.437 2.175-24.923 6.005v-42.387c7.809-1.761 15.927-2.697 24.261-2.697 8.806.001 17.37 1.045 25.584 3.005zm0 90.996c0 13.742-11.18 24.922-24.922 24.922s-24.923-11.18-24.923-24.922 11.181-24.922 24.923-24.922 24.922 11.18 24.922 24.922zm-79.845-79.687v79.687c0 30.284 24.639 54.922 54.923 54.922s54.922-24.638 54.922-54.922v-78.922c32.649 19.151 54.621 54.618 54.621 95.125 0 60.767-49.438 110.204-110.205 110.204s-110.204-49.438-110.204-110.204c0-41.052 22.567-76.929 55.943-95.89zm160.836 323.302h-217.191v-57.294c0-23.092 11.422-43.574 30.298-55.266 22.764 15.967 50.464 25.353 80.318 25.353 29.03 0 56.027-8.869 78.425-24.039 17.772 11.74 28.151 31.339 28.151 53.952v57.294z"/><circle cx="126.768" cy="446.34" r="15"/><circle cx="181.288" cy="446.34" r="15"/><path d="m327.269 54.557c-8.284 0-15 6.716-15 15s6.716 15 15 15c23.425 0 42.482 19.057 42.482 42.482 0 8.284 6.716 15 15 15s15-6.716 15-15c0-39.967-32.515-72.482-72.482-72.482z"/><path d="m327.269 0c-8.284 0-15 6.716-15 15s6.716 15 15 15c53.508 0 97.039 43.532 97.039 97.039 0 8.284 6.716 15 15 15s15-6.716 15-15c0-70.05-56.989-127.039-127.039-127.039z"/><circle cx="327.269" cy="127.039" r="15"/></g></svg>