<!-- Generated by IcoMoon.io -->
<svg version="1.1" xmlns="http://www.w3.org/2000/svg" width="32" height="32" viewBox="0 0 32 32">
<title>webcam</title>
<path d="M15.296 7.644c-0.033-0.014-0.067-0.025-0.101-0.036-0.88-0.298-1.822-0.459-2.801-0.459-0.945 0-1.855 0.151-2.708 0.429-0.023 0.006-0.044 0.014-0.066 0.022-3.476 1.163-5.989 4.45-5.989 8.312 0 2.272 0.87 4.345 2.293 5.904-0.533 0.406-0.995 0.902-1.364 1.47-0.625 0.962-0.955 2.089-0.955 3.259v4.518c0 0.518 0.42 0.938 0.938 0.938h15.449c0.518 0 0.938-0.42 0.938-0.938v-4.518c0-1.844-0.807-3.519-2.169-4.618 1.484-1.571 2.396-3.688 2.396-6.014 0-3.815-2.451-7.068-5.861-8.268zM13.993 9.212v2.63c-0.468-0.239-0.997-0.375-1.558-0.375s-1.090 0.136-1.558 0.375v-2.649c0.488-0.11 0.995-0.169 1.516-0.169 0.55 0 1.086 0.065 1.599 0.188zM13.993 14.899c0 0.859-0.699 1.558-1.558 1.558s-1.558-0.699-1.558-1.558 0.699-1.558 1.558-1.558 1.558 0.699 1.558 1.558zM9.003 9.919v4.98c0 1.893 1.54 3.433 3.433 3.433s3.433-1.54 3.433-3.433v-4.933c2.041 1.197 3.414 3.414 3.414 5.945 0 3.798-3.090 6.888-6.888 6.888s-6.888-3.090-6.888-6.888c0-2.566 1.41-4.808 3.496-5.993zM19.055 30.125h-13.574v-3.581c0-1.443 0.714-2.723 1.894-3.454 1.423 0.998 3.154 1.585 5.020 1.585 1.814 0 3.502-0.554 4.902-1.502 1.111 0.734 1.759 1.959 1.759 3.372v3.581z"></path>
<path d="M8.861 27.896c0 0.518-0.42 0.938-0.938 0.938s-0.938-0.42-0.938-0.938c0-0.518 0.42-0.938 0.938-0.938s0.938 0.42 0.938 0.938z"></path>
<path d="M12.268 27.896c0 0.518-0.42 0.938-0.938 0.938s-0.938-0.42-0.938-0.938c0-0.518 0.42-0.938 0.938-0.938s0.938 0.42 0.938 0.938z"></path>
<path d="M20.454 3.41c-0.518 0-0.938 0.42-0.938 0.938s0.42 0.938 0.938 0.938c1.464 0 2.655 1.191 2.655 2.655 0 0.518 0.42 0.937 0.938 0.937s0.938-0.42 0.938-0.938c0-2.498-2.032-4.53-4.53-4.53z"></path>
<path d="M20.454 0c-0.518 0-0.938 0.42-0.938 0.938s0.42 0.938 0.938 0.938c3.344 0 6.065 2.721 6.065 6.065 0 0.518 0.42 0.937 0.938 0.937s0.938-0.42 0.938-0.938c0-4.378-3.562-7.94-7.94-7.94z"></path>
<path d="M21.392 7.94c0 0.518-0.42 0.937-0.938 0.937s-0.938-0.42-0.938-0.938c0-0.518 0.42-0.938 0.938-0.938s0.938 0.42 0.938 0.938z"></path>
</svg>
