<svg id="Layer_1" enable-background="new 0 0 512 512" height="512" viewBox="0 0 512 512" width="512" xmlns="http://www.w3.org/2000/svg"><g><path d="m343.646 420.163h-16.729v-122.134c17.052-6.325 29.237-22.755 29.237-41.98s-12.186-35.655-29.237-41.98v-199.069c0-8.284-6.716-15-15-15h-265.188c-8.284 0-15 6.716-15 15v405.163h-16.729c-8.284 0-15 6.716-15 15v61.837c0 8.284 6.716 15 15 15h328.646c8.284 0 15-6.716 15-15v-61.837c0-8.284-6.715-15-15-15zm-32.25-178.873c8.138 0 14.759 6.621 14.759 14.759s-6.621 14.759-14.759 14.759c-8.139 0-14.76-6.621-14.76-14.759s6.622-14.759 14.76-14.759zm-249.667-211.29h235.189v183.707c-12.571 4.311-22.631 14.064-27.352 26.44h-51.054c-8.284 0-15 6.716-15 15s6.716 15 15 15h50.413c4.403 13.228 14.817 23.726 27.993 28.244v121.772h-235.189zm266.917 452h-298.646v-31.837h16.013c.239.011.474.036.715.036h265.189c.241 0 .477-.025.715-.036h16.013v31.837z"/><path d="m260.207 185.431v-99.542c0-8.284-6.716-15-15-15h-131.768c-8.284 0-15 6.716-15 15v99.542c0 8.284 6.716 15 15 15h131.768c8.284 0 15-6.716 15-15zm-30-15h-101.768v-69.542h101.768z"/><path d="m384.96 54.557c-8.284 0-15 6.716-15 15s6.716 15 15 15c23.425 0 42.482 19.058 42.482 42.482 0 8.284 6.716 15 15 15s15-6.716 15-15c0-39.967-32.515-72.482-72.482-72.482z"/><path d="m384.96 0c-8.284 0-15 6.716-15 15s6.716 15 15 15c53.508 0 97.04 43.531 97.04 97.039 0 8.284 6.716 15 15 15s15-6.716 15-15c0-70.05-56.99-127.039-127.04-127.039z"/><circle cx="384.96" cy="127.039" r="15"/></g></svg>