<!-- Generated by IcoMoon.io -->
<svg version="1.1" xmlns="http://www.w3.org/2000/svg" width="32" height="32" viewBox="0 0 32 32">
<title>smart-door</title>
<path d="M21.478 26.26h-1.046v-7.633c1.066-0.395 1.827-1.422 1.827-2.624s-0.762-2.228-1.827-2.624v-12.442c0-0.518-0.42-0.938-0.938-0.938h-16.574c-0.518 0-0.938 0.42-0.938 0.938v25.323h-1.046c-0.518 0-0.938 0.42-0.938 0.938v3.865c0 0.518 0.42 0.938 0.938 0.938h20.54c0.518 0 0.938-0.42 0.938-0.938v-3.865c0-0.518-0.42-0.938-0.938-0.938zM19.462 15.081c0.509 0 0.922 0.414 0.922 0.922s-0.414 0.922-0.922 0.922c-0.509 0-0.922-0.414-0.922-0.922s0.414-0.922 0.922-0.922zM3.858 1.875h14.699v11.482c-0.786 0.269-1.414 0.879-1.709 1.652h-3.191c-0.518 0-0.938 0.42-0.938 0.938s0.42 0.938 0.938 0.938h3.151c0.275 0.827 0.926 1.483 1.75 1.765v7.611h-14.699zM20.54 30.125h-18.665v-1.99h1.001c0.015 0.001 0.030 0.002 0.045 0.002h16.574c0.015 0 0.030-0.002 0.045-0.002h1.001v1.99z"></path>
<path d="M16.263 11.589v-6.221c0-0.518-0.42-0.938-0.938-0.938h-8.236c-0.518 0-0.938 0.42-0.938 0.938v6.221c0 0.518 0.42 0.938 0.938 0.938h8.236c0.518 0 0.938-0.42 0.938-0.938zM14.388 10.652h-6.361v-4.346h6.361z"></path>
<path d="M24.060 3.41c-0.518 0-0.938 0.42-0.938 0.938s0.42 0.938 0.938 0.938c1.464 0 2.655 1.191 2.655 2.655 0 0.518 0.42 0.937 0.938 0.937s0.938-0.42 0.938-0.938c0-2.498-2.032-4.53-4.53-4.53z"></path>
<path d="M24.060 0c-0.518 0-0.938 0.42-0.938 0.938s0.42 0.938 0.938 0.938c3.344 0 6.065 2.721 6.065 6.065 0 0.518 0.42 0.937 0.938 0.937s0.938-0.42 0.938-0.938c0-4.378-3.562-7.94-7.94-7.94z"></path>
<path d="M24.997 7.94c0 0.518-0.42 0.937-0.938 0.937s-0.938-0.42-0.938-0.938c0-0.518 0.42-0.938 0.938-0.938s0.938 0.42 0.938 0.938z"></path>
</svg>
