<svg height="512" viewBox="0 0 510 510" width="512" xmlns="http://www.w3.org/2000/svg"><g id="Layer_2" data-name="Layer 2"><g id="_41.number_40" data-name="41.number_40"><path id="background" d="m255 23a232.07 232.07 0 0 1 90.3 445.78 232.07 232.07 0 0 1 -180.6-427.56 230.57 230.57 0 0 1 90.3-18.22m0-23c-140.83 0-255 114.17-255 255 0 140.83 114.17 255 255 255 140.83 0 255-114.17 255-255 0-140.83-114.17-255-255-255z"/><path d="m246 326.4h-21v33.6h-48.6v-33.6h-95.4v-44.4l66.9-132h51.6l-66.9 132h43.8v-45h48.6v45h21z"/><path d="m258 255c0-64.8 31.2-109.2 85.5-109.2s85.5 44.4 85.5 109.2-31.2 109.2-85.5 109.2-85.5-44.4-85.5-109.2zm123 0c0-40.5-12.3-62.4-37.5-62.4s-37.5 21.9-37.5 62.4 12.3 62.4 37.5 62.4 37.5-21.9 37.5-62.4z"/></g></g></svg>