<!-- Generated by IcoMoon.io -->
<svg version="1.1" xmlns="http://www.w3.org/2000/svg" width="32" height="32" viewBox="0 0 32 32">
<title>smart-light</title>
<path d="M30.582 10.801c1.89-1.89 1.89-4.966 0-6.857-0.708-0.708-1.25-1.082-1.605-1.277-0.224-0.436-0.518-0.846-0.883-1.211-1.89-1.89-4.966-1.89-6.857 0l-13.215 13.215c-0.443-0.227-0.937-0.348-1.45-0.348-0.851 0-1.651 0.331-2.252 0.933-0.601 0.601-0.932 1.399-0.933 2.248-0.814 0.002-1.627 0.312-2.246 0.931-1.242 1.242-1.242 3.263 0 4.505l0.776 0.776-1.313 1.313c-0.806 0.806-0.806 2.118 0 2.924l3.403 3.403c0.403 0.403 0.932 0.605 1.462 0.605s1.059-0.202 1.462-0.605l1.313-1.313 0.881 0.881c0.621 0.621 1.437 0.931 2.252 0.931s1.631-0.31 2.252-0.931c0.62-0.62 0.93-1.433 0.931-2.247 0.814-0.001 1.628-0.312 2.247-0.931 0.602-0.602 0.933-1.401 0.933-2.252 0-0.526-0.127-1.033-0.366-1.485zM29.256 9.475l-13.106 13.106-1.162-1.162 13.106-13.106c0.786-0.786 1.244-1.778 1.377-2.804 0.939 1.167 0.868 2.883-0.215 3.966zM22.564 2.782c1.16-1.159 3.046-1.159 4.205 0s1.159 3.046 0 4.205l-13.106 13.106-1.44-1.44 12.679-12.68c0.366-0.366 0.366-0.96 0-1.326s-0.96-0.366-1.326 0l-12.679 12.679-1.44-1.44zM5.606 30.030c-0.075 0.075-0.197 0.075-0.273 0l-3.403-3.403c-0.075-0.075-0.075-0.197 0-0.273l1.313-1.313 3.676 3.676zM12.304 29.598c-0.511 0.511-1.342 0.511-1.853 0l-7.984-7.984c-0.247-0.247-0.384-0.577-0.384-0.927s0.136-0.679 0.384-0.927c0.247-0.247 0.576-0.384 0.927-0.384s0.679 0.136 0.927 0.384l7.984 7.984c0.511 0.511 0.511 1.342-0 1.853zM15.483 26.419c-0.511 0.511-1.342 0.511-1.853 0l-7.984-7.984c-0.247-0.247-0.384-0.577-0.384-0.927s0.136-0.679 0.384-0.927c0.247-0.247 0.577-0.384 0.927-0.384s0.679 0.136 0.927 0.384l7.984 7.984c0.247 0.247 0.384 0.576 0.384 0.927s-0.136 0.679-0.384 0.927z"></path>
<path d="M24.051 26.494c-0.518 0-0.937 0.42-0.937 0.937s0.42 0.937 0.937 0.937c1.464 0 2.655 1.191 2.655 2.655 0 0.518 0.42 0.937 0.937 0.937s0.937-0.42 0.937-0.937c0-2.498-2.032-4.53-4.53-4.53z"></path>
<path d="M24.051 23.085c-0.518 0-0.937 0.42-0.937 0.937s0.42 0.937 0.937 0.937c3.344 0 6.064 2.721 6.064 6.064 0 0.518 0.42 0.937 0.937 0.937s0.937-0.42 0.937-0.937c0-4.378-3.561-7.939-7.939-7.939z"></path>
<path d="M24.989 31.024c0 0.518-0.42 0.937-0.937 0.937s-0.937-0.42-0.937-0.937c0-0.518 0.42-0.937 0.937-0.937s0.937 0.42 0.937 0.937z"></path>
</svg>
