<svg id="Layer_1" enable-background="new 0 0 512.047 512.047" height="512" viewBox="0 0 512.047 512.047" width="512" xmlns="http://www.w3.org/2000/svg"><g><path d="m489.36 172.828c30.249-30.249 30.249-79.467 0-109.716-11.329-11.329-19.998-17.308-25.681-20.433-3.585-6.981-8.285-13.533-14.125-19.373-30.247-30.248-79.467-30.25-109.716 0l-211.463 211.463c-7.095-3.636-14.997-5.573-23.199-5.573-13.614 0-26.413 5.302-36.039 14.928-9.609 9.609-14.907 22.378-14.926 35.964-13.018.025-26.029 4.991-35.94 14.902-19.872 19.872-19.872 52.206 0 72.079l12.414 12.414-21.01 21.01c-12.9 12.9-12.9 33.889 0 46.789l54.456 54.456c6.45 6.451 14.921 9.676 23.394 9.675 8.472-.001 16.946-3.226 23.395-9.675l21.01-21.01 14.092 14.092c9.936 9.936 22.987 14.904 36.039 14.904s26.104-4.968 36.04-14.904c9.916-9.917 14.883-22.937 14.902-35.963 13.024-.019 26.048-4.987 35.963-14.902 9.627-9.627 14.929-22.426 14.929-36.04 0-8.419-2.033-16.524-5.857-23.762zm-21.213-21.213-209.72 209.721-18.593-18.593 209.72-209.72c12.582-12.582 19.912-28.449 22.027-44.865 15.031 18.667 13.89 46.133-3.434 63.457zm-107.096-107.096c18.555-18.552 48.739-18.55 67.29 0 18.552 18.552 18.552 48.738 0 67.291l-209.72 209.72-23.038-23.038 202.89-202.892c5.858-5.858 5.858-15.355 0-21.213-5.857-5.858-15.355-5.858-21.213 0l-202.89 202.89-23.039-23.039zm-271.344 436.005c-1.203 1.203-3.16 1.203-4.363 0l-54.456-54.456c-1.203-1.203-1.203-3.16 0-4.363l21.01-21.01 58.819 58.819zm107.18-6.918c-8.176 8.175-21.477 8.175-29.652 0l-127.75-127.75c-3.96-3.96-6.141-9.226-6.141-14.827s2.181-10.866 6.142-14.826c3.96-3.96 9.225-6.141 14.826-6.141s10.866 2.181 14.827 6.141l127.75 127.75c8.173 8.175 8.173 21.477-.002 29.653zm50.866-50.866c-8.176 8.175-21.477 8.175-29.652 0l-127.751-127.75c-3.96-3.96-6.141-9.226-6.141-14.827s2.181-10.866 6.142-14.826c3.96-3.96 9.225-6.141 14.826-6.141s10.866 2.181 14.827 6.141l127.75 127.751c3.96 3.96 6.142 9.225 6.142 14.826s-2.183 10.866-6.143 14.826z"/><path d="m384.858 423.945c-8.284 0-15 6.716-15 15s6.716 15 15 15c23.425 0 42.482 19.058 42.482 42.482 0 8.284 6.716 15 15 15s15-6.716 15-15c0-39.966-32.515-72.482-72.482-72.482z"/><path d="m384.858 369.388c-8.284 0-15 6.716-15 15s6.716 15 15 15c53.508 0 97.039 43.532 97.039 97.039 0 8.284 6.716 15 15 15s15-6.716 15-15c0-70.049-56.989-127.039-127.039-127.039z"/><circle cx="384.858" cy="496.428" r="15"/></g></svg>