<svg id="Layer_1" enable-background="new 0 0 512.389 512.389" height="512" viewBox="0 0 512.389 512.389" width="512" xmlns="http://www.w3.org/2000/svg"><g><path d="m369.006 182.324c26.731 0 48.479-21.748 48.479-48.479 0-26.732-21.748-48.48-48.479-48.48h-83.051v-70.365c0-8.284-6.716-15-15-15h-241.038c-8.284 0-15 6.716-15 15v482.389c0 8.284 6.716 15 15 15h241.038c8.284 0 15-6.716 15-15v-315.065zm18.48-48.479c0 10.189-8.29 18.479-18.479 18.479h-164.514c-5.256 0-10.129 2.751-12.844 7.252-8.668 14.368-23.843 22.946-40.591 22.946-26.117 0-47.365-21.248-47.365-47.365s21.248-47.364 47.365-47.364c15.786 0 30.485 7.832 39.32 20.95 2.787 4.14 7.451 6.621 12.441 6.621h166.187c10.19 0 18.48 8.29 18.48 18.481zm-131.53 348.544h-211.039v-452.389h211.038v55.364h-45.685c-14.626-17.397-36.21-27.571-59.213-27.571-42.659 0-77.365 34.705-77.365 77.364s34.706 77.365 77.365 77.365c24.404 0 46.757-11.144 61.34-30.198h43.558v300.065z"/><path d="m151.958 265.383c-27.853 0-50.513 22.66-50.513 50.514 0 22.632 14.961 41.835 35.513 48.239v44.861c0 8.284 6.716 15 15 15s15-6.716 15-15v-44.861c20.552-6.404 35.514-25.607 35.514-48.239 0-27.854-22.66-50.514-50.514-50.514zm0 71.026c-11.311 0-20.513-9.202-20.513-20.513 0-11.312 9.202-20.514 20.513-20.514 11.312 0 20.514 9.202 20.514 20.514 0 11.311-9.202 20.513-20.514 20.513z"/><path d="m370.431 424.518c-8.284 0-15 6.716-15 15s6.716 15 15 15c23.425 0 42.482 19.058 42.482 42.482 0 8.284 6.716 15 15 15s15-6.716 15-15c.001-39.967-32.515-72.482-72.482-72.482z"/><path d="m370.431 369.961c-8.284 0-15 6.716-15 15s6.716 15 15 15c53.508 0 97.04 43.531 97.04 97.039 0 8.284 6.716 15 15 15s15-6.716 15-15c0-70.05-56.99-127.039-127.04-127.039z"/><circle cx="370.432" cy="497" r="15"/><circle cx="151.087" cy="135.157" r="15"/></g></svg>