<!-- Generated by IcoMoon.io -->
<svg version="1.1" xmlns="http://www.w3.org/2000/svg" width="32" height="32" viewBox="0 0 32 32">
<title>smart-key</title>
<path d="M23.045 11.387c1.669 0 3.028-1.358 3.028-3.028s-1.358-3.028-3.028-3.028h-5.187v-4.394c0-0.517-0.419-0.937-0.937-0.937h-15.053c-0.517 0-0.937 0.419-0.937 0.937v30.126c0 0.517 0.419 0.937 0.937 0.937h15.053c0.517 0 0.937-0.419 0.937-0.937v-19.677zM24.2 8.359c0 0.636-0.518 1.154-1.154 1.154h-10.274c-0.328 0-0.633 0.172-0.802 0.453-0.541 0.897-1.489 1.433-2.535 1.433-1.631 0-2.958-1.327-2.958-2.958s1.327-2.958 2.958-2.958c0.986 0 1.904 0.489 2.456 1.308 0.174 0.259 0.465 0.413 0.777 0.413h10.379c0.636 0 1.154 0.518 1.154 1.154zM15.985 30.126h-13.18v-28.253h13.18v3.458h-2.853c-0.913-1.087-2.261-1.722-3.698-1.722-2.664 0-4.832 2.167-4.832 4.832s2.167 4.832 4.832 4.832c1.524 0 2.92-0.696 3.831-1.886h2.72v18.74z"></path>
<path d="M9.49 16.574c-1.739 0-3.155 1.415-3.155 3.155 0 1.413 0.934 2.613 2.218 3.013v2.802c0 0.517 0.419 0.937 0.937 0.937s0.937-0.419 0.937-0.937v-2.802c1.284-0.4 2.218-1.599 2.218-3.013 0-1.74-1.415-3.155-3.155-3.155zM9.49 21.010c-0.706 0-1.281-0.575-1.281-1.281s0.575-1.281 1.281-1.281c0.706 0 1.281 0.575 1.281 1.281s-0.575 1.281-1.281 1.281z"></path>
<path d="M23.134 26.512c-0.517 0-0.937 0.419-0.937 0.937s0.419 0.937 0.937 0.937c1.463 0 2.653 1.19 2.653 2.653 0 0.517 0.419 0.937 0.937 0.937s0.937-0.419 0.937-0.937c0-2.496-2.031-4.527-4.527-4.527z"></path>
<path d="M23.134 23.105c-0.517 0-0.937 0.419-0.937 0.937s0.419 0.937 0.937 0.937c3.342 0 6.060 2.719 6.060 6.060 0 0.517 0.419 0.937 0.937 0.937s0.937-0.419 0.937-0.937c0-4.375-3.559-7.934-7.934-7.934z"></path>
<path d="M24.071 31.039c0 0.517-0.419 0.937-0.937 0.937s-0.937-0.419-0.937-0.937c0-0.517 0.419-0.937 0.937-0.937s0.937 0.419 0.937 0.937z"></path>
<path d="M10.373 8.441c0 0.517-0.419 0.937-0.937 0.937s-0.937-0.419-0.937-0.937c0-0.517 0.419-0.937 0.937-0.937s0.937 0.419 0.937 0.937z"></path>
</svg>
