<svg id="Layer_1" enable-background="new 0 0 511.996 511.996" height="512" viewBox="0 0 511.996 511.996" width="512" xmlns="http://www.w3.org/2000/svg"><g><path d="m296.644 101.361c3.839 0 7.678-1.465 10.606-4.394 5.858-5.857 5.858-15.355 0-21.213-28.261-28.262-74.244-28.262-102.505 0-5.858 5.857-5.858 15.355 0 21.213 5.857 5.857 15.355 5.857 21.213 0 16.564-16.563 43.515-16.563 60.079 0 2.929 2.929 6.768 4.394 10.607 4.394z"/><path d="m187.38 58.39c37.836-37.836 99.398-37.836 137.234 0 2.929 2.929 6.768 4.394 10.606 4.394s7.678-1.465 10.606-4.394c5.858-5.857 5.858-15.355 0-21.213-49.532-49.533-130.128-49.533-179.66 0-5.858 5.857-5.858 15.355 0 21.213 5.859 5.858 15.357 5.858 21.214 0z"/><circle cx="255.998" cy="127.007" r="15"/><path d="m496.996 168.338h-481.996c-8.284 0-15 6.716-15 15v313.63c0 8.284 6.716 15 15 15h481.996c8.284 0 15-6.716 15-15v-313.63c0-8.284-6.716-15-15-15zm-73.913 185.806h-334.171v-33.913h334.172v33.913zm-334.171 30h334.172v33.912h-334.172zm334.171-93.913h-334.171v-33.912h334.172v33.912zm-334.171 191.737v-33.912h334.172v33.912zm393.084 0h-28.912v-240.649c0-8.284-6.716-15-15-15h-364.172c-8.284 0-15 6.716-15 15v240.649h-28.912v-283.63h451.996z"/></g></svg>