<!-- Generated by IcoMoon.io -->
<svg version="1.1" xmlns="http://www.w3.org/2000/svg" width="32" height="32" viewBox="0 0 32 32">
<title>smart-garage</title>
<path d="M18.54 6.335c0.24 0 0.48-0.092 0.663-0.275 0.366-0.366 0.366-0.96 0-1.326-1.766-1.766-4.64-1.766-6.407 0-0.366 0.366-0.366 0.96 0 1.326s0.96 0.366 1.326 0c1.035-1.035 2.72-1.035 3.755 0 0.183 0.183 0.423 0.275 0.663 0.275z"></path>
<path d="M11.711 3.649c2.365-2.365 6.212-2.365 8.577 0 0.183 0.183 0.423 0.275 0.663 0.275s0.48-0.092 0.663-0.275c0.366-0.366 0.366-0.96 0-1.326-3.096-3.096-8.133-3.096-11.229 0-0.366 0.366-0.366 0.96 0 1.326s0.96 0.366 1.326 0z"></path>
<path d="M16.938 7.938c0 0.518-0.42 0.937-0.938 0.937s-0.938-0.42-0.938-0.938c0-0.518 0.42-0.938 0.938-0.938s0.938 0.42 0.938 0.938z"></path>
<path d="M31.063 10.521h-30.125c-0.518 0-0.938 0.42-0.938 0.938v19.602c0 0.518 0.42 0.938 0.938 0.938h30.125c0.518 0 0.938-0.42 0.938-0.938v-19.602c0-0.518-0.42-0.938-0.938-0.938zM26.443 22.134h-20.886v-2.12h20.886v2.12zM5.557 24.009h20.886v2.12h-20.886zM26.443 18.14h-20.886v-2.12h20.886v2.12zM5.557 30.123v-2.12h20.886v2.12zM30.125 30.123h-1.807v-15.041c0-0.518-0.42-0.938-0.938-0.938h-22.761c-0.518 0-0.938 0.42-0.938 0.938v15.041h-1.807v-17.727h28.25z"></path>
</svg>
