<svg id="Layer_1" enable-background="new 0 0 512.24 512.24" height="512" viewBox="0 0 512.24 512.24" width="512" xmlns="http://www.w3.org/2000/svg"><g><path d="m496.933 173.897h-481.626c-8.284 0-15 6.716-15 15v276.52c0 8.284 6.716 15 15 15h25.85l-5.936 7.557c-5.117 6.515-3.985 15.944 2.529 21.062 2.748 2.159 6.014 3.205 9.257 3.205 4.444 0 8.847-1.967 11.806-5.734l20.496-26.09h349.841l20.307 25.85c2.96 3.767 7.36 5.734 11.806 5.734 3.243 0 6.509-1.046 9.257-3.205 6.515-5.118 7.646-14.547 2.529-21.062l-5.748-7.317h29.633c8.284 0 15-6.716 15-15v-276.52c-.001-8.284-6.717-15-15.001-15zm-15 276.52h-43.102c-1.726-.301-3.498-.312-5.237 0h-403.287v-246.52h451.626z"/><path d="m384.894 84.557c23.425 0 42.481 19.058 42.481 42.482 0 8.284 6.716 15 15 15s15-6.716 15-15c0-39.967-32.515-72.482-72.481-72.482-8.284 0-15 6.716-15 15s6.716 15 15 15z"/><path d="m384.894 30c53.508 0 97.039 43.532 97.039 97.039 0 8.284 6.716 15 15 15s15-6.716 15-15c0-70.05-56.989-127.039-127.039-127.039-8.284 0-15 6.716-15 15s6.716 15 15 15z"/><circle cx="384.894" cy="127.039" r="15"/><circle cx="199.762" cy="296.01" r="15"/><circle cx="199.762" cy="361.121" r="15"/><path d="m254.367 408.581h57.816c8.284 0 15-6.716 15-15v-133.013c0-8.284-6.716-15-15-15h-57.816c-8.284 0-15 6.716-15 15v133.012c0 8.285 6.716 15.001 15 15.001zm15-133.013h27.816v103.012h-27.816z"/><path d="m367.894 343.01h41.187v35.57h-39.187c-8.284 0-15 6.716-15 15s6.716 15 15 15h54.187c8.284 0 15-6.716 15-15v-65.57c0-8.284-6.716-15-15-15h-41.187v-37.442h41.187c8.284 0 15-6.716 15-15s-6.716-15-15-15h-56.187c-8.284 0-15 6.716-15 15v67.442c0 8.284 6.716 15 15 15z"/><path d="m86.501 342.075h42.931v51.506c0 8.284 6.716 15 15 15s15-6.716 15-15v-133.013c0-8.284-6.716-15-15-15h-57.931c-8.284 0-15 6.716-15 15v66.506c0 8.285 6.716 15.001 15 15.001zm15-66.507h27.931v36.506h-27.931z"/></g></svg>