<!-- Generated by IcoMoon.io -->
<svg version="1.1" xmlns="http://www.w3.org/2000/svg" width="32" height="32" viewBox="0 0 32 32">
<title>alarm</title>
<path d="M31.044 10.863h-30.088c-0.517 0-0.937 0.42-0.937 0.937v17.274c0 0.517 0.42 0.937 0.937 0.937h1.615l-0.371 0.472c-0.32 0.407-0.249 0.996 0.158 1.316 0.172 0.135 0.376 0.2 0.578 0.2 0.278 0 0.553-0.123 0.738-0.358l1.28-1.63h21.855l1.269 1.615c0.185 0.235 0.46 0.358 0.738 0.358 0.203 0 0.407-0.065 0.578-0.2 0.407-0.32 0.478-0.909 0.158-1.316l-0.359-0.457h1.851c0.517 0 0.937-0.42 0.937-0.937v-17.274c-0-0.518-0.42-0.937-0.937-0.937zM30.107 28.138h-2.693c-0.108-0.019-0.219-0.020-0.327 0h-25.194v-15.4h28.213z"></path>
<path d="M24.045 5.282c1.463 0 2.654 1.191 2.654 2.654 0 0.518 0.42 0.937 0.937 0.937s0.937-0.42 0.937-0.937c0-2.497-2.031-4.528-4.528-4.528-0.517 0-0.937 0.42-0.937 0.937s0.42 0.937 0.937 0.937z"></path>
<path d="M24.045 1.874c3.343 0 6.062 2.719 6.062 6.062 0 0.518 0.42 0.937 0.937 0.937s0.937-0.42 0.937-0.937c0-4.376-3.56-7.936-7.936-7.936-0.517 0-0.937 0.42-0.937 0.937s0.42 0.937 0.937 0.937z"></path>
<path d="M24.982 7.936c0 0.518-0.42 0.937-0.937 0.937s-0.937-0.42-0.937-0.937c0-0.518 0.42-0.937 0.937-0.937s0.937 0.42 0.937 0.937z"></path>
<path d="M13.416 18.492c0 0.518-0.42 0.937-0.937 0.937s-0.937-0.42-0.937-0.937c0-0.518 0.42-0.937 0.937-0.937s0.937 0.42 0.937 0.937z"></path>
<path d="M13.416 22.559c0 0.518-0.42 0.937-0.937 0.937s-0.937-0.42-0.937-0.937c0-0.518 0.42-0.937 0.937-0.937s0.937 0.42 0.937 0.937z"></path>
<path d="M15.89 25.524h3.612c0.517 0 0.937-0.42 0.937-0.937v-8.309c0-0.518-0.42-0.937-0.937-0.937h-3.612c-0.518 0-0.937 0.42-0.937 0.937v8.309c0 0.518 0.42 0.937 0.937 0.937zM16.828 17.215h1.738v6.435h-1.738z"></path>
<path d="M22.983 21.428h2.573v2.222h-2.448c-0.517 0-0.937 0.42-0.937 0.937s0.42 0.937 0.937 0.937h3.385c0.517 0 0.937-0.42 0.937-0.937v-4.096c0-0.517-0.42-0.937-0.937-0.937h-2.573v-2.339h2.573c0.517 0 0.937-0.42 0.937-0.937s-0.42-0.937-0.937-0.937h-3.51c-0.517 0-0.937 0.42-0.937 0.937v4.213c0 0.517 0.42 0.937 0.937 0.937z"></path>
<path d="M5.404 21.37h2.682v3.218c0 0.517 0.42 0.937 0.937 0.937s0.937-0.42 0.937-0.937v-8.309c0-0.518-0.42-0.937-0.937-0.937h-3.619c-0.518 0-0.937 0.42-0.937 0.937v4.155c0 0.518 0.42 0.937 0.937 0.937zM6.341 17.215h1.745v2.281h-1.745z"></path>
</svg>
