<!-- Generated by IcoMoon.io -->
<svg version="1.1" xmlns="http://www.w3.org/2000/svg" width="32" height="32" viewBox="0 0 32 32">
<title>45</title>
<path d="M16 1.443c8.037 0.006 14.551 6.523 14.551 14.561 0 5.992-3.619 11.138-8.79 13.373l-0.094 0.036c-1.661 0.715-3.594 1.13-5.625 1.13-8.042 0-14.561-6.519-14.561-14.561 0-5.98 3.605-11.118 8.76-13.36l0.094-0.036c1.663-0.723 3.601-1.143 5.637-1.143 0.010 0 0.021 0 0.031 0h-0.002zM16 0c-8.836 0-16 7.164-16 16s7.164 16 16 16c8.836 0 16-7.164 16-16s-7.164-16-16-16z"></path>
<path d="M16.141 20.348h-1.318v2.108h-3.049v-2.108h-5.986v-2.786l4.198-8.282h3.238l-4.198 8.282h2.748v-2.824h3.049v2.824h1.318z"></path>
<path d="M26.212 18.315c0 2.899-2.259 4.405-4.8 4.405-2.089 0-3.896-0.885-4.706-2.824l2.598-1.506c0.301 0.866 0.866 1.393 2.108 1.393s1.788-0.659 1.788-1.468-0.546-1.468-1.694-1.468h-4.122l0.546-7.567h7.624v2.824h-4.8l-0.132 1.807h1.073c2.447 0 4.518 1.506 4.518 4.405z"></path>
</svg>
