<!-- Generated by IcoMoon.io -->
<svg version="1.1" xmlns="http://www.w3.org/2000/svg" width="32" height="32" viewBox="0 0 32 32">
<title>voice-assistant-1</title>
<path d="M24.989 1.401c-2.416-0.904-5.608-1.401-8.989-1.401s-6.574 0.498-8.989 1.401c-2.706 1.012-4.196 2.475-4.196 4.118v20.961c0 1.643 1.49 3.106 4.196 4.118 2.416 0.904 5.608 1.401 8.989 1.401s6.573-0.498 8.989-1.401c2.706-1.012 4.196-2.475 4.196-4.118v-20.961c-0-1.643-1.49-3.106-4.197-4.118zM27.311 19.953c0 0.603-0.782 1.54-2.978 2.362-2.211 0.827-5.17 1.283-8.332 1.283s-6.121-0.456-8.332-1.283c-2.196-0.822-2.978-1.759-2.978-2.362v-11.49c0.627 0.436 1.404 0.831 2.321 1.174 2.416 0.904 5.608 1.401 8.989 1.401s6.573-0.498 8.989-1.401c0.917-0.343 1.694-0.738 2.321-1.174v11.49zM7.668 3.158c2.211-0.827 5.17-1.283 8.332-1.283s6.121 0.455 8.332 1.283c2.196 0.821 2.978 1.759 2.978 2.362s-0.782 1.54-2.978 2.362c-2.211 0.827-5.17 1.283-8.332 1.283s-6.121-0.456-8.332-1.283c-2.196-0.822-2.978-1.759-2.978-2.362s0.782-1.54 2.978-2.362zM24.332 28.842c-2.211 0.827-5.17 1.283-8.332 1.283s-6.121-0.456-8.332-1.283c-2.196-0.822-2.978-1.759-2.978-2.362v-3.583c0.627 0.436 1.404 0.831 2.321 1.174 2.416 0.904 5.608 1.401 8.989 1.401s6.573-0.498 8.989-1.401c0.917-0.343 1.694-0.738 2.321-1.174v3.583c-0 0.603-0.782 1.54-2.978 2.362z"></path>
<path d="M12.245 5.519c0 0.518-0.42 0.938-0.938 0.938s-0.938-0.42-0.938-0.938c0-0.518 0.42-0.938 0.938-0.938s0.938 0.42 0.938 0.938z"></path>
<path d="M21.737 5.519c0 0.518-0.42 0.938-0.938 0.938s-0.938-0.42-0.938-0.938c0-0.518 0.42-0.938 0.938-0.938s0.938 0.42 0.938 0.938z"></path>
<path d="M16.991 7.038c0 0.518-0.42 0.938-0.938 0.938s-0.938-0.42-0.938-0.938c0-0.518 0.42-0.938 0.938-0.938s0.938 0.42 0.938 0.938z"></path>
<path d="M16.991 3.644c0 0.518-0.42 0.938-0.938 0.938s-0.938-0.42-0.938-0.938c0-0.518 0.42-0.938 0.938-0.938s0.938 0.42 0.938 0.938z"></path>
</svg>
