<svg id="Layer_1" enable-background="new 0 0 512 512" height="512" viewBox="0 0 512 512" width="512" xmlns="http://www.w3.org/2000/svg"><g><path d="m399.828 22.423c-38.653-14.46-89.733-22.423-143.828-22.423s-105.176 7.963-143.828 22.423c-43.298 16.198-67.143 39.598-67.143 65.889v335.376c0 26.292 23.845 49.691 67.143 65.889 38.652 14.46 89.732 22.423 143.828 22.423s105.175-7.963 143.829-22.423c43.298-16.198 67.143-39.597 67.143-65.889v-335.376c-.001-26.291-23.846-49.691-67.144-65.889zm37.143 296.832c0 9.651-12.519 24.646-47.655 37.791-35.374 13.234-82.721 20.522-133.316 20.522s-97.942-7.288-133.317-20.522c-35.135-13.144-47.654-28.14-47.654-37.791v-183.841c10.035 6.977 22.468 13.297 37.143 18.787 38.653 14.46 89.732 22.423 143.828 22.423s105.175-7.963 143.829-22.423c14.675-5.49 27.108-11.81 37.143-18.787v183.841zm-314.288-268.734c35.375-13.233 82.721-20.521 133.317-20.521s97.942 7.288 133.317 20.521c35.136 13.144 47.655 28.14 47.655 37.791s-12.519 24.646-47.655 37.791c-35.375 13.233-82.721 20.521-133.317 20.521s-97.942-7.288-133.317-20.521c-35.135-13.144-47.654-28.14-47.654-37.791s12.519-24.646 47.654-37.791zm266.634 410.958c-35.375 13.233-82.722 20.521-133.317 20.521s-97.942-7.288-133.317-20.521c-35.135-13.144-47.654-28.14-47.654-37.791v-57.331c10.035 6.977 22.468 13.297 37.143 18.787 38.653 14.46 89.732 22.424 143.828 22.424s105.175-7.963 143.829-22.424c14.675-5.49 27.108-11.81 37.143-18.787v57.331c-.001 9.651-12.52 24.646-47.655 37.791z"/><circle cx="180.927" cy="88.312" r="15"/><circle cx="332.796" cy="88.312" r="15"/><circle cx="256.862" cy="112.61" r="15"/><circle cx="256.862" cy="58.312" r="15"/></g></svg>