<svg id="Layer_1" enable-background="new 0 0 512 512" height="512" viewBox="0 0 512 512" width="512" xmlns="http://www.w3.org/2000/svg"><g><path d="m15 160.487c8.284 0 15-6.716 15-15v-115.487h115.487c8.284 0 15-6.716 15-15s-6.716-15-15-15h-130.487c-8.284 0-15 6.716-15 15v130.487c0 8.284 6.716 15 15 15z"/><path d="m497 0h-130.486c-8.284 0-15 6.716-15 15s6.716 15 15 15h115.486v115.487c0 8.284 6.716 15 15 15s15-6.716 15-15v-130.487c0-8.284-6.716-15-15-15z"/><path d="m497 351.513c-8.284 0-15 6.716-15 15v115.487h-115.486c-8.284 0-15 6.716-15 15s6.716 15 15 15h130.486c8.284 0 15-6.716 15-15v-130.487c0-8.284-6.716-15-15-15z"/><path d="m145.487 482h-115.487v-115.487c0-8.284-6.716-15-15-15s-15 6.716-15 15v130.487c0 8.284 6.716 15 15 15h130.487c8.284 0 15-6.716 15-15s-6.716-15-15-15z"/><path d="m366.989 375.247c-7.629-3.229-16.431.342-19.658 7.972-15.555 36.776-51.404 60.539-91.331 60.539-18.012 0-35.642-4.875-50.983-14.098-7.101-4.27-16.316-1.973-20.584 5.127-4.269 7.1-1.974 16.315 5.127 20.584 20.008 12.029 42.983 18.387 66.441 18.387 52.006 0 98.7-30.951 118.961-78.852 3.226-7.631-.343-16.432-7.973-19.659z"/><path d="m126.887 344.644c0 8.284 6.716 15 15 15s15-6.716 15-15v-177.288c0-54.651 44.463-99.114 99.114-99.114 26.475 0 51.364 10.31 70.084 29.029 18.72 18.721 29.029 43.61 29.029 70.084v135.099c0 8.284 6.716 15 15 15s15-6.716 15-15v-135.098c0-34.487-13.43-66.911-37.816-91.297s-56.81-37.816-91.298-37.816c-71.193 0-129.113 57.92-129.113 129.114z"/><path d="m318.227 297.792c8.284 0 15-6.716 15-15v-105.785c0-42.583-34.644-77.226-77.227-77.226-42.582 0-77.226 34.643-77.226 77.226v9.079c0 8.284 6.716 15 15 15s15-6.716 15-15v-9.079c0-26.04 21.186-47.226 47.226-47.226 26.041 0 47.227 21.186 47.227 47.226v105.785c0 8.284 6.715 15 15 15z"/><path d="m256 412.219c42.583 0 77.227-34.643 77.227-77.226 0-8.284-6.716-15-15-15s-15 6.716-15 15c0 26.04-21.186 47.226-47.227 47.226-26.04 0-47.226-21.186-47.226-47.226v-78.993c0-8.284-6.716-15-15-15s-15 6.716-15 15v78.993c0 42.583 34.644 77.226 77.226 77.226z"/><path d="m241.072 168.002v175.995c0 8.284 6.716 15 15 15s15-6.716 15-15v-175.995c0-8.284-6.716-15-15-15s-15 6.716-15 15z"/></g></svg>