<!-- Generated by IcoMoon.io -->
<svg version="1.1" xmlns="http://www.w3.org/2000/svg" width="32" height="32" viewBox="0 0 32 32">
<title>fingerprint-1</title>
<path d="M0.938 10.030c0.518 0 0.938-0.42 0.938-0.938v-7.218h7.218c0.518 0 0.938-0.42 0.938-0.938s-0.42-0.938-0.938-0.938h-8.155c-0.518 0-0.938 0.42-0.938 0.938v8.155c0 0.518 0.42 0.938 0.938 0.938z"></path>
<path d="M31.063 0h-8.155c-0.518 0-0.938 0.42-0.938 0.938s0.42 0.938 0.938 0.938h7.218v7.218c0 0.518 0.42 0.938 0.938 0.938s0.938-0.42 0.938-0.938v-8.155c0-0.518-0.42-0.938-0.938-0.938z"></path>
<path d="M31.063 21.97c-0.518 0-0.938 0.42-0.938 0.938v7.218h-7.218c-0.518 0-0.938 0.42-0.938 0.938s0.42 0.938 0.938 0.938h8.155c0.518 0 0.938-0.42 0.938-0.938v-8.155c0-0.518-0.42-0.938-0.938-0.938z"></path>
<path d="M9.093 30.125h-7.218v-7.218c0-0.518-0.42-0.938-0.938-0.938s-0.938 0.42-0.938 0.938v8.155c0 0.518 0.42 0.938 0.938 0.938h8.155c0.518 0 0.938-0.42 0.938-0.938s-0.42-0.938-0.938-0.938z"></path>
<path d="M22.937 23.453c-0.477-0.202-1.027 0.021-1.229 0.498-0.972 2.299-3.213 3.784-5.708 3.784-1.126 0-2.228-0.305-3.186-0.881-0.444-0.267-1.020-0.123-1.287 0.32s-0.123 1.020 0.32 1.287c1.251 0.752 2.686 1.149 4.153 1.149 3.25 0 6.169-1.934 7.435-4.928 0.202-0.477-0.021-1.027-0.498-1.229z"></path>
<path d="M7.93 21.54c0 0.518 0.42 0.938 0.938 0.938s0.938-0.42 0.938-0.938v-11.081c0-3.416 2.779-6.195 6.195-6.195 1.655 0 3.21 0.644 4.38 1.814s1.814 2.726 1.814 4.38v8.444c0 0.518 0.42 0.938 0.938 0.938s0.938-0.42 0.938-0.938v-8.444c0-2.155-0.839-4.182-2.363-5.706s-3.551-2.364-5.706-2.364c-4.45 0-8.070 3.62-8.070 8.070z"></path>
<path d="M19.889 18.612c0.518 0 0.938-0.42 0.938-0.938v-6.612c0-2.661-2.165-4.827-4.827-4.827s-4.827 2.165-4.827 4.827v0.567c0 0.518 0.42 0.938 0.938 0.938s0.938-0.42 0.938-0.938v-0.567c0-1.627 1.324-2.952 2.952-2.952s2.952 1.324 2.952 2.952v6.612c0 0.518 0.42 0.938 0.938 0.938z"></path>
<path d="M16 25.764c2.661 0 4.827-2.165 4.827-4.827 0-0.518-0.42-0.938-0.938-0.938s-0.938 0.42-0.938 0.938c0 1.628-1.324 2.952-2.952 2.952s-2.952-1.324-2.952-2.952v-4.937c0-0.518-0.42-0.938-0.938-0.938s-0.938 0.42-0.938 0.938v4.937c0 2.661 2.165 4.827 4.827 4.827z"></path>
<path d="M15.067 10.5v11c0 0.518 0.42 0.938 0.938 0.938s0.938-0.42 0.938-0.938v-11c0-0.518-0.42-0.938-0.938-0.938s-0.938 0.42-0.938 0.938z"></path>
</svg>
