<svg id="Layer_1" enable-background="new 0 0 512 512" height="512" viewBox="0 0 512 512" width="512" xmlns="http://www.w3.org/2000/svg"><g><path d="m408.656 204.919h-44.123v-4.215c0-27.248-22.168-49.416-49.417-49.416-13.394 0-25.553 5.365-34.462 14.048-8.909-8.683-21.068-14.048-34.463-14.048-13.363 0-25.496 5.341-34.4 13.989-8.904-8.648-21.037-13.989-34.4-13.989-13.378 0-25.524 5.352-34.43 14.017-8.907-8.665-21.052-14.017-34.43-14.017-27.249 0-49.417 22.168-49.417 49.416v4.215h-44.114c-8.284 0-15 6.716-15 15v54.31c0 8.284 6.716 15 15 15h44.114v84.831h-44.114c-8.284 0-15 6.716-15 15v54.31c0 8.284 6.716 15 15 15h44.114v4.215c0 27.248 22.168 49.416 49.417 49.416 13.378 0 25.524-5.352 34.43-14.018 8.907 8.665 21.052 14.018 34.43 14.018 13.363 0 25.496-5.34 34.4-13.989 8.905 8.648 21.038 13.988 34.401 13.988 13.394 0 25.553-5.365 34.462-14.048 8.909 8.683 21.068 14.048 34.462 14.048 27.249 0 49.417-22.168 49.417-49.416v-4.215h44.123c8.284 0 15-6.716 15-15v-54.31c0-8.284-6.716-15-15-15h-44.123v-84.831h44.123c8.284 0 15-6.716 15-15v-54.31c0-8.283-6.716-14.999-15-14.999zm-378.656 54.31v-24.31h29.114v24.31zm0 169.14v-24.31h29.114v24.31zm97.947 34.215c0 10.706-8.71 19.416-19.416 19.416-10.707 0-19.417-8.71-19.417-19.416.015-78.255.015-183.827 0-261.88 0-10.706 8.71-19.416 19.417-19.416 10.706 0 19.416 8.71 19.416 19.416zm49.445 19.416c-10.706 0-19.416-8.71-19.416-19.416v-261.88c0-10.706 8.71-19.416 19.416-19.416 10.565 0 19.17 8.487 19.395 18.999-.001.14-.011.277-.011.417v261.88c0 .14.009.278.011.417-.226 10.512-8.83 18.999-19.395 18.999zm88.216-19.416c0 10.706-8.71 19.416-19.416 19.416-10.565 0-19.17-8.487-19.395-18.999.001-.14.011-.277.011-.417v-261.88c0-.14-.009-.278-.011-.417.225-10.512 8.83-18.999 19.395-18.999 10.706 0 19.416 8.71 19.416 19.416zm49.509 19.416c-10.706 0-19.416-8.71-19.416-19.416v-261.88c0-10.706 8.71-19.416 19.416-19.416 10.707 0 19.417 8.71 19.417 19.416-.008 78.188-.008 183.897 0 261.88-.001 10.706-8.711 19.416-19.417 19.416zm78.539-77.94v24.31h-29.123v-24.31zm0-144.831h-29.123v-24.31h29.123z"/><path d="m384.961 54.557c-8.284 0-15 6.716-15 15s6.716 15 15 15c23.425 0 42.482 19.058 42.482 42.482 0 8.284 6.716 15 15 15s15-6.716 15-15c0-39.967-32.515-72.482-72.482-72.482z"/><path d="m384.961 0c-8.284 0-15 6.716-15 15s6.716 15 15 15c53.507 0 97.039 43.531 97.039 97.039 0 8.284 6.716 15 15 15s15-6.716 15-15c0-70.05-56.989-127.039-127.039-127.039z"/><circle cx="384.961" cy="127.039" r="15"/></g></svg>