<!-- Generated by IcoMoon.io -->
<svg version="1.1" xmlns="http://www.w3.org/2000/svg" width="32" height="32" viewBox="0 0 32 32">
<title>heating</title>
<path d="M25.541 12.807h-2.758v-0.263c0-1.703-1.386-3.088-3.089-3.088-0.837 0-1.597 0.335-2.154 0.878-0.557-0.543-1.317-0.878-2.154-0.878-0.835 0-1.594 0.334-2.15 0.874-0.556-0.54-1.315-0.874-2.15-0.874s-1.595 0.335-2.152 0.876c-0.557-0.542-1.316-0.876-2.152-0.876-1.703 0-3.089 1.386-3.089 3.088v0.263h-2.757c-0.518 0-0.938 0.42-0.938 0.938v3.394c0 0.518 0.42 0.938 0.938 0.938h2.757v5.302h-2.757c-0.518 0-0.938 0.42-0.938 0.938v3.394c0 0.518 0.42 0.938 0.938 0.938h2.757v0.263c0 1.703 1.386 3.088 3.089 3.088 0.836 0 1.595-0.334 2.152-0.876 0.557 0.542 1.316 0.876 2.152 0.876s1.594-0.334 2.15-0.874c0.557 0.541 1.315 0.874 2.15 0.874 0.837 0 1.597-0.335 2.154-0.878 0.557 0.543 1.317 0.878 2.154 0.878 1.703 0 3.089-1.386 3.089-3.088v-0.263h2.758c0.518 0 0.938-0.42 0.938-0.938v-3.394c0-0.518-0.42-0.938-0.938-0.938h-2.758v-5.302h2.758c0.518 0 0.938-0.42 0.938-0.938v-3.394c0-0.518-0.42-0.937-0.938-0.937zM1.875 16.202v-1.519h1.82v1.519zM1.875 26.773v-1.519h1.82v1.519zM7.997 28.912c0 0.669-0.544 1.213-1.213 1.213s-1.214-0.544-1.214-1.213c0.001-4.891 0.001-11.489 0-16.367 0-0.669 0.544-1.213 1.214-1.213s1.213 0.544 1.213 1.213zM11.087 30.125c-0.669 0-1.213-0.544-1.213-1.213v-16.367c0-0.669 0.544-1.213 1.213-1.213 0.66 0 1.198 0.53 1.212 1.187-0 0.009-0.001 0.017-0.001 0.026v16.367c0 0.009 0.001 0.017 0.001 0.026-0.014 0.657-0.552 1.187-1.212 1.187zM16.601 28.912c0 0.669-0.544 1.213-1.213 1.213-0.66 0-1.198-0.53-1.212-1.187 0-0.009 0.001-0.017 0.001-0.026v-16.367c0-0.009-0.001-0.017-0.001-0.026 0.014-0.657 0.552-1.187 1.212-1.187 0.669 0 1.213 0.544 1.213 1.213zM19.695 30.125c-0.669 0-1.213-0.544-1.213-1.213v-16.367c0-0.669 0.544-1.213 1.213-1.213s1.214 0.544 1.214 1.213c-0 4.887-0 11.494 0 16.367-0 0.669-0.544 1.213-1.214 1.213zM24.604 25.254v1.519h-1.82v-1.519zM24.604 16.202h-1.82v-1.519h1.82z"></path>
<path d="M24.060 3.41c-0.518 0-0.938 0.42-0.938 0.938s0.42 0.938 0.938 0.938c1.464 0 2.655 1.191 2.655 2.655 0 0.518 0.42 0.937 0.938 0.937s0.938-0.42 0.938-0.938c0-2.498-2.032-4.53-4.53-4.53z"></path>
<path d="M24.060 0c-0.518 0-0.938 0.42-0.938 0.938s0.42 0.938 0.938 0.938c3.344 0 6.065 2.721 6.065 6.065 0 0.518 0.42 0.937 0.938 0.937s0.938-0.42 0.938-0.938c0-4.378-3.562-7.94-7.94-7.94z"></path>
<path d="M24.998 7.94c0 0.518-0.42 0.937-0.938 0.937s-0.938-0.42-0.938-0.938c0-0.518 0.42-0.938 0.938-0.938s0.938 0.42 0.938 0.938z"></path>
</svg>
