<svg id="Layer_1" enable-background="new 0 0 512.965 512.965" height="512" viewBox="0 0 512.965 512.965" width="512" xmlns="http://www.w3.org/2000/svg"><g><path d="m385.926 55.04c-8.284 0-15 6.716-15 15s6.716 15 15 15c23.425 0 42.482 19.057 42.482 42.482 0 8.284 6.716 15 15 15s15-6.716 15-15c0-39.967-32.515-72.482-72.482-72.482z"/><path d="m385.926.482c-8.284 0-15 6.716-15 15s6.716 15 15 15c53.508 0 97.039 43.532 97.039 97.039 0 8.284 6.716 15 15 15s15-6.716 15-15c0-70.049-56.989-127.039-127.039-127.039z"/><circle cx="385.926" cy="127.522" r="15"/><path d="m323.904 47.619h-308.904c-8.284 0-15 6.716-15 15v434.864c0 8.284 6.716 15 15 15h308.904c8.284 0 15-6.716 15-15v-434.864c0-8.285-6.716-15-15-15zm-228.611 369.468v-122.036h57.103v122.037h-57.103zm57.103-210.759v58.723h-57.103v-58.723zm30 88.723h59.569v122.037h-59.569zm59.569-30h-59.569v-58.723h59.569zm-211.965-88.723v-33.806h278.904v33.806zm278.904-98.709v34.903h-278.904v-34.903zm-278.904 404.863v-276.154h35.293v225.76c0 8.284 6.716 15 15 15h176.672c8.284 0 15-6.716 15-15v-225.76h36.939v276.155h-278.904z"/></g></svg>