<svg height="512" viewBox="0 0 510 510" width="512" xmlns="http://www.w3.org/2000/svg"><g id="Layer_2" data-name="Layer 2"><g id="_49.number_48" data-name="49.number_48"><path id="background" d="m255 23a232.07 232.07 0 0 1 90.3 445.78 232.07 232.07 0 0 1 -180.6-427.56 230.57 230.57 0 0 1 90.3-18.22m0-23c-140.83 0-255 114.17-255 255 0 140.83 114.17 255 255 255 140.83 0 255-114.17 255-255 0-140.83-114.17-255-255-255z"/><path d="m252.9 326.4h-21v33.6h-48.6v-33.6h-95.4v-44.4l66.9-132h51.6l-66.9 132h43.8v-45h48.6v45h21z"/><path d="m422.1 300.9c0 38.4-27.6 63.3-77.1 63.3s-77.1-24.9-77.1-63.3c0-20.7 9.6-39 27.3-50.4-12.3-9.6-20.1-23.4-20.1-42.3 0-40.8 31.2-62.4 69.9-62.4s69.9 21.6 69.9 62.4c0 18.9-7.8 32.7-20.1 42.3 17.7 11.4 27.3 29.7 27.3 50.4zm-48-6.9c0-15.9-12.3-25.2-29.1-25.2s-29.1 9.3-29.1 25.2 12.3 25.2 29.1 25.2 29.1-9.3 29.1-25.2zm-51-82.8c0 11.7 8.4 20.4 21.9 20.4s21.9-8.7 21.9-20.4-8.4-20.4-21.9-20.4-21.9 8.7-21.9 20.4z"/></g></g></svg>