<!-- Generated by IcoMoon.io -->
<svg version="1.1" xmlns="http://www.w3.org/2000/svg" width="32" height="32" viewBox="0 0 32 32">
<title>smart-blind</title>
<path d="M24.075 3.434c-0.517 0-0.936 0.419-0.936 0.936s0.419 0.936 0.936 0.936c1.461 0 2.65 1.189 2.65 2.65 0 0.517 0.419 0.936 0.936 0.936s0.936-0.419 0.936-0.936c0-2.493-2.028-4.522-4.522-4.522z"></path>
<path d="M24.075 0.030c-0.517 0-0.936 0.419-0.936 0.936s0.419 0.936 0.936 0.936c3.338 0 6.054 2.716 6.054 6.054 0 0.517 0.419 0.936 0.936 0.936s0.936-0.419 0.936-0.936c0-4.37-3.555-7.925-7.925-7.925z"></path>
<path d="M25.011 7.955c0 0.517-0.419 0.936-0.936 0.936s-0.936-0.419-0.936-0.936c0-0.517 0.419-0.936 0.936-0.936s0.936 0.419 0.936 0.936z"></path>
<path d="M20.206 2.971h-19.27c-0.517 0-0.936 0.419-0.936 0.936v27.128c0 0.517 0.419 0.936 0.936 0.936h19.27c0.517 0 0.936-0.419 0.936-0.936v-27.128c0-0.517-0.419-0.936-0.936-0.936zM5.945 26.019v-7.613h3.562v7.613h-3.562zM9.507 12.871v3.663h-3.562v-3.663zM11.378 18.406h3.716v7.613h-3.716zM15.094 16.535h-3.716v-3.663h3.716zM1.871 11v-2.109h17.399v2.109zM19.27 4.842v2.177h-17.399v-2.177zM1.871 30.098v-17.227h2.202v14.083c0 0.517 0.419 0.936 0.936 0.936h11.021c0.517 0 0.936-0.419 0.936-0.936v-14.083h2.304v17.227h-17.399z"></path>
</svg>
