<!-- Generated by IcoMoon.io -->
<svg version="1.1" xmlns="http://www.w3.org/2000/svg" width="32" height="32" viewBox="0 0 32 32">
<title>air-conditioner-1</title>
<path d="M24.037 5.282c1.463 0 2.654 1.19 2.654 2.654 0 0.517 0.42 0.937 0.937 0.937s0.937-0.42 0.937-0.937c0-2.497-2.031-4.528-4.528-4.528-0.517 0-0.937 0.42-0.937 0.937s0.42 0.937 0.937 0.937z"></path>
<path d="M24.037 1.874c3.342 0 6.062 2.719 6.062 6.062 0 0.517 0.42 0.937 0.937 0.937s0.937-0.42 0.937-0.937c0-4.376-3.56-7.936-7.936-7.936-0.517 0-0.937 0.42-0.937 0.937s0.42 0.937 0.937 0.937z"></path>
<path d="M24.974 7.936c0 0.517-0.419 0.937-0.937 0.937s-0.937-0.419-0.937-0.937c0-0.517 0.419-0.937 0.937-0.937s0.937 0.42 0.937 0.937z"></path>
<path d="M31.033 10.891h-30.064c-0.517 0-0.937 0.42-0.937 0.937v11.308c-0.002 0.027-0.004 0.054-0.004 0.081s0.002 0.054 0.004 0.081v7.759c0 0.517 0.42 0.937 0.937 0.937h3.774c0.033 0.004 0.067 0.006 0.101 0.006h0.001c0.034 0 0.068-0.002 0.101-0.006h22.295c0.002 0 0.005 0 0.007 0s0.005-0 0.007-0h3.779c0.517 0 0.937-0.42 0.937-0.937v-19.229c0-0.517-0.42-0.937-0.937-0.937zM30.096 12.765v9.516l-2.825-0c-0.008-0-0.016-0.001-0.024-0.001s-0.016 0.001-0.024 0.001l-25.317-0.001v-9.515zM5.782 28.081l20.528-0.005 0 2.045h-20.529zM26.31 26.202l-20.526 0.005 0.001-2.052 20.525 0.001zM1.906 24.154l2.005 0-0.003 5.966h-2.002zM28.184 30.12l-0-2.977c0-0.002 0-0.003 0-0.005s-0-0.003-0-0.005l-0-2.977 1.912 0v5.965h-1.912z"></path>
</svg>
