<svg id="Layer_1" enable-background="new 0 0 512.284 512.284" height="512" viewBox="0 0 512.284 512.284" width="512" xmlns="http://www.w3.org/2000/svg"><g><path d="m384.803 84.557c23.425 0 42.482 19.058 42.482 42.482 0 8.284 6.716 15 15 15s15-6.716 15-15c0-39.967-32.515-72.482-72.482-72.482-8.284 0-15 6.716-15 15s6.716 15 15 15z"/><path d="m384.803 30c53.507 0 97.039 43.531 97.039 97.039 0 8.284 6.716 15 15 15s15-6.716 15-15c0-70.05-56.989-127.039-127.039-127.039-8.284 0-15 6.716-15 15s6.716 15 15 15z"/><circle cx="384.803" cy="127.039" r="15"/><path d="m496.804 174.358h-481.297c-8.284 0-15 6.716-15 15v181.029c-.037.427-.065.857-.065 1.294 0 .438.029.869.065 1.298v124.214c0 8.284 6.716 15 15 15h60.411c.531.057 1.069.091 1.615.091h.009c.548 0 1.088-.033 1.621-.091h356.918c.039 0 .077.006.116.006s.077-.006.116-.006h60.491c8.284 0 15-6.716 15-15v-307.835c0-8.284-6.716-15-15-15zm-15 30v152.346l-45.228-.002c-.131-.003-.258-.02-.39-.02-.131 0-.257.016-.387.02l-405.291-.019v-152.325zm-389.235 245.182 328.624-.082.002 32.735h-328.645zm328.621-30.081-328.604.081.019-32.854 328.583.015zm-390.683-32.776 32.097.001-.054 95.509h-32.043zm420.688 95.51-.004-47.66c0-.028.004-.055.004-.083s-.004-.054-.004-.082l-.004-47.666 30.616.001v95.489h-30.608z"/></g></svg>