<svg height="512" viewBox="0 0 510 510" width="512" xmlns="http://www.w3.org/2000/svg"><g id="Layer_2" data-name="Layer 2"><g id="_50.number_49" data-name="50.number_49"><path id="background" d="m255 23a232.07 232.07 0 0 1 90.3 445.78 232.07 232.07 0 0 1 -180.6-427.56 230.57 230.57 0 0 1 90.3-18.22m0-23c-140.83 0-255 114.17-255 255 0 140.83 114.17 255 255 255 140.83 0 255-114.17 255-255 0-140.83-114.17-255-255-255z"/><path d="m258 328.5h-21v33.6h-48.6v-33.6h-95.4v-44.4l66.9-132h51.6l-66.9 132h43.8v-45h48.6v45h21z"/><path d="m404.7 264.6-64.2 97.5h-55.2l45.6-66.3c-41.7-3.3-69.9-33-69.9-73.8 0-43.5 31.8-74.1 78-74.1 46.5 0 78 30.6 78 74.1 0 16.2-4.5 30.9-12.3 42.6zm-65.7-13.5c16.2 0 30-10.5 30-29.1s-13.8-29.1-30-29.1c-15.9 0-30 10.8-30 29.1s14.1 29.1 30 29.1z"/></g></g></svg>