<svg id="Layer_1" enable-background="new 0 0 512 512" height="512" viewBox="0 0 512 512" width="512" xmlns="http://www.w3.org/2000/svg"><g><path d="m323.481 55.737h-308.481c-8.284 0-15 6.716-15 15v426.263c0 8.284 6.716 15 15 15h308.481c8.284 0 15-6.716 15-15v-426.263c0-8.284-6.715-15-15-15zm-15 426.263h-278.481v-396.263h278.481z"/><path d="m111.4 402.582h115.681c8.284 0 15-6.716 15-15v-207.427c0-8.284-6.716-15-15-15h-115.681c-8.284 0-15 6.716-15 15v207.427c0 8.284 6.716 15 15 15zm15-30v-73.714h85.681v73.714zm85.681-177.427v73.713h-85.681v-73.713z"/><circle cx="169.241" cy="124.354" r="15"/><circle cx="169.241" cy="443.383" r="15"/><path d="m384.961 54.557c-8.284 0-15 6.716-15 15s6.716 15 15 15c23.425 0 42.482 19.057 42.482 42.482 0 8.284 6.716 15 15 15s15-6.716 15-15c0-39.967-32.515-72.482-72.482-72.482z"/><path d="m384.961 0c-8.284 0-15 6.716-15 15s6.716 15 15 15c53.508 0 97.039 43.532 97.039 97.039 0 8.284 6.716 15 15 15s15-6.716 15-15c0-70.05-56.989-127.039-127.039-127.039z"/><circle cx="384.961" cy="127.039" r="15"/></g></svg>