<!-- Generated by IcoMoon.io -->
<svg version="1.1" xmlns="http://www.w3.org/2000/svg" width="32" height="32" viewBox="0 0 32 32">
<title>switch</title>
<path d="M20.218 3.484h-19.28c-0.518 0-0.938 0.42-0.938 0.937v26.641c0 0.518 0.42 0.938 0.938 0.938h19.28c0.518 0 0.938-0.42 0.938-0.938v-26.641c0-0.518-0.42-0.938-0.938-0.938zM19.28 30.125h-17.405v-24.766h17.405z"></path>
<path d="M6.963 25.161h7.23c0.518 0 0.938-0.42 0.938-0.938v-12.964c0-0.518-0.42-0.938-0.938-0.938h-7.23c-0.518 0-0.938 0.42-0.938 0.938v12.964c0 0.518 0.42 0.938 0.938 0.938zM7.9 23.286v-4.607h5.355v4.607zM13.255 12.197v4.607h-5.355v-4.607z"></path>
<path d="M11.515 7.772c0 0.518-0.42 0.937-0.938 0.937s-0.938-0.42-0.938-0.938c0-0.518 0.42-0.938 0.938-0.938s0.938 0.42 0.938 0.938z"></path>
<path d="M11.515 27.711c0 0.518-0.42 0.938-0.938 0.938s-0.938-0.42-0.938-0.938c0-0.518 0.42-0.938 0.938-0.938s0.938 0.42 0.938 0.938z"></path>
<path d="M24.060 3.41c-0.518 0-0.938 0.42-0.938 0.938s0.42 0.938 0.938 0.938c1.464 0 2.655 1.191 2.655 2.655 0 0.518 0.42 0.937 0.938 0.937s0.938-0.42 0.938-0.938c0-2.498-2.032-4.53-4.53-4.53z"></path>
<path d="M24.060 0c-0.518 0-0.938 0.42-0.938 0.938s0.42 0.938 0.938 0.938c3.344 0 6.065 2.721 6.065 6.065 0 0.518 0.42 0.937 0.938 0.937s0.938-0.42 0.938-0.938c0-4.378-3.562-7.94-7.94-7.94z"></path>
<path d="M24.998 7.94c0 0.518-0.42 0.937-0.938 0.937s-0.938-0.42-0.938-0.938c0-0.518 0.42-0.938 0.938-0.938s0.938 0.42 0.938 0.938z"></path>
</svg>
