<!-- Generated by IcoMoon.io -->
<svg version="1.1" xmlns="http://www.w3.org/2000/svg" width="32" height="32" viewBox="0 0 32 32">
<title>charging-station</title>
<path d="M31.063 4.017h-0.067v-2.075c0-0.518-0.42-0.938-0.938-0.938s-0.938 0.42-0.938 0.938v2.075h-2.142v-2.075c0-0.518-0.42-0.938-0.938-0.938s-0.938 0.42-0.938 0.938v2.075h-0.067c-0.518 0-0.938 0.42-0.938 0.938v3.013c0 1.855 1.286 3.415 3.013 3.837v13.234c0 0.59-0.48 1.071-1.071 1.071s-1.071-0.48-1.071-1.071v-9.038c0-2.411-1.732-4.424-4.017-4.864v-7.688c0-1.901-1.547-3.448-3.448-3.448h-13.054c-1.901 0-3.448 1.547-3.448 3.448v26.677h-0.067c-0.518 0-0.938 0.42-0.938 0.938s0.42 0.938 0.938 0.938h20.083c0.518 0 0.938-0.42 0.938-0.938s-0.42-0.938-0.938-0.938h-0.067v-17.058c1.241 0.398 2.142 1.562 2.142 2.933v9.038c0 1.624 1.322 2.946 2.946 2.946s2.946-1.322 2.946-2.946v-13.234c1.727-0.422 3.012-1.982 3.012-3.837v-3.013c0-0.518-0.42-0.938-0.938-0.938zM2.879 30.125v-26.677c0-0.867 0.706-1.573 1.573-1.573h13.054c0.867 0 1.573 0.706 1.573 1.573v26.677zM30.125 7.967c0 1.144-0.931 2.075-2.075 2.075s-2.075-0.931-2.075-2.075v-2.075h4.15z"></path>
<path d="M16 4.017h-10.042c-0.518 0-0.938 0.42-0.938 0.938v8.033c0 0.518 0.42 0.938 0.938 0.938h10.042c0.518 0 0.938-0.42 0.938-0.938v-8.033c0-0.518-0.42-0.938-0.938-0.938zM15.063 12.050h-8.167v-6.158h8.167z"></path>
<path d="M13.113 21.087h-2.751l1.455-2.911c0.232-0.463 0.044-1.026-0.419-1.258s-1.026-0.044-1.258 0.419l-2.134 4.268c-0.145 0.291-0.13 0.636 0.041 0.912s0.473 0.445 0.797 0.445h2.751l-1.456 2.911c-0.232 0.463-0.044 1.026 0.419 1.258 0.135 0.067 0.278 0.099 0.418 0.099 0.344 0 0.675-0.19 0.839-0.518l2.134-4.268c0.145-0.291 0.13-0.636-0.041-0.912s-0.473-0.445-0.797-0.445z"></path>
</svg>
