<svg id="Layer_1" enable-background="new 0 0 512 512" height="512" viewBox="0 0 512 512" width="512" xmlns="http://www.w3.org/2000/svg"><g><path d="m497 64.267h-1.066v-33.2c0-8.284-6.716-15-15-15s-15 6.716-15 15v33.2h-34.268v-33.2c0-8.284-6.716-15-15-15s-15 6.716-15 15v33.2h-1.066c-8.284 0-15 6.716-15 15v48.2c0 29.68 20.571 54.633 48.201 61.386v211.747c0 9.448-7.687 17.134-17.135 17.134-9.447 0-17.133-7.686-17.133-17.134v-144.6c0-38.579-27.71-70.791-64.268-77.824v-123.01c.001-30.418-24.746-55.166-55.165-55.166h-208.868c-30.419 0-55.166 24.748-55.166 55.166v426.834h-1.066c-8.284 0-15 6.716-15 15s6.716 15 15 15h16.066 289.199 16.068c8.284 0 15-6.716 15-15s-6.716-15-15-15h-1.068v-272.924c19.853 6.361 34.268 24.987 34.268 46.924v144.6c0 25.99 21.144 47.134 47.133 47.134 25.99 0 47.135-21.144 47.135-47.134v-211.747c27.629-6.753 48.199-31.707 48.199-61.386v-48.2c0-8.285-6.716-15-15-15zm-450.934 417.733v-426.834c0-13.876 11.289-25.166 25.166-25.166h208.868c13.877 0 25.166 11.29 25.166 25.166v426.834zm435.934-354.533c0 18.306-14.894 33.199-33.199 33.199-18.308 0-33.201-14.893-33.201-33.199v-33.2h66.4z"/><path d="m256 64.267h-160.666c-8.284 0-15 6.716-15 15v128.533c0 8.284 6.716 15 15 15h160.666c8.284 0 15-6.716 15-15v-128.533c0-8.285-6.716-15-15-15zm-15 128.533h-130.666v-98.533h130.666z"/><path d="m209.809 337.4h-44.013l23.286-46.575c3.705-7.41.702-16.42-6.708-20.125-7.406-3.703-16.419-.702-20.124 6.708l-34.141 68.283c-2.325 4.65-2.077 10.172.656 14.594s7.562 7.114 12.76 7.114h44.013l-23.288 46.575c-3.705 7.41-.702 16.42 6.708 20.125 2.153 1.077 4.442 1.587 6.696 1.587 5.502 0 10.8-3.039 13.428-8.295l34.143-68.283c2.325-4.65 2.077-10.172-.656-14.594s-7.562-7.114-12.76-7.114z"/></g></svg>