<svg id="Layer_1" enable-background="new 0 0 512 512" height="512" viewBox="0 0 512 512" width="512" xmlns="http://www.w3.org/2000/svg"><g><path d="m384.961 54.557c-8.284 0-15 6.716-15 15s6.716 15 15 15c23.425 0 42.482 19.057 42.482 42.482 0 8.284 6.716 15 15 15s15-6.716 15-15c0-39.967-32.515-72.482-72.482-72.482z"/><path d="m384.961 0c-8.284 0-15 6.716-15 15s6.716 15 15 15c53.508 0 97.039 43.532 97.039 97.039 0 8.284 6.716 15 15 15s15-6.716 15-15c0-70.05-56.989-127.039-127.039-127.039z"/><circle cx="384.961" cy="127.039" r="15"/><path d="m330.382 127.039h-315.382c-8.284 0-15 6.716-15 15v354.961c0 8.284 6.716 15 15 15h315.382c8.284 0 15-6.716 15-15v-354.961c0-8.284-6.716-15-15-15zm-15 354.961h-285.382v-324.961h285.382z"/><path d="m172.69 431.21c61.587 0 111.691-50.104 111.691-111.691s-50.104-111.69-111.691-111.69c-61.586 0-111.69 50.104-111.69 111.691s50.104 111.69 111.69 111.69zm0-193.381c45.045 0 81.691 36.646 81.691 81.691s-36.646 81.691-81.691 81.691c-45.044 0-81.69-36.646-81.69-81.691s36.646-81.691 81.69-81.691z"/><circle cx="144.943" cy="319.52" r="15"/><circle cx="203.422" cy="319.52" r="15"/></g></svg>