<svg id="Layer_1" enable-background="new 0 0 512.163 512.163" height="512" viewBox="0 0 512.163 512.163" width="512" xmlns="http://www.w3.org/2000/svg"><g><path d="m385.042 54.72c-8.284 0-15 6.716-15 15s6.716 15 15 15c23.425 0 42.482 19.057 42.482 42.482 0 8.284 6.716 15 15 15s15-6.716 15-15c0-39.967-32.515-72.482-72.482-72.482z"/><path d="m385.042.163c-8.284 0-15 6.716-15 15s6.716 15 15 15c53.507 0 97.039 43.532 97.039 97.039 0 8.284 6.716 15 15 15s15-6.716 15-15c.001-70.05-56.989-127.039-127.039-127.039z"/><circle cx="385.042" cy="127.202" r="15"/><path d="m316.984 0h-301.902c-8.284 0-15 6.716-15 15v482.163c0 8.284 6.716 15 15 15h301.903c8.284 0 15-6.716 15-15v-482.163c-.001-8.284-6.716-15-15.001-15zm-15 482.163h-271.902v-452.163h271.903v452.163z"/><path d="m166.033 449.588c60.238 0 109.246-49.007 109.246-109.246s-49.007-109.246-109.246-109.246-109.246 49.008-109.246 109.247 49.007 109.245 109.246 109.245zm0-188.491c43.696 0 79.246 35.549 79.246 79.246s-35.549 79.246-79.246 79.246-79.246-35.549-79.246-79.246 35.549-79.246 79.246-79.246z"/><path d="m166.033 391.672c28.995 0 52.584-23.589 52.584-52.583 0-28.995-23.589-52.584-52.584-52.584s-52.583 23.589-52.583 52.584c-.001 28.994 23.588 52.583 52.583 52.583zm0-75.167c12.453 0 22.584 10.131 22.584 22.584s-10.131 22.583-22.584 22.583-22.583-10.131-22.583-22.583 10.13-22.584 22.583-22.584z"/><path d="m166.033 202.475c38.571 0 69.95-31.379 69.95-69.95s-31.379-69.95-69.95-69.95c-38.57 0-69.95 31.379-69.95 69.95 0 38.57 31.379 69.95 69.95 69.95zm0-109.9c22.029 0 39.95 17.921 39.95 39.95 0 22.028-17.921 39.95-39.95 39.95-22.028 0-39.95-17.921-39.95-39.95s17.921-39.95 39.95-39.95z"/><circle cx="166.033" cy="132.525" r="15"/></g></svg>