<svg id="Layer_1" enable-background="new 0 0 512.001 512.001" height="512" viewBox="0 0 512.001 512.001" width="512" xmlns="http://www.w3.org/2000/svg"><g><path d="m73.978 80.887h.017l297.672.109c6.81 29.189 33.027 51.004 64.26 51.004h21.146c8.284 0 15-6.716 15-15v-6h24.927c8.284 0 15-6.716 15-15s-6.716-15-15-15h-24.927v-30h24.927c8.284 0 15-6.716 15-15s-6.716-15-15-15h-24.927v-6c0-8.284-6.716-15-15-15h-21.146c-31.23 0-57.445 21.811-64.259 50.996l-297.661-.109c-.01 0-.019 0-.028 0-40.523 0-73.707 32.97-73.977 73.508-.131 19.816 7.505 38.492 21.501 52.586 14.019 14.118 32.688 21.897 52.534 21.906l16.58.047c-7.752 12.651-36.38 59.371-36.38 59.371-30.389 10.414-52.236 38.612-52.236 71.696v82c0 14.505 7.065 27.422 18 35.656v25.225c0 21.57 17.548 39.118 39.117 39.118h44.765c21.569 0 39.118-17.548 39.118-39.118v-15.881h226v15.881c0 21.57 17.549 39.118 39.118 39.118h44.764c21.569 0 39.118-17.548 39.118-39.118v-25.225c10.935-8.235 18-21.151 18-35.656v-82c0-33.108-21.879-61.322-52.302-71.717-19.3-31.475-38.589-62.957-57.868-94.444-13.944-22.776-37.259-35.838-63.964-35.838h-159.783c-26.701 0-50.014 13.06-63.959 35.831-1.052 1.718-2.106 3.436-3.158 5.155l-34.88-.099c-11.834-.005-22.949-4.638-31.296-13.044-8.325-8.384-12.867-19.482-12.789-31.25.16-24.106 19.884-43.708 43.976-43.708zm361.949-50.887h6.146v72h-6.146c-19.851 0-36-16.149-36-36s16.15-36 36-36zm-399.811 314.048c2.847-2.665 5.86-3.733 9.739-3.482 18.005 1.187 32.89 13.482 38.128 29.907h-51.982v-16.935c0-3.899 1.268-6.826 4.115-9.49zm76.885 128.834c0 4.942-4.176 9.118-9.118 9.118h-44.765c-4.942 0-9.117-4.176-9.117-9.118v-15.881h63zm339.882 9.118h-44.764c-4.942 0-9.118-4.176-9.118-9.118v-15.881h63v15.881c0 4.943-4.176 9.118-9.118 9.118zm27.118-128.463v16.935h-51.982c5.237-16.425 20.123-28.72 38.127-29.907 3.887-.255 6.894.817 9.74 3.482 2.845 2.665 4.115 5.592 4.115 9.49zm-4.123-42.134c-3.762-.769-7.676-1.039-11.705-.772-38.228 2.52-68.172 34.515-68.172 72.841v2c0 8.284 6.716 15 15 15h69v11.529c0 8.271-7.195 15-16.039 15h-335.952c-.003 0-.006 0-.01 0-.003 0-.006 0-.01 0h-79.951c-8.844 0-16.038-6.729-16.038-15v-11.529h69c8.284 0 15-6.716 15-15v-2c0-38.326-29.945-70.321-68.173-72.841-4.031-.266-7.944.005-11.704.773 7.486-16.124 24.381-27.403 43.99-27.403h351.774c19.608 0 36.503 11.279 43.99 27.402zm-299.794-153.402h159.783c16.259 0 29.889 7.637 38.378 21.503 15.207 24.837 30.426 49.667 45.646 74.497h-327.831s30.732-50.144 45.649-74.501c8.49-13.864 22.119-21.499 38.375-21.499z"/><path d="m372.001 310.001h-232c-5.108 0-9.866 2.6-12.625 6.9s-3.14 9.708-1.01 14.352l19.955 43.511c7.424 16.183 23.096 26.236 40.901 26.236h137.509c17.814 0 33.49-10.06 40.91-26.254 6.643-14.498 13.308-28.986 19.982-43.467 2.141-4.644 1.767-10.059-.99-14.366s-7.518-6.912-12.632-6.912zm-33.633 52.248c-2.548 5.562-7.519 8.751-13.637 8.751h-137.509c-6.115 0-11.084-3.187-13.634-8.745l-10.206-22.254h185.199c-3.408 7.413-6.814 14.83-10.213 22.248z"/></g></svg>