<!-- Generated by IcoMoon.io -->
<svg version="1.1" xmlns="http://www.w3.org/2000/svg" width="32" height="32" viewBox="0 0 32 32">
<title>speaker</title>
<path d="M24.057 3.419c-0.518 0-0.937 0.42-0.937 0.937s0.42 0.937 0.937 0.937c1.464 0 2.654 1.191 2.654 2.654 0 0.518 0.42 0.937 0.937 0.937s0.937-0.42 0.937-0.937c0-2.497-2.032-4.529-4.529-4.529z"></path>
<path d="M24.057 0.010c-0.518 0-0.937 0.42-0.937 0.937s0.42 0.937 0.937 0.937c3.343 0 6.063 2.72 6.063 6.063 0 0.518 0.42 0.937 0.937 0.937s0.937-0.42 0.937-0.937c0-4.377-3.561-7.937-7.937-7.937z"></path>
<path d="M24.995 7.948c0 0.518-0.42 0.937-0.937 0.937s-0.937-0.42-0.937-0.937c0-0.518 0.42-0.937 0.937-0.937s0.937 0.42 0.937 0.937z"></path>
<path d="M19.805 0h-18.863c-0.518 0-0.937 0.42-0.937 0.937v30.126c0 0.518 0.42 0.937 0.937 0.937h18.863c0.518 0 0.937-0.42 0.937-0.937v-30.126c-0-0.518-0.42-0.937-0.937-0.937zM18.868 30.126h-16.988v-28.251h16.989v28.251z"></path>
<path d="M10.374 28.090c3.764 0 6.826-3.062 6.826-6.826s-3.062-6.826-6.826-6.826-6.826 3.062-6.826 6.826 3.062 6.826 6.826 6.826zM10.374 16.313c2.73 0 4.951 2.221 4.951 4.951s-2.221 4.951-4.951 4.951-4.951-2.221-4.951-4.951 2.221-4.951 4.951-4.951z"></path>
<path d="M10.374 24.472c1.812 0 3.285-1.474 3.285-3.285s-1.474-3.285-3.285-3.285-3.285 1.474-3.285 3.285c-0 1.812 1.474 3.285 3.285 3.285zM10.374 19.775c0.778 0 1.411 0.633 1.411 1.411s-0.633 1.411-1.411 1.411-1.411-0.633-1.411-1.411 0.633-1.411 1.411-1.411z"></path>
<path d="M10.374 12.651c2.41 0 4.37-1.961 4.37-4.37s-1.961-4.37-4.37-4.37c-2.41 0-4.37 1.961-4.37 4.37s1.961 4.37 4.37 4.37zM10.374 5.784c1.376 0 2.496 1.12 2.496 2.496s-1.12 2.496-2.496 2.496c-1.376 0-2.496-1.12-2.496-2.496s1.12-2.496 2.496-2.496z"></path>
<path d="M11.311 8.28c0 0.518-0.42 0.937-0.937 0.937s-0.937-0.42-0.937-0.937c0-0.518 0.42-0.937 0.937-0.937s0.937 0.42 0.937 0.937z"></path>
</svg>
