<!-- Generated by IcoMoon.io -->
<svg version="1.1" xmlns="http://www.w3.org/2000/svg" width="32" height="32" viewBox="0 0 32 32">
<title>electric-car</title>
<path d="M4.624 5.055l18.606 0.007c0.426 1.824 2.064 3.188 4.016 3.188h1.322c0.518 0 0.938-0.42 0.938-0.938v-0.375h1.558c0.518 0 0.938-0.42 0.938-0.938s-0.42-0.938-0.938-0.938h-1.558v-1.875h1.558c0.518 0 0.938-0.42 0.938-0.938s-0.42-0.938-0.938-0.938h-1.558v-0.375c0-0.518-0.42-0.938-0.938-0.938h-1.322c-1.952 0-3.59 1.363-4.016 3.187l-18.604-0.007c-0.001 0-0.001 0-0.002 0-2.533 0-4.607 2.061-4.624 4.594-0.008 1.238 0.469 2.406 1.344 3.287 0.876 0.882 2.043 1.369 3.283 1.369l1.036 0.003c-0.484 0.791-2.274 3.711-2.274 3.711-1.899 0.651-3.265 2.413-3.265 4.481v5.125c0 0.907 0.442 1.714 1.125 2.229v1.577c0 1.348 1.097 2.445 2.445 2.445h2.798c1.348 0 2.445-1.097 2.445-2.445v-0.993h14.125v0.993c0 1.348 1.097 2.445 2.445 2.445h2.798c1.348 0 2.445-1.097 2.445-2.445v-1.577c0.683-0.515 1.125-1.322 1.125-2.229v-5.125c0-2.069-1.367-3.833-3.269-4.482-1.206-1.967-2.412-3.935-3.617-5.903-0.872-1.424-2.329-2.24-3.998-2.24h-9.986c-1.669 0-3.126 0.816-3.997 2.239-0.066 0.107-0.132 0.215-0.197 0.322l-2.18-0.006c-0.74-0-1.434-0.29-1.956-0.815-0.52-0.524-0.804-1.218-0.799-1.953 0.010-1.507 1.243-2.732 2.748-2.732zM27.245 1.875h0.384v4.5h-0.384c-1.241 0-2.25-1.009-2.25-2.25s1.009-2.25 2.25-2.25zM2.257 21.503c0.178-0.167 0.366-0.233 0.609-0.218 1.125 0.074 2.056 0.843 2.383 1.869h-3.249v-1.058c0-0.244 0.079-0.427 0.257-0.593zM7.063 29.555c0 0.309-0.261 0.57-0.57 0.57h-2.798c-0.309 0-0.57-0.261-0.57-0.57v-0.993h3.938zM28.305 30.125h-2.798c-0.309 0-0.57-0.261-0.57-0.57v-0.993h3.938v0.993c0 0.309-0.261 0.57-0.57 0.57zM30 22.096v1.058h-3.249c0.327-1.027 1.258-1.795 2.383-1.869 0.243-0.016 0.431 0.051 0.609 0.218s0.257 0.349 0.257 0.593zM29.742 19.463c-0.235-0.048-0.48-0.065-0.732-0.048-2.389 0.157-4.261 2.157-4.261 4.553v0.125c0 0.518 0.42 0.938 0.938 0.938h4.313v0.721c0 0.517-0.45 0.938-1.002 0.938h-20.997c-0 0-0 0-0.001 0s-0 0-0.001 0h-4.997c-0.553 0-1.002-0.421-1.002-0.938v-0.721h4.313c0.518 0 0.938-0.42 0.938-0.938v-0.125c0-2.395-1.872-4.395-4.261-4.553-0.252-0.017-0.497 0-0.732 0.048 0.468-1.008 1.524-1.713 2.749-1.713h21.986c1.226 0 2.281 0.705 2.749 1.713zM11.005 9.875h9.986c1.016 0 1.868 0.477 2.399 1.344 0.95 1.552 1.902 3.104 2.853 4.656h-20.489s1.921-3.134 2.853-4.656c0.531-0.867 1.382-1.344 2.398-1.344z"></path>
<path d="M23.25 19.375h-14.5c-0.319 0-0.617 0.163-0.789 0.431s-0.196 0.607-0.063 0.897l1.247 2.719c0.464 1.011 1.444 1.64 2.556 1.64h8.594c1.113 0 2.093-0.629 2.557-1.641 0.415-0.906 0.832-1.812 1.249-2.717 0.134-0.29 0.11-0.629-0.062-0.898s-0.47-0.432-0.79-0.432zM21.148 22.641c-0.159 0.348-0.47 0.547-0.852 0.547h-8.594c-0.382 0-0.693-0.199-0.852-0.547l-0.638-1.391h11.575c-0.213 0.463-0.426 0.927-0.638 1.39z"></path>
</svg>
