<svg id="Layer_1" enable-background="new 0 0 512.196 512.196" height="512" viewBox="0 0 512.196 512.196" width="512" xmlns="http://www.w3.org/2000/svg"><g><path d="m497.196 40.141h-482.196c-8.284 0-15 6.716-15 15v343.179c0 8.284 6.716 15 15 15h109.441v28.735h-36.936c-8.284 0-15 6.716-15 15s6.716 15 15 15h51.936 233.314 51.936c8.285 0 15.001-6.716 15.001-15s-6.716-15-15-15h-36.937v-28.735h109.441c8.284 0 15-6.716 15-15v-343.179c0-8.284-6.716-15-15-15zm-139.441 401.914h-203.314v-28.735h203.314zm124.441-58.735h-452.196v-313.179h452.196z"/><path d="m204.846 231.497c-5.858 5.858-5.858 15.355 0 21.213s15.356 5.858 21.213 0c16.564-16.563 43.515-16.563 60.079 0 2.928 2.93 6.767 4.394 10.606 4.394s7.678-1.464 10.607-4.394c5.858-5.858 5.858-15.355 0-21.213-28.261-28.261-74.244-28.261-102.505 0z"/><path d="m187.482 214.133c37.836-37.835 99.398-37.835 137.234 0 2.928 2.93 6.767 4.394 10.606 4.394s7.678-1.464 10.607-4.394c5.858-5.858 5.858-15.355 0-21.213-49.532-49.533-130.128-49.533-179.66 0-5.858 5.858-5.858 15.355 0 21.213s15.356 5.858 21.213 0z"/><circle cx="256.098" cy="282.75" r="15"/></g></svg>