<svg id="Capa_1" enable-background="new 0 0 512 512" height="512" viewBox="0 0 512 512" width="512" xmlns="http://www.w3.org/2000/svg"><g><path d="m463.724 326.383-74.072-19.566c-25.026-23.056-51.671-41.584-79.242-55.097-32.961-16.155-65.863-24.347-97.793-24.347-53.67-.23-106.813 14.714-152.616 42.659v-110.2c-.001-12.59 10.241-22.832 22.83-22.832h24.169v9.636c0 22.257 18.107 40.364 40.364 40.364h54.636c8.284 0 15-6.716 15-15v-5h35c8.284 0 15-6.716 15-15s-6.716-15-15-15h-35v-30h35c8.284 0 15-6.716 15-15s-6.716-15-15-15h-35v-5c0-8.284-6.716-15-15-15h-54.636c-22.257 0-40.364 18.107-40.364 40.364v9.636h-24.169c-29.131 0-52.831 23.7-52.831 52.832v131.211c-8.961 7.16-17.534 14.862-25.677 23.113-2.77 2.807-4.323 6.592-4.323 10.536v115.232c0 8.284 6.716 15 15 15h46.166c6.549 23.099 27.813 40.076 52.982 40.076s46.433-16.977 52.983-40.076h177.402c6.55 23.099 27.814 40.076 52.983 40.076s46.433-16.977 52.983-40.076h46.501c8.284 0 15-6.716 15-15v-50.856c0-29.4-19.852-55.176-48.276-62.685zm-326.724-229.019c0-5.715 4.649-10.364 10.364-10.364h39.636v70h-39.636c-5.715 0-10.364-4.649-10.364-10.364zm75.616 160.009c25.479 0 72.894 6.884 128.369 47.986h-171.597c-18.393 0-36.324-7.533-49.199-20.667l-7.58-7.732c31.651-12.988 65.041-19.586 99.281-19.586h.726zm-98.468 207.627c-13.827 0-25.076-11.249-25.076-25.076s11.249-25.077 25.076-25.077 25.076 11.25 25.076 25.077-11.248 25.076-25.076 25.076zm283.369 0c-13.827 0-25.076-11.249-25.076-25.076s11.249-25.077 25.076-25.077 25.076 11.25 25.076 25.077-11.249 25.076-25.076 25.076zm84.483-40.076h-31.5c-6.55-23.099-27.814-40.077-52.983-40.077s-46.433 16.977-52.983 40.077h-177.403c-6.55-23.099-27.814-40.077-52.983-40.077s-46.433 16.977-52.983 40.077h-31.165v-93.978c16.251-15.731 34.367-29.208 54.076-40.239l14.688 14.985c18.48 18.854 44.222 29.667 70.623 29.667h210.851l75.823 20.029c15.273 4.034 25.939 17.884 25.939 33.679z"/><path d="m270.289 365.359h-28.578c-8.284 0-15 6.716-15 15s6.716 15 15 15h28.578c8.284 0 15-6.716 15-15s-6.716-15-15-15z"/><path d="m388.015 155.107c5.858 5.857 15.356 5.858 21.213 0l35.5-35.5c5.858-5.858 5.858-15.355 0-21.213-5.857-5.858-15.355-5.858-21.213 0l-24.894 24.894-10.136-10.136c-5.857-5.857-15.355-5.858-21.213 0s-5.858 15.355 0 21.213z"/><path d="m407 227c57.897 0 105-47.103 105-105s-47.103-105-105-105-105 47.103-105 105 47.103 105 105 105zm0-180c41.355 0 75 33.645 75 75s-33.645 75-75 75-75-33.645-75-75 33.645-75 75-75z"/></g></svg>