<!-- Generated by IcoMoon.io -->
<svg version="1.1" xmlns="http://www.w3.org/2000/svg" width="32" height="32" viewBox="0 0 32 32">
<title>smart-tv</title>
<path d="M31.063 2.508h-30.126c-0.518 0-0.937 0.42-0.937 0.937v21.44c0 0.518 0.42 0.937 0.937 0.937h6.837v1.795h-2.308c-0.518 0-0.937 0.42-0.937 0.937s0.42 0.937 0.937 0.937h21.066c0.518 0 0.937-0.42 0.937-0.937s-0.42-0.937-0.937-0.937h-2.308v-1.795h6.837c0.518 0 0.937-0.42 0.937-0.937v-21.44c0-0.518-0.42-0.937-0.937-0.937zM22.351 27.618h-12.702v-1.795h12.702zM30.126 23.948h-28.251v-19.566h28.251z"></path>
<path d="M12.798 14.463c-0.366 0.366-0.366 0.959 0 1.325s0.959 0.366 1.325 0c1.035-1.035 2.719-1.035 3.753 0 0.183 0.183 0.423 0.275 0.663 0.275s0.48-0.091 0.663-0.275c0.366-0.366 0.366-0.959 0-1.325-1.766-1.766-4.638-1.766-6.404 0z"></path>
<path d="M11.713 13.378c2.364-2.364 6.21-2.364 8.574 0 0.183 0.183 0.423 0.275 0.663 0.275s0.48-0.091 0.663-0.275c0.366-0.366 0.366-0.959 0-1.325-3.095-3.095-8.13-3.095-11.224 0-0.366 0.366-0.366 0.959 0 1.325s0.959 0.366 1.325 0z"></path>
<path d="M16.937 17.665c0 0.518-0.42 0.937-0.937 0.937s-0.937-0.42-0.937-0.937c0-0.518 0.42-0.937 0.937-0.937s0.937 0.42 0.937 0.937z"></path>
</svg>
