<!-- Generated by IcoMoon.io -->
<svg version="1.1" xmlns="http://www.w3.org/2000/svg" width="32" height="32" viewBox="0 0 32 32">
<title>electric-car-1</title>
<path d="M28.983 20.399l-4.63-1.223c-1.564-1.441-3.229-2.599-4.953-3.444-2.060-1.010-4.116-1.522-6.112-1.522-3.354-0.014-6.676 0.92-9.539 2.666v-6.887c-0-0.787 0.64-1.427 1.427-1.427h1.511v0.602c0 1.391 1.132 2.523 2.523 2.523h3.415c0.518 0 0.938-0.42 0.938-0.938v-0.313h2.188c0.518 0 0.938-0.42 0.938-0.938s-0.42-0.938-0.938-0.938h-2.188v-1.875h2.188c0.518 0 0.938-0.42 0.938-0.938s-0.42-0.938-0.938-0.938h-2.188v-0.313c0-0.518-0.42-0.938-0.938-0.938h-3.415c-1.391 0-2.523 1.132-2.523 2.523v0.602h-1.511c-1.821 0-3.302 1.481-3.302 3.302v8.201c-0.56 0.448-1.096 0.929-1.605 1.445-0.173 0.175-0.27 0.412-0.27 0.659v7.202c0 0.518 0.42 0.938 0.938 0.938h2.885c0.409 1.444 1.738 2.505 3.311 2.505s2.902-1.061 3.311-2.505h11.088c0.409 1.444 1.738 2.505 3.311 2.505s2.902-1.061 3.311-2.505h2.906c0.518 0 0.938-0.42 0.938-0.938v-3.178c0-1.837-1.241-3.448-3.017-3.918zM8.563 6.085c0-0.357 0.291-0.648 0.648-0.648h2.477v4.375h-2.477c-0.357 0-0.648-0.291-0.648-0.648zM13.289 16.086c1.592 0 4.556 0.43 8.023 2.999h-10.725c-1.15 0-2.27-0.471-3.075-1.292l-0.474-0.483c1.978-0.812 4.065-1.224 6.205-1.224h0.045zM7.134 29.063c-0.864 0-1.567-0.703-1.567-1.567s0.703-1.567 1.567-1.567 1.567 0.703 1.567 1.567-0.703 1.567-1.567 1.567zM24.845 29.063c-0.864 0-1.567-0.703-1.567-1.567s0.703-1.567 1.567-1.567 1.567 0.703 1.567 1.567-0.703 1.567-1.567 1.567zM30.125 26.558h-1.969c-0.409-1.444-1.738-2.505-3.311-2.505s-2.902 1.061-3.311 2.505h-11.088c-0.409-1.444-1.738-2.505-3.311-2.505s-2.902 1.061-3.311 2.505h-1.948v-5.874c1.016-0.983 2.148-1.826 3.38-2.515l0.918 0.937c1.155 1.178 2.764 1.854 4.414 1.854h13.178l4.739 1.252c0.955 0.252 1.621 1.118 1.621 2.105z"></path>
<path d="M16.893 22.835h-1.786c-0.518 0-0.938 0.42-0.938 0.938s0.42 0.938 0.938 0.938h1.786c0.518 0 0.938-0.42 0.938-0.938s-0.42-0.938-0.938-0.938z"></path>
<path d="M24.251 9.694c0.366 0.366 0.96 0.366 1.326 0l2.219-2.219c0.366-0.366 0.366-0.96 0-1.326s-0.96-0.366-1.326 0l-1.556 1.556-0.634-0.633c-0.366-0.366-0.96-0.366-1.326 0s-0.366 0.96 0 1.326z"></path>
<path d="M25.438 14.188c3.619 0 6.563-2.944 6.563-6.563s-2.944-6.563-6.563-6.563-6.563 2.944-6.563 6.563 2.944 6.563 6.563 6.563zM25.438 2.938c2.585 0 4.688 2.103 4.688 4.688s-2.103 4.688-4.688 4.688-4.688-2.103-4.688-4.688 2.103-4.688 4.688-4.688z"></path>
</svg>
