<svg id="Layer_1" enable-background="new 0 0 512 512" height="512" viewBox="0 0 512 512" width="512" xmlns="http://www.w3.org/2000/svg"><g><path d="m256.857 149.594c-.182 0-.363.006-.545.007-.374-.002-.745-.01-1.12-.01-53.833 0-103.254 16.024-142.923 46.34-30.691 23.455-45.844 47.834-48.57 52.482-2.762 4.71-2.746 10.549.041 15.244 1.653 2.784 17.059 27.891 48.671 51.828 39.77 30.113 89.148 46.29 142.972 46.896.491.007.981.019 1.473.019.078 0 .155-.003.233-.003.478.002.953.013 1.431.013 53.832 0 103.254-16.024 142.923-46.34 30.684-23.449 45.842-47.831 48.569-52.481 2.763-4.71 2.748-10.551-.041-15.247-2.697-4.542-17.72-28.391-48.671-51.827-39.436-29.861-88.32-46.024-141.617-46.883-.938-.025-1.881-.038-2.826-.038zm76.409 106.403c0 42.084-34.206 76.327-76.277 76.399-.136-.001-.272-.003-.408-.004-42.006-.15-76.135-34.36-76.135-76.396 0-42.017 34.098-76.214 76.078-76.394.342.002.682.006 1.023.009 41.814.374 75.719 34.489 75.719 76.386zm-238.561-.075c6.132-8.416 17.792-22.409 35.78-36.156 11.764-8.99 24.335-16.479 37.663-22.466-11.178 16.836-17.702 37.017-17.702 58.696 0 21.171 6.218 40.917 16.92 57.51-39.807-18.142-63.043-44.639-72.661-57.584zm324.303.156c-6.135 8.417-17.796 22.412-35.779 36.155-11.766 8.992-24.339 16.482-37.67 22.469 11.182-16.838 17.708-37.023 17.708-58.706 0-21.166-6.214-40.906-16.911-57.497 39.798 18.143 63.033 44.635 72.652 57.579z"/><path d="m208.411 255.997c0 26.712 21.733 48.443 48.446 48.443s48.445-21.731 48.445-48.443c0-26.711-21.732-48.443-48.445-48.443s-48.446 21.731-48.446 48.443zm66.891 0c0 10.17-8.274 18.443-18.445 18.443s-18.446-8.273-18.446-18.443c0-10.169 8.275-18.443 18.446-18.443s18.445 8.273 18.445 18.443z"/><path d="m15 160.487c8.284 0 15-6.716 15-15v-115.487h115.487c8.284 0 15-6.716 15-15s-6.716-15-15-15h-130.487c-8.284 0-15 6.716-15 15v130.487c0 8.284 6.716 15 15 15z"/><path d="m497 0h-130.487c-8.284 0-15 6.716-15 15s6.716 15 15 15h115.487v115.487c0 8.284 6.716 15 15 15s15-6.716 15-15v-130.487c0-8.284-6.716-15-15-15z"/><path d="m497 351.513c-8.284 0-15 6.716-15 15v115.487h-115.487c-8.284 0-15 6.716-15 15s6.716 15 15 15h130.487c8.284 0 15-6.716 15-15v-130.487c0-8.284-6.716-15-15-15z"/><path d="m145.488 482h-115.488v-115.487c0-8.284-6.716-15-15-15s-15 6.716-15 15v130.487c0 8.284 6.716 15 15 15h130.487c8.284 0 15-6.716 15-15s-6.715-15-14.999-15z"/><path d="m256 98.099c8.285 0 15-6.716 15-15v-68.099c0-8.284-6.716-15-15-15s-15 6.716-15 15v68.099c0 8.284 6.716 15 15 15z"/><path d="m256 413.901c-8.284 0-15 6.716-15 15v68.099c0 8.284 6.716 15 15 15 8.285 0 15-6.716 15-15v-68.099c.001-8.284-6.715-15-15-15z"/></g></svg>