<svg id="Capa_1" enable-background="new 0 0 512 512" height="512" viewBox="0 0 512 512" width="512" xmlns="http://www.w3.org/2000/svg"><path d="m451.849 366.282-64.371-347.753h-80.426v30h55.469l43.065 232.646-53.575 98.251h-249.57c-10.749-8.293-24.202-13.244-38.797-13.244-35.094.001-63.644 28.551-63.644 63.644 0 35.094 28.55 63.645 63.644 63.645 19.181 0 36.393-8.541 48.071-22.006h224.279l78.251-143.508 8.108 43.803c-22.162 9.964-37.641 32.235-37.641 58.066 0 35.094 28.551 63.645 63.644 63.645s63.644-28.551 63.644-63.645c0-33.92-26.677-61.723-60.151-63.544zm-388.205 97.189c-18.552 0-33.644-15.093-33.644-33.645 0-18.551 15.092-33.644 33.644-33.644s33.644 15.093 33.644 33.644c-.001 18.552-15.093 33.645-33.644 33.645zm62.558-22.006c.701-3.776 1.085-7.662 1.085-11.639 0-7.135-1.198-13.991-3.373-20.399h211.737l-17.47 32.038zm322.154 22.006c-18.551 0-33.644-15.093-33.644-33.645 0-18.551 15.093-33.644 33.644-33.644s33.644 15.093 33.644 33.644c0 18.552-15.093 33.645-33.644 33.645z"/></svg>