<!-- Generated by IcoMoon.io -->
<svg version="1.1" xmlns="http://www.w3.org/2000/svg" width="32" height="32" viewBox="0 0 32 32">
<title>eye-scanner</title>
<path d="M16.054 9.35c-0.011 0-0.023 0-0.034 0-0.023-0-0.047-0.001-0.070-0.001-3.365 0-6.453 1.002-8.933 2.896-1.918 1.466-2.865 2.99-3.036 3.28-0.173 0.294-0.172 0.659 0.003 0.953 0.103 0.174 1.066 1.743 3.042 3.239 2.486 1.882 5.572 2.893 8.936 2.931 0.031 0 0.061 0.001 0.092 0.001 0.005 0 0.010-0 0.015-0 0.030 0 0.060 0.001 0.089 0.001 3.364 0 6.453-1.002 8.933-2.896 1.918-1.466 2.865-2.989 3.036-3.28 0.173-0.294 0.172-0.659-0.003-0.953-0.169-0.284-1.108-1.774-3.042-3.239-2.465-1.866-5.52-2.877-8.851-2.93-0.059-0.002-0.118-0.002-0.177-0.002zM20.829 16c0 2.63-2.138 4.77-4.767 4.775-0.009-0-0.017-0-0.026-0-2.625-0.009-4.758-2.148-4.758-4.775 0-2.626 2.131-4.763 4.755-4.775 0.021 0 0.043 0 0.064 0.001 2.613 0.023 4.732 2.156 4.732 4.774zM5.919 15.995c0.383-0.526 1.112-1.401 2.236-2.26 0.735-0.562 1.521-1.030 2.354-1.404-0.699 1.052-1.106 2.314-1.106 3.668 0 1.323 0.389 2.557 1.058 3.594-2.488-1.134-3.94-2.79-4.541-3.599zM26.188 16.005c-0.383 0.526-1.112 1.401-2.236 2.26-0.735 0.562-1.521 1.030-2.354 1.404 0.699-1.052 1.107-2.314 1.107-3.669 0-1.323-0.388-2.557-1.057-3.594 2.487 1.134 3.94 2.79 4.541 3.599z"></path>
<path d="M13.026 16c0 1.669 1.358 3.028 3.028 3.028s3.028-1.358 3.028-3.028c0-1.669-1.358-3.028-3.028-3.028s-3.028 1.358-3.028 3.028zM17.206 16c0 0.636-0.517 1.153-1.153 1.153s-1.153-0.517-1.153-1.153c0-0.636 0.517-1.153 1.153-1.153s1.153 0.517 1.153 1.153z"></path>
<path d="M0.938 10.030c0.518 0 0.938-0.42 0.938-0.938v-7.218h7.218c0.518 0 0.938-0.42 0.938-0.938s-0.42-0.938-0.938-0.938h-8.155c-0.518 0-0.938 0.42-0.938 0.938v8.155c0 0.518 0.42 0.938 0.938 0.938z"></path>
<path d="M31.063 0h-8.155c-0.518 0-0.938 0.42-0.938 0.938s0.42 0.938 0.938 0.938h7.218v7.218c0 0.518 0.42 0.938 0.938 0.938s0.938-0.42 0.938-0.938v-8.155c0-0.518-0.42-0.938-0.938-0.938z"></path>
<path d="M31.063 21.97c-0.518 0-0.938 0.42-0.938 0.938v7.218h-7.218c-0.518 0-0.938 0.42-0.938 0.938s0.42 0.938 0.938 0.938h8.155c0.518 0 0.938-0.42 0.938-0.938v-8.155c0-0.518-0.42-0.938-0.938-0.938z"></path>
<path d="M9.093 30.125h-7.218v-7.218c0-0.518-0.42-0.938-0.938-0.938s-0.938 0.42-0.938 0.938v8.155c0 0.518 0.42 0.938 0.938 0.938h8.155c0.518 0 0.938-0.42 0.938-0.938s-0.42-0.938-0.937-0.938z"></path>
<path d="M16 6.131c0.518 0 0.938-0.42 0.938-0.938v-4.256c0-0.518-0.42-0.938-0.938-0.938s-0.938 0.42-0.938 0.938v4.256c0 0.518 0.42 0.938 0.938 0.938z"></path>
<path d="M16 25.869c-0.518 0-0.938 0.42-0.938 0.938v4.256c0 0.518 0.42 0.938 0.938 0.938s0.938-0.42 0.938-0.938v-4.256c0-0.518-0.42-0.938-0.938-0.938z"></path>
</svg>
