<!-- Generated by IcoMoon.io -->
<svg version="1.1" xmlns="http://www.w3.org/2000/svg" width="32" height="32" viewBox="0 0 32 32">
<title>electric-scooter</title>
<path d="M28.241 22.893l-4.023-21.735h-5.027v1.875h3.467l2.692 14.54-3.348 6.141h-15.598c-0.672-0.518-1.513-0.828-2.425-0.828-2.193 0-3.978 1.784-3.978 3.978s1.784 3.978 3.978 3.978c1.199 0 2.275-0.534 3.004-1.375h14.017l4.891-8.969 0.507 2.738c-1.385 0.623-2.353 2.015-2.353 3.629 0 2.193 1.784 3.978 3.978 3.978s3.978-1.784 3.978-3.978c0-2.12-1.667-3.858-3.759-3.971zM3.978 28.967c-1.159 0-2.103-0.943-2.103-2.103s0.943-2.103 2.103-2.103 2.103 0.943 2.103 2.103c-0 1.16-0.943 2.103-2.103 2.103zM7.888 27.592c0.044-0.236 0.068-0.479 0.068-0.727 0-0.446-0.075-0.874-0.211-1.275h13.234l-1.092 2.002zM28.022 28.967c-1.159 0-2.103-0.943-2.103-2.103s0.943-2.103 2.103-2.103 2.103 0.943 2.103 2.103c0 1.16-0.943 2.103-2.103 2.103z"></path>
</svg>
