<svg id="Layer_1" enable-background="new 0 0 512 512" height="512" viewBox="0 0 512 512" width="512" xmlns="http://www.w3.org/2000/svg"><g><path d="m185.828 343.043c44.972 0 81.56-36.588 81.56-81.56s-36.588-81.56-81.56-81.56-81.56 36.588-81.56 81.56 36.588 81.56 81.56 81.56zm0-133.119c28.43 0 51.56 23.13 51.56 51.56s-23.13 51.56-51.56 51.56-51.56-23.13-51.56-51.56 23.13-51.56 51.56-51.56z"/><path d="m379.037 227.42c-3.563 0-7.038.385-10.391 1.101-16.004-87.263-92.528-152.865-182.818-152.865-102.466-.001-185.828 83.362-185.828 185.827 0 58.988 27.632 111.64 70.627 145.706v89.811c0 8.284 6.716 15 15 15h199.62c8.284 0 15-6.716 15-15v-20.629h79.073c8.284 0 15-6.716 15-15v-136.912c19.963-6.464 34.442-25.225 34.442-47.313.001-27.418-22.306-49.726-49.725-49.726zm-349.037 34.063c0-85.924 69.904-155.828 155.828-155.828 79.612 0 146.464 60.868 154.977 139.735-7.172 8.62-11.494 19.692-11.494 31.756 0 9.239 2.541 17.892 6.949 25.312-8.408 31.493-26.827 59.871-52.344 80.442-27.925 22.512-61.843 34.411-98.087 34.411-85.925.001-155.829-69.904-155.829-155.828zm70.627 220.517v-55.405c25.537 13.231 54.51 20.717 85.201 20.717 29.484 0 58.47-7.005 84.419-20.111.001 13.796-.014 41.272 0 54.8h-169.62zm199.62-35.629v-38.147c.836-.65 1.671-1.302 2.496-1.968 26.819-21.62 47.065-50.474 58.382-82.735 1.05.407 2.112.791 3.196 1.127v121.723zm78.79-149.499c-10.877 0-19.727-8.849-19.727-19.726s8.85-19.727 19.727-19.727 19.726 8.85 19.726 19.727-8.849 19.726-19.726 19.726z"/><path d="m384.961 54.557c-8.284 0-15 6.716-15 15s6.716 15 15 15c23.425 0 42.482 19.058 42.482 42.482 0 8.284 6.716 15 15 15s15-6.716 15-15c0-39.967-32.515-72.482-72.482-72.482z"/><path d="m384.961 0c-8.284 0-15 6.716-15 15s6.716 15 15 15c53.508 0 97.039 43.531 97.039 97.039 0 8.284 6.716 15 15 15s15-6.716 15-15c0-70.05-56.989-127.039-127.039-127.039z"/><circle cx="384.961" cy="127.039" r="15"/></g></svg>