<!-- Generated by IcoMoon.io -->
<svg version="1.1" xmlns="http://www.w3.org/2000/svg" width="32" height="32" viewBox="0 0 32 32">
<title>motorcycle</title>
<path d="M27.313 17.875c-0.769 0-1.495 0.187-2.136 0.517l-1.198-1.497c0.562-0.332 1.174-0.581 1.816-0.725 0.527-0.118 1.061-0.176 1.585-0.17 0.009 0 0.018 0 0.027 0 1.394 0 2.718-1.118 2.718-2.923 0-4.599-3.739-8.328-8.315-8.328h-1.060c-0.518 0-0.938 0.42-0.938 0.938s0.42 0.938 0.938 0.938h1.060c0.276 0 0.548 0.018 0.815 0.051v1.843c-0.548 0.050-1.076 0.194-1.563 0.423-1.243-1.447-3.109-2.317-5.062-2.317-2.216 0-4.266 1.126-5.47 2.937l-1.548-0.929c-0.146-0.087-0.313-0.134-0.482-0.134h-7.563c-0.518 0-0.938 0.42-0.938 0.938 0 2.585 2.103 4.688 4.688 4.688 1.792 0 1.366-0.025 2.105 0.091 3.646 0.571 6.395 3.757 6.395 7.409h-1.938c0-3.102-2.523-5.625-5.625-5.625s-5.625 2.523-5.625 5.625 2.523 5.625 5.625 5.625c2.444 0 4.529-1.567 5.303-3.75h8.884c0.518 0 0.938-0.42 0.938-0.938 0-0.523 0.062-1.055 0.185-1.58 0.256-1.095 0.817-2.1 1.582-2.915l1.197 1.496c-0.679 0.813-1.088 1.859-1.088 2.999 0 2.585 2.103 4.688 4.688 4.688s4.688-2.103 4.688-4.688-2.103-4.688-4.688-4.688zM5.625 25.375c-2.068 0-3.75-1.682-3.75-3.75s1.682-3.75 3.75-3.75 3.75 1.682 3.75 3.75h-2.813c-0.517 0-0.938-0.421-0.938-0.938s-0.42-0.938-0.938-0.938-0.938 0.42-0.938 0.938c0 1.551 1.262 2.8 2.813 2.8h2.308c-0.65 1.12-1.861 1.887-3.246 1.887zM16 8.5c1.363 0 2.665 0.585 3.554 1.564-0.144 0.162-0.279 0.335-0.401 0.518l-1.132 1.658c-2.070-0.076-4.091-0.665-5.881-1.714 0.866-1.252 2.306-2.027 3.86-2.027zM7.083 12.376c-0.91-0.143-0.397-0.113-2.395-0.113-1.222 0-2.265-0.796-2.652-1.887h6.205l2.829 1.697c1.756 1.054 3.712 1.718 5.733 1.955l-0.082 0.12c-1.404 0.119-2.696 0.727-3.675 1.709-1.481-1.872-3.619-3.113-5.963-3.48zM18.926 21.625h-3.864c0-1.439-0.338-2.85-0.974-4.127 0.764-0.946 1.906-1.498 3.142-1.498 0.31 0 0.6-0.153 0.774-0.409l2.699-3.955c0.002-0.003 0.004-0.006 0.006-0.009 0.523-0.784 1.398-1.252 2.34-1.252h0.512c0.518 0 0.938-0.42 0.938-0.938v-2.222c2.165 1.001 3.75 3.177 3.75 5.977 0 0.485-0.369 0.937-0.851 0.932-0.67-0.007-1.346 0.066-2.014 0.215-1.506 0.338-2.896 1.104-4.021 2.217-1.365 1.352-2.222 3.080-2.438 5.068zM27.313 25.375c-1.551 0-2.813-1.262-2.813-2.813 0-0.544 0.156-1.053 0.425-1.484l1.656 2.070c0.324 0.405 0.914 0.47 1.318 0.146s0.47-0.914 0.146-1.318l-1.656-2.070c0.29-0.101 0.6-0.157 0.924-0.157 1.551 0 2.813 1.262 2.813 2.813s-1.262 2.813-2.813 2.813z"></path>
</svg>
