<!-- Generated by IcoMoon.io -->
<svg version="1.1" xmlns="http://www.w3.org/2000/svg" width="32" height="32" viewBox="0 0 32 32">
<title>alarm-1</title>
<path d="M11.614 21.44c2.811 0 5.098-2.287 5.098-5.098s-2.287-5.098-5.098-5.098-5.098 2.287-5.098 5.098 2.287 5.098 5.098 5.098zM11.614 13.12c1.777 0 3.223 1.446 3.223 3.223s-1.446 3.223-3.223 3.223-3.223-1.446-3.223-3.223 1.446-3.223 3.223-3.223z"></path>
<path d="M23.69 14.214c-0.223 0-0.44 0.024-0.649 0.069-1-5.454-5.783-9.554-11.426-9.554-6.404-0-11.614 5.21-11.614 11.614 0 3.687 1.727 6.977 4.414 9.107v5.613c0 0.518 0.42 0.938 0.938 0.938h12.476c0.518 0 0.938-0.42 0.938-0.938v-1.289h4.942c0.518 0 0.938-0.42 0.938-0.938v-8.557c1.248-0.404 2.153-1.577 2.153-2.957 0-1.714-1.394-3.108-3.108-3.108zM1.875 16.343c0-5.37 4.369-9.739 9.739-9.739 4.976 0 9.154 3.804 9.686 8.733-0.448 0.539-0.718 1.231-0.718 1.985 0 0.577 0.159 1.118 0.434 1.582-0.526 1.968-1.677 3.742-3.271 5.028-1.745 1.407-3.865 2.151-6.13 2.151-5.37 0-9.739-4.369-9.739-9.739zM6.289 30.125v-3.463c1.596 0.827 3.407 1.295 5.325 1.295 1.843 0 3.654-0.438 5.276-1.257 0 0.862-0.001 2.579 0 3.425h-10.601zM18.765 27.898v-2.384c0.052-0.041 0.104-0.081 0.156-0.123 1.676-1.351 2.942-3.155 3.649-5.171 0.066 0.025 0.132 0.049 0.2 0.070v7.608zM23.69 18.555c-0.68 0-1.233-0.553-1.233-1.233s0.553-1.233 1.233-1.233 1.233 0.553 1.233 1.233-0.553 1.233-1.233 1.233z"></path>
<path d="M24.060 3.41c-0.518 0-0.938 0.42-0.938 0.938s0.42 0.938 0.938 0.938c1.464 0 2.655 1.191 2.655 2.655 0 0.518 0.42 0.937 0.938 0.937s0.938-0.42 0.938-0.938c0-2.498-2.032-4.53-4.53-4.53z"></path>
<path d="M24.060 0c-0.518 0-0.938 0.42-0.938 0.938s0.42 0.938 0.938 0.938c3.344 0 6.065 2.721 6.065 6.065 0 0.518 0.42 0.937 0.938 0.937s0.938-0.42 0.938-0.938c0-4.378-3.562-7.94-7.94-7.94z"></path>
<path d="M24.998 7.94c0 0.518-0.42 0.937-0.938 0.937s-0.938-0.42-0.938-0.938c0-0.518 0.42-0.938 0.938-0.938s0.938 0.42 0.938 0.938z"></path>
</svg>
