<!-- Generated by IcoMoon.io -->
<svg version="1.1" xmlns="http://www.w3.org/2000/svg" width="32" height="32" viewBox="0 0 32 32">
<title>swimming-pool</title>
<path d="M2.196 22.643c2.224-2.224 5.841-2.224 8.065-0 0 0 0 0 0.001 0 3.205 3.205 8.393 3.206 11.6 0 0-0 0-0 0.001-0.001 2.223-2.223 5.841-2.223 8.064 0 0.488 0.488 1.28 0.488 1.768 0s0.488-1.28 0-1.768c-2.557-2.557-6.396-3.069-9.467-1.538v-15.629c0-0.666 0.542-1.208 1.208-1.208s1.208 0.542 1.208 1.208c0 0.69 0.56 1.25 1.25 1.25s1.25-0.56 1.25-1.25c0-2.044-1.663-3.708-3.708-3.708s-3.708 1.664-3.708 3.708v3.667h-7.333v-3.667c0-0.666 0.542-1.208 1.208-1.208s1.208 0.542 1.208 1.208c0 0.69 0.56 1.25 1.25 1.25s1.25-0.56 1.25-1.25c0-2.044-1.663-3.708-3.708-3.708s-3.708 1.664-3.708 3.708v15.629c-3.071-1.531-6.91-1.019-9.467 1.538-0.488 0.488-0.488 1.28 0 1.768s1.28 0.488 1.768 0zM12.395 21.209v-3.96h7.333v3.96c-2.083 1.755-5.186 1.808-7.333 0zM19.728 9.875v4.875h-7.333v-4.875zM31.695 27.828c0.488 0.488 0.488 1.28 0 1.768s-1.28 0.488-1.768 0c-2.223-2.223-5.842-2.223-8.065 0-3.206 3.206-8.395 3.206-11.6 0-2.224-2.223-5.842-2.223-8.065 0-0.488 0.488-1.28 0.488-1.768 0s-0.488-1.28 0-1.768c3.198-3.198 8.402-3.198 11.6 0 2.229 2.229 5.837 2.229 8.065 0 3.198-3.198 8.402-3.198 11.6 0z"></path>
</svg>
