<!-- Generated by IcoMoon.io -->
<svg version="1.1" xmlns="http://www.w3.org/2000/svg" width="32" height="32" viewBox="0 0 32 32">
<title>smart-light-1</title>
<path d="M25.864 23.275l-1.578-12.225c-0.060-0.468-0.459-0.818-0.93-0.818h-14.816c-0.474 0-0.874 0.354-0.931 0.826l-1.473 12.225c-0.032 0.266 0.051 0.534 0.229 0.734s0.433 0.316 0.702 0.316h7.941v5.792h-4.029c-0.518 0-0.938 0.42-0.938 0.938s0.42 0.938 0.938 0.938h9.933c0.518 0 0.938-0.42 0.938-0.938s-0.42-0.938-0.938-0.938h-4.029v-5.792h8.051c0.27 0 0.526-0.116 0.704-0.319s0.26-0.472 0.226-0.739zM9.37 12.107h1.957l-0.572 10.35h-2.631zM12.633 22.457l0.572-10.35h1.801v10.35zM16.883 12.107h1.833l0.616 10.35h-2.449zM21.21 22.457l-0.616-10.35h1.937l1.336 10.35z"></path>
<path d="M18.402 6.335c0.24 0 0.48-0.092 0.663-0.275 0.366-0.366 0.366-0.96 0-1.326-1.767-1.767-4.641-1.767-6.408 0-0.366 0.366-0.366 0.96 0 1.326s0.96 0.366 1.326 0c1.036-1.035 2.72-1.035 3.756 0 0.183 0.183 0.423 0.275 0.663 0.275z"></path>
<path d="M11.572 3.648c2.365-2.365 6.214-2.365 8.579 0 0.183 0.183 0.423 0.275 0.663 0.275s0.48-0.092 0.663-0.275c0.366-0.366 0.366-0.96 0-1.326-3.096-3.096-8.135-3.096-11.231 0-0.366 0.366-0.366 0.96 0 1.326s0.96 0.366 1.326 0z"></path>
<path d="M16.799 7.938c0 0.518-0.42 0.938-0.938 0.938s-0.938-0.42-0.938-0.938c0-0.518 0.42-0.938 0.938-0.938s0.938 0.42 0.938 0.938z"></path>
</svg>
