<svg id="Layer_1" enable-background="new 0 0 511.898 511.898" height="512" viewBox="0 0 511.898 511.898" width="512" xmlns="http://www.w3.org/2000/svg"><g><path d="m413.736 372.324-25.248-195.566c-.966-7.48-7.335-13.08-14.877-13.08h-237.015c-7.59 0-13.984 5.67-14.892 13.206l-23.558 195.567c-.513 4.26.823 8.536 3.669 11.746 2.847 3.21 6.932 5.048 11.223 5.048h73.198.018.01 53.802v92.654h-64.445c-8.284 0-15 6.716-15 15s6.716 15 15 15h158.89c8.284 0 15-6.716 15-15s-6.716-15-15-15h-64.445v-92.654h55.076.01.016 73.691c4.313 0 8.417-1.856 11.266-5.096 2.848-3.239 4.163-7.547 3.611-11.825zm-263.838-178.646h31.305l-9.156 165.566h-42.093zm52.195 165.567 9.156-165.566h28.817v165.566zm67.973-165.567h29.32l9.86 165.566h-39.18zm69.233 165.567-9.86-165.566h30.984l21.375 165.566z"/><path d="m294.373 101.334c3.839 0 7.678-1.464 10.606-4.394 5.858-5.858 5.858-15.355 0-21.213-28.26-28.26-74.243-28.262-102.505 0-5.858 5.858-5.858 15.355 0 21.213 5.857 5.858 15.355 5.858 21.213 0 16.565-16.564 43.516-16.563 60.079 0 2.929 2.93 6.768 4.394 10.607 4.394z"/><path d="m185.11 58.363c37.836-37.835 99.398-37.835 137.235 0 2.929 2.929 6.768 4.394 10.606 4.394s7.678-1.464 10.606-4.394c5.858-5.858 5.858-15.355 0-21.213-49.533-49.533-130.128-49.533-179.661 0-5.858 5.858-5.858 15.355 0 21.213s15.356 5.858 21.214 0z"/><circle cx="253.727" cy="126.98" r="15"/></g></svg>