<!-- Generated by IcoMoon.io -->
<svg version="1.1" xmlns="http://www.w3.org/2000/svg" width="32" height="32" viewBox="0 0 32 32">
<title>gardening-tools</title>
<path d="M12.252 0c-0.518 0-0.938 0.42-0.938 0.938v11.938c0 0.172-0.14 0.313-0.313 0.313h-2.5v-12.25c0-0.518-0.42-0.938-0.938-0.938s-0.938 0.42-0.938 0.938v12.25h-2.5c-0.172 0-0.313-0.14-0.313-0.313v-11.938c0-0.518-0.42-0.938-0.938-0.938s-0.938 0.42-0.938 0.938v11.938c0 1.206 0.981 2.188 2.188 2.188h2.5v1.938h-0.938c-0.518 0-0.938 0.42-0.938 0.938v9.091c-0.020 0.088-1.070 1.658 0.032 3.43 1.279 2.055 4.274 2.059 5.555-0.001 1.082-1.739 0.046-3.366 0.031-3.429v-9.090c0-0.518-0.42-0.938-0.938-0.938h-0.931v-1.938h2.5c1.206 0 2.188-0.981 2.188-2.188v-11.938c-0-0.518-0.42-0.938-0.938-0.938zM8.814 28.111c0.218 0.442 0.193 0.936-0.067 1.355-0.543 0.873-1.82 0.887-2.371 0-0.261-0.418-0.285-0.912-0.068-1.354 0.163-0.37 0.319-0.536 0.319-0.866v-8.371h1.869v8.371c-0 0.331 0.156 0.497 0.319 0.865z"></path>
<path d="M24.025 0.164c-0.318-0.218-0.738-0.218-1.056-0.002-3.775 2.567-6.029 6.825-6.029 11.39v5.080c0 1.206 0.981 2.188 2.188 2.188h3.438v1.93h-0.941c-0.518 0-0.938 0.42-0.938 0.938v5.345c-0.020 0.089-1.068 1.658 0.035 3.427 1.282 2.056 4.274 2.053 5.552-0.003 1.079-1.736 0.046-3.366 0.032-3.425v-5.344c0-0.518-0.42-0.938-0.938-0.938h-0.928v-1.93h3.434c1.206 0 2.188-0.981 2.188-2.188v-5.074c0-4.569-2.257-8.83-6.036-11.395zM24.681 29.467c-0.544 0.874-1.818 0.885-2.369 0.001-0.534-0.858 0.082-1.567 0.153-1.805 0.169-0.344 0.063-0.19 0.096-5.038h1.869c0.033 4.842-0.074 4.693 0.097 5.040 0.069 0.23 0.687 0.945 0.154 1.802zM28.186 16.633c0 0.172-0.14 0.313-0.313 0.313h-3.434v-4.693c0-0.518-0.42-0.938-0.938-0.938s-0.938 0.42-0.938 0.938v4.693h-3.438c-0.172 0-0.313-0.14-0.313-0.313v-5.081c0-3.727 1.738-7.216 4.682-9.46 2.949 2.244 4.69 5.736 4.69 9.467z"></path>
</svg>
