<!-- Generated by IcoMoon.io -->
<svg version="1.1" xmlns="http://www.w3.org/2000/svg" width="32" height="32" viewBox="0 0 32 32">
<title>smart-home</title>
<path d="M31.063 30.102h-2.713v-13.709c0.189 0.038 0.382 0.058 0.575 0.058 0.441 0 0.885-0.101 1.299-0.306 1.003-0.496 1.625-1.499 1.625-2.618 0-0.899-0.424-1.761-1.134-2.31l-12.424-10.405c-0.011-0.009-0.023-0.019-0.035-0.028-1.326-1.008-3.184-1.014-4.517-0.015-0.012 0.009-0.024 0.018-0.035 0.028l-12.383 10.237c-0.735 0.561-1.174 1.445-1.174 2.37 0 1.141 0.636 2.165 1.659 2.671 0.586 0.29 1.229 0.375 1.843 0.266v13.761h-2.713c-0.517 0-0.937 0.419-0.937 0.937s0.419 0.937 0.937 0.937h30.127c0.517 0 0.937-0.419 0.937-0.937s-0.419-0.937-0.937-0.937zM2.638 14.396c-0.386-0.191-0.616-0.562-0.616-0.992 0-0.347 0.166-0.678 0.443-0.886 0.012-0.009 0.024-0.018 0.035-0.028l12.379-10.234c0.661-0.484 1.571-0.481 2.228 0.008l12.42 10.402c0.011 0.009 0.023 0.019 0.035 0.028 0.259 0.197 0.414 0.509 0.414 0.834 0 0.407-0.218 0.758-0.583 0.939-0.363 0.18-0.772 0.141-1.095-0.103l-11.719-9.209c-0.34-0.244-0.863-0.232-1.157-0l-11.625 9.133c-0.341 0.258-0.774 0.299-1.158 0.109zM5.523 30.102v-14.785l10.477-8.235 10.477 8.235v14.785z"></path>
<path d="M21.542 20.107c0.517 0 0.937-0.419 0.937-0.937s-0.419-0.937-0.937-0.937h-1.348v-0.906c0-0.517-0.419-0.937-0.937-0.937h-0.997v-1.355c0-0.517-0.419-0.937-0.937-0.937s-0.937 0.419-0.937 0.937v1.355h-1.070v-1.355c0-0.517-0.419-0.937-0.937-0.937s-0.937 0.419-0.937 0.937v1.355h-0.815c-0.517 0-0.937 0.419-0.937 0.937v0.906h-1.362c-0.517 0-0.937 0.419-0.937 0.937s0.419 0.937 0.937 0.937h1.362v1.070h-1.362c-0.517 0-0.937 0.419-0.937 0.937s0.419 0.937 0.937 0.937h1.362v0.906c0 0.517 0.419 0.937 0.937 0.937h0.815v1.355c0 0.517 0.419 0.937 0.937 0.937s0.937-0.419 0.937-0.937v-1.355h1.070v1.355c0 0.517 0.419 0.937 0.937 0.937s0.937-0.419 0.937-0.937v-1.355h0.997c0.517 0 0.937-0.419 0.937-0.937v-0.906h1.348c0.517 0 0.937-0.419 0.937-0.937s-0.419-0.937-0.937-0.937h-1.348v-1.070zM13.566 23.019v-4.755h4.755v0.797c-0.004 0.036-0.007 0.072-0.007 0.108s0.003 0.073 0.007 0.108v2.726c-0.004 0.036-0.007 0.072-0.007 0.108s0.003 0.073 0.007 0.108v0.797h-4.755z"></path>
</svg>
