<svg id="Layer_1" enable-background="new 0 0 512.465 512.465" height="512" viewBox="0 0 512.465 512.465" width="512" xmlns="http://www.w3.org/2000/svg"><g><path d="m497.465 482.068h-43.447v-219.539c3.03.615 6.112.928 9.203.928 7.059 0 14.166-1.617 20.799-4.898 16.055-7.944 26.028-24.007 26.028-41.92 0-14.396-6.782-28.198-18.16-37l-198.959-166.624c-.182-.151-.366-.3-.555-.442-21.243-16.144-50.989-16.242-72.341-.244-.191.144-.378.291-.563.442l-198.3 163.933c-11.776 8.979-18.795 23.138-18.795 37.958 0 18.28 10.178 34.672 26.563 42.778 9.38 4.642 19.684 6.012 29.509 4.259v220.369h-43.447c-8.284 0-15 6.716-15 15s6.716 15 15 15h482.465c8.284 0 15-6.716 15-15s-6.716-15-15-15zm-455.224-251.516c-6.178-3.057-9.866-8.997-9.866-15.89 0-5.553 2.652-10.855 7.097-14.186.19-.144.378-.291.563-.442l198.247-163.891c10.578-7.748 25.158-7.702 35.686.123l198.903 166.577c.182.151.366.299.554.442 4.147 3.151 6.623 8.144 6.623 13.353 0 6.521-3.489 12.14-9.333 15.031-5.817 2.879-12.367 2.263-17.539-1.645l-187.674-147.471c-5.443-3.906-13.82-3.708-18.536-.003l-186.176 146.257c-5.469 4.135-12.395 4.791-18.549 1.745zm46.205 251.516v-236.771l167.786-131.873 167.785 131.873v236.771z"/><path d="m344.983 322.004c8.284 0 15-6.716 15-15s-6.716-15-15-15h-21.59v-14.508c0-8.284-6.716-15-15-15h-15.967v-21.697c0-8.284-6.716-15-15-15s-15 6.716-15 15v21.697h-17.131v-21.697c0-8.284-6.716-15-15-15s-15 6.716-15 15v21.697h-13.05c-8.284 0-15 6.716-15 15v14.508h-21.805c-8.284 0-15 6.716-15 15s6.716 15 15 15h21.806v17.132h-21.806c-8.284 0-15 6.716-15 15s6.716 15 15 15h21.806v14.508c0 8.284 6.716 15 15 15h13.05v21.697c0 8.284 6.716 15 15 15s15-6.716 15-15v-21.697h17.131v21.697c0 8.284 6.716 15 15 15s15-6.716 15-15v-21.697h15.967c8.284 0 15-6.716 15-15v-14.508h21.59c8.284 0 15-6.716 15-15s-6.716-15-15-15h-21.59v-17.132zm-127.737 46.639v-76.147h76.147v12.771c-.066.571-.108 1.148-.108 1.736s.042 1.166.108 1.736v43.659c-.066.571-.108 1.148-.108 1.736s.042 1.166.108 1.736v12.771h-76.147z"/></g></svg>