<svg id="Capa_1" enable-background="new 0 0 512 512" height="512" viewBox="0 0 512 512" width="512" xmlns="http://www.w3.org/2000/svg"><g><path d="m196.026 0c-8.284 0-15 6.716-15 15v191c0 2.757-2.243 5-5 5h-40v-196c0-8.284-6.716-15-15-15s-15 6.716-15 15v196h-40c-2.757 0-5-2.243-5-5v-191c0-8.284-6.716-15-15-15s-15 6.716-15 15v191c0 19.299 15.701 35 35 35h40v31h-15c-8.284 0-15 6.716-15 15v145.449c-.324 1.402-17.127 26.535.518 54.873 20.468 32.873 68.377 32.939 88.88-.015 17.312-27.828.735-53.858.502-54.864v-145.443c0-8.284-6.716-15-15-15h-14.899v-31h40c19.299 0 35-15.701 35-35v-191c-.001-8.284-6.717-15-15.001-15zm-55.002 449.782c3.485 7.077 3.095 14.979-1.073 21.677-8.692 13.971-29.113 14.186-37.94.007-4.168-6.694-4.563-14.593-1.083-21.67 2.609-5.917 5.099-8.581 5.099-13.858v-133.938h29.899v133.938c-.001 5.295 2.494 7.949 5.098 13.844z"/><path d="m384.396 2.62c-5.094-3.485-11.801-3.494-16.904-.024-60.404 41.069-96.466 109.196-96.466 182.241v81.288c0 19.299 15.701 35 35 35h55v30.875h-15.051c-8.284 0-15 6.716-15 15v85.52c-.326 1.418-17.087 26.529.554 54.833 20.505 32.899 68.386 32.842 88.838-.044 17.271-27.772.73-53.849.509-54.805v-85.504c0-8.284-6.716-15-15-15h-14.85v-30.875h54.949c19.299 0 35-15.701 35-35v-81.187c0-73.112-36.116-141.275-96.579-182.318zm10.495 468.845c-8.697 13.987-29.093 14.154-37.902.02-8.551-13.722 1.32-25.079 2.453-28.879 2.703-5.508 1.015-3.046 1.533-80.605h29.9c.522 77.477-1.182 75.095 1.546 80.633 1.101 3.672 10.998 15.12 2.47 28.831zm56.084-205.34c0 2.757-2.243 5-5 5h-54.949v-75.094c0-8.284-6.716-15-15-15s-15 6.716-15 15v75.094h-55c-2.757 0-5-2.243-5-5v-81.288c0-59.627 27.816-115.461 74.907-151.363 47.177 35.899 75.042 91.771 75.042 151.465z"/></g></svg>