<!-- Generated by IcoMoon.io -->
<svg version="1.1" xmlns="http://www.w3.org/2000/svg" width="32" height="32" viewBox="0 0 32 32">
<title>humidity</title>
<path d="M29.371 15.634l-8.603-15.158c-0.165-0.29-0.471-0.472-0.805-0.476-0.335-0.004-0.645 0.169-0.818 0.455l-4.989 8.271-4.682-8.249c-0.165-0.29-0.471-0.472-0.805-0.476-0.332-0.006-0.645 0.168-0.818 0.454l-5.632 9.331c-0.63 1.043-1.049 2.030-1.049 3.456 0 4.020 3.271 7.291 7.291 7.291 0.002 0 0.005-0 0.007-0-0.019 0.265-0.029 0.527-0.029 0.777 0 2.972 1.173 5.702 3.303 7.688 2.078 1.937 4.881 3.004 7.893 3.004 6.278 0 11.196-4.761 11.196-10.84 0-1.934-0.505-3.845-1.459-5.526zM8.461 18.65c-2.983 0-5.41-2.427-5.41-5.41 0-0.882 0.204-1.532 0.778-2.484l4.802-7.955 4.534 7.989c0.035 0.062 0.068 0.122 0.1 0.182 0.017 0.040 0.038 0.078 0.060 0.116 0.384 0.749 0.544 1.393 0.544 2.152-0 2.983-2.427 5.41-5.41 5.41zM26.237 27.553c-1.738 1.655-4.083 2.566-6.603 2.566-2.534 0-4.881-0.888-6.61-2.499-1.744-1.626-2.704-3.867-2.704-6.312 0-0.323 0.021-0.68 0.059-1.033 3.093-0.844 5.373-3.678 5.373-7.034 0-0.923-0.17-1.736-0.555-2.599l4.728-7.84 7.81 13.76c0.794 1.399 1.214 2.989 1.214 4.598 0 2.457-0.963 4.727-2.712 6.392z"></path>
<path d="M16.421 21.847c-0.367 0.367-0.367 0.963 0 1.33s0.963 0.367 1.33 0c1.039-1.038 2.728-1.038 3.767 0 0.184 0.184 0.424 0.276 0.665 0.276s0.481-0.092 0.665-0.276c0.367-0.367 0.367-0.963 0-1.33-1.772-1.772-4.655-1.772-6.427 0z"></path>
<path d="M19.634 17.095c-2.128 0-4.128 0.829-5.632 2.333-0.367 0.367-0.367 0.963 0 1.33s0.963 0.367 1.33 0c1.149-1.149 2.677-1.782 4.302-1.782s3.153 0.633 4.302 1.782c0.184 0.184 0.424 0.276 0.665 0.276s0.481-0.092 0.665-0.276c0.367-0.367 0.367-0.963 0-1.33-1.504-1.504-3.505-2.333-5.632-2.333z"></path>
<path d="M20.575 25.060c0 0.519-0.421 0.941-0.941 0.941s-0.941-0.421-0.941-0.941c0-0.519 0.421-0.941 0.941-0.941s0.941 0.421 0.941 0.941z"></path>
</svg>
