<!-- Generated by IcoMoon.io -->
<svg version="1.1" xmlns="http://www.w3.org/2000/svg" width="32" height="32" viewBox="0 0 32 32">
<title>tree</title>
<path d="M24.635 7.467c-0.283-1.961-1.225-3.764-2.69-5.128-1.62-1.508-3.731-2.339-5.945-2.339s-4.326 0.831-5.945 2.339c-1.465 1.364-2.406 3.167-2.69 5.128-3.155 1.378-5.235 4.52-5.235 7.999 0 4.811 3.914 8.725 8.725 8.725 1.483 0 2.928-0.377 4.207-1.082v8.891h1.875v-8.891c1.279 0.705 2.725 1.082 4.207 1.082 4.811 0 8.725-3.914 8.725-8.725 0-3.479-2.080-6.621-5.235-7.999zM21.145 22.316c-1.53 0-3.008-0.511-4.207-1.445v-5.734l4.205-2.211-0.873-1.66-3.332 1.752v-3.691h-1.875v7.847l-3.332-1.752-0.873 1.66 4.205 2.211v1.579c-1.199 0.934-2.678 1.445-4.207 1.445-3.777 0-6.85-3.073-6.85-6.85 0-2.888 1.827-5.481 4.545-6.453l0.573-0.205 0.046-0.607c0.13-1.717 0.898-3.311 2.163-4.489 1.271-1.184 2.929-1.836 4.667-1.836s3.396 0.652 4.667 1.836c1.265 1.178 2.033 2.772 2.163 4.489l0.046 0.607 0.573 0.205c2.719 0.971 4.545 3.564 4.545 6.453 0 3.777-3.073 6.85-6.85 6.85z"></path>
</svg>
