<svg id="Layer_1" enable-background="new 0 0 512.465 512.465" height="512" viewBox="0 0 512.465 512.465" width="512" xmlns="http://www.w3.org/2000/svg"><g><path d="m497.465 482.069h-43.447v-219.54c3.03.616 6.113.928 9.204.928 7.059 0 14.165-1.616 20.798-4.898 16.056-7.944 26.029-24.007 26.029-41.92 0-14.396-6.782-28.198-18.161-37l-198.959-166.624c-.182-.152-.366-.299-.555-.442-21.242-16.145-50.99-16.245-72.341-.243-.19.143-.378.29-.562.442l-198.302 163.933c-11.775 8.979-18.793 23.138-18.793 37.958 0 18.28 10.178 34.671 26.562 42.778 9.382 4.641 19.687 6.012 29.51 4.259v220.369h-43.448c-8.284 0-15 6.716-15 15s6.716 15 15 15h482.465c8.284 0 15-6.716 15-15s-6.716-15-15-15zm-455.223-251.517c-6.178-3.057-9.866-8.997-9.866-15.89 0-5.553 2.652-10.856 7.097-14.187.19-.143.378-.291.562-.442l198.248-163.888c10.579-7.752 25.158-7.702 35.684.122l198.904 166.578c.182.152.366.299.555.442 4.147 3.152 6.623 8.143 6.623 13.352 0 6.521-3.489 12.14-9.333 15.032-5.817 2.877-12.367 2.261-17.539-1.645l-184.51-144.986c-5.999-6.156-15.988-7.977-22.63-1.76l-185.25 145.53c-5.468 4.134-12.393 4.786-18.545 1.742zm46.205 251.517v-236.771l167.785-131.873 167.785 131.873v236.771z"/><path d="m204.979 328.348c-5.858 5.858-5.858 15.355 0 21.213 5.857 5.858 15.355 5.858 21.213 0 16.564-16.563 43.516-16.563 60.08 0 2.929 2.929 6.768 4.394 10.606 4.394s7.678-1.464 10.606-4.394c5.858-5.858 5.858-15.355 0-21.213-28.258-28.261-74.245-28.261-102.505 0z"/><path d="m166.402 289.771c-5.858 5.858-5.858 15.355 0 21.213 5.857 5.858 15.355 5.858 21.213 0 37.836-37.835 99.398-37.835 137.234 0 2.929 2.929 6.768 4.394 10.606 4.394s7.678-1.464 10.606-4.394c5.858-5.858 5.858-15.355 0-21.213-49.532-49.533-130.125-49.533-179.659 0z"/><circle cx="256.232" cy="379.601" r="15"/></g></svg>