<!-- Generated by IcoMoon.io -->
<svg version="1.1" xmlns="http://www.w3.org/2000/svg" width="32" height="32" viewBox="0 0 32 32">
<title>trees</title>
<path d="M20.211 30.125v-4.008h5.444c3.399 0 6.164-2.765 6.164-6.164 0-2.205-1.156-4.197-3.010-5.297 0.187-0.608 0.282-1.241 0.282-1.889 0-2.209-1.112-4.225-2.943-5.404 0.011-0.158 0.017-0.316 0.017-0.472 0-3.8-3.091-6.891-6.891-6.891-2.262 0-4.272 1.095-5.529 2.783-0.688-0.253-1.413-0.382-2.168-0.382-3.474 0-6.301 2.827-6.301 6.301 0 0.125 0.004 0.251 0.012 0.377-1.648 1.083-2.648 2.913-2.648 4.917 0 0.569 0.079 1.124 0.237 1.659-1.662 1.014-2.695 2.82-2.695 4.815 0 3.113 2.533 5.646 5.646 5.646h4.812v4.008h-10.639v1.875h32v-1.875zM19.274 1.875c2.766 0 5.016 2.25 5.016 5.016 0 0.271-0.023 0.548-0.069 0.823l-0.112 0.677 0.611 0.311c1.539 0.784 2.495 2.341 2.495 4.065 0 0.68-0.146 1.334-0.435 1.945l-0.423 0.895 0.916 0.374c1.622 0.662 2.67 2.221 2.67 3.972 0 2.365-1.924 4.289-4.289 4.289h-5.444v-2.33l4.375-4.375-1.326-1.326-3.049 3.049v-3.562l3.34-3.34-1.326-1.326-2.015 2.015v-3.336h-1.875v3.371l-2.050-2.050-1.326 1.326 3.376 3.376v3.562l-3.085-3.085-1.326 1.326 4.41 4.41v2.294h-5.444c-2.365 0-4.289-1.924-4.289-4.289 0-1.751 1.048-3.31 2.67-3.972l0.916-0.374-0.423-0.895c-0.289-0.611-0.435-1.266-0.435-1.945 0-1.724 0.956-3.281 2.495-4.065l0.611-0.311-0.112-0.677c-0.045-0.275-0.069-0.552-0.069-0.823 0-2.766 2.25-5.016 5.016-5.016zM2.056 20.471c0-1.539 0.922-2.91 2.348-3.492l0.916-0.374-0.423-0.895c-0.254-0.538-0.383-1.114-0.383-1.713 0-1.518 0.842-2.889 2.197-3.579l0.611-0.311-0.112-0.677c-0.040-0.243-0.061-0.488-0.061-0.727 0-2.441 1.986-4.426 4.426-4.426 0.433 0 0.851 0.060 1.252 0.178-0.287 0.758-0.445 1.579-0.445 2.436 0 0.156 0.005 0.314 0.017 0.472-1.83 1.179-2.943 3.195-2.943 5.404 0 0.648 0.095 1.28 0.282 1.889-1.854 1.099-3.010 3.092-3.010 5.297 0 1.665 0.664 3.178 1.741 4.289h-2.643c-2.079-0-3.771-1.692-3.771-3.771zM18.336 26.117v4.008h-5.822v-4.008z"></path>
</svg>
