<svg id="Capa_1" enable-background="new 0 0 512 512" height="512" viewBox="0 0 512 512" width="512" xmlns="http://www.w3.org/2000/svg"><path d="m323.38 481.993v-64.127h87.101c54.378 0 98.619-44.24 98.619-98.619 0-35.273-18.497-67.159-48.159-84.751 2.997-9.733 4.51-19.849 4.51-30.219 0-35.35-17.797-67.599-47.083-86.468.176-2.527.265-5.048.265-7.55 0-60.793-49.459-110.252-110.252-110.252-36.187 0-68.355 17.526-88.469 44.533-11-4.051-22.615-6.109-34.689-6.109-55.59 0-100.816 45.226-100.816 100.816 0 1.999.062 4.012.185 6.031-26.372 17.335-42.365 46.61-42.365 78.673 0 9.098 1.272 17.98 3.793 26.547-26.591 16.232-43.12 45.118-43.12 77.033 0 49.811 40.524 90.335 90.335 90.335h76.986v64.127h-170.221v30h512v-30zm-15-451.986c44.251 0 80.252 36.001 80.252 80.252 0 4.335-.369 8.768-1.096 13.174l-1.787 10.83 9.782 4.98c24.623 12.536 39.919 37.455 39.919 65.034 0 10.875-2.343 21.347-6.965 31.125l-6.768 14.316 14.661 5.983c25.952 10.59 42.721 35.534 42.721 63.547 0 37.836-30.782 68.619-68.619 68.619h-87.1v-37.274l69.996-69.995-21.213-21.213-48.783 48.782v-56.999l53.446-53.446-21.213-21.213-32.233 32.233v-53.369h-30v53.94l-32.804-32.804-21.213 21.213 54.017 54.017v56.999l-49.354-49.354-21.213 21.213 70.566 70.566v36.703h-87.101c-37.836 0-68.619-30.782-68.619-68.619 0-28.013 16.769-52.957 42.721-63.547l14.661-5.983-6.768-14.316c-4.622-9.777-6.965-20.249-6.965-31.125 0-27.579 15.296-52.498 39.919-65.034l9.782-4.98-1.787-10.83c-.727-4.406-1.096-8.839-1.096-13.174.002-44.25 36.003-80.251 80.254-80.251zm-275.48 297.524c0-24.631 14.745-46.563 37.564-55.875l14.661-5.983-6.768-14.316c-4.069-8.608-6.133-17.829-6.133-27.406 0-24.285 13.47-46.228 35.153-57.267l9.781-4.979-1.786-10.829c-.642-3.893-.968-7.805-.968-11.628 0-39.048 31.768-70.816 70.816-70.816 6.923 0 13.62.959 20.032 2.845-4.599 12.126-7.125 25.264-7.125 38.983 0 2.501.088 5.022.265 7.55-29.286 18.869-47.083 51.118-47.083 86.468 0 10.37 1.513 20.486 4.51 30.219-29.662 17.591-48.159 49.477-48.159 84.751 0 26.646 10.627 50.854 27.86 68.619h-42.285c-33.269-.001-60.335-27.067-60.335-60.336zm260.48 90.335v64.127h-93.159v-64.127z"/></svg>