<!-- Generated by IcoMoon.io -->
<svg version="1.1" xmlns="http://www.w3.org/2000/svg" width="32" height="32" viewBox="0 0 32 32">
<title>renovation</title>
<path d="M23.566 19.146l-3.367-3.367 2.544-2.544 1.989 1.989c0.413 0.413 0.962 0.641 1.547 0.641s1.134-0.228 1.547-0.641l3.535-3.536c0.853-0.853 0.853-2.241 0-3.094l-7.955-7.955c-0.853-0.853-2.241-0.853-3.094 0l-3.535 3.536c-0.853 0.853-0.853 2.241 0 3.094l1.989 1.989-2.544 2.544-3.367-3.367c0.685-2.296 0.068-4.793-1.651-6.512-1.77-1.77-4.349-2.374-6.73-1.575-0.288 0.097-0.512 0.327-0.6 0.618s-0.029 0.607 0.158 0.847l2.608 3.348-1.48 1.48-3.348-2.608c-0.24-0.187-0.556-0.246-0.847-0.158s-0.522 0.311-0.618 0.6c-0.798 2.381-0.195 4.96 1.575 6.73 1.719 1.719 4.217 2.336 6.512 1.651l3.367 3.367-3.412 3.412c-0.176-0.175-0.414-0.274-0.662-0.274s-0.487 0.099-0.663 0.275l-5.966 5.966c-0.708 0.708-1.098 1.65-1.098 2.651s0.39 1.943 1.098 2.652v0c0.731 0.731 1.691 1.097 2.652 1.097s1.921-0.366 2.652-1.097l5.966-5.966c0.366-0.366 0.366-0.96 0-1.326l-0.001-0.001 3.412-3.412 3.367 3.367c-0.685 2.296-0.068 4.793 1.651 6.512 1.253 1.254 2.912 1.922 4.619 1.922 0.704 0 1.416-0.114 2.111-0.347 0.288-0.097 0.512-0.327 0.6-0.618s0.029-0.607-0.158-0.847l-2.608-3.348 1.48-1.48 3.348 2.608c0.24 0.187 0.555 0.246 0.847 0.158s0.522-0.311 0.618-0.6c0.799-2.381 0.195-4.96-1.575-6.73-1.719-1.719-4.217-2.335-6.512-1.651zM18.011 5.722c0-0.048 0.012-0.141 0.092-0.221l3.535-3.536c0.080-0.080 0.173-0.092 0.221-0.092s0.141 0.012 0.221 0.092l7.955 7.955c0.080 0.080 0.091 0.173 0.091 0.221s-0.012 0.141-0.092 0.221l-3.535 3.536c-0.080 0.080-0.173 0.092-0.221 0.092s-0.141-0.012-0.221-0.092l-7.955-7.955c-0.080-0.080-0.091-0.173-0.091-0.221zM9.344 11.112c-0.266-0.266-0.666-0.347-1.016-0.206-1.75 0.711-3.745 0.307-5.081-1.029-0.924-0.924-1.402-2.156-1.37-3.417l2.783 2.168c0.373 0.291 0.904 0.258 1.239-0.077l2.652-2.652c0.335-0.335 0.367-0.866 0.077-1.239l-2.168-2.783c1.26-0.032 2.494 0.447 3.417 1.37 1.336 1.336 1.74 3.33 1.029 5.081-0.142 0.349-0.061 0.749 0.206 1.016l3.783 3.783-1.768 1.768zM5.076 29.578c-0.731 0.731-1.921 0.731-2.652-0-0.354-0.354-0.549-0.825-0.549-1.326s0.195-0.972 0.549-1.326l5.303-5.303 2.652 2.652zM9.715 20.959l10.375-10.376 1.326 1.326-10.376 10.376zM30.122 25.54l-2.783-2.168c-0.373-0.291-0.905-0.258-1.239 0.077l-2.652 2.652c-0.335 0.335-0.367 0.866-0.077 1.239l2.168 2.783c-1.26 0.033-2.494-0.447-3.417-1.37-1.336-1.336-1.74-3.33-1.029-5.081 0.142-0.349 0.061-0.749-0.206-1.016l-3.783-3.783 1.768-1.768 3.783 3.783c0.266 0.267 0.666 0.348 1.016 0.206 1.751-0.711 3.745-0.307 5.081 1.029 0.923 0.924 1.402 2.156 1.37 3.417z"></path>
</svg>
