<!-- Generated by IcoMoon.io -->
<svg version="1.1" xmlns="http://www.w3.org/2000/svg" width="32" height="32" viewBox="0 0 32 32">
<title>sun-umbrella</title>
<path d="M31.639 29.118c-5.36-4.176-11.663-1.73-17.875-0.11l-2.799-10.448c0.548 0.006 1.102 0.143 1.618 0.423 0.449 0.26 1.014 0.102 1.273-0.326 0.88-1.455 2.771-2.199 4.658-1.234 0.722 0.369 1.539-0.293 1.333-1.073-1.357-5.137-6.397-8.239-11.448-7.37l-0.445-1.66c-0.134-0.5-0.648-0.797-1.148-0.663s-0.797 0.648-0.663 1.148l0.445 1.66c-4.831 1.781-7.622 7.005-6.227 12.117 0.216 0.79 1.28 0.945 1.707 0.237 0.919-1.524 2.886-2.184 4.652-1.241 0.444 0.236 0.988 0.080 1.243-0.341 0.306-0.505 0.719-0.905 1.192-1.188l2.788 10.405c-3.584 0.806-7.186 1.123-10.613-0.448-0.471-0.216-1.027-0.009-1.243 0.462s-0.009 1.027 0.462 1.243c10.743 4.925 22.021-6.281 29.938-0.113 0.408 0.318 0.997 0.245 1.316-0.163s0.245-0.998-0.163-1.316zM17.381 15.135c-1.345-0.143-2.7 0.233-3.78 1.051-0.617-2.095-1.774-3.993-3.425-5.476 2.981 0.027 5.8 1.713 7.205 4.426zM1.884 19.291c-0.138-2.985 1.4-5.896 4.035-7.444-0.682 2.089-0.748 4.311-0.229 6.457-1.348-0.169-2.712 0.186-3.806 0.987zM7.523 17.911c-0.534-2.161-0.381-4.41 0.563-6.48 1.851 1.319 3.11 3.186 3.729 5.329-1.528-0.26-3.099 0.161-4.292 1.151z"></path>
<path d="M17.831 8.497h0.997c0.518 0 0.937-0.42 0.937-0.938s-0.42-0.938-0.937-0.938h-0.997c-0.518 0-0.937 0.42-0.937 0.938s0.42 0.938 0.937 0.938z"></path>
<path d="M24.441 10.71c1.737 0 3.15-1.413 3.15-3.15s-1.413-3.15-3.15-3.15-3.15 1.413-3.15 3.15c0 1.737 1.413 3.15 3.15 3.15zM24.441 6.284c0.703 0 1.275 0.572 1.275 1.275s-0.572 1.275-1.275 1.275-1.275-0.572-1.275-1.275 0.572-1.275 1.275-1.275z"></path>
<path d="M24.441 2.872c0.518 0 0.937-0.42 0.937-0.938v-0.997c0-0.518-0.42-0.938-0.937-0.938s-0.937 0.42-0.937 0.938v0.997c0 0.518 0.42 0.938 0.937 0.938z"></path>
<path d="M19.801 4.245c0.366 0.366 0.96 0.366 1.326 0s0.366-0.96 0-1.326l-0.705-0.705c-0.366-0.366-0.96-0.366-1.326 0s-0.366 0.96 0 1.326z"></path>
<path d="M19.801 10.874l-0.705 0.705c-0.366 0.366-0.366 0.96 0 1.326s0.96 0.366 1.326 0l0.705-0.705c0.366-0.366 0.366-0.96 0-1.326s-0.96-0.366-1.326 0z"></path>
<path d="M23.503 13.185v0.997c0 0.518 0.42 0.938 0.937 0.938s0.937-0.42 0.937-0.938v-0.997c0-0.518-0.42-0.938-0.937-0.938s-0.937 0.42-0.937 0.938z"></path>
<path d="M27.755 10.874c-0.366 0.366-0.366 0.96 0 1.326l0.705 0.705c0.366 0.366 0.96 0.366 1.326 0s0.366-0.96 0-1.326l-0.705-0.705c-0.366-0.366-0.96-0.366-1.326 0z"></path>
<path d="M29.128 7.56c0 0.518 0.42 0.938 0.937 0.938h0.997c0.518 0 0.937-0.42 0.937-0.938s-0.42-0.938-0.937-0.938h-0.997c-0.518 0-0.937 0.42-0.937 0.938z"></path>
<path d="M29.081 4.245l0.705-0.705c0.366-0.366 0.366-0.96 0-1.326s-0.96-0.366-1.326 0l-0.705 0.705c-0.366 0.366-0.366 0.96 0 1.326s0.96 0.366 1.326 0z"></path>
</svg>
