<!-- Generated by IcoMoon.io -->
<svg version="1.1" xmlns="http://www.w3.org/2000/svg" width="32" height="32" viewBox="0 0 32 32">
<title>protection</title>
<path d="M29.347 7.113c-2.392-0.584-4.060-2.708-4.056-5.165 0.001-0.433-0.296-0.811-0.717-0.913-5.69-1.38-11.459-1.38-17.149 0-0.421 0.102-0.717 0.479-0.717 0.913 0.004 2.457-1.664 4.581-4.056 5.165-0.42 0.103-0.715 0.479-0.715 0.911v6.42c0 4.036 1.378 8.003 3.879 11.17s6.041 5.426 9.967 6.361c0.071 0.017 0.144 0.026 0.217 0.026s0.146-0.009 0.217-0.026c3.926-0.935 7.465-3.194 9.967-6.361s3.879-7.134 3.879-11.17v-6.42c0-0.432-0.295-0.808-0.715-0.911zM28.188 14.443c0 7.434-5 13.839-12.188 15.654-7.187-1.814-12.188-8.22-12.188-15.654v-5.723c2.612-0.929 4.451-3.268 4.734-6.021 4.95-1.099 9.958-1.099 14.908 0 0.283 2.753 2.121 5.092 4.734 6.021z"></path>
<path d="M22 4.819c-0.109-0.331-0.393-0.573-0.737-0.63-1.754-0.291-3.525-0.438-5.263-0.438s-3.508 0.147-5.263 0.438c-0.344 0.057-0.627 0.3-0.737 0.63-0.67 2.024-2.042 3.752-3.864 4.865-0.279 0.17-0.449 0.473-0.449 0.8v3.962c0 3.196 1.091 6.337 3.072 8.844 1.764 2.234 4.237 3.932 6.962 4.781 0.091 0.028 0.185 0.043 0.279 0.043s0.188-0.014 0.279-0.043c2.725-0.849 5.198-2.547 6.962-4.781 1.981-2.508 3.072-5.649 3.072-8.844v-3.962c0-0.327-0.17-0.63-0.449-0.8-1.822-1.113-3.194-2.84-3.864-4.865zM24.438 14.446c0 2.776-0.948 5.504-2.668 7.682-1.472 1.864-3.512 3.298-5.77 4.063-2.257-0.764-4.297-2.199-5.77-4.063-1.72-2.178-2.668-4.906-2.668-7.682v-3.452c1.817-1.236 3.221-2.997 4.021-5.040 1.476-0.218 2.959-0.328 4.416-0.328s2.941 0.11 4.416 0.328c0.8 2.044 2.204 3.804 4.021 5.040z"></path>
<path d="M22.548 12.877l-5.938-5.089c-0.351-0.301-0.869-0.301-1.22 0l-5.938 5.089c-0.393 0.337-0.439 0.929-0.102 1.322s0.929 0.439 1.322 0.102l0.015-0.013v5.462c0 0.518 0.42 0.938 0.938 0.938h8.75c0.518 0 0.938-0.42 0.938-0.938v-5.462l0.015 0.013c0.177 0.152 0.394 0.226 0.61 0.226 0.264 0 0.527-0.111 0.712-0.327 0.337-0.393 0.291-0.985-0.102-1.322zM19.438 18.813h-2.5v-1.563c0-0.518-0.42-0.938-0.938-0.938s-0.938 0.42-0.938 0.938v1.563h-2.5v-6.131l3.438-2.946 3.438 2.946z"></path>
<path d="M14.438 13.5c0 0.518 0.42 0.938 0.938 0.938h1.25c0.518 0 0.938-0.42 0.938-0.938s-0.42-0.938-0.938-0.938h-1.25c-0.518 0-0.938 0.42-0.938 0.938z"></path>
</svg>
