<svg id="Capa_1" enable-background="new 0 0 512 512" height="512" viewBox="0 0 512 512" width="512" xmlns="http://www.w3.org/2000/svg"><g><path d="m469.558 113.801c-38.276-9.346-64.965-43.329-64.902-82.641.011-6.933-4.729-12.971-11.465-14.604-91.033-22.075-183.348-22.075-274.381 0-6.736 1.633-11.477 7.671-11.465 14.604.063 39.311-26.626 73.294-64.902 82.641-6.717 1.64-11.443 7.659-11.443 14.574v102.716c0 64.576 22.041 128.048 62.061 178.724 40.021 50.675 96.653 86.821 159.465 101.777 1.142.272 2.308.408 3.474.408s2.332-.136 3.474-.408c62.812-14.956 119.444-51.102 159.465-101.777 40.02-50.676 62.061-114.148 62.061-178.724v-102.716c0-6.915-4.726-12.934-11.442-14.574zm-18.558 117.29c0 118.947-80.003 221.429-195 250.461-114.997-29.032-195-131.514-195-250.461v-91.562c41.8-14.86 71.213-52.281 75.737-96.335 79.201-17.579 159.325-17.579 238.526 0 4.523 44.054 33.937 81.474 75.737 96.335z"/><path d="m351.993 77.098c-1.751-5.29-6.29-9.174-11.787-10.085-28.071-4.654-56.402-7.013-84.206-7.013s-56.135 2.359-84.206 7.013c-5.497.911-10.036 4.795-11.787 10.085-10.721 32.39-32.677 60.032-61.826 77.834-4.46 2.724-7.181 7.575-7.181 12.801v63.396c0 51.131 17.454 101.387 49.146 141.509 28.231 35.742 67.791 62.909 111.392 76.497 1.453.453 2.958.68 4.463.68s3.01-.227 4.463-.68c43.601-13.588 83.161-40.755 111.392-76.497 31.69-40.121 49.144-90.377 49.144-141.508v-63.396c0-5.227-2.721-10.077-7.182-12.802-29.148-17.802-51.105-45.445-61.825-77.834zm39.007 154.032c0 44.412-15.16 88.063-42.688 122.913-23.554 29.821-56.196 52.772-92.313 65.001-36.116-12.229-68.758-35.18-92.313-65.001-27.526-34.85-42.686-78.501-42.686-122.913v-55.228c29.068-19.775 51.534-47.944 64.336-80.647 23.615-3.489 47.343-5.255 70.664-5.255s47.049 1.766 70.664 5.255c12.802 32.703 35.269 60.872 64.336 80.647z"/><path d="m360.762 206.04-95-81.429c-5.617-4.814-13.906-4.814-19.523 0l-95 81.429c-6.29 5.392-7.019 14.86-1.627 21.15 5.392 6.291 14.86 7.019 21.15 1.627l.238-.204v87.387c0 8.284 6.716 15 15 15h140c8.284 0 15-6.716 15-15v-87.387l.238.204c2.829 2.425 6.3 3.612 9.755 3.611 4.227 0 8.429-1.777 11.396-5.238 5.391-6.29 4.663-15.758-1.627-21.15zm-49.762 94.96h-40v-25c0-8.284-6.716-15-15-15s-15 6.716-15 15v25h-40v-98.101l55-47.143 55 47.143z"/><path d="m231 216c0 8.284 6.716 15 15 15h20c8.284 0 15-6.716 15-15s-6.716-15-15-15h-20c-8.284 0-15 6.716-15 15z"/></g></svg>