<!-- Generated by IcoMoon.io -->
<svg version="1.1" xmlns="http://www.w3.org/2000/svg" width="32" height="32" viewBox="0 0 32 32">
<title>toilet</title>
<path d="M7.361 0.967c-2.737 0-4.963 2.227-4.963 4.963s2.227 4.963 4.963 4.963 4.963-2.226 4.963-4.963c0-2.737-2.226-4.963-4.963-4.963zM7.361 8.981c-1.682 0-3.051-1.369-3.051-3.051s1.369-3.051 3.051-3.051 3.051 1.369 3.051 3.051-1.369 3.051-3.051 3.051z"></path>
<path d="M14.559 13.644c-0.178-0.263-0.475-0.421-0.793-0.421h-12.81c-0.318 0-0.615 0.158-0.792 0.421s-0.213 0.598-0.094 0.892l6.405 15.898c0.146 0.362 0.497 0.599 0.887 0.599s0.741-0.237 0.887-0.599l6.405-15.898c0.119-0.295 0.083-0.629-0.094-0.892zM7.361 27.518l-4.989-12.383h9.978l-4.989 12.383z"></path>
<path d="M24.639 0.967c-2.737 0-4.963 2.227-4.963 4.963s2.227 4.963 4.963 4.963c2.737 0 4.963-2.226 4.963-4.963s-2.227-4.963-4.963-4.963zM24.639 8.981c-1.682 0-3.051-1.369-3.051-3.051s1.369-3.051 3.051-3.051c1.682 0 3.051 1.369 3.051 3.051s-1.369 3.051-3.051 3.051z"></path>
<path d="M31.931 29.72l-6.405-15.898c-0.146-0.362-0.497-0.599-0.887-0.599s-0.741 0.237-0.887 0.599l-6.405 15.898c-0.119 0.295-0.083 0.629 0.094 0.892s0.475 0.421 0.793 0.421h12.81c0.318 0 0.615-0.158 0.793-0.421s0.213-0.598 0.094-0.892zM19.65 29.121l4.989-12.383 4.989 12.383h-9.978z"></path>
</svg>
