<?xml version="1.0" encoding="iso-8859-1"?>
<!-- Generator: Adobe Illustrator 19.0.0, SVG Export Plug-In . SVG Version: 6.00 Build 0)  -->
<svg version="1.1" id="Capa_1" xmlns="http://www.w3.org/2000/svg" xmlns:xlink="http://www.w3.org/1999/xlink" x="0px" y="0px"
	 viewBox="0 0 512.001 512.001" style="enable-background:new 0 0 512.001 512.001;" xml:space="preserve">
<g>
	<g>
		<path d="M117.782,15.468c-43.788,0-79.412,35.625-79.412,79.412c0,43.787,35.624,79.411,79.412,79.411
			s79.412-35.624,79.412-79.411C197.194,51.092,161.57,15.468,117.782,15.468z M117.782,143.692
			c-26.917,0-48.814-21.898-48.814-48.813s21.898-48.814,48.814-48.814s48.814,21.899,48.814,48.814
			S144.699,143.692,117.782,143.692z"/>
	</g>
</g>
<g>
	<g>
		<path d="M232.945,218.304c-2.845-4.212-7.596-6.738-12.68-6.738H15.299c-5.083,0-9.835,2.524-12.68,6.738
			c-2.845,4.212-3.411,9.563-1.51,14.278l102.483,254.369c2.333,5.79,7.948,9.582,14.19,9.582s11.858-3.792,14.19-9.582
			l102.483-254.369C236.355,227.867,235.789,222.517,232.945,218.304z M117.782,440.296L37.956,242.163h159.652L117.782,440.296z"/>
	</g>
</g>
<g>
	<g>
		<path d="M394.219,15.468c-43.788,0-79.411,35.625-79.411,79.412c0,43.787,35.624,79.411,79.411,79.411
			c43.787,0,79.412-35.624,79.412-79.411C473.63,51.092,438.007,15.468,394.219,15.468z M394.219,143.692
			c-26.917,0-48.814-21.898-48.814-48.813s21.898-48.814,48.814-48.814c26.916,0,48.814,21.899,48.814,48.814
			S421.135,143.692,394.219,143.692z"/>
	</g>
</g>
<g>
	<g>
		<path d="M510.892,475.516L408.409,221.148c-2.333-5.79-7.948-9.582-14.19-9.582s-11.857,3.792-14.19,9.582l-102.483,254.37
			c-1.9,4.715-1.334,10.066,1.51,14.278s7.596,6.738,12.68,6.738h204.966c5.083,0,9.835-2.525,12.68-6.739
			C512.226,485.582,512.792,480.231,510.892,475.516z M314.393,465.935l79.827-198.133l79.826,198.133H314.393z"/>
	</g>
</g>
<g>
</g>
<g>
</g>
<g>
</g>
<g>
</g>
<g>
</g>
<g>
</g>
<g>
</g>
<g>
</g>
<g>
</g>
<g>
</g>
<g>
</g>
<g>
</g>
<g>
</g>
<g>
</g>
<g>
</g>
</svg>
