<!-- Generated by IcoMoon.io -->
<svg version="1.1" xmlns="http://www.w3.org/2000/svg" width="32" height="32" viewBox="0 0 32 32">
<title>single-bed</title>
<path d="M28.361 14.356v-8.898c0-1.809-1.472-3.281-3.281-3.281h-18.16c-1.809 0-3.281 1.472-3.281 3.281v8.898c-2.085 0.502-3.639 2.381-3.639 4.617v6.636c0 0.526 0.427 0.953 0.953 0.953h2.686v2.306c0 0.526 0.427 0.953 0.953 0.953s0.953-0.427 0.953-0.953v-2.306h20.909v2.306c0 0.526 0.427 0.953 0.953 0.953s0.953-0.427 0.953-0.953v-2.306h2.686c0.526 0 0.953-0.427 0.953-0.953v-6.636c0-2.236-1.554-4.116-3.639-4.617zM5.546 5.459c0-0.758 0.617-1.375 1.374-1.375h18.16c0.758 0 1.375 0.617 1.375 1.375v8.765h-3.15v-1.504c0-2.492-2.027-4.519-4.519-4.519h-5.57c-2.492 0-4.519 2.027-4.519 4.519v1.504h-3.15v-8.765zM21.397 12.72v1.504h-10.795v-1.504c0-1.441 1.172-2.612 2.612-2.612h5.57c1.441-0 2.613 1.172 2.613 2.613zM1.907 24.657v-5.683c0-1.568 1.275-2.843 2.843-2.843h22.501c1.568 0 2.843 1.275 2.843 2.843v5.683h-28.187z"></path>
</svg>
