<!-- Generated by IcoMoon.io -->
<svg version="1.1" xmlns="http://www.w3.org/2000/svg" width="32" height="32" viewBox="0 0 32 32">
<title>garage-1</title>
<path d="M31.063 0h-30.125c-0.518 0-0.938 0.42-0.938 0.938v3.875c0 0.518 0.42 0.938 0.938 0.938h0.375v25.313c0 0.518 0.42 0.938 0.938 0.938h3.75c0.518 0 0.938-0.42 0.938-0.938v-13.438h18.125v13.438c0 0.518 0.42 0.938 0.938 0.938h3.75c0.518 0 0.938-0.42 0.938-0.938v-25.313h0.375c0.518 0 0.938-0.42 0.938-0.938v-3.875c0-0.518-0.42-0.938-0.938-0.938zM1.875 1.875h28.25v2h-28.25zM25.063 12h-18.125v-1.875h18.125zM6.938 15.75v-1.875h18.125v1.875zM28.813 30.125h-1.875v-20.938c0-0.518-0.42-0.938-0.938-0.938h-20c-0.518 0-0.938 0.42-0.938 0.938v20.938h-1.875v-24.375h25.625z"></path>
<path d="M21.744 24.006l-0.834-2.919c-0.267-0.934-1.132-1.587-2.103-1.587h-5.614c-0.972 0-1.836 0.652-2.103 1.587l-0.834 2.919c-0.841 0.305-1.443 1.112-1.443 2.057v3.125c0 0.518 0.42 0.938 0.938 0.938h0.831v0.938c0 0.518 0.42 0.938 0.938 0.938s0.938-0.42 0.938-0.938v-0.938h7.089v0.938c0 0.518 0.42 0.938 0.938 0.938s0.938-0.42 0.938-0.938v-0.938h0.831c0.518 0 0.938-0.42 0.938-0.938v-3.125c0-0.945-0.602-1.752-1.443-2.057zM21.313 26.063v2.188h-10.625v-2.188c0-0.172 0.14-0.313 0.313-0.313h10c0.172 0 0.313 0.14 0.313 0.313zM12.892 21.602c0.038-0.134 0.162-0.227 0.3-0.227h5.614c0.139 0 0.262 0.093 0.3 0.227l0.649 2.273h-7.514z"></path>
</svg>
