<svg id="Capa_1" enable-background="new 0 0 512 512" height="512" viewBox="0 0 512 512" width="512" xmlns="http://www.w3.org/2000/svg"><g><path d="m497 0h-482c-8.284 0-15 6.716-15 15v62c0 8.284 6.716 15 15 15h6v405c0 8.284 6.716 15 15 15h60c8.284 0 15-6.716 15-15v-215h290v215c0 8.284 6.716 15 15 15h60c8.284 0 15-6.716 15-15v-405h6c8.284 0 15-6.716 15-15v-62c0-8.284-6.716-15-15-15zm-467 30h452v32h-452zm371 162h-290v-30h290zm-290 60v-30h290v30zm350 230h-30v-335c0-8.284-6.716-15-15-15h-320c-8.284 0-15 6.716-15 15v335h-30v-390h410z"/><path d="m347.912 384.09-13.344-46.705c-4.271-14.947-18.11-25.385-33.654-25.385h-89.828c-15.544 0-29.383 10.438-33.653 25.385l-13.344 46.705c-13.453 4.884-23.089 17.792-23.089 32.91v50c0 8.284 6.716 15 15 15h13.288v15c0 8.284 6.716 15 15 15s15-6.716 15-15v-15h113.424v15c0 8.284 6.716 15 15 15s15-6.716 15-15v-15h13.288c8.284 0 15-6.716 15-15v-50c0-15.118-9.636-28.026-23.088-32.91zm-6.912 32.91v35h-170v-35c0-2.757 2.243-5 5-5h160c2.757 0 5 2.243 5 5zm-134.722-71.373c.61-2.136 2.587-3.627 4.808-3.627h89.828c2.221 0 4.197 1.491 4.808 3.627l10.392 36.373h-120.228z"/></g></svg>