<!-- Generated by IcoMoon.io -->
<svg version="1.1" xmlns="http://www.w3.org/2000/svg" width="32" height="32" viewBox="0 0 32 32">
<title>bathroom</title>
<path d="M29.75 26.375h-1.563v-25.438c0-0.518-0.42-0.938-0.938-0.938h-22.5c-0.518 0-0.938 0.42-0.938 0.938v25.438h-1.563c-0.518 0-0.938 0.42-0.938 0.938v3.75c0 0.518 0.42 0.938 0.938 0.938h27.5c0.518 0 0.938-0.42 0.938-0.938v-3.75c0-0.518-0.42-0.938-0.938-0.938zM26.313 26.375h-4.375v-11.375h0.938c0.518 0 0.938-0.42 0.938-0.938s-0.42-0.938-0.938-0.938h-0.938v-11.25h4.375zM12.25 5.625c1.222 0 2.265 0.784 2.652 1.875h-5.304c0.387-1.091 1.43-1.875 2.652-1.875zM5.688 1.875h5.625v1.969c-2.137 0.436-3.75 2.329-3.75 4.593 0 0.518 0.42 0.938 0.938 0.938h7.5c0.518 0 0.938-0.42 0.938-0.938 0-2.264-1.613-4.158-3.75-4.593v-1.969h6.875v11.25h-0.938c-0.518 0-0.938 0.42-0.938 0.938s0.42 0.938 0.938 0.938h0.938v11.375h-14.375zM28.813 30.125h-25.625v-1.875h25.625z"></path>
<path d="M9.125 11.25c-0.518 0-0.938 0.42-0.938 0.938v1.875c0 0.518 0.42 0.938 0.938 0.938s0.938-0.42 0.938-0.938v-1.875c0-0.518-0.42-0.938-0.938-0.938z"></path>
<path d="M15.375 11.25c-0.518 0-0.938 0.42-0.938 0.938v1.875c0 0.518 0.42 0.938 0.938 0.938s0.938-0.42 0.938-0.938v-1.875c0-0.518-0.42-0.938-0.938-0.938z"></path>
<path d="M12.25 13.75c-0.518 0-0.938 0.42-0.938 0.938v1.875c0 0.518 0.42 0.938 0.938 0.938s0.938-0.42 0.938-0.938v-1.875c0-0.518-0.42-0.938-0.938-0.938z"></path>
</svg>
