<!-- Generated by IcoMoon.io -->
<svg version="1.1" xmlns="http://www.w3.org/2000/svg" width="32" height="32" viewBox="0 0 32 32">
<title>bed</title>
<path d="M29.031 14.526v-7.126c0-1.571-1.278-2.849-2.849-2.849h-20.363c-1.571 0-2.849 1.278-2.849 2.849v7.126c-1.71 0.473-2.969 2.042-2.969 3.9v5.415c0 0.525 0.425 0.95 0.95 0.95h2.019v1.709c0 0.525 0.425 0.95 0.95 0.95s0.95-0.425 0.95-0.95v-1.709h22.262v1.709c0 0.525 0.425 0.95 0.95 0.95s0.95-0.425 0.95-0.95v-1.709h2.019c0.525 0 0.95-0.425 0.95-0.95v-5.415c0-1.858-1.259-3.427-2.969-3.9zM4.869 7.4c0-0.523 0.426-0.949 0.949-0.949h20.364c0.523 0 0.949 0.426 0.949 0.949v6.979h-2.226v-1.907c0-1.658-1.349-3.007-3.007-3.007h-3.841c-0.795 0-1.519 0.311-2.057 0.817-0.538-0.506-1.262-0.817-2.057-0.817h-3.841c-1.658 0-3.007 1.349-3.007 3.007v1.907h-2.226v-6.979zM23.005 12.472v1.907h-6.055v-1.907c0-0.611 0.497-1.107 1.107-1.107h3.841c0.611 0 1.107 0.497 1.107 1.107zM15.050 12.472v1.907h-6.055v-1.907c0-0.611 0.497-1.107 1.107-1.107h3.841c0.611 0 1.107 0.497 1.107 1.107zM30.1 22.891h-28.2v-4.465c0-1.184 0.963-2.147 2.147-2.147h23.905c1.184 0 2.147 0.963 2.147 2.147v4.465z"></path>
</svg>
