<svg id="Capa_1" enable-background="new 0 0 512 512" height="512" viewBox="0 0 512 512" width="512" xmlns="http://www.w3.org/2000/svg"><g><path d="m476 422h-25v-407c0-8.284-6.716-15-15-15h-360c-8.284 0-15 6.716-15 15v407h-25c-8.284 0-15 6.716-15 15v60c0 8.284 6.716 15 15 15h440c8.284 0 15-6.716 15-15v-60c0-8.284-6.716-15-15-15zm-55 0h-70v-182h15c8.284 0 15-6.716 15-15s-6.716-15-15-15h-15v-180h70zm-225-332c19.556 0 36.239 12.539 42.43 30h-84.86c6.191-17.461 22.874-30 42.43-30zm-105-60h90v31.509c-34.192 6.969-60 37.271-60 73.491 0 8.284 6.716 15 15 15h120c8.284 0 15-6.716 15-15 0-36.22-25.808-66.522-60-73.491v-31.509h110v180h-15c-8.284 0-15 6.716-15 15s6.716 15 15 15h15v182h-230zm370 452h-410v-30h410z"/><path d="m146 180c-8.284 0-15 6.716-15 15v30c0 8.284 6.716 15 15 15s15-6.716 15-15v-30c0-8.284-6.716-15-15-15z"/><path d="m246 180c-8.284 0-15 6.716-15 15v30c0 8.284 6.716 15 15 15s15-6.716 15-15v-30c0-8.284-6.716-15-15-15z"/><path d="m196 220c-8.284 0-15 6.716-15 15v30c0 8.284 6.716 15 15 15s15-6.716 15-15v-30c0-8.284-6.716-15-15-15z"/></g></svg>