<?xml version="1.0" encoding="iso-8859-1"?>
<!-- Generator: Adobe Illustrator 19.0.0, SVG Export Plug-In . SVG Version: 6.00 Build 0)  -->
<svg version="1.1" id="Capa_1" xmlns="http://www.w3.org/2000/svg" xmlns:xlink="http://www.w3.org/1999/xlink" x="0px" y="0px"
	 viewBox="0 0 512 512" style="enable-background:new 0 0 512 512;" xml:space="preserve">
<g>
	<g>
		<path d="M464.496,232.412V118.394c0-25.137-20.451-45.588-45.588-45.588H93.092c-25.137,0-45.588,20.451-45.588,45.588v114.018
			C20.148,239.985,0,265.085,0,294.817v86.633c0,8.394,6.806,15.2,15.2,15.2h32.304v27.344c0,8.394,6.806,15.2,15.2,15.2
			c8.394,0,15.2-6.806,15.2-15.2V396.65h356.192v27.344c0,8.394,6.806,15.2,15.2,15.2c8.394,0,15.2-6.806,15.2-15.2V396.65H496.8
			c8.394,0,15.2-6.806,15.2-15.2v-86.633C512,265.085,491.851,239.985,464.496,232.412z M77.904,118.394
			c0-8.374,6.814-15.188,15.188-15.188h325.817c8.374,0,15.188,6.814,15.188,15.188V230.06h-35.615v-30.511
			c0-26.531-21.584-48.115-48.115-48.115h-61.451c-12.724,0-24.302,4.973-32.915,13.068c-8.613-8.094-20.191-13.068-32.915-13.068
			h-61.451c-26.531,0-48.115,21.585-48.115,48.115v30.511H77.904V118.394z M368.082,199.549v30.511H271.2v-30.511
			c0-9.769,7.948-17.715,17.715-17.715h61.451C360.135,181.834,368.082,189.781,368.082,199.549z M240.799,199.549v30.511h-96.882
			v-30.511c0-9.769,7.948-17.715,17.715-17.715h61.451C232.852,181.834,240.799,189.781,240.799,199.549z M481.6,366.25H30.4
			v-71.433c0-18.944,15.412-34.357,34.357-34.357h382.486c18.944,0,34.357,15.412,34.357,34.357V366.25z"/>
	</g>
</g>
<g>
</g>
<g>
</g>
<g>
</g>
<g>
</g>
<g>
</g>
<g>
</g>
<g>
</g>
<g>
</g>
<g>
</g>
<g>
</g>
<g>
</g>
<g>
</g>
<g>
</g>
<g>
</g>
<g>
</g>
</svg>
