<!-- Generated by IcoMoon.io -->
<svg version="1.1" xmlns="http://www.w3.org/2000/svg" width="32" height="32" viewBox="0 0 32 32">
<title>cctv-2</title>
<path d="M0 4.335v7.87h1.938v1.398c0 3.756 1.463 7.288 4.119 9.944s6.187 4.119 9.944 4.119 7.288-1.463 9.944-4.119c2.656-2.656 4.119-6.187 4.119-9.944v-1.398h1.938v-7.87h-32zM28.188 13.603c0 6.72-5.467 12.187-12.188 12.187s-12.188-5.467-12.188-12.188v-1.398h24.375v1.398zM30.125 10.33h-28.25v-4.12h28.25v4.12z"></path>
<path d="M16 13.272c-3.113 0-5.645 2.533-5.645 5.645s2.532 5.645 5.645 5.645 5.645-2.532 5.645-5.645c0-3.113-2.532-5.645-5.645-5.645zM16 22.688c-2.079 0-3.77-1.691-3.77-3.77s1.691-3.77 3.77-3.77c2.079 0 3.77 1.691 3.77 3.77s-1.691 3.77-3.77 3.77z"></path>
<path d="M16 16.272c-1.459 0-2.645 1.187-2.645 2.645s1.187 2.645 2.645 2.645 2.645-1.187 2.645-2.645-1.187-2.645-2.645-2.645zM16 19.688c-0.425 0-0.77-0.346-0.77-0.77s0.346-0.77 0.77-0.77 0.77 0.346 0.77 0.77-0.346 0.77-0.77 0.77z"></path>
<path d="M23.531 7.332h1.875v1.875h-1.875v-1.875z"></path>
<path d="M26.875 7.332h1.875v1.875h-1.875v-1.875z"></path>
</svg>
