<!-- Generated by IcoMoon.io -->
<svg version="1.1" xmlns="http://www.w3.org/2000/svg" width="32" height="32" viewBox="0 0 32 32">
<title>wardrobe</title>
<path d="M24.129 0h-16.258c-1.567 0-2.842 1.275-2.842 2.842v24.26c0 1.567 1.275 2.843 2.842 2.843h0.353v1.109c0 0.522 0.424 0.946 0.946 0.946s0.946-0.424 0.946-0.946v-1.109h11.769v1.109c0 0.522 0.424 0.946 0.946 0.946s0.946-0.424 0.946-0.946v-1.109h0.353c1.567 0 2.842-1.275 2.842-2.843v-24.26c-0-1.567-1.275-2.842-2.843-2.842zM6.92 2.842c0-0.524 0.427-0.951 0.951-0.951h7.183v20.414h-8.134v-19.463zM25.080 27.102c0 0.524-0.427 0.951-0.951 0.951h-16.258c-0.524 0-0.951-0.427-0.951-0.951v-2.905h18.159v2.905zM25.080 22.305h-8.134v-20.414h7.183c0.524 0 0.951 0.427 0.951 0.951v19.463z"></path>
<path d="M13.489 9.841c-0.522 0-0.946 0.424-0.946 0.946v2.624c0 0.522 0.423 0.946 0.946 0.946s0.946-0.424 0.946-0.946v-2.624c0-0.522-0.423-0.946-0.946-0.946z"></path>
<path d="M18.512 9.841c-0.522 0-0.946 0.424-0.946 0.946v2.624c0 0.522 0.424 0.946 0.946 0.946s0.946-0.424 0.946-0.946v-2.624c0-0.522-0.424-0.946-0.946-0.946z"></path>
<path d="M17.072 25.179h-2.144c-0.522 0-0.946 0.424-0.946 0.946s0.424 0.946 0.946 0.946h2.144c0.522 0 0.946-0.424 0.946-0.946s-0.424-0.946-0.946-0.946z"></path>
</svg>
