<?xml version="1.0" encoding="iso-8859-1"?>
<!-- Generator: Adobe Illustrator 19.0.0, SVG Export Plug-In . SVG Version: 6.00 Build 0)  -->
<svg version="1.1" id="Capa_1" xmlns="http://www.w3.org/2000/svg" xmlns:xlink="http://www.w3.org/1999/xlink" x="0px" y="0px"
	 viewBox="0 0 512 512" style="enable-background:new 0 0 512 512;" xml:space="preserve">
<g>
	<g>
		<path d="M0,69.356v125.924h31v22.365c0,60.1,23.404,116.602,65.901,159.099C139.398,419.24,195.9,442.644,256,442.644
			c60.1,0,116.602-23.404,159.099-65.901C457.596,334.247,481,277.745,481,217.645v-22.365h31V69.356H0z M451,217.645
			c0,107.523-87.477,195-195,195s-195-87.477-195-195v-22.365h390V217.645z M482,165.279h-1H31h-1V99.356h452V165.279z"/>
	</g>
</g>
<g>
	<g>
		<path d="M256,212.355c-49.805,0-90.325,40.52-90.325,90.325c0,49.806,40.519,90.325,90.325,90.325
			c49.806,0,90.325-40.52,90.325-90.325C346.325,252.873,305.805,212.355,256,212.355z M256,363.005
			c-33.264,0-60.325-27.062-60.325-60.325s27.061-60.325,60.325-60.325c33.264,0,60.325,27.061,60.325,60.325
			C316.325,335.943,289.263,363.005,256,363.005z"/>
	</g>
</g>
<g>
	<g>
		<path d="M256,260.354c-23.338,0-42.325,18.987-42.325,42.325c0,23.339,18.987,42.325,42.325,42.325s42.325-18.987,42.325-42.325
			S279.338,260.354,256,260.354z M256,315.005c-6.796,0-12.325-5.529-12.325-12.325s5.529-12.325,12.325-12.325
			s12.325,5.529,12.325,12.325S262.796,315.005,256,315.005z"/>
	</g>
</g>
<g>
	<g>
		<rect x="376.5" y="117.32" width="30" height="30"/>
	</g>
</g>
<g>
	<g>
		<rect x="430" y="117.32" width="30" height="30"/>
	</g>
</g>
<g>
</g>
<g>
</g>
<g>
</g>
<g>
</g>
<g>
</g>
<g>
</g>
<g>
</g>
<g>
</g>
<g>
</g>
<g>
</g>
<g>
</g>
<g>
</g>
<g>
</g>
<g>
</g>
<g>
</g>
</svg>
