<?xml version="1.0" encoding="iso-8859-1"?>
<!-- Generator: Adobe Illustrator 19.0.0, SVG Export Plug-In . SVG Version: 6.00 Build 0)  -->
<svg version="1.1" id="Capa_1" xmlns="http://www.w3.org/2000/svg" xmlns:xlink="http://www.w3.org/1999/xlink" x="0px" y="0px"
	 viewBox="0 0 512 512" style="enable-background:new 0 0 512 512;" xml:space="preserve">
<g>
	<g>
		<path d="M447.676,272.868l-176.36-119.226v-12.527c0-7.908,4.435-15.035,11.297-18.156c24.1-10.957,38.885-35.145,37.669-61.62
			c-0.735-16-7.411-31.082-18.798-42.47C290.1,7.482,275.016,0.807,259.016,0.071c-17.781-0.823-34.625,5.484-47.458,17.742
			c-12.839,12.263-19.91,28.791-19.91,46.541c0,8.459,6.857,15.316,15.316,15.316c8.459,0,15.316-6.857,15.316-15.316
			c0-9.301,3.705-17.963,10.435-24.39c6.723-6.422,15.565-9.732,24.895-9.294c17.195,0.789,31.283,14.878,32.073,32.073
			c0.638,13.894-7.113,26.584-19.747,32.329c-17.77,8.08-29.251,26.152-29.251,46.041v12.527L64.324,272.868
			c-13.838,9.355-19.618,25.719-14.726,41.69c4.892,15.971,18.846,26.29,35.548,26.29h66.397v155.835
			c0,8.458,6.857,15.316,15.316,15.316h178.28c8.458,0,15.316-6.858,15.316-15.316V340.849h66.397
			c16.703,0,30.657-10.319,35.548-26.29C467.294,298.587,461.514,282.223,447.676,272.868z M329.824,481.368H182.176V306.631
			h147.648V481.368z M433.113,305.587c-0.53,1.729-2.047,4.63-6.26,4.63h-66.397v-18.902c0-8.458-6.858-15.316-15.316-15.316H166.86
			c-8.459,0-15.316,6.857-15.316,15.316v18.902H85.147c-4.213,0-5.73-2.901-6.26-4.63c-0.53-1.729-0.896-4.983,2.594-7.341
			L256,180.263l174.52,117.982C434.01,300.604,433.643,303.858,433.113,305.587z"/>
	</g>
</g>
<g>
</g>
<g>
</g>
<g>
</g>
<g>
</g>
<g>
</g>
<g>
</g>
<g>
</g>
<g>
</g>
<g>
</g>
<g>
</g>
<g>
</g>
<g>
</g>
<g>
</g>
<g>
</g>
<g>
</g>
</svg>
