<!-- Generated by IcoMoon.io -->
<svg version="1.1" xmlns="http://www.w3.org/2000/svg" width="32" height="32" viewBox="0 0 32 32">
<title>hanger</title>
<path d="M27.98 17.054l-11.023-7.452v-0.783c0-0.494 0.277-0.94 0.706-1.135 1.506-0.685 2.43-2.197 2.354-3.851-0.046-1-0.463-1.943-1.175-2.654s-1.654-1.129-2.654-1.175c-1.111-0.051-2.164 0.343-2.966 1.109s-1.244 1.799-1.244 2.909c0 0.529 0.429 0.957 0.957 0.957s0.957-0.429 0.957-0.957c0-0.581 0.232-1.123 0.652-1.524s0.973-0.608 1.556-0.581c1.075 0.049 1.955 0.93 2.005 2.005 0.040 0.868-0.445 1.662-1.234 2.021-1.111 0.505-1.828 1.635-1.828 2.878v0.783l-11.023 7.452c-0.865 0.585-1.226 1.607-0.92 2.606s1.178 1.643 2.222 1.643h4.15v9.74c0 0.529 0.429 0.957 0.957 0.957h11.143c0.529 0 0.957-0.429 0.957-0.957v-9.74h4.15c1.044 0 1.916-0.645 2.222-1.643s-0.055-2.021-0.92-2.606zM20.614 30.085h-9.228v-10.921h9.228v10.921zM27.070 19.099c-0.033 0.108-0.128 0.289-0.391 0.289h-4.15v-1.181c0-0.529-0.429-0.957-0.957-0.957h-11.143c-0.529 0-0.957 0.429-0.957 0.957v1.181h-4.15c-0.263 0-0.358-0.181-0.391-0.289s-0.056-0.311 0.162-0.459l10.907-7.374 10.907 7.374c0.218 0.147 0.195 0.351 0.162 0.459z"></path>
</svg>
