<!-- Generated by IcoMoon.io -->
<svg version="1.1" xmlns="http://www.w3.org/2000/svg" width="32" height="32" viewBox="0 0 32 32">
<title>toilet1</title>
<path d="M28.049 10.419h-17.029v-10.419h-9.671v11.883c0 2.156 1.747 3.911 3.9 3.926v6.469c0 1.953 1.588 3.541 3.541 3.541h0.359v6.181h7.894v-6.71h2.365c5.229 0 9.483-4.254 9.483-9.483v-0.138c1.024-0.351 1.763-1.322 1.763-2.463v-0.184c0-1.436-1.168-2.604-2.604-2.604zM3.219 1.872h5.928v1.684h-5.928v-1.684zM5.274 13.938c-1.133-0-2.055-0.922-2.055-2.055v-6.456h5.928v8.511h-3.873zM19.407 23.419h-4.236v6.71h-4.151v-6.181h-2.23c-0.921 0-1.67-0.749-1.67-1.669v-6.468h19.898c-0.001 4.196-3.415 7.609-7.611 7.609zM28.78 13.206c0 0.404-0.328 0.732-0.732 0.732h-17.029v-1.648h17.029c0.404 0 0.732 0.328 0.732 0.732v0.184z"></path>
</svg>
