<?xml version="1.0" encoding="iso-8859-1"?>
<!-- Generator: Adobe Illustrator 19.0.0, SVG Export Plug-In . SVG Version: 6.00 Build 0)  -->
<svg version="1.1" id="Capa_1" xmlns="http://www.w3.org/2000/svg" xmlns:xlink="http://www.w3.org/1999/xlink" x="0px" y="0px"
	 viewBox="0 0 512 512" style="enable-background:new 0 0 512 512;" xml:space="preserve">
<g>
	<g>
		<path d="M448.776,166.7h-272.47V0H21.567v190.136c0,34.498,27.953,62.58,62.397,62.809V356.45
			c0,31.241,25.416,56.657,56.657,56.657h5.74V512h126.306V404.647h37.837c83.661,0,151.725-68.063,151.725-151.725v-2.208
			c16.386-5.609,28.204-21.153,28.204-39.416v-2.941C490.433,185.387,471.746,166.7,448.776,166.7z M51.511,29.945h94.85v26.951
			h-94.85V29.945z M84.386,223.011c-18.127-0.001-32.874-14.748-32.874-32.875V86.841h94.85v136.17H84.386z M310.504,374.702
			h-67.782v107.353h-66.416v-98.894H140.62c-14.729,0-26.712-11.983-26.712-26.712V252.956h318.374
			C432.265,320.089,377.642,374.702,310.504,374.702z M460.488,211.298c0,6.458-5.254,11.712-11.712,11.712h-272.47v-26.365h272.47
			c6.458,0,11.712,5.254,11.712,11.712V211.298z"/>
	</g>
</g>
<g>
</g>
<g>
</g>
<g>
</g>
<g>
</g>
<g>
</g>
<g>
</g>
<g>
</g>
<g>
</g>
<g>
</g>
<g>
</g>
<g>
</g>
<g>
</g>
<g>
</g>
<g>
</g>
<g>
</g>
</svg>
