<!-- Generated by IcoMoon.io -->
<svg version="1.1" xmlns="http://www.w3.org/2000/svg" width="32" height="32" viewBox="0 0 32 32">
<title>bath</title>
<path d="M31.599 18.62c0-0.528-0.428-0.955-0.955-0.955h-1.912v-13.025c0-2.558-2.082-4.64-4.64-4.64s-4.64 2.082-4.64 4.64v1.742c0 0.528 0.428 0.955 0.955 0.955s0.955-0.428 0.955-0.955v-1.742c0-1.505 1.224-2.729 2.729-2.729s2.729 1.224 2.729 2.729v13.025h-25.465c-0.528 0-0.955 0.428-0.955 0.955 0 4.311 2.727 7.998 6.546 9.426-0.735 0.772-1.189 1.831-1.189 2.999 0 0.528 0.428 0.955 0.955 0.955s0.955-0.428 0.955-0.955c0-1.304 0.995-2.366 2.219-2.366 0.045 0 12.18 0 12.225 0 1.224 0 2.219 1.061 2.219 2.366 0 0.528 0.428 0.955 0.955 0.955s0.955-0.428 0.955-0.955c0-1.167-0.454-2.226-1.189-2.999 3.82-1.428 6.546-5.114 6.546-9.425zM21.54 26.768h-11.081c-4.17 0-7.618-3.148-8.092-7.193h27.266c-0.474 4.044-3.923 7.193-8.092 7.193z"></path>
<path d="M20.407 8.994c-0.528 0-0.955 0.428-0.955 0.955v0.828c0 0.528 0.428 0.955 0.955 0.955s0.955-0.428 0.955-0.955v-0.828c-0-0.528-0.428-0.955-0.955-0.955z"></path>
<path d="M20.407 13.58c-0.528 0-0.955 0.428-0.955 0.955v0.828c0 0.528 0.428 0.955 0.955 0.955s0.955-0.428 0.955-0.955v-0.828c-0-0.528-0.428-0.955-0.955-0.955z"></path>
</svg>
