<?xml version="1.0" encoding="iso-8859-1"?>
<!-- Generator: Adobe Illustrator 19.0.0, SVG Export Plug-In . SVG Version: 6.00 Build 0)  -->
<svg version="1.1" id="Capa_1" xmlns="http://www.w3.org/2000/svg" xmlns:xlink="http://www.w3.org/1999/xlink" x="0px" y="0px"
	 viewBox="0 0 512 512" style="enable-background:new 0 0 512 512;" xml:space="preserve">
<g>
	<g>
		<path d="M466.646,0H45.354c-8.349,0-15.118,6.769-15.118,15.118v481.764c0,8.349,6.769,15.118,15.118,15.118h421.292
			c8.349,0,15.118-6.769,15.118-15.118V15.118C481.764,6.769,474.996,0,466.646,0z M240.885,481.764h-93.597V155.218h93.597V481.764
			z M364.712,481.764h-93.591V155.218h93.591V481.764z M451.528,481.764h-56.58V140.1c0-8.349-6.769-15.118-15.118-15.118H132.17
			c-8.349,0-15.118,6.769-15.118,15.118v341.665h-56.58V30.236h391.056V481.764z"/>
	</g>
</g>
<g>
	<g>
		<path d="M307.404,62.496H204.602c-8.349,0-15.118,6.769-15.118,15.118s6.769,15.118,15.118,15.118h102.802
			c8.349,0,15.118-6.769,15.118-15.118S315.753,62.496,307.404,62.496z"/>
	</g>
</g>
<g>
</g>
<g>
</g>
<g>
</g>
<g>
</g>
<g>
</g>
<g>
</g>
<g>
</g>
<g>
</g>
<g>
</g>
<g>
</g>
<g>
</g>
<g>
</g>
<g>
</g>
<g>
</g>
<g>
</g>
</svg>
