<!-- Generated by IcoMoon.io -->
<svg version="1.1" xmlns="http://www.w3.org/2000/svg" width="32" height="32" viewBox="0 0 32 32">
<title>lift</title>
<path d="M29.165 0h-26.331c-0.522 0-0.945 0.423-0.945 0.945v30.11c0 0.522 0.423 0.945 0.945 0.945h26.331c0.522 0 0.945-0.423 0.945-0.945v-30.11c0-0.522-0.423-0.945-0.945-0.945zM15.055 30.11h-5.85v-20.409h5.85v20.409zM22.794 30.11h-5.849v-20.409h5.849v20.409zM28.221 30.11h-3.536v-21.354c0-0.522-0.423-0.945-0.945-0.945h-15.479c-0.522 0-0.945 0.423-0.945 0.945v21.354h-3.536v-28.221h24.441v28.221z"></path>
<path d="M19.213 3.906h-6.425c-0.522 0-0.945 0.423-0.945 0.945s0.423 0.945 0.945 0.945h6.425c0.522 0 0.945-0.423 0.945-0.945s-0.423-0.945-0.945-0.945z"></path>
</svg>
