<!-- Generated by IcoMoon.io -->
<svg version="1.1" xmlns="http://www.w3.org/2000/svg" width="32" height="32" viewBox="0 0 32 32">
<title>plug</title>
<path d="M11.659 8.631h6.188v1.875h-6.188v-1.875z"></path>
<path d="M11.659 12.119h6.188v1.875h-6.188v-1.875z"></path>
<path d="M23.624 25.613h-5.908c-1.117 0-2.025-0.908-2.025-2.025v-0.852h2.27v-4.286c2.759-1.232 4.686-4.001 4.686-7.212v-4.117h1.677v-1.875h-4.603v-5.247h-1.875v5.247h-6.185v-5.247h-1.875v5.247h-4.603v1.875h1.676v4.117c0 3.211 1.928 5.98 4.686 7.212v4.286h2.27v0.852c0 2.151 1.75 3.9 3.9 3.9h5.908c0.727 0 1.319 0.592 1.319 1.319s-0.591 1.319-1.319 1.319h-9.714v1.875h9.714c1.761 0 3.194-1.433 3.194-3.194s-1.433-3.194-3.194-3.194zM8.734 11.238v-4.117h12.037v4.117c0 3.319-2.7 6.019-6.019 6.019s-6.019-2.7-6.019-6.019zM13.421 20.861v-1.842h0c0.433 0.074 0.878 0.113 1.332 0.113s0.899-0.039 1.332-0.113v1.842h-2.664z"></path>
</svg>
