<?xml version="1.0" encoding="iso-8859-1"?>
<!-- Generator: Adobe Illustrator 19.0.0, SVG Export Plug-In . SVG Version: 6.00 Build 0)  -->
<svg version="1.1" id="Capa_1" xmlns="http://www.w3.org/2000/svg" xmlns:xlink="http://www.w3.org/1999/xlink" x="0px" y="0px"
	 viewBox="0 0 512 512" style="enable-background:new 0 0 512 512;" xml:space="preserve">
<g>
	<g>
		<rect x="186.55" y="138.09" width="99" height="30"/>
	</g>
</g>
<g>
	<g>
		<rect x="186.55" y="193.9" width="99" height="30"/>
	</g>
</g>
<g>
	<g>
		<path d="M377.977,409.803h-94.528c-17.866,0-32.401-14.535-32.401-32.401v-13.624h36.314v-68.571
			c44.141-19.706,74.984-64.013,74.984-115.394v-65.869h26.824v-30h-73.646V0h-30v83.944H186.57V0h-30v83.944H82.924v30h26.824
			v65.869c0,51.381,30.843,95.688,74.984,115.394v68.571h36.314v13.624c0,34.408,27.993,62.401,62.401,62.401h94.528
			c11.634,0,21.099,9.465,21.099,21.099c0,11.634-9.463,21.098-21.097,21.098h-155.43v30h155.43
			c28.176,0,51.099-22.923,51.099-51.099C429.076,432.726,406.153,409.803,377.977,409.803z M139.749,179.813v-65.869h192.598
			v65.869c0,53.1-43.199,96.299-96.299,96.299C182.948,276.112,139.749,232.913,139.749,179.813z M214.732,333.778v-29.474h0.001
			c6.931,1.183,14.051,1.808,21.314,1.808s14.383-0.625,21.314-1.808v29.474H214.732z"/>
	</g>
</g>
<g>
</g>
<g>
</g>
<g>
</g>
<g>
</g>
<g>
</g>
<g>
</g>
<g>
</g>
<g>
</g>
<g>
</g>
<g>
</g>
<g>
</g>
<g>
</g>
<g>
</g>
<g>
</g>
<g>
</g>
</svg>
