<!-- Generated by IcoMoon.io -->
<svg version="1.1" xmlns="http://www.w3.org/2000/svg" width="32" height="32" viewBox="0 0 32 32">
<title>shower</title>
<path d="M20.823 0h-1.802c-4.345 0-7.932 3.308-8.375 7.538-3.378 0.41-6.058 3.117-6.425 6.508h-1.465v5.212h17.562v-5.212h-1.465c-0.363-3.356-2.991-6.042-6.32-6.495 0.427-3.2 3.174-5.677 6.489-5.677h1.802c3.61 0 6.547 2.937 6.547 6.547v23.578h1.875v-23.578c0-4.644-3.778-8.422-8.422-8.422zM18.443 17.383h-13.812v-1.462h13.812v1.462zM16.963 14.046h-10.853c0.387-2.648 2.673-4.687 5.426-4.687s5.039 2.040 5.426 4.687z"></path>
<path d="M4.678 21.194h1.875v2.129h-1.875v-2.129z"></path>
<path d="M4.678 25.194h1.875v2.129h-1.875v-2.129z"></path>
<path d="M4.678 29.194h1.875v2.129h-1.875v-2.129z"></path>
<path d="M8.619 21.194h1.875v2.129h-1.875v-2.129z"></path>
<path d="M8.619 25.194h1.875v2.129h-1.875v-2.129z"></path>
<path d="M8.619 29.194h1.875v2.129h-1.875v-2.129z"></path>
<path d="M12.561 21.194h1.875v2.129h-1.875v-2.129z"></path>
<path d="M12.561 25.194h1.875v2.129h-1.875v-2.129z"></path>
<path d="M12.561 29.194h1.875v2.129h-1.875v-2.129z"></path>
<path d="M16.503 21.194h1.875v2.129h-1.875v-2.129z"></path>
<path d="M16.503 25.194h1.875v2.129h-1.875v-2.129z"></path>
<path d="M16.503 29.194h1.875v2.129h-1.875v-2.129z"></path>
</svg>
