<?xml version="1.0" encoding="iso-8859-1"?>
<!-- Generator: Adobe Illustrator 19.0.0, SVG Export Plug-In . SVG Version: 6.00 Build 0)  -->
<svg version="1.1" id="Capa_1" xmlns="http://www.w3.org/2000/svg" xmlns:xlink="http://www.w3.org/1999/xlink" x="0px" y="0px"
	 viewBox="0 0 512 512" style="enable-background:new 0 0 512 512;" xml:space="preserve">
<g>
	<g>
		<path d="M437.019,74.981C388.667,26.629,324.38,0,256,0S123.333,26.629,74.981,74.981C26.629,123.333,0,187.62,0,256
			s26.629,132.667,74.981,181.019C123.333,485.37,187.62,512,256,512s132.667-26.629,181.019-74.981
			C485.37,388.667,512,324.38,512,256S485.37,123.333,437.019,74.981z M256,481.645C131.579,481.645,30.355,380.421,30.355,256
			S131.579,30.355,256,30.355S481.645,131.579,481.645,256S380.421,481.645,256,481.645z"/>
	</g>
</g>
<g>
	<g>
		<path d="M256,126.481c-71.417,0-129.519,58.102-129.519,129.519S184.583,385.519,256,385.519S385.519,327.417,385.519,256
			S327.417,126.481,256,126.481z M256,355.164c-54.679,0-99.164-44.485-99.164-99.164s44.485-99.164,99.164-99.164
			s99.164,44.485,99.164,99.164S310.679,355.164,256,355.164z"/>
	</g>
</g>
<g>
	<g>
		<path d="M297.653,229.525c0-22.967-18.686-41.653-41.653-41.653s-41.653,18.686-41.653,41.653c0,10.047,3.576,19.275,9.521,26.477
			c-5.946,7.202-9.521,16.429-9.521,26.476c0,22.967,18.686,41.653,41.653,41.653c22.967,0,41.653-18.686,41.653-41.653
			c0-10.047-3.576-19.274-9.521-26.476C294.077,248.8,297.653,239.572,297.653,229.525z M256,293.775
			c-6.229,0-11.297-5.068-11.297-11.297s5.068-11.296,11.297-11.296c6.229,0,11.297,5.067,11.297,11.296
			S262.229,293.775,256,293.775z M256,240.822c-6.229,0-11.297-5.068-11.297-11.297c0-6.229,5.068-11.297,11.297-11.297
			s11.297,5.068,11.297,11.297C267.297,235.754,262.229,240.822,256,240.822z"/>
	</g>
</g>
<g>
</g>
<g>
</g>
<g>
</g>
<g>
</g>
<g>
</g>
<g>
</g>
<g>
</g>
<g>
</g>
<g>
</g>
<g>
</g>
<g>
</g>
<g>
</g>
<g>
</g>
<g>
</g>
<g>
</g>
</svg>
