<?xml version="1.0" encoding="iso-8859-1"?>
<!-- Generator: Adobe Illustrator 19.0.0, SVG Export Plug-In . SVG Version: 6.00 Build 0)  -->
<svg version="1.1" id="Capa_1" xmlns="http://www.w3.org/2000/svg" xmlns:xlink="http://www.w3.org/1999/xlink" x="0px" y="0px"
	 viewBox="0 0 512 512" style="enable-background:new 0 0 512 512;" xml:space="preserve">
<g>
	<g>
		<path d="M437.02,74.98C388.668,26.629,324.382,0,256.001,0S123.334,26.629,74.982,74.98S0,187.62,0,256.001
			s26.629,132.667,74.98,181.019S187.62,512,256,512s132.667-26.629,181.019-74.98C485.371,388.668,512,324.38,512,256
			S485.373,123.333,437.02,74.98z M331.862,44.132c63.162,22.684,113.327,72.85,136.009,136.013l-106.847,14.222
			c-10.535-17.883-25.503-32.852-43.385-43.388L331.862,44.132z M346.846,256.001c0,50.092-40.753,90.845-90.845,90.845
			c-50.092,0-90.845-40.753-90.845-90.845c0-50.092,40.753-90.845,90.845-90.845C306.093,165.156,346.846,205.909,346.846,256.001z
			 M256.001,30.961c15.674,0,30.977,1.616,45.756,4.68l-13.689,102.844c-10.222-2.793-20.972-4.292-32.067-4.292
			c-11.092,0-21.84,1.5-32.06,4.29l-13.69-102.844C225.028,32.576,240.328,30.961,256.001,30.961z M180.145,44.13l14.222,106.847
			c-17.883,10.535-32.852,25.503-43.388,43.385L44.132,180.14C66.817,116.977,116.983,66.813,180.145,44.13z M30.962,256.001
			c0-15.675,1.616-30.978,4.68-45.756l102.844,13.689c-2.793,10.222-4.292,20.972-4.292,32.067c0,11.092,1.5,21.84,4.29,32.06
			L35.64,301.751C32.577,286.973,30.962,271.672,30.962,256.001z M180.139,467.869C116.978,445.184,66.813,395.018,44.13,331.855
			l106.847-14.222c10.535,17.883,25.503,32.852,43.385,43.388L180.139,467.869z M256.001,481.04
			c-15.675-0.001-30.978-1.616-45.756-4.681l13.689-102.844c10.222,2.793,20.972,4.292,32.067,4.292c11.092,0,21.84-1.5,32.06-4.29
			l13.69,102.844C286.974,479.425,271.672,481.04,256.001,481.04z M331.856,467.87l-14.222-106.847
			c17.883-10.535,32.852-25.503,43.388-43.385l106.849,14.222C445.184,395.023,395.018,445.188,331.856,467.87z M373.515,288.068
			c2.793-10.222,4.292-20.972,4.292-32.067c0-11.092-1.5-21.84-4.29-32.06l102.844-13.69c3.063,14.777,4.678,30.078,4.678,45.75
			c0,15.675-1.616,30.978-4.68,45.756L373.515,288.068z"/>
	</g>
</g>
<g>
</g>
<g>
</g>
<g>
</g>
<g>
</g>
<g>
</g>
<g>
</g>
<g>
</g>
<g>
</g>
<g>
</g>
<g>
</g>
<g>
</g>
<g>
</g>
<g>
</g>
<g>
</g>
<g>
</g>
</svg>
