<!-- Generated by IcoMoon.io -->
<svg version="1.1" xmlns="http://www.w3.org/2000/svg" width="32" height="32" viewBox="0 0 32 32">
<title>lifesaver</title>
<path d="M27.314 4.686c-3.022-3.022-7.040-4.686-11.314-4.686s-8.292 1.664-11.314 4.686-4.686 7.040-4.686 11.314 1.664 8.292 4.686 11.314 7.040 4.686 11.314 4.686 8.292-1.664 11.314-4.686c3.022-3.022 4.686-7.040 4.686-11.314s-1.664-8.292-4.686-11.314zM20.741 2.758c3.948 1.418 7.083 4.553 8.501 8.501l-6.678 0.889c-0.658-1.118-1.594-2.053-2.712-2.712l0.889-6.678zM21.678 16c0 3.131-2.547 5.678-5.678 5.678s-5.678-2.547-5.678-5.678c0-3.131 2.547-5.678 5.678-5.678s5.678 2.547 5.678 5.678zM16 1.935c0.98 0 1.936 0.101 2.86 0.292l-0.856 6.428c-0.639-0.175-1.311-0.268-2.004-0.268s-1.365 0.094-2.004 0.268l-0.856-6.428c0.924-0.191 1.88-0.292 2.859-0.292zM11.259 2.758l0.889 6.678c-1.118 0.658-2.053 1.594-2.712 2.712l-6.678-0.889c1.418-3.948 4.553-7.083 8.501-8.501zM1.935 16c0-0.98 0.101-1.936 0.292-2.86l6.428 0.856c-0.175 0.639-0.268 1.311-0.268 2.004s0.094 1.365 0.268 2.004l-6.428 0.856c-0.191-0.924-0.292-1.88-0.292-2.859zM11.259 29.242c-3.948-1.418-7.083-4.553-8.501-8.501l6.678-0.889c0.658 1.118 1.594 2.053 2.712 2.712l-0.889 6.678zM16 30.065c-0.98-0-1.936-0.101-2.86-0.293l0.856-6.428c0.639 0.175 1.311 0.268 2.004 0.268s1.365-0.094 2.004-0.268l0.856 6.428c-0.924 0.192-1.88 0.292-2.859 0.292zM20.741 29.242l-0.889-6.678c1.118-0.658 2.053-1.594 2.712-2.712l6.678 0.889c-1.418 3.948-4.553 7.083-8.501 8.501zM23.345 18.004c0.175-0.639 0.268-1.311 0.268-2.004s-0.094-1.365-0.268-2.004l6.428-0.856c0.191 0.924 0.292 1.88 0.292 2.859s-0.101 1.936-0.293 2.86l-6.428-0.856z"></path>
</svg>
