<!-- Generated by IcoMoon.io -->
<svg version="1.1" xmlns="http://www.w3.org/2000/svg" width="32" height="32" viewBox="0 0 32 32">
<title>swimming-pool-1</title>
<path d="M29.536 23.445c-0.428-0.302-1.020-0.201-1.322 0.227-0.004 0.006-0.431 0.576-1.234 0.943-1.14 0.522-2.468 0.394-3.946-0.381-0.059-0.031-0.118-0.061-0.178-0.092v-17.379c0-2.683 2.183-4.866 4.866-4.866 0.524 0 0.949-0.425 0.949-0.949s-0.425-0.949-0.949-0.949c-3.729 0-6.764 3.034-6.764 6.764v2.897h-14.838v-2.897c0-2.683 2.183-4.866 4.866-4.866 0.524 0 0.949-0.425 0.949-0.949s-0.425-0.949-0.949-0.949c-3.729 0-6.764 3.034-6.764 6.764v16.642c-0.529 0.206-1.065 0.433-1.608 0.683-0.476 0.219-0.684 0.782-0.465 1.258s0.783 0.684 1.259 0.465c8.162-3.757 14.698-2.018 18.744 0.103 1.284 0.673 2.412 0.91 3.365 0.91 0.921 0 1.678-0.221 2.253-0.485 1.266-0.58 1.922-1.473 1.993-1.573 0.302-0.428 0.201-1.020-0.227-1.322zM20.958 23.276c-3.734-1.502-8.803-2.374-14.838-0.529v-4.501h14.838v5.030zM20.958 16.349h-14.838v-4.791h14.838v4.791z"></path>
<path d="M29.536 28.62c-0.428-0.302-1.020-0.201-1.322 0.227-0.004 0.006-0.431 0.576-1.234 0.943-1.14 0.523-2.468 0.394-3.946-0.381-4.423-2.319-11.556-4.226-20.418-0.146-0.476 0.219-0.684 0.782-0.465 1.258s0.783 0.684 1.258 0.465c8.162-3.757 14.698-2.018 18.744 0.103 1.284 0.673 2.412 0.91 3.365 0.91 0.921 0 1.678-0.221 2.253-0.485 1.266-0.58 1.922-1.473 1.993-1.573 0.302-0.428 0.201-1.020-0.227-1.322z"></path>
</svg>
