<?xml version="1.0" encoding="iso-8859-1"?>
<!-- Generator: Adobe Illustrator 19.0.0, SVG Export Plug-In . SVG Version: 6.00 Build 0)  -->
<svg version="1.1" id="Capa_1" xmlns="http://www.w3.org/2000/svg" xmlns:xlink="http://www.w3.org/1999/xlink" x="0px" y="0px"
	 viewBox="0 0 512 512" style="enable-background:new 0 0 512 512;" xml:space="preserve">
<g>
	<g>
		<path d="M0,70.651v322.396h29.986v48.302h105.066v-48.302h241.897v48.302h105.066v-48.302H512V70.651H0z M105.051,411.349H59.986
			v-18.302h45.065V411.349z M353.585,363.047H30V100.651h323.585V363.047z M452.015,411.349h-45.066v-18.302h45.066V411.349z
			 M482,363.047h-98.415V100.651H482V363.047z"/>
	</g>
</g>
<g>
	<g>
		<path d="M56,127.849v208h271v-208H56z M297,305.849H86v-148h211V305.849z"/>
	</g>
</g>
<g>
	<g>
		<rect x="415" y="216.85" width="39" height="30"/>
	</g>
</g>
<g>
	<g>
		<rect x="415" y="145.31" width="39" height="30"/>
	</g>
</g>
<g>
	<g>
		<rect x="415" y="288.39" width="39" height="30"/>
	</g>
</g>
<g>
</g>
<g>
</g>
<g>
</g>
<g>
</g>
<g>
</g>
<g>
</g>
<g>
</g>
<g>
</g>
<g>
</g>
<g>
</g>
<g>
</g>
<g>
</g>
<g>
</g>
<g>
</g>
<g>
</g>
</svg>
