<!-- Generated by IcoMoon.io -->
<svg version="1.1" xmlns="http://www.w3.org/2000/svg" width="32" height="32" viewBox="0 0 32 32">
<title>microwave-1</title>
<path d="M0 4.416v20.15h1.874v3.019h6.567v-3.019h15.119v3.019h6.567v-3.019h1.874v-20.15h-32zM6.566 25.709h-2.817v-1.144h2.817v1.144zM22.099 22.69h-20.224v-16.4h20.224v16.4zM28.251 25.709h-2.817v-1.144h2.817v1.144zM30.125 22.69h-6.151v-16.4h6.151v16.4z"></path>
<path d="M3.5 7.991v13h16.938v-13h-16.938zM18.563 19.116h-13.188v-9.25h13.188v9.25z"></path>
<path d="M25.938 13.553h2.438v1.875h-2.438v-1.875z"></path>
<path d="M25.938 9.082h2.438v1.875h-2.438v-1.875z"></path>
<path d="M25.938 18.024h2.438v1.875h-2.438v-1.875z"></path>
</svg>
