<!-- Generated by IcoMoon.io -->
<svg version="1.1" xmlns="http://www.w3.org/2000/svg" width="32" height="32" viewBox="0 0 32 32">
<title>air-conditioner-2</title>
<path d="M0 4.276v14.161h32v-14.161h-32zM26.125 16.562h-20.25v-1.098h20.25v1.098zM26.125 13.589h-20.25v-1.063h20.25v1.063zM30.125 16.562h-2.125v-5.911h-24v5.911h-2.125v-10.411h28.25v10.411z"></path>
<path d="M12.297 7.443h7.406v1.875h-7.406v-1.875z"></path>
<path d="M16.695 23.363c-0.322-0.356-0.476-0.685-0.458-0.979 0.024-0.402 0.362-0.699 0.365-0.702l-0.011 0.009-1.182-1.455c-0.097 0.079-0.95 0.804-1.041 1.993-0.044 0.571 0.084 1.45 0.937 2.392 0.323 0.357 0.477 0.684 0.458 0.972-0.025 0.384-0.353 0.666-0.356 0.669l0.011-0.009 1.164 1.47c0.097-0.077 0.951-0.785 1.049-1.963 0.047-0.57-0.077-1.449-0.936-2.397z"></path>
<path d="M10.921 23.363c-0.322-0.355-0.476-0.685-0.458-0.978 0.024-0.402 0.362-0.699 0.365-0.702l-0.011 0.009-1.182-1.455c-0.097 0.079-0.95 0.804-1.041 1.993-0.044 0.571 0.084 1.45 0.937 2.392 0.323 0.357 0.477 0.684 0.458 0.972-0.025 0.384-0.353 0.666-0.356 0.669l0.011-0.009 1.164 1.47c0.097-0.077 0.951-0.785 1.049-1.963 0.047-0.57-0.077-1.449-0.936-2.397z"></path>
<path d="M22.469 23.363c-0.322-0.356-0.476-0.685-0.458-0.979 0.024-0.402 0.362-0.699 0.365-0.702l-0.011 0.009-1.182-1.455c-0.097 0.079-0.95 0.804-1.041 1.993-0.044 0.571 0.084 1.45 0.937 2.392 0.323 0.357 0.477 0.684 0.458 0.972-0.025 0.384-0.353 0.666-0.356 0.669l0.011-0.009 1.164 1.47c0.097-0.077 0.951-0.785 1.049-1.963 0.047-0.57-0.077-1.449-0.936-2.397z"></path>
</svg>
