<?xml version="1.0" encoding="iso-8859-1"?>
<!-- Generator: Adobe Illustrator 19.0.0, SVG Export Plug-In . SVG Version: 6.00 Build 0)  -->
<svg version="1.1" id="Capa_1" xmlns="http://www.w3.org/2000/svg" xmlns:xlink="http://www.w3.org/1999/xlink" x="0px" y="0px"
	 viewBox="0 0 512 512" style="enable-background:new 0 0 512 512;" xml:space="preserve">
<g>
	<g>
		<path d="M0,68.421v226.576h512V68.421H0z M418,264.997H94v-17.576h324V264.997z M418,217.421H94v-17h324V217.421z M482,264.997
			h-34v-94.576H64v94.576H30V98.421h452V264.997z"/>
	</g>
</g>
<g>
	<g>
		<rect x="196.75" y="119.089" width="118.49" height="30"/>
	</g>
</g>
<g>
	<g>
		<path d="M267.118,373.815c-5.149-5.689-7.617-10.955-7.333-15.656c0.389-6.438,5.789-11.189,5.844-11.236l-0.17,0.141
			l-18.918-23.283c-1.552,1.261-15.2,12.865-16.655,31.895c-0.698,9.138,1.337,23.195,14.996,38.277
			c5.169,5.707,7.635,10.938,7.33,15.549c-0.407,6.151-5.647,10.655-5.7,10.7l0.178-0.144l18.621,23.522
			c1.554-1.23,15.224-12.561,16.784-31.408C282.85,403.052,280.866,388.994,267.118,373.815z"/>
	</g>
</g>
<g>
	<g>
		<path d="M174.737,373.814c-5.149-5.688-7.617-10.954-7.333-15.655c0.389-6.438,5.789-11.189,5.844-11.236l-0.17,0.141
			l-18.918-23.284c-1.552,1.261-15.2,12.865-16.655,31.895c-0.698,9.138,1.337,23.195,14.996,38.277
			c5.169,5.707,7.635,10.938,7.33,15.549c-0.407,6.151-5.648,10.655-5.7,10.7l0.178-0.144l18.621,23.522
			c1.554-1.23,15.224-12.561,16.784-31.408C190.469,403.051,188.485,388.992,174.737,373.814z"/>
	</g>
</g>
<g>
	<g>
		<path d="M359.499,373.815c-5.149-5.689-7.617-10.955-7.333-15.656c0.389-6.438,5.789-11.189,5.844-11.236l-0.17,0.141
			l-18.918-23.283c-1.552,1.261-15.2,12.865-16.655,31.895c-0.698,9.138,1.337,23.195,14.996,38.277
			c5.169,5.707,7.635,10.938,7.33,15.549c-0.407,6.151-5.647,10.655-5.7,10.7l0.178-0.144l18.621,23.522
			c1.554-1.23,15.224-12.561,16.784-31.408C375.231,403.052,373.247,388.994,359.499,373.815z"/>
	</g>
</g>
<g>
</g>
<g>
</g>
<g>
</g>
<g>
</g>
<g>
</g>
<g>
</g>
<g>
</g>
<g>
</g>
<g>
</g>
<g>
</g>
<g>
</g>
<g>
</g>
<g>
</g>
<g>
</g>
<g>
</g>
</svg>
