<!-- Generated by IcoMoon.io -->
<svg version="1.1" xmlns="http://www.w3.org/2000/svg" width="32" height="32" viewBox="0 0 32 32">
<title>armchair</title>
<path d="M28.798 10.545v-4.411c0-3.095-2.518-5.614-5.614-5.614h-14.369c-3.095 0-5.614 2.518-5.614 5.614v4.411c-1.833 0.431-3.202 2.079-3.202 4.042v5.696c0 4.219 3.19 7.707 7.285 8.18v2.066c0 0.525 0.426 0.951 0.951 0.951s0.951-0.426 0.951-0.951v-2.011h13.627v2.011c0 0.525 0.426 0.951 0.951 0.951s0.951-0.426 0.951-0.951v-2.066c4.095-0.473 7.284-3.961 7.284-8.18v-5.696c0-1.963-1.369-3.61-3.202-4.042zM5.104 6.134c0-2.046 1.665-3.711 3.711-3.711h14.369c2.046 0 3.711 1.665 3.711 3.711v4.411c-1.833 0.431-3.202 2.079-3.202 4.042v5.626h-15.388v-5.625c0-1.963-1.369-3.61-3.202-4.042v-4.411zM30.098 20.283c0 3.492-2.841 6.333-6.333 6.333h-15.529c-3.492 0-6.333-2.841-6.333-6.333v-5.696c0-1.241 1.010-2.251 2.251-2.251s2.251 1.010 2.251 2.251v5.696c0 1.010 0.822 1.832 1.832 1.832h15.529c1.010 0 1.832-0.822 1.832-1.832v-5.696c0-1.241 1.010-2.251 2.251-2.251s2.251 1.010 2.251 2.251v5.696z"></path>
<path d="M13.273 8.103c-0.498 0-0.974 0.437-0.951 0.951 0.023 0.515 0.418 0.951 0.951 0.951 0.498 0 0.974-0.437 0.951-0.951-0.023-0.515-0.418-0.951-0.951-0.951z"></path>
<path d="M13.273 12.991c-0.498 0-0.974 0.437-0.951 0.951 0.023 0.515 0.418 0.951 0.951 0.951 0.498 0 0.974-0.437 0.951-0.951-0.023-0.515-0.418-0.951-0.951-0.951z"></path>
<path d="M18.727 8.103c-0.497 0-0.974 0.437-0.951 0.951 0.023 0.515 0.418 0.951 0.951 0.951 0.497 0 0.974-0.437 0.951-0.951-0.023-0.515-0.418-0.951-0.951-0.951z"></path>
<path d="M18.727 12.991c-0.497 0-0.974 0.437-0.951 0.951 0.023 0.515 0.418 0.951 0.951 0.951 0.497 0 0.974-0.437 0.951-0.951-0.023-0.515-0.418-0.951-0.951-0.951z"></path>
</svg>
