<?xml version="1.0" encoding="iso-8859-1"?>
<!-- Generator: Adobe Illustrator 19.0.0, SVG Export Plug-In . SVG Version: 6.00 Build 0)  -->
<svg version="1.1" id="Capa_1" xmlns="http://www.w3.org/2000/svg" xmlns:xlink="http://www.w3.org/1999/xlink" x="0px" y="0px"
	 viewBox="0 0 512 512" style="enable-background:new 0 0 512 512;" xml:space="preserve">
<g>
	<g>
		<path d="M460.771,168.72V98.141c0-49.526-40.293-89.819-89.819-89.819H141.048c-49.526,0-89.819,40.293-89.819,89.819v70.579
			C21.903,175.621,0,201.987,0,233.388v91.134c0,67.51,51.037,123.315,116.552,130.884v33.053c0,8.404,6.814,15.218,15.218,15.218
			c8.405,0,15.218-6.814,15.218-15.218V456.29h218.025v32.169c0,8.404,6.814,15.218,15.218,15.218s15.218-6.814,15.218-15.218
			v-33.053C460.964,447.837,512,392.032,512,324.522v-91.135C512,201.987,490.097,175.621,460.771,168.72z M81.666,98.141
			c0-32.743,26.639-59.382,59.382-59.382h229.903c32.743,0,59.382,26.639,59.382,59.382v70.579
			c-29.326,6.901-51.229,33.266-51.229,64.668v90.008H132.895v-90.008c0-31.401-21.903-57.767-51.229-64.668V98.141z
			 M481.564,324.522c0,55.874-45.458,101.332-101.333,101.332H131.77c-55.875,0-101.334-45.458-101.334-101.332v-91.135
			c0-19.856,16.155-36.01,36.011-36.01c19.857,0,36.011,16.155,36.011,36.01v91.135c0,16.162,13.148,29.31,29.311,29.31h248.461
			c16.162,0,29.31-13.148,29.31-29.31v-91.135c0-19.856,16.155-36.01,36.011-36.01c19.857,0,36.011,16.155,36.011,36.01V324.522z"/>
	</g>
</g>
<g>
	<g>
		<path d="M212.375,129.653c-7.96,0-15.586,6.999-15.218,15.218c0.369,8.245,6.687,15.218,15.218,15.218
			c7.96,0,15.586-6.999,15.218-15.218C227.223,136.626,220.906,129.653,212.375,129.653z"/>
	</g>
</g>
<g>
	<g>
		<path d="M212.375,207.855c-7.96,0-15.586,6.999-15.218,15.218c0.369,8.245,6.687,15.218,15.218,15.218
			c7.96,0,15.586-6.999,15.218-15.218C227.223,214.828,220.906,207.855,212.375,207.855z"/>
	</g>
</g>
<g>
	<g>
		<path d="M299.625,129.653c-7.96,0-15.586,6.999-15.218,15.218c0.369,8.245,6.687,15.218,15.218,15.218
			c7.96,0,15.586-6.999,15.218-15.218C314.474,136.626,308.157,129.653,299.625,129.653z"/>
	</g>
</g>
<g>
	<g>
		<path d="M299.625,207.855c-7.96,0-15.586,6.999-15.218,15.218c0.369,8.245,6.687,15.218,15.218,15.218
			c7.96,0,15.586-6.999,15.218-15.218C314.474,214.828,308.157,207.855,299.625,207.855z"/>
	</g>
</g>
<g>
</g>
<g>
</g>
<g>
</g>
<g>
</g>
<g>
</g>
<g>
</g>
<g>
</g>
<g>
</g>
<g>
</g>
<g>
</g>
<g>
</g>
<g>
</g>
<g>
</g>
<g>
</g>
<g>
</g>
</svg>
