<!-- Generated by IcoMoon.io -->
<svg version="1.1" xmlns="http://www.w3.org/2000/svg" width="32" height="32" viewBox="0 0 32 32">
<title>parking</title>
<path d="M26.84 0h-21.681c-2.845 0-5.16 2.315-5.16 5.16v21.681c0 2.845 2.315 5.16 5.16 5.16h21.681c2.845 0 5.16-2.315 5.16-5.16v-21.681c0-2.845-2.315-5.16-5.16-5.16zM30.11 26.84c0 1.803-1.467 3.27-3.27 3.27h-21.681c-1.803 0-3.27-1.467-3.27-3.27v-21.681c0-1.803 1.467-3.27 3.27-3.27h21.681c1.803 0 3.27 1.467 3.27 3.27v21.681z"></path>
<path d="M16.661 5.26h-4.519c-1.737 0-3.15 1.413-3.15 3.15v17.385c0 0.522 0.423 0.945 0.945 0.945h4.409c0.522 0 0.945-0.423 0.945-0.945v-5.322h1.37c4.194 0 7.606-3.412 7.606-7.606s-3.412-7.606-7.606-7.606zM16.661 18.583h-2.315c-0.522 0-0.945 0.423-0.945 0.945v5.322h-2.52v-16.44c0-0.695 0.565-1.26 1.26-1.26h4.519c3.152 0 5.716 2.564 5.716 5.716s-2.564 5.716-5.716 5.716z"></path>
<path d="M16.661 9.67h-2.315c-0.522 0-0.945 0.423-0.945 0.945v4.503c0 0.522 0.423 0.945 0.945 0.945h2.315c1.763 0 3.197-1.434 3.197-3.197s-1.434-3.197-3.197-3.197zM16.661 14.173h-1.37v-2.614h1.37c0.721 0 1.307 0.586 1.307 1.307s-0.586 1.307-1.307 1.307z"></path>
</svg>
