<?xml version="1.0" encoding="iso-8859-1"?>
<!-- Generator: Adobe Illustrator 19.0.0, SVG Export Plug-In . SVG Version: 6.00 Build 0)  -->
<svg version="1.1" id="Capa_1" xmlns="http://www.w3.org/2000/svg" xmlns:xlink="http://www.w3.org/1999/xlink" x="0px" y="0px"
	 viewBox="0 0 512 512" style="enable-background:new 0 0 512 512;" xml:space="preserve">
<g>
	<g>
		<path d="M0,46.25v366.094h32.5v53.406h128v-53.406h191v53.406h128v-53.406H512V46.25H0z M130.5,435.75h-68v-23.406h68V435.75z
			 M449.5,435.75h-68v-23.406h68V435.75z M482,382.344H30V76.25h452V382.344z"/>
	</g>
</g>
<g>
	<g>
		<path d="M53.5,100.25v258h405v-258H53.5z M428.5,328.25h-345v-198h345V328.25z"/>
	</g>
</g>
<g>
	<g>
		<path d="M338.042,164.314c-35.805,0-64.936,29.131-64.936,64.936s29.13,64.936,64.936,64.936
			c35.806,0,64.936-29.131,64.936-64.936S373.847,164.314,338.042,164.314z M338.042,264.186c-19.263,0-34.936-15.673-34.936-34.936
			s15.672-34.936,34.936-34.936c19.264,0,34.936,15.673,34.936,34.936S357.305,264.186,338.042,264.186z"/>
	</g>
</g>
<g>
	<g>
		<circle cx="338.04" cy="229.25" r="15"/>
	</g>
</g>
<g>
</g>
<g>
</g>
<g>
</g>
<g>
</g>
<g>
</g>
<g>
</g>
<g>
</g>
<g>
</g>
<g>
</g>
<g>
</g>
<g>
</g>
<g>
</g>
<g>
</g>
<g>
</g>
<g>
</g>
</svg>
