<!-- Generated by IcoMoon.io -->
<svg version="1.1" xmlns="http://www.w3.org/2000/svg" width="32" height="32" viewBox="0 0 32 32">
<title>safebox</title>
<path d="M0 2.891v22.881h2.031v3.338h8v-3.338h11.938v3.338h8v-3.338h2.031v-22.881h-32zM8.156 27.234h-4.25v-1.463h4.25v1.463zM28.094 27.234h-4.25v-1.463h4.25v1.463zM30.125 23.896h-28.25v-19.131h28.25v19.131z"></path>
<path d="M3.344 6.266v16.125h25.313v-16.125h-25.313zM26.781 20.516h-21.563v-12.375h21.563v12.375z"></path>
<path d="M21.128 10.27c-2.238 0-4.058 1.821-4.058 4.059s1.821 4.059 4.059 4.059c2.238 0 4.059-1.821 4.059-4.059s-1.821-4.059-4.059-4.059zM21.128 16.512c-1.204 0-2.183-0.98-2.183-2.184s0.98-2.184 2.183-2.184c1.204 0 2.183 0.98 2.183 2.184s-0.98 2.184-2.183 2.184z"></path>
<path d="M22.065 14.328c0 0.518-0.42 0.938-0.938 0.938s-0.938-0.42-0.938-0.938c0-0.518 0.42-0.938 0.938-0.938s0.938 0.42 0.938 0.938z"></path>
</svg>
