<?xml version="1.0" encoding="iso-8859-1"?>
<!-- Generator: Adobe Illustrator 19.0.0, SVG Export Plug-In . SVG Version: 6.00 Build 0)  -->
<svg version="1.1" id="Capa_1" xmlns="http://www.w3.org/2000/svg" xmlns:xlink="http://www.w3.org/1999/xlink" x="0px" y="0px"
	 viewBox="0 0 512 512" style="enable-background:new 0 0 512 512;" xml:space="preserve">
<g>
	<g>
		<path d="M429.447,0H82.553C37.033,0,0,37.033,0,82.553v346.894C0,474.967,37.033,512,82.553,512h346.894
			c45.52,0,82.553-37.033,82.553-82.553V82.553C512,37.033,474.967,0,429.447,0z M481.764,429.447
			c0,28.847-23.469,52.317-52.317,52.317H82.553c-28.847,0-52.317-23.469-52.317-52.317V82.553
			c0-28.847,23.469-52.317,52.317-52.317h346.894c28.847,0,52.317,23.469,52.317,52.317V429.447z"/>
	</g>
</g>
<g>
	<g>
		<g>
			<path d="M266.583,84.165h-72.311c-27.787,0-50.394,22.607-50.394,50.394v278.159c0,8.349,6.769,15.118,15.118,15.118h70.551
				c8.349,0,15.118-6.769,15.118-15.117v-85.159h21.917c67.104,0,121.697-54.594,121.697-121.698
				C388.279,138.758,333.687,84.165,266.583,84.165z M266.583,297.323h-37.035c-8.349,0-15.118,6.769-15.118,15.118v85.158h-40.315
				V134.558c0-11.115,9.043-20.157,20.157-20.157h72.311c50.431,0,91.461,41.029,91.461,91.461S317.014,297.323,266.583,297.323z"/>
			<path d="M266.583,154.716h-37.035c-8.349,0-15.118,6.769-15.118,15.118v72.056c0,8.349,6.769,15.118,15.118,15.118h37.035
				c28.201,0,51.146-22.944,51.146-51.146C317.728,177.66,294.784,154.716,266.583,154.716z M266.583,226.772h-21.917v-41.82h21.917
				c11.529,0,20.909,9.38,20.909,20.91C287.492,217.391,278.112,226.772,266.583,226.772z"/>
		</g>
	</g>
</g>
<g>
</g>
<g>
</g>
<g>
</g>
<g>
</g>
<g>
</g>
<g>
</g>
<g>
</g>
<g>
</g>
<g>
</g>
<g>
</g>
<g>
</g>
<g>
</g>
<g>
</g>
<g>
</g>
<g>
</g>
</svg>
