<!-- Generated by IcoMoon.io -->
<svg version="1.1" xmlns="http://www.w3.org/2000/svg" width="32" height="32" viewBox="0 0 32 32">
<title>gardening</title>
<path d="M27.693 19.212c-0.357-1.275-1.406-2.288-2.753-2.557l-1.289-0.258v-2.484c0-1.726-1.404-3.13-3.13-3.13h-6.261c-1.719 0-3.119 1.393-3.13 3.11l-4.175-0.835v-7.492c0-1.726-1.404-3.13-3.13-3.13h-2.783c-0.576 0-1.044 0.467-1.044 1.043s0.467 1.044 1.044 1.044h2.783c0.575 0 1.044 0.468 1.044 1.043 0 0.935 0 13.106 0 13.67-2.379 0.485-4.174 2.593-4.174 5.112 0 2.877 2.341 5.217 5.217 5.217 2.52 0 4.628-1.795 5.112-4.174h10.645c0.485 2.379 2.593 4.174 5.112 4.174 2.877 0 5.217-2.34 5.217-5.217-0-2.566-1.863-4.704-4.307-5.136zM13.217 13.913c0-0.575 0.468-1.043 1.043-1.043h6.261c0.575 0 1.044 0.468 1.044 1.043v2.066l-8.348-1.67v-0.397zM5.913 27.478c-1.726 0-3.13-1.404-3.13-3.13s1.404-3.13 3.13-3.13c1.726 0 3.13 1.404 3.13 3.13s-1.404 3.13-3.13 3.13zM21.67 23.304h-10.644c-0.417-2.055-2.050-3.66-4.069-4.069v-4.049c0.583 0.117 16.574 3.315 17.575 3.515 0.384 0.077 0.71 0.298 0.926 0.6-1.912 0.502-3.388 2.057-3.788 4.003zM26.783 27.478c-1.726 0-3.13-1.404-3.13-3.13s1.404-3.13 3.13-3.13 3.13 1.404 3.13 3.13c0 1.726-1.404 3.13-3.13 3.13z"></path>
</svg>
