<!-- Generated by IcoMoon.io -->
<svg version="1.1" xmlns="http://www.w3.org/2000/svg" width="32" height="32" viewBox="0 0 32 32">
<title>blender</title>
<path d="M27.219 15.756v-8.297h-3.798l0.201-1.992h1.145v-5.467h-19.985v5.467h1.145l1.957 19.423h-1.864v7.11h17.509v-7.11h-1.864l0.673-6.677 4.881-2.457zM25.344 9.334v5.267l-2.784 1.401 0.672-6.668h2.112zM6.656 1.875h16.235v1.717h-16.235v-1.717zM21.653 30.125h-13.759v-3.36h13.759v3.36zM9.619 23.413h10.31l-0.149 1.477h-10.012l-0.149-1.477zM20.118 21.538h-2.713l1.118-1.725v-2.206h-1.875v1.652l-1.478 2.28h-0.792l-1.478-2.28v-1.652h-1.875v2.206l1.118 1.725h-2.713l-1.619-16.071h13.925l-1.619 16.071z"></path>
<path d="M13.421 27.508h1.875v1.875h-1.875v-1.875z"></path>
</svg>
