<!-- Generated by IcoMoon.io -->
<svg version="1.1" xmlns="http://www.w3.org/2000/svg" width="32" height="32" viewBox="0 0 32 32">
<title>switch-off</title>
<path d="M28.087 0h-24.174c-1.966 0-3.565 1.599-3.565 3.565v24.87c0 1.966 1.599 3.565 3.565 3.565h24.174c1.966 0 3.565-1.599 3.565-3.565v-24.87c0-1.966-1.599-3.565-3.565-3.565zM29.565 28.435c0 0.815-0.663 1.478-1.478 1.478h-24.174c-0.815 0-1.478-0.663-1.478-1.478v-24.87c0-0.815 0.663-1.478 1.478-1.478h24.174c0.815 0 1.478 0.663 1.478 1.478v24.87z"></path>
<path d="M26.435 4.174c-0.916 0-19.953 0-20.87 0-0.576 0-1.043 0.467-1.043 1.043v21.565c0 0.576 0.467 1.044 1.043 1.044 0.916 0 19.953 0 20.87 0 0.576 0 1.044-0.467 1.044-1.044v-21.565c-0-0.576-0.467-1.043-1.044-1.043zM14.957 25.739h-8.348v-19.478h8.348v19.478zM25.391 25.739h-8.348v-19.478h8.348v19.478z"></path>
<path d="M22.261 8.348h-2.087c-0.576 0-1.044 0.467-1.044 1.043s0.467 1.043 1.044 1.043h2.087c0.576 0 1.044-0.467 1.044-1.043s-0.467-1.043-1.044-1.043z"></path>
<path d="M11.826 8.348h-2.087c-0.576 0-1.043 0.467-1.043 1.043s0.467 1.043 1.043 1.043h2.087c0.576 0 1.043-0.467 1.043-1.043s-0.467-1.043-1.043-1.043z"></path>
</svg>
