<!-- Generated by IcoMoon.io -->
<svg version="1.1" xmlns="http://www.w3.org/2000/svg" width="32" height="32" viewBox="0 0 32 32">
<title>cctv-3</title>
<path d="M32 13.419l-19.679-9.837-5.295 10.592 5.981 2.99-1.959 3.338c-0.153-0.025-0.309-0.039-0.469-0.039-1.264 0-2.34 0.817-2.73 1.95h-2.113v-4.13h-5.737v10.134h5.737v-4.13h2.113c0.39 1.133 1.466 1.95 2.73 1.95 1.592 0 2.887-1.295 2.887-2.887 0-0.755-0.292-1.443-0.768-1.958l1.989-3.388 9.912 4.955 1.078-2.157 3.275 1.637 2.848-5.697-2.928-1.464 3.127-1.859zM3.863 26.543h-1.988v-6.385h1.988v6.385zM10.58 24.364c-0.559 0-1.013-0.454-1.013-1.013s0.454-1.013 1.013-1.013c0.559 0 1.013 0.454 1.013 1.013s-0.454 1.013-1.013 1.013zM23.762 20.445l-14.221-7.108 0.882-1.764 13.409 6.703 1.443-0.858-1.513 3.027zM23.754 16.141l-12.493-6.245 1.899-3.799 14.933 7.464-4.339 2.579zM29.287 17.58l-1.172 2.344-1.599-0.799 1.172-2.344 1.599 0.799z"></path>
</svg>
