<?xml version="1.0" encoding="iso-8859-1"?>
<!-- Generator: Adobe Illustrator 19.0.0, SVG Export Plug-In . SVG Version: 6.00 Build 0)  -->
<svg version="1.1" id="Layer_1" xmlns="http://www.w3.org/2000/svg" xmlns:xlink="http://www.w3.org/1999/xlink" x="0px" y="0px"
	 viewBox="0 0 512 512" style="enable-background:new 0 0 512 512;" xml:space="preserve">
<g>
	<g>
		<path d="M449.391,0H62.609C31.155,0,5.565,25.59,5.565,57.044v397.913C5.565,486.41,31.155,512,62.609,512h386.783
			c31.453,0,57.043-25.59,57.043-57.043V57.044C506.435,25.59,480.845,0,449.391,0z M473.043,454.957
			c0,13.042-10.611,23.652-23.652,23.652H62.609c-13.042,0-23.652-10.611-23.652-23.652V57.044
			c0-13.042,10.611-23.652,23.652-23.652h386.783c13.042,0,23.652,10.611,23.652,23.652V454.957z"/>
	</g>
</g>
<g>
	<g>
		<path d="M422.957,66.783c-14.657,0-319.256,0-333.913,0c-9.22,0-16.696,7.475-16.696,16.696v345.043
			c0,9.22,7.475,16.696,16.696,16.696c14.657,0,319.256,0,333.913,0c9.22,0,16.696-7.475,16.696-16.696V83.478
			C439.652,74.258,432.177,66.783,422.957,66.783z M239.304,411.826H105.739V100.174h133.565V411.826z M406.261,411.826H272.696
			V100.174h133.565V411.826z"/>
	</g>
</g>
<g>
	<g>
		<path d="M356.174,133.565h-33.391c-9.22,0-16.696,7.475-16.696,16.696s7.475,16.696,16.696,16.696h33.391
			c9.22,0,16.696-7.475,16.696-16.696S365.394,133.565,356.174,133.565z"/>
	</g>
</g>
<g>
	<g>
		<path d="M189.217,133.565h-33.391c-9.22,0-16.696,7.475-16.696,16.696s7.475,16.696,16.696,16.696h33.391
			c9.22,0,16.696-7.475,16.696-16.696S198.438,133.565,189.217,133.565z"/>
	</g>
</g>
<g>
</g>
<g>
</g>
<g>
</g>
<g>
</g>
<g>
</g>
<g>
</g>
<g>
</g>
<g>
</g>
<g>
</g>
<g>
</g>
<g>
</g>
<g>
</g>
<g>
</g>
<g>
</g>
<g>
</g>
</svg>
