<?xml version="1.0" encoding="iso-8859-1"?>
<!-- Generator: Adobe Illustrator 19.0.0, SVG Export Plug-In . SVG Version: 6.00 Build 0)  -->
<svg version="1.1" id="Capa_1" xmlns="http://www.w3.org/2000/svg" xmlns:xlink="http://www.w3.org/1999/xlink" x="0px" y="0px"
	 viewBox="0 0 512 512" style="enable-background:new 0 0 512 512;" xml:space="preserve">
<g>
	<g>
		<path d="M512,214.705L197.14,57.32l-57.199,114.43l-27.515,55.044l95.696,47.834l-31.348,53.403
			c-2.441-0.4-4.943-0.618-7.496-0.618c-20.225,0-37.444,13.07-43.686,31.202H91.79v-66.072H0V454.68h91.79v-66.074h33.802
			c6.242,18.134,23.461,31.205,43.687,31.205c25.473,0,46.198-20.725,46.198-46.199c0-12.084-4.669-23.093-12.291-31.335
			l31.821-54.21l158.598,79.276l17.255-34.519l52.403,26.194l45.563-91.153l-46.852-23.419L512,214.705z M61.801,424.693H29.989
			V322.535h31.812V424.693z M169.28,389.823c-8.938,0-16.209-7.272-16.209-16.21s7.271-16.209,16.209-16.209
			c8.938,0,16.209,7.271,16.209,16.209C185.489,382.552,178.218,389.823,169.28,389.823z M380.19,327.112L152.66,213.379
			l14.106-28.221l214.548,107.244l23.086-13.726L380.19,327.112z M380.069,258.254l-199.895-99.92l30.383-60.781l238.929,119.43
			L380.069,258.254z M468.594,281.283l-18.746,37.504l-25.579-12.785l18.747-37.505L468.594,281.283z"/>
	</g>
</g>
<g>
</g>
<g>
</g>
<g>
</g>
<g>
</g>
<g>
</g>
<g>
</g>
<g>
</g>
<g>
</g>
<g>
</g>
<g>
</g>
<g>
</g>
<g>
</g>
<g>
</g>
<g>
</g>
<g>
</g>
</svg>
