<?xml version="1.0" encoding="iso-8859-1"?>
<!-- Generator: Adobe Illustrator 19.0.0, SVG Export Plug-In . SVG Version: 6.00 Build 0)  -->
<svg version="1.1" id="Layer_1" xmlns="http://www.w3.org/2000/svg" xmlns:xlink="http://www.w3.org/1999/xlink" x="0px" y="0px"
	 viewBox="0 0 512 512" style="enable-background:new 0 0 512 512;" xml:space="preserve">
<g>
	<g>
		<path d="M489.739,0H22.261C13.04,0,5.565,7.475,5.565,16.696v478.609c0,9.22,7.475,16.696,16.696,16.696h467.478
			c9.22,0,16.696-7.475,16.696-16.696V16.696C506.435,7.475,498.96,0,489.739,0z M38.957,133.565h33.391v33.391H38.957V133.565z
			 M38.957,200.348h33.391v111.304H38.957V200.348z M38.957,345.043h33.391v33.391H38.957V345.043z M473.043,478.609H38.957v-66.783
			h33.391v16.696c0,9.22,7.475,16.696,16.696,16.696h333.913c9.22,0,16.696-7.475,16.696-16.696V83.478
			c0-9.22-7.475-16.696-16.696-16.696H89.044c-9.22,0-16.696,7.475-16.696,16.696v16.696H38.957V33.391h434.087V478.609z
			 M105.739,411.826V100.174h300.522v311.652H105.739z"/>
	</g>
</g>
<g>
	<g>
		<path d="M356.174,205.913h-50.087v-50.087c0-9.22-7.475-16.696-16.696-16.696h-66.783c-9.22,0-16.696,7.475-16.696,16.696v50.087
			h-50.087c-9.22,0-16.696,7.475-16.696,16.696v66.783c0,9.22,7.475,16.696,16.696,16.696h50.087v50.087
			c0,9.22,7.475,16.696,16.696,16.696h66.783c9.22,0,16.696-7.475,16.696-16.696v-50.087h50.087c9.22,0,16.696-7.475,16.696-16.696
			v-66.783C372.87,213.388,365.394,205.913,356.174,205.913z M339.478,272.696h-50.087c-9.22,0-16.696,7.475-16.696,16.696v50.087
			h-33.391v-50.087c0-9.22-7.475-16.696-16.696-16.696h-50.087v-33.391h50.087c9.22,0,16.696-7.475,16.696-16.696v-50.087h33.391
			v50.087c0,9.22,7.475,16.696,16.696,16.696h50.087V272.696z"/>
	</g>
</g>
<g>
</g>
<g>
</g>
<g>
</g>
<g>
</g>
<g>
</g>
<g>
</g>
<g>
</g>
<g>
</g>
<g>
</g>
<g>
</g>
<g>
</g>
<g>
</g>
<g>
</g>
<g>
</g>
<g>
</g>
</svg>
