<!-- Generated by IcoMoon.io -->
<svg version="1.1" xmlns="http://www.w3.org/2000/svg" width="32" height="32" viewBox="0 0 32 32">
<title>health-care</title>
<path d="M30.609 0h-29.217c-0.576 0-1.044 0.467-1.044 1.044v29.913c0 0.576 0.467 1.043 1.044 1.043h29.217c0.576 0 1.044-0.467 1.044-1.044v-29.913c0-0.576-0.467-1.044-1.044-1.044zM2.435 8.348h2.087v2.087h-2.087v-2.087zM2.435 12.522h2.087v6.957h-2.087v-6.957zM2.435 21.565h2.087v2.087h-2.087v-2.087zM29.565 29.913h-27.13v-4.174h2.087v1.044c0 0.576 0.467 1.044 1.043 1.044h20.87c0.576 0 1.044-0.467 1.044-1.044v-21.565c0-0.576-0.467-1.043-1.044-1.043h-20.87c-0.576 0-1.043 0.467-1.043 1.043v1.043h-2.087v-4.174h27.13v27.826zM6.609 25.739v-19.478h18.783v19.478h-18.783z"></path>
<path d="M22.261 12.87h-3.13v-3.13c0-0.576-0.467-1.043-1.044-1.043h-4.174c-0.576 0-1.043 0.467-1.043 1.043v3.13h-3.13c-0.576 0-1.043 0.467-1.043 1.043v4.174c0 0.576 0.467 1.044 1.043 1.044h3.13v3.13c0 0.576 0.467 1.044 1.043 1.044h4.174c0.576 0 1.044-0.467 1.044-1.044v-3.13h3.13c0.576 0 1.044-0.467 1.044-1.044v-4.174c0-0.576-0.467-1.043-1.044-1.043zM21.217 17.044h-3.13c-0.576 0-1.044 0.467-1.044 1.044v3.13h-2.087v-3.13c0-0.576-0.467-1.044-1.043-1.044h-3.13v-2.087h3.13c0.576 0 1.043-0.467 1.043-1.043v-3.13h2.087v3.13c0 0.576 0.467 1.043 1.044 1.043h3.13v2.087z"></path>
</svg>
