<?xml version="1.0" encoding="iso-8859-1"?>
<!-- Generator: Adobe Illustrator 19.0.0, SVG Export Plug-In . SVG Version: 6.00 Build 0)  -->
<svg version="1.1" id="Capa_1" xmlns="http://www.w3.org/2000/svg" xmlns:xlink="http://www.w3.org/1999/xlink" x="0px" y="0px"
	 viewBox="0 0 512 512" style="enable-background:new 0 0 512 512;" xml:space="preserve">
<g>
	<g>
		<rect x="38.547" y="362.18" width="30" height="33"/>
	</g>
</g>
<g>
	<g>
		<rect x="38.547" y="416.18" width="30" height="33"/>
	</g>
</g>
<g>
	<g>
		<rect x="86.05" y="362.18" width="30" height="33"/>
	</g>
</g>
<g>
	<g>
		<rect x="86.05" y="416.18" width="30" height="33"/>
	</g>
</g>
<g>
	<g>
		<rect x="133.55" y="362.18" width="30" height="33"/>
	</g>
</g>
<g>
	<g>
		<rect x="133.55" y="416.18" width="30" height="33"/>
	</g>
</g>
<g>
	<g>
		<path d="M512,140.177v-85H267v30h75v55h35.5v17H0v127h32.547v49.6h137v-49.6H342v172.645h170V157.177h-30.5v-17H512z
			 M139.547,303.776h-77v-19.6h77V303.776z M342,254.177H30v-67h312V254.177z M482,426.821H372v-32h110V426.821z M482,187.177
			v177.645H372V187.177h109.5H482z M407.5,157.177v-17h44v17H407.5z M372,110.177v-25h110v25h-0.5H372z"/>
	</g>
</g>
<g>
</g>
<g>
</g>
<g>
</g>
<g>
</g>
<g>
</g>
<g>
</g>
<g>
</g>
<g>
</g>
<g>
</g>
<g>
</g>
<g>
</g>
<g>
</g>
<g>
</g>
<g>
</g>
<g>
</g>
</svg>
