<!-- Generated by IcoMoon.io -->
<svg version="1.1" xmlns="http://www.w3.org/2000/svg" width="32" height="32" viewBox="0 0 32 32">
<title>faucet</title>
<path d="M2.409 22.636h1.875v2.063h-1.875v-2.063z"></path>
<path d="M2.409 26.011h1.875v2.063h-1.875v-2.063z"></path>
<path d="M5.378 22.636h1.875v2.063h-1.875v-2.063z"></path>
<path d="M5.378 26.011h1.875v2.063h-1.875v-2.063z"></path>
<path d="M8.347 22.636h1.875v2.063h-1.875v-2.063z"></path>
<path d="M8.347 26.011h1.875v2.063h-1.875v-2.063z"></path>
<path d="M32 8.761v-5.313h-15.313v1.875h4.688v3.438h2.219v1.063h-23.594v7.938h2.034v3.1h8.563v-3.1h10.778v10.79h10.625v-18.728h-1.906v-1.063h1.906zM8.722 18.986h-4.813v-1.225h4.813v1.225zM21.375 15.886h-19.5v-4.188h19.5v4.188zM30.125 26.676h-6.875v-2h6.875v2zM30.125 11.699v11.103h-6.875v-11.103h6.875zM25.469 9.824v-1.063h2.75v1.063h-2.75zM23.25 6.886v-1.563h6.875v1.563h-6.875z"></path>
</svg>
