<?xml version="1.0" encoding="iso-8859-1"?>
<!-- Generator: Adobe Illustrator 19.0.0, SVG Export Plug-In . SVG Version: 6.00 Build 0)  -->
<svg version="1.1" id="Capa_1" xmlns="http://www.w3.org/2000/svg" xmlns:xlink="http://www.w3.org/1999/xlink" x="0px" y="0px"
	 viewBox="0 0 512 512" style="enable-background:new 0 0 512 512;" xml:space="preserve">
<g>
	<g>
		<path d="M433.416,0H78.583v482.513h30.347V512h30v-29.487h234.14V512h30v-29.487h30.347L433.416,0L433.416,0z M206.097,30h99.805
			v65.924h-99.805V30z M108.583,30h67.514v65.924h-67.514V30z M403.416,452.513H108.583V125.924h294.833V452.513z M403.416,95.924
			h-67.514V30h67.514V95.924z"/>
	</g>
</g>
<g>
	<g>
		<path d="M255.999,180.38c-53.115,0-96.327,43.212-96.327,96.327s43.212,96.327,96.327,96.327s96.327-43.212,96.327-96.327
			S309.114,180.38,255.999,180.38z M255.999,343.034c-36.573,0-66.327-29.754-66.327-66.327s29.754-66.327,66.327-66.327
			s66.327,29.754,66.327,66.327S292.572,343.034,255.999,343.034z"/>
	</g>
</g>
<g>
	<g>
		<rect x="329.309" y="396.21" width="46.917" height="30"/>
	</g>
</g>
<g>
	<g>
		<polygon points="282.797,238.992 245.608,276.18 228.25,261.579 208.939,284.537 247.359,316.855 304.01,260.205 		"/>
	</g>
</g>
<g>
	<g>
		<rect x="230.629" y="48.11" width="50.742" height="30"/>
	</g>
</g>
<g>
</g>
<g>
</g>
<g>
</g>
<g>
</g>
<g>
</g>
<g>
</g>
<g>
</g>
<g>
</g>
<g>
</g>
<g>
</g>
<g>
</g>
<g>
</g>
<g>
</g>
<g>
</g>
<g>
</g>
</svg>
