<!-- Generated by IcoMoon.io -->
<svg version="1.1" xmlns="http://www.w3.org/2000/svg" width="32" height="32" viewBox="0 0 32 32">
<title>transportation</title>
<path d="M31.215 3.859l-14.957-3.826c-0.17-0.043-0.348-0.043-0.517 0l-14.957 3.826c-0.462 0.118-0.785 0.534-0.785 1.011 0 0.448 0 25.651 0 26.087 0 0.576 0.467 1.043 1.044 1.043 0.497 0 29.351 0 29.913 0 0.576 0 1.044-0.467 1.044-1.044 0-0.436 0-25.639 0-26.087-0-0.477-0.323-0.893-0.785-1.011zM6.261 29.913h-4.174v-16.696h5.947c-0.14 0.242-0.257 0.501-0.349 0.774l-0.837 2.511-0.893-0.893c-0.407-0.407-1.068-0.407-1.476 0s-0.407 1.068 0 1.476l1.071 1.071c-0.837 0.657-1.376 1.677-1.376 2.822v3.359c0 1.425 0.859 2.653 2.087 3.194v2.382zM10.435 29.913h-2.087v-2.087h2.087v2.087zM19.478 29.913h-6.957v-2.087h6.957v2.087zM23.652 29.913h-2.087v-2.087h2.087v2.087zM24.337 25.739c-0.53 0-15.624 0-16.674 0-0.773 0-1.402-0.629-1.402-1.402v-3.359c0-0.827 0.673-1.5 1.5-1.5h16.478c0.827 0 1.5 0.673 1.5 1.5v3.359c-0 0.773-0.629 1.402-1.402 1.402zM8.752 17.391l0.913-2.74c0.286-0.858 1.086-1.434 1.99-1.434h8.69c0.904 0 1.704 0.576 1.99 1.434l0.913 2.74h-14.496zM29.913 29.913h-4.174v-2.382c1.228-0.541 2.087-1.769 2.087-3.194v-3.359c0-1.144-0.539-2.165-1.377-2.822l1.071-1.071c0.407-0.407 0.407-1.068 0-1.476s-1.068-0.407-1.476 0l-0.893 0.893-0.837-2.511c-0.091-0.273-0.209-0.532-0.349-0.774h5.947v16.696zM29.913 11.13c-1.137 0-26.688 0-27.826 0v-2.087h27.826v2.087zM29.913 6.957h-27.826v-1.277l13.913-3.559 13.913 3.559v1.277z"></path>
<path d="M10.435 22.609c0 0.576-0.467 1.044-1.043 1.044s-1.043-0.467-1.043-1.044c0-0.576 0.467-1.044 1.043-1.044s1.043 0.467 1.043 1.044z"></path>
<path d="M23.652 22.609c0 0.576-0.467 1.044-1.044 1.044s-1.044-0.467-1.044-1.044c0-0.576 0.467-1.044 1.044-1.044s1.044 0.467 1.044 1.044z"></path>
<path d="M18.435 21.565h-4.87c-0.576 0-1.043 0.467-1.043 1.044s0.467 1.044 1.043 1.044h4.87c0.576 0 1.044-0.467 1.044-1.044s-0.467-1.044-1.044-1.044z"></path>
</svg>
