<!-- Generated by IcoMoon.io -->
<svg version="1.1" xmlns="http://www.w3.org/2000/svg" width="32" height="32" viewBox="0 0 32 32">
<title>washing-machine</title>
<path d="M27.088 0h-22.177v30.157h1.897v1.843h1.875v-1.843h14.634v1.843h1.875v-1.843h1.897l-0-30.157zM12.881 1.875h6.238v4.12h-6.238v-4.12zM6.786 1.875h4.22v4.12h-4.22v-4.12zM25.213 28.282h-18.427v-20.412h18.427v20.412zM25.213 5.995h-4.22v-4.12h4.22v4.12z"></path>
<path d="M16 11.274c-3.32 0-6.020 2.701-6.020 6.020s2.701 6.020 6.020 6.020 6.020-2.701 6.020-6.020-2.701-6.020-6.020-6.020zM16 21.44c-2.286 0-4.145-1.86-4.145-4.145s1.86-4.145 4.145-4.145 4.145 1.86 4.145 4.145-1.86 4.145-4.145 4.145z"></path>
<path d="M20.582 24.763h2.932v1.875h-2.932v-1.875z"></path>
<path d="M17.675 14.937l-2.324 2.324-1.085-0.913-1.207 1.435 2.401 2.020 3.541-3.541z"></path>
<path d="M14.414 3.007h3.171v1.875h-3.171v-1.875z"></path>
</svg>
