<?xml version="1.0" encoding="iso-8859-1"?>
<!-- Generator: Adobe Illustrator 19.0.0, SVG Export Plug-In . SVG Version: 6.00 Build 0)  -->
<svg version="1.1" id="Layer_1" xmlns="http://www.w3.org/2000/svg" xmlns:xlink="http://www.w3.org/1999/xlink" x="0px" y="0px"
	 viewBox="0 0 512.001 512.001" style="enable-background:new 0 0 512.001 512.001;" xml:space="preserve">
<g>
	<g>
		<path d="M294.957,155.827h-77.913c-9.22,0-16.696,7.475-16.696,16.696v77.913c0,9.22,7.475,16.696,16.696,16.696h77.913
			c9.22,0,16.696-7.475,16.696-16.696v-77.913C311.653,163.302,304.178,155.827,294.957,155.827z M278.261,233.74H233.74v-44.522
			h44.522V233.74z"/>
	</g>
</g>
<g>
	<g>
		<path d="M507.111,255.326l-50.763-50.763V94.61c0-9.22-7.475-16.696-16.696-16.696H372.87c-9.22,0-16.696,7.475-16.696,16.696
			v9.78l-88.369-88.369c-6.519-6.52-17.091-6.52-23.611,0C238.018,22.197,13.782,246.433,4.89,255.325
			c-6.52,6.52-6.52,17.091,0,23.611c6.52,6.52,17.091,6.52,23.611,0l27.152-27.15v232.389c0,9.22,7.475,16.696,16.696,16.696
			h367.304c9.22,0,16.696-7.475,16.696-16.696V251.786l27.152,27.152c6.519,6.52,17.091,6.521,23.611,0
			C513.631,272.417,513.631,261.847,507.111,255.326z M222.609,367.305h-16.696c-9.22,0-16.696,7.475-16.696,16.696
			s7.475,16.696,16.696,16.696h16.696v66.783h-66.783V333.914h66.783V367.305z M422.957,400.697h-77.913v-66.783h77.913V400.697z
			 M422.957,300.523h-94.609c-9.22,0-16.696,7.475-16.696,16.696v100.174c0,9.22,7.475,16.696,16.696,16.696h94.609v33.391H256.001
			V317.218c0-9.22-7.475-16.696-16.696-16.696H139.131c-9.22,0-16.696,7.475-16.696,16.696v150.261H89.044V218.394L256.001,51.438
			l166.957,166.957V300.523z M422.957,171.172l-33.391-33.391v-26.476h33.391V171.172z"/>
	</g>
</g>
<g>
</g>
<g>
</g>
<g>
</g>
<g>
</g>
<g>
</g>
<g>
</g>
<g>
</g>
<g>
</g>
<g>
</g>
<g>
</g>
<g>
</g>
<g>
</g>
<g>
</g>
<g>
</g>
<g>
</g>
</svg>
