<!-- Generated by IcoMoon.io -->
<svg version="1.1" xmlns="http://www.w3.org/2000/svg" width="32" height="32" viewBox="0 0 32 32">
<title>fireplace</title>
<path d="M18.435 9.739h-4.87c-0.576 0-1.043 0.467-1.043 1.043v4.87c0 0.576 0.467 1.044 1.043 1.044h4.87c0.576 0 1.044-0.467 1.044-1.043v-4.87c0-0.576-0.467-1.043-1.044-1.043zM17.391 14.609h-2.783v-2.783h2.783v2.783z"></path>
<path d="M31.694 15.958l-3.173-3.173v-6.872c0-0.576-0.467-1.043-1.044-1.043h-4.174c-0.576 0-1.044 0.467-1.044 1.043v0.611l-5.523-5.523c-0.407-0.407-1.068-0.407-1.476 0-0.386 0.386-14.401 14.401-14.956 14.956-0.407 0.407-0.407 1.068 0 1.476s1.068 0.407 1.476 0l1.697-1.697v14.524c0 0.576 0.467 1.044 1.043 1.044h22.956c0.576 0 1.044-0.467 1.044-1.044v-14.524l1.697 1.697c0.407 0.407 1.068 0.408 1.476 0s0.407-1.068-0-1.476zM13.913 22.957h-1.043c-0.576 0-1.043 0.467-1.043 1.044s0.467 1.044 1.043 1.044h1.043v4.174h-4.174v-8.348h4.174v2.087zM26.435 25.044h-4.87v-4.174h4.87v4.174zM26.435 18.783h-5.913c-0.576 0-1.044 0.467-1.044 1.044v6.261c0 0.576 0.467 1.044 1.044 1.044h5.913v2.087h-10.435v-9.391c0-0.576-0.467-1.044-1.043-1.044h-6.261c-0.576 0-1.043 0.467-1.043 1.044v9.391h-2.087v-15.568l10.435-10.435 10.435 10.435v5.133zM26.435 10.698l-2.087-2.087v-1.655h2.087v3.742z"></path>
</svg>
