<!-- Generated by IcoMoon.io -->
<svg version="1.1" xmlns="http://www.w3.org/2000/svg" width="32" height="32" viewBox="0 0 32 32">
<title>trash</title>
<path d="M16 0c-6.245 0-11.325 5.080-11.325 11.325v1.126l2.558 19.548h17.534l2.558-19.549v-1.126c-0-6.245-5.081-11.325-11.325-11.325zM13.597 2.185c0.768-0.202 1.573-0.31 2.403-0.31s1.636 0.108 2.403 0.31v4.877h-4.807v-4.877zM23.121 30.125h-14.242l-2.238-17.102h18.719l-2.238 17.102zM6.552 11.148c0.066-3.597 2.152-6.71 5.169-8.248v6.037h8.557v-6.037c3.017 1.538 5.103 4.651 5.169 8.248h-18.896z"></path>
<path d="M17.812 16.895v2.122c0.78 0.572 1.267 1.495 1.267 2.489 0 1.698-1.381 3.079-3.079 3.079s-3.080-1.381-3.080-3.079c0-1.004 0.493-1.931 1.283-2.501v-2.116c-1.893 0.737-3.158 2.579-3.158 4.617 0 2.732 2.223 4.954 4.955 4.954s4.954-2.223 4.954-4.954c0-2.027-1.26-3.871-3.142-4.611z"></path>
<path d="M15.062 16h1.875v3.646h-1.875v-3.646z"></path>
</svg>
