<?xml version="1.0" encoding="iso-8859-1"?>
<!-- Generator: Adobe Illustrator 19.0.0, SVG Export Plug-In . SVG Version: 6.00 Build 0)  -->
<svg version="1.1" id="Capa_1" xmlns="http://www.w3.org/2000/svg" xmlns:xlink="http://www.w3.org/1999/xlink" x="0px" y="0px"
	 viewBox="0 0 512 512" style="enable-background:new 0 0 512 512;" xml:space="preserve">
<g>
	<g>
		<path d="M255.999,0C156.083,0,74.796,81.288,74.796,181.204v18.02L115.729,512h280.54l40.807-311.808l0.127-0.969v-18.02
			C437.202,81.288,355.915,0,255.999,0z M217.544,34.961C229.828,31.729,242.715,30,255.999,30s26.171,1.729,38.455,4.961V113
			h-76.91V34.961z M369.939,482H142.061l-35.81-273.625h299.499L369.939,482z M104.832,178.375
			c1.062-57.555,34.436-107.352,82.712-131.969V143h136.91V46.406c48.276,24.616,81.65,74.414,82.712,131.969H104.832z"/>
	</g>
</g>
<g>
	<g>
		<path d="M284.999,270.319v33.958c12.478,9.145,20.272,23.917,20.272,39.823c0,27.169-22.104,49.272-49.272,49.272
			c-27.168,0-49.273-22.104-49.273-49.272c0-16.059,7.889-30.895,20.523-40.013v-33.864c-30.284,11.793-50.523,41.263-50.523,73.877
			c0,43.711,35.562,79.272,79.273,79.272s79.272-35.562,79.272-79.272C335.272,311.664,315.113,282.167,284.999,270.319z"/>
	</g>
</g>
<g>
	<g>
		<rect x="240.999" y="256" width="30" height="58.33"/>
	</g>
</g>
<g>
</g>
<g>
</g>
<g>
</g>
<g>
</g>
<g>
</g>
<g>
</g>
<g>
</g>
<g>
</g>
<g>
</g>
<g>
</g>
<g>
</g>
<g>
</g>
<g>
</g>
<g>
</g>
<g>
</g>
</svg>
