<?xml version="1.0" encoding="iso-8859-1"?>
<!-- Generator: Adobe Illustrator 19.0.0, SVG Export Plug-In . SVG Version: 6.00 Build 0)  -->
<svg version="1.1" id="Layer_1" xmlns="http://www.w3.org/2000/svg" xmlns:xlink="http://www.w3.org/1999/xlink" x="0px" y="0px"
	 viewBox="0 0 512 512" style="enable-background:new 0 0 512 512;" xml:space="preserve">
<g>
	<g>
		<path d="M495.304,478.609h-94.609V111.304h16.696c9.22,0,16.696-7.475,16.696-16.696s-7.475-16.696-16.696-16.696
			c-15.636,0-34.399,0-50.087,0V33.391H384c9.22,0,16.696-7.475,16.696-16.696S393.22,0,384,0c-2.361,0-264.579,0-267.13,0
			c-9.22,0-16.696,7.475-16.696,16.696s7.475,16.696,16.696,16.696h16.696v44.522c-15.693,0-34.462,0-50.087,0
			c-9.22,0-16.696,7.475-16.696,16.696s7.475,16.696,16.696,16.696h16.696v367.304H16.696C7.475,478.609,0,486.084,0,495.304
			S7.475,512,16.696,512c4.641,0,474.476,0,478.609,0c9.22,0,16.696-7.475,16.696-16.696S504.525,478.609,495.304,478.609z
			 M166.957,33.391h166.956v44.522H166.957V33.391z M367.304,478.609H133.565V111.304c5.096,0,226.374,0,233.739,0V478.609z"/>
	</g>
</g>
<g>
	<g>
		<rect x="166.957" y="211.478" width="33.391" height="33.391"/>
	</g>
</g>
<g>
	<g>
		<rect x="166.957" y="278.261" width="33.391" height="33.391"/>
	</g>
</g>
<g>
	<g>
		<rect x="166.957" y="345.043" width="33.391" height="33.391"/>
	</g>
</g>
<g>
	<g>
		<rect x="166.957" y="411.826" width="33.391" height="33.391"/>
	</g>
</g>
<g>
	<g>
		<rect x="233.739" y="211.478" width="33.391" height="33.391"/>
	</g>
</g>
<g>
	<g>
		<rect x="233.739" y="278.261" width="33.391" height="33.391"/>
	</g>
</g>
<g>
	<g>
		<rect x="233.739" y="345.043" width="33.391" height="33.391"/>
	</g>
</g>
<g>
	<g>
		<rect x="233.739" y="411.826" width="33.391" height="33.391"/>
	</g>
</g>
<g>
	<g>
		<rect x="300.522" y="211.478" width="33.391" height="33.391"/>
	</g>
</g>
<g>
	<g>
		<rect x="166.957" y="144.696" width="33.391" height="33.391"/>
	</g>
</g>
<g>
	<g>
		<rect x="233.739" y="144.696" width="33.391" height="33.391"/>
	</g>
</g>
<g>
	<g>
		<rect x="300.522" y="144.696" width="33.391" height="33.391"/>
	</g>
</g>
<g>
	<g>
		<rect x="300.522" y="278.261" width="33.391" height="33.391"/>
	</g>
</g>
<g>
	<g>
		<rect x="300.522" y="345.043" width="33.391" height="33.391"/>
	</g>
</g>
<g>
	<g>
		<rect x="300.522" y="411.826" width="33.391" height="33.391"/>
	</g>
</g>
<g>
</g>
<g>
</g>
<g>
</g>
<g>
</g>
<g>
</g>
<g>
</g>
<g>
</g>
<g>
</g>
<g>
</g>
<g>
</g>
<g>
</g>
<g>
</g>
<g>
</g>
<g>
</g>
<g>
</g>
</svg>
