<?xml version="1.0" encoding="iso-8859-1"?>
<!-- Generator: Adobe Illustrator 19.0.0, SVG Export Plug-In . SVG Version: 6.00 Build 0)  -->
<svg version="1.1" id="Capa_1" xmlns="http://www.w3.org/2000/svg" xmlns:xlink="http://www.w3.org/1999/xlink" x="0px" y="0px"
	 viewBox="0 0 512 512" style="enable-background:new 0 0 512 512;" xml:space="preserve">
<g>
	<g>
		<path d="M0,0v512h512V0H0z M482,482H30V30h452V482z"/>
	</g>
</g>
<g>
	<g>
		<path d="M52,52v408h408V52H52z M430,430H82V82h348V430z"/>
	</g>
</g>
<g>
	<g>
		<path d="M288.709,124.273l-18.605-4.606v44.704h-28.208v-44.704l-18.605,4.606C162.647,139.288,120.292,193.456,120.292,256
			s42.355,116.712,102.999,131.727l18.605,4.606v-44.704h28.208v44.704l18.605-4.606C349.353,372.712,391.707,318.544,391.707,256
			S349.353,139.288,288.709,124.273z M300.104,352.124v-34.495h-88.208v34.495c-37.061-16.923-61.604-54.094-61.604-96.124
			c0-42.03,24.543-79.201,61.604-96.124v34.495h88.208v-34.495c37.061,16.923,61.603,54.094,61.603,96.124
			C361.707,298.03,337.164,335.201,300.104,352.124z"/>
	</g>
</g>
<g>
	<g>
		<rect x="204.47" y="235.21" width="30" height="38.01"/>
	</g>
</g>
<g>
	<g>
		<rect x="277.53" y="235.21" width="30" height="38.01"/>
	</g>
</g>
<g>
</g>
<g>
</g>
<g>
</g>
<g>
</g>
<g>
</g>
<g>
</g>
<g>
</g>
<g>
</g>
<g>
</g>
<g>
</g>
<g>
</g>
<g>
</g>
<g>
</g>
<g>
</g>
<g>
</g>
</svg>
