<!-- Generated by IcoMoon.io -->
<svg version="1.1" xmlns="http://www.w3.org/2000/svg" width="32" height="32" viewBox="0 0 32 32">
<title>skyline</title>
<path d="M30.956 29.913h-5.913v-22.957h1.044c0.576 0 1.044-0.467 1.044-1.043s-0.467-1.043-1.044-1.043c-0.977 0-2.15 0-3.13 0v-2.783h1.044c0.576 0 1.044-0.467 1.044-1.044s-0.467-1.043-1.044-1.043c-0.148 0-16.536 0-16.696 0-0.576 0-1.043 0.467-1.043 1.044s0.467 1.044 1.043 1.044h1.043v2.783c-0.981 0-2.154 0-3.13 0-0.576 0-1.043 0.467-1.043 1.043s0.467 1.043 1.043 1.043h1.043v22.956h-5.217c-0.576-0-1.044 0.467-1.044 1.043s0.467 1.044 1.044 1.044c0.29 0 29.655 0 29.913 0 0.576 0 1.044-0.467 1.044-1.044s-0.467-1.043-1.044-1.043zM10.435 2.087h10.435v2.783h-10.435v-2.783zM22.956 29.913h-14.609v-22.957c0.319 0 14.148 0 14.609 0v22.957z"></path>
<path d="M10.435 13.217h2.087v2.087h-2.087v-2.087z"></path>
<path d="M10.435 17.391h2.087v2.087h-2.087v-2.087z"></path>
<path d="M10.435 21.565h2.087v2.087h-2.087v-2.087z"></path>
<path d="M10.435 25.739h2.087v2.087h-2.087v-2.087z"></path>
<path d="M14.609 13.217h2.087v2.087h-2.087v-2.087z"></path>
<path d="M14.609 17.391h2.087v2.087h-2.087v-2.087z"></path>
<path d="M14.609 21.565h2.087v2.087h-2.087v-2.087z"></path>
<path d="M14.609 25.739h2.087v2.087h-2.087v-2.087z"></path>
<path d="M18.783 13.217h2.087v2.087h-2.087v-2.087z"></path>
<path d="M10.435 9.043h2.087v2.087h-2.087v-2.087z"></path>
<path d="M14.609 9.043h2.087v2.087h-2.087v-2.087z"></path>
<path d="M18.783 9.043h2.087v2.087h-2.087v-2.087z"></path>
<path d="M18.783 17.391h2.087v2.087h-2.087v-2.087z"></path>
<path d="M18.783 21.565h2.087v2.087h-2.087v-2.087z"></path>
<path d="M18.783 25.739h2.087v2.087h-2.087v-2.087z"></path>
</svg>
