<!-- Generated by IcoMoon.io -->
<svg version="1.1" xmlns="http://www.w3.org/2000/svg" width="32" height="32" viewBox="0 0 32 32">
<title>socket</title>
<path d="M0 0v32h32v-32h-32zM30.125 30.125h-28.25v-28.25h28.25v28.25z"></path>
<path d="M3.25 3.25v25.5h25.5v-25.5h-25.5zM26.875 26.875h-21.75v-21.75h21.75v21.75z"></path>
<path d="M18.044 7.767l-1.163-0.288v2.794h-1.763v-2.794l-1.163 0.288c-3.79 0.938-6.437 4.324-6.437 8.233s2.647 7.294 6.437 8.233l1.163 0.288v-2.794h1.763v2.794l1.163-0.288c3.79-0.938 6.437-4.324 6.437-8.233s-2.647-7.295-6.437-8.233zM18.756 22.008v-2.156h-5.513v2.156c-2.316-1.058-3.85-3.381-3.85-6.008s1.534-4.95 3.85-6.008v2.156h5.513v-2.156c2.316 1.058 3.85 3.381 3.85 6.008s-1.534 4.95-3.85 6.008z"></path>
<path d="M12.779 14.701h1.875v2.376h-1.875v-2.376z"></path>
<path d="M17.346 14.701h1.875v2.376h-1.875v-2.376z"></path>
</svg>
