<!-- Generated by IcoMoon.io -->
<svg version="1.1" xmlns="http://www.w3.org/2000/svg" width="32" height="32" viewBox="0 0 32 32">
<title>fire-alarm</title>
<path d="M20.878 15.83c-0.332-0.699-0.782-1.253-1.217-1.789-0.897-1.105-1.825-2.248-2.208-5.079l-0.24-1.775-1.322 1.209c-0.141 0.129-3.010 2.807-2.843 6.766-0.267-0.198-0.555-0.442-0.851-0.74l-1.27-1.277-0.317 1.773c-0.020 0.111-0.478 2.753 0.301 5.262 0.654 2.108 2.576 3.545 4.897 3.662 0.102 0.005 0.203 0.008 0.304 0.008 2.222 0 4.164-1.234 5.001-3.205 0.171-0.402 0.294-0.822 0.365-1.248 0.236-1.41-0.195-2.718-0.599-3.567zM19.627 19.088c-0.047 0.28-0.128 0.558-0.241 0.825-0.684 1.612-2.248 2.119-3.485 2.058-1.214-0.061-2.692-0.709-3.2-2.345v0c-0.285-0.92-0.366-1.884-0.367-2.674 0.917 0.604 1.602 0.797 1.709 0.825l1.6 0.414-0.465-1.585c-0.474-1.616-0.297-3.241 0.527-4.833 0.099-0.191 0.202-0.371 0.306-0.538 0.572 1.989 1.454 3.075 2.196 3.989 0.399 0.491 0.744 0.916 0.98 1.412 0.288 0.606 0.599 1.524 0.443 2.453z"></path>
<path d="M16 3.708c-6.778 0-12.292 5.514-12.292 12.292s5.514 12.292 12.292 12.292 12.292-5.514 12.292-12.292-5.514-12.292-12.292-12.292zM16 26.417c-5.744 0-10.417-4.673-10.417-10.417s4.673-10.417 10.417-10.417 10.417 4.673 10.417 10.417-4.673 10.417-10.417 10.417z"></path>
<path d="M27.314 4.686c-3.022-3.022-7.040-4.686-11.314-4.686s-8.292 1.664-11.314 4.686c-3.022 3.022-4.686 7.040-4.686 11.314s1.664 8.292 4.686 11.314c3.022 3.022 7.040 4.686 11.314 4.686s8.292-1.664 11.314-4.686c3.022-3.022 4.686-7.040 4.686-11.314s-1.664-8.292-4.686-11.314zM16 30.125c-7.789 0-14.125-6.336-14.125-14.125s6.336-14.125 14.125-14.125 14.125 6.336 14.125 14.125-6.336 14.125-14.125 14.125z"></path>
</svg>
