<?xml version="1.0" encoding="iso-8859-1"?>
<!-- Generator: Adobe Illustrator 19.0.0, SVG Export Plug-In . SVG Version: 6.00 Build 0)  -->
<svg version="1.1" id="Capa_1" xmlns="http://www.w3.org/2000/svg" xmlns:xlink="http://www.w3.org/1999/xlink" x="0px" y="0px"
	 viewBox="0 0 512 512" style="enable-background:new 0 0 512 512;" xml:space="preserve">
<g>
	<g>
		<path d="M334.041,253.28c-5.319-11.187-12.518-20.053-19.478-28.629c-14.357-17.686-29.204-35.974-35.332-81.262l-3.843-28.396
			l-21.145,19.339c-2.258,2.065-48.159,44.919-45.487,108.263c-4.265-3.174-8.875-7.075-13.621-11.844l-20.326-20.428l-5.072,28.368
			c-0.318,1.779-7.649,44.041,4.816,84.199c10.468,33.723,41.222,56.72,78.347,58.589c1.633,0.082,3.253,0.123,4.868,0.123
			c35.553,0,66.625-19.745,80.017-51.281c2.734-6.44,4.699-13.158,5.839-19.964C347.404,287.799,340.499,266.867,334.041,253.28z
			 M314.034,305.401c-0.751,4.485-2.051,8.924-3.864,13.195c-10.952,25.79-35.97,33.912-55.764,32.921
			c-19.426-0.978-43.079-11.348-51.204-37.522v0.001c-4.567-14.714-5.857-30.152-5.879-42.777
			c14.666,9.668,25.639,12.752,27.35,13.194l25.596,6.621l-7.447-25.368c-7.588-25.848-4.752-51.863,8.43-77.322
			c1.584-3.06,3.233-5.936,4.889-8.609c9.157,31.827,23.265,49.206,35.132,63.824c6.384,7.863,11.896,14.654,15.672,22.599
			C311.554,275.856,316.525,290.536,314.034,305.401z"/>
	</g>
</g>
<g>
	<g>
		<path d="M256,59.334C147.558,59.334,59.333,147.558,59.333,256S147.558,452.667,256,452.667S452.667,364.442,452.667,256
			S364.442,59.334,256,59.334z M256,422.667C164.1,422.667,89.333,347.9,89.333,256S164.1,89.334,256,89.334
			S422.667,164.1,422.667,256S347.9,422.667,256,422.667z"/>
	</g>
</g>
<g>
	<g>
		<path d="M437.02,74.981C388.667,26.629,324.38,0,256,0S123.333,26.629,74.98,74.981C26.629,123.333,0,187.62,0,256
			s26.629,132.668,74.98,181.02C123.333,485.371,187.62,512,256,512s132.667-26.629,181.02-74.98
			C485.371,388.668,512,324.38,512,256S485.371,123.333,437.02,74.981z M256,482C131.383,482,30,380.617,30,256S131.383,30,256,30
			s226,101.383,226,226S380.617,482,256,482z"/>
	</g>
</g>
<g>
</g>
<g>
</g>
<g>
</g>
<g>
</g>
<g>
</g>
<g>
</g>
<g>
</g>
<g>
</g>
<g>
</g>
<g>
</g>
<g>
</g>
<g>
</g>
<g>
</g>
<g>
</g>
<g>
</g>
</svg>
