<!-- Generated by IcoMoon.io -->
<svg version="1.1" xmlns="http://www.w3.org/2000/svg" width="32" height="32" viewBox="0 0 32 32">
<title>house-things</title>
<path d="M31.694 15.958l-3.173-3.173v-6.872c0-0.576-0.467-1.043-1.044-1.043h-4.174c-0.576 0-1.044 0.467-1.044 1.043v0.611l-5.523-5.523c-0.407-0.407-1.068-0.407-1.476 0-0.38 0.38-14.401 14.401-14.956 14.957-0.407 0.407-0.407 1.068 0 1.476s1.068 0.407 1.476 0l1.697-1.697v14.524c0 0.576 0.467 1.044 1.043 1.044h22.956c0.576 0 1.044-0.467 1.044-1.044v-14.524l1.697 1.697c0.407 0.407 1.068 0.407 1.476 0s0.407-1.068-0-1.476zM16 3.215c0.556 0.556 9.174 9.174 9.307 9.307h-18.614l9.307-9.307zM20.174 16.696v-2.087h2.087v2.087h-2.087zM22.261 18.783v2.087h-2.087v-2.087h2.087zM5.565 14.609h4.174v6.261h-4.174v-6.261zM7.652 29.217h-2.087v-6.261h2.087v6.261zM11.826 29.217h-2.087v-2.087h2.087v2.087zM11.826 25.043h-2.087v-2.087h2.087v2.087zM11.826 14.609h6.261v6.261h-6.261v-6.261zM16 29.217h-2.087v-6.261h2.087v6.261zM20.174 29.217h-2.087v-2.087h2.087v2.087zM26.435 29.217h-4.174v-3.13c0-0.576-0.467-1.044-1.044-1.044h-3.13v-2.087h8.348v6.261zM26.435 20.87h-2.087v-6.261h2.087v6.261zM26.435 10.698l-2.087-2.087v-1.655h2.087v3.742z"></path>
</svg>
