<!-- Generated by IcoMoon.io -->
<svg version="1.1" xmlns="http://www.w3.org/2000/svg" width="32" height="32" viewBox="0 0 32 32">
<title>garage-2</title>
<path d="M23.576 12.25c0.571-1.139 0.892-2.423 0.892-3.781 0-4.669-3.799-8.469-8.469-8.469s-8.469 3.799-8.469 8.469c0 1.358 0.321 2.643 0.893 3.781l-7.724 5.942 3.246 4.219 1.528-1.175v10.764h21.054v-10.764l1.527 1.175 3.246-4.219-7.724-5.942zM16 1.875c3.636 0 6.594 2.958 6.594 6.594 0 0.927-0.192 1.809-0.539 2.611-0.252 0.583-0.586 1.123-0.988 1.605-0.341 0.409-0.731 0.776-1.16 1.092v0.001c-0.552 0.408-1.171 0.732-1.837 0.952-0.651 0.216-1.347 0.333-2.069 0.333s-1.418-0.117-2.069-0.333c-0.666-0.22-1.284-0.544-1.837-0.952v-0.001c-0.429-0.316-0.819-0.683-1.16-1.092-0.402-0.482-0.736-1.022-0.988-1.605-0.347-0.801-0.539-1.684-0.539-2.611 0-3.636 2.958-6.594 6.594-6.594zM4.289 19.781l-0.959-1.247 6.118-4.706c0.336 0.409 0.709 0.787 1.114 1.127l-6.272 4.826zM21.207 30.125h-10.103v-1.58h10.103v1.58zM21.207 26.67h-10.103v-2.017h10.103v2.017zM21.207 22.778h-10.103v-1.88h10.103v1.88zM24.652 30.125v0h-1.569v-11.102h-13.853v11.102h-1.881v-10.332l4.872-3.747c1.138 0.571 2.422 0.892 3.78 0.892s2.642-0.321 3.78-0.892h0.001l4.871 3.747v10.332zM27.711 19.781l-6.273-4.826c0.405-0.341 0.778-0.718 1.114-1.127l6.118 4.706-0.959 1.247z"></path>
<path d="M18.468 6.416v-0.897c0-1.295-1.107-2.349-2.468-2.349s-2.467 1.054-2.467 2.349v0.897h-0.966v5.986h6.866v-5.986h-0.966zM15.408 5.519c0-0.257 0.271-0.474 0.592-0.474s0.593 0.217 0.593 0.474v0.897h-1.185v-0.897zM17.558 10.527h-3.116v-2.236h3.116v2.236z"></path>
</svg>
