<?xml version="1.0" encoding="iso-8859-1"?>
<!-- Generator: Adobe Illustrator 19.0.0, SVG Export Plug-In . SVG Version: 6.00 Build 0)  -->
<svg version="1.1" id="Capa_1" xmlns="http://www.w3.org/2000/svg" xmlns:xlink="http://www.w3.org/1999/xlink" x="0px" y="0px"
	 viewBox="0 0 512 512" style="enable-background:new 0 0 512 512;" xml:space="preserve">
<g>
	<g>
		<path d="M377.22,196c9.14-18.22,14.28-38.77,14.28-60.5C391.5,60.79,330.71,0,256,0c-74.71,0-135.5,60.79-135.5,135.5
			c0,21.73,5.14,42.28,14.28,60.5L11.2,291.07l51.93,67.5l24.44-18.8V512h336.86V339.77l24.44,18.8l51.93-67.5L377.22,196z M256,30
			c58.17,0,105.5,47.33,105.5,105.5c0,14.83-3.08,28.95-8.63,41.77c-4.03,9.33-9.38,17.97-15.81,25.68
			c-5.46,6.55-11.69,12.42-18.56,17.48v0.01c-8.84,6.53-18.74,11.71-29.39,15.23C278.69,239.13,267.56,241,256,241
			c-11.56,0-22.69-1.87-33.11-5.33c-10.65-3.52-20.55-8.7-29.39-15.23v-0.01c-6.87-5.06-13.1-10.93-18.56-17.48
			c-6.43-7.71-11.78-16.35-15.81-25.68c-5.55-12.82-8.63-26.94-8.63-41.77C150.5,77.33,197.83,30,256,30z M68.62,316.5l-15.35-19.95
			l97.89-75.3c5.37,6.55,11.34,12.59,17.82,18.04l-81.41,62.63L68.62,316.5z M339.32,482H177.67v-25.277h161.65V482z
			 M339.32,426.722H177.67v-32.274h161.65V426.722z M339.32,364.448H177.67V334.37h161.65V364.448z M394.43,482L394.43,482h-25.11
			V304.37H147.67V482h-30.1V316.69l77.94-59.96h0.01C213.73,265.86,234.28,271,256,271c21.72,0,42.27-5.14,60.48-14.27h0.01
			l77.94,59.96V482z M443.38,316.5l-18.95-14.58l-81.41-62.63c6.48-5.45,12.45-11.49,17.82-18.04l97.89,75.3L443.38,316.5z"/>
	</g>
</g>
<g>
	<g>
		<path d="M295.48,102.65V88.3c0-20.72-17.71-37.58-39.48-37.58s-39.48,16.86-39.48,37.58v14.35h-15.45v95.78h109.86v-95.78H295.48z
			 M246.52,88.3c0-4.11,4.34-7.58,9.48-7.58c5.14,0,9.48,3.47,9.48,7.58v14.35h-18.96V88.3z M280.93,168.43h-49.86v-35.78h49.86
			V168.43z"/>
	</g>
</g>
<g>
</g>
<g>
</g>
<g>
</g>
<g>
</g>
<g>
</g>
<g>
</g>
<g>
</g>
<g>
</g>
<g>
</g>
<g>
</g>
<g>
</g>
<g>
</g>
<g>
</g>
<g>
</g>
<g>
</g>
</svg>
