<!-- Generated by IcoMoon.io -->
<svg version="1.1" xmlns="http://www.w3.org/2000/svg" width="32" height="32" viewBox="0 0 32 32">
<title>industrial</title>
<path d="M30.956 5.522v-2.043c0-1.726-1.404-3.13-3.13-3.13h-9.391c-1.361 0-2.521 0.872-2.952 2.087h-3.309c-1.726 0-3.13 1.404-3.13 3.13 0 1.747 1.417 3.13 3.13 3.13h6.261c1.361 0 2.521-0.872 2.952-2.087h3.219l-0.87 10.435h-2.866v-5.217c0-0.833-0.931-1.329-1.622-0.868l-7.769 5.179v-4.311c0-0.833-0.93-1.33-1.622-0.868l-9.391 6.261c-0.29 0.194-0.465 0.519-0.465 0.868v12.522c0 0.576 0.467 1.044 1.044 1.044h29.913c0.576 0 1.044-0.467 1.044-1.044v-12.522c-0-0.067-0.655-7.906-1.044-12.565zM29.822 17.044h-3.993l0.174-2.087h3.645l0.174 2.087zM29.475 12.87h-3.297l0.174-2.087h2.949l0.174 2.087zM29.127 8.696h-2.601l0.174-2.087h2.254l0.174 2.087zM20.522 4.522c-0.576 0-1.044 0.467-1.044 1.043s-0.468 1.043-1.044 1.043h-6.261c-0.578 0-1.043-0.468-1.043-1.043s0.468-1.043 1.043-1.043h4.174c0.576 0 1.044-0.467 1.044-1.043s0.468-1.043 1.044-1.043h9.391c0.575 0 1.044 0.468 1.044 1.043v1.043h-8.348zM29.913 29.565h-27.826v-10.92l7.304-4.87v4.311c0 0.833 0.931 1.329 1.622 0.868l7.769-5.179v4.311c0 0.576 0.467 1.044 1.044 1.044 0.222 0 9.948 0 10.087 0v10.435z"></path>
<path d="M13.565 21.217h-8.348c-0.576 0-1.043 0.467-1.043 1.044v4.174c0 0.576 0.467 1.044 1.043 1.044h8.348c0.576 0 1.043-0.467 1.043-1.044v-4.174c0-0.576-0.467-1.044-1.043-1.044zM8.348 25.391h-2.087v-2.087h2.087v2.087zM12.522 25.391h-2.087v-2.087h2.087v2.087z"></path>
<path d="M26.087 21.217h-8.348c-0.576 0-1.044 0.467-1.044 1.044v4.174c0 0.576 0.467 1.044 1.044 1.044h8.348c0.576 0 1.044-0.467 1.044-1.044v-4.174c0-0.576-0.467-1.044-1.044-1.044zM20.87 25.391h-2.087v-2.087h2.087v2.087zM25.044 25.391h-2.087v-2.087h2.087v2.087z"></path>
</svg>
