<!-- Generated by IcoMoon.io -->
<svg version="1.1" xmlns="http://www.w3.org/2000/svg" width="32" height="32" viewBox="0 0 32 32">
<title>home</title>
<path d="M27.468 11.446v-6.74h-5.574v2.452l-5.894-4.534-16 12.309 3.352 4.357 1.641-1.263v11.349h22.013v-11.349l1.641 1.263 3.352-4.357-4.532-3.487zM16 23.657c-0.308 0-0.559-0.251-0.559-0.559s0.251-0.559 0.559-0.559c0.308 0 0.559 0.251 0.559 0.559s-0.251 0.559-0.559 0.559zM25.129 27.499h-8.191v-2.153c0.879-0.368 1.498-1.237 1.498-2.248 0-1.343-1.093-2.436-2.436-2.436s-2.436 1.093-2.436 2.436c0 1.011 0.619 1.88 1.498 2.248v2.153h-8.191v-10.916l9.129-7.023 9.129 7.023v10.916zM28.305 16.657l-12.305-9.466-12.305 9.466-1.063-1.382 13.368-10.283 7.771 5.978v-4.387h1.82v5.787l3.777 2.906-1.063 1.382z"></path>
<path d="M16 17.015c-1.205 0-2.271 0.767-2.653 1.909l1.78 0.596c0.126-0.376 0.477-0.628 0.873-0.628s0.747 0.252 0.873 0.627l1.779-0.598c-0.383-1.14-1.449-1.906-2.652-1.906z"></path>
<path d="M16 13.523c-2.698 0-5.085 1.718-5.941 4.274l1.78 0.596c0.599-1.79 2.271-2.993 4.16-2.993 1.887 0 3.559 1.201 4.159 2.989l1.779-0.598c-0.857-2.553-3.244-4.268-5.938-4.268z"></path>
</svg>
