<?xml version="1.0" encoding="iso-8859-1"?>
<!-- Generator: Adobe Illustrator 19.0.0, SVG Export Plug-In . SVG Version: 6.00 Build 0)  -->
<svg version="1.1" id="Capa_1" xmlns="http://www.w3.org/2000/svg" xmlns:xlink="http://www.w3.org/1999/xlink" x="0px" y="0px"
	 viewBox="0 0 512 512" style="enable-background:new 0 0 512 512;" xml:space="preserve">
<g>
	<g>
		<path d="M439.481,183.132V75.29h-89.183v39.234L256,41.981L0,238.919l53.633,69.718l26.261-20.201v181.583h352.211V288.434
			l26.263,20.202L512,238.919L439.481,183.132z M256,378.506c-4.934,0-8.947-4.014-8.947-8.946c0-4.934,4.014-8.946,8.947-8.946
			c4.934,0,8.946,4.014,8.946,8.946S260.933,378.506,256,378.506z M402.07,439.983H271.017v-34.455
			c14.06-5.892,23.964-19.795,23.964-35.969c0-21.495-17.487-38.981-38.981-38.981c-21.495,0-38.982,17.487-38.982,38.981
			c0,16.175,9.904,30.077,23.965,35.969v34.455H109.929V265.329L256,152.965l146.07,112.363V439.983z M452.874,266.517L256,115.065
			L59.125,266.517l-17.006-22.106L256,79.876l124.333,95.648v-70.199h29.113v92.596l60.434,46.491L452.874,266.517z"/>
	</g>
</g>
<g>
	<g>
		<path d="M255.998,272.236c-19.277,0-36.337,12.276-42.452,30.549l28.482,9.532c2.01-6.009,7.625-10.046,13.97-10.046
			c6.338,0,11.95,4.031,13.965,10.031l28.472-9.563C292.307,284.494,275.253,272.236,255.998,272.236z"/>
	</g>
</g>
<g>
	<g>
		<path d="M256.008,216.374c-43.162,0-81.36,27.484-95.05,68.39l28.482,9.532c9.586-28.642,36.337-47.887,66.567-47.887
			c30.196,0,56.937,19.215,66.542,47.816l28.472-9.563C337.305,243.816,299.121,216.374,256.008,216.374z"/>
	</g>
</g>
<g>
</g>
<g>
</g>
<g>
</g>
<g>
</g>
<g>
</g>
<g>
</g>
<g>
</g>
<g>
</g>
<g>
</g>
<g>
</g>
<g>
</g>
<g>
</g>
<g>
</g>
<g>
</g>
<g>
</g>
</svg>
