<!-- Generated by IcoMoon.io -->
<svg version="1.1" xmlns="http://www.w3.org/2000/svg" width="32" height="32" viewBox="0 0 32 32">
<title>real-estate</title>
<path d="M31.889 8.925l-4.174-8.347c-0.177-0.353-0.538-0.577-0.933-0.577h-21.564c-0.395 0-0.756 0.223-0.933 0.577l-4.174 8.347c-0.346 0.692 0.158 1.51 0.933 1.51h1.043v20.52c0 0.576 0.467 1.043 1.043 1.043 0.256 0 25.055 0 25.737 0 0.576 0 1.043-0.467 1.043-1.043 0-0.857 0-19.838 0-20.52h1.043c0.774 0 1.28-0.816 0.933-1.51zM21.217 29.912h-10.434v-2.087h10.434v2.087zM12.87 25.738v-9.043h6.26v9.043h-6.26zM27.825 20.869h-2.435v-4.174h2.435v4.174zM27.825 14.609h-3.478c-0.576 0-1.043 0.467-1.043 1.043v6.26c0 0.576 0.467 1.043 1.043 1.043h3.478v6.956h-4.521v-3.13c0-0.576-0.467-1.043-1.043-1.043h-1.043v-10.086c0-0.576-0.467-1.043-1.043-1.043h-8.347c-0.576 0-1.043 0.467-1.043 1.043v10.086h-1.043c-0.576 0-1.043 0.467-1.043 1.043v3.13h-4.521v-6.956h3.478c0.576 0 1.043-0.467 1.043-1.043v-6.26c0-0.576-0.467-1.043-1.043-1.043h-3.478v-4.174h23.651v4.174zM4.175 20.869v-4.174h2.435v4.174h-2.435zM2.733 8.348l3.13-6.261h20.274l3.13 6.26c-0.28 0-26.18 0-26.535 0z"></path>
</svg>
