<?xml version="1.0" encoding="iso-8859-1"?>
<!-- Generator: Adobe Illustrator 19.0.0, SVG Export Plug-In . SVG Version: 6.00 Build 0)  -->
<svg version="1.1" id="Capa_1" xmlns="http://www.w3.org/2000/svg" xmlns:xlink="http://www.w3.org/1999/xlink" x="0px" y="0px"
	 viewBox="0 0 512 512" style="enable-background:new 0 0 512 512;" xml:space="preserve">
<g>
	<g>
		<path d="M19.653,0v82.166c0,31.366,24.758,57.056,55.758,58.56v74.788h69.017v22.452h30v-22.452h69.017v-74.715h108.104v275.354
			H225.937c8.241-7.698,15.082-16.875,20.092-27.107h15.96c23.095,0,41.885-18.79,41.885-41.886
			c0-23.096-18.79-41.885-41.885-41.885h-6.563V291.73H63.429v56.665c0,26.713,11.356,50.819,29.49,67.758H58.752
			c-21.559,0-39.099,17.54-39.099,39.1V512h472.694v-70.862v-24.984V140.799v-30V0H19.653z M255.427,348.396v-13.12h6.563v-0.001
			c6.553,0,11.885,5.331,11.885,11.885s-5.332,11.886-11.885,11.886h-7.178C255.214,355.55,255.427,351.997,255.427,348.396z
			 M213.445,185.514H105.411v-44.715h108.034V185.514z M93.429,321.73h131.998v26.665c0,34.596-28.146,62.742-62.742,62.742h-6.514
			c-34.596,0-62.742-28.146-62.742-62.742V321.73z M462.347,482H49.653v-26.747c0-5.017,4.082-9.1,9.099-9.1h403.595V482z
			 M462.347,254.907h-40.399v30h40.399v18.97h-40.399v30h40.399v18.969h-40.399v30h40.399v28.292h-80.798V140.799h80.798V254.907z
			 M462.347,110.799L462.347,110.799H78.286c-15.788,0-28.633-12.845-28.633-28.633V30h412.694V110.799z"/>
	</g>
</g>
<g>
	<g>
		<rect x="144.43" y="256.72" width="30" height="19.248"/>
	</g>
</g>
<g>
	<g>
		<rect x="404.76" y="55.27" width="30.25" height="30.25"/>
	</g>
</g>
<g>
	<g>
		<rect x="347.76" y="55.27" width="30.25" height="30.25"/>
	</g>
</g>
<g>
</g>
<g>
</g>
<g>
</g>
<g>
</g>
<g>
</g>
<g>
</g>
<g>
</g>
<g>
</g>
<g>
</g>
<g>
</g>
<g>
</g>
<g>
</g>
<g>
</g>
<g>
</g>
<g>
</g>
</svg>
