<?xml version="1.0" encoding="iso-8859-1"?>
<!-- Generator: Adobe Illustrator 19.0.0, SVG Export Plug-In . SVG Version: 6.00 Build 0)  -->
<svg version="1.1" id="Layer_1" xmlns="http://www.w3.org/2000/svg" xmlns:xlink="http://www.w3.org/1999/xlink" x="0px" y="0px"
	 viewBox="0 0 512 512" style="enable-background:new 0 0 512 512;" xml:space="preserve">
<g>
	<g>
		<path d="M489.739,478.609h-50.087V33.391h16.696c9.22,0,16.696-7.475,16.696-16.696S465.568,0,456.348,0
			C423.738,0,70.79,0,55.652,0c-9.22,0-16.696,7.475-16.696,16.696s7.475,16.696,16.696,16.696h16.696v445.217H22.261
			c-9.22,0-16.696,7.475-16.696,16.696S13.04,512,22.261,512c10.133,0,425.466,0,467.478,0c9.22,0,16.696-7.475,16.696-16.696
			S498.96,478.609,489.739,478.609z M406.261,478.609H105.739V33.391h300.522V478.609z"/>
	</g>
</g>
<g>
	<g>
		<path d="M222.609,77.913h-66.783c-9.22,0-16.696,7.475-16.696,16.696v66.783c0,9.22,7.475,16.696,16.696,16.696h66.783
			c9.22,0,16.696-7.475,16.696-16.696V94.609C239.304,85.388,231.829,77.913,222.609,77.913z M205.913,144.696h-33.391v-33.391
			h33.391V144.696z"/>
	</g>
</g>
<g>
	<g>
		<path d="M356.174,77.913h-66.783c-9.22,0-16.696,7.475-16.696,16.696v66.783c0,9.22,7.475,16.696,16.696,16.696h66.783
			c9.22,0,16.696-7.475,16.696-16.696V94.609C372.87,85.388,365.394,77.913,356.174,77.913z M339.478,144.696h-33.391v-33.391
			h33.391V144.696z"/>
	</g>
</g>
<g>
	<g>
		<path d="M222.609,211.478h-66.783c-9.22,0-16.696,7.475-16.696,16.696v66.783c0,9.22,7.475,16.696,16.696,16.696h66.783
			c9.22,0,16.696-7.475,16.696-16.696v-66.783C239.304,218.953,231.829,211.478,222.609,211.478z M205.913,278.261h-33.391V244.87
			h33.391V278.261z"/>
	</g>
</g>
<g>
	<g>
		<path d="M356.174,211.478h-66.783c-9.22,0-16.696,7.475-16.696,16.696v66.783c0,9.22,7.475,16.696,16.696,16.696h66.783
			c9.22,0,16.696-7.475,16.696-16.696v-66.783C372.87,218.953,365.394,211.478,356.174,211.478z M339.478,278.261h-33.391V244.87
			h33.391V278.261z"/>
	</g>
</g>
<g>
	<g>
		<path d="M222.609,345.043h-66.783c-9.22,0-16.696,7.475-16.696,16.696v66.783c0,9.22,7.475,16.696,16.696,16.696h66.783
			c9.22,0,16.696-7.475,16.696-16.696v-66.783C239.304,352.519,231.829,345.043,222.609,345.043z M205.913,411.826h-33.391v-33.391
			h33.391V411.826z"/>
	</g>
</g>
<g>
	<g>
		<path d="M356.174,345.043h-66.783c-9.22,0-16.696,7.475-16.696,16.696v66.783c0,9.22,7.475,16.696,16.696,16.696h66.783
			c9.22,0,16.696-7.475,16.696-16.696v-66.783C372.87,352.519,365.394,345.043,356.174,345.043z M339.478,411.826h-33.391v-33.391
			h33.391V411.826z"/>
	</g>
</g>
<g>
</g>
<g>
</g>
<g>
</g>
<g>
</g>
<g>
</g>
<g>
</g>
<g>
</g>
<g>
</g>
<g>
</g>
<g>
</g>
<g>
</g>
<g>
</g>
<g>
</g>
<g>
</g>
<g>
</g>
</svg>
