<!-- Generated by IcoMoon.io -->
<svg version="1.1" xmlns="http://www.w3.org/2000/svg" width="32" height="32" viewBox="0 0 32 32">
<title>coffee-machine</title>
<path d="M1.228 0v5.135c0 1.96 1.547 3.566 3.485 3.66v4.674h4.314v1.403h1.875v-1.403h4.314v-4.67h6.756v17.21h-7.851c0.515-0.481 0.943-1.055 1.256-1.694h0.997c1.443 0 2.618-1.174 2.618-2.618s-1.174-2.618-2.618-2.618h-0.41v-0.847h-12v3.542c0 1.67 0.71 3.176 1.843 4.235h-2.135c-1.347 0-2.444 1.096-2.444 2.444v3.547h29.543v-32h-29.543zM15.964 21.775v-0.82l0.41-0c0.41 0 0.743 0.333 0.743 0.743s-0.333 0.743-0.743 0.743h-0.449c0.025-0.218 0.038-0.441 0.038-0.666zM13.34 11.595h-6.752v-2.795h6.752v2.795zM5.839 20.108h8.25v1.667c0 2.162-1.759 3.921-3.921 3.921h-0.407c-2.162 0-3.921-1.759-3.921-3.921v-1.667zM28.897 30.125h-25.793v-1.672c0-0.314 0.255-0.569 0.569-0.569h25.225v2.24zM28.897 15.932h-2.525v1.875h2.525v1.186h-2.525v1.875h2.525v1.186h-2.525v1.875h2.525v1.768h-5.050v-16.896h5.050v7.132zM28.897 6.925v0h-24.004c-0.987 0-1.79-0.803-1.79-1.79v-3.26h25.793v5.050z"></path>
<path d="M9.027 16.045h1.875v1.203h-1.875v-1.203z"></path>
<path d="M25.297 3.454h1.891v1.891h-1.891v-1.891z"></path>
<path d="M21.735 3.454h1.891v1.891h-1.891v-1.891z"></path>
</svg>
