<!-- Generated by IcoMoon.io -->
<svg version="1.1" xmlns="http://www.w3.org/2000/svg" width="32" height="32" viewBox="0 0 32 32">
<title>property</title>
<path d="M30.609 29.913h-3.13v-27.826h1.044c0.576 0 1.044-0.467 1.044-1.044s-0.467-1.043-1.044-1.043c-2.038 0-24.097 0-25.044 0-0.576 0-1.043 0.467-1.043 1.044s0.467 1.044 1.043 1.044h1.043v27.826h-3.13c-0.576 0-1.044 0.467-1.044 1.044s0.467 1.043 1.044 1.043c0.633 0 26.592 0 29.217 0 0.576 0 1.044-0.467 1.044-1.044s-0.467-1.043-1.044-1.043zM25.391 29.913h-18.783v-27.826h18.783v27.826z"></path>
<path d="M13.913 4.87h-4.174c-0.576 0-1.043 0.467-1.043 1.043v4.174c0 0.576 0.467 1.043 1.043 1.043h4.174c0.576 0 1.043-0.467 1.043-1.043v-4.174c-0-0.576-0.467-1.043-1.043-1.043zM12.87 9.043h-2.087v-2.087h2.087v2.087z"></path>
<path d="M22.261 4.87h-4.174c-0.576 0-1.044 0.467-1.044 1.043v4.174c0 0.576 0.467 1.043 1.044 1.043h4.174c0.576 0 1.044-0.467 1.044-1.043v-4.174c0-0.576-0.467-1.043-1.044-1.043zM21.217 9.043h-2.087v-2.087h2.087v2.087z"></path>
<path d="M13.913 13.217h-4.174c-0.576 0-1.043 0.467-1.043 1.043v4.174c0 0.576 0.467 1.044 1.043 1.044h4.174c0.576 0 1.043-0.467 1.043-1.044v-4.174c-0-0.576-0.467-1.043-1.043-1.043zM12.87 17.391h-2.087v-2.087h2.087v2.087z"></path>
<path d="M22.261 13.217h-4.174c-0.576 0-1.044 0.467-1.044 1.043v4.174c0 0.576 0.467 1.044 1.044 1.044h4.174c0.576 0 1.044-0.467 1.044-1.044v-4.174c0-0.576-0.467-1.043-1.044-1.043zM21.217 17.391h-2.087v-2.087h2.087v2.087z"></path>
<path d="M13.913 21.565h-4.174c-0.576 0-1.043 0.467-1.043 1.044v4.174c0 0.576 0.467 1.044 1.043 1.044h4.174c0.576 0 1.043-0.467 1.043-1.044v-4.174c-0-0.576-0.467-1.044-1.043-1.044zM12.87 25.739h-2.087v-2.087h2.087v2.087z"></path>
<path d="M22.261 21.565h-4.174c-0.576 0-1.044 0.467-1.044 1.044v4.174c0 0.576 0.467 1.044 1.044 1.044h4.174c0.576 0 1.044-0.467 1.044-1.044v-4.174c0-0.576-0.467-1.044-1.044-1.044zM21.217 25.739h-2.087v-2.087h2.087v2.087z"></path>
</svg>
