<!-- Generated by IcoMoon.io -->
<svg version="1.1" xmlns="http://www.w3.org/2000/svg" width="32" height="32" viewBox="0 0 32 32">
<title>doorbell</title>
<path d="M4.992 0v32h22.017v-32h-22.017zM25.134 30.125h-18.267v-28.25h18.267v28.25z"></path>
<path d="M16 3.51c-1.821 0-3.303 1.482-3.303 3.303s1.482 3.303 3.303 3.303c1.821 0 3.303-1.482 3.303-3.303s-1.482-3.303-3.303-3.303zM16 8.24c-0.787 0-1.428-0.64-1.428-1.428s0.64-1.428 1.428-1.428c0.787 0 1.428 0.64 1.428 1.428s-0.64 1.428-1.428 1.428z"></path>
<path d="M9.328 19.063h2.563v1.875h-2.563v-1.875z"></path>
<path d="M14.719 19.063h2.563v1.875h-2.563v-1.875z"></path>
<path d="M20.11 19.063h2.563v1.875h-2.563v-1.875z"></path>
<path d="M9.328 22.625h2.563v1.875h-2.563v-1.875z"></path>
<path d="M14.719 22.625h2.563v1.875h-2.563v-1.875z"></path>
<path d="M20.11 22.625h2.563v1.875h-2.563v-1.875z"></path>
<path d="M9.328 26.188h2.563v1.875h-2.563v-1.875z"></path>
<path d="M14.719 26.188h2.563v1.875h-2.563v-1.875z"></path>
<path d="M20.11 26.188h2.563v1.875h-2.563v-1.875z"></path>
<path d="M9.328 11.541h13.344v1.875h-13.344v-1.875z"></path>
<path d="M9.328 14.822h13.344v1.875h-13.344v-1.875z"></path>
</svg>
