<!-- Generated by IcoMoon.io -->
<svg version="1.1" xmlns="http://www.w3.org/2000/svg" width="32" height="32" viewBox="0 0 32 32">
<title>up</title>
<path d="M27.826 18.435c0 0.576-0.467 1.044-1.044 1.044s-1.044-0.467-1.044-1.044c0-0.576 0.467-1.044 1.044-1.044s1.044 0.467 1.044 1.044z"></path>
<path d="M27.826 22.609c0 0.576-0.467 1.044-1.044 1.044s-1.044-0.467-1.044-1.044c0-0.576 0.467-1.044 1.044-1.044s1.044 0.467 1.044 1.044z"></path>
<path d="M29.565 0h-27.13c-1.343 0-2.435 1.092-2.435 2.435v27.13c0 1.343 1.092 2.435 2.435 2.435 0.723 0 26.391 0 27.13 0 1.343 0 2.435-1.092 2.435-2.435v-27.13c0-1.343-1.092-2.435-2.435-2.435zM12.87 29.913h-6.609v-15.304h6.609v15.304zM21.565 29.913h-6.609v-15.304h6.609v15.304zM29.913 29.565c0 0.192-0.156 0.348-0.348 0.348h-5.913v-16.348c0-0.576-0.467-1.043-1.044-1.043h-17.391c-0.576 0-1.043 0.467-1.043 1.043v16.348h-1.739c-0.192 0-0.348-0.156-0.348-0.348v-27.13c0-0.192 0.156-0.348 0.348-0.348h27.13c0.192 0 0.348 0.156 0.348 0.348v27.13z"></path>
<path d="M22.609 4.174h-17.391c-0.576 0-1.043 0.467-1.043 1.043v4.174c0 0.576 0.467 1.043 1.043 1.043h17.391c0.576 0 1.044-0.467 1.044-1.043v-4.174c0-0.576-0.467-1.043-1.044-1.043zM21.565 8.348h-15.304v-2.087h15.304v2.087z"></path>
</svg>
