<?xml version="1.0" encoding="iso-8859-1"?>
<!-- Generator: Adobe Illustrator 19.0.0, SVG Export Plug-In . SVG Version: 6.00 Build 0)  -->
<svg version="1.1" id="Capa_1" xmlns="http://www.w3.org/2000/svg" xmlns:xlink="http://www.w3.org/1999/xlink" x="0px" y="0px"
	 viewBox="0 0 512 512" style="enable-background:new 0 0 512 512;" xml:space="preserve">
<g>
	<g>
		<path d="M79.864,0v512h352.272V0H79.864z M402.136,482H109.864V30h292.272V482z"/>
	</g>
</g>
<g>
	<g>
		<path d="M256,56.158c-29.137,0-52.842,23.705-52.842,52.842c0,29.137,23.705,52.842,52.842,52.842
			c29.137,0,52.842-23.705,52.842-52.842C308.842,79.863,285.137,56.158,256,56.158z M256,131.842
			c-12.595,0-22.842-10.247-22.842-22.842c0-12.595,10.247-22.842,22.842-22.842c12.595,0,22.842,10.247,22.842,22.842
			C278.842,121.595,268.595,131.842,256,131.842z"/>
	</g>
</g>
<g>
	<g>
		<rect x="149.24" y="305" width="41" height="30"/>
	</g>
</g>
<g>
	<g>
		<rect x="235.5" y="305" width="41" height="30"/>
	</g>
</g>
<g>
	<g>
		<rect x="321.76" y="305" width="41" height="30"/>
	</g>
</g>
<g>
	<g>
		<rect x="149.24" y="362" width="41" height="30"/>
	</g>
</g>
<g>
	<g>
		<rect x="235.5" y="362" width="41" height="30"/>
	</g>
</g>
<g>
	<g>
		<rect x="321.76" y="362" width="41" height="30"/>
	</g>
</g>
<g>
	<g>
		<rect x="149.24" y="419" width="41" height="30"/>
	</g>
</g>
<g>
	<g>
		<rect x="235.5" y="419" width="41" height="30"/>
	</g>
</g>
<g>
	<g>
		<rect x="321.76" y="419" width="41" height="30"/>
	</g>
</g>
<g>
	<g>
		<rect x="149.24" y="184.66" width="213.51" height="30"/>
	</g>
</g>
<g>
	<g>
		<rect x="149.24" y="237.16" width="213.51" height="30"/>
	</g>
</g>
<g>
</g>
<g>
</g>
<g>
</g>
<g>
</g>
<g>
</g>
<g>
</g>
<g>
</g>
<g>
</g>
<g>
</g>
<g>
</g>
<g>
</g>
<g>
</g>
<g>
</g>
<g>
</g>
<g>
</g>
</svg>
