<!-- Generated by IcoMoon.io -->
<svg version="1.1" xmlns="http://www.w3.org/2000/svg" width="32" height="32" viewBox="0 0 32 32">
<title>window</title>
<path d="M28.747 5.627v-5.627h-25.494v5.627h1.497v20.746h-1.497v5.627h25.494v-5.627h-1.497v-20.746h1.497zM26.872 30.125h-21.744v-1.877h21.744v1.877zM6.625 26.373v-20.746h1.693v20.746h-1.693zM21.912 13v1.085h-11.718v-1.085h11.718zM10.194 11.125v-5.498h11.718v5.498h-11.718zM21.912 15.96v10.413h-11.718v-10.413h11.718zM23.787 26.373v-20.746h1.588v20.746h-1.588zM26.872 3.752h-21.744v-1.877h21.744v1.877z"></path>
<path d="M18.302 20.875l-1.364 0.907v-3.72h-1.875v3.72l-1.364-0.907-1.038 1.561 3.34 2.22 3.34-2.22z"></path>
</svg>
