<?xml version="1.0" encoding="iso-8859-1"?>
<!-- Generator: Adobe Illustrator 19.0.0, SVG Export Plug-In . SVG Version: 6.00 Build 0)  -->
<svg version="1.1" id="Layer_1" xmlns="http://www.w3.org/2000/svg" xmlns:xlink="http://www.w3.org/1999/xlink" x="0px" y="0px"
	 viewBox="0 0 512.001 512.001" style="enable-background:new 0 0 512.001 512.001;" xml:space="preserve">
<g>
	<g>
		<path d="M489.74,244.871h-16.696v-33.391h16.696c12.96,0,20.983-14.172,14.316-25.286L437.273,74.889
			c-1.878-3.129-4.728-5.556-8.115-6.911L262.202,1.195c-3.98-1.594-8.421-1.594-12.403,0L82.842,67.978
			c-3.387,1.355-6.237,3.782-8.115,6.911L7.944,186.193c-6.666,11.115,1.358,25.286,14.317,25.286h16.696v33.391H22.262
			c-9.22,0-16.696,7.475-16.696,16.696c0,9.22,7.475,16.696,16.696,16.696h16.696c0,11.248,0,205.326,0,217.043
			c0,9.22,7.475,16.696,16.696,16.696c4.243,0,397.043,0,400.696,0c9.22,0,16.696-7.475,16.696-16.696c0-11.721,0-205.798,0-217.043
			h16.696c9.22,0,16.696-7.475,16.696-16.696C506.435,252.346,498.96,244.871,489.74,244.871z M189.218,478.61H72.349v-33.391
			c18.193,0,101.084,0,116.87,0V478.61z M72.349,411.827v-33.391h50.087v33.391H72.349z M289.392,478.61h-66.783v-50.087
			c9.22,0,16.696-7.475,16.696-16.696c0-9.22-7.475-16.696-16.696-16.696v-16.696c0-18.412,14.979-33.391,33.391-33.391
			c18.412,0,33.391,14.979,33.391,33.391V478.61z M439.653,478.61h-116.87v-33.391c15.823,0,98.755,0,116.87,0V478.61z
			 M439.653,411.827h-50.087v-33.391h50.087V411.827z M439.653,345.045H372.87c-9.22,0-16.696,7.475-16.696,16.696v50.087h-33.391
			v-33.391c0-36.824-29.959-66.783-66.783-66.783s-66.783,29.959-66.783,66.783v33.391h-33.391V361.74
			c0-9.22-7.475-16.696-16.696-16.696H72.349v-66.783c3.577,0,360.23,0,367.304,0V345.045z M72.349,244.871v-33.391
			c7.672,0,59.585,0,66.783,0v33.391H72.349z M239.305,211.479v33.391h-66.783v-33.391H239.305z M172.522,178.088v-33.391h66.783
			v33.391H172.522z M339.479,211.479v33.391h-66.783v-33.391H339.479z M272.696,178.088v-33.391h66.783v33.391H272.696z
			 M439.653,244.871H372.87v-33.391c7.312,0,58.286,0,66.783,0V244.871z M372.87,178.088v-50.087c0-9.22-7.475-16.696-16.696-16.696
			H155.827c-9.22,0-16.696,7.475-16.696,16.696v50.087c-11.02,0-78.215,0-87.382,0l48.718-81.195l155.533-62.214l155.533,62.215
			l48.718,81.194C450.983,178.088,383.88,178.088,372.87,178.088z"/>
	</g>
</g>
<g>
</g>
<g>
</g>
<g>
</g>
<g>
</g>
<g>
</g>
<g>
</g>
<g>
</g>
<g>
</g>
<g>
</g>
<g>
</g>
<g>
</g>
<g>
</g>
<g>
</g>
<g>
</g>
<g>
</g>
</svg>
