<!-- Generated by IcoMoon.io -->
<svg version="1.1" xmlns="http://www.w3.org/2000/svg" width="32" height="32" viewBox="0 0 32 32">
<title>glamour</title>
<path d="M30.609 15.304h-1.044v-2.087h1.044c0.81 0 1.311-0.886 0.895-1.58l-4.174-6.957c-0.117-0.196-0.296-0.347-0.507-0.432l-10.435-4.174c-0.249-0.1-0.526-0.1-0.775 0l-10.435 4.174c-0.212 0.085-0.39 0.236-0.507 0.432l-4.174 6.957c-0.417 0.695 0.085 1.58 0.895 1.58h1.044v2.087h-1.043c-0.576 0-1.044 0.467-1.044 1.043s0.467 1.044 1.044 1.044h1.044c0 0.703 0 12.833 0 13.565 0 0.576 0.467 1.044 1.043 1.044 0.265 0 24.815 0 25.043 0 0.576 0 1.044-0.467 1.044-1.044 0-0.733 0-12.862 0-13.565h1.044c0.576 0 1.044-0.467 1.044-1.044s-0.467-1.043-1.044-1.043zM11.826 29.913h-7.304v-2.087c1.137 0 6.318 0 7.304 0v2.087zM4.522 25.739v-2.087h3.13v2.087h-3.13zM18.087 29.913h-4.174v-3.13c0.576 0 1.043-0.467 1.043-1.044s-0.467-1.044-1.043-1.044v-1.044c0-1.151 0.936-2.087 2.087-2.087s2.087 0.936 2.087 2.087v6.261zM27.478 29.913h-7.304v-2.087c0.989 0 6.172 0 7.304 0v2.087zM27.478 25.739h-3.13v-2.087h3.13v2.087zM27.478 21.565h-4.174c-0.576 0-1.044 0.467-1.044 1.044v3.13h-2.087v-2.087c0-2.302-1.872-4.174-4.174-4.174s-4.174 1.872-4.174 4.174v2.087h-2.087v-3.131c0-0.576-0.467-1.044-1.043-1.044h-4.174v-4.174c0.224 0 22.514 0 22.956 0v4.174zM4.522 15.304v-2.087c0.479 0 3.724 0 4.174 0v2.087h-4.174zM14.957 13.217v2.087h-4.174v-2.087h4.174zM10.783 11.13v-2.087h4.174v2.087h-4.174zM21.217 13.217v2.087h-4.174v-2.087h4.174zM17.043 11.13v-2.087h4.174v2.087h-4.174zM27.478 15.304h-4.174v-2.087c0.457 0 3.643 0 4.174 0v2.087zM23.304 11.13v-3.13c0-0.576-0.467-1.043-1.044-1.043h-12.522c-0.576 0-1.043 0.467-1.043 1.043v3.13c-0.689 0-4.888 0-5.461 0l3.045-5.075 9.721-3.888 9.721 3.888 3.045 5.075c-0.579 0-4.773 0-5.461 0z"></path>
</svg>
