<!-- Generated by IcoMoon.io -->
<svg version="1.1" xmlns="http://www.w3.org/2000/svg" width="32" height="32" viewBox="0 0 32 32">
<title>lamp-1</title>
<path d="M27.742 20.316c-0.015-3.125-1.242-6.061-3.457-8.266-1.161-1.156-2.522-2.040-4.005-2.619v-4.174h-3.343v-5.257h-1.875v5.257h-3.343v4.174c-1.482 0.579-2.843 1.463-4.005 2.619-2.215 2.205-3.443 5.141-3.457 8.266l-0.004 0.942h6.195c0.458 2.649 2.777 4.674 5.551 4.674s5.093-2.025 5.551-4.674h6.195l-0.004-0.942zM18.405 7.132v1.743c-0.783-0.162-1.588-0.246-2.405-0.246s-1.623 0.084-2.405 0.246v-1.743h4.81zM16 24.057c-1.738 0-3.208-1.191-3.634-2.799h7.268c-0.426 1.608-1.896 2.799-3.634 2.799zM6.182 19.383c0.499-4.975 4.72-8.879 9.818-8.879s9.319 3.904 9.818 8.879h-19.636z"></path>
<path d="M15.063 28.166h1.875v3.834h-1.875v-3.834z"></path>
<path d="M20.409 26.869l1.425-1.219 2.494 2.913-1.424 1.219-2.494-2.913z"></path>
<path d="M7.673 28.564l2.493-2.912 1.424 1.219-2.493 2.912-1.424-1.219z"></path>
</svg>
