<?xml version="1.0" encoding="iso-8859-1"?>
<!-- Generator: Adobe Illustrator 19.0.0, SVG Export Plug-In . SVG Version: 6.00 Build 0)  -->
<svg version="1.1" id="Layer_1" xmlns="http://www.w3.org/2000/svg" xmlns:xlink="http://www.w3.org/1999/xlink" x="0px" y="0px"
	 viewBox="0 0 512 512" style="enable-background:new 0 0 512 512;" xml:space="preserve">
<g>
	<g>
		<path d="M473.043,414.698V50.087C473.043,22.469,450.574,0,422.957,0C408.3,0,103.7,0,89.044,0
			C61.426,0,38.957,22.469,38.957,50.087v364.611c-19.433,6.892-33.391,25.45-33.391,47.215v33.391
			c0,9.22,7.475,16.696,16.696,16.696h467.478c9.22,0,16.696-7.475,16.696-16.696v-33.391
			C506.435,440.147,492.476,421.59,473.043,414.698z M272.696,33.391h66.783v16.696c0,33.201,14.198,64.951,38.952,87.107
			c6.877,6.155,17.432,5.559,23.575-1.306c6.15-6.871,5.565-17.426-1.306-23.575c-17.687-15.83-27.831-38.51-27.831-62.226V33.391
			h50.087c9.206,0,16.696,7.49,16.696,16.696v182.885c-93.47-8.464-166.956-87.247-166.956-182.885V33.391z M439.652,268.81v143.016
			H372.87v-61.217C372.87,310.295,401.595,276.567,439.652,268.81z M272.696,165.626c26.545,42.043,67.113,74.384,115.09,90.398
			c-29.251,21.263-48.307,55.737-48.307,94.584v61.217h-66.783V165.626z M72.348,50.087c0-9.206,7.49-16.696,16.696-16.696h50.087
			v16.696c0,23.716-10.143,46.396-27.829,62.226c-6.871,6.15-7.456,16.705-1.307,23.575c6.151,6.872,16.705,7.455,23.575,1.307
			c24.754-22.157,38.952-53.906,38.952-87.108V33.391h66.783v16.696c0,95.638-73.487,174.422-166.957,182.885V50.087z
			 M124.215,256.026c47.977-16.014,88.545-48.355,115.09-90.398v246.199h-66.783v-61.217
			C172.522,311.761,153.465,277.287,124.215,256.026z M72.348,268.81c38.057,7.756,66.783,41.485,66.783,81.799v61.217H72.348
			V268.81z M473.043,478.609H38.957v-16.696c0-9.206,7.49-16.696,16.696-16.696c17.597,0,383.128,0,400.696,0
			c9.206,0,16.696,7.49,16.696,16.696V478.609z"/>
	</g>
</g>
<g>
</g>
<g>
</g>
<g>
</g>
<g>
</g>
<g>
</g>
<g>
</g>
<g>
</g>
<g>
</g>
<g>
</g>
<g>
</g>
<g>
</g>
<g>
</g>
<g>
</g>
<g>
</g>
<g>
</g>
</svg>
