<!-- Generated by IcoMoon.io -->
<svg version="1.1" xmlns="http://www.w3.org/2000/svg" width="32" height="32" viewBox="0 0 32 32">
<title>frame</title>
<path d="M29.565 25.919v-22.788c0-1.726-1.404-3.13-3.13-3.13-0.916 0-19.954 0-20.87 0-1.726 0-3.13 1.404-3.13 3.13v22.788c-1.215 0.431-2.087 1.591-2.087 2.951v2.087c0 0.576 0.467 1.043 1.044 1.043h29.217c0.576 0 1.044-0.467 1.044-1.044v-2.087c-0-1.36-0.872-2.52-2.087-2.951zM17.044 2.087h4.174v1.044c0 2.075 0.887 4.059 2.434 5.444 0.43 0.385 1.090 0.347 1.473-0.082s0.348-1.089-0.082-1.473c-1.105-0.989-1.739-2.407-1.739-3.889v-1.043h3.13c0.575 0 1.044 0.468 1.044 1.043v11.43c-5.842-0.529-10.435-5.453-10.435-11.43v-1.043zM27.478 16.801v8.939h-4.174v-3.826c0-2.52 1.795-4.628 4.174-5.112zM17.044 10.352c1.659 2.628 4.195 4.649 7.193 5.65-1.828 1.329-3.019 3.484-3.019 5.912v3.826h-4.174v-15.387zM4.522 3.13c0-0.575 0.468-1.043 1.043-1.043h3.13v1.043c0 1.482-0.634 2.9-1.739 3.889-0.429 0.384-0.466 1.044-0.082 1.473s1.044 0.466 1.473 0.082c1.547-1.385 2.434-3.369 2.434-5.444v-1.043h4.174v1.043c0 5.977-4.593 10.901-10.435 11.43v-11.43zM7.763 16.002c2.999-1.001 5.534-3.022 7.193-5.65v15.387h-4.174v-3.826c0-2.428-1.191-4.583-3.019-5.912zM4.522 16.801c2.379 0.485 4.174 2.593 4.174 5.112v3.826h-4.174v-8.938zM29.565 29.913h-27.13v-1.044c0-0.575 0.468-1.044 1.043-1.044 1.1 0 23.945 0 25.044 0 0.575 0 1.044 0.468 1.044 1.044v1.044z"></path>
</svg>
