<?xml version="1.0" encoding="iso-8859-1"?>
<!-- Generator: Adobe Illustrator 19.0.0, SVG Export Plug-In . SVG Version: 6.00 Build 0)  -->
<svg version="1.1" id="Capa_1" xmlns="http://www.w3.org/2000/svg" xmlns:xlink="http://www.w3.org/1999/xlink" x="0px" y="0px"
	 viewBox="0 0 512 512" style="enable-background:new 0 0 512 512;" xml:space="preserve">
<g>
	<g>
		<path d="M443.872,325.054c-0.233-49.999-19.878-96.968-55.315-132.254c-18.579-18.5-40.356-32.634-64.073-41.907V84.116H271V0h-30
			v84.116h-53.483v66.777c-23.717,9.272-45.494,23.407-64.073,41.907c-35.438,35.287-55.083,82.255-55.315,132.254l-0.07,15.07
			h99.124c7.328,42.388,44.433,74.786,88.818,74.786s81.49-32.398,88.818-74.786h99.123v0L443.872,325.054z M294.484,114.116v27.881
			c-12.524-2.595-25.401-3.937-38.483-3.937c-13.083,0-25.96,1.342-38.483,3.937v-27.881H294.484z M256,384.91
			c-27.803,0-51.327-19.052-58.145-44.785h116.291C307.327,365.858,283.803,384.91,256,384.91z M98.914,310.124
			c7.979-79.601,75.52-142.063,157.085-142.063s149.106,62.462,157.085,142.063H98.914z"/>
	</g>
</g>
<g>
	<g>
		<rect x="241" y="450.65" width="30" height="61.35"/>
	</g>
</g>
<g>
	<g>
		
			<rect x="342.883" y="412.78" transform="matrix(0.7597 -0.6503 0.6503 0.7597 -202.3703 339.2957)" width="30.001" height="61.351"/>
	</g>
</g>
<g>
	<g>
		
			<rect x="123.46" y="428.485" transform="matrix(0.6503 -0.7596 0.7596 0.6503 -282.996 272.1563)" width="61.346" height="29.998"/>
	</g>
</g>
<g>
</g>
<g>
</g>
<g>
</g>
<g>
</g>
<g>
</g>
<g>
</g>
<g>
</g>
<g>
</g>
<g>
</g>
<g>
</g>
<g>
</g>
<g>
</g>
<g>
</g>
<g>
</g>
<g>
</g>
</svg>
