<!-- Generated by IcoMoon.io -->
<svg version="1.1" xmlns="http://www.w3.org/2000/svg" width="32" height="32" viewBox="0 0 32 32">
<title>idea</title>
<path d="M21.98 8.838c-1.636-1.613-3.801-2.483-6.103-2.451-2.211 0.031-4.299 0.914-5.878 2.485s-2.472 3.655-2.514 5.866c-0.045 2.379 0.868 4.604 2.571 6.264 0.896 0.873 1.536 1.953 1.859 3.127v4.994h8.172v-4.993c0.32-1.181 0.95-2.251 1.828-3.098 1.679-1.62 2.603-3.797 2.603-6.129 0-2.298-0.901-4.452-2.538-6.065zM18.211 27.248h-4.422v-2.306h4.422v2.306zM20.612 19.683c-0.968 0.935-1.701 2.080-2.146 3.346v-3.407l1.833-1.856-1.334-1.317-2.374 2.404v4.215h-1.182v-4.215l-2.374-2.404-1.334 1.317 1.833 1.856v3.412c-0.448-1.263-1.189-2.418-2.17-3.374-1.328-1.295-2.040-3.030-2.005-4.886 0.067-3.54 3.003-6.462 6.544-6.512 1.794-0.026 3.484 0.653 4.76 1.911s1.979 2.938 1.979 4.73c0 1.819-0.721 3.516-2.030 4.78z"></path>
<path d="M14.308 30.125h3.384v1.875h-3.384v-1.875z"></path>
<path d="M15.063 0h1.875v4.199h-1.875v-4.199z"></path>
<path d="M21.559 5.539l2.253-3.544 1.582 1.006-2.253 3.544-1.582-1.006z"></path>
<path d="M26.306 10.144l3.802-1.782 0.796 1.698-3.802 1.782-0.796-1.698z"></path>
<path d="M6.606 3.001l1.582-1.006 2.253 3.544-1.582 1.006-2.253-3.544z"></path>
<path d="M1.095 10.061l0.796-1.698 3.802 1.782-0.796 1.698-3.802-1.782z"></path>
</svg>
