<?xml version="1.0" encoding="iso-8859-1"?>
<!-- Generator: Adobe Illustrator 19.0.0, SVG Export Plug-In . SVG Version: 6.00 Build 0)  -->
<svg version="1.1" id="Capa_1" xmlns="http://www.w3.org/2000/svg" xmlns:xlink="http://www.w3.org/1999/xlink" x="0px" y="0px"
	 viewBox="0 0 512 512" style="enable-background:new 0 0 512 512;" xml:space="preserve">
<g>
	<g>
		<path d="M351.676,141.408c-26.178-25.808-60.823-39.728-97.643-39.216c-35.384,0.501-68.785,14.623-94.053,39.763
			c-25.268,25.143-39.555,58.474-40.227,93.854c-0.724,38.071,13.884,73.665,41.131,100.225
			c14.331,13.97,24.578,31.241,29.743,50.037v79.899h130.752v-79.881c5.119-18.902,15.197-36.016,29.247-49.574
			c26.86-25.92,41.652-60.746,41.652-98.063C392.278,201.687,377.859,167.223,351.676,141.408z M291.379,435.97h-70.752v-36.89
			h70.752V435.97z M329.793,314.928c-15.495,14.953-27.214,33.277-34.337,53.529V313.95l29.324-29.697l-21.347-21.079
			l-37.977,38.461v67.446H246.55v-67.446l-37.977-38.461l-21.347,21.079l29.324,29.697v54.587
			c-7.172-20.201-19.024-38.681-34.725-53.985c-21.249-20.713-32.642-48.476-32.078-78.172
			c1.077-56.648,48.049-103.388,104.71-104.19c28.71-0.413,55.74,10.455,76.155,30.583c20.419,20.132,31.664,47.01,31.664,75.681
			C362.278,267.554,350.741,294.713,329.793,314.928z"/>
	</g>
</g>
<g>
	<g>
		<rect x="228.923" y="482" width="54.15" height="30"/>
	</g>
</g>
<g>
	<g>
		<rect x="241.003" width="30" height="67.19"/>
	</g>
</g>
<g>
	<g>
		<rect x="342.026" y="53.322" transform="matrix(0.5365 -0.8439 0.8439 0.5365 116.4435 348.6537)" width="67.19" height="30"/>
	</g>
</g>
<g>
	<g>
		
			<rect x="424.091" y="146.625" transform="matrix(0.9055 -0.4243 0.4243 0.9055 -25.3358 209.4701)" width="67.189" height="29.999"/>
	</g>
</g>
<g>
	<g>
		<rect x="121.373" y="34.726" transform="matrix(0.8439 -0.5365 0.5365 0.8439 -15.3662 83.8289)" width="30" height="67.19"/>
	</g>
</g>
<g>
	<g>
		
			<rect x="39.315" y="128.05" transform="matrix(0.4243 -0.9055 0.9055 0.4243 -115.1034 142.2401)" width="29.999" height="67.189"/>
	</g>
</g>
<g>
</g>
<g>
</g>
<g>
</g>
<g>
</g>
<g>
</g>
<g>
</g>
<g>
</g>
<g>
</g>
<g>
</g>
<g>
</g>
<g>
</g>
<g>
</g>
<g>
</g>
<g>
</g>
<g>
</g>
</svg>
