<!-- Generated by IcoMoon.io -->
<svg version="1.1" xmlns="http://www.w3.org/2000/svg" width="32" height="32" viewBox="0 0 32 32">
<title>online-store</title>
<path d="M16 15.304h-10.435c-0.576 0-1.043 0.467-1.043 1.044v10.435c0 0.576 0.467 1.044 1.043 1.044h10.435c0.576 0 1.044-0.467 1.044-1.044v-10.435c0-0.576-0.467-1.043-1.044-1.043zM14.957 25.739h-8.348v-8.348h8.348v8.348z"></path>
<path d="M28.522 0c-0.291 0-24.445 0-25.044 0-1.726 0-3.13 1.404-3.13 3.13 0 0.749 0 27.11 0 27.826 0 0.576 0.467 1.044 1.044 1.044 0.192 0 28.608 0 29.217 0 0.576 0 1.044-0.467 1.044-1.044 0-0.715 0-27.077 0-27.826 0-1.726-1.404-3.13-3.13-3.13zM23.304 2.087h2.087v7.304c0 0.575-0.468 1.043-1.044 1.043s-1.044-0.468-1.044-1.043v-7.304zM19.13 2.087h2.087v7.304c0 0.575-0.468 1.043-1.044 1.043s-1.044-0.468-1.044-1.043v-7.304zM14.957 2.087h2.087v7.304c0 0.575-0.468 1.043-1.043 1.043s-1.043-0.468-1.043-1.043v-7.304zM10.783 2.087h2.087v7.304c0 0.575-0.468 1.043-1.043 1.043s-1.043-0.468-1.043-1.043v-7.304zM6.609 2.087h2.087v7.304c0 0.575-0.468 1.043-1.043 1.043s-1.043-0.468-1.043-1.043v-7.304zM2.435 3.13c0-0.575 0.468-1.043 1.044-1.043h1.043v7.304c0 0.575-0.468 1.043-1.043 1.043s-1.043-0.468-1.043-1.043v-6.261zM25.391 29.913h-4.174v-3.13h4.174v3.13zM25.391 24.696h-4.174v-2.087h4.174v2.087zM25.391 20.522h-4.174v-3.13h4.174v3.13zM29.565 29.913h-2.087v-13.565c0-0.576-0.467-1.043-1.044-1.043h-6.261c-0.576 0-1.044 0.467-1.044 1.043v13.565h-16.696v-17.571c0.327 0.116 0.678 0.18 1.043 0.18 0.801 0 1.533-0.303 2.087-0.8 0.554 0.497 1.286 0.8 2.087 0.8s1.533-0.303 2.087-0.8c0.554 0.497 1.286 0.8 2.087 0.8s1.533-0.303 2.087-0.8c0.554 0.497 1.286 0.8 2.087 0.8s1.533-0.303 2.087-0.8c0.554 0.497 1.286 0.8 2.087 0.8s1.533-0.303 2.087-0.8c0.554 0.497 1.286 0.8 2.087 0.8s1.533-0.303 2.087-0.8c0.554 0.497 1.286 0.8 2.087 0.8 0.366 0 0.717-0.064 1.044-0.18v17.571zM29.565 9.391c0 0.575-0.468 1.043-1.044 1.043s-1.044-0.468-1.044-1.043v-7.304h1.044c0.575 0 1.044 0.468 1.044 1.043v6.261z"></path>
<path d="M12.564 19.784c-0.407-0.407-1.068-0.407-1.476 0l-2.087 2.087c-0.408 0.407-0.408 1.068 0 1.476s1.068 0.407 1.476 0l2.087-2.087c0.408-0.407 0.408-1.068 0-1.476z"></path>
</svg>
