<!-- Generated by IcoMoon.io -->
<svg version="1.1" xmlns="http://www.w3.org/2000/svg" width="32" height="32" viewBox="0 0 32 32">
<title>water-1</title>
<path d="M26.037 10.649c-1.545-2.735-3.064-5.009-3.128-5.105l-0.779-1.164-0.779 1.164c-0.052 0.079-1.084 1.623-2.305 3.686-0.026-0.045-0.051-0.090-0.076-0.135-2.4-4.25-4.834-7.894-4.858-7.93l-0.779-1.164-0.779 1.164c-0.024 0.036-2.458 3.681-4.858 7.93-3.28 5.806-4.943 9.953-4.943 12.325 0 5.834 4.747 10.58 10.581 10.58 4.28 0 7.974-2.554 9.638-6.218 3.53-0.416 6.278-3.428 6.278-7.068 0-1.601-1.051-4.24-3.212-8.065zM13.332 30.125c-4.8 0-8.706-3.905-8.706-8.705 0-3.773 5.704-13.381 8.706-18.026 1.268 1.964 3.021 4.815 4.621 7.737-1.978 3.566-2.941 6.050-2.941 7.583 0 3.504 2.544 6.425 5.884 7.010-1.5 2.626-4.329 4.4-7.564 4.4zM23.659 23.73c-0.484 0.148-0.997 0.227-1.528 0.227-0.156 0-0.311-0.007-0.464-0.021-2.675-0.236-4.779-2.488-4.779-5.222 0-1.195 0.944-3.365 2.121-5.597 0.348-0.66 0.717-1.326 1.088-1.973 0.713-1.244 1.434-2.419 2.031-3.358 0.588 0.925 1.434 2.295 2.276 3.785 2.583 4.573 2.969 6.438 2.969 7.143-0 2.36-1.567 4.36-3.715 5.015z"></path>
</svg>
