<!-- Generated by IcoMoon.io -->
<svg version="1.1" xmlns="http://www.w3.org/2000/svg" width="32" height="32" viewBox="0 0 32 32">
<title>monumental</title>
<path d="M30.609 25.739h-1.044c0-0.292 0-11.6 0-13.217h1.044c1.011 0 1.431-1.304 0.607-1.893l-14.609-10.435c-0.363-0.259-0.85-0.259-1.213 0l-14.609 10.435c-0.823 0.588-0.407 1.893 0.607 1.893h1.043c0 1.616 0 12.923 0 13.217h-1.044c-0.576 0-1.044 0.467-1.044 1.044v4.174c0 0.576 0.467 1.044 1.044 1.044h29.217c0.576 0 1.044-0.467 1.044-1.044v-4.174c0-0.576-0.467-1.043-1.044-1.043zM16 2.326l11.353 8.109h-22.705l11.353-8.109zM27.478 12.522v9.043h-2.087v-9.043h2.087zM23.304 12.522v9.043h-4.174v-9.043h4.174zM17.043 12.522v9.043h-2.087v-9.043h2.087zM12.869 12.522v9.043h-4.174v-9.043h4.174zM4.522 12.522h2.087v9.043h-2.087v-9.043zM4.522 23.652h22.956v2.087h-22.956v-2.087zM29.565 29.913h-27.13v-2.087c1.203 0 24.923 0 27.13 0v2.087z"></path>
<path d="M17.044 7.304c0 0.576-0.467 1.043-1.044 1.043s-1.043-0.467-1.043-1.043c0-0.576 0.467-1.043 1.043-1.043s1.044 0.467 1.044 1.043z"></path>
</svg>
