<?xml version="1.0" encoding="iso-8859-1"?>
<!-- Generator: Adobe Illustrator 19.0.0, SVG Export Plug-In . SVG Version: 6.00 Build 0)  -->
<svg version="1.1" id="Capa_1" xmlns="http://www.w3.org/2000/svg" xmlns:xlink="http://www.w3.org/1999/xlink" x="0px" y="0px"
	 viewBox="0 0 512 512" style="enable-background:new 0 0 512 512;" xml:space="preserve">
<g>
	<g>
		<path d="M416.589,170.38c-24.721-43.753-49.023-80.145-50.043-81.675l-12.461-18.621l-12.471,18.621
			c-0.84,1.26-17.341,25.971-36.882,58.973c-0.41-0.72-0.81-1.44-1.22-2.16c-38.402-67.994-77.345-126.307-77.735-126.887L213.318,0
			l-12.471,18.631c-0.39,0.58-39.332,58.893-77.735,126.887C70.639,238.414,44.028,304.768,44.028,342.72
			c0,93.346,75.944,169.28,169.29,169.28c68.474,0,127.578-40.862,154.209-99.486c56.483-6.66,100.446-54.843,100.446-113.087
			C467.973,273.806,451.162,231.594,416.589,170.38z M213.318,481.998c-76.805,0-139.288-62.484-139.288-139.278
			c0-60.364,91.265-214.093,139.288-288.417c20.291,31.422,48.333,77.044,73.934,123.797
			c-31.652,57.063-47.053,96.796-47.053,121.327c0,56.063,40.712,102.796,94.136,112.167
			C310.333,453.617,265.071,481.998,213.318,481.998z M378.537,379.672c-7.74,2.37-15.951,3.64-24.451,3.64
			c-2.5,0-4.98-0.11-7.42-0.33c-42.793-3.77-76.464-39.802-76.464-83.555c0-19.121,15.101-53.843,33.942-89.545
			c5.57-10.561,11.471-21.211,17.411-31.562c11.411-19.901,22.941-38.702,32.502-53.733c9.401,14.801,22.941,36.722,36.412,60.554
			c41.322,73.174,47.503,103.016,47.503,114.287C437.971,337.18,412.899,369.182,378.537,379.672z"/>
	</g>
</g>
<g>
</g>
<g>
</g>
<g>
</g>
<g>
</g>
<g>
</g>
<g>
</g>
<g>
</g>
<g>
</g>
<g>
</g>
<g>
</g>
<g>
</g>
<g>
</g>
<g>
</g>
<g>
</g>
<g>
</g>
</svg>
