<?xml version="1.0" encoding="iso-8859-1"?>
<!-- Generator: Adobe Illustrator 19.0.0, SVG Export Plug-In . SVG Version: 6.00 Build 0)  -->
<svg version="1.1" id="Layer_1" xmlns="http://www.w3.org/2000/svg" xmlns:xlink="http://www.w3.org/1999/xlink" x="0px" y="0px"
	 viewBox="0 0 512 512" style="enable-background:new 0 0 512 512;" xml:space="preserve">
<g>
	<g>
		<path d="M489.737,411.826h-16.696c0-4.679,0-185.6,0-211.478h16.696c16.178,0,22.894-20.86,9.705-30.281L265.703,3.11
			c-5.806-4.146-13.604-4.146-19.409,0L12.554,170.066c-13.164,9.403-6.505,30.281,9.705,30.281h16.696
			c0,25.857,0,206.775,0,211.478H22.259c-9.22,0-16.696,7.475-16.696,16.696v66.783c0,9.22,7.475,16.696,16.696,16.696h467.478
			c9.22,0,16.696-7.475,16.696-16.696v-66.783C506.433,419.301,498.958,411.826,489.737,411.826z M255.998,37.212l181.641,129.744
			H74.357L255.998,37.212z M439.65,200.348v144.696h-33.391V200.348H439.65z M372.868,200.348v144.696h-66.783V200.348H372.868z
			 M272.694,200.348v144.696h-33.391V200.348H272.694z M205.911,200.348v144.696h-66.783V200.348H205.911z M72.346,200.348h33.391
			v144.696H72.346V200.348z M72.346,378.434H439.65v33.391H72.346V378.434z M473.042,478.608H38.955v-33.391
			c19.252,0,398.767,0,434.087,0V478.608z"/>
	</g>
</g>
<g>
	<g>
		<circle cx="256" cy="116.869" r="16.696"/>
	</g>
</g>
<g>
</g>
<g>
</g>
<g>
</g>
<g>
</g>
<g>
</g>
<g>
</g>
<g>
</g>
<g>
</g>
<g>
</g>
<g>
</g>
<g>
</g>
<g>
</g>
<g>
</g>
<g>
</g>
<g>
</g>
</svg>
