<?xml version="1.0" encoding="iso-8859-1"?>
<!-- Generator: Adobe Illustrator 19.0.0, SVG Export Plug-In . SVG Version: 6.00 Build 0)  -->
<svg version="1.1" id="Layer_1" xmlns="http://www.w3.org/2000/svg" xmlns:xlink="http://www.w3.org/1999/xlink" x="0px" y="0px"
	 viewBox="0 0 512 512" style="enable-background:new 0 0 512 512;" xml:space="preserve">
<g>
	<g>
		<path d="M389.565,155.826h-50.087v-36.263c19.433-6.892,33.391-25.45,33.391-47.215V38.957c0-9.22-7.475-16.696-16.696-16.696
			h-66.783c-9.22,0-16.696,7.475-16.696,16.696v33.391c0,21.766,13.959,40.323,33.391,47.215v36.263c-10.637,0-89.859,0-100.174,0
			v-36.263c19.433-6.892,33.391-25.45,33.391-47.215V38.957c0-9.22-7.475-16.696-16.696-16.696h-66.783
			c-9.22,0-16.696,7.475-16.696,16.696v33.391c0,21.766,13.959,40.323,33.391,47.215v36.263h-50.087
			c-27.618,0-50.087,22.469-50.087,50.087v33.391c0,9.22,7.475,16.696,16.696,16.696h68.977l17.305,25.956
			c6.605,9.907,21.183,9.899,27.784,0L220.414,256h18.891v200.348h-50.087c-9.22,0-16.696,7.475-16.696,16.696
			s7.475,16.696,16.696,16.696h133.565c9.22,0,16.696-7.475,16.696-16.696s-7.475-16.696-16.696-16.696h-50.087V256h150.261
			c9.22,0,16.696-7.475,16.696-16.696v-33.391C439.652,178.295,417.183,155.826,389.565,155.826z M172.522,55.652h33.391v16.696
			c0,9.206-7.49,16.696-16.696,16.696s-16.696-7.49-16.696-16.696V55.652z M105.739,222.609v-16.696
			c0-6.438,3.667-12.024,9.018-14.81l21.003,31.506H105.739z M189.217,242.597c-3.407-5.11-31.16-46.739-35.586-53.379h71.172
			C220.381,195.851,192.622,237.489,189.217,242.597z M306.087,55.652h33.391v16.696c0,9.206-7.49,16.696-16.696,16.696
			c-9.206,0-16.696-7.49-16.696-16.696V55.652z M406.261,222.609H242.675l22.26-33.391h124.631c9.206,0,16.696,7.49,16.696,16.696
			V222.609z"/>
	</g>
</g>
<g>
	<g>
		<path d="M116.87,289.391H33.391V105.739c0-9.22-7.475-16.696-16.696-16.696S0,96.519,0,105.739c0,4.86,0,365.252,0,367.304
			c0,9.22,7.475,16.696,16.696,16.696s16.696-7.475,16.696-16.696v-83.478h66.783v83.478c0,9.22,7.475,16.696,16.696,16.696
			s16.696-7.475,16.696-16.696c0-7.337,0-159.619,0-166.956C133.565,296.866,126.09,289.391,116.87,289.391z M100.174,356.174
			H33.391v-33.391h66.783V356.174z"/>
	</g>
</g>
<g>
	<g>
		<path d="M495.304,89.043c-9.22,0-16.696,7.475-16.696,16.696v183.652H395.13c-9.22,0-16.696,7.475-16.696,16.696
			c0,7.337,0,159.619,0,166.956c0,9.22,7.475,16.696,16.696,16.696s16.696-7.475,16.696-16.696v-83.478h66.783v83.478
			c0,9.22,7.475,16.696,16.696,16.696S512,482.264,512,473.043c0-12.045,0-352.788,0-367.304
			C512,96.519,504.525,89.043,495.304,89.043z M478.609,356.174h-66.783v-33.391h66.783V356.174z"/>
	</g>
</g>
<g>
</g>
<g>
</g>
<g>
</g>
<g>
</g>
<g>
</g>
<g>
</g>
<g>
</g>
<g>
</g>
<g>
</g>
<g>
</g>
<g>
</g>
<g>
</g>
<g>
</g>
<g>
</g>
<g>
</g>
</svg>
