<!-- Generated by IcoMoon.io -->
<svg version="1.1" xmlns="http://www.w3.org/2000/svg" width="32" height="32" viewBox="0 0 32 32">
<title>chairs</title>
<path d="M24.348 9.739h-3.13v-2.266c1.215-0.431 2.087-1.591 2.087-2.951v-2.087c0-0.576-0.467-1.044-1.044-1.044h-4.174c-0.576 0-1.044 0.467-1.044 1.044v2.087c0 1.36 0.872 2.52 2.087 2.951v2.266c-0.665 0-5.616 0-6.261 0v-2.266c1.215-0.431 2.087-1.591 2.087-2.951v-2.087c0-0.576-0.467-1.044-1.043-1.044h-4.174c-0.576 0-1.043 0.467-1.043 1.044v2.087c0 1.36 0.872 2.52 2.087 2.951v2.266h-3.13c-1.726 0-3.13 1.404-3.13 3.13v2.087c0 0.576 0.467 1.043 1.043 1.043h4.311l1.082 1.622c0.413 0.619 1.324 0.619 1.736 0l1.082-1.622h1.181v12.522h-3.13c-0.576 0-1.043 0.467-1.043 1.044s0.467 1.044 1.043 1.044h8.348c0.576 0 1.044-0.467 1.044-1.044s-0.467-1.044-1.044-1.044h-3.13v-12.522h9.391c0.576 0 1.044-0.467 1.044-1.043v-2.087c-0-1.726-1.404-3.13-3.131-3.13zM10.783 3.478h2.087v1.043c0 0.575-0.468 1.043-1.043 1.043s-1.043-0.468-1.043-1.043v-1.043zM6.609 13.913v-1.043c0-0.402 0.229-0.752 0.564-0.926l1.313 1.969h-1.876zM11.826 15.162c-0.213-0.319-1.947-2.921-2.224-3.336h4.448c-0.276 0.415-2.011 3.017-2.224 3.336zM19.13 3.478h2.087v1.043c0 0.575-0.468 1.043-1.044 1.043s-1.044-0.468-1.044-1.043v-1.043zM25.391 13.913h-10.224l1.391-2.087h7.789c0.575 0 1.044 0.468 1.044 1.043v1.043z"></path>
<path d="M7.304 18.087h-5.217v-11.478c0-0.576-0.467-1.043-1.044-1.043s-1.043 0.467-1.043 1.043c0 0.304 0 22.828 0 22.956 0 0.576 0.467 1.044 1.044 1.044s1.044-0.467 1.044-1.044v-5.217h4.174v5.217c0 0.576 0.467 1.044 1.043 1.044s1.043-0.467 1.043-1.044c0-0.459 0-9.976 0-10.435-0-0.576-0.467-1.044-1.044-1.044zM6.261 22.261h-4.174v-2.087h4.174v2.087z"></path>
<path d="M30.956 5.565c-0.576 0-1.044 0.467-1.044 1.043v11.478h-5.217c-0.576 0-1.044 0.467-1.044 1.044 0 0.459 0 9.976 0 10.435 0 0.576 0.467 1.044 1.044 1.044s1.044-0.467 1.044-1.044v-5.217h4.174v5.217c0 0.576 0.467 1.044 1.044 1.044s1.043-0.467 1.043-1.044c0-0.753 0-22.049 0-22.956 0-0.576-0.467-1.043-1.044-1.043zM29.913 22.261h-4.174v-2.087h4.174v2.087z"></path>
</svg>
