<!-- Generated by IcoMoon.io -->
<svg version="1.1" xmlns="http://www.w3.org/2000/svg" width="32" height="32" viewBox="0 0 32 32">
<title>oven</title>
<path d="M0 0.047v28.819h1.75v3.087h28.499v-3.087h1.75v-28.819h-32zM28.38 30.084h-24.76v-1.217h24.76v1.217zM30.131 26.997h-28.261v-19.253h28.261v19.253zM30.131 5.873h-28.261v-3.957h28.261v3.957z"></path>
<path d="M4.126 9.676v15.316h23.748v-15.316h-23.748zM26.005 23.123h-20.009v-11.578h20.009v11.578z"></path>
<path d="M8.109 2.921h1.854v1.854h-1.854v-1.854z"></path>
<path d="M12.752 2.921h1.854v1.854h-1.854v-1.854z"></path>
<path d="M17.394 2.921h1.854v1.854h-1.854v-1.854z"></path>
<path d="M22.037 2.921h1.854v1.854h-1.854v-1.854z"></path>
</svg>
