<!-- Generated by IcoMoon.io -->
<svg version="1.1" xmlns="http://www.w3.org/2000/svg" width="32" height="32" viewBox="0 0 32 32">
<title>thermometer</title>
<path d="M20.111 20.441v-1.732h1.462v-1.875h-1.462v-1.719h1.462v-1.875h-1.462v-1.719h1.462v-1.875h-1.462v-1.719h1.462v-1.875h-1.462v-1.941c0-2.267-1.844-4.111-4.111-4.111s-4.111 1.844-4.111 4.111v16.33c-1.467 1.198-2.355 2.994-2.398 4.898-0.040 1.744 0.61 3.4 1.828 4.665 1.217 1.263 2.847 1.972 4.588 1.996 0.031 0 0.062 0.001 0.093 0.001 1.722 0 3.342-0.664 4.571-1.875 1.251-1.233 1.939-2.88 1.939-4.636 0-1.965-0.889-3.817-2.4-5.049zM19.255 28.79c-0.89 0.878-2.071 1.351-3.321 1.334-1.237-0.017-2.397-0.522-3.264-1.423-0.869-0.901-1.332-2.081-1.304-3.321 0.034-1.475 0.78-2.86 1.996-3.704l0.403-0.28v-17.287c0-1.233 1.003-2.236 2.236-2.236s2.236 1.003 2.236 2.236v17.287l0.403 0.28c1.25 0.868 1.997 2.293 1.997 3.812 0 1.25-0.49 2.423-1.381 3.301z"></path>
<path d="M16.938 22.565v-18.117h-1.875v18.117c-1.223 0.396-2.109 1.546-2.109 2.899 0 1.68 1.367 3.047 3.047 3.047s3.047-1.367 3.047-3.047c0-1.353-0.887-2.502-2.109-2.899zM16 26.635c-0.646 0-1.172-0.526-1.172-1.172s0.526-1.172 1.172-1.172 1.172 0.526 1.172 1.172-0.526 1.172-1.172 1.172z"></path>
</svg>
