<svg height="512pt" viewBox="0 -61 512 512" width="512pt" xmlns="http://www.w3.org/2000/svg"><path d="m482 0h-330c-16.542969 0-30 13.457031-30 30h-107c-8.285156 0-15 6.714844-15 15v330c0 8.285156 6.714844 15 15 15h150c8.285156 0 15-6.714844 15-15v-75h77v60h-30c-8.285156 0-15 6.714844-15 15s6.714844 15 15 15h180c8.285156 0 15-6.714844 15-15s-6.714844-15-15-15h-30v-60h105c16.542969 0 30-13.457031 30-30v-240c0-16.542969-13.457031-30-30-30zm-452 120h92v30h-92zm92-60v30h-92v-30zm-92 300v-180h92v90c0 15.867188 12.386719 28.890625 28 29.925781v60.074219zm317 0h-60v-60h60zm135-90h-330v-240h330zm0 0"/><path d="m105 326c0 8.285156-6.714844 15-15 15s-15-6.714844-15-15 6.714844-15 15-15 15 6.714844 15 15zm0 0"/></svg>