<!-- Generated by IcoMoon.io -->
<svg version="1.1" xmlns="http://www.w3.org/2000/svg" width="32" height="32" viewBox="0 0 32 32">
<title>computer</title>
<path d="M30.125 3.813h-20.625c-1.034 0-1.875 0.841-1.875 1.875h-6.688c-0.518 0-0.938 0.42-0.938 0.938v20.625c0 0.518 0.42 0.938 0.938 0.938h9.375c0.518 0 0.938-0.42 0.938-0.938v-4.688h4.813v3.75h-1.875c-0.518 0-0.938 0.42-0.938 0.938s0.42 0.938 0.938 0.938h11.25c0.518 0 0.938-0.42 0.938-0.938s-0.42-0.938-0.938-0.938h-1.875v-3.75h6.563c1.034 0 1.875-0.841 1.875-1.875v-15c0-1.034-0.841-1.875-1.875-1.875zM1.875 11.313h5.75v1.875h-5.75zM7.625 7.563v1.875h-5.75v-1.875zM1.875 26.313v-11.25h5.75v5.625c0 0.992 0.774 1.806 1.75 1.87v3.755zM21.688 26.313h-3.75v-3.75h3.75zM30.125 20.688h-20.625v-15h20.625z"></path>
<path d="M6.563 24.188c0 0.518-0.42 0.938-0.938 0.938s-0.938-0.42-0.938-0.938 0.42-0.938 0.938-0.938 0.938 0.42 0.938 0.938z"></path>
</svg>
