<?xml version="1.0" encoding="iso-8859-1"?>
<!-- Generator: Adobe Illustrator 19.0.0, SVG Export Plug-In . SVG Version: 6.00 Build 0)  -->
<svg version="1.1" id="Capa_1" xmlns="http://www.w3.org/2000/svg" xmlns:xlink="http://www.w3.org/1999/xlink" x="0px" y="0px"
	 viewBox="0 0 512 512" style="enable-background:new 0 0 512 512;" xml:space="preserve">
<g>
	<g>
		<path d="M321.775,327.049v-27.716h23.398v-30h-23.398v-27.5h23.398v-30h-23.398v-27.5h23.398v-30h-23.398v-27.5h23.398v-30
			h-23.398V65.775C321.775,29.506,292.269,0,256,0c-36.269,0-65.775,29.506-65.775,65.775v261.278
			c-23.479,19.165-37.677,47.9-38.371,78.365c-0.635,27.9,9.755,54.406,29.255,74.635c19.479,20.207,45.551,31.549,73.412,31.937
			c0.499,0.007,0.997,0.01,1.495,0.01c27.559,0,53.479-10.62,73.129-29.998c20.009-19.733,31.028-46.075,31.028-74.175
			C360.173,376.394,345.955,346.76,321.775,327.049z M308.079,460.642c-14.244,14.047-33.135,21.621-53.141,21.351
			c-19.799-0.275-38.348-8.359-52.231-22.761c-13.904-14.423-21.313-33.292-20.861-53.131c0.538-23.604,12.474-45.757,31.931-59.258
			l6.448-4.475V65.775C220.225,46.049,236.274,30,256,30c19.727,0,35.775,16.049,35.775,35.775v276.593l6.448,4.475
			c20.006,13.883,31.95,36.681,31.95,60.985C330.173,427.835,322.327,446.591,308.079,460.642z"/>
	</g>
</g>
<g>
	<g>
		<path d="M271,361.034V71.166h-30v289.868c-19.561,6.342-33.749,24.73-33.749,46.377c0,26.88,21.869,48.748,48.749,48.748
			s48.749-21.868,48.749-48.748C304.749,385.764,290.561,367.377,271,361.034z M256,426.159c-10.338,0-18.749-8.41-18.749-18.748
			c0-10.338,8.411-18.748,18.749-18.748s18.749,8.411,18.749,18.748S266.338,426.159,256,426.159z"/>
	</g>
</g>
<g>
</g>
<g>
</g>
<g>
</g>
<g>
</g>
<g>
</g>
<g>
</g>
<g>
</g>
<g>
</g>
<g>
</g>
<g>
</g>
<g>
</g>
<g>
</g>
<g>
</g>
<g>
</g>
<g>
</g>
</svg>
