<!-- Generated by IcoMoon.io -->
<svg version="1.1" xmlns="http://www.w3.org/2000/svg" width="32" height="32" viewBox="0 0 32 32">
<title>imac</title>
<path d="M29.333 1.333h-26.667c-1.471 0-2.667 1.196-2.667 2.667v18.667c0 1.471 1.196 2.667 2.667 2.667h9.335c-0.029 1.066-0.233 2.769-0.993 3.569-0.279 0.294-0.6 0.431-1.008 0.431-0.368 0-0.667 0.298-0.667 0.667s0.298 0.667 0.667 0.667h12c0.369 0 0.667-0.298 0.667-0.667s-0.298-0.667-0.667-0.667c-0.408 0-0.729-0.137-1.008-0.431-0.76-0.8-0.965-2.503-0.993-3.569h9.335c1.471 0 2.667-1.196 2.667-2.667v-18.667c-0-1.471-1.196-2.667-2.667-2.667zM12.358 29.333c0.805-1.234 0.961-3.012 0.981-4h5.322c0.020 0.988 0.176 2.766 0.981 4h-7.284zM30.667 22.667c0 0.735-0.598 1.333-1.333 1.333h-26.667c-0.735 0-1.333-0.598-1.333-1.333v-2.667h29.333v2.667zM30.667 18.667h-29.333v-14.667c0-0.735 0.598-1.333 1.333-1.333h26.667c0.735 0 1.333 0.598 1.333 1.333v14.667z"></path>
<path d="M17.333 22c0 0.736-0.597 1.333-1.333 1.333s-1.333-0.597-1.333-1.333c0-0.736 0.597-1.333 1.333-1.333s1.333 0.597 1.333 1.333z"></path>
</svg>
