<?xml version="1.0" encoding="iso-8859-1"?>
<!-- Generator: Adobe Illustrator 19.0.0, SVG Export Plug-In . SVG Version: 6.00 Build 0)  -->
<svg version="1.1" id="Layer_1" xmlns="http://www.w3.org/2000/svg" xmlns:xlink="http://www.w3.org/1999/xlink" x="0px" y="0px"
	 viewBox="0 0 512 512" style="enable-background:new 0 0 512 512;" xml:space="preserve">
<g>
	<g>
		<g>
			<path d="M469.333,21.333H42.667C19.135,21.333,0,40.469,0,64v298.667c0,23.531,19.135,42.667,42.667,42.667h149.362
				c-0.46,17.052-3.728,44.306-15.893,57.104c-4.469,4.708-9.604,6.896-16.135,6.896c-5.896,0-10.667,4.771-10.667,10.667
				c0,5.896,4.771,10.667,10.667,10.667h192c5.896,0,10.667-4.771,10.667-10.667c0-5.896-4.771-10.667-10.667-10.667
				c-6.531,0-11.667-2.188-16.135-6.896c-12.165-12.798-15.434-40.052-15.893-57.104h149.362c23.531,0,42.667-19.135,42.667-42.667
				V64C512,40.469,492.865,21.333,469.333,21.333z M197.729,469.333c12.881-19.749,15.374-48.188,15.695-64h85.151
				c0.322,15.813,2.814,44.251,15.695,64H197.729z M490.667,362.667c0,11.76-9.573,21.333-21.333,21.333H42.667
				c-11.76,0-21.333-9.573-21.333-21.333V320h469.333V362.667z M490.667,298.667H21.333V64c0-11.76,9.573-21.333,21.333-21.333
				h426.667c11.76,0,21.333,9.573,21.333,21.333V298.667z"/>
			<circle cx="256" cy="352" r="21.333"/>
		</g>
	</g>
</g>
<g>
</g>
<g>
</g>
<g>
</g>
<g>
</g>
<g>
</g>
<g>
</g>
<g>
</g>
<g>
</g>
<g>
</g>
<g>
</g>
<g>
</g>
<g>
</g>
<g>
</g>
<g>
</g>
<g>
</g>
</svg>
