<!-- Generated by IcoMoon.io -->
<svg version="1.1" xmlns="http://www.w3.org/2000/svg" width="32" height="32" viewBox="0 0 32 32">
<title>home-1</title>
<path d="M27.468 11.446v-6.74h-5.574v2.452l-5.894-4.534-16 12.309 3.352 4.357 1.641-1.263v11.349h9.47v-8.315h3.447v8.315h9.096v-11.349l1.641 1.263 3.352-4.357-4.532-3.487zM25.13 27.499h-5.342v-8.315h-7.201v8.315h-5.716v-10.916l9.129-7.023 9.129 7.023v10.916zM28.305 16.657l-12.305-9.466-12.305 9.466-1.063-1.382 13.368-10.284 7.771 5.978v-4.387h1.82v5.787l3.777 2.906-1.063 1.382z"></path>
</svg>
