<!-- Generated by IcoMoon.io -->
<svg version="1.1" xmlns="http://www.w3.org/2000/svg" width="32" height="32" viewBox="0 0 32 32">
<title>laptop</title>
<path d="M31.861 26.689c-0.016-0.041 0.228 0.487-3.424-7.396v-14.854c0-1.034-0.841-1.875-1.875-1.875h-21.122c-1.034 0-1.875 0.841-1.875 1.875v14.854l-3.404 7.342c-0.252 0.544-0.225 1.315 0.192 1.924 0.376 0.55 0.998 0.878 1.664 0.878h27.965c1.415 0 2.394-1.424 1.879-2.747zM5.44 4.439h21.122v14.123h-21.122zM12.777 27.561l0.664-2.125h5.121l0.664 2.125zM29.982 27.561h-8.792l-1.044-3.342c-0.122-0.391-0.485-0.658-0.895-0.658h-6.499c-0.41 0-0.772 0.266-0.895 0.658l-1.044 3.342h-8.795c-0.099 0-0.16-0.094-0.137-0.177l3.221-6.947h21.8l3.218 6.947c0.023 0.083-0.038 0.177-0.137 0.177z"></path>
</svg>
