<!-- Generated by IcoMoon.io -->
<svg version="1.1" xmlns="http://www.w3.org/2000/svg" width="32" height="32" viewBox="0 0 32 32">
<title>air-conditioner-3</title>
<path d="M24.033 3.515c-0.518 0-0.938 0.42-0.938 0.938s0.42 0.938 0.938 0.938c1.421 0 2.577 1.156 2.577 2.577 0 0.518 0.42 0.938 0.938 0.938s0.938-0.42 0.938-0.938c0-2.455-1.997-4.452-4.452-4.452z"></path>
<path d="M24.033 0c-0.518 0-0.938 0.42-0.938 0.938s0.42 0.938 0.938 0.938c3.359 0 6.092 2.733 6.092 6.092 0 0.518 0.42 0.937 0.938 0.937s0.938-0.42 0.938-0.938c0-4.393-3.574-7.967-7.967-7.967z"></path>
<path d="M24.971 7.967c0 0.518-0.42 0.937-0.938 0.937s-0.938-0.42-0.938-0.938c0-0.518 0.42-0.938 0.938-0.938s0.938 0.42 0.938 0.938z"></path>
<path d="M27.046 11.046h-26.108c-0.518 0-0.938 0.42-0.938 0.938v12.050c0 0.518 0.42 0.938 0.938 0.938h26.108c0.518 0 0.938-0.42 0.938-0.938v-12.050c0-0.518-0.42-0.938-0.938-0.938zM26.108 23.096h-24.233v-2.142h24.233zM26.108 19.079h-24.233v-6.158h24.233z"></path>
<path d="M7.967 27.113c-0.518 0-0.938 0.42-0.938 0.938 0 1.144-0.931 2.075-2.075 2.075-0.518 0-0.938 0.42-0.938 0.938s0.42 0.938 0.938 0.938c2.178 0 3.95-1.772 3.95-3.95 0-0.518-0.42-0.938-0.938-0.938z"></path>
<path d="M23.029 30.125c-1.144 0-2.075-0.931-2.075-2.075 0-0.518-0.42-0.938-0.938-0.938s-0.938 0.42-0.938 0.938c0 2.178 1.772 3.95 3.95 3.95 0.518 0 0.938-0.42 0.938-0.938s-0.42-0.938-0.938-0.938z"></path>
<path d="M11.983 27.113c-0.518 0-0.938 0.42-0.938 0.938v3.012c0 0.518 0.42 0.938 0.938 0.938s0.938-0.42 0.938-0.938v-3.012c0-0.518-0.42-0.938-0.938-0.938z"></path>
<path d="M16 27.113c-0.518 0-0.938 0.42-0.938 0.938v3.012c0 0.518 0.42 0.938 0.938 0.938s0.938-0.42 0.938-0.938v-3.012c0-0.518-0.42-0.938-0.938-0.938z"></path>
<path d="M23.967 16c0 0.518-0.42 0.938-0.938 0.938s-0.938-0.42-0.938-0.938c0-0.518 0.42-0.938 0.938-0.938s0.938 0.42 0.938 0.938z"></path>
<path d="M19.95 16c0 0.518-0.42 0.938-0.938 0.938s-0.938-0.42-0.938-0.938c0-0.518 0.42-0.938 0.938-0.938s0.938 0.42 0.938 0.938z"></path>
</svg>
