<!-- Generated by IcoMoon.io -->
<svg version="1.1" xmlns="http://www.w3.org/2000/svg" width="32" height="32" viewBox="0 0 32 32">
<title>heater</title>
<path d="M24.033 3.515c-0.518 0-0.938 0.42-0.938 0.938s0.42 0.938 0.938 0.938c1.421 0 2.577 1.156 2.577 2.577 0 0.518 0.42 0.938 0.938 0.938s0.938-0.42 0.938-0.938c0-2.455-1.997-4.452-4.452-4.452z"></path>
<path d="M24.033 0c-0.518 0-0.938 0.42-0.938 0.938s0.42 0.938 0.938 0.938c3.359 0 6.092 2.733 6.092 6.092 0 0.518 0.42 0.937 0.938 0.937s0.938-0.42 0.938-0.938c0-4.393-3.574-7.967-7.967-7.967z"></path>
<path d="M24.971 7.967c0 0.518-0.42 0.937-0.938 0.937s-0.938-0.42-0.938-0.938c0-0.518 0.42-0.938 0.938-0.938s0.938 0.42 0.938 0.938z"></path>
<path d="M25.038 12.050h-3.082c-0.061-1.673-1.016-3.164-2.523-3.918-0.264-0.132-0.575-0.132-0.839 0-0.637 0.319-1.175 0.769-1.589 1.308-0.414-0.54-0.952-0.99-1.589-1.308-0.264-0.132-0.575-0.132-0.839 0-0.637 0.319-1.175 0.769-1.589 1.308-0.414-0.54-0.952-0.99-1.589-1.308-0.264-0.132-0.575-0.132-0.839 0-0.637 0.319-1.175 0.769-1.589 1.308-0.414-0.54-0.952-0.99-1.589-1.308-0.264-0.132-0.575-0.132-0.839 0-1.507 0.754-2.462 2.244-2.523 3.918h-3.082c-0.518 0-0.938 0.42-0.938 0.938v4.017c0 0.518 0.42 0.938 0.938 0.938h3.079v5.154h-3.079c-0.518 0-0.938 0.42-0.938 0.938v4.017c0 0.518 0.42 0.938 0.938 0.938h3.079v0.067c0 1.646 1.337 2.946 2.946 2.946 0.753 0 1.462-0.281 2.008-0.792 0.547 0.511 1.256 0.792 2.008 0.792s1.462-0.281 2.008-0.792c0.547 0.511 1.256 0.792 2.008 0.792s1.462-0.281 2.008-0.792c0.547 0.511 1.256 0.792 2.008 0.792 1.646 0 2.946-1.337 2.946-2.946v-0.067h3.079c0.518 0 0.938-0.42 0.938-0.938v-4.017c0-0.518-0.42-0.938-0.938-0.938h-3.079v-5.154h3.079c0.518 0 0.938-0.42 0.938-0.938v-4.017c0-0.518-0.42-0.938-0.938-0.938zM4.017 27.113h-2.142v-2.142h2.142zM4.017 16.067h-2.142v-2.142h2.142zM8.033 29.054c0 0.583-0.471 1.071-1.071 1.071-0.584 0-1.071-0.472-1.071-1.071v-16.834c0-0.861 0.401-1.648 1.071-2.152 0.67 0.503 1.071 1.291 1.071 2.152zM12.050 29.054c0 0.583-0.471 1.071-1.071 1.071-0.584 0-1.071-0.472-1.071-1.071v-16.834c0-0.861 0.401-1.648 1.071-2.152 0.67 0.503 1.071 1.291 1.071 2.152zM16.067 29.054c0 0.583-0.471 1.071-1.071 1.071-0.584 0-1.071-0.472-1.071-1.071v-16.834c0-0.861 0.401-1.648 1.071-2.152 0.67 0.503 1.071 1.291 1.071 2.152zM20.083 29.054c0 0.583-0.471 1.071-1.071 1.071-0.584 0-1.071-0.472-1.071-1.071v-16.834c0-0.861 0.401-1.648 1.071-2.152 0.67 0.503 1.071 1.291 1.071 2.152zM24.1 24.971v2.142h-2.142v-2.142zM24.1 16.067h-2.142v-2.142h2.142z"></path>
</svg>
