<!-- Generated by IcoMoon.io -->
<svg version="1.1" xmlns="http://www.w3.org/2000/svg" width="32" height="32" viewBox="0 0 32 32">
<title>router</title>
<path d="M24.033 3.515c-0.518 0-0.938 0.42-0.938 0.938s0.42 0.938 0.938 0.938c1.421 0 2.577 1.156 2.577 2.577 0 0.518 0.42 0.938 0.938 0.938s0.938-0.42 0.938-0.938c0-2.455-1.997-4.452-4.452-4.452z"></path>
<path d="M24.033 0c-0.518 0-0.938 0.42-0.938 0.938s0.42 0.938 0.938 0.938c3.359 0 6.092 2.733 6.092 6.092 0 0.518 0.42 0.937 0.938 0.937s0.938-0.42 0.938-0.938c0-4.393-3.574-7.967-7.967-7.967z"></path>
<path d="M24.971 7.967c0 0.518-0.42 0.937-0.938 0.937s-0.938-0.42-0.938-0.938c0-0.518 0.42-0.938 0.938-0.938s0.938 0.42 0.938 0.938z"></path>
<path d="M27.046 22.092h-2.075v-8.1c0-1.624-1.322-2.946-2.946-2.946s-2.946 1.322-2.946 2.946v8.1h-2.142v-8.1c0-1.624-1.322-2.946-2.946-2.946s-2.946 1.322-2.946 2.946v8.1h-2.142v-8.1c0-1.624-1.322-2.946-2.946-2.946s-2.946 1.322-2.946 2.946v8.1h-2.075c-0.518 0-0.938 0.42-0.938 0.938v8.033c0 0.518 0.42 0.938 0.938 0.938h26.108c0.518 0 0.938-0.42 0.938-0.938v-8.033c0-0.518-0.42-0.938-0.938-0.938zM20.954 13.992c0-0.59 0.48-1.071 1.071-1.071s1.071 0.48 1.071 1.071v8.1h-2.142v-8.1zM12.921 13.992c0-0.59 0.48-1.071 1.071-1.071s1.071 0.48 1.071 1.071v8.1h-2.142zM4.888 13.992c0-0.59 0.48-1.071 1.071-1.071s1.071 0.48 1.071 1.071v8.1h-2.142zM26.108 30.125h-24.233v-6.158h24.233z"></path>
<path d="M5.958 27.046c0 0.555-0.45 1.004-1.004 1.004s-1.004-0.45-1.004-1.004c0-0.555 0.45-1.004 1.004-1.004s1.004 0.45 1.004 1.004z"></path>
<path d="M9.975 27.046c0 0.555-0.45 1.004-1.004 1.004s-1.004-0.45-1.004-1.004c0-0.555 0.45-1.004 1.004-1.004s1.004 0.45 1.004 1.004z"></path>
<path d="M21.021 27.983h2.008c0.518 0 0.938-0.42 0.938-0.938s-0.42-0.938-0.938-0.938h-2.008c-0.518 0-0.938 0.42-0.938 0.938s0.42 0.938 0.938 0.938z"></path>
</svg>
