<!-- Generated by IcoMoon.io -->
<svg version="1.1" xmlns="http://www.w3.org/2000/svg" width="32" height="32" viewBox="0 0 32 32">
<title>garage-3</title>
<path d="M24.033 3.515c-0.518 0-0.938 0.42-0.938 0.938s0.42 0.938 0.938 0.938c1.421 0 2.577 1.156 2.577 2.577 0 0.518 0.42 0.938 0.938 0.938s0.938-0.42 0.938-0.938c0-2.455-1.997-4.452-4.452-4.452z"></path>
<path d="M24.033 0c-0.518 0-0.938 0.42-0.938 0.938s0.42 0.938 0.938 0.938c3.359 0 6.092 2.733 6.092 6.092 0 0.518 0.42 0.937 0.938 0.937s0.938-0.42 0.938-0.938c0-4.393-3.574-7.967-7.967-7.967z"></path>
<path d="M24.971 7.967c0 0.518-0.42 0.937-0.938 0.937s-0.938-0.42-0.938-0.938c0-0.518 0.42-0.938 0.938-0.938s0.938 0.42 0.938 0.938z"></path>
<path d="M12.646 1.279c-0.366-0.366-0.96-0.366-1.326 0l-11.046 11.046c-0.176 0.176-0.275 0.414-0.275 0.663v18.075c0 0.518 0.42 0.938 0.938 0.938h22.092c0.518 0 0.938-0.42 0.938-0.938v-18.075c0-0.249-0.099-0.487-0.275-0.663zM18.075 30.125h-12.183v-2.142h12.183zM18.075 26.108h-12.183v-2.142h12.183zM18.075 22.092h-12.183v-2.142h12.183zM18.075 18.075h-12.183v-2.142h12.183zM22.092 30.125h-2.142v-15.129c0-0.518-0.42-0.938-0.938-0.938h-14.058c-0.518 0-0.938 0.42-0.938 0.938v15.129h-2.142v-16.749l10.108-10.108 10.108 10.108v16.749z"></path>
</svg>
