<!-- Generated by IcoMoon.io -->
<svg version="1.1" xmlns="http://www.w3.org/2000/svg" width="32" height="32" viewBox="0 0 32 32">
<title>smart-speaker</title>
<path d="M24.033 0c-0.518 0-0.938 0.42-0.938 0.938s0.42 0.938 0.938 0.938c3.359 0 6.092 2.733 6.092 6.092 0 0.518 0.42 0.937 0.938 0.937s0.938-0.42 0.938-0.938c0-4.393-3.574-7.967-7.967-7.967z"></path>
<path d="M24.033 3.515c-0.518 0-0.938 0.42-0.938 0.938s0.42 0.938 0.938 0.938c1.421 0 2.577 1.156 2.577 2.577 0 0.518 0.42 0.938 0.938 0.938s0.938-0.42 0.938-0.938c0-2.455-1.997-4.452-4.452-4.452z"></path>
<path d="M24.971 7.967c0 0.518-0.42 0.937-0.938 0.937s-0.938-0.42-0.938-0.938c0-0.518 0.42-0.938 0.938-0.938s0.938 0.42 0.938 0.938z"></path>
<path d="M19.933 4.791c-0.079-0.448-0.468-0.775-0.923-0.775h-15.063c-0.455 0-0.844 0.327-0.923 0.775l-2.901 16.436c-0.41 2.337 0.236 4.006 1.43 5.2 0.69 0.69 1.537 1.167 2.461 1.398v3.237c0 0.518 0.42 0.938 0.938 0.938h13.054c0.518 0 0.938-0.42 0.938-0.938v-3.242c0.921-0.233 1.766-0.71 2.455-1.399 1.177-1.177 1.851-2.856 1.439-5.175zM4.734 5.892h13.489l1.796 10.175h-17.080zM17.068 30.125h-11.179v-2.142h11.179v2.142zM20.072 25.096c-0.653 0.653-1.521 1.013-2.445 1.013h-12.317c-0.918 0-1.782-0.358-2.431-1.007-1.274-1.274-1.028-2.874-0.909-3.549l0.637-3.611h17.742l0.641 3.631c0.119 0.67 0.351 2.253-0.918 3.523z"></path>
</svg>
