<!-- Generated by IcoMoon.io -->
<svg version="1.1" xmlns="http://www.w3.org/2000/svg" width="32" height="32" viewBox="0 0 32 32">
<title>lock</title>
<path d="M24.033 3.515c-0.518 0-0.938 0.42-0.938 0.938s0.42 0.938 0.938 0.938c1.421 0 2.577 1.156 2.577 2.577 0 0.518 0.42 0.938 0.938 0.938s0.938-0.42 0.938-0.938c0-2.455-1.997-4.452-4.452-4.452z"></path>
<path d="M24.033 0c-0.518 0-0.938 0.42-0.938 0.938s0.42 0.938 0.938 0.938c3.359 0 6.092 2.733 6.092 6.092 0 0.518 0.42 0.937 0.938 0.937s0.938-0.42 0.938-0.938c0-4.393-3.574-7.967-7.967-7.967z"></path>
<path d="M24.971 7.967c0 0.518-0.42 0.937-0.938 0.937s-0.938-0.42-0.938-0.938c0-0.518 0.42-0.938 0.938-0.938s0.938 0.42 0.938 0.938z"></path>
<path d="M21.021 13.054h-2.075v-3.079c0-4.407-3.568-7.967-7.967-7.967-4.407 0-7.967 3.568-7.967 7.967v3.079h-2.075c-0.518 0-0.938 0.42-0.938 0.938v17.071c0 0.518 0.42 0.938 0.938 0.938h20.083c0.518 0 0.938-0.42 0.938-0.938v-17.071c0-0.518-0.42-0.938-0.938-0.938zM4.888 9.975c0-3.37 2.728-6.092 6.092-6.092 3.369 0 6.092 2.728 6.092 6.092v3.079h-12.183zM20.083 30.125h-18.208v-15.196h18.208z"></path>
<path d="M10.042 23.813v2.229c0 0.518 0.42 0.938 0.938 0.938s0.938-0.42 0.938-0.938v-2.229c1.166-0.393 2.008-1.495 2.008-2.792 0-1.624-1.322-2.946-2.946-2.946s-2.946 1.322-2.946 2.946c-0 1.297 0.842 2.399 2.008 2.792zM10.979 19.95c0.59 0 1.071 0.48 1.071 1.071s-0.48 1.071-1.071 1.071-1.071-0.48-1.071-1.071 0.48-1.071 1.071-1.071z"></path>
</svg>
