<!-- Generated by IcoMoon.io -->
<svg version="1.1" xmlns="http://www.w3.org/2000/svg" width="32" height="32" viewBox="0 0 32 32">
<title>bell</title>
<path d="M24.033 3.515c-0.518 0-0.938 0.42-0.938 0.938s0.42 0.938 0.938 0.938c1.421 0 2.577 1.156 2.577 2.577 0 0.518 0.42 0.938 0.938 0.938s0.938-0.42 0.938-0.938c0-2.455-1.997-4.452-4.452-4.452z"></path>
<path d="M24.033 0c-0.518 0-0.938 0.42-0.938 0.938s0.42 0.938 0.938 0.938c3.359 0 6.092 2.733 6.092 6.092 0 0.518 0.42 0.937 0.938 0.937s0.938-0.42 0.938-0.938c0-4.393-3.574-7.967-7.967-7.967z"></path>
<path d="M24.971 7.967c0 0.518-0.42 0.937-0.938 0.937s-0.938-0.42-0.938-0.938c0-0.518 0.42-0.938 0.938-0.938s0.938 0.42 0.938 0.938z"></path>
<path d="M23.029 22.092h-1.071v-6.092c0-4.448-2.927-8.225-6.955-9.507 0.58-0.688 0.93-1.575 0.93-2.543 0-2.178-1.772-3.95-3.95-3.95s-3.95 1.772-3.95 3.95c0 0.968 0.351 1.855 0.93 2.543-4.029 1.282-6.955 5.059-6.955 9.507v6.092h-1.071c-0.518 0-0.938 0.42-0.938 0.938v4.017c0 0.518 0.42 0.938 0.938 0.938h7.096v0.067c0 2.185 1.768 3.95 3.95 3.95 2.185 0 3.95-1.768 3.95-3.95v-0.067h7.096c0.518 0 0.938-0.42 0.938-0.938v-4.017c0-0.518-0.42-0.938-0.937-0.938zM11.983 1.875c1.144 0 2.075 0.931 2.075 2.075s-0.931 2.075-2.075 2.075-2.075-0.931-2.075-2.075 0.931-2.075 2.075-2.075zM3.883 16c0-4.466 3.634-8.1 8.1-8.1s8.1 3.634 8.1 8.1v6.092h-16.2zM14.058 28.050c0 1.147-0.928 2.075-2.075 2.075s-2.075-0.928-2.075-2.075v-0.067h4.15zM22.092 26.108h-20.217v-2.142h20.217z"></path>
</svg>
