<!-- Generated by IcoMoon.io -->
<svg version="1.1" xmlns="http://www.w3.org/2000/svg" width="32" height="32" viewBox="0 0 32 32">
<title>printer</title>
<path d="M24.033 3.515c-0.518 0-0.938 0.42-0.938 0.938s0.42 0.938 0.938 0.938c1.421 0 2.577 1.156 2.577 2.577 0 0.518 0.42 0.938 0.938 0.938s0.938-0.42 0.938-0.938c0-2.455-1.997-4.452-4.452-4.452z"></path>
<path d="M24.033 0c-0.518 0-0.938 0.42-0.938 0.938s0.42 0.938 0.938 0.938c3.359 0 6.092 2.733 6.092 6.092 0 0.518 0.42 0.937 0.938 0.937s0.938-0.42 0.938-0.938c0-4.393-3.574-7.967-7.967-7.967z"></path>
<path d="M24.971 7.967c0 0.518-0.42 0.937-0.938 0.937s-0.938-0.42-0.938-0.938c0-0.518 0.42-0.938 0.938-0.938s0.938 0.42 0.938 0.938z"></path>
<path d="M9.975 23.967h6.025c0.518 0 0.938-0.42 0.938-0.938s-0.42-0.938-0.938-0.938h-6.025c-0.518 0-0.938 0.42-0.938 0.938s0.42 0.938 0.938 0.938z"></path>
<path d="M9.975 27.983h6.025c0.518 0 0.938-0.42 0.938-0.938s-0.42-0.938-0.938-0.938h-6.025c-0.518 0-0.938 0.42-0.938 0.938s0.42 0.938 0.938 0.938z"></path>
<path d="M23.029 11.046h-2.075v-4.083c0-0.249-0.099-0.487-0.275-0.663l-3.012-3.013c-0.176-0.176-0.414-0.275-0.663-0.275h-11.046c-0.518 0-0.938 0.42-0.938 0.938v7.096h-2.075c-1.624 0-2.946 1.322-2.946 2.946v9.038c0 0.518 0.42 0.938 0.938 0.938h4.083v7.096c0 0.518 0.42 0.938 0.938 0.938h14.058c0.518 0 0.938-0.42 0.938-0.938v-7.096h4.083c0.518 0 0.938-0.42 0.938-0.938v-9.038c0-1.624-1.322-2.946-2.946-2.946zM6.896 4.888h9.72l2.463 2.463v3.695h-12.183zM19.079 30.125h-12.183v-10.175h12.183zM24.1 22.092h-3.146v-3.079c0-0.518-0.42-0.938-0.938-0.938h-14.058c-0.518 0-0.938 0.42-0.938 0.938v3.079h-3.146v-8.1c0-0.59 0.48-1.071 1.071-1.071h20.083c0.59 0 1.071 0.48 1.071 1.071z"></path>
</svg>
