<!-- Generated by IcoMoon.io -->
<svg version="1.1" xmlns="http://www.w3.org/2000/svg" width="32" height="32" viewBox="0 0 32 32">
<title>bridge</title>
<path d="M24.033 3.515c-0.518 0-0.938 0.42-0.938 0.938s0.42 0.938 0.938 0.938c1.421 0 2.577 1.156 2.577 2.577 0 0.518 0.42 0.938 0.938 0.938s0.938-0.42 0.938-0.938c0-2.455-1.997-4.452-4.452-4.452z"></path>
<path d="M24.033 0c-0.518 0-0.938 0.42-0.938 0.938s0.42 0.938 0.938 0.938c3.359 0 6.092 2.733 6.092 6.092 0 0.518 0.42 0.937 0.938 0.937s0.938-0.42 0.938-0.938c0-4.393-3.574-7.967-7.967-7.967z"></path>
<path d="M24.971 7.967c0 0.518-0.42 0.937-0.938 0.937s-0.938-0.42-0.938-0.938c0-0.518 0.42-0.938 0.938-0.938s0.938 0.42 0.938 0.938z"></path>
<path d="M27.046 11.046h-26.108c-0.518 0-0.938 0.42-0.938 0.938v19.079c0 0.518 0.42 0.938 0.938 0.938h26.108c0.518 0 0.938-0.42 0.938-0.938v-19.079c0-0.518-0.42-0.938-0.938-0.938zM26.108 30.125h-24.233v-12.183h24.233zM26.108 16.067h-24.233v-3.146h24.233z"></path>
<path d="M23.967 27.046c0 0.518-0.42 0.938-0.938 0.938s-0.938-0.42-0.938-0.938c0-0.518 0.42-0.938 0.938-0.938s0.938 0.42 0.938 0.938z"></path>
<path d="M19.95 27.046c0 0.518-0.42 0.938-0.938 0.938s-0.938-0.42-0.938-0.938c0-0.518 0.42-0.938 0.938-0.938s0.938 0.42 0.938 0.938z"></path>
<path d="M4.954 27.983h8.033c0.518 0 0.938-0.42 0.938-0.938v-4.017c0-0.518-0.42-0.938-0.938-0.938h-1.071v-1.071c0-0.518-0.42-0.938-0.938-0.938h-4.017c-0.518 0-0.938 0.42-0.938 0.938v1.071h-1.071c-0.518 0-0.938 0.42-0.938 0.938v4.017c0 0.518 0.42 0.938 0.938 0.938zM5.892 23.967h1.071c0.518 0 0.938-0.42 0.938-0.938v-1.071h2.142v1.071c0 0.518 0.42 0.938 0.938 0.938h1.071v2.142h-6.158z"></path>
</svg>
