<!-- Generated by IcoMoon.io -->
<svg version="1.1" xmlns="http://www.w3.org/2000/svg" width="32" height="32" viewBox="0 0 32 32">
<title>cctv-4</title>
<path d="M24.033 3.515c-0.518 0-0.938 0.42-0.938 0.938s0.42 0.938 0.938 0.938c1.421 0 2.577 1.156 2.577 2.577 0 0.518 0.42 0.938 0.938 0.938s0.938-0.42 0.938-0.938c0-2.455-1.997-4.452-4.452-4.452z"></path>
<path d="M24.033 0c-0.518 0-0.938 0.42-0.938 0.938s0.42 0.938 0.938 0.938c3.359 0 6.092 2.733 6.092 6.092 0 0.518 0.42 0.937 0.938 0.937s0.938-0.42 0.938-0.938c0-4.393-3.574-7.967-7.967-7.967z"></path>
<path d="M24.971 7.967c0 0.518-0.42 0.937-0.938 0.937s-0.938-0.42-0.938-0.938c0-0.518 0.42-0.938 0.938-0.938s0.938 0.42 0.938 0.938z"></path>
<path d="M16 3.013h-11.046c-2.732 0-4.954 2.222-4.954 4.954v11.046c0 2.732 2.222 4.954 4.954 4.954h2.075c0 1.471-1.173 2.142-2.075 2.142-2.732-0-4.954 2.222-4.954 4.954 0 0.518 0.42 0.938 0.938 0.938h19.079c0.518 0 0.938-0.42 0.938-0.938 0-2.732-2.222-4.954-4.954-4.954-0.897 0-2.075-0.668-2.075-2.142h2.075c2.732 0 4.954-2.222 4.954-4.954v-11.046c0-2.732-2.222-4.954-4.954-4.954zM16 27.983c1.371 0 2.536 0.901 2.933 2.142h-16.912c0.397-1.241 1.562-2.142 2.933-2.142 1.897 0 3.95-1.465 3.95-4.017h3.146c0 2.564 2.072 4.017 3.95 4.017zM19.079 19.012c0 1.698-1.381 3.079-3.079 3.079h-11.046c-1.698 0-3.079-1.381-3.079-3.079v-11.046c0-1.698 1.381-3.079 3.079-3.079h11.046c1.698 0 3.079 1.381 3.079 3.079z"></path>
<path d="M16.938 7.967c0 0.518-0.42 0.937-0.938 0.937s-0.938-0.42-0.938-0.938c0-0.518 0.42-0.938 0.938-0.938s0.938 0.42 0.938 0.938z"></path>
<path d="M10.477 8.535c-2.732 0-4.954 2.222-4.954 4.954s2.223 4.954 4.954 4.954 4.954-2.222 4.954-4.954-2.222-4.954-4.954-4.954zM10.477 16.569c-1.698 0-3.079-1.381-3.079-3.079s1.381-3.079 3.079-3.079 3.079 1.381 3.079 3.079-1.381 3.079-3.079 3.079z"></path>
</svg>
