<!-- Generated by IcoMoon.io -->
<svg version="1.1" xmlns="http://www.w3.org/2000/svg" width="32" height="32" viewBox="0 0 32 32">
<title>window-1</title>
<path d="M24.033 3.515c-0.518 0-0.938 0.42-0.938 0.938s0.42 0.938 0.938 0.938c1.421 0 2.577 1.156 2.577 2.577 0 0.518 0.42 0.938 0.938 0.938s0.938-0.42 0.938-0.938c0-2.455-1.997-4.452-4.452-4.452z"></path>
<path d="M24.033 0c-0.518 0-0.938 0.42-0.938 0.938s0.42 0.938 0.938 0.938c3.359 0 6.092 2.733 6.092 6.092 0 0.518 0.42 0.937 0.938 0.937s0.938-0.42 0.938-0.938c0-4.393-3.574-7.967-7.967-7.967z"></path>
<path d="M24.971 7.967c0 0.518-0.42 0.937-0.938 0.937s-0.938-0.42-0.938-0.938c0-0.518 0.42-0.938 0.938-0.938s0.938 0.42 0.938 0.938z"></path>
<path d="M20.017 3.013h-19.079c-0.518 0-0.938 0.42-0.938 0.938v27.113c0 0.518 0.42 0.938 0.938 0.938h19.079c0.518 0 0.938-0.42 0.938-0.938v-27.113c0-0.518-0.42-0.938-0.938-0.938zM19.079 30.125h-17.204v-17.204h2.142v14.125c0 0.518 0.42 0.938 0.938 0.938h11.046c0.518 0 0.938-0.42 0.938-0.938v-14.125h2.142zM11.415 18.444h3.648v7.665h-3.648zM11.415 16.569v-3.648h3.648v3.648zM9.54 16.569h-3.648v-3.648h3.648zM9.54 18.444v7.665h-3.648v-7.665zM19.079 11.046h-17.204v-2.142h17.204zM19.079 7.029h-17.204v-2.142h17.204z"></path>
</svg>
