<!-- Generated by IcoMoon.io -->
<svg version="1.1" xmlns="http://www.w3.org/2000/svg" width="32" height="32" viewBox="0 0 32 32">
<title>washing-machine-1</title>
<path d="M24.033 3.515c-0.518 0-0.938 0.42-0.938 0.938s0.42 0.938 0.938 0.938c1.421 0 2.577 1.156 2.577 2.577 0 0.518 0.42 0.938 0.938 0.938s0.938-0.42 0.938-0.938c0-2.455-1.997-4.452-4.452-4.452z"></path>
<path d="M24.033 0c-0.518 0-0.938 0.42-0.938 0.938s0.42 0.938 0.938 0.938c3.359 0 6.092 2.733 6.092 6.092 0 0.518 0.42 0.937 0.938 0.937s0.938-0.42 0.938-0.938c0-4.393-3.574-7.967-7.967-7.967z"></path>
<path d="M24.971 7.967c0 0.518-0.42 0.937-0.938 0.937s-0.938-0.42-0.938-0.938c0-0.518 0.42-0.938 0.938-0.938s0.938 0.42 0.938 0.938z"></path>
<path d="M20.017 4.017h-19.079c-0.518 0-0.938 0.42-0.938 0.938v26.108c0 0.518 0.42 0.938 0.938 0.938h19.079c0.518 0 0.938-0.42 0.938-0.938v-26.108c0-0.518-0.42-0.938-0.938-0.938zM19.079 30.125h-17.204v-19.212h17.204zM19.079 9.037h-17.204v-3.146h17.204z"></path>
<path d="M10.477 26.979c3.562 0 6.46-2.898 6.46-6.46s-2.898-6.46-6.46-6.46c-3.562 0-6.46 2.898-6.46 6.46s2.898 6.46 6.46 6.46zM14.282 17.961c0.507 0.752 0.78 1.639 0.78 2.558s-0.273 1.806-0.78 2.558c-0.844-0.563-1.362-1.51-1.362-2.558s0.518-1.994 1.362-2.558zM10.477 15.933c0.901 0 1.741 0.262 2.45 0.712-0.974 0.773-1.881 2.044-1.881 3.873 0 1.826 0.907 3.099 1.882 3.873-0.709 0.451-1.55 0.713-2.451 0.713-2.528 0-4.585-2.057-4.585-4.585s2.057-4.585 4.585-4.585z"></path>
</svg>
