<!-- Generated by IcoMoon.io -->
<svg version="1.1" xmlns="http://www.w3.org/2000/svg" width="32" height="32" viewBox="0 0 32 32">
<title>voice-command</title>
<path d="M24.033 3.515c-0.518 0-0.938 0.42-0.938 0.938s0.42 0.938 0.938 0.938c1.421 0 2.577 1.156 2.577 2.577 0 0.518 0.42 0.938 0.938 0.938s0.938-0.42 0.938-0.938c0-2.455-1.997-4.452-4.452-4.452z"></path>
<path d="M24.033 0c-0.518 0-0.938 0.42-0.938 0.938s0.42 0.938 0.938 0.938c3.359 0 6.092 2.733 6.092 6.092 0 0.518 0.42 0.937 0.938 0.937s0.938-0.42 0.938-0.938c0-4.393-3.574-7.967-7.967-7.967z"></path>
<path d="M24.971 7.967c0 0.518-0.42 0.937-0.938 0.937s-0.938-0.42-0.938-0.938c0-0.518 0.42-0.938 0.938-0.938s0.938 0.42 0.938 0.938z"></path>
<path d="M20.017 5.021h-19.079c-0.518 0-0.938 0.42-0.938 0.938v19.079c0 0.518 0.42 0.938 0.938 0.938h2.075v5.087c0 0.379 0.228 0.721 0.579 0.866 0.325 0.135 0.735 0.084 1.022-0.203l5.75-5.75h9.653c0.518 0 0.938-0.42 0.938-0.938v-19.079c0-0.518-0.42-0.938-0.938-0.938zM19.079 24.1h-9.104c-0.249 0-0.487 0.099-0.663 0.275l-4.425 4.425v-3.762c0-0.518-0.42-0.938-0.938-0.938h-2.075v-17.204h17.204z"></path>
<path d="M5.958 11.917h7.029c0.518 0 0.938-0.42 0.938-0.938s-0.42-0.938-0.938-0.938h-7.029c-0.518 0-0.938 0.42-0.938 0.938s0.42 0.938 0.938 0.938z"></path>
<path d="M5.958 16.436h10.042c0.518 0 0.938-0.42 0.938-0.938s-0.42-0.938-0.938-0.938h-10.042c-0.518 0-0.938 0.42-0.938 0.938s0.42 0.938 0.938 0.938z"></path>
<path d="M5.958 20.954h5.021c0.518 0 0.938-0.42 0.938-0.938s-0.42-0.938-0.938-0.938h-5.021c-0.518 0-0.938 0.42-0.938 0.938s0.42 0.938 0.938 0.938z"></path>
</svg>
