<!-- Generated by IcoMoon.io -->
<svg version="1.1" xmlns="http://www.w3.org/2000/svg" width="32" height="32" viewBox="0 0 32 32">
<title>temperature</title>
<path d="M20.954 7.967c0-2.732-2.222-4.954-4.954-4.954-2.714 0-4.937 2.22-4.954 4.954v12.181c-1.281 1.299-2.008 3.058-2.008 4.89 0 3.839 3.123 6.962 6.963 6.962s6.963-3.123 6.963-6.962c0-1.832-0.727-3.591-2.008-4.89v-12.181zM21.087 25.038c0 2.805-2.282 5.087-5.088 5.087s-5.088-2.282-5.088-5.087c0-1.444 0.618-2.825 1.696-3.791 0.199-0.178 0.312-0.432 0.312-0.698v-12.576c0.011-1.701 1.392-3.085 3.079-3.085 1.698 0 3.079 1.381 3.079 3.079v12.582c0 0.267 0.113 0.52 0.312 0.698 1.078 0.966 1.696 2.347 1.696 3.791z"></path>
<path d="M24.033 3.515c-0.518 0-0.938 0.42-0.938 0.938s0.42 0.938 0.938 0.938c1.421 0 2.577 1.156 2.577 2.577 0 0.518 0.42 0.938 0.938 0.938s0.938-0.42 0.938-0.938c0-2.455-1.997-4.452-4.452-4.452z"></path>
<path d="M24.033 0c-0.518 0-0.938 0.42-0.938 0.938s0.42 0.938 0.938 0.938c3.359 0 6.092 2.733 6.092 6.092 0 0.518 0.42 0.937 0.938 0.937s0.938-0.42 0.938-0.938c0-4.393-3.574-7.967-7.967-7.967z"></path>
<path d="M24.971 7.967c0 0.518-0.42 0.937-0.938 0.937s-0.938-0.42-0.938-0.938c0-0.518 0.42-0.938 0.938-0.938s0.938 0.42 0.938 0.938z"></path>
<path d="M16.938 22.245v-14.279c0-0.518-0.42-0.938-0.938-0.938s-0.938 0.42-0.938 0.938v14.279c-1.166 0.393-2.008 1.495-2.008 2.792 0 1.624 1.322 2.946 2.946 2.946s2.946-1.322 2.946-2.946c0-1.297-0.842-2.399-2.008-2.792zM16 26.108c-0.59 0-1.071-0.48-1.071-1.071s0.48-1.071 1.071-1.071 1.071 0.48 1.071 1.071-0.48 1.071-1.071 1.071z"></path>
<path d="M5.958 5.021h-5.021c-0.518 0-0.938 0.42-0.938 0.938s0.42 0.938 0.938 0.938h5.021c0.518 0 0.938-0.42 0.938-0.938s-0.42-0.938-0.938-0.938z"></path>
<path d="M5.958 13.054h-5.021c-0.518 0-0.938 0.42-0.938 0.938s0.42 0.938 0.938 0.938h5.021c0.518 0 0.938-0.42 0.938-0.938s-0.42-0.938-0.938-0.938z"></path>
<path d="M5.958 21.087h-5.021c-0.518 0-0.938 0.42-0.938 0.938s0.42 0.938 0.938 0.938h5.021c0.518 0 0.938-0.42 0.938-0.938s-0.42-0.938-0.938-0.938z"></path>
<path d="M5.958 9.037h-2.008c-0.518 0-0.938 0.42-0.938 0.938s0.42 0.938 0.938 0.938h2.008c0.518 0 0.938-0.42 0.938-0.938s-0.42-0.938-0.938-0.938z"></path>
<path d="M5.958 17.071h-2.008c-0.518 0-0.938 0.42-0.938 0.938s0.42 0.938 0.938 0.938h2.008c0.518 0 0.938-0.42 0.938-0.938s-0.42-0.938-0.938-0.938z"></path>
</svg>
