<!-- Generated by IcoMoon.io -->
<svg version="1.1" xmlns="http://www.w3.org/2000/svg" width="32" height="32" viewBox="0 0 32 32">
<title>smart-refrigerator</title>
<path d="M17.004 0h-14.058c-1.624 0-2.946 1.322-2.946 2.946v25.104c0 1.297 0.842 2.399 2.008 2.792v0.221c0 0.518 0.42 0.938 0.938 0.938s0.938-0.42 0.938-0.938v-0.067h12.183v0.067c0 0.518 0.42 0.938 0.938 0.938s0.938-0.42 0.938-0.938v-0.221c1.166-0.393 2.008-1.495 2.008-2.792v-25.104c0-1.624-1.322-2.946-2.946-2.946zM18.075 28.050c0 0.59-0.48 1.071-1.071 1.071h-14.058c-0.59 0-1.071-0.48-1.071-1.071v-15.129h2.142v6.092c0 0.518 0.42 0.938 0.938 0.938s0.938-0.42 0.938-0.938v-6.092h12.183zM18.075 11.046h-12.183v-4.083c0-0.518-0.42-0.938-0.938-0.938s-0.938 0.42-0.938 0.938v4.083h-2.142v-8.1c0-0.59 0.48-1.071 1.071-1.071h14.058c0.59 0 1.071 0.48 1.071 1.071z"></path>
<path d="M24.033 3.515c-0.518 0-0.938 0.42-0.938 0.938s0.42 0.938 0.938 0.938c1.421 0 2.577 1.156 2.577 2.577 0 0.518 0.42 0.938 0.938 0.938s0.938-0.42 0.938-0.938c0-2.455-1.997-4.452-4.452-4.452z"></path>
<path d="M24.033 0c-0.518 0-0.938 0.42-0.938 0.938s0.42 0.938 0.938 0.938c3.359 0 6.092 2.733 6.092 6.092 0 0.518 0.42 0.937 0.938 0.937s0.938-0.42 0.938-0.938c0-4.393-3.574-7.967-7.967-7.967z"></path>
<path d="M24.971 7.967c0 0.518-0.42 0.937-0.938 0.937s-0.938-0.42-0.938-0.938c0-0.518 0.42-0.938 0.938-0.938s0.938 0.42 0.938 0.938z"></path>
</svg>
