<!-- Generated by IcoMoon.io -->
<svg version="1.1" xmlns="http://www.w3.org/2000/svg" width="32" height="32" viewBox="0 0 32 32">
<title>vacuum-cleaner</title>
<path d="M24.033 3.515c-0.518 0-0.938 0.42-0.938 0.938s0.42 0.938 0.938 0.938c1.421 0 2.577 1.156 2.577 2.577 0 0.518 0.42 0.938 0.938 0.938s0.938-0.42 0.938-0.938c0-2.455-1.997-4.452-4.452-4.452z"></path>
<path d="M24.033 0c-0.518 0-0.938 0.42-0.938 0.938s0.42 0.938 0.938 0.938c3.359 0 6.092 2.733 6.092 6.092 0 0.518 0.42 0.937 0.938 0.937s0.938-0.42 0.938-0.938c0-4.393-3.574-7.967-7.967-7.967z"></path>
<path d="M24.971 7.967c0 0.518-0.42 0.937-0.938 0.937s-0.938-0.42-0.938-0.938c0-0.518 0.42-0.938 0.938-0.938s0.938 0.42 0.938 0.938z"></path>
<path d="M13.423 11.481c0 0.518-0.42 0.938-0.938 0.938s-0.938-0.42-0.938-0.938c0-0.518 0.42-0.938 0.938-0.938s0.938 0.42 0.938 0.938z"></path>
<path d="M18.038 13.393c0 0.518-0.42 0.938-0.938 0.938s-0.938-0.42-0.938-0.938c0-0.518 0.42-0.938 0.938-0.938s0.938 0.42 0.938 0.938z"></path>
<path d="M12.485 7.029c-6.885 0-12.485 5.601-12.485 12.485s5.601 12.485 12.485 12.485 12.485-5.601 12.485-12.485-5.601-12.485-12.485-12.485zM23.096 19.515c0 5.851-4.76 10.61-10.61 10.61s-10.61-4.76-10.61-10.61c0-0.191 0.005-0.38 0.015-0.569h6.758c0.422 1.727 1.982 3.012 3.837 3.012s3.415-1.286 3.837-3.012h6.758c0.010 0.188 0.015 0.378 0.015 0.569zM10.41 18.008c0-1.144 0.931-2.075 2.075-2.075s2.075 0.931 2.075 2.075-0.931 2.075-2.075 2.075-2.075-0.931-2.075-2.075zM16.322 17.071c-0.422-1.727-1.982-3.012-3.837-3.012s-3.415 1.286-3.837 3.012h-6.489c1.107-4.676 5.316-8.167 10.326-8.167s9.219 3.49 10.326 8.167z"></path>
<path d="M8.808 13.393c0 0.518-0.42 0.938-0.938 0.938s-0.938-0.42-0.938-0.938c0-0.518 0.42-0.938 0.938-0.938s0.938 0.42 0.938 0.938z"></path>
</svg>
