<!-- Generated by IcoMoon.io -->
<svg version="1.1" xmlns="http://www.w3.org/2000/svg" width="32" height="32" viewBox="0 0 32 32">
<title>kettle</title>
<path d="M24.033 3.515c-0.518 0-0.938 0.42-0.938 0.938s0.42 0.938 0.938 0.938c1.421 0 2.577 1.156 2.577 2.577 0 0.518 0.42 0.938 0.938 0.938s0.938-0.42 0.938-0.938c0-2.455-1.997-4.452-4.452-4.452z"></path>
<path d="M24.033 0c-0.518 0-0.938 0.42-0.938 0.938s0.42 0.938 0.938 0.938c3.359 0 6.092 2.733 6.092 6.092 0 0.518 0.42 0.937 0.938 0.937s0.938-0.42 0.938-0.938c0-4.393-3.574-7.967-7.967-7.967z"></path>
<path d="M24.971 7.967c0 0.518-0.42 0.937-0.938 0.937s-0.938-0.42-0.938-0.938c0-0.518 0.42-0.938 0.938-0.938s0.938 0.42 0.938 0.938z"></path>
<path d="M21.021 11.046h-1.161c-0.44-2.285-2.453-4.017-4.864-4.017h-0.269c0.13-0.332 0.202-0.693 0.202-1.071 0-1.624-1.322-2.946-2.946-2.946s-2.946 1.321-2.946 2.946c0 0.378 0.072 0.739 0.202 1.071h-0.27c-2.411 0-4.424 1.732-4.863 4.017h-3.169c-0.518 0-0.938 0.421-0.938 0.938 0 2.42 1.729 4.426 4.017 4.864v9.26h-0.067c-0.43 0-0.805 0.293-0.909 0.71l-1.004 4.017c-0.070 0.28-0.007 0.577 0.171 0.804s0.45 0.361 0.739 0.361h17.573c0.269 0 0.525-0.116 0.703-0.317s0.261-0.47 0.227-0.737l-0.502-4.017c-0.059-0.469-0.457-0.821-0.93-0.821h-0.067v-13.188h1.071c0.593 0 1.071 0.481 1.071 1.071v7.029c0 0.518 0.42 0.938 0.938 0.938s0.938-0.42 0.938-0.938v-7.029c0-1.643-1.334-2.946-2.946-2.946zM4.017 14.918c-0.455-0.145-1.56-0.645-1.994-1.997h1.994zM11.983 4.888c0.59 0 1.071 0.48 1.071 1.071s-0.48 1.071-1.071 1.071-1.071-0.48-1.071-1.071 0.48-1.071 1.071-1.071zM8.97 8.904h6.026c1.371 0 2.536 0.901 2.933 2.142h-11.892c0.397-1.241 1.562-2.142 2.933-2.142zM5.892 12.921h12.183v13.188h-12.183zM4.147 30.125l0.535-2.142h14.507l0.268 2.142z"></path>
</svg>
