<!-- Generated by IcoMoon.io -->
<svg version="1.1" xmlns="http://www.w3.org/2000/svg" width="32" height="32" viewBox="0 0 32 32">
<title>smart-light-2</title>
<path d="M24.033 3.515c-0.518 0-0.938 0.42-0.938 0.938s0.42 0.938 0.938 0.938c1.421 0 2.577 1.156 2.577 2.577 0 0.518 0.42 0.938 0.938 0.938s0.938-0.42 0.938-0.938c0-2.455-1.997-4.452-4.452-4.452z"></path>
<path d="M24.033 0c-0.518 0-0.938 0.42-0.938 0.938s0.42 0.938 0.938 0.938c3.359 0 6.092 2.733 6.092 6.092 0 0.518 0.42 0.937 0.938 0.937s0.938-0.42 0.938-0.938c0-4.393-3.574-7.967-7.967-7.967z"></path>
<path d="M24.971 7.967c0 0.518-0.42 0.937-0.938 0.937s-0.938-0.42-0.938-0.938c0-0.518 0.42-0.938 0.938-0.938s0.938 0.42 0.938 0.938z"></path>
<path d="M18.928 2.762c-0.088-0.438-0.472-0.754-0.919-0.754h-14.058c-0.447 0-0.832 0.315-0.919 0.754l-3.013 15.063c-0.055 0.275 0.016 0.561 0.194 0.778s0.444 0.343 0.725 0.343h9.104v7.163h-1.071c-2.732 0-4.954 2.222-4.954 4.954 0 0.518 0.42 0.937 0.938 0.937h12.050c0.518 0 0.938-0.42 0.938-0.938 0-2.732-2.222-4.954-4.954-4.954h-1.071v-7.162h9.104c0.281 0 0.547-0.126 0.725-0.343s0.249-0.503 0.194-0.778zM12.988 27.983c1.371 0 2.536 0.901 2.933 2.142h-9.883c0.397-1.241 1.562-2.142 2.933-2.142zM2.081 17.071l2.638-13.188h12.521l2.637 13.188z"></path>
</svg>
