<!-- Generated by IcoMoon.io -->
<svg version="1.1" xmlns="http://www.w3.org/2000/svg" width="32" height="32" viewBox="0 0 32 32">
<title>fingerprint-2</title>
<path d="M31.063 19.079h-4.083v-3.080c0-6.074-4.915-10.978-10.98-10.978-6.073 0-10.978 4.915-10.978 10.978v3.080h-4.083c-0.518 0-0.938 0.42-0.938 0.938s0.42 0.938 0.938 0.938h4.083v1.071c0 0.518 0.42 0.938 0.938 0.938s0.938-0.42 0.938-0.938v-1.071h2.142v5.086c0 0.518 0.42 0.938 0.938 0.938s0.938-0.42 0.938-0.938v-5.086h2.142v6.895c0 0.518 0.42 0.938 0.938 0.938s0.938-0.42 0.938-0.938v-6.895h2.142v6.895c0 0.518 0.42 0.938 0.938 0.938s0.938-0.42 0.938-0.938v-6.895h2.142v5.086c0 0.518 0.42 0.938 0.938 0.938s0.938-0.42 0.938-0.938v-5.086h2.142v1.071c0 0.518 0.42 0.938 0.938 0.938s0.938-0.42 0.938-0.938v-1.071h4.083c0.518 0 0.938-0.42 0.938-0.938s-0.42-0.937-0.938-0.937zM22.962 19.079v-3.080c0-3.853-3.117-6.962-6.963-6.962-3.852 0-6.962 3.117-6.962 6.962 0 0.518 0.42 0.937 0.938 0.937s0.938-0.42 0.938-0.938c0-2.81 2.273-5.087 5.088-5.087 2.814 0 5.087 2.277 5.087 5.087v3.080h-6.158v-3.079c0-0.59 0.48-1.071 1.071-1.071s1.071 0.48 1.071 1.071c0 0.518 0.42 0.938 0.938 0.938s0.938-0.42 0.938-0.938c0-1.624-1.322-2.946-2.946-2.946s-2.946 1.322-2.946 2.946v3.079h-6.158v-3.080c0-5.038 4.076-9.103 9.105-9.103 5.036 0 9.103 4.076 9.103 9.103v3.080z"></path>
<path d="M0.938 6.896c0.518 0 0.938-0.42 0.938-0.938v-4.083h4.083c0.518 0 0.938-0.42 0.938-0.938s-0.42-0.938-0.938-0.938h-5.021c-0.518 0-0.938 0.42-0.938 0.938v5.021c0 0.518 0.42 0.938 0.938 0.938z"></path>
<path d="M5.958 30.125h-4.083v-4.083c0-0.518-0.42-0.938-0.938-0.938s-0.938 0.42-0.938 0.938v5.021c0 0.518 0.42 0.938 0.938 0.938h5.021c0.518 0 0.938-0.42 0.938-0.938s-0.42-0.938-0.938-0.938z"></path>
<path d="M31.063 0h-5.021c-0.518 0-0.938 0.42-0.938 0.938s0.42 0.938 0.938 0.938h4.083v4.083c0 0.518 0.42 0.938 0.938 0.938s0.938-0.42 0.938-0.938v-5.021c0-0.518-0.42-0.938-0.938-0.938z"></path>
<path d="M31.063 25.104c-0.518 0-0.938 0.42-0.938 0.938v4.083h-4.083c-0.518 0-0.938 0.42-0.938 0.938s0.42 0.938 0.938 0.938h5.021c0.518 0 0.938-0.42 0.938-0.938v-5.021c0-0.518-0.42-0.938-0.938-0.938z"></path>
</svg>
