<!-- Generated by IcoMoon.io -->
<svg version="1.1" xmlns="http://www.w3.org/2000/svg" width="32" height="32" viewBox="0 0 32 32">
<title>fan</title>
<path d="M24.033 3.515c-0.518 0-0.938 0.42-0.938 0.938s0.42 0.938 0.938 0.938c1.421 0 2.577 1.156 2.577 2.577 0 0.518 0.42 0.938 0.938 0.938s0.938-0.42 0.938-0.938c0-2.455-1.997-4.452-4.452-4.452z"></path>
<path d="M24.033 0c-0.518 0-0.938 0.42-0.938 0.938s0.42 0.938 0.938 0.938c3.359 0 6.092 2.733 6.092 6.092 0 0.518 0.42 0.937 0.938 0.937s0.938-0.42 0.938-0.938c0-4.393-3.574-7.967-7.967-7.967z"></path>
<path d="M24.971 7.967c0 0.518-0.42 0.937-0.938 0.937s-0.938-0.42-0.938-0.938c0-0.518 0.42-0.938 0.938-0.938s0.938 0.42 0.938 0.938z"></path>
<path d="M25.901 11.744c-0.244-0.402-0.748-0.56-1.179-0.371-2.893 1.274-5.668 2.82-8.259 4.601-0.126-0.105-0.26-0.201-0.399-0.289 0.893-3.015 1.506-6.132 1.823-9.277 0.047-0.468-0.259-0.898-0.717-1.006-2.109-0.5-4.338-0.5-6.447 0-0.457 0.108-0.764 0.539-0.717 1.006 0.317 3.145 0.931 6.262 1.824 9.277-0.139 0.089-0.273 0.185-0.399 0.289-2.591-1.781-5.365-3.327-8.259-4.601-0.43-0.19-0.934-0.031-1.179 0.371-1.127 1.852-1.815 3.972-1.992 6.132-0.038 0.468 0.276 0.893 0.736 0.993 3.088 0.67 6.241 1.050 9.383 1.132 0.041 0.161 0.094 0.317 0.154 0.469-2.494 1.914-4.822 4.074-6.927 6.432-0.313 0.351-0.318 0.879-0.012 1.235 1.412 1.643 3.216 2.954 5.216 3.79 0.434 0.181 0.935 0.013 1.171-0.393 1.591-2.73 2.927-5.611 3.977-8.575 0.082 0.005 0.164 0.009 0.247 0.009s0.165-0.003 0.247-0.009c1.050 2.964 2.385 5.845 3.976 8.575 0.173 0.296 0.485 0.465 0.81 0.465 0.121 0 0.244-0.023 0.361-0.073 2-0.836 3.803-2.146 5.216-3.79 0.306-0.357 0.301-0.885-0.012-1.236-2.105-2.357-4.432-4.517-6.927-6.432 0.060-0.152 0.113-0.309 0.154-0.47 3.142-0.082 6.294-0.462 9.383-1.132 0.459-0.1 0.774-0.524 0.736-0.993-0.177-2.16-0.866-4.281-1.992-6.131zM15.93 7.065c-0.322 2.717-0.873 5.407-1.642 8.018-0.113-0.010-0.226-0.014-0.341-0.014s-0.227 0.005-0.34 0.014c-0.769-2.611-1.32-5.3-1.642-8.018 1.309-0.216 2.655-0.216 3.964 0zM10.099 18.125c-2.72-0.075-5.448-0.383-8.131-0.916 0.199-1.312 0.615-2.592 1.225-3.77 2.484 1.146 4.872 2.501 7.117 4.038-0.089 0.209-0.159 0.426-0.21 0.648zM8.526 29.853c-1.186-0.595-2.275-1.386-3.207-2.33 1.858-2.009 3.885-3.862 6.042-5.522 0.172 0.149 0.356 0.283 0.55 0.4-0.913 2.565-2.048 5.065-3.385 7.452zM13.948 21.093c-1.144 0-2.075-0.931-2.075-2.075s0.931-2.075 2.075-2.075 2.075 0.931 2.075 2.075-0.931 2.075-2.075 2.075zM22.578 27.523c-0.932 0.944-2.021 1.735-3.208 2.33-1.337-2.388-2.472-4.888-3.384-7.452 0.194-0.117 0.378-0.251 0.55-0.4 2.158 1.661 4.184 3.513 6.042 5.522zM17.797 18.125c-0.051-0.222-0.121-0.439-0.21-0.648 2.245-1.538 4.632-2.893 7.117-4.039 0.61 1.178 1.026 2.458 1.225 3.77-2.684 0.533-5.412 0.841-8.131 0.916z"></path>
</svg>
