<!-- Generated by IcoMoon.io -->
<svg version="1.1" xmlns="http://www.w3.org/2000/svg" width="32" height="32" viewBox="0 0 32 32">
<title>sink</title>
<path d="M24.033 5.39c1.421 0 2.577 1.156 2.577 2.577 0 0.518 0.42 0.938 0.938 0.938s0.938-0.42 0.938-0.938c0-2.455-1.997-4.452-4.452-4.452-0.518 0-0.938 0.42-0.938 0.938s0.42 0.938 0.938 0.938z"></path>
<path d="M24.033 1.875c3.359 0 6.092 2.733 6.092 6.092 0 0.518 0.42 0.937 0.938 0.937s0.938-0.42 0.938-0.938c0-4.393-3.574-7.967-7.967-7.967-0.518 0-0.938 0.42-0.938 0.938s0.42 0.938 0.938 0.938z"></path>
<path d="M24.971 7.967c0 0.518-0.42 0.937-0.938 0.937s-0.938-0.42-0.938-0.938c0-0.518 0.42-0.938 0.938-0.938s0.938 0.42 0.938 0.938z"></path>
<path d="M31.063 24.1h-2.075v-3.079c0-0.518-0.42-0.938-0.938-0.938h-6.025c-0.518 0-0.938 0.42-0.938 0.938v3.079h-2.142v-13.121c0-4.393-3.574-7.967-7.967-7.967-4.347 0-7.967 3.51-7.967 7.967v4.017c0 0.518 0.42 0.938 0.938 0.938h4.017c0.518 0 0.937-0.42 0.937-0.938v-4.017c0-1.161 0.946-2.075 2.075-2.075 1.144 0 2.075 0.931 2.075 2.075v13.121h-2.142v-3.079c0-0.518-0.42-0.938-0.938-0.938h-6.025c-0.518 0-0.938 0.42-0.938 0.938v3.079h-2.075c-0.518 0-0.938 0.42-0.938 0.938v6.025c0 0.518 0.42 0.938 0.938 0.938h30.125c0.518 0 0.938-0.42 0.938-0.938v-6.025c0-0.518-0.42-0.938-0.938-0.938zM22.962 21.958h4.15v2.142h-4.15zM10.979 7.029c-2.153 0-3.95 1.741-3.95 3.95v3.079h-2.142v-3.079c0-3.413 2.772-6.092 6.092-6.092 3.359 0 6.092 2.733 6.092 6.092v13.121h-2.142v-13.121c0-2.178-1.772-3.95-3.95-3.95zM4.888 21.958h4.15v2.142h-4.15zM30.125 30.125h-28.25v-4.15h28.25z"></path>
</svg>
