<!-- Generated by IcoMoon.io -->
<svg version="1.1" xmlns="http://www.w3.org/2000/svg" width="32" height="32" viewBox="0 0 32 32">
<title>cctv-5</title>
<path d="M24.033 3.515c-0.518 0-0.938 0.42-0.938 0.938s0.42 0.938 0.938 0.938c1.421 0 2.577 1.156 2.577 2.577 0 0.518 0.42 0.938 0.938 0.938s0.938-0.42 0.938-0.938c0-2.455-1.997-4.452-4.452-4.452z"></path>
<path d="M24.033 0c-0.518 0-0.938 0.42-0.938 0.938s0.42 0.938 0.938 0.938c3.359 0 6.092 2.733 6.092 6.092 0 0.518 0.42 0.937 0.938 0.937s0.938-0.42 0.938-0.938c0-4.393-3.574-7.967-7.967-7.967z"></path>
<path d="M24.971 7.967c0 0.518-0.42 0.937-0.938 0.937s-0.938-0.42-0.938-0.938c0-0.518 0.42-0.938 0.938-0.938s0.938 0.42 0.938 0.938z"></path>
<path d="M24.033 11.046h-3.079v-1.071c0-0.518-0.42-0.938-0.938-0.938h-17.071c-1.641 0-2.946 1.332-2.946 2.946v6.025c0 1.642 1.333 2.946 2.946 2.946h7.096v6.158h-4.263c-0.42-1.731-1.978-3.012-3.837-3.012h-1.004c-0.518 0-0.938 0.42-0.938 0.938v6.025c0 0.518 0.42 0.938 0.938 0.938h1.004c1.861 0 3.417-1.283 3.837-3.012h5.2c0.518 0 0.938-0.42 0.938-0.938v-7.096h8.1c0.518 0 0.938-0.42 0.938-0.938v-1.071h3.079c0.518 0 0.938-0.42 0.938-0.938v-6.025c0-0.518-0.42-0.938-0.938-0.938zM1.942 30.125h-0.067v-4.15h0.067c1.147 0 2.075 0.928 2.075 2.075s-0.928 2.075-2.075 2.075zM19.079 19.079h-16.133c-0.583 0-1.071-0.471-1.071-1.071v-6.025c0-0.595 0.482-1.071 1.071-1.071h16.133zM23.096 17.071h-2.142v-4.15h2.142z"></path>
<path d="M4.954 14.929h3.013c0.518 0 0.937-0.42 0.937-0.938s-0.42-0.938-0.938-0.938h-3.013c-0.518 0-0.938 0.42-0.938 0.938s0.42 0.938 0.938 0.938z"></path>
</svg>
