<!-- Generated by IcoMoon.io -->
<svg version="1.1" xmlns="http://www.w3.org/2000/svg" width="32" height="32" viewBox="0 0 32 32">
<title>turn-on</title>
<path d="M24.033 3.515c-0.518 0-0.938 0.42-0.938 0.938s0.42 0.938 0.938 0.938c1.421 0 2.577 1.156 2.577 2.577 0 0.518 0.42 0.938 0.938 0.938s0.938-0.42 0.938-0.938c0-2.455-1.997-4.452-4.452-4.452z"></path>
<path d="M24.033 0c-0.518 0-0.938 0.42-0.938 0.938s0.42 0.938 0.938 0.938c3.359 0 6.092 2.733 6.092 6.092 0 0.518 0.42 0.937 0.938 0.937s0.938-0.42 0.938-0.938c0-4.393-3.574-7.967-7.967-7.967z"></path>
<path d="M24.971 7.967c0 0.518-0.42 0.937-0.938 0.937s-0.938-0.42-0.938-0.938c0-0.518 0.42-0.938 0.938-0.938s0.938 0.42 0.938 0.938z"></path>
<path d="M12.485 7.029c-6.885 0-12.485 5.601-12.485 12.485s5.601 12.485 12.485 12.485c6.884 0 12.485-5.601 12.485-12.485s-5.601-12.485-12.485-12.485zM12.485 30.125c-5.851 0-10.61-4.76-10.61-10.61s4.76-10.61 10.61-10.61 10.61 4.76 10.61 10.61-4.76 10.61-10.61 10.61z"></path>
<path d="M16.437 14.237c-0.366 0.366-0.366 0.96-0 1.326 1.056 1.057 1.638 2.46 1.638 3.952 0 3.082-2.508 5.59-5.59 5.59s-5.59-2.508-5.59-5.59c0-1.492 0.582-2.895 1.638-3.952 0.366-0.366 0.366-0.96-0-1.326s-0.96-0.366-1.326 0c-1.41 1.411-2.187 3.285-2.187 5.277 0 4.116 3.349 7.465 7.465 7.465s7.465-3.349 7.465-7.465c0-1.992-0.777-3.867-2.187-5.277-0.366-0.366-0.96-0.366-1.326-0z"></path>
<path d="M12.485 17.44c0.518 0 0.938-0.42 0.938-0.938v-3.515c0-0.518-0.42-0.938-0.938-0.938s-0.938 0.42-0.938 0.938v3.515c0 0.518 0.42 0.938 0.938 0.938z"></path>
</svg>
