<!-- Generated by IcoMoon.io -->
<svg version="1.1" xmlns="http://www.w3.org/2000/svg" width="32" height="32" viewBox="0 0 32 32">
<title>speaker-1</title>
<path d="M24.033 3.515c-0.518 0-0.938 0.42-0.938 0.938s0.42 0.938 0.938 0.938c1.421 0 2.577 1.156 2.577 2.577 0 0.518 0.42 0.938 0.938 0.938s0.938-0.42 0.938-0.938c0-2.455-1.997-4.452-4.452-4.452z"></path>
<path d="M24.033 0c-0.518 0-0.938 0.42-0.938 0.938s0.42 0.938 0.938 0.938c3.359 0 6.092 2.733 6.092 6.092 0 0.518 0.42 0.937 0.938 0.937s0.938-0.42 0.938-0.938c0-4.393-3.574-7.967-7.967-7.967z"></path>
<path d="M24.971 7.967c0 0.518-0.42 0.937-0.938 0.937s-0.938-0.42-0.938-0.938c0-0.518 0.42-0.938 0.938-0.938s0.938 0.42 0.938 0.938z"></path>
<path d="M20.017 3.013h-19.079c-0.518 0-0.938 0.42-0.938 0.938v27.113c0 0.518 0.42 0.938 0.938 0.938h19.079c0.518 0 0.938-0.42 0.938-0.938v-27.113c0-0.518-0.42-0.938-0.938-0.938zM19.079 30.125h-17.204v-25.238h17.204z"></path>
<path d="M10.477 12.921c1.624 0 2.946-1.322 2.946-2.946s-1.322-2.946-2.946-2.946-2.946 1.322-2.946 2.946 1.322 2.946 2.946 2.946zM10.477 8.904c0.59 0 1.071 0.48 1.071 1.071s-0.48 1.071-1.071 1.071-1.071-0.48-1.071-1.071 0.48-1.071 1.071-1.071z"></path>
<path d="M10.477 28.485c3.839 0 6.962-3.123 6.962-6.963s-3.123-6.962-6.962-6.962c-3.839 0-6.963 3.123-6.963 6.962s3.123 6.962 6.963 6.962zM10.477 16.435c2.805 0 5.087 2.282 5.087 5.087s-2.282 5.087-5.087 5.087c-2.805 0-5.088-2.282-5.088-5.087s2.282-5.087 5.088-5.087z"></path>
<path d="M10.477 24.469c1.624 0 2.946-1.322 2.946-2.946s-1.322-2.946-2.946-2.946-2.946 1.322-2.946 2.946 1.322 2.946 2.946 2.946zM10.477 20.452c0.59 0 1.071 0.48 1.071 1.071s-0.48 1.071-1.071 1.071-1.071-0.48-1.071-1.071 0.48-1.071 1.071-1.071z"></path>
</svg>
