<!-- Generated by IcoMoon.io -->
<svg version="1.1" xmlns="http://www.w3.org/2000/svg" width="32" height="32" viewBox="0 0 32 32">
<title>smarthome</title>
<path d="M24.033 3.515c-0.518 0-0.938 0.42-0.938 0.938s0.42 0.938 0.938 0.938c1.421 0 2.577 1.156 2.577 2.577 0 0.518 0.42 0.938 0.938 0.938s0.938-0.42 0.938-0.938c0-2.455-1.997-4.452-4.452-4.452z"></path>
<path d="M24.033 0c-0.518 0-0.938 0.42-0.938 0.938s0.42 0.938 0.938 0.938c3.359 0 6.092 2.733 6.092 6.092 0 0.518 0.42 0.937 0.938 0.937s0.938-0.42 0.938-0.938c0-4.393-3.574-7.967-7.967-7.967z"></path>
<path d="M24.971 7.967c0 0.518-0.42 0.937-0.938 0.937s-0.938-0.42-0.938-0.938c0-0.518 0.42-0.938 0.938-0.938s0.938 0.42 0.938 0.938z"></path>
<path d="M16.502 0h-13.054c-1.907 0-3.448 1.543-3.448 3.448v25.104c0 1.907 1.543 3.448 3.448 3.448h13.054c1.907 0 3.448-1.543 3.448-3.448v-25.104c0-1.907-1.543-3.448-3.448-3.448zM13.432 1.875c-0.247 0.481-0.377 1.017-0.377 1.573 0 0.314-0.255 0.569-0.569 0.569h-5.021c-0.314 0-0.569-0.255-0.569-0.57 0-0.556-0.131-1.091-0.377-1.572h6.913zM16.502 30.125h-13.054c-0.869 0-1.573-0.704-1.573-1.573v-25.104c0-0.869 0.704-1.573 1.573-1.573s1.573 0.704 1.573 1.573c0 1.348 1.096 2.444 2.444 2.444h5.021c1.348 0 2.444-1.095 2.444-2.444 0-0.869 0.704-1.573 1.573-1.573s1.573 0.704 1.573 1.573l0 25.104c-0 0.869-0.704 1.573-1.573 1.573z"></path>
<path d="M10.638 10.316c-0.366-0.366-0.96-0.366-1.326 0l-4.017 4.017c-0.176 0.176-0.275 0.414-0.275 0.663v6.025c0 0.518 0.42 0.938 0.938 0.938h8.033c0.518 0 0.938-0.42 0.938-0.938v-6.025c0-0.249-0.099-0.487-0.275-0.663zM13.054 20.083h-6.158v-4.699l3.079-3.079 3.079 3.079v4.699z"></path>
<path d="M13.992 26.108h-8.033c-0.518 0-0.938 0.42-0.938 0.938s0.42 0.938 0.938 0.938h8.033c0.518 0 0.938-0.42 0.938-0.938s-0.42-0.938-0.938-0.938z"></path>
</svg>
