<!-- Generated by IcoMoon.io -->
<svg version="1.1" xmlns="http://www.w3.org/2000/svg" width="32" height="32" viewBox="0 0 32 32">
<title>smarthome-1</title>
<path d="M28.713 12.325l-12.050-12.050c-0.366-0.366-0.96-0.366-1.326 0l-12.050 12.050c-0.176 0.176-0.275 0.414-0.275 0.663v18.075c0 0.518 0.42 0.938 0.938 0.938h24.1c0.518 0 0.938-0.42 0.938-0.938v-18.075c0-0.249-0.099-0.487-0.275-0.663zM27.113 30.125h-22.225v-16.749l11.113-11.112 11.113 11.113z"></path>
<path d="M7.029 18.008c0 0.518 0.42 0.938 0.938 0.938h9.258c0.393 1.166 1.495 2.008 2.792 2.008s2.399-0.842 2.792-2.008h1.225c0.518 0 0.938-0.42 0.938-0.938s-0.42-0.938-0.938-0.938h-1.225c-0.393-1.166-1.495-2.008-2.792-2.008s-2.399 0.842-2.792 2.008h-9.258c-0.518 0-0.938 0.42-0.938 0.938zM20.017 16.938c0.59 0 1.071 0.48 1.071 1.071s-0.48 1.071-1.071 1.071-1.071-0.48-1.071-1.071 0.48-1.071 1.071-1.071z"></path>
<path d="M24.033 24.1h-9.258c-0.393-1.166-1.495-2.008-2.792-2.008s-2.399 0.842-2.792 2.008h-1.225c-0.518 0-0.938 0.42-0.938 0.938s0.42 0.938 0.938 0.938h1.225c0.393 1.166 1.495 2.008 2.792 2.008s2.399-0.842 2.792-2.008h9.258c0.518 0 0.938-0.42 0.938-0.938s-0.42-0.938-0.938-0.938zM11.983 26.108c-0.59 0-1.071-0.48-1.071-1.071s0.48-1.071 1.071-1.071 1.071 0.48 1.071 1.071-0.48 1.071-1.071 1.071z"></path>
</svg>
