<!-- Generated by IcoMoon.io -->
<svg version="1.1" xmlns="http://www.w3.org/2000/svg" width="32" height="32" viewBox="0 0 32 32">
<title>coffee-machine-1</title>
<path d="M24.033 3.515c-0.518 0-0.938 0.42-0.938 0.938s0.42 0.938 0.938 0.938c1.421 0 2.577 1.156 2.577 2.577 0 0.518 0.42 0.938 0.938 0.938s0.938-0.42 0.938-0.938c0-2.455-1.997-4.452-4.452-4.452z"></path>
<path d="M24.033 0c-0.518 0-0.938 0.42-0.938 0.938s0.42 0.938 0.938 0.938c3.359 0 6.092 2.733 6.092 6.092 0 0.518 0.42 0.937 0.938 0.937s0.938-0.42 0.938-0.938c0-4.393-3.574-7.967-7.967-7.967z"></path>
<path d="M24.971 7.967c0 0.518-0.42 0.937-0.938 0.937s-0.938-0.42-0.938-0.938c0-0.518 0.42-0.938 0.938-0.938s0.938 0.42 0.938 0.938z"></path>
<path d="M26.042 12.050h-6.092v-5.088c0-2.799-2.28-4.954-4.954-4.954h-14.058c-0.518 0-0.938 0.42-0.938 0.938v28.117c0 0.518 0.42 0.938 0.938 0.938h21.087c0.518 0 0.938-0.42 0.938-0.938v-1.004c0-1.855-1.286-3.415-3.012-3.837v-2.255h1.071c1.624 0 2.946-1.322 2.946-2.946s-1.321-2.946-2.946-2.946h-8.033c-0.518 0-0.938 0.42-0.938 0.938v7.096h-2.142v-14.192h2.142v3.079c0 0.518 0.42 0.938 0.938 0.938h6.025c0.518 0 0.938-0.42 0.938-0.938v-1.071h6.092c0.518 0 0.938-0.42 0.938-0.938s-0.42-0.938-0.937-0.938zM19.95 19.95h1.071c0.59 0 1.071 0.48 1.071 1.071s-0.48 1.071-1.071 1.071h-1.071zM13.925 19.95h4.15v6.158h-4.15zM18.075 14.058h-4.15v-2.142h4.15zM18.075 10.042h-9.104c-0.518 0-0.938 0.42-0.938 0.938v16.067c0 0.518 0.42 0.938 0.938 0.938h10.042c1.144 0 2.075 0.931 2.075 2.075v0.067h-19.212v-26.242h13.121c1.687 0 3.079 1.361 3.079 3.079z"></path>
<path d="M5.892 6.963c0 0.518-0.42 0.938-0.938 0.938s-0.938-0.42-0.938-0.938c0-0.518 0.42-0.938 0.938-0.938s0.938 0.42 0.938 0.938z"></path>
<path d="M9.908 6.963c0 0.518-0.42 0.938-0.938 0.938s-0.938-0.42-0.938-0.938c0-0.518 0.42-0.938 0.938-0.938s0.938 0.42 0.938 0.938z"></path>
</svg>
