<!-- Generated by IcoMoon.io -->
<svg version="1.1" xmlns="http://www.w3.org/2000/svg" width="32" height="32" viewBox="0 0 32 32">
<title>light</title>
<path d="M24.033 3.515c-0.518 0-0.938 0.42-0.938 0.938s0.42 0.938 0.938 0.938c1.421 0 2.577 1.156 2.577 2.577 0 0.518 0.42 0.938 0.938 0.938s0.938-0.42 0.938-0.938c0-2.455-1.997-4.452-4.452-4.452z"></path>
<path d="M24.033 0c-0.518 0-0.938 0.42-0.938 0.938s0.42 0.938 0.938 0.938c3.359 0 6.092 2.733 6.092 6.092 0 0.518 0.42 0.937 0.938 0.937s0.938-0.42 0.938-0.938c0-4.393-3.574-7.967-7.967-7.967z"></path>
<path d="M24.971 7.967c0 0.518-0.42 0.937-0.938 0.937s-0.938-0.42-0.938-0.938c0-0.518 0.42-0.938 0.938-0.938s0.938 0.42 0.938 0.938z"></path>
<path d="M10.979 7.029c-3.839 0-6.963 3.123-6.963 6.963 0 0.518 0.42 0.938 0.938 0.938s0.938-0.42 0.938-0.938c0-2.805 2.282-5.088 5.088-5.088 0.518 0 0.938-0.42 0.938-0.938s-0.42-0.938-0.938-0.938z"></path>
<path d="M10.979 3.013c-6.054 0-10.979 4.925-10.979 10.979 0 3.234 1.413 6.268 3.877 8.328 1.365 1.191 2.148 2.913 2.148 4.725v2.009c0 1.624 1.322 2.946 2.946 2.946h4.017c1.624 0 2.946-1.322 2.946-2.946v-2.009c0-1.812 0.783-3.534 2.148-4.725 2.464-2.060 3.877-5.095 3.877-8.328 0-6.054-4.925-10.979-10.979-10.979zM14.058 29.054c0 0.59-0.48 1.071-1.071 1.071h-4.017c-0.59 0-1.071-0.48-1.071-1.071v-1.071h6.158zM16.872 20.887c-0.005 0.004-0.010 0.008-0.015 0.013-1.541 1.341-2.513 3.202-2.745 5.209h-6.266c-0.232-2.007-1.204-3.868-2.745-5.209-0.005-0.004-0.010-0.008-0.015-0.013-2.041-1.703-3.211-4.216-3.211-6.895 0-5.020 4.084-9.104 9.104-9.104s9.104 4.084 9.104 9.104c-0 2.679-1.171 5.192-3.211 6.895z"></path>
</svg>
