<!-- Generated by IcoMoon.io -->
<svg version="1.1" xmlns="http://www.w3.org/2000/svg" width="32" height="32" viewBox="0 0 32 32">
<title>projector</title>
<path d="M24.033 5.39c1.421 0 2.577 1.156 2.577 2.577 0 0.518 0.42 0.938 0.938 0.938s0.938-0.42 0.938-0.938c0-2.455-1.997-4.452-4.452-4.452-0.518 0-0.938 0.42-0.938 0.938s0.42 0.938 0.938 0.938z"></path>
<path d="M24.033 1.875c3.359 0 6.092 2.733 6.092 6.092 0 0.518 0.42 0.937 0.938 0.937s0.938-0.42 0.938-0.938c0-4.393-3.574-7.967-7.967-7.967-0.518 0-0.938 0.42-0.938 0.938s0.42 0.938 0.938 0.938z"></path>
<path d="M24.971 7.967c0 0.518-0.42 0.937-0.938 0.937s-0.938-0.42-0.938-0.938c0-0.518 0.42-0.938 0.938-0.938s0.938 0.42 0.938 0.938z"></path>
<path d="M31.063 12.050h-30.125c-0.518 0-0.938 0.42-0.938 0.938v14.058c0 0.518 0.42 0.938 0.938 0.938h1.071v3.079c0 0.518 0.42 0.937 0.938 0.937h8.033c0.518 0 0.938-0.42 0.938-0.938v-3.079h8.167v3.079c0 0.518 0.42 0.938 0.938 0.938h8.033c0.518 0 0.938-0.42 0.938-0.938v-3.079h1.071c0.518 0 0.938-0.42 0.938-0.938v-14.058c0-0.518-0.42-0.938-0.938-0.938zM10.042 30.125h-6.158v-2.142h6.158v2.142zM28.117 30.125h-6.158v-2.142h6.158zM30.125 26.108h-28.25v-12.183h28.25z"></path>
<path d="M5.892 22.025c0 0.518-0.42 0.938-0.938 0.938s-0.938-0.42-0.938-0.938c0-0.518 0.42-0.938 0.938-0.938s0.938 0.42 0.938 0.938z"></path>
<path d="M9.908 22.025c0 0.518-0.42 0.938-0.938 0.938s-0.938-0.42-0.938-0.938c0-0.518 0.42-0.938 0.938-0.938s0.938 0.42 0.938 0.938z"></path>
<path d="M13.925 22.025c0 0.518-0.42 0.938-0.938 0.938s-0.938-0.42-0.938-0.938c0-0.518 0.42-0.938 0.938-0.938s0.938 0.42 0.938 0.938z"></path>
<path d="M24.033 23.967c2.178 0 3.95-1.772 3.95-3.95s-1.772-3.95-3.95-3.95-3.95 1.772-3.95 3.95 1.772 3.95 3.95 3.95zM24.033 17.942c1.144 0 2.075 0.931 2.075 2.075s-0.931 2.075-2.075 2.075-2.075-0.931-2.075-2.075 0.931-2.075 2.075-2.075z"></path>
<path d="M4.954 18.946h8.033c0.518 0 0.938-0.42 0.938-0.938s-0.42-0.938-0.938-0.938h-8.033c-0.518 0-0.938 0.42-0.938 0.938s0.42 0.938 0.938 0.938z"></path>
</svg>
