<!-- Generated by IcoMoon.io -->
<svg version="1.1" xmlns="http://www.w3.org/2000/svg" width="32" height="32" viewBox="0 0 32 32">
<title>remote-control</title>
<path d="M24.033 3.515c-0.518 0-0.938 0.42-0.938 0.938s0.42 0.938 0.938 0.938c1.421 0 2.577 1.156 2.577 2.577 0 0.518 0.42 0.938 0.938 0.938s0.938-0.42 0.938-0.938c0-2.455-1.997-4.452-4.452-4.452z"></path>
<path d="M24.033 0c-0.518 0-0.938 0.42-0.938 0.938s0.42 0.938 0.938 0.938c3.359 0 6.092 2.733 6.092 6.092 0 0.518 0.42 0.937 0.938 0.937s0.938-0.42 0.938-0.938c0-4.393-3.574-7.967-7.967-7.967z"></path>
<path d="M24.971 7.967c0 0.518-0.42 0.937-0.938 0.937s-0.938-0.42-0.938-0.938c0-0.518 0.42-0.938 0.938-0.938s0.938 0.42 0.938 0.938z"></path>
<path d="M14.996 0h-10.042c-2.741 0-4.954 2.218-4.954 4.954v22.092c0 2.741 2.218 4.954 4.954 4.954h10.042c2.741 0 4.954-2.218 4.954-4.954v-22.092c-0-2.741-2.218-4.954-4.954-4.954zM18.075 27.046c0 1.703-1.378 3.079-3.079 3.079h-10.042c-1.703 0-3.079-1.378-3.079-3.079v-22.092c0-1.703 1.378-3.079 3.079-3.079h10.042c1.703 0 3.079 1.378 3.079 3.079v22.092z"></path>
<path d="M10.912 22.025c0 0.518-0.42 0.938-0.938 0.938s-0.938-0.42-0.938-0.938c0-0.518 0.42-0.938 0.938-0.938s0.938 0.42 0.938 0.938z"></path>
<path d="M10.912 12.988c0 0.518-0.42 0.938-0.938 0.938s-0.938-0.42-0.938-0.938c0-0.518 0.42-0.938 0.938-0.938s0.938 0.42 0.938 0.938z"></path>
<path d="M10.912 8.971c0 0.518-0.42 0.938-0.938 0.938s-0.938-0.42-0.938-0.938c0-0.518 0.42-0.938 0.938-0.938s0.938 0.42 0.938 0.938z"></path>
<path d="M5.892 12.988c0 0.518-0.42 0.938-0.938 0.938s-0.938-0.42-0.938-0.938c0-0.518 0.42-0.938 0.938-0.938s0.938 0.42 0.938 0.938z"></path>
<path d="M5.892 8.971c0 0.518-0.42 0.938-0.938 0.938s-0.938-0.42-0.938-0.938c0-0.518 0.42-0.938 0.938-0.938s0.938 0.42 0.938 0.938z"></path>
<path d="M15.933 4.954c0 0.518-0.42 0.938-0.938 0.938s-0.938-0.42-0.938-0.938c0-0.518 0.42-0.938 0.938-0.938s0.938 0.42 0.938 0.938z"></path>
<path d="M15.933 12.988c0 0.518-0.42 0.938-0.938 0.938s-0.938-0.42-0.938-0.938c0-0.518 0.42-0.938 0.938-0.938s0.938 0.42 0.938 0.938z"></path>
<path d="M15.933 8.971c0 0.518-0.42 0.938-0.938 0.938s-0.938-0.42-0.938-0.938c0-0.518 0.42-0.938 0.938-0.938s0.938 0.42 0.938 0.938z"></path>
<path d="M6.963 4.017h-2.008c-0.518 0-0.938 0.42-0.938 0.938s0.42 0.938 0.938 0.938h2.008c0.518 0 0.938-0.42 0.938-0.938s-0.42-0.938-0.938-0.938z"></path>
<path d="M10.316 25.379l-0.341 0.341-0.341-0.341c-0.366-0.366-0.96-0.366-1.326 0s-0.366 0.96 0 1.326l1.004 1.004c0.183 0.183 0.423 0.275 0.663 0.275s0.48-0.092 0.663-0.275l1.004-1.004c0.366-0.366 0.366-0.96 0-1.326s-0.96-0.366-1.326 0z"></path>
<path d="M10.638 16.341c-0.183-0.183-0.423-0.275-0.663-0.275s-0.48 0.092-0.663 0.275l-1.004 1.004c-0.366 0.366-0.366 0.96 0 1.326s0.96 0.366 1.326 0l0.341-0.341 0.341 0.341c0.366 0.366 0.96 0.366 1.326 0s0.366-0.96 0-1.326z"></path>
<path d="M6.621 20.358c-0.366-0.366-0.96-0.366-1.326 0l-1.004 1.004c-0.183 0.183-0.275 0.423-0.275 0.663s0.092 0.48 0.275 0.663l1.004 1.004c0.366 0.366 0.96 0.366 1.326 0s0.366-0.96 0-1.326l-0.341-0.341 0.341-0.341c0.366-0.366 0.366-0.96 0-1.326z"></path>
<path d="M14.655 20.358c-0.366-0.366-0.96-0.366-1.326 0s-0.366 0.96 0 1.326l0.341 0.341-0.341 0.341c-0.366 0.366-0.366 0.96 0 1.326s0.96 0.366 1.326 0l1.004-1.004c0.183-0.183 0.275-0.423 0.275-0.663s-0.092-0.48-0.275-0.663z"></path>
</svg>
