<!-- Generated by IcoMoon.io -->
<svg version="1.1" xmlns="http://www.w3.org/2000/svg" width="32" height="32" viewBox="0 0 32 32">
<title>security</title>
<path d="M24.033 3.515c-0.518 0-0.938 0.42-0.938 0.938s0.42 0.938 0.938 0.938c1.421 0 2.577 1.156 2.577 2.577 0 0.518 0.42 0.938 0.938 0.938s0.938-0.42 0.938-0.938c0-2.455-1.997-4.452-4.452-4.452z"></path>
<path d="M24.033 0c-0.518 0-0.938 0.42-0.938 0.938s0.42 0.938 0.938 0.938c3.359 0 6.092 2.733 6.092 6.092 0 0.518 0.42 0.937 0.938 0.937s0.938-0.42 0.938-0.938c0-4.393-3.574-7.967-7.967-7.967z"></path>
<path d="M24.971 7.967c0 0.518-0.42 0.937-0.938 0.937s-0.938-0.42-0.938-0.938c0-0.518 0.42-0.938 0.938-0.938s0.938 0.42 0.938 0.938z"></path>
<path d="M20.017 6.025h-2.293c-2.632 0-5.037-1.328-6.438-3.555-0.163-0.276-0.464-0.462-0.808-0.462-0.341 0-0.64 0.183-0.804 0.455-1.401 2.23-3.808 3.561-6.443 3.561h-2.293c-0.518 0-0.938 0.42-0.938 0.938v12.344c0 2.962 1.028 5.86 2.894 8.16s4.491 3.903 7.389 4.513c0.063 0.013 0.129 0.020 0.194 0.020s0.13-0.007 0.193-0.020c2.899-0.61 5.523-2.213 7.389-4.513s2.894-5.198 2.894-8.16v-12.344c-0-0.518-0.42-0.938-0.938-0.938zM1.875 19.306v-11.406h1.356c1.604 0 3.194-0.411 4.597-1.189 1.009-0.559 1.908-1.3 2.65-2.178 0.742 0.878 1.641 1.619 2.65 2.178 0.67 0.371 1.382 0.658 2.118 0.857l-13.263 13.263c-0.070-0.504-0.107-1.013-0.107-1.525zM19.079 19.306c0 2.533-0.879 5.012-2.475 6.979-1.555 1.916-3.724 3.267-6.127 3.817-2.285-0.524-4.359-1.772-5.894-3.541l14.496-14.496v7.24zM19.079 9.414l-15.613 15.613c-0.394-0.651-0.718-1.34-0.97-2.059l15.070-15.070c0.053 0.001 0.105 0.001 0.158 0.001h1.355v1.514z"></path>
</svg>
