<!-- Generated by IcoMoon.io -->
<svg version="1.1" xmlns="http://www.w3.org/2000/svg" width="32" height="32" viewBox="0 0 32 32">
<title>sprinkler</title>
<path d="M24.033 3.515c-0.518 0-0.938 0.42-0.938 0.938s0.42 0.938 0.938 0.938c1.421 0 2.577 1.156 2.577 2.577 0 0.518 0.42 0.938 0.938 0.938s0.938-0.42 0.938-0.938c0-2.455-1.997-4.452-4.452-4.452z"></path>
<path d="M24.033 0c-0.518 0-0.938 0.42-0.938 0.938s0.42 0.938 0.938 0.938c3.359 0 6.092 2.733 6.092 6.092 0 0.518 0.42 0.937 0.938 0.937s0.938-0.42 0.938-0.938c0-4.393-3.574-7.967-7.967-7.967z"></path>
<path d="M24.971 7.938c0 0.518-0.42 0.938-0.938 0.938s-0.938-0.42-0.938-0.938c0-0.518 0.42-0.938 0.938-0.938s0.938 0.42 0.938 0.938z"></path>
<path d="M17.004 24.1h-8.033c-0.379 0-0.721 0.228-0.866 0.579s-0.065 0.754 0.203 1.022l3.742 3.742v1.62c0 0.518 0.42 0.938 0.938 0.938s0.938-0.42 0.938-0.938v-1.62l3.742-3.742c0.268-0.268 0.348-0.671 0.203-1.022s-0.487-0.579-0.866-0.579zM12.988 27.728l-1.753-1.753h3.507z"></path>
<path d="M21.958 21.021c0 0.518-0.42 0.938-0.938 0.938s-0.938-0.42-0.938-0.938c0-0.518 0.42-0.938 0.938-0.938s0.938 0.42 0.938 0.938z"></path>
<path d="M5.892 21.021c0 0.518-0.42 0.938-0.938 0.938s-0.938-0.42-0.938-0.938c0-0.518 0.42-0.938 0.938-0.938s0.938 0.42 0.938 0.938z"></path>
<path d="M25.975 27.046c0 0.518-0.42 0.938-0.938 0.938s-0.938-0.42-0.938-0.938c0-0.518 0.42-0.938 0.938-0.938s0.938 0.42 0.938 0.938z"></path>
<path d="M1.875 27.046c0 0.518-0.42 0.938-0.938 0.938s-0.938-0.42-0.938-0.938c0-0.518 0.42-0.938 0.938-0.938s0.938 0.42 0.938 0.938z"></path>
<path d="M21.021 17.942c0.518 0 0.938-0.42 0.938-0.938 0-1.624-1.322-2.946-2.946-2.946-1.644 0-2.946 1.334-2.946 2.946v4.017c0 0.518 0.42 0.938 0.938 0.938s0.938-0.42 0.938-0.938v-4.017c0-0.583 0.472-1.071 1.071-1.071 0.59 0 1.071 0.48 1.071 1.071 0 0.518 0.42 0.938 0.938 0.938z"></path>
<path d="M8.971 21.958c0.518 0 0.938-0.42 0.938-0.938v-4.017c0-1.62-1.31-2.946-2.946-2.946-1.624 0-2.946 1.322-2.946 2.946 0 0.518 0.42 0.938 0.938 0.938s0.938-0.42 0.938-0.938c0-0.59 0.48-1.071 1.071-1.071 0.584 0 1.071 0.472 1.071 1.071v4.017c0 0.518 0.42 0.938 0.938 0.938z"></path>
<path d="M25.038 17.942c0.518 0 0.938-0.42 0.938-0.938 0-3.839-3.123-6.962-6.962-6.962-2.716 0-4.889 1.518-6.025 3.468-1.135-1.949-3.309-3.468-6.025-3.468-3.839 0-6.963 3.123-6.963 6.962 0 0.518 0.42 0.938 0.938 0.938s0.938-0.42 0.938-0.938c0-2.805 2.282-5.087 5.088-5.087 2.809 0 5.087 2.273 5.087 5.087v4.017c0 0.518 0.42 0.938 0.938 0.938s0.938-0.42 0.938-0.938v-4.017c0-2.809 2.273-5.087 5.088-5.087 2.805 0 5.087 2.282 5.087 5.087 0 0.518 0.42 0.938 0.938 0.938z"></path>
<path d="M0.938 20.083c-0.518 0-0.938 0.42-0.938 0.938v2.008c0 0.518 0.42 0.938 0.938 0.938s0.938-0.42 0.938-0.938v-2.008c0-0.518-0.42-0.938-0.938-0.938z"></path>
<path d="M25.038 23.967c0.518 0 0.938-0.42 0.938-0.938v-2.008c0-0.518-0.42-0.938-0.938-0.938s-0.938 0.42-0.938 0.938v2.008c0 0.518 0.42 0.938 0.938 0.938z"></path>
</svg>
