<!-- Generated by IcoMoon.io -->
<svg version="1.1" xmlns="http://www.w3.org/2000/svg" width="32" height="32" viewBox="0 0 32 32">
<title>socket-1</title>
<path d="M24.033 3.515c-0.518 0-0.938 0.42-0.938 0.938s0.42 0.938 0.938 0.938c1.421 0 2.577 1.156 2.577 2.577 0 0.518 0.42 0.938 0.938 0.938s0.938-0.42 0.938-0.938c0-2.455-1.997-4.452-4.452-4.452z"></path>
<path d="M24.033 0c-0.518 0-0.938 0.42-0.938 0.938s0.42 0.938 0.938 0.938c3.359 0 6.092 2.733 6.092 6.092 0 0.518 0.42 0.937 0.938 0.937s0.938-0.42 0.938-0.938c0-4.393-3.574-7.967-7.967-7.967z"></path>
<path d="M24.971 7.967c0 0.518-0.42 0.937-0.938 0.937s-0.938-0.42-0.938-0.938c0-0.518 0.42-0.938 0.938-0.938s0.938 0.42 0.938 0.938z"></path>
<path d="M17.004 9.037h-11.046c-3.237 0-5.958 2.616-5.958 5.958v11.046c0 3.345 2.723 5.958 5.958 5.958h11.046c3.237 0 5.958-2.616 5.958-5.958v-11.046c0-3.345-2.723-5.958-5.958-5.958zM21.087 26.042c0 2.293-1.867 4.083-4.083 4.083h-11.046c-2.213 0-4.083-1.787-4.083-4.083v-11.046c0-2.294 1.868-4.083 4.083-4.083h11.046c2.213 0 4.083 1.787 4.083 4.083z"></path>
<path d="M11.481 21.087c-1.593 0-2.946 1.285-2.946 2.946v3.012c0 0.518 0.42 0.938 0.938 0.938h4.017c0.518 0 0.938-0.42 0.938-0.938v-3.012c-0-1.661-1.353-2.946-2.946-2.946zM12.552 26.108h-2.142v-2.075c0-0.6 0.486-1.071 1.071-1.071s1.071 0.472 1.071 1.071v2.075z"></path>
<path d="M6.963 14.058c-0.518 0-0.938 0.42-0.938 0.938v4.017c0 0.518 0.42 0.938 0.938 0.938s0.938-0.42 0.938-0.938v-4.017c0-0.518-0.42-0.937-0.938-0.937z"></path>
<path d="M16 14.058c-0.518 0-0.938 0.42-0.938 0.938v4.017c0 0.518 0.42 0.938 0.938 0.938s0.938-0.42 0.938-0.938v-4.017c0-0.518-0.42-0.937-0.938-0.937z"></path>
</svg>
