<!-- Generated by IcoMoon.io -->
<svg version="1.1" xmlns="http://www.w3.org/2000/svg" width="32" height="32" viewBox="0 0 32 32">
<title>energy</title>
<path d="M24.033 3.515c-0.518 0-0.938 0.42-0.938 0.938s0.42 0.938 0.938 0.938c1.421 0 2.577 1.156 2.577 2.577 0 0.518 0.42 0.938 0.938 0.938s0.938-0.42 0.938-0.938c0-2.455-1.997-4.452-4.452-4.452z"></path>
<path d="M24.033 0c-0.518 0-0.938 0.42-0.938 0.938s0.42 0.938 0.938 0.938c3.359 0 6.092 2.733 6.092 6.092 0 0.518 0.42 0.937 0.938 0.937s0.938-0.42 0.938-0.938c0-4.393-3.574-7.967-7.967-7.967z"></path>
<path d="M24.971 7.967c0 0.518-0.42 0.937-0.938 0.937s-0.938-0.42-0.938-0.938c0-0.518 0.42-0.938 0.938-0.938s0.938 0.42 0.938 0.938z"></path>
<path d="M23.029 13.054h-6.941l1.842-11.974c0.062-0.406-0.146-0.805-0.515-0.985s-0.812-0.099-1.094 0.2l-16.067 17.071c-0.256 0.272-0.326 0.671-0.178 1.014s0.487 0.566 0.861 0.566h6.941l-1.842 11.974c-0.062 0.406 0.146 0.805 0.516 0.985s0.812 0.099 1.094-0.2l16.067-17.071c0.256-0.272 0.326-0.671 0.178-1.014s-0.487-0.566-0.861-0.566zM8.348 28.223l1.549-10.072c0.087-0.568-0.352-1.080-0.927-1.080h-5.863l12.511-13.293-1.549 10.072c-0.087 0.568 0.352 1.080 0.927 1.080h5.864z"></path>
</svg>
