<!-- Generated by IcoMoon.io -->
<svg version="1.1" xmlns="http://www.w3.org/2000/svg" width="32" height="32" viewBox="0 0 32 32">
<title>air-purifier-1</title>
<path d="M24.033 3.515c-0.518 0-0.938 0.42-0.938 0.938s0.42 0.938 0.938 0.938c1.421 0 2.577 1.156 2.577 2.577 0 0.518 0.42 0.938 0.938 0.938s0.938-0.42 0.938-0.938c0-2.455-1.997-4.452-4.452-4.452z"></path>
<path d="M24.033 0c-0.518 0-0.938 0.42-0.938 0.938s0.42 0.938 0.938 0.938c3.359 0 6.092 2.733 6.092 6.092 0 0.518 0.42 0.937 0.938 0.937s0.938-0.42 0.938-0.938c0-4.393-3.574-7.967-7.967-7.967z"></path>
<path d="M24.971 7.967c0 0.518-0.42 0.937-0.938 0.937s-0.938-0.42-0.938-0.938c0-0.518 0.42-0.938 0.938-0.938s0.938 0.42 0.938 0.938z"></path>
<path d="M21.684 14.333c-0.366-0.366-0.96-0.366-1.326 0s-0.366 0.96 0 1.326l0.408 0.408h-3.154c-0.227 0-0.451 0.010-0.675 0.030v-4.14c0.222-0.026 0.448-0.039 0.675-0.039h3.409c0.518 0 0.938-0.42 0.938-0.938s-0.42-0.938-0.938-0.938h-3.409c-0.227 0-0.451 0.010-0.675 0.030v-4.113c0-0.518-0.42-0.938-0.938-0.938h-9.037c-0.518 0-0.938 0.42-0.938 0.938v6.734c-1.945 2.657-4.995 2.37-5.088 2.37-0.518 0-0.938 0.42-0.938 0.938s0.42 0.938 0.938 0.938c0.845 0 3.074-0.024 5.088-1.573v3.352c-1.945 2.657-4.995 2.37-5.088 2.37-0.518 0-0.938 0.42-0.938 0.938s0.42 0.938 0.938 0.938c0.845 0 3.074-0.024 5.088-1.573v3.352c-1.945 2.657-4.995 2.37-5.088 2.37-0.518 0-0.938 0.42-0.938 0.938s0.42 0.938 0.938 0.938c0.845 0 3.074-0.024 5.088-1.573v3.648c0 0.518 0.42 0.938 0.938 0.938h9.037c0.518 0 0.938-0.42 0.938-0.938v-7.056c0.222-0.026 0.448-0.039 0.675-0.039h3.409c0.518 0 0.938-0.42 0.938-0.938s-0.42-0.938-0.938-0.938h-3.409c-0.227 0-0.451 0.010-0.675 0.030v-4.14c0.222-0.026 0.448-0.039 0.675-0.039h3.154l-0.408 0.408c-0.366 0.366-0.366 0.96 0 1.326s0.96 0.366 1.326 0l2.008-2.008c0.176-0.176 0.275-0.414 0.275-0.663s-0.099-0.487-0.275-0.663zM15.063 22.524c-1.556 0.545-2.916 1.583-3.859 2.997-0.287 0.431-0.171 1.013 0.26 1.3 0.526 0.351 1.085 0.063 1.3-0.26 0.585-0.877 1.382-1.563 2.299-2.009v5.572h-7.162v-23.229h7.162v3.579c-1.556 0.545-2.917 1.583-3.859 2.997-0.287 0.431-0.171 1.013 0.26 1.3 0.526 0.351 1.085 0.063 1.3-0.26 0.585-0.877 1.382-1.563 2.299-2.009v3.996c-1.556 0.545-2.917 1.583-3.859 2.997-0.287 0.431-0.171 1.013 0.26 1.3 0.526 0.351 1.085 0.063 1.3-0.26 0.585-0.877 1.382-1.563 2.299-2.009z"></path>
</svg>
