<!-- Generated by IcoMoon.io -->
<svg version="1.1" xmlns="http://www.w3.org/2000/svg" width="32" height="32" viewBox="0 0 32 32">
<title>humidifier</title>
<path d="M24.033 5.39c1.421 0 2.577 1.156 2.577 2.577 0 0.518 0.42 0.938 0.938 0.938s0.938-0.42 0.938-0.938c0-2.455-1.997-4.452-4.452-4.452-0.518 0-0.938 0.42-0.938 0.938s0.42 0.938 0.938 0.938z"></path>
<path d="M24.033 1.875c3.359 0 6.092 2.733 6.092 6.092 0 0.518 0.42 0.937 0.938 0.937s0.938-0.42 0.938-0.938c0-4.393-3.574-7.967-7.967-7.967-0.518 0-0.938 0.42-0.938 0.938s0.42 0.938 0.938 0.938z"></path>
<path d="M24.971 7.967c0 0.518-0.42 0.937-0.938 0.937s-0.938-0.42-0.938-0.938c0-0.518 0.42-0.938 0.938-0.938s0.938 0.42 0.938 0.938z"></path>
<path d="M16 5.021h-12.050c-2.185 0-3.95 1.768-3.95 3.95v22.092c0 0.518 0.42 0.938 0.938 0.938h18.075c0.518 0 0.938-0.42 0.938-0.938v-22.092c0-2.185-1.768-3.95-3.95-3.95zM18.075 30.125h-16.2v-21.154c0-1.147 0.928-2.075 2.075-2.075h12.050c1.147 0 2.075 0.928 2.075 2.075z"></path>
<path d="M27.046 17.071c-0.321 0-0.619 0.164-0.791 0.435-0.426 0.671-4.163 6.64-4.163 9.54 0 2.732 2.222 4.954 4.954 4.954s4.954-2.222 4.954-4.954c0-2.9-3.737-8.869-4.163-9.54-0.172-0.271-0.471-0.435-0.791-0.435zM27.046 30.125c-1.698 0-3.079-1.381-3.079-3.079 0-1.609 1.811-5.061 3.079-7.23 1.268 2.169 3.079 5.621 3.079 7.23 0 1.698-1.381 3.079-3.079 3.079z"></path>
<path d="M7.967 10.912h4.017c0.518 0 0.938-0.42 0.938-0.938s-0.42-0.938-0.938-0.938h-4.017c-0.518 0-0.938 0.42-0.938 0.938s0.42 0.938 0.938 0.938z"></path>
<path d="M14.996 21.087h-10.042c-0.518 0-0.938 0.42-0.938 0.938s0.42 0.938 0.938 0.938h10.042c0.518 0 0.938-0.42 0.938-0.938s-0.42-0.938-0.938-0.938z"></path>
<path d="M14.996 25.104h-10.042c-0.518 0-0.938 0.42-0.938 0.938s0.42 0.938 0.938 0.938h10.042c0.518 0 0.938-0.42 0.938-0.938s-0.42-0.938-0.938-0.938z"></path>
</svg>
