<!-- Generated by IcoMoon.io -->
<svg version="1.1" xmlns="http://www.w3.org/2000/svg" width="32" height="32" viewBox="0 0 32 32">
<title>smart-house</title>
<path d="M28.713 12.325l-12.050-12.050c-0.366-0.366-0.96-0.366-1.326 0l-12.050 12.050c-0.176 0.176-0.275 0.414-0.275 0.663v18.075c0 0.518 0.42 0.938 0.938 0.938h24.1c0.518 0 0.938-0.42 0.938-0.938v-18.075c0-0.249-0.099-0.487-0.275-0.663zM16 12.050c-0.59 0-1.071-0.48-1.071-1.071s0.48-1.071 1.071-1.071 1.071 0.48 1.071 1.071-0.48 1.071-1.071 1.071zM27.113 30.125h-8.849l4.425-4.425c0.176-0.176 0.275-0.414 0.275-0.663v-5.241c1.166-0.393 2.008-1.495 2.008-2.792 0-1.624-1.322-2.946-2.946-2.946s-2.946 1.322-2.946 2.946c0 1.297 0.842 2.399 2.008 2.792v4.853l-4.15 4.15v-15.028c1.166-0.393 2.008-1.495 2.008-2.792 0-1.624-1.322-2.946-2.946-2.946s-2.946 1.322-2.946 2.946c0 1.297 0.842 2.399 2.008 2.792v12.016l-4.15-4.15v-1.841c1.166-0.393 2.008-1.495 2.008-2.792 0-1.624-1.322-2.946-2.946-2.946s-2.946 1.322-2.946 2.946c0 1.297 0.842 2.399 2.008 2.792v2.229c0 0.249 0.099 0.487 0.275 0.663l5.75 5.75v1.687h-10.175v-16.749l11.113-11.113 11.112 11.113zM20.954 17.004c0-0.59 0.48-1.071 1.071-1.071s1.071 0.48 1.071 1.071-0.48 1.071-1.071 1.071-1.071-0.48-1.071-1.071zM9.975 18.075c-0.59 0-1.071-0.48-1.071-1.071s0.48-1.071 1.071-1.071 1.071 0.48 1.071 1.071-0.48 1.071-1.071 1.071z"></path>
</svg>
