<!-- Generated by IcoMoon.io -->
<svg version="1.1" xmlns="http://www.w3.org/2000/svg" width="32" height="32" viewBox="0 0 32 32">
<title>smarthome-2</title>
<path d="M28.713 12.325l-12.050-12.050c-0.366-0.366-0.96-0.366-1.326 0l-12.050 12.050c-0.176 0.176-0.275 0.414-0.275 0.663v18.075c0 0.518 0.42 0.938 0.938 0.938h24.1c0.518 0 0.938-0.42 0.938-0.938v-18.075c0-0.249-0.099-0.487-0.275-0.663zM27.113 30.125h-22.225v-16.749l11.113-11.113 11.113 11.113z"></path>
<path d="M13.054 10.979v1.724c-0.365 0.171-0.714 0.372-1.044 0.604l-1.493-0.863c-0.448-0.259-1.022-0.105-1.281 0.343l-2.009 3.478c-0.259 0.448-0.105 1.022 0.343 1.281l1.494 0.864c-0.036 0.402-0.036 0.805-0.001 1.207l-1.493 0.862c-0.448 0.259-0.602 0.832-0.343 1.281l2.009 3.478c0.259 0.448 0.832 0.602 1.281 0.343l1.493-0.862c0.33 0.231 0.679 0.432 1.045 0.602v1.725c0 0.518 0.42 0.938 0.938 0.938h4.017c0.518 0 0.938-0.42 0.938-0.938v-1.724c0.365-0.171 0.714-0.372 1.044-0.604l1.493 0.863c0.448 0.259 1.022 0.105 1.281-0.343l2.009-3.478c0.259-0.448 0.105-1.022-0.343-1.281l-1.494-0.864c0.035-0.402 0.036-0.805 0.001-1.207l1.493-0.862c0.448-0.259 0.602-0.832 0.343-1.281l-2.009-3.478c-0.259-0.448-0.832-0.602-1.281-0.343l-1.493 0.862c-0.33-0.231-0.679-0.432-1.045-0.602v-1.725c0-0.518-0.42-0.938-0.938-0.938h-4.017c-0.518 0-0.938 0.42-0.938 0.938zM14.929 13.331v-1.414h2.142v1.414c0 0.397 0.25 0.751 0.625 0.884 0.59 0.209 1.131 0.522 1.609 0.931 0.302 0.258 0.734 0.298 1.078 0.1l1.227-0.708 1.071 1.855-1.225 0.707c-0.344 0.198-0.525 0.591-0.453 0.982 0.056 0.306 0.085 0.619 0.085 0.932s-0.029 0.626-0.085 0.932c-0.072 0.39 0.11 0.783 0.453 0.982l1.225 0.707-1.071 1.855-1.227-0.708c-0.344-0.199-0.776-0.159-1.078 0.1-0.478 0.409-1.020 0.723-1.609 0.931-0.374 0.133-0.625 0.487-0.625 0.884v1.414h-2.142v-1.414c0-0.397-0.25-0.751-0.625-0.884-0.59-0.209-1.131-0.522-1.609-0.931-0.302-0.258-0.734-0.298-1.078-0.1l-1.227 0.708-1.071-1.855 1.225-0.707c0.344-0.198 0.525-0.591 0.453-0.982-0.056-0.306-0.085-0.619-0.085-0.932s0.029-0.626 0.085-0.932c0.072-0.39-0.11-0.783-0.453-0.982l-1.225-0.707 1.071-1.855 1.227 0.708c0.344 0.199 0.776 0.159 1.078-0.1 0.478-0.409 1.020-0.723 1.609-0.931 0.374-0.133 0.625-0.487 0.625-0.884z"></path>
<path d="M16 21.958c1.624 0 2.946-1.322 2.946-2.946s-1.322-2.946-2.946-2.946-2.946 1.322-2.946 2.946 1.321 2.946 2.946 2.946zM16 17.942c0.59 0 1.071 0.48 1.071 1.071s-0.48 1.071-1.071 1.071-1.071-0.48-1.071-1.071 0.48-1.071 1.071-1.071z"></path>
</svg>
