<!-- Generated by IcoMoon.io -->
<svg version="1.1" xmlns="http://www.w3.org/2000/svg" width="32" height="32" viewBox="0 0 32 32">
<title>smart-tv-1</title>
<path d="M24.033 3.515c-0.518 0-0.938 0.42-0.938 0.938s0.42 0.938 0.938 0.938c1.421 0 2.577 1.156 2.577 2.577 0 0.518 0.42 0.938 0.938 0.938s0.938-0.42 0.938-0.938c0-2.455-1.997-4.452-4.452-4.452z"></path>
<path d="M24.033 0c-0.518 0-0.938 0.42-0.938 0.938s0.42 0.938 0.938 0.938c3.359 0 6.092 2.733 6.092 6.092 0 0.518 0.42 0.937 0.938 0.937s0.938-0.42 0.938-0.938c0-4.393-3.574-7.967-7.967-7.967z"></path>
<path d="M24.971 7.967c0 0.518-0.42 0.937-0.938 0.937s-0.938-0.42-0.938-0.938c0-0.518 0.42-0.938 0.938-0.938s0.938 0.42 0.938 0.938z"></path>
<path d="M27.046 11.046h-26.108c-0.518 0-0.938 0.42-0.938 0.938v15.063c0 0.518 0.42 0.938 0.938 0.938h9.104v2.142h-5.088c-0.518 0-0.938 0.42-0.938 0.938s0.42 0.938 0.938 0.938h18.075c0.518 0 0.938-0.42 0.938-0.938s-0.42-0.938-0.938-0.938h-5.087v-2.142h9.104c0.518 0 0.938-0.42 0.938-0.938v-15.063c-0-0.518-0.42-0.938-0.938-0.938zM16.067 30.125h-4.15v-2.142h4.15zM26.108 26.108h-24.233v-13.188h24.233z"></path>
</svg>
