<!-- Generated by IcoMoon.io -->
<svg version="1.1" xmlns="http://www.w3.org/2000/svg" width="32" height="32" viewBox="0 0 32 32">
<title>sensor</title>
<path d="M27.317 4.686c-0.366-0.366-0.96-0.366-1.326 0s-0.366 0.96 0 1.326c2.666 2.666 4.134 6.213 4.134 9.988s-1.468 7.322-4.134 9.988c-0.366 0.366-0.366 0.96 0 1.326s0.96 0.366 1.326 0c3.020-3.020 4.683-7.038 4.683-11.314s-1.663-8.294-4.683-11.314z"></path>
<path d="M24.478 7.525c-0.366-0.366-0.96-0.366-1.326 0s-0.366 0.96 0 1.326c1.908 1.908 2.959 4.447 2.959 7.149s-1.051 5.241-2.959 7.149c-0.366 0.366-0.366 0.96 0 1.326s0.96 0.366 1.326 0c2.262-2.262 3.509-5.272 3.509-8.475s-1.246-6.213-3.509-8.475z"></path>
<path d="M21.637 10.366c-0.366-0.366-0.96-0.366-1.326 0s-0.366 0.96 0 1.326c1.15 1.15 1.783 2.68 1.783 4.308s-0.633 3.158-1.783 4.308c-0.366 0.366-0.366 0.96 0 1.326s0.96 0.366 1.326 0c1.504-1.504 2.332-3.505 2.332-5.634s-0.828-4.13-2.332-5.634z"></path>
<path d="M1.875 16c0-3.775 1.468-7.322 4.134-9.988 0.366-0.366 0.366-0.96 0-1.326s-0.96-0.366-1.326 0c-3.020 3.020-4.683 7.038-4.683 11.314s1.663 8.294 4.683 11.314c0.366 0.366 0.96 0.366 1.326 0s0.366-0.96 0-1.326c-2.666-2.666-4.134-6.213-4.134-9.988z"></path>
<path d="M5.889 16c0-2.702 1.051-5.241 2.959-7.149 0.366-0.366 0.366-0.96 0-1.326s-0.96-0.366-1.326 0c-2.263 2.262-3.508 5.272-3.508 8.475s1.246 6.213 3.508 8.475c0.367 0.367 0.96 0.366 1.326 0s0.366-0.96 0-1.326c-1.908-1.908-2.959-4.447-2.959-7.149z"></path>
<path d="M11.689 10.366c-0.366-0.366-0.96-0.366-1.326 0-1.504 1.504-2.332 3.505-2.332 5.634s0.828 4.13 2.332 5.634c0.367 0.367 0.96 0.366 1.326 0s0.366-0.96 0-1.326c-1.15-1.15-1.783-2.68-1.783-4.308s0.633-3.159 1.783-4.308c0.366-0.366 0.366-0.96 0-1.326z"></path>
<path d="M16 12.050c-2.178 0-3.95 1.772-3.95 3.95s1.772 3.95 3.95 3.95 3.95-1.772 3.95-3.95-1.772-3.95-3.95-3.95zM16 18.075c-1.144 0-2.075-0.931-2.075-2.075s0.931-2.075 2.075-2.075 2.075 0.931 2.075 2.075-0.931 2.075-2.075 2.075z"></path>
</svg>
