<!-- Generated by IcoMoon.io -->
<svg version="1.1" xmlns="http://www.w3.org/2000/svg" width="32" height="32" viewBox="0 0 32 32">
<title>smart-house-1</title>
<path d="M28.713 12.325l-12.050-12.050c-0.366-0.366-0.96-0.366-1.326 0l-12.050 12.050c-0.176 0.176-0.275 0.414-0.275 0.663v18.075c0 0.518 0.42 0.938 0.938 0.938h24.1c0.518 0 0.938-0.42 0.938-0.938v-18.075c0-0.249-0.099-0.487-0.275-0.663zM27.113 30.125h-22.225v-16.749l11.113-11.112 11.113 11.113z"></path>
<path d="M16 19.078c-1.324 0-2.568 0.515-3.503 1.45-0.366 0.366-0.366 0.96 0 1.326s0.96 0.366 1.326 0c0.581-0.581 1.354-0.901 2.177-0.901s1.596 0.32 2.177 0.901c0.367 0.367 0.96 0.365 1.326 0s0.366-0.96 0-1.326c-0.935-0.935-2.179-1.45-3.503-1.45z"></path>
<path d="M9.656 17.689c-0.366 0.366-0.366 0.96 0 1.326s0.96 0.366 1.326 0c1.339-1.339 3.121-2.077 5.018-2.077s3.678 0.738 5.018 2.077c0.367 0.367 0.96 0.365 1.326 0s0.366-0.96 0-1.326c-1.693-1.693-3.946-2.626-6.343-2.626s-4.65 0.933-6.343 2.626z"></path>
<path d="M16.938 24.032c0 0.518-0.42 0.938-0.938 0.938s-0.938-0.42-0.938-0.938c0-0.518 0.42-0.938 0.938-0.938s0.938 0.42 0.938 0.938z"></path>
</svg>
