<!-- Generated by IcoMoon.io -->
<svg version="1.1" xmlns="http://www.w3.org/2000/svg" width="32" height="32" viewBox="0 0 32 32">
<title>smart-home-2</title>
<path d="M16.663 11.32c-0.366-0.366-0.96-0.366-1.326 0l-3.013 3.012c-0.176 0.176-0.275 0.414-0.275 0.663v4.017c0 0.518 0.42 0.938 0.938 0.938h6.025c0.518 0 0.938-0.42 0.938-0.938v-4.017c0-0.249-0.099-0.487-0.275-0.663zM18.075 18.075h-4.15v-2.691l2.075-2.075 2.075 2.075z"></path>
<path d="M25.228 22.285c-0.47 0-0.914 0.111-1.309 0.308l-1.578-1.576c-0.366-0.366-0.96-0.365-1.326 0.001s-0.365 0.96 0.001 1.326l1.576 1.573c-0.198 0.396-0.31 0.842-0.31 1.313 0 1.624 1.322 2.946 2.946 2.946s2.946-1.322 2.946-2.946-1.322-2.946-2.946-2.946zM25.228 26.302c-0.59 0-1.071-0.48-1.071-1.071s0.48-1.071 1.071-1.071 1.071 0.48 1.071 1.071-0.48 1.071-1.071 1.071z"></path>
<path d="M29.054 13.054c-1.297 0-2.399 0.842-2.792 2.008h-2.229c-0.518 0-0.938 0.42-0.938 0.938s0.42 0.938 0.938 0.938h2.229c0.393 1.166 1.495 2.008 2.792 2.008 1.624 0 2.946-1.322 2.946-2.946s-1.322-2.946-2.946-2.946zM29.054 17.071c-0.59 0-1.071-0.48-1.071-1.071s0.48-1.071 1.071-1.071 1.071 0.48 1.071 1.071-0.48 1.071-1.071 1.071z"></path>
<path d="M5.738 16.938h2.229c0.518 0 0.938-0.42 0.938-0.938s-0.42-0.938-0.938-0.938h-2.229c-0.393-1.166-1.495-2.008-2.792-2.008-1.624 0-2.946 1.322-2.946 2.946s1.321 2.946 2.946 2.946c1.297 0 2.399-0.842 2.792-2.008zM2.946 17.071c-0.59 0-1.071-0.48-1.071-1.071s0.48-1.071 1.071-1.071 1.071 0.48 1.071 1.071-0.48 1.071-1.071 1.071z"></path>
<path d="M16.938 26.262v-2.229c0-0.518-0.42-0.938-0.938-0.938s-0.938 0.42-0.938 0.938v2.229c-1.166 0.393-2.008 1.495-2.008 2.792 0 1.624 1.322 2.946 2.946 2.946s2.946-1.322 2.946-2.946c0-1.297-0.842-2.399-2.008-2.792zM16 30.125c-0.59 0-1.071-0.48-1.071-1.071s0.48-1.071 1.071-1.071 1.071 0.48 1.071 1.071-0.48 1.071-1.071 1.071z"></path>
<path d="M15.063 5.738v2.229c0 0.518 0.42 0.938 0.938 0.938s0.938-0.42 0.938-0.938v-2.229c1.166-0.393 2.008-1.495 2.008-2.792 0-1.624-1.322-2.946-2.946-2.946s-2.946 1.321-2.946 2.946c0 1.297 0.842 2.399 2.008 2.792zM16 1.875c0.59 0 1.071 0.48 1.071 1.071s-0.48 1.071-1.071 1.071-1.071-0.48-1.071-1.071 0.48-1.071 1.071-1.071z"></path>
<path d="M9.407 8.083c0.198-0.396 0.31-0.842 0.31-1.313 0-1.624-1.322-2.946-2.946-2.946s-2.946 1.321-2.946 2.946 1.321 2.946 2.946 2.946c0.47 0 0.914-0.111 1.309-0.308l1.579 1.576c0.367 0.366 0.96 0.365 1.326-0.001s0.365-0.96-0.001-1.326zM6.772 7.84c-0.59 0-1.071-0.48-1.071-1.071s0.48-1.071 1.071-1.071 1.071 0.48 1.071 1.071-0.48 1.071-1.071 1.071z"></path>
<path d="M9.659 21.017l-1.579 1.576c-0.395-0.197-0.839-0.308-1.309-0.308-1.624 0-2.946 1.322-2.946 2.946s1.321 2.946 2.946 2.946 2.946-1.322 2.946-2.946c0-0.472-0.112-0.918-0.31-1.313l1.576-1.573c0.366-0.366 0.367-0.959 0.001-1.326s-0.959-0.367-1.326-0.001zM6.772 26.302c-0.59 0-1.071-0.48-1.071-1.071s0.48-1.071 1.071-1.071 1.071 0.48 1.071 1.071-0.48 1.071-1.071 1.071z"></path>
<path d="M22.341 10.983l1.579-1.576c0.395 0.197 0.839 0.308 1.309 0.308 1.624 0 2.946-1.322 2.946-2.946s-1.322-2.946-2.946-2.946-2.946 1.321-2.946 2.946c0 0.472 0.112 0.918 0.31 1.313l-1.576 1.573c-0.366 0.366-0.367 0.959-0.001 1.326s0.959 0.367 1.326 0.001zM25.228 5.698c0.59 0 1.071 0.48 1.071 1.071s-0.48 1.071-1.071 1.071-1.071-0.48-1.071-1.071 0.48-1.071 1.071-1.071z"></path>
</svg>
