<!-- Generated by IcoMoon.io -->
<svg version="1.1" xmlns="http://www.w3.org/2000/svg" width="32" height="32" viewBox="0 0 32 32">
<title>socket-2</title>
<path d="M29.592 0.063h-10.038c-1.328 0-2.408 1.080-2.408 2.408v2.558c-2.541 0.267-4.529 2.423-4.529 5.034v13.676c0 1.757-1.43 3.187-3.187 3.187h-8.493c-0.518 0-0.938 0.42-0.938 0.938s0.42 0.938 0.938 0.938h8.493c2.791 0 5.062-2.271 5.062-5.062v-13.676c0-1.576 1.15-2.887 2.654-3.142v22.636c0 1.328 1.080 2.408 2.408 2.408h10.038c1.328 0 2.408-1.080 2.408-2.408v-27.087c0-1.328-1.080-2.408-2.408-2.408zM30.125 29.557c0 0.294-0.239 0.533-0.533 0.533h-10.038c-0.294 0-0.533-0.239-0.533-0.533v-27.087c0-0.294 0.239-0.533 0.533-0.533h10.038c0.294 0 0.533 0.239 0.533 0.533z"></path>
<path d="M24.612 21.911c-1.893 0-3.434 1.54-3.434 3.433s1.54 3.433 3.434 3.433c1.893 0 3.433-1.54 3.433-3.433s-1.54-3.433-3.433-3.433zM24.612 26.903c-0.859 0-1.559-0.699-1.559-1.558s0.699-1.558 1.559-1.558c0.859 0 1.558 0.699 1.558 1.558s-0.699 1.558-1.558 1.558z"></path>
<path d="M24.612 14.524c-1.893 0-3.434 1.54-3.434 3.433s1.54 3.434 3.434 3.434c1.893 0 3.433-1.54 3.433-3.434s-1.54-3.433-3.433-3.433zM24.612 19.516c-0.859 0-1.559-0.699-1.559-1.559s0.699-1.558 1.559-1.558c0.859 0 1.558 0.699 1.558 1.558s-0.699 1.559-1.558 1.559z"></path>
<path d="M24.612 7.136c-1.893 0-3.434 1.54-3.434 3.433s1.54 3.434 3.434 3.434c1.893 0 3.433-1.54 3.433-3.434s-1.54-3.433-3.433-3.433zM24.612 12.128c-0.859 0-1.559-0.699-1.559-1.559s0.699-1.558 1.559-1.558c0.859 0 1.558 0.699 1.558 1.558s-0.699 1.559-1.558 1.559z"></path>
<path d="M28.075 3.037h-0.971c-0.518 0-0.938 0.42-0.938 0.938s0.42 0.938 0.938 0.938h0.971c0.518 0 0.938-0.42 0.938-0.938s-0.42-0.938-0.938-0.938z"></path>
<path d="M4.303 21.583c0 0.518 0.42 0.938 0.938 0.938s0.938-0.42 0.938-0.938c0-1.387 1.129-2.516 2.516-2.516 0.518 0 0.938-0.42 0.938-0.938s-0.42-0.938-0.938-0.938c-2.421 0-4.391 1.97-4.391 4.391z"></path>
<path d="M2.868 22.177c0.518 0 0.938-0.42 0.938-0.938 0-2.506 2.039-4.545 4.545-4.545 0.518 0 0.938-0.42 0.938-0.938s-0.42-0.938-0.938-0.938c-3.54 0-6.42 2.88-6.42 6.42 0 0.518 0.42 0.938 0.938 0.938z"></path>
<path d="M9.376 21.24c0 0.566-0.459 1.025-1.025 1.025s-1.025-0.459-1.025-1.025c0-0.566 0.459-1.025 1.025-1.025s1.025 0.459 1.025 1.025z"></path>
</svg>
