<svg height="512pt" viewBox="0 -1 512 512" width="512pt" xmlns="http://www.w3.org/2000/svg"><path d="m473.472656 0h-160.605468c-21.242188 0-38.527344 17.285156-38.527344 38.527344v40.933594c-40.664063 4.277343-72.460938 38.761718-72.460938 80.542968v218.816406c0 28.117188-22.878906 50.996094-50.996094 50.996094h-135.882812c-8.285156 0-15 6.714844-15 15 0 8.28125 6.714844 15 15 15h135.882812c44.660157 0 80.996094-36.335937 80.996094-80.996094v-218.816406c0-25.210937 18.394532-46.195312 42.460938-50.269531v362.179687c0 21.246094 17.285156 38.527344 38.527344 38.527344h160.605468c21.242188 0 38.527344-17.28125 38.527344-38.527344v-433.386718c0-21.242188-17.285156-38.527344-38.527344-38.527344zm8.527344 471.914062c0 4.703126-3.824219 8.527344-8.527344 8.527344h-160.605468c-4.703126 0-8.527344-3.824218-8.527344-8.527344v-433.386718c0-4.703125 3.824218-8.527344 8.527344-8.527344h160.605468c4.703125 0 8.527344 3.828125 8.527344 8.527344zm0 0"/><path d="m393.785156 349.582031c-30.292968 0-54.9375 24.644531-54.9375 54.933594 0 30.292969 24.644532 54.933594 54.9375 54.933594 30.289063 0 54.933594-24.640625 54.933594-54.933594 0-30.289063-24.644531-54.933594-54.933594-54.933594zm0 79.867188c-13.75 0-24.9375-11.183594-24.9375-24.933594s11.1875-24.933594 24.9375-24.933594c13.746094 0 24.933594 11.183594 24.933594 24.933594s-11.1875 24.933594-24.933594 24.933594zm0 0"/><path d="m393.785156 231.382812c-30.292968 0-54.9375 24.644532-54.9375 54.933594 0 30.292969 24.644532 54.9375 54.9375 54.9375 30.289063 0 54.933594-24.644531 54.933594-54.9375 0-30.289062-24.644531-54.933594-54.933594-54.933594zm0 79.871094c-13.75 0-24.9375-11.1875-24.9375-24.9375s11.1875-24.933594 24.9375-24.933594c13.746094 0 24.933594 11.183594 24.933594 24.933594s-11.1875 24.9375-24.933594 24.9375zm0 0"/><path d="m393.785156 113.183594c-30.292968 0-54.9375 24.644531-54.9375 54.933594 0 30.292968 24.644532 54.9375 54.9375 54.9375 30.289063 0 54.933594-24.644532 54.933594-54.9375 0-30.289063-24.644531-54.933594-54.933594-54.933594zm0 79.871094c-13.75 0-24.9375-11.1875-24.9375-24.9375 0-13.746094 11.1875-24.933594 24.9375-24.933594 13.746094 0 24.933594 11.1875 24.933594 24.933594 0 13.75-11.1875 24.9375-24.933594 24.9375zm0 0"/><path d="m449.195312 47.597656h-15.53125c-8.28125 0-15 6.714844-15 15s6.71875 15 15 15h15.53125c8.28125 0 15-6.714844 15-15s-6.714843-15-15-15zm0 0"/><path d="m68.84375 344.332031c0 8.285157 6.714844 15 15 15 8.28125 0 15-6.714843 15-15 0-22.195312 18.058594-40.257812 40.253906-40.257812 8.285156 0 15-6.714844 15-15 0-8.28125-6.714844-15-15-15-38.738281 0-70.253906 31.519531-70.253906 70.257812zm0 0"/><path d="m45.886719 353.839844c8.28125 0 15-6.71875 15-15 0-40.097656 32.621093-72.722656 72.71875-72.722656 8.28125 0 15-6.714844 15-15 0-8.28125-6.71875-15-15-15-56.640625 0-102.71875 46.082031-102.71875 102.722656 0 8.28125 6.714843 15 15 15zm0 0"/><path d="m150.007812 338.839844c0 9.058594-7.34375 16.402344-16.402343 16.402344-9.0625 0-16.40625-7.34375-16.40625-16.402344 0-9.0625 7.34375-16.40625 16.40625-16.40625 9.058593 0 16.402343 7.34375 16.402343 16.40625zm0 0"/></svg>