<svg height="512pt" viewBox="-5 0 511 512" width="512pt" xmlns="http://www.w3.org/2000/svg"><path d="m500.515625 189.929688c0-54.15625-28.75-101.71875-71.785156-128.242188v-3.078125c0-32.316406-26.289063-58.609375-58.609375-58.609375h-311.011719c-32.316406 0-58.609375 26.292969-58.609375 58.609375v394.78125c0 32.316406 26.292969 58.609375 58.609375 58.609375h311.011719c32.320312 0 58.609375-26.292969 58.609375-58.609375v-135.222656c43.035156-26.523438 71.785156-74.085938 71.785156-128.238281zm-407.453125 109.851562c0-5.96875 4.859375-10.828125 10.832031-10.828125h55.988281v21.660156h-55.988281c-5.972656 0-10.832031-4.859375-10.832031-10.832031zm81.816406 40.820312c8.277344 0 14.992188-6.710937 14.992188-14.996093v-51.644531c0-8.28125-6.710938-14.996094-14.992188-14.996094h-44.949218c11.707031-29.242188 38.136718-51.054688 70.074218-56.222656 4.988282 58.921874 44.058594 108.273437 97.371094 128.226562-14.484375 31.230469-46.128906 52.945312-82.757812 52.945312-32.730469 0-61.484376-17.339843-77.566407-43.3125zm175.105469-30.128906c-66.46875 0-120.542969-54.074218-120.542969-120.542968s54.074219-120.542969 120.542969-120.542969 120.542969 54.074219 120.542969 120.542969c0 66.464843-54.074219 120.542968-120.542969 120.542968zm-290.875-280.484375h311.011719c11.507812 0 21.445312 6.828125 25.984375 16.644531-14.539063-4.691406-30.039063-7.238281-46.121094-7.238281-44.65625 0-84.824219 19.550781-112.414063 50.535157h-104.128906v-11.789063c0-8.28125-6.714844-14.992187-14.996094-14.992187s-14.996093 6.710937-14.996093 14.992187v11.789063h-8.195313v-11.789063c0-8.28125-6.714844-14.992187-14.996094-14.992187s-14.992187 6.710937-14.992187 14.992187v11.789063h-34.777344v-31.320313c0-15.78125 12.839844-28.621094 28.621094-28.621094zm339.632813 423.402344c0 15.78125-12.839844 28.621094-28.621094 28.621094h-311.011719c-15.78125 0-28.621094-12.839844-28.621094-28.621094v-333.46875h186.269531c-8.453124 16.015625-14.097656 33.726563-16.28125 52.484375-48.949218 5.714844-89.085937 40.71875-102.351562 86.972656-19.785156 2.8125-35.050781 19.855469-35.050781 40.402344 0 22.3125 17.996093 40.492188 40.234375 40.804688 18.59375 43.082031 61.484375 73.316406 111.308594 73.316406 50.5625 0 93.980468-31.136719 112.113281-75.238282 7.582031 1.179688 15.347656 1.796876 23.253906 1.796876 17.058594 0 33.460937-2.859376 48.757813-8.109376zm0 0"/><path d="m349.984375 170.214844c-19.957031 0-38.722656 7.773437-52.835937 21.886718-5.851563 5.851563-5.851563 15.347657 0 21.203126 5.855468 5.855468 15.351562 5.855468 21.207031 0 8.449219-8.449219 19.679687-13.101563 31.628906-13.101563 11.945313 0 23.179687 4.652344 31.625 13.101563 2.929687 2.929687 6.765625 4.390624 10.605469 4.390624 3.835937 0 7.671875-1.460937 10.601562-4.390624 5.855469-5.855469 5.855469-15.351563 0-21.203126-14.113281-14.113281-32.875-21.886718-52.832031-21.886718zm0 0"/><path d="m427.625 158.890625c-42.8125-42.8125-112.472656-42.8125-155.285156 0-5.855469 5.855469-5.855469 15.351563 0 21.207031 5.855468 5.855469 15.351562 5.851563 21.207031 0 31.117187-31.121094 81.753906-31.121094 112.875 0 2.925781 2.925782 6.765625 4.390625 10.601563 4.390625 3.835937 0 7.675781-1.464843 10.605468-4.390625 5.851563-5.855468 5.851563-15.351562-.003906-21.207031zm0 0"/><path d="m366.382812 231.59375c0 9.054688-7.34375 16.394531-16.398437 16.394531s-16.398437-7.339843-16.398437-16.394531 7.34375-16.398438 16.398437-16.398438 16.398437 7.34375 16.398437 16.398438zm0 0"/></svg>