<!-- Generated by IcoMoon.io -->
<svg version="1.1" xmlns="http://www.w3.org/2000/svg" width="32" height="32" viewBox="0 0 32 32">
<title>washing-machine-2</title>
<path d="M31.626 11.871c0-3.385-1.797-6.357-4.487-8.015v-0.192c0-2.020-1.643-3.663-3.663-3.663h-19.438c-2.020 0-3.663 1.643-3.663 3.663v24.674c0 2.020 1.643 3.663 3.663 3.663h19.438c2.020 0 3.663-1.643 3.663-3.663v-8.451c2.69-1.658 4.487-4.63 4.487-8.015zM6.16 18.736c0-0.373 0.304-0.677 0.677-0.677h3.499v1.354h-3.499c-0.373 0-0.677-0.304-0.677-0.677zM11.274 21.288c0.517 0 0.937-0.419 0.937-0.937v-3.228c0-0.518-0.419-0.937-0.937-0.937h-2.809c0.732-1.828 2.384-3.191 4.38-3.514 0.312 3.683 2.754 6.767 6.086 8.014-0.905 1.952-2.883 3.309-5.172 3.309-2.046 0-3.843-1.084-4.848-2.707zM22.218 19.405c-4.154 0-7.534-3.38-7.534-7.534s3.38-7.534 7.534-7.534 7.534 3.38 7.534 7.534c0 4.154-3.38 7.534-7.534 7.534zM4.038 1.874h19.438c0.719 0 1.34 0.427 1.624 1.040-0.909-0.293-1.877-0.452-2.883-0.452-2.791 0-5.302 1.222-7.026 3.158h-6.508v-0.737c0-0.518-0.42-0.937-0.937-0.937s-0.937 0.419-0.937 0.937v0.737h-0.512v-0.737c0-0.518-0.42-0.937-0.937-0.937s-0.937 0.419-0.937 0.937v0.737h-2.174v-1.958c0-0.986 0.803-1.789 1.789-1.789zM25.265 28.337c0 0.986-0.802 1.789-1.789 1.789h-19.438c-0.986 0-1.789-0.802-1.789-1.789v-20.842h11.642c-0.528 1.001-0.881 2.108-1.018 3.28-3.059 0.357-5.568 2.545-6.397 5.436-1.237 0.176-2.191 1.241-2.191 2.525 0 1.395 1.125 2.531 2.515 2.55 1.162 2.693 3.843 4.582 6.957 4.582 3.16 0 5.874-1.946 7.007-4.702 0.474 0.074 0.959 0.112 1.453 0.112 1.066 0 2.091-0.179 3.047-0.507z"></path>
<path d="M22.218 10.638c-1.247 0-2.42 0.486-3.302 1.368-0.366 0.366-0.366 0.959 0 1.325s0.959 0.366 1.325 0c0.528-0.528 1.23-0.819 1.977-0.819s1.449 0.291 1.977 0.819c0.183 0.183 0.423 0.274 0.663 0.274s0.48-0.091 0.663-0.274c0.366-0.366 0.366-0.959 0-1.325-0.882-0.882-2.055-1.368-3.302-1.368z"></path>
<path d="M27.070 9.931c-2.676-2.676-7.030-2.676-9.705 0-0.366 0.366-0.366 0.959 0 1.325s0.959 0.366 1.325 0c1.945-1.945 5.11-1.945 7.055 0 0.183 0.183 0.423 0.274 0.663 0.274s0.48-0.092 0.663-0.274c0.366-0.366 0.366-0.959-0-1.325z"></path>
<path d="M23.243 14.475c0 0.566-0.459 1.025-1.025 1.025s-1.025-0.459-1.025-1.025 0.459-1.025 1.025-1.025 1.025 0.459 1.025 1.025z"></path>
</svg>
