<!-- Generated by IcoMoon.io -->
<svg version="1.1" xmlns="http://www.w3.org/2000/svg" width="32" height="32" viewBox="0 0 32 32">
<title>cctv-6</title>
<path d="M31.063 17.819h-2.781v-1.857c0-0.518-0.42-0.938-0.938-0.938h-10.734v-5.249h10.734c0.518 0 0.938-0.42 0.938-0.938v-4.026c0-0.518-0.42-0.938-0.938-0.938h-26.407c-0.518 0-0.938 0.42-0.938 0.938v4.025c0 0.518 0.42 0.938 0.938 0.938h10.588v5.249h-3.729c-0.518 0-0.938 0.42-0.938 0.938v4.587c0 4.144 3.371 7.515 7.515 7.515h12.97c0.518 0 0.938-0.42 0.938-0.938v-1.857h2.781c0.518 0 0.938-0.42 0.938-0.938v-5.576c0-0.518-0.42-0.938-0.938-0.938zM30.125 23.395h-1.843v-3.701h1.843zM8.734 20.549v-3.65h2.792v2.255c0 1.402 1.14 2.542 2.542 2.542s2.542-1.14 2.542-2.542v-2.255h9.797v9.29h-12.032c-3.11 0-5.64-2.53-5.64-5.64zM1.875 5.75h24.532v2.15h-24.532zM14.735 9.776v9.379c0 0.368-0.299 0.667-0.667 0.667s-0.667-0.299-0.667-0.667v-9.379z"></path>
</svg>
