<svg height="512pt" viewBox="0 -62 512 512" width="512pt" xmlns="http://www.w3.org/2000/svg"><path d="m497 223.101562h-44.496094v-29.710937c0-8.285156-6.714844-15-15-15h-171.746094v-83.980469h171.746094c8.285156 0 15-6.71875 15-15v-64.410156c0-8.285156-6.714844-15-15-15h-422.503906c-8.285156 0-15 6.714844-15 15v64.40625c0 8.285156 6.714844 15 15 15h169.414062v83.980469h-59.671874c-8.285157 0-15 6.71875-15 15v73.398437c0 66.304688 53.941406 120.242188 120.242187 120.242188h207.519531c8.285156 0 15-6.714844 15-15v-29.710938h44.496094c8.285156 0 15-6.71875 15-15v-89.214844c0-8.285156-6.714844-15-15-15zm-15 89.214844h-29.496094v-59.214844h29.496094zm-342.257812-45.53125v-58.394531h44.671874v36.085937c0 22.425782 18.246094 40.671876 40.671876 40.671876 22.425781 0 40.671874-18.246094 40.671874-40.671876v-36.085937h156.746094v148.640625h-192.519531c-49.757813 0-90.242187-40.484375-90.242187-90.246094zm-109.742188-236.785156h392.503906v34.40625h-392.503906zm205.757812 64.410156v150.066406c0 5.882813-4.785156 10.671876-10.671874 10.671876-5.882813 0-10.671876-4.789063-10.671876-10.671876v-150.066406zm0 0"/></svg>