<svg height="512pt" viewBox="-150 0 512 512" width="512pt" xmlns="http://www.w3.org/2000/svg"><path d="m169.867188 319.933594v-304.933594c0-8.285156-6.714844-15-15-15h-96.761719c-8.285157 0-15 6.714844-15 15v304.933594c-27.140625 20.054687-43.105469 51.457031-43.105469 85.578125 0 58.71875 47.769531 106.488281 106.488281 106.488281 58.714844 0 106.484375-47.769531 106.484375-106.488281 0-34.121094-15.964844-65.523438-43.105468-85.578125zm-63.378907 162.066406c-42.175781 0-76.488281-34.3125-76.488281-76.488281 0-26.5625 13.476562-50.835938 36.050781-64.929688 4.386719-2.742187 7.054688-7.550781 7.054688-12.722656v-297.859375h66.765625v297.859375c0 5.171875 2.664062 9.980469 7.054687 12.722656 22.574219 14.09375 36.050781 38.367188 36.050781 64.929688-.003906 42.175781-34.316406 76.488281-76.488281 76.488281zm0 0"/><path d="m121.488281 362.433594v-300.597656c0-8.285157-6.71875-15-15-15-8.285156 0-15 6.714843-15 15v300.597656c-17.808593 6.21875-30.625 23.175781-30.625 43.078125 0 25.160156 20.464844 45.625 45.625 45.625 25.15625 0 45.621094-20.464844 45.621094-45.625 0-19.902344-12.8125-36.859375-30.621094-43.078125zm-15 58.703125c-8.617187 0-15.625-7.007813-15.625-15.625 0-8.613281 7.007813-15.625 15.625-15.625 8.613281 0 15.621094 7.011719 15.621094 15.625 0 8.617187-7.007813 15.625-15.621094 15.625zm0 0"/></svg>