<!-- Generated by IcoMoon.io -->
<svg version="1.1" xmlns="http://www.w3.org/2000/svg" width="32" height="32" viewBox="0 0 32 32">
<title>thermometer-1</title>
<path d="M19.992 19.996v-19.058c0-0.518-0.42-0.938-0.938-0.938h-6.048c-0.518 0-0.938 0.42-0.938 0.938v19.058c-1.696 1.253-2.694 3.216-2.694 5.349 0 3.67 2.986 6.656 6.656 6.656s6.655-2.986 6.655-6.656c0-2.133-0.998-4.095-2.694-5.349zM16.031 30.125c-2.636 0-4.781-2.145-4.781-4.781 0-1.66 0.842-3.177 2.253-4.058 0.274-0.171 0.441-0.472 0.441-0.795v-18.616h4.173v18.616c0 0.323 0.166 0.624 0.441 0.795 1.411 0.881 2.253 2.398 2.253 4.058-0 2.636-2.145 4.781-4.781 4.781z"></path>
<path d="M16.968 22.652v-18.787c0-0.518-0.42-0.938-0.938-0.938s-0.938 0.42-0.938 0.938v18.787c-1.113 0.389-1.914 1.448-1.914 2.692 0 1.573 1.279 2.852 2.852 2.852s2.851-1.279 2.851-2.852c0-1.244-0.801-2.304-1.914-2.692zM16.031 26.321c-0.539 0-0.977-0.438-0.977-0.977s0.438-0.977 0.977-0.977c0.538 0 0.976 0.438 0.976 0.977s-0.438 0.977-0.976 0.977z"></path>
</svg>
