<!-- Generated by IcoMoon.io -->
<svg version="1.1" xmlns="http://www.w3.org/2000/svg" width="32" height="32" viewBox="0 0 32 32">
<title>toilet-2</title>
<path d="M21.407 2.457c-1.116 0-2.188 0.196-3.182 0.554-0.020-0.634-0.262-1.247-0.69-1.724-0.513-0.572-1.248-0.9-2.017-0.9h-3.299c-0.17-0.234-0.446-0.387-0.758-0.387h-2.038c-0.312 0-0.587 0.153-0.758 0.387h-3.299c-0.769 0-1.504 0.328-2.017 0.9-0.507 0.565-0.754 1.319-0.679 2.074l0.575 10.779h-1.185c-0.518 0-0.938 0.42-0.938 0.938v1.843c0 3.11 2.22 5.711 5.159 6.302l-0.537 7.062c-0.033 0.441 0.12 0.88 0.421 1.205s0.727 0.511 1.17 0.511h6.21c0.442 0 0.869-0.186 1.169-0.511s0.454-0.764 0.421-1.205l-0.537-7.062c1.561-0.314 2.919-1.195 3.849-2.417 0.93 0.308 1.924 0.476 2.956 0.476 5.189 0 9.412-4.222 9.412-9.412s-4.222-9.412-9.412-9.412zM21.407 19.406c-4.156 0-7.537-3.381-7.537-7.537s3.381-7.537 7.537-7.537 7.537 3.381 7.537 7.537c0 4.156-3.381 7.537-7.537 7.537zM4.543 3.238c-0.001-0.017-0.002-0.034-0.004-0.052-0.026-0.239 0.048-0.469 0.208-0.647s0.381-0.277 0.621-0.277h10.15c0.24 0 0.461 0.098 0.621 0.277s0.234 0.408 0.208 0.647c-0.002 0.019-0.003 0.038-0.004 0.057l-0.034 0.718c-2.594 1.678-4.313 4.595-4.313 7.907 0 0.783 0.097 1.543 0.278 2.271h-7.148zM7.64 30.125l0.515-6.777h4.576l0.515 6.777zM13.333 21.473h-5.78c-2.511 0-4.553-2.042-4.553-4.553v-0.905h9.959c0.821 1.667 2.121 3.057 3.72 3.989-0.833 0.903-2.024 1.469-3.346 1.469z"></path>
<path d="M18.104 12.005c-0.366 0.366-0.366 0.96 0 1.326s0.96 0.366 1.326 0c1.090-1.090 2.865-1.090 3.955 0 0.183 0.183 0.423 0.275 0.663 0.275s0.48-0.092 0.663-0.275c0.366-0.366 0.366-0.96 0-1.326-1.821-1.821-4.785-1.822-6.606 0z"></path>
<path d="M16.552 9.928c-0.366 0.366-0.366 0.96 0 1.326s0.96 0.366 1.326 0c1.946-1.946 5.112-1.946 7.057 0 0.183 0.183 0.423 0.275 0.663 0.275s0.48-0.092 0.663-0.275c0.366-0.366 0.366-0.96 0-1.326-2.677-2.677-7.032-2.677-9.709 0z"></path>
<path d="M22.432 14.474c0 0.566-0.459 1.025-1.025 1.025s-1.025-0.459-1.025-1.025c0-0.566 0.459-1.025 1.025-1.025s1.025 0.459 1.025 1.025z"></path>
</svg>
