<svg height="512pt" viewBox="-18 0 512 512" width="512pt" xmlns="http://www.w3.org/2000/svg"><path d="m324.511719 39.316406c-17.859375 0-35 3.132813-50.910157 8.867188-.324218-10.140625-4.1875-19.949219-11.042968-27.589844-8.207032-9.15625-19.96875-14.40625-32.269532-14.40625h-52.777343c-2.726563-3.746094-7.132813-6.1875-12.121094-6.1875h-32.601563c-4.988281 0-9.390624 2.441406-12.121093 6.1875h-52.777344c-12.296875 0-24.0625 5.25-32.269531 14.40625-8.109375 9.039062-12.058594 21.109375-10.867188 33.183594l9.199219 172.464844h-18.953125c-8.285156 0-15 6.71875-15 15v29.484374c0 49.765626 35.527344 91.382813 82.550781 100.832032l-8.585937 112.992187c-.535156 7.058594 1.917968 14.085938 6.730468 19.277344s11.632813 8.171875 18.714844 8.171875h99.363282c7.078124 0 13.898437-2.980469 18.710937-8.171875 4.816406-5.191406 7.269531-12.21875 6.730469-19.277344l-8.585938-112.992187c24.976563-5.019532 46.703125-19.113282 61.589844-38.679688 14.878906 4.933594 30.777344 7.613282 47.292969 7.613282 83.03125 0 150.585937-67.554688 150.585937-150.589844 0-83.03125-67.550781-150.585938-150.585937-150.585938zm0 271.175782c-66.492188 0-120.585938-54.097657-120.585938-120.589844 0-66.488282 54.09375-120.585938 120.585938-120.585938 66.492187 0 120.585937 54.097656 120.585937 120.585938 0 66.492187-54.09375 120.589844-120.585937 120.589844zm-269.820313-258.683594c-.015625-.277344-.039062-.550782-.066406-.828125-.417969-3.820313.765625-7.496094 3.332031-10.355469 2.5625-2.859375 6.09375-4.4375 9.933594-4.4375h162.402344c3.84375 0 7.371093 1.574219 9.933593 4.4375 2.566407 2.859375 3.75 6.535156 3.332032 10.355469-.03125.304687-.054688.605469-.070313.910156l-.546875 11.492187c-41.496094 26.84375-69.015625 73.527344-69.015625 126.519532 0 12.527344 1.546875 24.695312 4.445313 36.339844h-114.375zm49.554688 430.191406 8.238281-108.425781h73.210937l8.242188 108.425781zm91.085937-138.425781h-92.480469c-40.171874 0-72.851562-32.679688-72.851562-72.847657v-14.484374h159.347656c13.140625 26.667968 33.941406 48.90625 59.519532 63.824218-13.320313 14.445313-32.386719 23.507813-53.535157 23.507813zm0 0"/><path d="m271.660156 192.078125c-5.859375 5.855469-5.859375 15.355469 0 21.210937 5.855469 5.859376 15.355469 5.859376 21.210938 0 17.445312-17.445312 45.835937-17.441406 63.277344 0 2.929687 2.929688 6.769531 4.394532 10.609374 4.394532 3.835938 0 7.675782-1.464844 10.605469-4.394532 5.855469-5.855468 5.855469-15.355468 0-21.210937-29.140625-29.140625-76.558593-29.144531-105.703125 0zm0 0"/><path d="m246.839844 158.855469c-5.855469 5.859375-5.855469 15.355469 0 21.214843 5.859375 5.855469 15.355468 5.855469 21.214844 0 31.132812-31.132812 81.785156-31.128906 112.914062 0 2.929688 2.925782 6.769531 4.394532 10.605469 4.394532 3.839843 0 7.679687-1.46875 10.605469-4.394532 5.859374-5.859374 5.859374-15.355468 0-21.214843-42.824219-42.828125-112.507813-42.828125-155.339844 0zm0 0"/><path d="m340.914062 231.585938c0 9.058593-7.34375 16.402343-16.402343 16.402343-9.058594 0-16.402344-7.34375-16.402344-16.402343 0-9.0625 7.34375-16.40625 16.402344-16.40625 9.058593 0 16.402343 7.34375 16.402343 16.40625zm0 0"/></svg>