<!-- Generated by IcoMoon.io -->
<svg version="1.1" xmlns="http://www.w3.org/2000/svg" width="32" height="32" viewBox="0 0 32 32">
<title>socket-3</title>
<path d="M28.325 0h-19.438c-2.020 0-3.663 1.643-3.663 3.663v10.070h-2.172v-5.773c0-0.518-0.42-0.937-0.937-0.937s-0.937 0.42-0.937 0.937v5.773h-0.24c-0.518 0-0.937 0.419-0.937 0.937v1.737c0 2.386 1.941 4.328 4.328 4.328h0.896v7.601c0 2.020 1.643 3.663 3.663 3.663h19.438c2.020 0 3.663-1.643 3.663-3.663v-24.674c0-2.020-1.643-3.663-3.663-3.663zM4.328 18.862c-1.353 0-2.453-1.101-2.453-2.454v-0.8h3.35v3.254zM30.114 28.337c0 0.986-0.802 1.789-1.789 1.789h-19.438c-0.986 0-1.789-0.802-1.789-1.789v-24.674c0-0.986 0.803-1.789 1.789-1.789h19.438c0.986 0 1.789 0.802 1.789 1.789z"></path>
<path d="M18.606 4.491c-4.242 0-7.694 3.451-7.694 7.694s3.451 7.694 7.694 7.694c4.242 0 7.693-3.451 7.693-7.694s-3.451-7.694-7.693-7.694zM18.606 18.004c-3.209 0-5.819-2.611-5.819-5.819s2.611-5.819 5.819-5.819 5.819 2.61 5.819 5.819c0 3.209-2.61 5.819-5.819 5.819z"></path>
<path d="M16.64 11.248h-0.734c-0.518 0-0.937 0.419-0.937 0.937s0.419 0.937 0.937 0.937h0.734c0.518 0 0.937-0.42 0.937-0.937s-0.42-0.937-0.937-0.937z"></path>
<path d="M21.307 11.248h-0.734c-0.518 0-0.937 0.419-0.937 0.937s0.419 0.937 0.937 0.937h0.734c0.518 0 0.937-0.42 0.937-0.937s-0.419-0.937-0.937-0.937z"></path>
<path d="M13.425 22.82h-2.962c-0.518 0-0.937 0.42-0.937 0.937s0.42 0.937 0.937 0.937h2.962c0.518 0 0.937-0.42 0.937-0.937s-0.42-0.937-0.937-0.937z"></path>
<path d="M13.425 25.925h-2.962c-0.518 0-0.937 0.419-0.937 0.937s0.42 0.937 0.937 0.937h2.962c0.518 0 0.937-0.42 0.937-0.937s-0.42-0.937-0.937-0.937z"></path>
</svg>
