<svg height="512pt" viewBox="0 0 512 512.001" width="512pt" xmlns="http://www.w3.org/2000/svg"><path d="m453.207031 0h-311.011719c-32.316406 0-58.609374 26.292969-58.609374 58.609375v161.125h-34.757813v-92.375c0-8.28125-6.714844-14.996094-14.996094-14.996094s-14.996093 6.714844-14.996093 14.996094v92.375h-3.839844c-8.28125 0-14.996094 6.710937-14.996094 14.996094v27.796875c0 38.183594 31.0625 69.246094 69.246094 69.246094h14.339844v121.617187c0 32.320313 26.292968 58.609375 58.609374 58.609375h311.011719c32.320313 0 58.609375-26.289062 58.609375-58.609375v-394.78125c0-32.316406-26.289062-58.609375-58.609375-58.609375zm-383.960937 301.785156c-21.648438 0-39.253906-17.609375-39.253906-39.257812v-12.804688h53.59375v52.0625zm412.582031 151.605469c0 15.78125-12.839844 28.621094-28.621094 28.621094h-311.011719c-15.78125 0-28.621093-12.839844-28.621093-28.621094v-394.78125c0-15.78125 12.839843-28.621094 28.621093-28.621094h311.011719c15.78125 0 28.621094 12.839844 28.621094 28.621094zm0 0"/><path d="m297.703125 71.863281c-67.878906 0-123.097656 55.222657-123.097656 123.097657s55.21875 123.097656 123.097656 123.097656c67.875 0 123.09375-55.222656 123.09375-123.097656s-55.21875-123.097657-123.09375-123.097657zm0 216.207031c-51.339844 0-93.109375-41.769531-93.109375-93.109374 0-51.339844 41.769531-93.105469 93.109375-93.105469s93.105469 41.765625 93.105469 93.105469c0 51.339843-41.765625 93.109374-93.105469 93.109374zm0 0"/><path d="m266.242188 179.96875h-11.746094c-8.28125 0-14.996094 6.710938-14.996094 14.992188s6.710938 14.996093 14.996094 14.996093h11.746094c8.28125 0 14.996093-6.714843 14.996093-14.996093-.003906-8.28125-6.714843-14.992188-14.996093-14.992188zm0 0"/><path d="m340.910156 179.96875h-11.75c-8.28125 0-14.992187 6.710938-14.992187 14.992188s6.710937 14.996093 14.992187 14.996093h11.75c8.28125 0 14.992188-6.714843 14.992188-14.996093s-6.710938-14.992188-14.992188-14.992188zm0 0"/><path d="m214.804688 365.125h-47.394532c-8.28125 0-14.996094 6.714844-14.996094 14.996094s6.714844 14.996094 14.996094 14.996094h47.394532c8.28125 0 14.996093-6.714844 14.996093-14.996094s-6.714843-14.996094-14.996093-14.996094zm0 0"/><path d="m214.804688 414.800781h-47.394532c-8.28125 0-14.996094 6.710938-14.996094 14.992188s6.714844 14.996093 14.996094 14.996093h47.394532c8.28125 0 14.996093-6.714843 14.996093-14.996093s-6.714843-14.992188-14.996093-14.992188zm0 0"/></svg>