<!-- Generated by IcoMoon.io -->
<svg version="1.1" xmlns="http://www.w3.org/2000/svg" width="32" height="32" viewBox="0 0 32 32">
<title>remote-control-1</title>
<path d="M25.847 0h-19.691c-1.258 0-2.281 1.023-2.281 2.281v27.438c0 1.258 1.023 2.281 2.281 2.281h19.691c1.258 0 2.281-1.023 2.281-2.281v-27.438c0-1.258-1.023-2.281-2.281-2.281zM25.847 30.125h-19.691c-0.224 0-0.406-0.182-0.406-0.406v-3.082h20.504v3.082c0 0.224-0.182 0.406-0.406 0.406zM6.156 1.875h19.691c0.224 0 0.406 0.182 0.406 0.406v3.082h-20.504v-3.082c0-0.224 0.182-0.406 0.406-0.406zM26.254 7.239v17.523h-20.504v-17.523z"></path>
<path d="M16.884 27.281h-1.706c-0.518 0-0.938 0.42-0.938 0.938s0.42 0.938 0.938 0.938h1.706c0.518 0 0.938-0.42 0.938-0.938s-0.42-0.938-0.938-0.938z"></path>
<path d="M9.696 13.856h0.28c0.382 1.030 1.374 1.765 2.535 1.765s2.153-0.736 2.535-1.765h7.262c0.518 0 0.938-0.42 0.938-0.938s-0.42-0.938-0.938-0.938h-7.262c-0.382-1.030-1.374-1.765-2.535-1.765s-2.153 0.736-2.535 1.765h-0.28c-0.518 0-0.938 0.42-0.938 0.938s0.42 0.938 0.938 0.938zM12.511 12.091c0.457 0 0.828 0.371 0.828 0.828s-0.371 0.828-0.828 0.828-0.828-0.371-0.828-0.828c0-0.457 0.371-0.828 0.828-0.828z"></path>
<path d="M9.696 19.644h7.262c0.382 1.030 1.374 1.765 2.535 1.765s2.153-0.736 2.535-1.765h0.28c0.518 0 0.938-0.42 0.938-0.938s-0.42-0.938-0.938-0.938h-0.28c-0.382-1.030-1.374-1.765-2.535-1.765s-2.153 0.736-2.535 1.765h-7.262c-0.518 0-0.938 0.42-0.938 0.938s0.42 0.938 0.938 0.938zM19.493 17.879c0.456 0 0.828 0.371 0.828 0.828s-0.371 0.828-0.828 0.828c-0.457 0-0.828-0.371-0.828-0.828s0.371-0.828 0.828-0.828z"></path>
</svg>
