<svg height="512pt" viewBox="-61 0 511 512" width="512pt" xmlns="http://www.w3.org/2000/svg"><path d="m352.058594 0h-315.058594c-20.125 0-36.5 16.375-36.5 36.5v439c0 20.125 16.375 36.5 36.5 36.5h315.058594c20.125 0 36.5-16.375 36.5-36.5v-439c0-20.125-16.375-36.5-36.5-36.5zm0 482h-315.058594c-3.585938 0-6.5-2.914062-6.5-6.5v-49.316406h328.058594v49.316406c0 3.585938-2.917969 6.5-6.5 6.5zm-315.058594-452h315.058594c3.585937 0 6.5 2.914062 6.5 6.5v49.316406h-328.058594v-49.316406c0-3.585938 2.914062-6.5 6.5-6.5zm321.558594 85.816406v280.367188h-328.058594v-280.367188zm0 0"/><path d="m208.648438 436.492188h-27.300782c-8.28125 0-15 6.71875-15 15 0 8.285156 6.71875 15 15 15h27.300782c8.285156 0 15-6.714844 15-15 0-8.28125-6.714844-15-15-15zm0 0"/><path d="m93.636719 221.699219h4.476562c6.113281 16.472656 21.984375 28.242187 40.558594 28.242187 18.570313 0 34.445313-11.769531 40.558594-28.242187h116.191406c8.28125 0 15-6.71875 15-15 0-8.285157-6.71875-15-15-15h-116.191406c-6.113281-16.472657-21.984375-28.246094-40.558594-28.246094s-34.445313 11.773437-40.558594 28.246094h-4.476562c-8.28125 0-15 6.714843-15 15 0 8.28125 6.714843 15 15 15zm45.035156-28.246094c7.304687 0 13.246094 5.941406 13.246094 13.246094 0 7.304687-5.941407 13.246093-13.246094 13.246093s-13.246094-5.941406-13.246094-13.246093c0-7.304688 5.941407-13.246094 13.246094-13.246094zm0 0"/><path d="m93.636719 314.300781h116.191406c6.113281 16.472657 21.984375 28.246094 40.558594 28.246094s34.445312-11.773437 40.558593-28.246094h4.476563c8.28125 0 15-6.714843 15-15 0-8.285156-6.71875-15-15-15h-4.476563c-6.113281-16.472656-21.984374-28.246093-40.558593-28.246093s-34.445313 11.773437-40.558594 28.246093h-116.191406c-8.285157 0-15 6.714844-15 15 0 8.285157 6.714843 15 15 15zm156.75-28.242187c7.300781 0 13.246093 5.9375 13.246093 13.242187 0 7.304688-5.941406 13.246094-13.246093 13.246094-7.304688 0-13.246094-5.941406-13.246094-13.246094 0-7.304687 5.941406-13.242187 13.246094-13.242187zm0 0"/></svg>