<!-- Generated by IcoMoon.io -->
<svg version="1.1" xmlns="http://www.w3.org/2000/svg" width="32" height="32" viewBox="0 0 32 32">
<title>heater-1</title>
<path d="M31.063 24.706h-8.284v-10.857c0.008 0 0.016 0.001 0.024 0.001 0.518 0 0.938-0.42 0.938-0.938v-2.237c0-0.518-0.42-0.938-0.938-0.938-0.008 0-0.016 0.001-0.024 0.001v-0.642c0-1.81-1.473-3.283-3.283-3.283-0.918 0-1.75 0.38-2.346 0.989-0.596-0.61-1.428-0.989-2.346-0.989s-1.749 0.38-2.346 0.989c-0.596-0.61-1.428-0.989-2.346-0.989s-1.749 0.38-2.346 0.989c-0.596-0.61-1.428-0.989-2.346-0.989-1.811 0-3.283 1.473-3.283 3.283v15.609h-1.198c-0.518 0-0.938 0.42-0.938 0.938s0.42 0.938 0.938 0.938h1.213c0.15 1.672 1.559 2.988 3.269 2.988 0.918 0 1.75-0.38 2.346-0.989 0.597 0.61 1.428 0.989 2.346 0.989s1.749-0.38 2.346-0.989c0.596 0.61 1.428 0.989 2.346 0.989s1.75-0.38 2.346-0.989c0.596 0.61 1.427 0.989 2.346 0.989 1.711 0 3.119-1.315 3.27-2.988h8.298c0.518 0 0.937-0.42 0.937-0.938s-0.42-0.938-0.938-0.938zM19.495 27.694c-0.777 0-1.408-0.632-1.408-1.408v-17.188c0-0.777 0.632-1.408 1.408-1.408s1.408 0.632 1.408 1.408v17.188c0 0.776-0.632 1.408-1.408 1.408zM14.803 27.694c-0.777 0-1.409-0.632-1.409-1.408v-17.188c0-0.777 0.632-1.408 1.409-1.408s1.408 0.632 1.408 1.408v17.188c0 0.776-0.632 1.408-1.408 1.408zM10.112 27.694c-0.777 0-1.409-0.632-1.409-1.408v-17.188c0-0.777 0.632-1.408 1.409-1.408s1.408 0.632 1.408 1.408v17.188c0 0.776-0.632 1.408-1.408 1.408zM4.011 26.285v-17.188c0-0.777 0.632-1.408 1.408-1.408s1.408 0.632 1.408 1.408v17.188c0 0.777-0.632 1.408-1.408 1.408s-1.408-0.632-1.408-1.408z"></path>
<path d="M25.237 6.685c1.387 0 2.516 1.129 2.516 2.516 0 0.518 0.42 0.938 0.938 0.938s0.938-0.42 0.938-0.938c0-2.421-1.97-4.391-4.391-4.391-0.518 0-0.938 0.42-0.938 0.938s0.42 0.938 0.938 0.938z"></path>
<path d="M25.58 4.313c2.506 0 4.545 2.039 4.545 4.545 0 0.518 0.42 0.938 0.938 0.938s0.938-0.42 0.938-0.938c0-3.54-2.88-6.42-6.42-6.42-0.518 0-0.938 0.42-0.938 0.938s0.42 0.938 0.938 0.938z"></path>
<path d="M26.605 8.857c0 0.566-0.459 1.025-1.025 1.025s-1.025-0.459-1.025-1.025 0.459-1.025 1.025-1.025 1.025 0.459 1.025 1.025z"></path>
</svg>
