<svg height="512pt" viewBox="0 -38 512 511" width="512pt" xmlns="http://www.w3.org/2000/svg"><path d="m497 356.800781h-132.539062v-173.71875c.128906.003907.253906.019531.382812.019531 8.285156 0 15-6.714843 15-15v-35.789062c0-8.285156-6.714844-15-15-15-.128906 0-.253906.015625-.382812.019531v-10.273437c0-28.964844-23.566407-52.535156-52.535157-52.535156-14.695312 0-27.992187 6.074218-37.535156 15.832031-9.542969-9.757813-22.839844-15.832031-37.535156-15.832031-14.695313 0-27.992188 6.074218-37.539063 15.832031-9.542968-9.757813-22.839844-15.832031-37.535156-15.832031-14.691406 0-27.992188 6.074218-37.535156 15.832031-9.542969-9.757813-22.839844-15.832031-37.535156-15.832031-28.96875 0-52.535157 23.570312-52.535157 52.535156v249.742187h-19.175781c-8.285156 0-15 6.714844-15 15 0 8.285157 6.714844 15 15 15h19.402344c2.402344 26.753907 24.9375 47.800781 52.308594 47.800781 14.695312 0 27.992187-6.074218 37.535156-15.832031 9.546875 9.757813 22.84375 15.832031 37.539062 15.832031 14.691406 0 27.988282-6.074218 37.535156-15.832031 9.542969 9.757813 22.839844 15.832031 37.535157 15.832031 14.695312 0 27.992187-6.074218 37.535156-15.832031 9.542969 9.757813 22.839844 15.832031 37.535156 15.832031 27.371094 0 49.910157-21.046874 52.3125-47.800781h132.761719c8.285156 0 15-6.714843 15-15 0-8.285156-6.714844-15-15-15zm-185.074219 47.800781c-12.425781 0-22.535156-10.109374-22.535156-22.535156v-275.007812c0-12.425782 10.109375-22.535156 22.535156-22.535156s22.535157 10.109374 22.535157 22.535156v275.007812c0 12.421875-10.109376 22.535156-22.535157 22.535156zm-75.070312 0c-12.425781 0-22.539063-10.109374-22.539063-22.535156v-275.007812c0-12.425782 10.109375-22.535156 22.539063-22.535156 12.425781 0 22.535156 10.109374 22.535156 22.535156v275.007812c0 12.421875-10.109375 22.535156-22.535156 22.535156zm-75.070313 0c-12.425781 0-22.539062-10.109374-22.539062-22.535156v-275.007812c0-12.425782 10.109375-22.535156 22.539062-22.535156 12.425782 0 22.535156 10.109374 22.535156 22.535156v275.007812c0 12.421875-10.109374 22.535156-22.535156 22.535156zm-97.609375-22.535156v-275.007812c0-12.425782 10.109375-22.535156 22.535157-22.535156 12.425781 0 22.535156 10.109374 22.535156 22.535156v275.007812c0 12.425782-10.105469 22.535156-22.535156 22.535156-12.425782 0-22.535157-10.113281-22.535157-22.535156zm0 0"/><path d="m403.785156 68.457031c22.199219 0 40.257813 18.058594 40.257813 40.257813 0 8.28125 6.714843 15 15 15 8.28125 0 15-6.71875 15-15 0-38.742188-31.519531-70.257813-70.257813-70.257813-8.28125 0-15 6.714844-15 15 0 8.285157 6.714844 15 15 15zm0 0"/><path d="m409.28125 30.5c40.097656 0 72.71875 32.621094 72.71875 72.71875 0 8.285156 6.714844 15 15 15 8.28125 0 15-6.714844 15-15 0-56.640625-46.082031-102.71875-102.71875-102.71875-8.285156 0-15 6.714844-15 15s6.714844 15 15 15zm0 0"/><path d="m425.683594 103.21875c0 9.058594-7.34375 16.402344-16.402344 16.402344s-16.402344-7.34375-16.402344-16.402344 7.34375-16.402344 16.402344-16.402344 16.402344 7.34375 16.402344 16.402344zm0 0"/></svg>