<svg height="511pt" viewBox="0 -52 511.99937 511" width="511pt" xmlns="http://www.w3.org/2000/svg"><path d="m336.820312.5h-67.042968c-3.507813 0-6.902344 1.230469-9.601563 3.472656l-92.261719 76.847656-98.246093 9.671876c-7.679688.757812-13.53125 7.214843-13.53125 14.929687v44.878906h-41.136719c-8.285156 0-15 6.71875-15 15v77.136719c0 8.285156 6.714844 15.003906 15 15.003906h41.136719v44.878906c0 7.714844 5.851562 14.171876 13.53125 14.929688l98.246093 9.671875 92.261719 76.84375c2.695313 2.246094 6.09375 3.476563 9.601563 3.476563h67.042968c8.285157 0 15-6.71875 15-15.003907v-376.738281c0-8.285156-6.714843-15-15-15zm-250.679687 118.519531 89.300781-8.792969c2.988282-.292968 5.824219-1.476562 8.132813-3.402343l71.203125-59.304688v312.703125l-71.203125-59.308594c-2.308594-1.921874-5.144531-3.105468-8.132813-3.402343l-89.300781-8.789063zm235.675781 258.21875h-37.035156v-346.734375h37.035156zm-291.8125-149.800781v-47.132812h26.132813v47.132812zm0 0"/><path d="m393.265625 158.046875c-5.859375 5.859375-5.859375 15.355469 0 21.214844 13.566406 13.570312 13.566406 35.648437 0 49.21875-5.859375 5.859375-5.859375 15.355469 0 21.214843 2.925781 2.929688 6.765625 4.394532 10.605469 4.394532s7.679687-1.464844 10.605468-4.394532c25.269532-25.269531 25.269532-66.382812 0-91.652343-5.855468-5.855469-15.355468-5.855469-21.210937.003906zm0 0"/><path d="m476.859375 118.902344c-5.855469-5.855469-15.355469-5.855469-21.214844 0-5.855469 5.859375-5.855469 15.359375 0 21.214844 35.152344 35.15625 35.152344 92.351562 0 127.503906-5.855469 5.859375-5.855469 15.359375 0 21.21875 2.929688 2.925781 6.769531 4.394531 10.609375 4.394531 3.835938 0 7.679688-1.464844 10.605469-4.394531 46.851563-46.851563 46.851563-123.085938 0-169.9375zm0 0"/></svg>