<!-- Generated by IcoMoon.io -->
<svg version="1.1" xmlns="http://www.w3.org/2000/svg" width="32" height="32" viewBox="0 0 32 32">
<title>speaker-2</title>
<path d="M21.051 3.313h-4.19c-0.219 0-0.431 0.077-0.6 0.217l-5.766 4.803-6.14 0.604c-0.48 0.047-0.846 0.451-0.846 0.933v2.805h-2.571c-0.518 0-0.938 0.42-0.938 0.938v4.821c0 0.518 0.42 0.938 0.938 0.938h2.571v2.805c0 0.482 0.366 0.886 0.846 0.933l6.14 0.605 5.766 4.803c0.168 0.14 0.381 0.217 0.6 0.217h4.19c0.518 0 0.938-0.42 0.938-0.938v-23.546c0-0.518-0.42-0.938-0.938-0.938zM5.384 10.72l5.581-0.55c0.187-0.018 0.364-0.092 0.508-0.213l4.45-3.707v19.544l-4.45-3.707c-0.144-0.12-0.322-0.194-0.508-0.213l-5.581-0.549zM20.114 26.859h-2.315v-21.671h2.315zM1.875 17.496v-2.946h1.633v2.946z"></path>
<path d="M24.579 13.159c-0.366 0.366-0.366 0.96 0 1.326 0.848 0.848 0.848 2.228 0 3.076-0.366 0.366-0.366 0.96 0 1.326 0.183 0.183 0.423 0.275 0.663 0.275s0.48-0.092 0.663-0.275c1.579-1.579 1.579-4.149 0-5.728-0.366-0.366-0.96-0.366-1.326 0z"></path>
<path d="M29.804 10.713c-0.366-0.366-0.96-0.366-1.326 0s-0.366 0.96 0 1.326c2.197 2.197 2.197 5.772 0 7.969-0.366 0.366-0.366 0.96 0 1.326 0.183 0.183 0.423 0.275 0.663 0.275s0.48-0.092 0.663-0.275c2.928-2.928 2.928-7.693 0-10.621z"></path>
</svg>
