<!-- Generated by IcoMoon.io -->
<svg version="1.1" xmlns="http://www.w3.org/2000/svg" width="32" height="32" viewBox="0 0 32 32">
<title>voice-assistant-2</title>
<path d="M24.425 12.474c-2.264-1.114-5.254-1.729-8.418-1.729s-6.154 0.614-8.418 1.729c-2.476 1.219-3.839 2.917-3.839 4.781v8.236c0 1.864 1.363 3.563 3.839 4.781 2.264 1.115 5.254 1.729 8.418 1.729s6.154-0.614 8.418-1.729c2.476-1.218 3.839-2.916 3.839-4.781v-8.236c0-1.865-1.364-3.563-3.839-4.781zM8.417 14.156c2.012-0.99 4.707-1.536 7.59-1.536s5.578 0.545 7.59 1.536c1.774 0.874 2.792 2.003 2.792 3.099s-1.018 2.226-2.792 3.099c-2.012 0.99-4.707 1.536-7.59 1.536s-5.578-0.545-7.59-1.536c-1.774-0.874-2.792-2.003-2.792-3.099s1.018-2.225 2.792-3.099zM23.597 28.589c-2.012 0.99-4.707 1.536-7.59 1.536s-5.578-0.545-7.59-1.536c-1.774-0.874-2.792-2.003-2.792-3.099v-4.709c0.544 0.457 1.201 0.878 1.964 1.254 2.264 1.115 5.254 1.729 8.418 1.729s6.154-0.614 8.418-1.729c0.763-0.375 1.42-0.797 1.964-1.254v4.709c0 1.096-1.018 2.225-2.792 3.099z"></path>
<path d="M13.148 18.595c0.518 0 0.938-0.42 0.938-0.938v-1.464c0-0.518-0.42-0.938-0.938-0.938s-0.938 0.42-0.938 0.938v1.464c0 0.518 0.42 0.938 0.938 0.938z"></path>
<path d="M16.007 20.269c0.518 0 0.938-0.42 0.938-0.938v-4.812c0-0.518-0.42-0.938-0.938-0.938s-0.938 0.42-0.938 0.938v4.812c0 0.518 0.42 0.938 0.938 0.938z"></path>
<path d="M18.866 18.595c0.518 0 0.938-0.42 0.938-0.938v-1.464c0-0.518-0.42-0.938-0.938-0.938s-0.938 0.42-0.938 0.938v1.464c0 0.518 0.42 0.938 0.938 0.938z"></path>
<path d="M10.856 26.026c-0.793-0.212-1.528-0.472-2.183-0.774-0.471-0.217-1.027-0.010-1.244 0.46s-0.010 1.027 0.46 1.244c0.752 0.346 1.588 0.642 2.483 0.882 0.081 0.022 0.163 0.032 0.243 0.032 0.414 0 0.793-0.276 0.905-0.696 0.134-0.5-0.163-1.014-0.664-1.148z"></path>
<path d="M18.449 5.401c0.24 0 0.48-0.092 0.663-0.275 0.366-0.366 0.366-0.96 0-1.326-1.712-1.712-4.498-1.712-6.21 0-0.366 0.366-0.366 0.96 0 1.326s0.96 0.366 1.326 0c0.981-0.981 2.577-0.981 3.558 0 0.183 0.183 0.423 0.275 0.663 0.275z"></path>
<path d="M12.793 3.206c0.859-0.859 2-1.331 3.214-1.331s2.355 0.473 3.214 1.331c0.183 0.183 0.423 0.274 0.663 0.274s0.48-0.092 0.663-0.274c0.366-0.366 0.366-0.96 0-1.326-1.212-1.213-2.825-1.88-4.54-1.88s-3.327 0.668-4.54 1.88c-0.366 0.366-0.366 0.96 0 1.326s0.96 0.366 1.326 0z"></path>
<path d="M17.032 6.42c0 0.566-0.459 1.025-1.025 1.025s-1.025-0.459-1.025-1.025 0.459-1.025 1.025-1.025c0.566 0 1.025 0.459 1.025 1.025z"></path>
</svg>
