<!-- Generated by IcoMoon.io -->
<svg version="1.1" xmlns="http://www.w3.org/2000/svg" width="32" height="32" viewBox="0 0 32 32">
<title>switch-2</title>
<path d="M26.687 0h-21.375c-1.551 0-2.813 1.262-2.813 2.813v26.375c0 1.551 1.262 2.813 2.813 2.813h21.375c1.551 0 2.813-1.262 2.813-2.813v-26.375c0-1.551-1.262-2.813-2.813-2.813zM27.625 29.188c0 0.517-0.421 0.938-0.938 0.938h-21.375c-0.517 0-0.938-0.421-0.938-0.938v-26.375c0-0.517 0.421-0.938 0.938-0.938h21.375c0.517 0 0.938 0.421 0.938 0.938z"></path>
<path d="M21.52 4.544h-11.041c-0.518 0-0.938 0.42-0.938 0.938v21.036c0 0.518 0.42 0.938 0.938 0.938h11.041c0.518 0 0.938-0.42 0.938-0.938v-21.036c0-0.518-0.42-0.938-0.938-0.938zM20.583 6.419v8.643h-9.166v-8.643zM11.417 25.581v-8.643h9.166v8.643z"></path>
<path d="M16 18.759c-0.518 0-0.938 0.42-0.938 0.938v2.982c0 0.518 0.42 0.938 0.938 0.938s0.937-0.42 0.937-0.938v-2.982c0-0.518-0.42-0.938-0.938-0.938z"></path>
<path d="M16 13.4c1.397 0 2.533-1.136 2.533-2.533s-1.136-2.533-2.533-2.533-2.533 1.136-2.533 2.533c0 1.397 1.136 2.533 2.533 2.533zM16 10.209c0.363 0 0.658 0.295 0.658 0.658s-0.295 0.658-0.658 0.658-0.658-0.295-0.658-0.658c0-0.363 0.295-0.658 0.658-0.658z"></path>
</svg>
