<svg height="512pt" viewBox="-82 0 512 512" width="512pt" xmlns="http://www.w3.org/2000/svg"><path d="m303.191406 0h-258.191406c-24.8125 0-45 20.1875-45 45v422c0 24.8125 20.1875 45 45 45h258.1875c24.816406 0 45-20.1875 45-45v-422c.003906-24.8125-20.183594-45-44.996094-45zm0 482h-258.191406c-8.269531 0-15-6.730469-15-15v-204.980469h288.1875v204.980469c.003906 8.269531-6.726562 15-14.996094 15zm-258.191406-452h258.1875c8.273438 0 15 6.730469 15 15v187.019531h-288.1875v-187.019531c0-8.269531 6.730469-15 15-15zm0 0"/><path d="m71.015625 193.753906h206.160156c8.285157 0 15-6.714844 15-15v-99.0625c0-8.28125-6.714843-15-15-15h-206.160156c-8.285156 0-15 6.71875-15 15v99.066406c0 8.28125 6.714844 14.996094 15 14.996094zm15-99.0625h176.160156v69.066406h-176.160156zm0 0"/><path d="m115.566406 288.574219h-26.097656c-8.285156 0-15 6.714843-15 15 0 8.28125 6.714844 15 15 15h26.097656c8.285156 0 15-6.71875 15-15 0-8.285157-6.714844-15-15-15zm0 0"/><path d="m187.144531 288.574219h-26.097656c-8.285156 0-15 6.714843-15 15 0 8.28125 6.714844 15 15 15h26.097656c8.285157 0 15-6.71875 15-15 0-8.285157-6.714843-15-15-15zm0 0"/><path d="m258.722656 288.574219h-26.097656c-8.285156 0-15 6.714843-15 15 0 8.28125 6.714844 15 15 15h26.097656c8.285156 0 15-6.71875 15-15 0-8.285157-6.714844-15-15-15zm0 0"/><path d="m115.566406 351.796875h-26.097656c-8.285156 0-15 6.71875-15 15 0 8.285156 6.714844 15 15 15h26.097656c8.285156 0 15-6.714844 15-15 0-8.28125-6.714844-15-15-15zm0 0"/><path d="m187.144531 351.796875h-26.097656c-8.285156 0-15 6.71875-15 15 0 8.285156 6.714844 15 15 15h26.097656c8.285157 0 15-6.714844 15-15 0-8.28125-6.714843-15-15-15zm0 0"/><path d="m258.722656 351.796875h-26.097656c-8.285156 0-15 6.71875-15 15 0 8.285156 6.714844 15 15 15h26.097656c8.285156 0 15-6.714844 15-15 0-8.28125-6.714844-15-15-15zm0 0"/><path d="m115.566406 415.023438h-26.097656c-8.285156 0-15 6.714843-15 15 0 8.285156 6.714844 15 15 15h26.097656c8.285156 0 15-6.714844 15-15 0-8.285157-6.714844-15-15-15zm0 0"/><path d="m187.144531 415.023438h-26.097656c-8.285156 0-15 6.714843-15 15 0 8.285156 6.714844 15 15 15h26.097656c8.285157 0 15-6.714844 15-15 0-8.285157-6.714843-15-15-15zm0 0"/><path d="m258.722656 415.023438h-26.097656c-8.285156 0-15 6.714843-15 15 0 8.285156 6.714844 15 15 15h26.097656c8.285156 0 15-6.714844 15-15 0-8.285157-6.714844-15-15-15zm0 0"/></svg>