<!-- Generated by IcoMoon.io -->
<svg version="1.1" xmlns="http://www.w3.org/2000/svg" width="32" height="32" viewBox="0 0 32 32">
<title>remote-control-2</title>
<path d="M24.074 0h-16.137c-1.551 0-2.813 1.262-2.813 2.813v26.375c0 1.551 1.262 2.813 2.813 2.813h16.137c1.551 0 2.813-1.262 2.813-2.813v-26.375c0-1.551-1.261-2.813-2.812-2.813zM24.074 30.125h-16.137c-0.517 0-0.938-0.421-0.938-0.938v-12.811h18.012v12.811c0 0.517-0.42 0.938-0.937 0.938zM7.938 1.875h16.137c0.517 0 0.938 0.421 0.938 0.938v11.689h-18.012v-11.689c0-0.517 0.421-0.938 0.938-0.938z"></path>
<path d="M9.563 12.11h12.885c0.518 0 0.938-0.42 0.938-0.938v-6.191c0-0.518-0.42-0.938-0.938-0.938h-12.885c-0.518 0-0.938 0.42-0.938 0.938v6.192c0 0.518 0.42 0.937 0.938 0.937zM10.501 5.918h11.010v4.317h-11.010z"></path>
<path d="M12.348 18.036h-1.631c-0.518 0-0.938 0.42-0.938 0.938s0.42 0.938 0.938 0.938h1.631c0.518 0 0.938-0.42 0.938-0.938s-0.42-0.938-0.938-0.938z"></path>
<path d="M16.822 18.036h-1.631c-0.518 0-0.938 0.42-0.938 0.938s0.42 0.938 0.938 0.938h1.631c0.518 0 0.938-0.42 0.938-0.938s-0.42-0.938-0.938-0.938z"></path>
<path d="M21.295 18.036h-1.631c-0.518 0-0.938 0.42-0.938 0.938s0.42 0.938 0.938 0.938h1.631c0.518 0 0.938-0.42 0.938-0.938s-0.42-0.938-0.938-0.938z"></path>
<path d="M12.348 21.987h-1.631c-0.518 0-0.938 0.42-0.938 0.938s0.42 0.938 0.938 0.938h1.631c0.518 0 0.938-0.42 0.938-0.938s-0.42-0.938-0.938-0.938z"></path>
<path d="M16.822 21.987h-1.631c-0.518 0-0.938 0.42-0.938 0.938s0.42 0.938 0.938 0.938h1.631c0.518 0 0.938-0.42 0.938-0.938s-0.42-0.938-0.938-0.938z"></path>
<path d="M21.295 21.987h-1.631c-0.518 0-0.938 0.42-0.938 0.938s0.42 0.938 0.938 0.938h1.631c0.518 0 0.938-0.42 0.938-0.938s-0.42-0.938-0.938-0.938z"></path>
<path d="M12.348 25.939h-1.631c-0.518 0-0.938 0.42-0.938 0.938s0.42 0.938 0.938 0.938h1.631c0.518 0 0.938-0.42 0.938-0.938s-0.42-0.938-0.938-0.938z"></path>
<path d="M16.822 25.939h-1.631c-0.518 0-0.938 0.42-0.938 0.938s0.42 0.938 0.938 0.938h1.631c0.518 0 0.938-0.42 0.938-0.938s-0.42-0.938-0.938-0.938z"></path>
<path d="M21.295 25.939h-1.631c-0.518 0-0.938 0.42-0.938 0.938s0.42 0.938 0.938 0.938h1.631c0.518 0 0.938-0.42 0.938-0.938s-0.42-0.938-0.938-0.938z"></path>
</svg>
