<svg height="512pt" viewBox="0 -92 512 512" width="512pt" xmlns="http://www.w3.org/2000/svg"><path d="m497 155.476562h-482c-8.285156 0-15 6.714844-15 15v125.554688c0 8.285156 6.714844 15 15 15h31.59375c-.074219.613281-.128906 1.234375-.128906 1.863281 0 8.285157 6.71875 15 15 15h41.507812c8.285156 0 15-6.714843 15-15 0-.628906-.050781-1.25-.125-1.863281h276.304688c-.078125.613281-.128906 1.234375-.128906 1.863281 0 8.285157 6.714843 15 15 15h41.507812c8.285156 0 15-6.714843 15-15 0-.628906-.050781-1.25-.128906-1.863281h31.597656c8.285156 0 15-6.714844 15-15v-125.554688c0-8.285156-6.714844-15-15-15zm-176.378906 125.554688h-129.242188v-19.503906h129.242188zm161.378906 0h-131.378906v-34.503906c0-8.285156-6.714844-15-15-15h-159.242188c-8.285156 0-15 6.714844-15 15v34.503906h-131.378906v-95.554688h452zm0 0"/><path d="m296.269531 88.097656c3.839844 0 7.679688-1.464844 10.609375-4.394531 5.855469-5.855469 5.855469-15.351563 0-21.210937-28.058594-28.054688-73.703125-28.054688-101.757812 0-5.859375 5.855468-5.859375 15.355468 0 21.210937 5.855468 5.859375 15.355468 5.859375 21.214844 0 16.355468-16.355469 42.972656-16.355469 59.328124 0 2.929688 2.929687 6.769532 4.394531 10.605469 4.394531zm0 0"/><path d="m202.675781 52.039062c29.402344-29.402343 77.246094-29.402343 106.648438 0 2.929687 2.929688 6.765625 4.394532 10.605469 4.394532 3.835937 0 7.675781-1.464844 10.605468-4.394532 5.859375-5.859374 5.859375-15.355468 0-21.214843-41.101562-41.097657-107.972656-41.097657-149.070312 0-5.859375 5.859375-5.859375 15.355469 0 21.214843 5.855468 5.855469 15.355468 5.855469 21.210937 0zm0 0"/><path d="m272.90625 105.359375c0 9.339844-7.570312 16.90625-16.90625 16.90625s-16.90625-7.566406-16.90625-16.90625c0-9.335937 7.570312-16.90625 16.90625-16.90625s16.90625 7.570313 16.90625 16.90625zm0 0"/></svg>