<!-- Generated by IcoMoon.io -->
<svg version="1.1" xmlns="http://www.w3.org/2000/svg" width="32" height="32" viewBox="0 0 32 32">
<title>robot-vacuum-cleaner</title>
<path d="M31.063 15.467h-30.125c-0.518 0-0.938 0.42-0.938 0.938v7.847c0 0.518 0.42 0.938 0.938 0.938h1.975c-0.005 0.038-0.008 0.077-0.008 0.116 0 0.518 0.42 0.938 0.938 0.938h2.594c0.518 0 0.938-0.42 0.938-0.938 0-0.039-0.003-0.078-0.008-0.116h17.269c-0.005 0.038-0.008 0.077-0.008 0.116 0 0.518 0.42 0.938 0.938 0.938h2.594c0.518 0 0.938-0.42 0.938-0.938 0-0.039-0.003-0.078-0.008-0.116h1.975c0.518 0 0.938-0.42 0.938-0.938v-7.847c0-0.518-0.42-0.938-0.938-0.938zM20.039 23.314h-8.078v-1.219h8.078zM30.125 23.314h-8.211v-2.157c0-0.518-0.42-0.938-0.938-0.938h-9.953c-0.518 0-0.938 0.42-0.938 0.938v2.157h-8.211v-5.972h28.25z"></path>
<path d="M18.517 11.256c0.24 0 0.48-0.092 0.663-0.275 0.366-0.366 0.366-0.959 0-1.326-1.754-1.753-4.606-1.753-6.36 0-0.366 0.366-0.366 0.96 0 1.326s0.96 0.366 1.326 0c1.022-1.022 2.686-1.022 3.708 0 0.183 0.183 0.423 0.275 0.663 0.275z"></path>
<path d="M12.667 9.002c1.838-1.838 4.828-1.838 6.666 0 0.183 0.183 0.423 0.275 0.663 0.275s0.48-0.092 0.663-0.275c0.366-0.366 0.366-0.96 0-1.326-2.569-2.569-6.748-2.569-9.317 0-0.366 0.366-0.366 0.96 0 1.326s0.96 0.366 1.326 0z"></path>
<path d="M17.057 12.335c0 0.584-0.473 1.057-1.057 1.057s-1.057-0.473-1.057-1.057c0-0.584 0.473-1.057 1.057-1.057s1.057 0.473 1.057 1.057z"></path>
</svg>
