<svg height="512pt" viewBox="0 -31 512.00065 512" width="512pt" xmlns="http://www.w3.org/2000/svg"><path d="m508.867188 169.089844-1.15625-3.738282c-4.410157-14.265624-9.992188-29.0625-17.066407-45.230468-2.625-6-3.957031-12.433594-3.957031-19.125v-12.257813c0-16.730469-13.316406-30.402343-29.910156-30.992187v-42.738282c0-8.289062-6.714844-15.007812-15.003906-15.007812h-371.328126c-8.289062 0-15.007812 6.71875-15.007812 15.007812v42.730469c-16.703125.464844-30.152344 14.1875-30.152344 31v12.257813c0 6.691406-1.332031 13.125-3.957031 19.125-7.082031 16.175781-12.664063 30.96875-17.070313 45.234375l-1.121093 3.625c-8.902344 28.8125 1.5625 60.011719 26.03125 77.625l.15625.113281c12.261719 8.832031 26.621093 13.242188 40.984375 13.242188 14.421875 0 28.839844-4.453126 41.132812-13.355469 24.359375-17.636719 34.757813-48.789063 25.882813-77.519531l-1.15625-3.734376c-4.40625-14.261718-9.988281-29.058593-17.066407-45.234374-2.625-5.996094-3.957031-12.433594-3.957031-19.125v-12.257813c0-16.660156-13.203125-30.289063-29.695312-30.984375v-27.738281h155.546875v107.175781h-7.789063c-22.726562 0-41.222656 18.492188-41.222656 41.222656v20.066406c0 12.28125-2.449219 24.101563-7.277344 35.136719-11.4375 26.136719-20.457031 50.023438-27.5625 73.03125l-1.835937 5.941407c-13.359375 43.238281 2.339844 90.054687 39.082031 116.507812l.234375.167969c18.40625 13.25 39.953125 19.871093 61.5 19.871093 21.640625 0 43.28125-6.679687 61.734375-20.039062 36.550781-26.464844 52.160156-73.214844 38.835937-116.332031l-1.886718-6.117188c-7.109375-23.007812-16.125-46.894531-27.566406-73.03125-4.828126-11.035156-7.277344-22.855469-7.277344-35.136719v-20.066406c0-22.730468-18.492188-41.222656-41.222656-41.222656h-7.734376v-107.175781h155.761719v27.730469c-16.605469.574218-29.941406 14.253906-29.941406 30.996093v12.257813c0 6.691406-1.332031 13.125-3.957031 19.125-7.078125 16.167968-12.660156 30.960937-17.066406 45.230468l-1.125 3.628907c-8.898438 28.8125 1.5625 60.011719 26.03125 77.625l.15625.113281c12.265624 8.832031 26.625 13.242188 40.984374 13.242188 14.421876 0 28.839844-4.453126 41.136719-13.355469 24.355469-17.632813 34.753907-48.785157 25.878907-77.515625zm-415.027344 53.210937c-14.035156 10.164063-32.917969 10.1875-46.976563.070313l-.15625-.113282c-14-10.082031-19.988281-27.933593-14.894531-44.417968l1.121094-3.628906c4.070312-13.167969 9.265625-26.925782 15.886718-42.054688 1.121094-2.558594 2.089844-5.164062 2.921876-7.808594h3.484374v39.996094c-3.789062 2.722656-6.269531 7.160156-6.269531 12.183594 0 8.285156 6.71875 15.003906 15.003907 15.003906h12.542968c8.285156 0 15.003906-6.71875 15.003906-15.003906 0-5.027344-2.476562-9.460938-6.269531-12.183594v-39.996094h3.453125c.832032 2.644532 1.796875 5.246094 2.917969 7.804688 6.621094 15.132812 11.816406 28.890625 15.886719 42.058594l1.15625 3.738281c5.078125 16.4375-.875 34.261719-14.8125 44.351562zm-8.707032-127.964843h-29.835937v-5.597657c0-.558593.453125-1.011719 1.007813-1.011719h27.816406c.558594 0 1.011718.453126 1.011718 1.011719zm127.011719 310.558593-.230469-.167969c-26.257812-18.902343-37.480468-52.371093-27.933593-83.28125l1.839843-5.941406c6.769532-21.917968 15.398438-44.765625 26.378907-69.855468.785156-1.789063 1.515625-3.589844 2.207031-5.402344h26.589844v67.640625c-5.960938 1.988281-10.261719 7.601562-10.261719 14.230469 0 8.285156 6.714844 15.003906 15.003906 15.003906h20.527344c8.285156 0 15.007813-6.714844 15.007813-15.003906 0-6.628907-4.304688-12.242188-10.265626-14.230469v-67.640625h26.539063c.6875 1.8125 1.421875 3.613281 2.203125 5.402344 10.980469 25.089843 19.613281 47.9375 26.382812 69.855468l1.890626 6.117188c9.523437 30.820312-1.636719 64.242187-27.765626 83.164062-13.191406 9.550782-28.65625 14.328125-44.128906 14.324219-15.402344 0-30.820312-4.738281-43.984375-14.214844zm77.9375-200.953125c.09375 2.109375.242188 4.207032.445313 6.292969h-69.105469c.203125-2.085937.351563-4.183594.445313-6.292969zm-67.144531-30.007812c1.734375-3.957032 5.683594-6.730469 10.269531-6.730469h45.535157c4.589843 0 8.539062 2.773437 10.269531 6.730469zm242.449219 48.367187c-14.039063 10.164063-32.917969 10.1875-46.976563.070313l-.15625-.113282c-14.003906-10.082031-19.992187-27.933593-14.898437-44.417968l1.121093-3.628906c4.070313-13.175782 9.269532-26.933594 15.886719-42.054688 1.121094-2.558594 2.089844-5.164062 2.921875-7.808594h3.484375v39.996094c-3.792969 2.722656-6.269531 7.160156-6.269531 12.183594 0 8.285156 6.714844 15.003906 15.003906 15.003906h12.539063c8.289062 0 15.007812-6.71875 15.007812-15.003906 0-5.027344-2.476562-9.460938-6.269531-12.183594v-39.996094h3.453125c.832031 2.644532 1.796875 5.246094 2.917969 7.804688 6.621094 15.125 11.816406 28.882812 15.886718 42.054687l1.15625 3.742188c5.074219 16.4375-.875 34.261719-14.808593 44.351562zm-37.539063-134.574219h27.816406c.558594 0 1.011719.453126 1.011719 1.011719v5.597657h-29.839843v-5.597657c.003906-.558593.457031-1.011719 1.011718-1.011719zm0 0"/></svg>