<!-- Generated by IcoMoon.io -->
<svg version="1.1" xmlns="http://www.w3.org/2000/svg" width="32" height="32" viewBox="0 0 32 32">
<title>lights</title>
<path d="M31.804 12.506l-0.072-0.234c-0.276-0.892-0.625-1.816-1.067-2.827-0.164-0.375-0.247-0.777-0.247-1.195v-0.766c0-1.046-0.832-1.9-1.869-1.937v-2.671c0-0.518-0.42-0.938-0.938-0.938h-23.208c-0.518 0-0.938 0.42-0.938 0.938v2.671c-1.044 0.029-1.885 0.887-1.885 1.938v0.766c0 0.418-0.083 0.82-0.247 1.195-0.443 1.011-0.791 1.936-1.067 2.827l-0.070 0.227c-0.556 1.801 0.098 3.751 1.627 4.852l0.010 0.007c0.766 0.552 1.664 0.828 2.562 0.828 0.901 0 1.803-0.278 2.571-0.835 1.522-1.102 2.172-3.049 1.618-4.845l-0.072-0.233c-0.275-0.891-0.624-1.816-1.067-2.827-0.164-0.375-0.247-0.777-0.247-1.195v-0.766c0-1.041-0.825-1.893-1.856-1.937v-1.734h9.722v6.698h-0.487c-1.42 0-2.576 1.156-2.576 2.576v1.254c0 0.768-0.153 1.506-0.455 2.196-0.715 1.634-1.279 3.126-1.723 4.564l-0.115 0.371c-0.835 2.702 0.146 5.628 2.443 7.282l0.015 0.011c1.15 0.828 2.497 1.242 3.844 1.242 1.353 0 2.705-0.417 3.858-1.252 2.284-1.654 3.26-4.576 2.427-7.271l-0.118-0.382c-0.444-1.438-1.008-2.931-1.723-4.564-0.302-0.69-0.455-1.428-0.455-2.196v-1.254c0-1.421-1.156-2.576-2.576-2.576h-0.483v-6.698h9.735v1.733c-1.038 0.036-1.871 0.891-1.871 1.937v0.766c0 0.418-0.083 0.82-0.247 1.195-0.442 1.011-0.791 1.935-1.067 2.827l-0.070 0.227c-0.556 1.801 0.098 3.751 1.627 4.852l0.010 0.007c0.767 0.552 1.664 0.828 2.562 0.828 0.901 0 1.802-0.278 2.571-0.835 1.522-1.102 2.172-3.049 1.617-4.845zM5.865 15.831c-0.877 0.635-2.057 0.637-2.936 0.004l-0.010-0.007c-0.875-0.63-1.249-1.746-0.931-2.776l0.070-0.227c0.254-0.823 0.579-1.683 0.993-2.628 0.070-0.16 0.131-0.323 0.183-0.488h0.218v2.5c-0.237 0.17-0.392 0.447-0.392 0.761 0 0.518 0.42 0.938 0.938 0.938h0.784c0.518 0 0.938-0.42 0.938-0.938 0-0.314-0.155-0.591-0.392-0.761v-2.5h0.216c0.052 0.165 0.112 0.328 0.182 0.488 0.414 0.946 0.739 1.806 0.993 2.629l0.072 0.234c0.317 1.027-0.055 2.141-0.926 2.772zM5.321 7.833h-1.865v-0.35c0-0.035 0.028-0.063 0.063-0.063h1.739c0.035 0 0.063 0.028 0.063 0.063zM13.259 27.243l-0.014-0.011c-1.641-1.181-2.343-3.273-1.746-5.205l0.115-0.371c0.423-1.37 0.962-2.798 1.649-4.366 0.049-0.112 0.095-0.224 0.138-0.338h1.662v4.228c-0.373 0.124-0.641 0.475-0.641 0.889 0 0.518 0.42 0.938 0.938 0.938h1.283c0.518 0 0.938-0.42 0.938-0.938 0-0.414-0.269-0.765-0.642-0.889v-4.228h1.659c0.043 0.113 0.089 0.226 0.138 0.338 0.686 1.568 1.226 2.996 1.649 4.366l0.118 0.382c0.595 1.926-0.102 4.015-1.735 5.198-0.824 0.597-1.791 0.895-2.758 0.895-0.963 0-1.926-0.296-2.749-0.888zM18.13 14.684c0.006 0.132 0.015 0.263 0.028 0.393h-4.319c0.013-0.13 0.022-0.261 0.028-0.393zM13.934 12.808c0.108-0.247 0.355-0.421 0.642-0.421h2.846c0.287 0 0.534 0.173 0.642 0.421zM29.087 15.831c-0.877 0.635-2.057 0.637-2.936 0.004l-0.010-0.007c-0.875-0.63-1.25-1.746-0.931-2.776l0.070-0.227c0.254-0.823 0.579-1.683 0.993-2.628 0.070-0.16 0.131-0.323 0.183-0.488h0.218v2.5c-0.237 0.17-0.392 0.447-0.392 0.761 0 0.518 0.42 0.938 0.938 0.938h0.784c0.518 0 0.938-0.42 0.938-0.938 0-0.314-0.155-0.591-0.392-0.761v-2.5h0.216c0.052 0.165 0.112 0.328 0.182 0.488 0.414 0.945 0.739 1.805 0.993 2.628l0.072 0.234c0.317 1.027-0.055 2.141-0.926 2.772zM26.74 7.42h1.739c0.035 0 0.063 0.028 0.063 0.063v0.35h-1.865v-0.35c0-0.035 0.029-0.063 0.063-0.063z"></path>
</svg>
