<svg height="512pt" viewBox="-57 0 512 512.001" width="512pt" xmlns="http://www.w3.org/2000/svg"><path d="m95.054688 139.238281c0 8.285157 6.714843 15 15 15 8.285156 0 15-6.714843 15-15 0-23.132812 18.820312-41.949219 41.953124-41.949219 8.28125 0 15-6.71875 15-15 0-8.285156-6.71875-15-15-15-39.675781 0-71.953124 32.277344-71.953124 71.949219zm0 0"/><path d="m70.933594 148.574219c8.285156 0 15-6.714844 15-15 0-41.578125 33.828125-75.410157 75.410156-75.410157 8.285156 0 15-6.714843 15-15 0-8.28125-6.714844-15-15-15-58.125 0-105.410156 47.289063-105.410156 105.410157 0 8.285156 6.714844 15 15 15zm0 0"/><path d="m178.25 133.574219c0 9.339843-7.570312 16.90625-16.90625 16.90625s-16.90625-7.566407-16.90625-16.90625c0-9.335938 7.570312-16.902344 16.90625-16.902344s16.90625 7.566406 16.90625 16.902344zm0 0"/><path d="m308.007812 0c-49.636718 0-89.875 40.238281-89.875 89.871094v102.65625h-59.464843c-30.152344 0-54.597657 24.441406-54.597657 54.59375v11.476562c0 8.285156 6.71875 15 15 15h3.800782v17.886719c0 8.078125 6.207031 15.027344 14.277344 15.40625 8.613281.40625 15.722656-6.457031 15.722656-14.984375v-18.308594h65.261718v130.554688h-52.792968c-5.773438 0-10.925782 3.363281-13.527344 8.515625-2.679688 5.300781-8.003906 8.585937-13.941406 8.585937-5.933594 0-11.261719-3.285156-13.9375-8.585937-2.601563-5.152344-7.757813-8.515625-13.527344-8.515625h-70.699219c-6.535156 0-12.320312 4.230468-14.296875 10.460937l-24.707031 77.851563c-1.808594 5.703125-.082031 12.0625 4.695313 16.066406 2.769531 2.324219 6.335937 3.46875 9.945312 3.46875h367.535156c8.285156 0 15-6.714844 15-15v-407.128906c0-49.632813-40.234375-89.871094-89.871094-89.871094zm-205.757812 434.152344c8.535156 10.730468 21.484375 17.097656 35.621094 17.097656 14.140625 0 27.089844-6.367188 35.625-17.097656h51.566406l15.183594 47.847656h-204.746094l15.183594-47.847656zm203.527344-404.152344h4.460937c30.925781 0 56.238281 24.488281 57.578125 55.09375h-119.617187c1.34375-30.605469 26.652343-55.09375 57.578125-55.09375zm-55.441406 384.613281c-.503907-1.585937-1.253907-3.039062-2.199219-4.328125v-295.191406h119.742187v366.90625h-96.160156zm-38.167969-171.015625h-77.84375c1.714843-11.898437 11.976562-21.070312 24.34375-21.070312h53.5zm0 0"/></svg>