<!-- Generated by IcoMoon.io -->
<svg version="1.1" xmlns="http://www.w3.org/2000/svg" width="32" height="32" viewBox="0 0 32 32">
<title>dispenser</title>
<path d="M9.503 8.702c0 0.518 0.42 0.938 0.938 0.938s0.938-0.42 0.938-0.938c0-1.446 1.176-2.622 2.622-2.622 0.518 0 0.938-0.42 0.938-0.938s-0.42-0.938-0.938-0.938c-2.48 0-4.497 2.017-4.497 4.497z"></path>
<path d="M7.996 9.286c0.518 0 0.938-0.42 0.938-0.938 0-2.599 2.114-4.713 4.713-4.713 0.518 0 0.938-0.42 0.938-0.938s-0.42-0.938-0.938-0.938c-3.633 0-6.588 2.956-6.588 6.588 0 0.518 0.42 0.938 0.938 0.938z"></path>
<path d="M14.703 8.348c0 0.584-0.473 1.057-1.057 1.057s-1.057-0.473-1.057-1.057c0-0.583 0.473-1.056 1.057-1.056s1.057 0.473 1.057 1.056z"></path>
<path d="M22.813 0c-3.102 0-5.617 2.515-5.617 5.617v6.416h-3.717c-1.885 0-3.412 1.528-3.412 3.412v0.717c0 0.518 0.42 0.938 0.938 0.938h0.238v1.118c0 0.505 0.388 0.939 0.892 0.963 0.538 0.025 0.983-0.404 0.983-0.937v-1.144h4.079v8.16h-3.3c-0.361 0-0.683 0.21-0.845 0.532-0.167 0.331-0.5 0.537-0.871 0.537s-0.704-0.205-0.871-0.537c-0.163-0.322-0.485-0.532-0.845-0.532h-4.419c-0.408 0-0.77 0.264-0.894 0.654l-1.544 4.866c-0.113 0.356-0.005 0.754 0.293 1.004 0.173 0.145 0.396 0.217 0.622 0.217h22.971c0.518 0 0.938-0.42 0.938-0.938v-25.445c0-3.102-2.515-5.617-5.617-5.617zM9.953 27.134c0.533 0.671 1.343 1.069 2.226 1.069s1.693-0.398 2.227-1.069h3.223l0.949 2.99h-12.797l0.949-2.99zM22.674 1.875h0.279c1.933 0 3.515 1.53 3.599 3.443h-7.476c0.084-1.913 1.666-3.443 3.599-3.443zM19.209 25.913c-0.032-0.099-0.078-0.19-0.137-0.27v-18.449h7.484v22.932h-6.010zM16.823 15.225h-4.865c0.107-0.744 0.749-1.317 1.521-1.317h3.344z"></path>
</svg>
