<svg height="512pt" viewBox="0 0 512 512" width="512pt" xmlns="http://www.w3.org/2000/svg"><path d="m256 44.261719c8.285156 0 15-6.71875 15-15v-14.261719c0-8.285156-6.714844-15-15-15s-15 6.714844-15 15v14.261719c0 8.28125 6.714844 15 15 15zm0 0"/><path d="m85.0625 106.277344c2.929688 2.929687 6.769531 4.394531 10.609375 4.394531 3.835937 0 7.675781-1.46875 10.605469-4.394531 5.855468-5.859375 5.855468-15.355469 0-21.214844l-10.085938-10.082031c-5.855468-5.859375-15.355468-5.859375-21.210937 0-5.859375 5.859375-5.859375 15.355469 0 21.214843zm0 0"/><path d="m29.261719 241h-14.261719c-8.285156 0-15 6.714844-15 15s6.714844 15 15 15h14.261719c8.28125 0 15-6.714844 15-15s-6.71875-15-15-15zm0 0"/><path d="m85.0625 405.722656-10.082031 10.082032c-5.859375 5.859374-5.859375 15.355468 0 21.214843 2.929687 2.929688 6.765625 4.394531 10.605469 4.394531 3.839843 0 7.679687-1.464843 10.605468-4.394531l10.085938-10.082031c5.855468-5.859375 5.855468-15.355469 0-21.214844-5.859375-5.859375-15.355469-5.859375-21.214844 0zm0 0"/><path d="m256 467.738281c-8.285156 0-15 6.71875-15 15v14.261719c0 8.285156 6.714844 15 15 15s15-6.714844 15-15v-14.261719c0-8.28125-6.714844-15-15-15zm0 0"/><path d="m426.9375 405.722656c-5.859375-5.859375-15.359375-5.855468-21.214844 0-5.859375 5.859375-5.855468 15.355469 0 21.214844l10.085938 10.082031c2.929687 2.929688 6.765625 4.394531 10.605468 4.394531 3.835938 0 7.679688-1.464843 10.605469-4.394531 5.859375-5.859375 5.855469-15.355469 0-21.214843zm0 0"/><path d="m497 241h-14.261719c-8.28125 0-15 6.714844-15 15s6.71875 15 15 15h14.261719c8.285156 0 15-6.714844 15-15s-6.714844-15-15-15zm0 0"/><path d="m415.808594 74.980469-10.085938 10.082031c-5.855468 5.859375-5.859375 15.355469 0 21.214844 2.929688 2.929687 6.769532 4.394531 10.605469 4.394531 3.839844 0 7.679687-1.464844 10.605469-4.394531l10.085937-10.082032c5.855469-5.859374 5.859375-15.355468 0-21.214843s-15.355469-5.859375-21.210937 0zm0 0"/><path d="m256 146.515625c-60.371094 0-109.484375 49.113281-109.484375 109.484375s49.113281 109.484375 109.484375 109.484375 109.484375-49.113281 109.484375-109.484375-49.113281-109.484375-109.484375-109.484375zm0 188.96875c-43.828125 0-79.484375-35.65625-79.484375-79.484375s35.65625-79.484375 79.484375-79.484375 79.484375 35.65625 79.484375 79.484375-35.65625 79.484375-79.484375 79.484375zm0 0"/><path d="m256 88.226562c-31.867188 0-61.683594 8.933594-87.085938 24.421876-.332031 0-.664062-.003907-1 .019531l-38.617187 2.722656c-7.453125.523437-13.382813 6.457031-13.90625 13.910156l-2.722656 38.613281c-.023438.335938-.019531.667969-.019531 1-15.488282 25.402344-24.421876 55.21875-24.421876 87.085938 0 92.511719 75.261719 167.773438 167.773438 167.773438s167.773438-75.261719 167.773438-167.773438-75.261719-167.773438-167.773438-167.773438zm0 305.546876c-75.96875 0-137.773438-61.804688-137.773438-137.773438s61.804688-137.773438 137.773438-137.773438 137.773438 61.804688 137.773438 137.773438-61.804688 137.773438-137.773438 137.773438zm0 0"/></svg>