<!-- Generated by IcoMoon.io -->
<svg version="1.1" xmlns="http://www.w3.org/2000/svg" width="32" height="32" viewBox="0 0 32 32">
<title>control-1</title>
<path d="M16 2.766c0.518 0 0.938-0.42 0.938-0.938v-0.891c0-0.518-0.42-0.938-0.938-0.938s-0.938 0.42-0.938 0.938v0.891c0 0.518 0.42 0.938 0.938 0.938z"></path>
<path d="M5.316 6.642c0.183 0.183 0.423 0.275 0.663 0.275s0.48-0.092 0.663-0.275c0.366-0.366 0.366-0.96 0-1.326l-0.63-0.63c-0.366-0.366-0.96-0.366-1.326 0s-0.366 0.96 0 1.326z"></path>
<path d="M1.829 15.063h-0.891c-0.518 0-0.938 0.42-0.938 0.938s0.42 0.938 0.938 0.938h0.891c0.518 0 0.937-0.42 0.937-0.938s-0.42-0.938-0.938-0.938z"></path>
<path d="M5.316 25.358l-0.63 0.63c-0.366 0.366-0.366 0.96 0 1.326 0.183 0.183 0.423 0.275 0.663 0.275s0.48-0.092 0.663-0.275l0.63-0.63c0.366-0.366 0.366-0.96 0-1.326s-0.96-0.366-1.326 0z"></path>
<path d="M16 29.234c-0.518 0-0.938 0.42-0.938 0.938v0.891c0 0.518 0.42 0.938 0.938 0.938s0.938-0.42 0.938-0.938v-0.891c0-0.518-0.42-0.938-0.938-0.938z"></path>
<path d="M26.684 25.358c-0.366-0.366-0.96-0.366-1.326 0s-0.366 0.96 0 1.326l0.63 0.63c0.183 0.183 0.423 0.275 0.663 0.275s0.48-0.092 0.663-0.275c0.366-0.366 0.366-0.96 0-1.326z"></path>
<path d="M31.063 15.063h-0.891c-0.518 0-0.938 0.42-0.938 0.938s0.42 0.938 0.938 0.938h0.891c0.518 0 0.938-0.42 0.938-0.938s-0.42-0.938-0.938-0.938z"></path>
<path d="M25.988 4.686l-0.63 0.63c-0.366 0.366-0.366 0.96 0 1.326 0.183 0.183 0.423 0.275 0.663 0.275s0.48-0.092 0.663-0.275l0.63-0.63c0.366-0.366 0.366-0.96 0-1.326s-0.96-0.366-1.326 0z"></path>
<path d="M16 9.157c-3.773 0-6.843 3.070-6.843 6.843s3.070 6.843 6.843 6.843 6.843-3.070 6.843-6.843-3.070-6.843-6.843-6.843zM16 20.968c-2.739 0-4.968-2.229-4.968-4.968s2.229-4.968 4.968-4.968 4.968 2.229 4.968 4.968-2.229 4.968-4.968 4.968z"></path>
<path d="M16 5.514c-1.992 0-3.855 0.558-5.443 1.526-0.021 0-0.041-0-0.063 0.001l-2.414 0.17c-0.466 0.033-0.836 0.404-0.869 0.869l-0.17 2.413c-0.001 0.021-0.001 0.042-0.001 0.063-0.968 1.588-1.526 3.451-1.526 5.443 0 5.782 4.704 10.486 10.486 10.486s10.486-4.704 10.486-10.486-4.704-10.486-10.486-10.486zM16 24.611c-4.748 0-8.611-3.863-8.611-8.611s3.863-8.611 8.611-8.611 8.611 3.863 8.611 8.611-3.863 8.611-8.611 8.611z"></path>
</svg>
