<svg height="512pt" viewBox="0 -84 512 512" width="512pt" xmlns="http://www.w3.org/2000/svg"><path d="m467 130.234375h-25.410156v-115.234375c0-8.285156-6.71875-15-15-15-8.285156 0-15 6.714844-15 15v115.234375h-366.589844c-24.8125 0-45 20.1875-45 45v99.859375c0 24.8125 20.1875 45 45 45h25.410156v8.878906c0 8.285156 6.71875 15 15 15 8.285156 0 15-6.714844 15-15v-8.878906h311.179688v8.878906c0 8.285156 6.714844 15 15 15 8.28125 0 15-6.714844 15-15v-8.878906h25.410156c24.8125 0 45-20.1875 45-45v-99.859375c0-24.8125-20.1875-45-45-45zm15 144.859375c0 8.273438-6.730469 15-15 15h-422c-8.269531 0-15-6.726562-15-15v-99.859375c0-8.269531 6.730469-15 15-15h422c8.269531 0 15 6.730469 15 15zm0 0"/><path d="m93.109375 216.730469h-19.304687c-8.285157 0-15 6.714843-15 15 0 8.28125 6.714843 15 15 15h19.308593c8.28125 0 15-6.71875 15-15 0-8.285157-6.71875-15-15.003906-15zm0 0"/><path d="m152.804688 216.730469h-19.308594c-8.28125 0-15 6.714843-15 15 0 8.28125 6.71875 15 15 15h19.308594c8.285156 0 15-6.71875 15-15 0-8.285157-6.714844-15-15-15zm0 0"/></svg>