<!-- Generated by IcoMoon.io -->
<svg version="1.1" xmlns="http://www.w3.org/2000/svg" width="32" height="32" viewBox="0 0 32 32">
<title>modem</title>
<path d="M29.188 13.39h-1.588v-7.202c0-0.518-0.42-0.938-0.938-0.938s-0.938 0.42-0.938 0.938v7.202h-22.912c-1.551 0-2.813 1.262-2.813 2.813v6.241c0 1.551 1.262 2.813 2.813 2.813h1.588v0.555c0 0.518 0.42 0.938 0.938 0.938s0.938-0.42 0.938-0.938v-0.555h19.449v0.555c0 0.518 0.42 0.938 0.938 0.938s0.938-0.42 0.938-0.938v-0.555h1.588c1.551 0 2.813-1.262 2.813-2.813v-6.241c0-1.551-1.262-2.813-2.813-2.813zM30.125 22.443c0 0.517-0.421 0.938-0.938 0.938h-26.375c-0.517 0-0.938-0.42-0.938-0.938v-6.241c0-0.517 0.421-0.938 0.938-0.938h26.375c0.517 0 0.938 0.421 0.938 0.938z"></path>
<path d="M5.819 18.796h-1.207c-0.518 0-0.938 0.42-0.938 0.938s0.42 0.938 0.938 0.938h1.207c0.518 0 0.938-0.42 0.938-0.938s-0.42-0.938-0.938-0.938z"></path>
<path d="M9.55 18.796h-1.207c-0.518 0-0.938 0.42-0.938 0.938s0.42 0.938 0.938 0.938h1.207c0.518 0 0.938-0.42 0.938-0.938s-0.42-0.938-0.938-0.938z"></path>
</svg>
