<!-- Generated by IcoMoon.io -->
<svg version="1.1" xmlns="http://www.w3.org/2000/svg" width="32" height="32" viewBox="0 0 32 32">
<title>low-battery</title>
<path d="M22.006 3.211h-2.491v-2.274c0-0.518-0.42-0.938-0.938-0.938h-5.15c-0.518 0-0.938 0.42-0.938 0.938v2.274h-2.49c-1.551 0-2.813 1.262-2.813 2.813v23.164c0 1.551 1.262 2.813 2.813 2.813h12.006c1.551 0 2.813-1.262 2.813-2.813v-23.164c0-1.551-1.262-2.813-2.813-2.813zM22.943 29.188c0 0.517-0.421 0.938-0.938 0.938h-12.006c-0.517 0-0.938-0.421-0.938-0.938v-23.164c0-0.517 0.421-0.938 0.938-0.938h12.006c0.517 0 0.938 0.421 0.938 0.938zM14.365 1.875h3.275v1.336h-3.275z"></path>
<path d="M20.662 22.923h-9.317c-0.518 0-0.938 0.42-0.938 0.938v3.675c0 0.518 0.42 0.938 0.938 0.938h9.317c0.518 0 0.938-0.42 0.938-0.938v-3.675c0-0.518-0.42-0.938-0.938-0.938zM19.724 26.597h-7.442v-1.8h7.442z"></path>
<path d="M20.662 16.668h-9.317c-0.518 0-0.938 0.42-0.938 0.938v3.675c0 0.518 0.42 0.938 0.938 0.938h9.317c0.518 0 0.938-0.42 0.938-0.938v-3.675c0-0.518-0.42-0.938-0.938-0.938zM19.724 20.343h-7.442v-1.8h7.442z"></path>
</svg>
