<svg height="512pt" viewBox="-115 0 512 512" width="512pt" xmlns="http://www.w3.org/2000/svg"><path d="m237.09375 51.382812h-39.851562v-36.382812c0-8.285156-6.714844-15-15-15h-82.394532c-8.285156 0-15 6.714844-15 15v36.382812h-39.847656c-24.8125 0-45 20.1875-45 45v370.617188c0 24.8125 20.1875 45 45 45h192.09375c24.8125 0 45-20.1875 45-45v-370.617188c0-24.8125-20.1875-45-45-45zm15 415.617188c0 8.269531-6.730469 15-15 15h-192.09375c-8.269531 0-15-6.730469-15-15v-370.617188c0-8.269531 6.730469-15 15-15h192.09375c8.269531 0 15 6.730469 15 15zm-137.246094-437h52.394532v21.382812h-52.394532zm0 0"/><path d="m215.585938 366.761719h-149.078126c-8.285156 0-15 6.714843-15 15v58.796875c0 8.28125 6.714844 15 15 15h149.078126c8.28125 0 15-6.71875 15-15v-58.796875c0-8.285157-6.71875-15-15-15zm-15 58.796875h-119.078126v-28.796875h119.078126zm0 0"/><path d="m215.585938 266.691406h-149.078126c-8.285156 0-15 6.714844-15 15v58.796875c0 8.285157 6.714844 15 15 15h149.078126c8.28125 0 15-6.714843 15-15v-58.796875c0-8.285156-6.71875-15-15-15zm-15 58.796875h-119.078126v-28.796875h119.078126zm0 0"/></svg>