<!-- Generated by IcoMoon.io -->
<svg version="1.1" xmlns="http://www.w3.org/2000/svg" width="32" height="32" viewBox="0 0 32 32">
<title>cctv-7</title>
<path d="M24 29h-1v-6c-0.006-0.087-0.023-0.167-0.050-0.244l0.002 0.007c3.072-2.202 5.050-5.761 5.050-9.783 0-6.627-5.373-12-12-12s-12 5.373-12 12c0 4.021 1.978 7.58 5.014 9.758l0.036 0.025c-0.026 0.069-0.044 0.15-0.052 0.233l-0 0.004v6h-1c-0.552 0-1 0.448-1 1s0.448 1 1 1v0h16c0.552 0 1-0.448 1-1s-0.448-1-1-1v0zM6 13c0-5.523 4.477-10 10-10s10 4.477 10 10c0 5.523-4.477 10-10 10v0c-5.52-0.006-9.994-4.48-10-9.999v-0.001zM11 23.9c1.466 0.698 3.185 1.105 5 1.105s3.534-0.407 5.072-1.136l-0.072 0.031v5.1h-10z"></path>
<path d="M23 13c0-3.866-3.134-7-7-7s-7 3.134-7 7c0 3.866 3.134 7 7 7v0c3.864-0.005 6.995-3.136 7-7v-0zM11 13c0-2.761 2.239-5 5-5s5 2.239 5 5c0 2.761-2.239 5-5 5v0c-2.76-0.003-4.997-2.24-5-5v-0z"></path>
</svg>
