<!-- Generated by IcoMoon.io -->
<svg version="1.1" xmlns="http://www.w3.org/2000/svg" width="32" height="32" viewBox="0 0 32 32">
<title>cctv-8</title>
<path d="M30 19c-0.552 0-1 0.448-1 1v0 3h-7.382l-3-6h7.382c0.552 0 1-0.448 1-1v0-12c0-0.552-0.448-1-1-1v0h-19c-0.552 0-1 0.448-1 1v0 2h-2c0-0.552-0.448-1-1-1s-1 0.448-1 1v0 8c0 0.552 0.448 1 1 1s1-0.448 1-1v0h2v2c0 0.552 0.448 1 1 1v0h9.382l3.723 7.447c0.168 0.33 0.505 0.553 0.895 0.553 0 0 0 0 0 0h8v3c0 0.552 0.448 1 1 1s1-0.448 1-1v0-8c0-0.552-0.448-1-1-1v0zM4 12v-4h2v4zM8 13v-8h17v10h-17z"></path>
</svg>
