<!-- Generated by IcoMoon.io -->
<svg version="1.1" xmlns="http://www.w3.org/2000/svg" width="32" height="32" viewBox="0 0 32 32">
<title>plug-1</title>
<path d="M25 10h-3v-8c0-0.552-0.448-1-1-1s-1 0.448-1 1v0 8h-8v-8c0-0.552-0.448-1-1-1s-1 0.448-1 1v0 8h-3c-0.552 0-1 0.448-1 1v0 11.271c0.004 1.985 1.232 3.683 2.968 4.38l0.032 0.011v3.338c0 0.552 0.448 1 1 1v0h12c0.552 0 1-0.448 1-1v0-3.338c1.768-0.708 2.996-2.406 3-4.39v-11.272c0-0.552-0.448-1-1-1v0zM11 29v-2h10v2zM24 22.271c-0.002 1.506-1.223 2.727-2.729 2.729h-10.542c-1.506-0.002-2.727-1.223-2.729-2.729v-10.271h16z"></path>
</svg>
