<!-- Generated by IcoMoon.io -->
<svg version="1.1" xmlns="http://www.w3.org/2000/svg" width="32" height="32" viewBox="0 0 32 32">
<title>lock-1</title>
<path d="M22 19c-0.552 0-1 0.448-1 1v0 9h-18v-12h15c0.552 0 1-0.448 1-1v0-8c0-3.866-3.134-7-7-7s-7 3.134-7 7v0 7h-3c-0.552 0-1 0.448-1 1v0 14c0 0.552 0.448 1 1 1v0h20c0.552 0 1-0.448 1-1v0-10c0-0.552-0.448-1-1-1v0zM7 8c0-2.761 2.239-5 5-5s5 2.239 5 5v0 7h-10z"></path>
<path d="M22 11c-0.552 0-1 0.448-1 1s0.448 1 1 1v0c1.657 0 3 1.343 3 3v0c0 0.552 0.448 1 1 1s1-0.448 1-1v0c-0.003-2.76-2.24-4.997-5-5h-0z"></path>
<path d="M22 7c-0.552 0-1 0.448-1 1s0.448 1 1 1v0c3.864 0.005 6.995 3.136 7 7v0c0 0.552 0.448 1 1 1s1-0.448 1-1v0c-0.006-4.968-4.032-8.994-8.999-9h-0.001z"></path>
<path d="M23 16c0 0.552-0.448 1-1 1s-1-0.448-1-1c0-0.552 0.448-1 1-1s1 0.448 1 1z"></path>
<path d="M12 27c0.552 0 1-0.448 1-1v0-1.184c1.175-0.424 2-1.53 2-2.828 0-1.657-1.343-3-3-3s-3 1.343-3 3c0 1.298 0.825 2.404 1.979 2.822l0.021 0.007v1.184c0 0.552 0.448 1 1 1v0zM12 21c0.552 0 1 0.448 1 1s-0.448 1-1 1c-0.552 0-1-0.448-1-1v0c0-0.552 0.448-1 1-1v0z"></path>
</svg>
