<svg height="512" viewBox="0 0 32 32" width="512" xmlns="http://www.w3.org/2000/svg"><g id="Layer_2" data-name="Layer 2"><path d="m22 19a1 1 0 0 0 -1 1v9h-18v-12h15a1 1 0 0 0 1-1v-8a7 7 0 0 0 -14 0v7h-3a1 1 0 0 0 -1 1v14a1 1 0 0 0 1 1h20a1 1 0 0 0 1-1v-10a1 1 0 0 0 -1-1zm-15-11a5 5 0 0 1 10 0v7h-10z"/><path d="m22 11a1 1 0 0 0 0 2 3 3 0 0 1 3 3 1 1 0 0 0 2 0 5.006 5.006 0 0 0 -5-5z"/><path d="m22 7a1 1 0 0 0 0 2 7.008 7.008 0 0 1 7 7 1 1 0 0 0 2 0 9.01 9.01 0 0 0 -9-9z"/><circle cx="22" cy="16" r="1"/><path d="m12 27a1 1 0 0 0 1-1v-1.184a3 3 0 1 0 -2 0v1.184a1 1 0 0 0 1 1zm0-6a1 1 0 1 1 -1 1 1 1 0 0 1 1-1z"/></g></svg>