<svg height="512" viewBox="0 0 32 32" width="512" xmlns="http://www.w3.org/2000/svg"><g id="Layer_2" data-name="Layer 2"><path d="m29 2h-26a1 1 0 0 0 -1 1v26a1 1 0 0 0 1 1h26a1 1 0 0 0 1-1v-26a1 1 0 0 0 -1-1zm-1 2v4h-24v-4zm-24 24v-18h24v18z"/><path d="m16 12a7 7 0 1 0 7 7 7.008 7.008 0 0 0 -7-7zm0 2a4.993 4.993 0 0 1 4.685 3.308 3.337 3.337 0 0 0 -3.744.668 1.332 1.332 0 0 1 -1.882 0 3.339 3.339 0 0 0 -3.744-.668 4.993 4.993 0 0 1 4.685-3.308zm0 10a5 5 0 0 1 -4.918-4.188l.884-.589a1.334 1.334 0 0 1 1.679.167 3.334 3.334 0 0 0 4.71 0 1.334 1.334 0 0 1 1.68-.166l.883.588a5 5 0 0 1 -4.918 4.188z"/><circle cx="7" cy="6" r="1"/><circle cx="10" cy="6" r="1"/><path d="m13 7h12a1 1 0 0 0 0-2h-12a1 1 0 0 0 0 2z"/></g></svg>