<!-- Generated by IcoMoon.io -->
<svg version="1.1" xmlns="http://www.w3.org/2000/svg" width="32" height="32" viewBox="0 0 32 32">
<title>washing-machine-3</title>
<path d="M29 2h-26c-0.552 0-1 0.448-1 1v0 26c0 0.552 0.448 1 1 1v0h26c0.552 0 1-0.448 1-1v0-26c0-0.552-0.448-1-1-1v0zM28 4v4h-24v-4zM4 28v-18h24v18z"></path>
<path d="M16 12c-3.866 0-7 3.134-7 7s3.134 7 7 7c3.866 0 7-3.134 7-7v0c-0.005-3.864-3.136-6.995-7-7h-0zM16 14c2.147 0.007 3.975 1.368 4.674 3.273l0.011 0.035c-0.408-0.192-0.886-0.303-1.39-0.303-0.919 0-1.75 0.371-2.354 0.972l0-0c-0.241 0.241-0.574 0.389-0.941 0.389s-0.7-0.149-0.941-0.389l0 0c-0.604-0.6-1.435-0.971-2.354-0.971-0.504 0-0.982 0.112-1.41 0.312l0.021-0.009c0.71-1.94 2.538-3.301 4.684-3.308h0.001zM16 24c-2.468-0.008-4.515-1.803-4.914-4.159l-0.004-0.029 0.884-0.589c0.207-0.139 0.463-0.222 0.737-0.222 0.368 0 0.701 0.149 0.942 0.389l-0-0c0.603 0.602 1.436 0.974 2.355 0.974s1.752-0.372 2.355-0.974l-0 0c0.241-0.24 0.574-0.389 0.942-0.389 0.275 0 0.531 0.083 0.743 0.226l-0.005-0.003 0.883 0.588c-0.403 2.385-2.45 4.18-4.917 4.188h-0.001z"></path>
<path d="M8 6c0 0.552-0.448 1-1 1s-1-0.448-1-1c0-0.552 0.448-1 1-1s1 0.448 1 1z"></path>
<path d="M11 6c0 0.552-0.448 1-1 1s-1-0.448-1-1c0-0.552 0.448-1 1-1s1 0.448 1 1z"></path>
<path d="M13 7h12c0.552 0 1-0.448 1-1s-0.448-1-1-1v0h-12c-0.552 0-1 0.448-1 1s0.448 1 1 1v0z"></path>
</svg>
