<!-- Generated by IcoMoon.io -->
<svg version="1.1" xmlns="http://www.w3.org/2000/svg" width="32" height="32" viewBox="0 0 32 32">
<title>refrigerator-1</title>
<path d="M25 1h-18c-0.552 0-1 0.448-1 1v0 28c0 0.552 0.448 1 1 1v0h18c0.552 0 1-0.448 1-1v0-28c0-0.552-0.448-1-1-1v0zM24 3v10h-16v-10zM8 29v-14h16v14z"></path>
<path d="M10 10c0.552 0 1-0.448 1-1v0-2c0-0.552-0.448-1-1-1s-1 0.448-1 1v0 2c0 0.552 0.448 1 1 1v0z"></path>
<path d="M10 20c-0.552 0-1 0.448-1 1v0 2c0 0.552 0.448 1 1 1s1-0.448 1-1v0-2c0-0.552-0.448-1-1-1v0z"></path>
</svg>
