<!-- Generated by IcoMoon.io -->
<svg version="1.1" xmlns="http://www.w3.org/2000/svg" width="32" height="32" viewBox="0 0 32 32">
<title>temperature-1</title>
<path d="M14 0h-4c-2.206 0-4 1.794-4 4v9.435c0 0.345-0.175 0.693-0.48 0.953-2.355 2.003-3.634 4.926-3.511 8.017 0.205 5.178 4.422 9.389 9.6 9.587 0.133 0.006 0.265 0.008 0.397 0.008 2.6 0 5.047-0.984 6.928-2.794 1.978-1.903 3.066-4.462 3.066-7.206 0-2.937-1.285-5.714-3.525-7.617-0.301-0.257-0.475-0.602-0.475-0.946v-9.437c0-2.206-1.794-4-4-4zM19.333 22c0 2.013-0.799 3.889-2.249 5.285-1.449 1.395-3.357 2.119-5.374 2.043-3.732-0.143-6.889-3.295-7.037-7.027-0.090-2.269 0.848-4.412 2.575-5.881 0.902-0.767 1.419-1.854 1.419-2.983v-9.435c0-0.735 0.598-1.333 1.333-1.333h4c0.735 0 1.333 0.598 1.333 1.333v9.437c0 1.128 0.515 2.214 1.415 2.978 1.643 1.396 2.585 3.432 2.585 5.585z"></path>
<path d="M13.423 18.692c-0.523 0.517-0.528 1.362-0.011 1.885 0.379 0.383 0.588 0.889 0.588 1.423 0 1.103-0.897 2-2 2s-2-0.897-2-2c0-0.534 0.209-1.039 0.588-1.423 0.517-0.523 0.512-1.368-0.011-1.885s-1.367-0.513-1.886 0.011c-0.875 0.886-1.358 2.057-1.358 3.297 0 2.573 2.093 4.667 4.667 4.667s4.667-2.094 4.667-4.667c0-1.24-0.483-2.411-1.359-3.297-0.518-0.523-1.362-0.528-1.885-0.011z"></path>
<path d="M12 17.333c0.736 0 1.333-0.597 1.333-1.333v-4c0-0.736-0.597-1.333-1.333-1.333s-1.333 0.597-1.333 1.333v4c0 0.736 0.597 1.333 1.333 1.333z"></path>
<path d="M28.667 9.333c0.736 0 1.333-0.597 1.333-1.333s-0.597-1.333-1.333-1.333h-6.667c-0.736 0-1.333 0.597-1.333 1.333s0.597 1.333 1.333 1.333z"></path>
</svg>
