<svg height="384pt" viewBox="-24 0 384 384" width="384pt" xmlns="http://www.w3.org/2000/svg"><path d="m144 0h-48c-26.472656 0-48 21.527344-48 48v113.222656c0 4.144532-2.101562 8.3125-5.765625 11.433594-28.257813 24.039062-43.609375 59.113281-42.1367188 96.207031 2.4648438 62.136719 53.0624998 112.664063 115.1992188 115.039063 1.59375.066406 3.183594.097656 4.769531.097656 31.199219 0 60.566406-11.808594 83.140625-33.527344 23.730469-22.839844 36.792969-53.542968 36.792969-86.472656 0-35.246094-15.414062-68.566406-42.304688-91.40625-3.613281-3.082031-5.695312-7.21875-5.695312-11.355469v-113.238281c0-26.472656-21.527344-48-48-48zm64 264c0 24.152344-9.582031 46.664062-26.992188 63.414062-17.390624 16.738282-40.285156 25.433594-64.488281 24.515626-44.789062-1.714844-82.671875-39.539063-84.445312-84.328126-1.082031-27.226562 10.175781-52.945312 30.894531-70.578124 10.824219-9.207032 17.03125-22.253907 17.03125-35.800782v-113.222656c0-8.824219 7.175781-16 16-16h48c8.824219 0 16 7.175781 16 16v113.238281c0 13.539063 6.183594 26.5625 16.976562 35.738281 19.710938 16.75 31.023438 41.183594 31.023438 67.023438zm0 0"/><path d="m137.074219 224.304688c-6.28125 6.207031-6.335938 16.34375-.128907 22.625 4.550782 4.597656 7.054688 10.664062 7.054688 17.070312 0 13.230469-10.765625 24-24 24-13.230469 0-24-10.769531-24-24 0-6.40625 2.503906-12.472656 7.058594-17.070312 6.207031-6.28125 6.148437-16.417969-.128906-22.625-6.28125-6.207032-16.410157-6.160157-22.632813.128906-10.503906 10.628906-16.296875 24.6875-16.296875 39.566406 0 30.871094 25.121094 56 56 56 30.882812 0 56-25.128906 56-56 0-14.878906-5.792969-28.9375-16.304688-39.566406-6.214843-6.28125-16.34375-6.335938-22.621093-.128906zm0 0"/><path d="m120 208c8.832031 0 16-7.167969 16-16v-48c0-8.832031-7.167969-16-16-16s-16 7.167969-16 16v48c0 8.832031 7.167969 16 16 16zm0 0"/><path d="m320 112c8.832031 0 16-7.167969 16-16s-7.167969-16-16-16h-80c-8.832031 0-16 7.167969-16 16s7.167969 16 16 16zm0 0"/></svg>