<svg height="383pt" viewBox="-48 0 383 383.976" width="383pt" xmlns="http://www.w3.org/2000/svg"><path d="m216.503906 32c0-17.648438-14.351562-32-32-32h-80c-17.648437 0-32 14.351562-32 32v66.640625c0 9.847656-4.917968 19.136719-13.503906 25.464844-41.785156 30.832031-63.3125 80.238281-57.609375 132.167969 7.289063 66.199218 60.617187 119.535156 126.816406 126.824218 5.328125.589844 10.65625.878906 15.960938.878906 35.488281 0 69.929687-12.96875 96.410156-36.6875 30.453125-27.289062 47.925781-66.394531 47.925781-107.289062 0-45.464844-21.816406-88.742188-58.359375-115.792969-8.671875-6.40625-13.640625-15.734375-13.640625-25.582031zm-32 0v32h-80v-32zm72 208c0 31.808594-13.582031 62.230469-37.28125 83.457031-24.023437 21.519531-55.132812 31.398438-87.511718 27.832031-51.421876-5.664062-92.839844-47.097656-98.503907-98.511718-4.445312-40.464844 12.296875-78.945313 44.800781-102.929688 16.839844-12.421875 26.496094-31.085937 26.496094-51.207031v-2.640625h80v2.625c0 20.101562 9.695313 38.808594 26.609375 51.320312 28.421875 21.023438 45.390625 54.695313 45.390625 90.054688zm0 0"/><path d="m180.382812 232.480469-33.4375-8.351563 23.800782-19.832031c6.789062-5.664063 7.703125-15.746094 2.046875-22.535156-5.65625-6.785157-15.746094-7.714844-22.527344-2.050781l-48 40c-4.632813 3.855468-6.699219 9.992187-5.351563 15.855468 1.34375 5.875 5.863282 10.496094 11.710938 11.960938l33.4375 8.351562-23.796875 19.832032c-6.792969 5.664062-7.707031 15.746093-2.050781 22.535156 3.167968 3.800781 7.714844 5.761718 12.296875 5.761718 3.609375 0 7.242187-1.214843 10.234375-3.703124l48-40c4.628906-3.855469 6.695312-9.992188 5.351562-15.855469-1.34375-5.890625-5.867187-10.511719-11.714844-11.96875zm0 0"/></svg>