<!-- Generated by IcoMoon.io -->
<svg version="1.1" xmlns="http://www.w3.org/2000/svg" width="32" height="32" viewBox="0 0 32 32">
<title>light-bulb</title>
<path d="M22.084 2.667c0-1.471-1.196-2.667-2.667-2.667h-6.667c-1.471 0-2.667 1.196-2.667 2.667v5.554c0 0.821-0.41 1.595-1.125 2.122-3.482 2.569-5.276 6.687-4.801 11.015 0.607 5.517 5.052 9.962 10.569 10.569 0.444 0.049 0.888 0.073 1.33 0.073 2.958 0 5.828-1.081 8.035-3.057 2.538-2.274 3.994-5.533 3.994-8.941 0-3.789-1.818-7.396-4.864-9.65-0.723-0.534-1.137-1.311-1.137-2.132zM19.417 2.667v2.667h-6.667v-2.667zM25.418 20.001c0 2.651-1.132 5.186-3.107 6.955-2.002 1.793-4.595 2.617-7.293 2.319-4.285-0.472-7.737-3.925-8.209-8.21-0.37-3.372 1.025-6.579 3.734-8.578 1.403-1.035 2.208-2.591 2.208-4.268v-0.22h6.667v0.219c0 1.675 0.808 3.234 2.218 4.277 2.369 1.752 3.783 4.558 3.783 7.505z"></path>
<path d="M19.074 19.375l-2.787-0.696 1.984-1.653c0.566-0.472 0.642-1.312 0.171-1.878s-1.312-0.643-1.877-0.171l-4 3.334c-0.386 0.321-0.558 0.833-0.446 1.321s0.489 0.875 0.976 0.997l2.787 0.696-1.983 1.653c-0.566 0.472-0.642 1.312-0.171 1.878 0.264 0.317 0.643 0.48 1.025 0.48 0.301 0 0.604-0.101 0.853-0.309l4-3.334c0.386-0.321 0.558-0.833 0.446-1.321-0.112-0.491-0.489-0.876-0.976-0.997z"></path>
</svg>
