<svg height="384pt" viewBox="-40 0 384 384" width="384pt" xmlns="http://www.w3.org/2000/svg"><path d="m232 65.527344v-17.527344c0-26.472656-21.527344-48-48-48h-136c-26.472656 0-48 21.527344-48 48v320c0 8.832031 7.167969 16 16 16s16-7.167969 16-16v-320c0-8.824219 7.175781-16 16-16h136c8.824219 0 16 7.175781 16 16v17.558594c-16.40625 3-31.648438 10.496094-44.167969 22.226562-17.6875 16.574219-27.832031 39.984375-27.832031 64.214844v24c0 17.648438 14.351562 32 32 32h112c17.648438 0 32-14.351562 32-32v-21.527344c0-44.074218-30.902344-81.242187-72-88.945312zm40 110.472656h-112v-24c0-15.648438 6.289062-30.167969 17.71875-40.871094 10.480469-9.832031 23.953125-15.128906 38.25-15.128906 1.253906 0 2.519531.039062 3.792969.128906 29.292969 1.886719 52.238281 27.519532 52.238281 58.34375zm0 0"/><path d="m280 232c-8.832031 0-16 7.167969-16 16v16c0 8.832031 7.167969 16 16 16s16-7.167969 16-16v-16c0-8.832031-7.167969-16-16-16zm0 0"/><path d="m216 232c-8.832031 0-16 7.167969-16 16v16c0 8.832031 7.167969 16 16 16s16-7.167969 16-16v-16c0-8.832031-7.167969-16-16-16zm0 0"/><path d="m152 232c-8.832031 0-16 7.167969-16 16v16c0 8.832031 7.167969 16 16 16s16-7.167969 16-16v-16c0-8.832031-7.167969-16-16-16zm0 0"/><path d="m280 312c-8.832031 0-16 7.167969-16 16v16c0 8.832031 7.167969 16 16 16s16-7.167969 16-16v-16c0-8.832031-7.167969-16-16-16zm0 0"/><path d="m216 312c-8.832031 0-16 7.167969-16 16v16c0 8.832031 7.167969 16 16 16s16-7.167969 16-16v-16c0-8.832031-7.167969-16-16-16zm0 0"/><path d="m152 312c-8.832031 0-16 7.167969-16 16v16c0 8.832031 7.167969 16 16 16s16-7.167969 16-16v-16c0-8.832031-7.167969-16-16-16zm0 0"/></svg>