<!-- Generated by IcoMoon.io -->
<svg version="1.1" xmlns="http://www.w3.org/2000/svg" width="32" height="32" viewBox="0 0 32 32">
<title>shower-1</title>
<path d="M22.667 5.461v-1.461c0-2.206-1.794-4-4-4h-11.333c-2.206 0-4 1.794-4 4v26.667c0 0.736 0.597 1.333 1.333 1.333s1.333-0.597 1.333-1.333v-26.667c0-0.735 0.598-1.333 1.333-1.333h11.333c0.735 0 1.333 0.598 1.333 1.333v1.463c-1.367 0.25-2.637 0.875-3.681 1.852-1.474 1.381-2.319 3.332-2.319 5.351v2c0 1.471 1.196 2.667 2.667 2.667h9.333c1.471 0 2.667-1.196 2.667-2.667v-1.794c0-3.673-2.575-6.77-6-7.412zM26 14.667h-9.333v-2c0-1.304 0.524-2.514 1.477-3.406 0.873-0.819 1.996-1.261 3.188-1.261 0.105 0 0.21 0.003 0.316 0.011 2.441 0.157 4.353 2.293 4.353 4.862z"></path>
<path d="M26.667 19.333c-0.736 0-1.333 0.597-1.333 1.333v1.333c0 0.736 0.597 1.333 1.333 1.333s1.333-0.597 1.333-1.333v-1.333c0-0.736-0.597-1.333-1.333-1.333z"></path>
<path d="M21.333 19.333c-0.736 0-1.333 0.597-1.333 1.333v1.333c0 0.736 0.597 1.333 1.333 1.333s1.333-0.597 1.333-1.333v-1.333c0-0.736-0.597-1.333-1.333-1.333z"></path>
<path d="M16 19.333c-0.736 0-1.333 0.597-1.333 1.333v1.333c0 0.736 0.597 1.333 1.333 1.333s1.333-0.597 1.333-1.333v-1.333c0-0.736-0.597-1.333-1.333-1.333z"></path>
<path d="M26.667 26c-0.736 0-1.333 0.597-1.333 1.333v1.333c0 0.736 0.597 1.333 1.333 1.333s1.333-0.597 1.333-1.333v-1.333c0-0.736-0.597-1.333-1.333-1.333z"></path>
<path d="M21.333 26c-0.736 0-1.333 0.597-1.333 1.333v1.333c0 0.736 0.597 1.333 1.333 1.333s1.333-0.597 1.333-1.333v-1.333c0-0.736-0.597-1.333-1.333-1.333z"></path>
<path d="M16 26c-0.736 0-1.333 0.597-1.333 1.333v1.333c0 0.736 0.597 1.333 1.333 1.333s1.333-0.597 1.333-1.333v-1.333c0-0.736-0.597-1.333-1.333-1.333z"></path>
</svg>
