<!-- Generated by IcoMoon.io -->
<svg version="1.1" xmlns="http://www.w3.org/2000/svg" width="32" height="32" viewBox="0 0 32 32">
<title>garage-4</title>
<path d="M29.333 0h-26.667c-1.471 0-2.667 1.196-2.667 2.667v26.667c0 1.471 1.196 2.667 2.667 2.667h26.667c1.471 0 2.667-1.196 2.667-2.667v-26.667c0-1.471-1.196-2.667-2.667-2.667zM24 18.667h-16v-2.667h16zM8 21.333h16v2.667h-16zM24 13.333h-16v-2.667h16zM8 26.667h16v2.667h-16zM29.333 29.333h-2.667v-18.667c0-1.471-1.196-2.667-2.667-2.667h-16c-1.471 0-2.667 1.196-2.667 2.667v18.667h-2.667l-0.001-26.667h26.668z"></path>
</svg>
