<svg height="384pt" viewBox="0 0 384 384" width="384pt" xmlns="http://www.w3.org/2000/svg"><path d="m100.664062 203.25c6.230469 6.261719 16.375 6.285156 22.625.046875 17.445313-17.367187 42.496094-27.335937 68.710938-27.335937s51.265625 9.96875 68.710938 27.335937c3.121093 3.109375 7.199218 4.664063 11.289062 4.664063 4.105469 0 8.207031-1.570313 11.335938-4.710938 6.230468-6.257812 6.214843-16.394531-.046876-22.625-23.394531-23.304688-56.664062-36.664062-91.289062-36.664062s-67.894531 13.359374-91.289062 36.664062c-6.261719 6.230469-6.277344 16.367188-.046876 22.625zm0 0"/><path d="m192 207.960938c-17.558594 0-39.648438 8.910156-51.367188 20.734374-6.21875 6.28125-6.167968 16.410157.101563 22.625 6.28125 6.214844 16.402344 6.167969 22.632813-.105468 5.738281-5.78125 19.648437-11.253906 28.632812-11.253906s22.894531 5.472656 28.632812 11.261718c3.136719 3.152344 7.246094 4.738282 11.367188 4.738282 4.070312 0 8.144531-1.542969 11.265625-4.640626 6.269531-6.214843 6.320313-16.34375.101563-22.625-11.71875-11.824218-33.808594-20.734374-51.367188-20.734374zm0 0"/><path d="m192 271.960938c-8.832031 0-16 7.167968-16 16v16c0 8.832031 7.167969 16 16 16s16-7.167969 16-16v-16c0-8.832032-7.167969-16-16-16zm0 0"/><path d="m369.511719 109.832031-160.335938-104.871093c-10.441406-6.632813-23.917969-6.632813-34.527343.109374l-160.167969 104.761719c-9.066407 5.945313-14.480469 15.953125-14.480469 26.785157v215.34375c0 17.648437 14.351562 32 32 32h320c17.648438 0 32-14.351563 32-32v-215.34375c0-10.832032-5.414062-20.839844-14.488281-26.785157zm-17.511719 242.128907h-320v-215.34375l159.832031-104.761719 160.167969 104.761719zm0 0"/></svg>