<!-- Generated by IcoMoon.io -->
<svg version="1.1" xmlns="http://www.w3.org/2000/svg" width="32" height="32" viewBox="0 0 32 32">
<title>wireless</title>
<path d="M8.389 16.938c0.519 0.522 1.365 0.524 1.885 0.004 1.454-1.447 3.541-2.278 5.726-2.278s4.272 0.831 5.726 2.278c0.26 0.259 0.6 0.389 0.941 0.389 0.342 0 0.684-0.131 0.945-0.393 0.519-0.521 0.518-1.366-0.004-1.885-1.95-1.942-4.722-3.055-7.607-3.055s-5.658 1.113-7.607 3.055c-0.522 0.519-0.523 1.364-0.004 1.885z"></path>
<path d="M16 17.33c-1.463 0-3.304 0.742-4.281 1.728-0.518 0.523-0.514 1.367 0.008 1.885s1.367 0.514 1.886-0.009c0.478-0.482 1.637-0.938 2.386-0.938s1.908 0.456 2.386 0.938c0.261 0.263 0.604 0.395 0.947 0.395 0.339 0 0.679-0.129 0.939-0.387 0.522-0.518 0.527-1.362 0.008-1.885-0.977-0.985-2.817-1.728-4.281-1.728z"></path>
<path d="M16 22.663c-0.736 0-1.333 0.597-1.333 1.333v1.333c0 0.736 0.597 1.333 1.333 1.333s1.333-0.597 1.333-1.333v-1.333c0-0.736-0.597-1.333-1.333-1.333z"></path>
<path d="M30.793 9.153l-13.361-8.739c-0.87-0.553-1.993-0.553-2.877 0.009l-13.347 8.73c-0.756 0.495-1.207 1.329-1.207 2.232v17.945c0 1.471 1.196 2.667 2.667 2.667h26.667c1.471 0 2.667-1.196 2.667-2.667v-17.945c0-0.903-0.451-1.737-1.207-2.232zM29.333 29.33h-26.667v-17.945l13.319-8.73 13.347 8.73z"></path>
</svg>
