<!-- Generated by IcoMoon.io -->
<svg version="1.1" xmlns="http://www.w3.org/2000/svg" width="32" height="32" viewBox="0 0 32 32">
<title>plug-2</title>
<path d="M17.333 14.667h-2.667c-0.736 0-1.333 0.597-1.333 1.333s0.597 1.333 1.333 1.333h2.667c0.736 0 1.333-0.597 1.333-1.333s-0.597-1.333-1.333-1.333z"></path>
<path d="M10.667 0c-0.736 0-1.333 0.597-1.333 1.333v6.667h-1.333c-0.736 0-1.333 0.597-1.333 1.333v8c0 2.951 1.937 5.504 4.667 6.361v2.305c0 1.471 1.196 2.667 2.667 2.667h0.667v2c0 0.736 0.597 1.333 1.333 1.333s1.333-0.597 1.333-1.333v-2h0.667c1.471 0 2.667-1.196 2.667-2.667v-2.305c2.728-0.856 4.667-3.409 4.667-6.361v-8c0-0.736-0.597-1.333-1.333-1.333h-1.333v-6.667c0-0.736-0.597-1.333-1.333-1.333s-1.333 0.597-1.333 1.333v6.667h-8v-6.667c0-0.736-0.597-1.333-1.333-1.333zM18 26h-4v-2h4zM22.667 17.333c0 2.016-1.504 3.723-3.494 3.97-0.167 0.020-0.334 0.030-0.506 0.030h-5.333c-0.171 0-0.339-0.010-0.505-0.030-1.993-0.249-3.495-1.955-3.495-3.97v-6.667h13.333z"></path>
</svg>
