<svg height="384pt" viewBox="-80 0 384 384" width="384pt" xmlns="http://www.w3.org/2000/svg"><path d="m128 176h-32c-8.832031 0-16 7.167969-16 16s7.167969 16 16 16h32c8.832031 0 16-7.167969 16-16s-7.167969-16-16-16zm0 0"/><path d="m48 0c-8.832031 0-16 7.167969-16 16v80h-16c-8.832031 0-16 7.167969-16 16v96c0 35.414062 23.246094 66.046875 56 76.335938v27.664062c0 17.648438 14.351562 32 32 32h8v24c0 8.832031 7.167969 16 16 16s16-7.167969 16-16v-24h8c17.648438 0 32-14.351562 32-32v-27.664062c32.734375-10.273438 56-40.902344 56-76.335938v-96c0-8.832031-7.167969-16-16-16h-16v-80c0-8.832031-7.167969-16-16-16s-16 7.167969-16 16v80h-96v-80c0-8.832031-7.167969-16-16-16zm88 312h-48v-24h48zm56-104c0 24.191406-18.046875 44.671875-41.929688 47.640625-2 .238281-4.007812.359375-6.070312.359375h-64c-2.054688 0-4.0625-.121094-6.0625-.359375-23.914062-2.992187-41.9375-23.457031-41.9375-47.640625v-80h160zm0 0"/></svg>