<!-- Generated by IcoMoon.io -->
<svg version="1.1" xmlns="http://www.w3.org/2000/svg" width="32" height="32" viewBox="0 0 32 32">
<title>air-conditioner-4</title>
<path d="M29.333 2h-26.667c-1.471 0-2.667 1.196-2.667 2.667v9.333c0 1.471 1.196 2.667 2.667 2.667h26.667c1.471 0 2.667-1.196 2.667-2.667v-9.333c0-1.471-1.196-2.667-2.667-2.667zM8.375 14l0.414-1.657c0.148-0.595 0.681-1.010 1.293-1.010h11.836c0.613 0 1.145 0.415 1.293 1.011l0.414 1.656zM29.333 14h-2.959l-0.576-2.303c-0.446-1.784-2.041-3.031-3.881-3.031h-11.836c-1.84 0-3.435 1.246-3.881 3.030l-0.576 2.303h-2.959l-0.001-9.333h26.668z"></path>
<path d="M9.109 23.669l1.886-2.115c0.49-0.549 0.442-1.393-0.108-1.882s-1.393-0.443-1.883 0.107l-1.863 2.089c-0.737 0.752-1.142 1.744-1.142 2.799s0.405 2.047 1.142 2.799l1.863 2.089c0.263 0.295 0.629 0.446 0.995 0.446 0.316 0 0.633-0.111 0.887-0.339 0.549-0.49 0.598-1.333 0.108-1.882l-1.886-2.115c-0.017-0.019-0.035-0.038-0.053-0.055-0.251-0.252-0.39-0.587-0.39-0.943s0.139-0.691 0.39-0.943c0.018-0.017 0.036-0.037 0.053-0.055z"></path>
<path d="M16.443 23.669l1.886-2.115c0.49-0.549 0.442-1.393-0.108-1.882s-1.393-0.443-1.883 0.107l-1.863 2.089c-0.737 0.752-1.142 1.744-1.142 2.799s0.405 2.047 1.142 2.799l1.863 2.089c0.263 0.295 0.629 0.446 0.995 0.446 0.316 0 0.633-0.111 0.887-0.339 0.549-0.49 0.598-1.333 0.108-1.882l-1.886-2.115c-0.017-0.019-0.035-0.038-0.053-0.055-0.251-0.252-0.39-0.587-0.39-0.943s0.139-0.691 0.39-0.943c0.018-0.017 0.036-0.037 0.053-0.055z"></path>
<path d="M23.776 23.669l1.886-2.115c0.49-0.549 0.442-1.393-0.108-1.882s-1.393-0.443-1.883 0.107l-1.863 2.089c-0.737 0.752-1.142 1.744-1.142 2.799s0.405 2.047 1.142 2.799l1.863 2.089c0.263 0.295 0.629 0.446 0.995 0.446 0.316 0 0.633-0.111 0.887-0.339 0.549-0.49 0.598-1.333 0.108-1.882l-1.886-2.115c-0.017-0.019-0.035-0.038-0.053-0.055-0.251-0.252-0.39-0.587-0.39-0.943s0.139-0.691 0.39-0.943c0.018-0.017 0.036-0.037 0.053-0.055z"></path>
</svg>
