<svg height="384pt" viewBox="0 -24 384 384" width="384pt" xmlns="http://www.w3.org/2000/svg"><path d="m352 0h-320c-17.648438 0-32 14.351562-32 32v112c0 17.648438 14.351562 32 32 32h320c17.648438 0 32-14.351562 32-32v-112c0-17.648438-14.351562-32-32-32zm-251.503906 144 4.96875-19.878906c1.78125-7.136719 8.167968-12.121094 15.519531-12.121094h142.03125c7.351563 0 13.738281 4.984375 15.519531 12.128906l4.96875 19.871094zm251.503906 0h-35.503906l-6.910156-27.632812c-5.355469-21.414063-24.496094-36.367188-46.570313-36.367188h-142.03125c-22.074219 0-41.214844 14.953125-46.570313 36.359375l-6.910156 27.640625h-35.503906l-.015625-112h320.015625zm0 0"/><path d="m109.3125 260.023438 22.632812-25.375c5.878907-6.59375 5.300782-16.710938-1.296874-22.585938-6.601563-5.886719-16.710938-5.320312-22.59375 1.289062l-22.351563 25.0625c-8.839844 9.027344-13.703125 20.929688-13.703125 33.585938s4.863281 24.558594 13.703125 33.585938l22.351563 25.0625c3.160156 3.542968 7.546874 5.351562 11.945312 5.351562 3.792969 0 7.59375-1.335938 10.648438-4.0625 6.589843-5.875 7.175781-15.992188 1.296874-22.585938l-22.632812-25.375c-.199219-.222656-.417969-.457031-.632812-.664062-3.015626-3.023438-4.679688-7.039062-4.679688-11.3125s1.664062-8.289062 4.679688-11.3125c.214843-.207031.433593-.441406.632812-.664062zm0 0"/><path d="m197.3125 260.023438 22.632812-25.375c5.878907-6.59375 5.300782-16.710938-1.296874-22.585938-6.59375-5.886719-16.710938-5.320312-22.59375 1.289062l-22.351563 25.0625c-8.839844 9.027344-13.703125 20.929688-13.703125 33.585938s4.863281 24.558594 13.703125 33.585938l22.351563 25.0625c3.160156 3.542968 7.546874 5.351562 11.945312 5.351562 3.792969 0 7.59375-1.335938 10.648438-4.0625 6.589843-5.875 7.175781-15.992188 1.296874-22.585938l-22.632812-25.375c-.199219-.222656-.417969-.457031-.632812-.664062-3.015626-3.023438-4.679688-7.039062-4.679688-11.3125s1.664062-8.289062 4.679688-11.3125c.214843-.207031.433593-.441406.632812-.664062zm0 0"/><path d="m285.3125 260.023438 22.632812-25.375c5.878907-6.59375 5.300782-16.710938-1.296874-22.585938-6.601563-5.886719-16.710938-5.320312-22.59375 1.289062l-22.351563 25.0625c-8.839844 9.027344-13.703125 20.929688-13.703125 33.585938s4.863281 24.558594 13.703125 33.585938l22.351563 25.0625c3.160156 3.542968 7.546874 5.351562 11.945312 5.351562 3.792969 0 7.59375-1.335938 10.648438-4.0625 6.589843-5.875 7.175781-15.992188 1.296874-22.585938l-22.632812-25.375c-.199219-.222656-.417969-.457031-.632812-.664062-3.015626-3.023438-4.679688-7.039062-4.679688-11.3125s1.664062-8.289062 4.679688-11.3125c.214843-.207031.433593-.441406.632812-.664062zm0 0"/></svg>