<!-- Generated by IcoMoon.io -->
<svg version="1.1" xmlns="http://www.w3.org/2000/svg" width="32" height="32" viewBox="0 0 32 32">
<title>refrigerator-2</title>
<path d="M22.667 32c0.736 0 1.333-0.597 1.333-1.333v-1.333c1.471 0 2.667-1.196 2.667-2.667v-24c0-1.471-1.196-2.667-2.667-2.667h-16c-1.471 0-2.667 1.196-2.667 2.667v24c0 1.471 1.196 2.667 2.667 2.667v1.333c0 0.736 0.597 1.333 1.333 1.333s1.333-0.597 1.333-1.333v-1.333h10.667v1.333c0 0.736 0.597 1.333 1.333 1.333zM8 2.667h16v13.333h-16.001l-0.001-13.333zM7.999 18.667h16.001v8h-16z"></path>
<path d="M11.333 12c0.736 0 1.333-0.597 1.333-1.333v-2.667c0-0.736-0.597-1.333-1.333-1.333s-1.333 0.597-1.333 1.333v2.667c0 0.736 0.597 1.333 1.333 1.333z"></path>
</svg>
