<svg height="384pt" viewBox="-64 0 384 384" width="384pt" xmlns="http://www.w3.org/2000/svg"><path d="m208 384c8.832031 0 16-7.167969 16-16v-16c17.648438 0 32-14.351562 32-32v-288c0-17.648438-14.351562-32-32-32h-192c-17.648438 0-32 14.351562-32 32v288c0 17.648438 14.351562 32 32 32v16c0 8.832031 7.167969 16 16 16s16-7.167969 16-16v-16h128v16c0 8.832031 7.167969 16 16 16zm-176-352h192v160h-192.007812l-.007813-160zm-.007812 192h192.007812v96h-192zm0 0"/><path d="m72 144c8.832031 0 16-7.167969 16-16v-32c0-8.832031-7.167969-16-16-16s-16 7.167969-16 16v32c0 8.832031 7.167969 16 16 16zm0 0"/></svg>