<svg height="384pt" viewBox="-24 0 384 384" width="384pt" xmlns="http://www.w3.org/2000/svg"><path d="m248 132.351562v-52.351562c0-17.648438-14.351562-32-32-32h-32v-32c0-8.832031-7.167969-16-16-16s-16 7.167969-16 16v32h-32c-17.648438 0-32 14.351562-32 32v52.351562c-53.761719 29.121094-88 85.953126-88 147.648438v16c0 8.832031 7.167969 16 16 16h80c0 39.703125 32.304688 72 72 72 39.703125 0 72-32.296875 72-72h80c8.832031 0 16-7.167969 16-16v-16c0-61.71875-34.257812-118.566406-88-147.648438zm-128-52.351562 47.886719-.007812c.035156 0 .074219.007812.113281.007812s.078125-.007812.121094-.007812l47.878906-.015626v38.976563c-.390625-.121094-.800781-.191406-1.191406-.3125-7.128906-2.082031-14.382813-3.65625-21.761719-4.753906-.621094-.085938-1.246094-.167969-1.863281-.253907-3.304688-.457031-6.625-.808593-9.976563-1.074218-.535156-.039063-1.0625-.09375-1.597656-.125-3.839844-.257813-7.714844-.433594-11.609375-.433594-3.902344 0-7.769531.175781-11.617188.441406-.519531.03125-1.046874.085938-1.566406.125-3.375.257813-6.726562.625-10.054687 1.082032-.585938.078124-1.167969.152343-1.761719.238281-7.457031 1.113281-14.800781 2.714843-21.992188 4.816406-.335937.097656-.671874.160156-1.007812.265625zm48 272c-22.054688 0-40-17.945312-40-40h80c0 22.054688-17.945312 40-40 40zm-136-72c0-52.769531 30.902344-101.167969 78.792969-123.359375 17.886719-8.394531 37.136719-12.640625 57.207031-12.640625 20.078125 0 39.320312 4.246094 57.273438 12.671875 47.832031 22.160156 78.726562 70.558594 78.726562 123.328125zm0 0"/></svg>