<!-- Generated by IcoMoon.io -->
<svg version="1.1" xmlns="http://www.w3.org/2000/svg" width="32" height="32" viewBox="0 0 32 32">
<title>lamp-2</title>
<path d="M22.667 11.029v-4.363c0-1.471-1.196-2.667-2.667-2.667h-2.667v-2.667c0-0.736-0.597-1.333-1.333-1.333s-1.333 0.597-1.333 1.333v2.667h-2.667c-1.471 0-2.667 1.196-2.667 2.667v4.363c-4.48 2.427-7.333 7.163-7.333 12.304v1.333c0 0.736 0.597 1.333 1.333 1.333h6.667c0 3.309 2.692 6 6 6s6-2.691 6-6h6.667c0.736 0 1.333-0.597 1.333-1.333v-1.333c0-5.143-2.855-9.881-7.333-12.304zM12 6.667l3.991-0.001c0.003 0 0.006 0.001 0.009 0.001s0.006-0.001 0.010-0.001l3.99-0.001v3.248c-0.033-0.010-0.067-0.016-0.099-0.026-0.594-0.174-1.199-0.305-1.813-0.396-0.052-0.007-0.104-0.014-0.155-0.021-0.275-0.038-0.552-0.067-0.831-0.090-0.045-0.003-0.089-0.008-0.133-0.010-0.32-0.021-0.643-0.036-0.967-0.036s-0.647 0.015-0.968 0.037c-0.043 0.003-0.087 0.007-0.131 0.010-0.281 0.021-0.561 0.052-0.838 0.090-0.049 0.007-0.097 0.013-0.147 0.020-0.621 0.093-1.233 0.226-1.833 0.401-0.028 0.008-0.056 0.013-0.084 0.022zM16 29.333c-1.838 0-3.333-1.495-3.333-3.333h6.667c0 1.838-1.495 3.333-3.333 3.333zM4.667 23.333c0-4.397 2.575-8.431 6.566-10.28 1.491-0.7 3.095-1.053 4.767-1.053s3.277 0.354 4.773 1.056c3.986 1.847 6.561 5.88 6.561 10.277z"></path>
</svg>
