<svg height="384pt" viewBox="-24 0 384 384" width="384pt" xmlns="http://www.w3.org/2000/svg"><path d="m304 0h-272c-17.648438 0-32 14.351562-32 32v320c0 17.648438 14.351562 32 32 32h272c17.648438 0 32-14.351562 32-32v-320c0-17.648438-14.351562-32-32-32zm0 64h-32v-32h32zm-96 0v-32h32v32zm-176-32h144v32h-144.023438v-32zm0 320-.015625-256h272.015625v256zm0 0"/><path d="m168 128c-52.9375 0-96 43.0625-96 96s43.0625 96 96 96 96-43.0625 96-96-43.0625-96-96-96zm0 160c-35.289062 0-64-28.710938-64-64s28.710938-64 64-64c29.753906 0 54.761719 20.441406 61.894531 48h-21.894531c-8.832031 0-16 7.167969-16 16s7.167969 16 16 16h21.894531c-7.132812 27.558594-32.140625 48-61.894531 48zm0 0"/></svg>