<!-- Generated by IcoMoon.io -->
<svg version="1.1" xmlns="http://www.w3.org/2000/svg" width="32" height="32" viewBox="0 0 32 32">
<title>washing-machine-4</title>
<path d="M27.333 0h-22.667c-1.471 0-2.667 1.196-2.667 2.667v26.667c0 1.471 1.196 2.667 2.667 2.667h22.667c1.471 0 2.667-1.196 2.667-2.667v-26.667c0-1.471-1.196-2.667-2.667-2.667zM27.333 5.333h-2.667v-2.667h2.667zM19.333 5.333v-2.667h2.667v2.667zM4.667 2.667h12v2.667h-12.002v-2.667zM4.667 29.333l-0.001-21.333h22.668v21.333z"></path>
<path d="M16 10.667c-4.411 0-8 3.589-8 8s3.589 8 8 8 8-3.589 8-8-3.589-8-8-8zM16 24c-2.941 0-5.333-2.393-5.333-5.333s2.393-5.333 5.333-5.333c2.48 0 4.563 1.703 5.158 4h-1.825c-0.736 0-1.333 0.597-1.333 1.333s0.597 1.333 1.333 1.333h1.825c-0.594 2.297-2.678 4-5.158 4z"></path>
</svg>
