<svg height="384pt" viewBox="-32 0 384 384" width="384pt" xmlns="http://www.w3.org/2000/svg"><path d="m256 96c17.648438 0 32-14.351562 32-32v-32c0-17.648438-14.351562-32-32-32h-224c-17.648438 0-32 14.351562-32 32v32c0 17.648438 14.351562 32 32 32h1.105469l13.71875 192.121094c-17.097657.632812-30.824219 14.632812-30.824219 31.878906v32c0 17.648438 14.351562 32 32 32h192c17.648438 0 32-14.351562 32-32v-32c0-17.246094-13.726562-31.246094-30.824219-31.878906l1.152344-16.121094h45.671875c17.648438 0 32-14.351562 32-32v-80c0-17.648438-14.351562-32-32-32h-35.382812l2.285156-32zm-224-64 224 .046875v31.953125h-224zm208 320h-192v-32l192 .046875zm48-192v80h-43.382812l5.710937-80zm-78.894531 128h-49.105469v-17.375l27.3125-27.3125c6.246094-6.25 6.246094-16.375 0-22.625-6.25-6.246094-16.375-6.246094-22.625 0l-20.6875 20.6875-20.6875-20.6875c-6.25-6.246094-16.375-6.246094-22.625 0-6.246094 6.25-6.246094 16.375 0 22.625l27.3125 27.3125v17.375h-49.105469l-13.710937-192h157.632812zm0 0"/></svg>