<!-- Generated by IcoMoon.io -->
<svg version="1.1" xmlns="http://www.w3.org/2000/svg" width="32" height="32" viewBox="0 0 32 32">
<title>mixer</title>
<path d="M24 8c1.471 0 2.667-1.196 2.667-2.667v-2.667c0-1.471-1.196-2.667-2.667-2.667h-18.667c-1.471 0-2.667 1.196-2.667 2.667v2.667c0 1.471 1.196 2.667 2.667 2.667h0.092l1.143 16.010c-1.425 0.053-2.569 1.219-2.569 2.657v2.667c0 1.471 1.196 2.667 2.667 2.667h16c1.471 0 2.667-1.196 2.667-2.667v-2.667c0-1.437-1.144-2.604-2.569-2.657l0.096-1.343h3.806c1.471 0 2.667-1.196 2.667-2.667v-6.667c0-1.471-1.196-2.667-2.667-2.667h-2.949l0.19-2.667zM5.333 2.667l18.667 0.004v2.663h-18.667zM22.667 29.333h-16v-2.667l16 0.004zM26.667 13.333v6.667h-3.615l0.476-6.667zM20.092 24h-4.092v-1.448l2.276-2.276c0.52-0.521 0.52-1.365 0-1.885s-1.365-0.52-1.885 0l-1.724 1.724-1.724-1.724c-0.521-0.52-1.365-0.52-1.885 0s-0.521 1.365 0 1.885l2.276 2.276v1.448h-4.092l-1.143-16h13.136z"></path>
</svg>
