<svg height="384pt" viewBox="0 -48 384 384" width="384pt" xmlns="http://www.w3.org/2000/svg"><path d="m368 0h-352c-8.832031 0-16 7.167969-16 16v48c0 16.167969 6.070312 30.910156 16 42.191406v5.808594c0 97.046875 78.953125 176 176 176s176-78.953125 176-176v-5.808594c9.929688-11.28125 16-26.023437 16-42.191406v-48c0-8.832031-7.167969-16-16-16zm-336 32h320v32c0 17.648438-14.351562 32-32 32h-256c-17.648438 0-32-14.351562-32-32zm128 192c0-17.648438 14.351562-32 32-32s32 14.351562 32 32-14.351562 32-32 32-32-14.351562-32-32zm93.359375 18.078125c1.695313-5.742187 2.640625-11.796875 2.640625-18.078125 0-35.289062-28.710938-64-64-64s-64 28.710938-64 64c0 6.28125.945312 12.335938 2.640625 18.078125-44.71875-21.183594-76.921875-64.605469-81.929687-116 4.914062 1.210937 10.007812 1.921875 15.289062 1.921875h256c5.28125 0 10.375-.710938 15.289062-1.921875-5.015624 51.394531-37.210937 94.816406-81.929687 116zm0 0"/></svg>