<!-- Generated by IcoMoon.io -->
<svg version="1.1" xmlns="http://www.w3.org/2000/svg" width="32" height="32" viewBox="0 0 32 32">
<title>cctv-9</title>
<path d="M30.667 4h-29.333c-0.736 0-1.333 0.597-1.333 1.333v4c0 1.347 0.506 2.576 1.333 3.516v0.484c0 8.087 6.579 14.667 14.667 14.667s14.667-6.579 14.667-14.667v-0.484c0.827-0.94 1.333-2.169 1.333-3.516v-4c0-0.736-0.597-1.333-1.333-1.333zM2.667 6.667h26.667v2.667c0 1.471-1.196 2.667-2.667 2.667h-21.333c-1.471 0-2.667-1.196-2.667-2.667zM13.333 22.667c0-1.471 1.196-2.667 2.667-2.667s2.667 1.196 2.667 2.667-1.196 2.667-2.667 2.667-2.667-1.196-2.667-2.667zM21.113 24.173c0.141-0.479 0.22-0.983 0.22-1.506 0-2.941-2.393-5.333-5.333-5.333s-5.333 2.393-5.333 5.333c0 0.523 0.079 1.028 0.22 1.506-3.727-1.765-6.41-5.384-6.827-9.667 0.41 0.101 0.834 0.16 1.274 0.16h21.333c0.44 0 0.865-0.059 1.274-0.16-0.418 4.283-3.101 7.901-6.827 9.667z"></path>
</svg>
