<svg id="Capa_1" enable-background="new 0 0 512 512" height="512" viewBox="0 0 512 512" width="512" xmlns="http://www.w3.org/2000/svg"><g><path d="m188.732 61.757c0-4.556 3.706-8.263 8.262-8.263h47.412c21.098 0 38.262-17.165 38.262-38.263v-15.231h-30v15.231c0 4.556-3.706 8.263-8.262 8.263h-47.412c-21.098 0-38.262 17.165-38.262 38.263v11.963h30z"/><path d="m229.332 110.709v11.964h30v-11.964c0-4.556 3.706-8.262 8.262-8.262h47.412c21.098 0 38.262-17.165 38.262-38.263v-15.231h-30v15.231c0 4.556-3.706 8.263-8.262 8.263h-47.412c-21.098 0-38.262 17.164-38.262 38.262z"/><path d="m379.699 155.511h-247.398c-38.206 51.42-53.639 114.744-53.639 178.244 0 63.501 15.44 126.825 53.646 178.245h247.383c38.206-51.42 53.646-114.744 53.646-178.245.001-63.5-15.431-126.824-53.638-178.244zm-15.311 326.489h-216.776c-13.607-20.23-23.991-45.451-30.605-73.633h86.985c4.445 25.2 26.388 44.07 52.007 44.13 25.62-.06 47.563-18.93 52.007-44.13h86.985c-6.612 28.182-16.996 53.403-30.603 73.633zm-127.9-94.771 19.512-29.676 19.512 29.676c4.222 7.197 4.362 15.892.362 23.312-4.211 7.81-12.033 11.731-19.874 11.771-7.841-.04-15.663-3.96-19.874-11.771-4-7.42-3.86-16.114.362-23.312zm68.065-8.862c-.989-2.327-2.135-4.61-3.467-6.826-14.782-23.02-30.055-45.737-45.086-68.596-15.031 22.859-30.304 45.576-45.086 68.596-1.332 2.216-2.478 4.499-3.467 6.826h-95.893c-1.901-14.421-2.892-29.363-2.892-44.612 0-57.847 14.125-111.344 38.941-148.244h216.793c24.816 36.9 38.941 90.397 38.941 148.244 0 15.25-.991 30.191-2.892 44.612z"/><path d="m218.085 221.511h75.83v30h-75.83z"/></g></svg>