<!-- Generated by IcoMoon.io -->
<svg version="1.1" xmlns="http://www.w3.org/2000/svg" width="32" height="32" viewBox="0 0 32 32">
<title>humidifier-1</title>
<path d="M11.796 3.86c0-0.285 0.232-0.516 0.516-0.516h2.963c1.319 0 2.391-1.073 2.391-2.391v-0.952h-1.875v0.952c0 0.285-0.232 0.516-0.516 0.516h-2.963c-1.319 0-2.391 1.073-2.391 2.391v0.748h1.875z"></path>
<path d="M14.333 6.919v0.748h1.875v-0.748c0-0.285 0.232-0.516 0.516-0.516h2.963c1.319 0 2.391-1.073 2.391-2.391v-0.952h-1.875v0.952c0 0.285-0.232 0.516-0.516 0.516h-2.963c-1.319 0-2.391 1.073-2.391 2.391z"></path>
<path d="M23.731 9.719h-15.462c-2.388 3.214-3.352 7.171-3.352 11.14s0.965 7.927 3.353 11.14h15.461c2.388-3.214 3.353-7.172 3.353-11.14s-0.964-7.927-3.352-11.14zM22.774 30.125h-13.549c-0.85-1.264-1.499-2.841-1.913-4.602h5.437c0.278 1.575 1.649 2.754 3.25 2.758 1.601-0.004 2.973-1.183 3.25-2.758h5.437c-0.413 1.761-1.062 3.338-1.913 4.602zM14.78 24.202l1.22-1.855 1.22 1.855c0.264 0.45 0.273 0.993 0.023 1.457-0.263 0.488-0.752 0.733-1.242 0.736-0.49-0.003-0.979-0.247-1.242-0.736-0.25-0.464-0.241-1.007 0.023-1.457zM19.035 23.648c-0.062-0.145-0.133-0.288-0.217-0.427-0.924-1.439-1.878-2.859-2.818-4.287-0.939 1.429-1.894 2.849-2.818 4.287-0.083 0.139-0.155 0.281-0.217 0.427h-5.993c-0.119-0.901-0.181-1.835-0.181-2.788 0-3.615 0.883-6.959 2.434-9.265h13.55c1.551 2.306 2.434 5.65 2.434 9.265 0 0.953-0.062 1.887-0.181 2.788z"></path>
<path d="M13.63 13.844h4.739v1.875h-4.739z"></path>
</svg>
