<!-- Generated by IcoMoon.io -->
<svg version="1.1" xmlns="http://www.w3.org/2000/svg" width="32" height="32" viewBox="0 0 32 32">
<title>coffee-maker</title>
<path d="M26.25 0h-21.875c-2.412 0-4.375 1.963-4.375 4.375s1.963 4.375 4.375 4.375h1.5v4.059h3.75v2.066h1.875v-2.066h3.75v-4.059h4.125v17.688h-4.414c1.050-1.095 1.696-2.58 1.696-4.213v-5.156h-12.188v1.87h-1.094c-1.551 0-2.813 1.262-2.813 2.813s1.262 2.813 2.813 2.813h1.561c0.292 0.7 0.711 1.335 1.229 1.875h-6.164v5.563h32v-26.648c0-2.951-2.648-5.353-5.75-5.353zM13.375 10.934h-5.625v-2.184h5.625zM4.313 22.688h-0.938c-0.517 0-0.938-0.421-0.938-0.938s0.421-0.938 0.938-0.938h0.938zM6.344 22.224v-3.281h8.438v3.281c0 2.257-1.781 4.105-4.012 4.213h-0.414c-2.231-0.108-4.012-1.957-4.012-4.213zM30.125 30.125h-28.25v-1.813h28.25zM21.25 26.438v-19.563h-16.875c-1.378 0-2.5-1.122-2.5-2.5s1.122-2.5 2.5-2.5h21.875c2.068 0 3.875 1.56 3.875 3.478v21.085z"></path>
<path d="M24.75 17.068h1.875v1.875h-1.875z"></path>
<path d="M24.75 20.818h1.875v1.875h-1.875z"></path>
</svg>
