<svg id="Capa_1" enable-background="new 0 0 512 512" height="512" viewBox="0 0 512 512" width="512" xmlns="http://www.w3.org/2000/svg"><g><path d="m420 0h-350c-38.598 0-70 31.402-70 70s31.402 70 70 70h24v64.936h60v33.064h30v-33.064h60v-64.936h66v283h-70.63c16.795-17.524 27.13-41.285 27.13-67.416v-82.5h-195v29.916h-17.5c-24.813 0-45 20.187-45 45s20.187 45 45 45h24.97c4.675 11.207 11.381 21.362 19.66 30h-98.63v89h512v-426.36c0-47.222-42.374-85.64-92-85.64zm-206 174.936h-90v-34.936h90zm-145 188.064h-15c-8.271 0-15-6.729-15-15s6.729-15 15-15h15zm32.5-7.416v-52.5h135v52.5c0 36.11-28.502 65.684-64.19 67.416h-6.619c-35.689-1.732-64.191-31.306-64.191-67.416zm380.5 126.416h-452v-29h452zm-142-59v-313h-270c-22.056 0-40-17.944-40-40s17.944-40 40-40h350c33.084 0 62 24.96 62 55.64v337.36z"/><path d="m396 273.084h30v30h-30z"/><path d="m396 333.084h30v30h-30z"/></g></svg>