<!-- Generated by IcoMoon.io -->
<svg version="1.1" xmlns="http://www.w3.org/2000/svg" width="32" height="32" viewBox="0 0 32 32">
<title>socket-4</title>
<path d="M19.406 7.78h1.959v1.875h-1.959z"></path>
<path d="M25.11 7.78h1.959v1.875h-1.959z"></path>
<path d="M25.452 0.297l-1.168-0.297v2.136h-1.962v-2.136c-1.876 0.477-3.599 1.066-5.032 2.44-1.7 1.629-2.675 3.924-2.675 6.278s0.976 4.648 2.675 6.278c1.433 1.374 3.156 1.963 5.032 2.44v-2.136h1.962v2.136c1.901-0.483 3.641-1.085 5.083-2.489 1.669-1.626 2.625-3.898 2.625-6.228-0-3.978-2.689-7.441-6.54-8.42zM26.159 14.909v-1.484h-5.712v1.484c-2.38-1.095-3.958-3.491-3.958-6.191s1.578-5.096 3.958-6.191v1.484h5.712v-1.484c2.381 1.095 3.959 3.491 3.959 6.191s-1.578 5.096-3.959 6.191z"></path>
<path d="M13.043 26.214c-0.067 0.537 0.048 1.116-0.065 1.664-0.19 0.924-0.852 1.706-1.728 2.053-1.846 0.732-3.861-0.703-3.848-2.666 1.279-0.4 2.21-1.595 2.21-3.005v-2.093c1.976-1.107 3.315-3.221 3.315-5.642v-3.195h-2.235v-4.666h-1.875v4.666h-4.705v-4.666h-1.875v4.666h-2.235v3.195c0 2.421 1.339 4.536 3.315 5.642v2.093c0 1.409 0.931 2.605 2.21 3.005-0.020 2.878 2.634 5.153 5.479 4.67 1.365-0.232 2.579-1.081 3.273-2.278 0.584-1.007 0.63-2.060 0.63-3.187 0-1.553 1.263-2.816 2.816-2.816h14.269v-1.875h-14.269c-2.501 0-4.55 1.967-4.684 4.435zM1.879 16.526v-1.32h9.175v1.32c0 2.53-2.058 4.588-4.588 4.588s-4.588-2.058-4.588-4.588zM5.194 22.988h2.545v1.273c0 0.702-0.571 1.273-1.273 1.273s-1.273-0.571-1.273-1.273z"></path>
</svg>
