<svg id="Capa_1" enable-background="new 0 0 512.131 512.131" height="512" viewBox="0 0 512.131 512.131" width="512" xmlns="http://www.w3.org/2000/svg"><g><path d="m310.577 124.52h31.357v30h-31.357z"/><path d="m401.862 124.52h31.357v30h-31.357z"/><path d="m407.342 4.757-18.698-4.756v34.189h-31.408v-34.19c-30.023 7.639-57.598 17.062-80.535 39.051-27.199 26.076-42.815 62.798-42.816 100.469.001 37.67 15.618 74.392 42.816 100.467 22.938 21.991 50.51 31.412 80.535 39.051v-34.19h31.408v34.189c30.422-7.738 58.277-17.357 81.351-39.838 26.712-26.027 42.011-62.391 42.011-99.681-.002-63.669-43.041-119.085-104.664-134.761zm11.301 233.841v-23.749h-91.408v23.748c-38.095-17.517-63.35-55.874-63.351-99.077.001-43.204 25.256-81.56 63.351-99.077v23.747h91.408v-23.749c38.1 17.517 63.36 55.875 63.361 99.079 0 43.204-25.261 81.561-63.361 99.078z"/><path d="m208.749 419.527c-1.068 8.594.765 17.865-1.034 26.63-3.035 14.791-13.638 27.3-27.651 32.857-29.545 11.716-61.795-11.254-61.578-42.667 20.469-6.399 35.366-25.534 35.366-48.085v-33.489c31.626-17.71 53.055-51.546 53.055-90.298v-51.128h-35.771v-74.68h-30v74.68h-75.299v-74.68h-30v74.68h-35.772v51.128c0 38.752 21.428 72.588 53.055 90.298v33.489c0 22.55 14.897 41.686 35.366 48.085-.32 46.065 42.159 82.475 87.679 74.743 21.853-3.712 41.269-17.302 52.38-36.464 9.349-16.123 10.087-32.963 10.087-50.998 0-24.854 20.22-45.073 45.073-45.073h228.359v-30h-228.358c-40.019.001-72.819 31.477-74.957 70.972zm-178.684-155.051v-21.128h146.842v21.128c0 40.484-32.937 73.42-73.421 73.42s-73.421-32.936-73.421-73.42zm53.055 103.42h40.732v20.367c0 11.23-9.137 20.366-20.366 20.366s-20.366-9.136-20.366-20.366z"/></g></svg>