<svg id="Capa_1" enable-background="new 0 0 512 512" height="512" viewBox="0 0 512 512" width="512" xmlns="http://www.w3.org/2000/svg"><g><path d="m430.128 445.617h-213.836c-6.434-21.038-26.028-36.383-49.144-36.383s-42.71 15.346-49.144 36.383h-36.132v30h36.133c6.434 21.037 26.028 36.383 49.144 36.383s42.71-15.346 49.144-36.383h213.835zm-262.979 36.383c-11.791 0-21.383-9.592-21.383-21.383s9.592-21.383 21.383-21.383 21.383 9.592 21.383 21.383c-.001 11.791-9.593 21.383-21.383 21.383z"/><path d="m181.224 354.549v20.792h149.551v-20.792c0-39.949 13.133-78.662 36.979-109.005 21.022-26.749 32.6-60.551 32.6-95.18 0-82.911-64.757-150.364-144.354-150.364s-144.354 67.453-144.354 150.364c0 34.628 11.577 68.43 32.599 95.179 23.847 30.344 36.979 69.057 36.979 109.006zm29.8-9.208c-.586-13.473-2.457-26.786-5.538-39.736h101.027c-3.081 12.95-4.951 26.263-5.538 39.736zm44.976-315.341c63.056 0 114.354 53.995 114.354 120.364 0 27.936-9.3 55.155-26.188 76.642-11.581 14.736-21.003 31.135-28.075 48.599h-120.183c-7.073-17.465-16.495-33.863-28.076-48.599-16.887-21.487-26.187-48.706-26.187-76.642 0-66.369 51.3-120.364 114.355-120.364z"/></g></svg>