<!-- Generated by IcoMoon.io -->
<svg version="1.1" xmlns="http://www.w3.org/2000/svg" width="32" height="32" viewBox="0 0 32 32">
<title>dimmer-1</title>
<path d="M26.883 27.851h-13.365c-0.402-1.315-1.627-2.274-3.072-2.274s-2.669 0.959-3.072 2.274h-2.258v1.875h2.258c0.402 1.315 1.627 2.274 3.072 2.274s2.669-0.959 3.072-2.274h13.365zM10.447 30.125c-0.737 0-1.336-0.599-1.336-1.336s0.6-1.336 1.336-1.336 1.336 0.599 1.336 1.336c-0 0.737-0.6 1.336-1.336 1.336z"></path>
<path d="M11.326 22.159v1.3h9.347v-1.3c0-2.497 0.821-4.916 2.311-6.813 1.314-1.672 2.038-3.784 2.038-5.949 0-5.182-4.047-9.398-9.022-9.398s-9.022 4.216-9.022 9.398c0 2.164 0.724 4.277 2.037 5.949 1.49 1.897 2.311 4.316 2.311 6.813zM13.189 21.584c-0.037-0.842-0.154-1.674-0.346-2.483h6.314c-0.193 0.809-0.309 1.641-0.346 2.483zM16 1.875c3.941 0 7.147 3.375 7.147 7.523 0 1.746-0.581 3.447-1.637 4.79-0.724 0.921-1.313 1.946-1.755 3.037h-7.511c-0.442-1.092-1.031-2.116-1.755-3.037-1.055-1.343-1.637-3.044-1.637-4.79 0-4.148 3.206-7.523 7.147-7.523z"></path>
</svg>
