<!-- Generated by IcoMoon.io -->
<svg version="1.1" xmlns="http://www.w3.org/2000/svg" width="32" height="32" viewBox="0 0 32 32">
<title>smart-key-1</title>
<path d="M21.688 7.5v1.875c0.517 0 0.938 0.421 0.938 0.938h1.875c0-1.551-1.262-2.813-2.813-2.813z"></path>
<path d="M21.688 3.75v1.875c2.585 0 4.688 2.103 4.688 4.688h1.875c0-3.619-2.944-6.563-6.563-6.563z"></path>
<path d="M21.688 0v1.875c4.652 0 8.438 3.785 8.438 8.438h1.875c0-5.686-4.626-10.313-10.313-10.313z"></path>
<path d="M14.354 12.018l-6.291 6.291c-0.409-0.070-0.825-0.103-1.242-0.098-1.798 0.019-3.495 0.733-4.78 2.010s-2.010 2.97-2.040 4.768c-0.063 3.802 3.088 7.013 6.892 7.012 4.278 0 7.598-4.049 6.765-8.244l1.394-1.53 0.337-1.885 2.207-0.309 1.767-1.767 0.283-1.983 1.95-0.43 1.884-1.884-1.95-1.95c-1.979-1.979-5.198-1.979-7.177 0zM20.658 14.139l-2.684 0.592-0.379 2.65-0.881 0.881-2.931 0.411-0.482 2.69-1.713 1.881c0.44 1.567 0.446 3.114-0.455 4.528-0.897 1.407-2.472 2.322-4.146 2.352-2.805 0.047-5.158-2.298-5.111-5.105 0.045-2.686 2.335-4.934 5.020-4.934 0.605 0 1.176 0.138 1.757 0.286l7.027-7.027c0.604-0.604 1.408-0.937 2.263-0.937s1.658 0.333 2.263 0.937l0.624 0.624z"></path>
<path d="M5.587 25.082l1.326-1.326 1.326 1.326-1.326 1.326z"></path>
</svg>
