<svg id="Capa_1" enable-background="new 0 0 512 512" height="512" viewBox="0 0 512 512" width="512" xmlns="http://www.w3.org/2000/svg"><g><path d="m347 120v30c8.271 0 15 6.729 15 15h30c0-24.813-20.187-45-45-45z"/><path d="m347 60v30c41.355 0 75 33.645 75 75h30c0-57.897-47.103-105-105-105z"/><path d="m347 0v30c74.439 0 135 60.561 135 135h30c0-90.981-74.019-165-165-165z"/><path d="m229.659 192.283-100.651 100.65c-6.542-1.117-13.192-1.655-19.876-1.574-28.761.305-55.923 11.726-76.484 32.158-20.565 20.435-32.154 47.526-32.633 76.283-1.013 60.83 49.406 112.202 110.279 112.2 68.451 0 121.564-64.776 108.237-131.901l22.301-24.477 5.399-30.16 35.316-4.952 28.27-28.269 4.533-31.732 31.199-6.883 30.143-30.143-31.2-31.2c-31.661-31.661-83.174-31.659-114.833 0zm100.873 33.935-42.941 9.473-6.059 42.408-14.096 14.097-46.903 6.577-7.706 43.043-27.412 30.088c7.041 25.072 7.142 49.82-7.283 72.455-14.348 22.516-39.554 37.152-66.339 37.628-44.887.756-82.531-36.773-81.781-81.687.716-42.969 37.355-78.947 80.313-78.947 9.687 0 18.821 2.21 28.118 4.573l112.429-112.43c9.671-9.67 22.527-14.996 36.204-14.996 13.676 0 26.532 5.326 36.203 14.996l9.987 9.987z"/><path d="m95.658 386.34h30v30h-30z" transform="matrix(.707 -.707 .707 .707 -251.379 195.797)"/></g></svg>