<!-- Generated by IcoMoon.io -->
<svg version="1.1" xmlns="http://www.w3.org/2000/svg" width="32" height="32" viewBox="0 0 32 32">
<title>watering</title>
<path d="M21.156 22.625h-4.219v-2h1.003c2.549 0 4.622-2.074 4.622-4.622v-0.938h-13.125v0.938c0 2.549 2.074 4.622 4.622 4.622h1.003v2h-4.219v3.75h-7.941v5.625h26.194v-5.625h-7.941zM14.060 18.75c-1.186 0-2.199-0.755-2.583-1.81h9.046c-0.384 1.055-1.397 1.81-2.583 1.81zM12.719 24.5h6.563v1.875h-6.563zM27.222 28.25v1.875h-22.444v-1.875z"></path>
<path d="M15.063 7.5h1.875v1.875h-1.875z"></path>
<path d="M15.063 11.25h1.875v1.875h-1.875z"></path>
<path d="M15.063 3.75h1.875v1.875h-1.875z"></path>
<path d="M15.063 0h1.875v1.875h-1.875z"></path>
<path d="M-0 1.794l1.498-1.127 1.127 1.498-1.498 1.127z"></path>
<path d="M2.253 4.791l1.498-1.127 1.127 1.498-1.498 1.127z"></path>
<path d="M4.507 7.787l1.498-1.127 1.127 1.498-1.498 1.127z"></path>
<path d="M6.761 10.784l1.498-1.127 1.127 1.498-1.498 1.127z"></path>
<path d="M24.86 8.16l1.127-1.498 1.498 1.127-1.127 1.498z"></path>
<path d="M22.606 11.156l1.127-1.498 1.498 1.127-1.127 1.498z"></path>
<path d="M29.369 2.168l1.127-1.498 1.498 1.127-1.127 1.498z"></path>
<path d="M27.114 5.164l1.127-1.498 1.498 1.127-1.127 1.498z"></path>
</svg>
