<svg id="Capa_1" enable-background="new 0 0 512 512" height="512" viewBox="0 0 512 512" width="512" xmlns="http://www.w3.org/2000/svg"><g><path d="m338.5 362h-67.5v-32h16.042c40.78 0 73.958-33.177 73.958-73.957v-15h-210v15c0 40.78 33.177 73.957 73.958 73.957h16.042v32h-67.5v60h-127.053v90h419.106v-90h-127.053zm-113.542-62c-18.973 0-35.177-12.082-41.322-28.957h144.729c-6.145 16.875-22.349 28.957-41.323 28.957zm-21.458 92h105v30h-105zm232.053 60v30h-359.106v-30z"/><path d="m241 120h30v30h-30z"/><path d="m241 180h30v30h-30z"/><path d="m241 60h30v30h-30z"/><path d="m241 0h30v30h-30z"/><path d="m6.005 16.671h30v30h-30z" transform="matrix(.799 -.601 .601 .799 -14.821 18.99)"/><path d="m42.077 64.617h29.999v30h-29.999z" transform="matrix(.799 -.601 .601 .799 -36.399 50.309)"/><path d="m78.149 112.564h29.999v30h-29.999z" transform="matrix(.799 -.601 .601 .799 -57.977 81.626)"/><path d="m114.22 160.51h29.999v30h-29.999z" transform="matrix(.799 -.601 .601 .799 -79.555 112.944)"/><path d="m403.852 112.564h30v29.999h-30z" transform="matrix(.601 -.799 .799 .601 65.107 385.582)"/><path d="m367.78 160.51h30v29.999h-30z" transform="matrix(.601 -.799 .799 .601 12.406 375.878)"/><path d="m475.995 16.671h30v30h-30z" transform="matrix(.601 -.799 .799 .601 170.509 404.992)"/><path d="m439.924 64.618h30v29.999h-30z" transform="matrix(.601 -.799 .799 .601 117.807 395.286)"/></g></svg>