<!-- Generated by IcoMoon.io -->
<svg version="1.1" xmlns="http://www.w3.org/2000/svg" width="32" height="32" viewBox="0 0 32 32">
<title>telephone</title>
<path d="M30 4.667h-14v-0.667c0-1.841-1.492-3.333-3.333-3.333v0h-2.667c-1.841 0-3.333 1.492-3.333 3.333v0 0.667h-0.667c-1.105 0-2 0.895-2 2v0 8.053c-2.273 0.337-3.997 2.273-4 4.613v7.334c0 2.577 2.089 4.667 4.667 4.667v0h2.667c2.34-0.003 4.276-1.727 4.61-3.974l0.003-0.026h18.053c1.105 0 2-0.895 2-2v0-18.667c0-1.105-0.895-2-2-2v0zM8 4c0-1.105 0.895-2 2-2v0h2.667c1.105 0 2 0.895 2 2v0 17.333c0 1.105-0.895 2-2 2v0h-2.667c-1.105 0-2-0.895-2-2v0zM5.333 6.667c0-0.368 0.298-0.667 0.667-0.667v0h0.667v15.333c0 0 0 0 0 0.001 0 1.605 1.134 2.945 2.645 3.262l0.022 0.004v1.4h-3.333c-0.368 0-0.667-0.298-0.667-0.667v0zM7.333 30h-2.667c-1.841 0-3.333-1.492-3.333-3.333v0-7.333c0-0 0-0 0-0.001 0-1.605 1.134-2.945 2.645-3.262l0.022-0.004v9.267c0 1.105 0.895 2 2 2v0h4.6c-0.321 1.532-1.661 2.667-3.266 2.667-0 0-0 0-0.001 0h0zM10.667 26v-1.333h1.333v1.333zM30.667 25.333c0 0.368-0.298 0.667-0.667 0.667v0h-16.667v-1.4c1.532-0.321 2.667-1.661 2.667-3.266 0-0 0-0 0-0.001v0-15.333h14c0.368 0 0.667 0.298 0.667 0.667v0z"></path>
<path d="M28.667 7.333h-10.667c-0.368 0-0.667 0.298-0.667 0.667v0 4c0 0.368 0.298 0.667 0.667 0.667v0h10.667c0.368 0 0.667-0.298 0.667-0.667v0-4c0-0.368-0.298-0.667-0.667-0.667v0zM28 11.333h-9.333v-2.667h9.333z"></path>
<path d="M18.667 14h1.333c0.368 0 0.667 0.298 0.667 0.667v1.333c0 0.368-0.298 0.667-0.667 0.667h-1.333c-0.368 0-0.667-0.298-0.667-0.667v-1.333c0-0.368 0.298-0.667 0.667-0.667z"></path>
<path d="M22.667 14h1.333c0.368 0 0.667 0.298 0.667 0.667v1.333c0 0.368-0.298 0.667-0.667 0.667h-1.333c-0.368 0-0.667-0.298-0.667-0.667v-1.333c0-0.368 0.298-0.667 0.667-0.667z"></path>
<path d="M26.667 14h1.333c0.368 0 0.667 0.298 0.667 0.667v1.333c0 0.368-0.298 0.667-0.667 0.667h-1.333c-0.368 0-0.667-0.298-0.667-0.667v-1.333c0-0.368 0.298-0.667 0.667-0.667z"></path>
<path d="M18.667 18h1.333c0.368 0 0.667 0.298 0.667 0.667v1.333c0 0.368-0.298 0.667-0.667 0.667h-1.333c-0.368 0-0.667-0.298-0.667-0.667v-1.333c0-0.368 0.298-0.667 0.667-0.667z"></path>
<path d="M22.667 18h1.333c0.368 0 0.667 0.298 0.667 0.667v1.333c0 0.368-0.298 0.667-0.667 0.667h-1.333c-0.368 0-0.667-0.298-0.667-0.667v-1.333c0-0.368 0.298-0.667 0.667-0.667z"></path>
<path d="M26.667 18h1.333c0.368 0 0.667 0.298 0.667 0.667v1.333c0 0.368-0.298 0.667-0.667 0.667h-1.333c-0.368 0-0.667-0.298-0.667-0.667v-1.333c0-0.368 0.298-0.667 0.667-0.667z"></path>
<path d="M18.667 22h1.333c0.368 0 0.667 0.298 0.667 0.667v1.333c0 0.368-0.298 0.667-0.667 0.667h-1.333c-0.368 0-0.667-0.298-0.667-0.667v-1.333c0-0.368 0.298-0.667 0.667-0.667z"></path>
<path d="M22.667 22h1.333c0.368 0 0.667 0.298 0.667 0.667v1.333c0 0.368-0.298 0.667-0.667 0.667h-1.333c-0.368 0-0.667-0.298-0.667-0.667v-1.333c0-0.368 0.298-0.667 0.667-0.667z"></path>
<path d="M26.667 22h1.333c0.368 0 0.667 0.298 0.667 0.667v1.333c0 0.368-0.298 0.667-0.667 0.667h-1.333c-0.368 0-0.667-0.298-0.667-0.667v-1.333c0-0.368 0.298-0.667 0.667-0.667z"></path>
</svg>
