<svg height="512" viewBox="0 0 48 48" width="512" xmlns="http://www.w3.org/2000/svg"><g id="Telephone"><path d="m45 7h-21v-1a5 5 0 0 0 -5-5h-4a5 5 0 0 0 -5 5v1h-1a3 3 0 0 0 -3 3v12.08a7 7 0 0 0 -6 6.92v11a7 7 0 0 0 7 7h4a7 7 0 0 0 6.92-6h27.08a3 3 0 0 0 3-3v-28a3 3 0 0 0 -3-3zm-33-1a3 3 0 0 1 3-3h4a3 3 0 0 1 3 3v26a3 3 0 0 1 -3 3h-4a3 3 0 0 1 -3-3zm-4 4a1 1 0 0 1 1-1h1v23a5 5 0 0 0 4 4.9v2.1h-5a1 1 0 0 1 -1-1zm3 35h-4a5 5 0 0 1 -5-5v-11a5 5 0 0 1 4-4.9v13.9a3 3 0 0 0 3 3h6.9a5 5 0 0 1 -4.9 4zm5-6v-2h2v2zm30-1a1 1 0 0 1 -1 1h-25v-2.1a5 5 0 0 0 4-4.9v-23h21a1 1 0 0 1 1 1z"/><path d="m43 11h-16a1 1 0 0 0 -1 1v6a1 1 0 0 0 1 1h16a1 1 0 0 0 1-1v-6a1 1 0 0 0 -1-1zm-1 6h-14v-4h14z"/><rect height="4" rx="1" width="4" x="27" y="21"/><rect height="4" rx="1" width="4" x="33" y="21"/><rect height="4" rx="1" width="4" x="39" y="21"/><rect height="4" rx="1" width="4" x="27" y="27"/><rect height="4" rx="1" width="4" x="33" y="27"/><rect height="4" rx="1" width="4" x="39" y="27"/><rect height="4" rx="1" width="4" x="27" y="33"/><rect height="4" rx="1" width="4" x="33" y="33"/><rect height="4" rx="1" width="4" x="39" y="33"/></g></svg>