<svg height="512" viewBox="0 0 48 48" width="512" xmlns="http://www.w3.org/2000/svg"><g id="Oven_Stove" data-name="Oven Stove"><path d="m43 3h-4v-2a1 1 0 0 0 -1-1h-2a1 1 0 0 0 0 2h1v1h-6v-1h1a1 1 0 0 0 0-2h-2a1 1 0 0 0 -1 1v2h-10v-2a1 1 0 0 0 -1-1h-2a1 1 0 0 0 0 2h1v1h-6v-1h1a1 1 0 0 0 0-2h-2a1 1 0 0 0 -1 1v2h-4a1 1 0 0 0 -1 1v43a1 1 0 0 0 1 1h38a1 1 0 0 0 1-1v-43a1 1 0 0 0 -1-1zm-37 10h36v27h-36zm0-8h36v6h-36zm36 41h-36v-4h36z"/><circle cx="16" cy="8" r="2"/><circle cx="24" cy="8" r="2"/><circle cx="32" cy="8" r="2"/><path d="m39 15h-30a1 1 0 0 0 -1 1v21a1 1 0 0 0 1 1h30a1 1 0 0 0 1-1v-21a1 1 0 0 0 -1-1zm-1 21h-28v-19h28z"/><path d="m21 21h6a1 1 0 0 0 0-2h-6a1 1 0 0 0 0 2z"/></g></svg>