<!-- Generated by IcoMoon.io -->
<svg version="1.1" xmlns="http://www.w3.org/2000/svg" width="32" height="32" viewBox="0 0 32 32">
<title>cooking-stove</title>
<path d="M28.667 2h-2.667v-1.333c0-0.368-0.298-0.667-0.667-0.667v0h-1.333c-0.368 0-0.667 0.298-0.667 0.667s0.298 0.667 0.667 0.667v0h0.667v0.667h-4v-0.667h0.667c0.368 0 0.667-0.298 0.667-0.667s-0.298-0.667-0.667-0.667v0h-1.333c-0.368 0-0.667 0.298-0.667 0.667v0 1.333h-6.667v-1.333c0-0.368-0.298-0.667-0.667-0.667v0h-1.333c-0.368 0-0.667 0.298-0.667 0.667s0.298 0.667 0.667 0.667v0h0.667v0.667h-4v-0.667h0.667c0.368 0 0.667-0.298 0.667-0.667s-0.298-0.667-0.667-0.667v0h-1.333c-0.368 0-0.667 0.298-0.667 0.667v0 1.333h-2.667c-0.368 0-0.667 0.298-0.667 0.667v0 28.667c0 0.368 0.298 0.667 0.667 0.667v0h25.333c0.368 0 0.667-0.298 0.667-0.667v0-28.667c0-0.368-0.298-0.667-0.667-0.667v0zM4 8.667h24v18h-24zM4 3.333h24v4h-24zM28 30.667h-24v-2.667h24z"></path>
<path d="M12 5.333c0 0.736-0.597 1.333-1.333 1.333s-1.333-0.597-1.333-1.333c0-0.736 0.597-1.333 1.333-1.333s1.333 0.597 1.333 1.333z"></path>
<path d="M17.333 5.333c0 0.736-0.597 1.333-1.333 1.333s-1.333-0.597-1.333-1.333c0-0.736 0.597-1.333 1.333-1.333s1.333 0.597 1.333 1.333z"></path>
<path d="M22.667 5.333c0 0.736-0.597 1.333-1.333 1.333s-1.333-0.597-1.333-1.333c0-0.736 0.597-1.333 1.333-1.333s1.333 0.597 1.333 1.333z"></path>
<path d="M26 10h-20c-0.368 0-0.667 0.298-0.667 0.667v0 14c0 0.368 0.298 0.667 0.667 0.667v0h20c0.368 0 0.667-0.298 0.667-0.667v0-14c0-0.368-0.298-0.667-0.667-0.667v0zM25.333 24h-18.667v-12.667h18.667z"></path>
<path d="M14 14h4c0.368 0 0.667-0.298 0.667-0.667s-0.298-0.667-0.667-0.667v0h-4c-0.368 0-0.667 0.298-0.667 0.667s0.298 0.667 0.667 0.667v0z"></path>
</svg>
