<!-- Generated by IcoMoon.io -->
<svg version="1.1" xmlns="http://www.w3.org/2000/svg" width="32" height="32" viewBox="0 0 32 32">
<title>floor-lamp</title>
<path d="M21.333 0.547c-0.059-0.313-0.33-0.547-0.656-0.547-0.004 0-0.008 0-0.011 0h-9.333c-0.003-0-0.007-0-0.011-0-0.326 0-0.597 0.234-0.655 0.543l-0.001 0.004-2 10.667c-0.007 0.036-0.011 0.078-0.011 0.12 0 0.368 0.298 0.667 0.667 0.667 0.004 0 0.008-0 0.011-0h5.999v16h-2c-1.473 0-2.667 1.194-2.667 2.667v0 0.667c0 0.368 0.298 0.667 0.667 0.667v0h9.333c0.368 0 0.667-0.298 0.667-0.667v0-0.667c0-1.473-1.194-2.667-2.667-2.667v0h-2v-16h2v5.52c-0.401 0.235-0.667 0.664-0.667 1.155 0 0.736 0.597 1.333 1.333 1.333s1.333-0.597 1.333-1.333c0-0.491-0.265-0.92-0.66-1.151l-0.006-0.003v-5.52h2.667c0.003 0 0.007 0 0.011 0 0.368 0 0.667-0.298 0.667-0.667 0-0.042-0.004-0.084-0.012-0.124l0.001 0.004zM20 30.667h-8c0-0.736 0.597-1.333 1.333-1.333v0h5.333c0.736 0 1.333 0.597 1.333 1.333v0zM10.14 10.667l1.747-9.333h8.227l1.747 9.333z"></path>
</svg>
