<!-- Generated by IcoMoon.io -->
<svg version="1.1" xmlns="http://www.w3.org/2000/svg" width="32" height="32" viewBox="0 0 32 32">
<title>steam-iron</title>
<path d="M15.333 0h-7.733c-1.264 0.003-2.362 0.71-2.925 1.749l-0.009 0.018-4.587 8.587c-0.051 0.092-0.080 0.201-0.080 0.317 0 0.183 0.074 0.349 0.194 0.47l-0-0c6.473 6.493 6.080 6.193 6.473 6.193v2c0 0.368 0.298 0.667 0.667 0.667v0h24c0.368 0 0.667-0.298 0.667-0.667v0-2.667c0-9.205-7.462-16.667-16.667-16.667v0zM1.487 10.547l4.347-8.153c0.343-0.636 1.005-1.060 1.765-1.060 0 0 0.001 0 0.001 0h7.733c0.004 0 0.009 0 0.014 0 8.234 0 14.952 6.49 15.318 14.634l0.001 0.033h-23.727zM30.667 18.667h-22.667v-1.333h22.667z"></path>
<path d="M8 14c15.12 0 14.207 0.107 14.507-0.227 0.1-0.116 0.161-0.268 0.161-0.434 0-0.035-0.003-0.069-0.008-0.103l0 0.004c-0.849-5.619-5.633-9.881-11.417-9.907h-0.003c-3.433 0-3.567-0.113-3.82 0.34l-3.333 6c-0.055 0.095-0.087 0.209-0.087 0.33 0 0.183 0.074 0.35 0.194 0.47l-0-0c3.513 3.527 3.413 3.527 3.807 3.527zM12 12.667v-1.333h4v1.333zM8.393 4.667h2.847c4.846 0.021 8.898 3.401 9.947 7.931l0.013 0.069h-3.867v-2c0-0.368-0.298-0.667-0.667-0.667v0h-5.333c-0.368 0-0.667 0.298-0.667 0.667v0 2h-2.393l-2.78-2.78z"></path>
<path d="M20 28v-6c0-0.368-0.298-0.667-0.667-0.667s-0.667 0.298-0.667 0.667v0 6c0 0.368 0.298 0.667 0.667 0.667s0.667-0.298 0.667-0.667v0z"></path>
<path d="M25.333 27.333c0.368-0 0.666-0.299 0.666-0.667 0-0.094-0.019-0.183-0.054-0.264l0.002 0.004-2-4.667c-0.109-0.228-0.338-0.383-0.603-0.383-0.368 0-0.667 0.298-0.667 0.667 0 0.085 0.016 0.166 0.045 0.241l-0.002-0.005c2.073 4.833 2 5.073 2.613 5.073z"></path>
<path d="M13.333 27.333c0.593 0 0.453-0.040 2.613-5.073 0.027-0.070 0.043-0.151 0.043-0.236 0-0.368-0.298-0.667-0.667-0.667-0.265 0-0.494 0.155-0.602 0.379l-0.002 0.004-2 4.667c-0.033 0.077-0.053 0.166-0.053 0.26 0 0.368 0.298 0.666 0.666 0.667h0z"></path>
<path d="M27.6 24.8c-0.163 0.123-0.267 0.316-0.267 0.533 0 0.151 0.050 0.29 0.135 0.402l-0.001-0.002c0.333 0.44 0.533 0.997 0.533 1.6v0c-0 1.473-1.194 2.666-2.667 2.666-0.957 0-1.796-0.504-2.267-1.261l-0.007-0.011c-0.119-0.193-0.329-0.319-0.569-0.319-0.291 0-0.539 0.187-0.63 0.448l-0.001 0.005c-0.367 1.064-1.359 1.814-2.527 1.814s-2.16-0.75-2.521-1.795l-0.006-0.019c-0.092-0.265-0.34-0.452-0.631-0.452-0.24 0-0.45 0.126-0.567 0.316l-0.002 0.003c-0.477 0.769-1.316 1.273-2.273 1.273-1.473 0-2.666-1.194-2.667-2.666v-0c0-0.603 0.2-1.16 0.538-1.607l-0.005 0.007c0.083-0.11 0.133-0.249 0.133-0.4 0-0.217-0.104-0.41-0.265-0.532l-0.002-0.001c-0.933-0.707-1.733 1.287-1.733 2.533 0 0 0 0.001 0 0.002 0 2.209 1.791 4 4 4 1.045 0 1.997-0.401 2.709-1.057l-0.003 0.003c0.731 1.051 1.933 1.73 3.293 1.73s2.562-0.679 3.285-1.717l0.009-0.013c0.71 0.654 1.661 1.055 2.707 1.055 2.209 0 4-1.791 4-4 0-0.001 0-0.001 0-0.002v0c0-1.24-0.8-3.247-1.733-2.533z"></path>
</svg>
