<?xml version="1.0" encoding="UTF-8"?>
<svg xmlns="http://www.w3.org/2000/svg" viewBox="0 0 48 48" width="512" height="512"><g id="Steam_Iron" data-name="Steam Iron"><path d="M23,0H11.4A5,5,0,0,0,7,2.65L.12,15.53a1,1,0,0,0,.17,1.18C10,26.45,9.41,26,10,26v3a1,1,0,0,0,1,1H47a1,1,0,0,0,1-1V25A25,25,0,0,0,23,0ZM2.23,15.82,8.75,3.59A3,3,0,0,1,11.4,2H23A23,23,0,0,1,46,24H10.41ZM46,28H12V26H46Z"/><path d="M12,21c22.68,0,21.31.16,21.76-.34a1,1,0,0,0,.23-.8A17.39,17.39,0,0,0,16.86,5c-5.15,0-5.35-.17-5.73.51l-5,9a1,1,0,0,0,.16,1.2C11.56,21,11.41,21,12,21Zm6-2V17h6v2ZM12.59,7h4.27A15.38,15.38,0,0,1,31.8,19H26V16a1,1,0,0,0-1-1H17a1,1,0,0,0-1,1v3H12.41L8.24,14.83Z"/><path d="M30,42V33a1,1,0,0,0-2,0v9A1,1,0,0,0,30,42Z"/><path d="M38,41a1,1,0,0,0,.92-1.39l-3-7a1,1,0,0,0-1.84.78C37.19,40.64,37.08,41,38,41Z"/><path d="M20,41c.89,0,.68-.06,3.92-7.61a1,1,0,0,0-1.84-.78l-3,7A1,1,0,0,0,20,41Z"/><path d="M41.4,37.2a1,1,0,0,0-.2,1.4A4,4,0,0,1,42,41a4,4,0,0,1-7.41,2.09,1,1,0,0,0-1.8.2,4,4,0,0,1-7.58,0,1,1,0,0,0-1.8-.2A4,4,0,0,1,16,41a4,4,0,0,1,.8-2.4,1,1,0,0,0-.2-1.4C15.2,36.14,14,39.13,14,41a6,6,0,0,0,10.06,4.42,6,6,0,0,0,9.88,0A6,6,0,0,0,44,41C44,39.14,42.8,36.13,41.4,37.2Z"/></g></svg>
