<!-- Generated by IcoMoon.io -->
<svg version="1.1" xmlns="http://www.w3.org/2000/svg" width="32" height="32" viewBox="0 0 32 32">
<title>tv-monitor</title>
<path d="M31.333 3.333h-30.667c-0.368 0-0.667 0.298-0.667 0.667v0 21.333c0 0.368 0.298 0.667 0.667 0.667v0h2.767l-1.847 1.48c-0.129 0.122-0.209 0.294-0.209 0.485 0 0.368 0.298 0.667 0.667 0.667 0.138 0 0.265-0.042 0.371-0.113l-0.002 0.002 2.92-2.347 2.267 1.693c0.11 0.083 0.249 0.133 0.4 0.133 0.368 0 0.667-0.298 0.667-0.667 0-0.217-0.104-0.41-0.265-0.532l-0.002-0.001-1.067-0.8h17.333l-1.067 0.8c-0.163 0.123-0.267 0.316-0.267 0.533 0 0.368 0.298 0.667 0.667 0.667 0.151 0 0.29-0.050 0.402-0.135l-0.002 0.001 2.267-1.693c3.207 2.58 3.013 2.493 3.333 2.493 0.367-0.002 0.663-0.3 0.663-0.667 0-0.21-0.097-0.397-0.248-0.519l-0.001-0.001-1.847-1.48h2.767c0.368 0 0.667-0.298 0.667-0.667v0-21.333c0-0.368-0.298-0.667-0.667-0.667v0zM30.667 4.667v17.333h-29.333v-17.333zM30.667 24.667h-29.333v-1.333h29.333z"></path>
</svg>
