<!-- Generated by IcoMoon.io -->
<svg version="1.1" xmlns="http://www.w3.org/2000/svg" width="32" height="32" viewBox="0 0 32 32">
<title>extractor-hood</title>
<path d="M29.333 19.333c0-0.42 0.44 0.127-8.667-8.28v-10.387c0-0.368-0.298-0.667-0.667-0.667s-0.667 0.298-0.667 0.667v0 10h-6.667v-10c0-0.368-0.298-0.667-0.667-0.667s-0.667 0.298-0.667 0.667v0 10.373c-8.087 7.467-8.527 7.84-8.607 8.027s-0.060 0.46-0.060 4.267c0 0.368 0.298 0.667 0.667 0.667v0h25.333c0.368 0 0.667-0.298 0.667-0.667v0c0-2.427 0-4.080 0-4zM19.74 12l7.22 6.667h-21.92l7.22-6.667zM28 22.667h-24v-2.667h24z"></path>
<path d="M14.193 26.86c-0.121 0.121-0.196 0.288-0.196 0.473 0 0.37 0.3 0.669 0.669 0.669 0.185 0 0.352-0.075 0.473-0.196v0l0.193-0.2c-0.011 0.088-0.018 0.191-0.018 0.295 0 0.662 0.261 1.263 0.685 1.706l-0.001-0.001c0.182 0.178 0.294 0.426 0.294 0.7 0 0.163-0.040 0.317-0.11 0.452l0.003-0.005-0.127 0.26c-0.032 0.076-0.051 0.164-0.051 0.256 0 0.368 0.298 0.667 0.667 0.667 0.241 0 0.453-0.128 0.57-0.32l0.002-0.003 0.133-0.267c0.151-0.3 0.239-0.654 0.239-1.028 0-0.639-0.257-1.217-0.672-1.639l0 0c-0.171-0.176-0.278-0.415-0.28-0.68v-0c0-0.473-0.060-0.427 0.193-0.173 0.121 0.121 0.288 0.196 0.473 0.196 0.37 0 0.669-0.3 0.669-0.669 0-0.185-0.075-0.352-0.196-0.473v0c-2.053-2.073-1.553-2.080-3.613-0.020z"></path>
<path d="M7.527 26.86c-0.121 0.121-0.196 0.288-0.196 0.473 0 0.37 0.3 0.669 0.669 0.669 0.185 0 0.352-0.075 0.473-0.196v0l0.193-0.2c-0.011 0.088-0.018 0.191-0.018 0.295 0 0.662 0.261 1.263 0.685 1.706l-0.001-0.001c0.182 0.178 0.294 0.426 0.294 0.7 0 0.163-0.040 0.317-0.11 0.452l0.003-0.005-0.127 0.26c-0.032 0.076-0.051 0.164-0.051 0.256 0 0.368 0.298 0.667 0.667 0.667 0.241 0 0.453-0.128 0.57-0.32l0.002-0.003 0.133-0.267c0.151-0.3 0.239-0.654 0.239-1.028 0-0.639-0.257-1.217-0.672-1.639l0 0c-0.171-0.176-0.278-0.415-0.28-0.68v-0c0-0.473-0.060-0.427 0.193-0.173 0.121 0.121 0.289 0.196 0.473 0.196 0.37 0 0.669-0.3 0.669-0.669 0-0.185-0.075-0.352-0.196-0.473v0c-2.053-2.073-1.553-2.080-3.613-0.020z"></path>
<path d="M20.86 26.86c-0.121 0.121-0.196 0.288-0.196 0.473 0 0.37 0.3 0.669 0.669 0.669 0.185 0 0.352-0.075 0.473-0.196v0l0.193-0.2c-0.011 0.088-0.018 0.191-0.018 0.295 0 0.662 0.261 1.263 0.685 1.706l-0.001-0.001c0.182 0.178 0.294 0.426 0.294 0.7 0 0.163-0.040 0.317-0.11 0.452l0.003-0.005-0.127 0.26c-0.032 0.076-0.051 0.164-0.051 0.256 0 0.368 0.298 0.667 0.667 0.667 0.241 0 0.453-0.128 0.57-0.32l0.002-0.003 0.133-0.267c0.151-0.3 0.239-0.654 0.239-1.028 0-0.639-0.257-1.217-0.672-1.639l0 0c-0.171-0.176-0.278-0.415-0.28-0.68v-0c0-0.473-0.060-0.427 0.193-0.173 0.121 0.121 0.288 0.196 0.473 0.196 0.37 0 0.669-0.3 0.669-0.669 0-0.185-0.075-0.352-0.196-0.473v0c-2.053-2.073-1.547-2.080-3.613-0.020z"></path>
<path d="M22 17.333c0.368 0 0.667-0.298 0.667-0.667s-0.298-0.667-0.667-0.667v0c-0.368 0-0.667 0.298-0.667 0.667s0.298 0.667 0.667 0.667v0z"></path>
<path d="M19.333 17.333c0.368 0 0.667-0.298 0.667-0.667s-0.298-0.667-0.667-0.667v0c-0.368 0-0.667 0.298-0.667 0.667s0.298 0.667 0.667 0.667v0z"></path>
</svg>
