<svg height="512" viewBox="0 0 48 48" width="512" xmlns="http://www.w3.org/2000/svg"><g id="Kitchen_Extractor_Fans" data-name="Kitchen Extractor Fans"><path d="m44 29c0-.63.66.19-13-12.42v-15.58a1 1 0 0 0 -2 0v15h-10v-15a1 1 0 0 0 -2 0v15.56c-12.13 11.2-12.79 11.76-12.91 12.04s-.09.69-.09 6.4a1 1 0 0 0 1 1h38a1 1 0 0 0 1-1c0-3.64 0-6.12 0-6zm-14.39-11 10.83 10h-32.88l10.83-10zm12.39 16h-36v-4h36z"/><path d="m21.29 40.29a1 1 0 0 0 1.42 1.42l.29-.3a3.7 3.7 0 0 0 1 3 1.47 1.47 0 0 1 .28 1.72l-.19.39a1 1 0 0 0 1.78.9l.2-.4a3.5 3.5 0 0 0 -.65-4 1.48 1.48 0 0 1 -.42-1.02c0-.71-.09-.64.29-.26a1 1 0 0 0 1.42-1.42c-3.08-3.11-2.33-3.12-5.42-.03z"/><path d="m11.29 40.29a1 1 0 0 0 1.42 1.42l.29-.3a3.7 3.7 0 0 0 1 3 1.47 1.47 0 0 1 .28 1.72l-.19.39a1 1 0 0 0 1.78.9l.2-.4a3.5 3.5 0 0 0 -.65-4 1.48 1.48 0 0 1 -.42-1.02c0-.71-.09-.64.29-.26a1 1 0 0 0 1.42-1.42c-3.08-3.11-2.33-3.12-5.42-.03z"/><path d="m31.29 40.29a1 1 0 0 0 1.42 1.42l.29-.3a3.7 3.7 0 0 0 1 3 1.47 1.47 0 0 1 .28 1.72l-.19.39a1 1 0 0 0 1.78.9l.2-.4a3.5 3.5 0 0 0 -.65-4 1.48 1.48 0 0 1 -.42-1.02c0-.71-.09-.64.29-.26a1 1 0 0 0 1.42-1.42c-3.08-3.11-2.32-3.12-5.42-.03z"/><path d="m33 26a1 1 0 0 0 0-2 1 1 0 0 0 0 2z"/><path d="m29 26a1 1 0 0 0 0-2 1 1 0 0 0 0 2z"/></g></svg>