<!-- Generated by IcoMoon.io -->
<svg version="1.1" xmlns="http://www.w3.org/2000/svg" width="32" height="32" viewBox="0 0 32 32">
<title>printer-1</title>
<path d="M30 10h-1.333v-4.667c0-0.368-0.298-0.667-0.667-0.667v0h-2v-4c0-0.368-0.298-0.667-0.667-0.667v0h-18.667c-0.368 0-0.667 0.298-0.667 0.667v0 4h-2c-0.368 0-0.667 0.298-0.667 0.667v0 4.667h-1.333c-1.105 0-2 0.895-2 2v0 12c0 1.105 0.895 2 2 2v0h4v5.333c0 0.368 0.298 0.667 0.667 0.667v0h18.667c0.368 0 0.667-0.298 0.667-0.667v0-5.333h4c1.105 0 2-0.895 2-2v0-12c0-1.105-0.895-2-2-2v0zM27.333 6v4h-1.333v-4zM7.333 1.333h17.333v8.667h-17.333zM4.667 6h1.333v4h-1.333zM24.667 30.667h-17.333v-9.333h17.333zM30.667 24c0 0.368-0.298 0.667-0.667 0.667v0h-4v-4c0-0.368-0.298-0.667-0.667-0.667v0h-18.667c-0.368 0-0.667 0.298-0.667 0.667v0 4h-4c-0.368 0-0.667-0.298-0.667-0.667v0-12c0-0.368 0.298-0.667 0.667-0.667v0h28c0.368 0 0.667 0.298 0.667 0.667v0z"></path>
<path d="M28.667 12.667c-0.368 0-0.667 0.298-0.667 0.667s0.298 0.667 0.667 0.667v0c0.368 0 0.667-0.298 0.667-0.667s-0.298-0.667-0.667-0.667v0z"></path>
<path d="M26 12.667c-0.368 0-0.667 0.298-0.667 0.667s0.298 0.667 0.667 0.667v0c0.368 0 0.667-0.298 0.667-0.667s-0.298-0.667-0.667-0.667v0z"></path>
<path d="M10 12.667h-6.667c-0.368 0-0.667 0.298-0.667 0.667s0.298 0.667 0.667 0.667v0h6.667c0.368 0 0.667-0.298 0.667-0.667s-0.298-0.667-0.667-0.667v0z"></path>
<path d="M9.333 29.333h13.333c0.368 0 0.667-0.298 0.667-0.667s-0.298-0.667-0.667-0.667v0h-13.333c-0.368 0-0.667 0.298-0.667 0.667s0.298 0.667 0.667 0.667v0z"></path>
<path d="M9.333 26.667h13.333c0.368 0 0.667-0.298 0.667-0.667s-0.298-0.667-0.667-0.667v0h-13.333c-0.368 0-0.667 0.298-0.667 0.667s0.298 0.667 0.667 0.667v0z"></path>
<path d="M9.333 24h13.333c0.368 0 0.667-0.298 0.667-0.667s-0.298-0.667-0.667-0.667v0h-13.333c-0.368 0-0.667 0.298-0.667 0.667s0.298 0.667 0.667 0.667v0z"></path>
</svg>
