<svg height="512" viewBox="0 0 48 48" width="512" xmlns="http://www.w3.org/2000/svg"><g id="Printer"><path d="m45 15h-2v-7a1 1 0 0 0 -1-1h-3v-6a1 1 0 0 0 -1-1h-28a1 1 0 0 0 -1 1v6h-3a1 1 0 0 0 -1 1v7h-2a3 3 0 0 0 -3 3v18a3 3 0 0 0 3 3h6v8a1 1 0 0 0 1 1h28a1 1 0 0 0 1-1v-8h6a3 3 0 0 0 3-3v-18a3 3 0 0 0 -3-3zm-4-6v6h-2v-6zm-30-7h26v13h-26zm-4 7h2v6h-2zm30 37h-26v-14h26zm9-10a1 1 0 0 1 -1 1h-6v-6a1 1 0 0 0 -1-1h-28a1 1 0 0 0 -1 1v6h-6a1 1 0 0 1 -1-1v-18a1 1 0 0 1 1-1h42a1 1 0 0 1 1 1z"/><path d="m43 19a1 1 0 0 0 0 2 1 1 0 0 0 0-2z"/><path d="m39 19a1 1 0 0 0 0 2 1 1 0 0 0 0-2z"/><path d="m15 19h-10a1 1 0 0 0 0 2h10a1 1 0 0 0 0-2z"/><path d="m14 44h20a1 1 0 0 0 0-2h-20a1 1 0 0 0 0 2z"/><path d="m14 40h20a1 1 0 0 0 0-2h-20a1 1 0 0 0 0 2z"/><path d="m14 36h20a1 1 0 0 0 0-2h-20a1 1 0 0 0 0 2z"/></g></svg>