<!-- Generated by IcoMoon.io -->
<svg version="1.1" xmlns="http://www.w3.org/2000/svg" width="32" height="32" viewBox="0 0 32 32">
<title>electric-heater</title>
<path d="M29.787 28l-1.047-16.067c-0.446-6.687-5.979-11.942-12.74-11.942s-12.294 5.255-12.738 11.903l-0.002 0.039-1.047 16.067c-0.006 0.080-0.010 0.173-0.010 0.267 0 2.061 1.669 3.731 3.729 3.733h20.127c0.003 0 0.006 0 0.010 0 2.058 0 3.727-1.669 3.727-3.727 0-0.096-0.004-0.192-0.011-0.286l0.001 0.013zM26.060 30.667h-20.127c-1.325-0.005-2.398-1.081-2.398-2.407 0-0.052 0.002-0.103 0.005-0.154l-0 0.007 1.053-16.113c0.421-5.97 5.367-10.653 11.407-10.653s10.986 4.683 11.405 10.617l0.002 0.036 1.053 16.093c0.004 0.050 0.006 0.108 0.006 0.167 0 1.329-1.077 2.406-2.406 2.407h-0z"></path>
<path d="M23.333 9.333h-14.667c-1.105 0-2 0.895-2 2v0 14.667c0 1.105 0.895 2 2 2v0h14.667c1.105 0 2-0.895 2-2v0-14.667c0-1.105-0.895-2-2-2v0zM8.667 10.667h14.667c0.368 0 0.667 0.298 0.667 0.667v0 4.667h-16v-4.667c0-0.368 0.298-0.667 0.667-0.667v0zM24 22.667h-16v-5.333h16zM23.333 26.667h-14.667c-0.368 0-0.667-0.298-0.667-0.667v0-2h16v2c0 0.368-0.298 0.667-0.667 0.667v0z"></path>
<path d="M16 8c7.113 0 7.12-5.333 0-5.333s-7.12 5.333 0 5.333zM16 4c2.48 0 4 0.86 4 1.333s-1.52 1.333-4 1.333-4-0.86-4-1.333 1.52-1.333 4-1.333z"></path>
<path d="M23.333 28.667c-0.368 0-0.667 0.298-0.667 0.667s0.298 0.667 0.667 0.667v0c0.368 0 0.667-0.298 0.667-0.667s-0.298-0.667-0.667-0.667v0z"></path>
<path d="M20.667 28.667c-0.368 0-0.667 0.298-0.667 0.667s0.298 0.667 0.667 0.667v0c0.368 0 0.667-0.298 0.667-0.667s-0.298-0.667-0.667-0.667v0z"></path>
</svg>
