<svg height="512" viewBox="0 0 48 48" width="512" xmlns="http://www.w3.org/2000/svg"><g id="Heater_Room" data-name="Heater Room"><path d="m44.68 42-1.57-24.1a19.15 19.15 0 0 0 -38.22 0l-1.57 24.1a5.6 5.6 0 0 0 5.58 6h30.19a5.59 5.59 0 0 0 5.59-6zm-5.59 4h-30.19a3.61 3.61 0 0 1 -3.59-3.83l1.58-24.17a17.15 17.15 0 0 1 34.22 0l1.58 24.14a3.61 3.61 0 0 1 -3.6 3.86z"/><path d="m35 14h-22a3 3 0 0 0 -3 3v22a3 3 0 0 0 3 3h22a3 3 0 0 0 3-3v-22a3 3 0 0 0 -3-3zm-22 2h22a1 1 0 0 1 1 1v7h-24v-7a1 1 0 0 1 1-1zm23 18h-24v-8h24zm-1 6h-22a1 1 0 0 1 -1-1v-3h24v3a1 1 0 0 1 -1 1z"/><path d="m24 12c10.67 0 10.68-8 0-8s-10.68 8 0 8zm0-6c3.72 0 6 1.29 6 2s-2.28 2-6 2-6-1.29-6-2 2.28-2 6-2z"/><path d="m35 43a1 1 0 0 0 0 2 1 1 0 0 0 0-2z"/><path d="m31 43a1 1 0 0 0 0 2 1 1 0 0 0 0-2z"/></g></svg>