<!-- Generated by IcoMoon.io -->
<svg version="1.1" xmlns="http://www.w3.org/2000/svg" width="32" height="32" viewBox="0 0 32 32">
<title>microwave-oven</title>
<path d="M31.333 4.667h-30.667c-0.368 0-0.667 0.298-0.667 0.667v0 18.667c0 0.368 0.298 0.667 0.667 0.667v0h0.667v2c0 0.368 0.298 0.667 0.667 0.667v0h5.333c0.368 0 0.667-0.298 0.667-0.667v0-2h16v2c0 0.368 0.298 0.667 0.667 0.667v0h5.333c0.368 0 0.667-0.298 0.667-0.667v0-2h0.667c0.368 0 0.667-0.298 0.667-0.667v0-18.667c0-0.368-0.298-0.667-0.667-0.667v0zM1.333 6h20v17.333h-20zM6.667 26h-4v-1.333h4zM29.333 26h-4v-1.333h4zM30.667 23.333h-8v-17.333h8z"></path>
<path d="M24.667 11.333h4c0.368 0 0.667-0.298 0.667-0.667v0-2.667c0-0.368-0.298-0.667-0.667-0.667v0h-4c-0.368 0-0.667 0.298-0.667 0.667v0 2.667c0 0.368 0.298 0.667 0.667 0.667v0zM25.333 8.667h2.667v1.333h-2.667z"></path>
<path d="M25.333 14c-0.368 0-0.667 0.298-0.667 0.667s0.298 0.667 0.667 0.667v0c0.368 0 0.667-0.298 0.667-0.667s-0.298-0.667-0.667-0.667v0z"></path>
<path d="M28 14c-0.368 0-0.667 0.298-0.667 0.667s0.298 0.667 0.667 0.667v0c0.368 0 0.667-0.298 0.667-0.667s-0.298-0.667-0.667-0.667v0z"></path>
<path d="M25.333 16.667c-0.368 0-0.667 0.298-0.667 0.667s0.298 0.667 0.667 0.667v0c0.368 0 0.667-0.298 0.667-0.667s-0.298-0.667-0.667-0.667v0z"></path>
<path d="M28 16.667c-0.368 0-0.667 0.298-0.667 0.667s0.298 0.667 0.667 0.667v0c0.368 0 0.667-0.298 0.667-0.667s-0.298-0.667-0.667-0.667v0z"></path>
<path d="M25.333 19.333c-0.368 0-0.667 0.298-0.667 0.667s0.298 0.667 0.667 0.667v0c0.368 0 0.667-0.298 0.667-0.667s-0.298-0.667-0.667-0.667v0z"></path>
<path d="M28 19.333c-0.368 0-0.667 0.298-0.667 0.667s0.298 0.667 0.667 0.667v0c0.368 0 0.667-0.298 0.667-0.667s-0.298-0.667-0.667-0.667v0z"></path>
<path d="M20 19.333v-9.333c0-0.368-0.298-0.667-0.667-0.667s-0.667 0.298-0.667 0.667v0 9.333c0 0.368 0.298 0.667 0.667 0.667s0.667-0.298 0.667-0.667v0z"></path>
<path d="M3.333 10c0.36 0 0.38-0.1 1.807-1.527 0.121-0.121 0.196-0.289 0.196-0.473 0-0.37-0.3-0.669-0.669-0.669-0.185 0-0.352 0.075-0.473 0.196l-1.333 1.333c-0.122 0.121-0.197 0.288-0.197 0.473 0 0.368 0.298 0.667 0.667 0.667 0.001 0 0.003 0 0.004 0h-0z"></path>
<path d="M3.333 13.333c0.393 0 0.113 0.16 5.14-4.86 0.121-0.121 0.196-0.288 0.196-0.473 0-0.37-0.3-0.669-0.669-0.669-0.185 0-0.352 0.075-0.473 0.196l-4.667 4.667c-0.122 0.121-0.197 0.288-0.197 0.473 0 0.368 0.298 0.667 0.667 0.667 0.001 0 0.003 0 0.004 0h-0z"></path>
</svg>
