<svg height="512" viewBox="0 0 48 48" width="512" xmlns="http://www.w3.org/2000/svg"><g id="Microwave"><path d="m47 7h-46a1 1 0 0 0 -1 1v28a1 1 0 0 0 1 1h1v3a1 1 0 0 0 1 1h8a1 1 0 0 0 1-1v-3h24v3a1 1 0 0 0 1 1h8a1 1 0 0 0 1-1v-3h1a1 1 0 0 0 1-1v-28a1 1 0 0 0 -1-1zm-45 2h30v26h-30zm8 30h-6v-2h6zm34 0h-6v-2h6zm2-4h-12v-26h12z"/><path d="m37 17h6a1 1 0 0 0 1-1v-4a1 1 0 0 0 -1-1h-6a1 1 0 0 0 -1 1v4a1 1 0 0 0 1 1zm1-4h4v2h-4z"/><path d="m38 21a1 1 0 0 0 0 2 1 1 0 0 0 0-2z"/><path d="m42 21a1 1 0 0 0 0 2 1 1 0 0 0 0-2z"/><path d="m38 25a1 1 0 0 0 0 2 1 1 0 0 0 0-2z"/><path d="m42 25a1 1 0 0 0 0 2 1 1 0 0 0 0-2z"/><path d="m38 29a1 1 0 0 0 0 2 1 1 0 0 0 0-2z"/><path d="m42 29a1 1 0 0 0 0 2 1 1 0 0 0 0-2z"/><path d="m30 29v-14a1 1 0 0 0 -2 0v14a1 1 0 0 0 2 0z"/><path d="m5 15c.54 0 .57-.15 2.71-2.29a1 1 0 0 0 -1.42-1.42l-2 2a1 1 0 0 0 .71 1.71z"/><path d="m5 20c.59 0 .17.24 7.71-7.29a1 1 0 0 0 -1.42-1.42l-7 7a1 1 0 0 0 .71 1.71z"/></g></svg>