<svg height="512" viewBox="0 0 48 48" width="512" xmlns="http://www.w3.org/2000/svg"><g id="Speaker_wireless" data-name="Speaker wireless"><path d="m41 12h-34a7 7 0 0 0 -7 7v18a7 7 0 0 0 6 6.92v1.08a3 3 0 0 0 3 3h5a3 3 0 0 0 3-3v-1h14v1a3 3 0 0 0 3 3h5a3 3 0 0 0 3-3v-1.08a7 7 0 0 0 6-6.92v-18a7 7 0 0 0 -7-7zm-26 33a1 1 0 0 1 -1 1h-5a1 1 0 0 1 -1-1v-1h7zm25 0a1 1 0 0 1 -1 1h-5a1 1 0 0 1 -1-1v-1h7zm6-8a5 5 0 0 1 -5 5h-34a5 5 0 0 1 -5-5v-18a5 5 0 0 1 5-5h34a5 5 0 0 1 5 5z"/><path d="m41 16h-34a3 3 0 0 0 -3 3v18a3 3 0 0 0 3 3h34a3 3 0 0 0 3-3v-18a3 3 0 0 0 -3-3zm1 21a1 1 0 0 1 -1 1h-34a1 1 0 0 1 -1-1v-18a1 1 0 0 1 1-1h34a1 1 0 0 1 1 1z"/><path d="m23 9a1 1 0 0 0 2 0 1 1 0 0 0 -2 0z"/><path d="m27.54 5.46a5 5 0 0 0 -7.08 0 1 1 0 0 0 1.42 1.42 3.08 3.08 0 0 1 4.24 0 1 1 0 0 0 1.42-1.42z"/><path d="m19.05 4.05a7 7 0 0 1 9.9 0 1 1 0 0 0 1.41-1.41c-5.74-5.75-14.68-.54-12.72 1.41a1 1 0 0 0 1.41 0z"/><path d="m14 27a1 1 0 0 0 0 2 1 1 0 0 0 0-2z"/><path d="m18 27a1 1 0 0 0 0 2 1 1 0 0 0 0-2z"/><path d="m22 27a1 1 0 0 0 0 2 1 1 0 0 0 0-2z"/><path d="m26 27a1 1 0 0 0 0 2 1 1 0 0 0 0-2z"/><path d="m30 27a1 1 0 0 0 0 2 1 1 0 0 0 0-2z"/><path d="m34 27a1 1 0 0 0 0 2 1 1 0 0 0 0-2z"/><path d="m14 21a1 1 0 0 0 0-2 1 1 0 0 0 0 2z"/><path d="m18 21a1 1 0 0 0 0-2 1 1 0 0 0 0 2z"/><path d="m22 21a1 1 0 0 0 0-2 1 1 0 0 0 0 2z"/><path d="m26 21a1 1 0 0 0 0-2 1 1 0 0 0 0 2z"/><path d="m30 21a1 1 0 0 0 0-2 1 1 0 0 0 0 2z"/><path d="m34 21a1 1 0 0 0 0-2 1 1 0 0 0 0 2z"/><path d="m16 25a1 1 0 0 0 0-2 1 1 0 0 0 0 2z"/><path d="m20 25a1 1 0 0 0 0-2 1 1 0 0 0 0 2z"/><path d="m24 25a1 1 0 0 0 0-2 1 1 0 0 0 0 2z"/><path d="m28 25a1 1 0 0 0 0-2 1 1 0 0 0 0 2z"/><path d="m32 25a1 1 0 0 0 0-2 1 1 0 0 0 0 2z"/><path d="m16 31a1 1 0 0 0 0 2 1 1 0 0 0 0-2z"/><path d="m10 29a1 1 0 0 0 0-2 1 1 0 0 0 0 2z"/><path d="m10 21a1 1 0 0 0 0-2 1 1 0 0 0 0 2z"/><path d="m12 25a1 1 0 0 0 0-2 1 1 0 0 0 0 2z"/><path d="m8 25a1 1 0 0 0 0-2 1 1 0 0 0 0 2z"/><path d="m12 31a1 1 0 0 0 0 2 1 1 0 0 0 0-2z"/><path d="m8 31a1 1 0 0 0 0 2 1 1 0 0 0 0-2z"/><path d="m20 31a1 1 0 0 0 0 2 1 1 0 0 0 0-2z"/><path d="m24 31a1 1 0 0 0 0 2 1 1 0 0 0 0-2z"/><path d="m28 31a1 1 0 0 0 0 2 1 1 0 0 0 0-2z"/><path d="m32 31a1 1 0 0 0 0 2 1 1 0 0 0 0-2z"/><path d="m38 27a1 1 0 0 0 0 2 1 1 0 0 0 0-2z"/><path d="m14 35a1 1 0 0 0 0 2 1 1 0 0 0 0-2z"/><path d="m18 35a1 1 0 0 0 0 2 1 1 0 0 0 0-2z"/><path d="m22 35a1 1 0 0 0 0 2 1 1 0 0 0 0-2z"/><path d="m26 35a1 1 0 0 0 0 2 1 1 0 0 0 0-2z"/><path d="m30 35a1 1 0 0 0 0 2 1 1 0 0 0 0-2z"/><path d="m34 35a1 1 0 0 0 0 2 1 1 0 0 0 0-2z"/><path d="m10 35a1 1 0 0 0 0 2 1 1 0 0 0 0-2z"/><path d="m38 35a1 1 0 0 0 0 2 1 1 0 0 0 0-2z"/><path d="m38 21a1 1 0 0 0 0-2 1 1 0 0 0 0 2z"/><path d="m36 25a1 1 0 0 0 0-2 1 1 0 0 0 0 2z"/><path d="m40 25a1 1 0 0 0 0-2 1 1 0 0 0 0 2z"/><path d="m36 31a1 1 0 0 0 0 2 1 1 0 0 0 0-2z"/><path d="m40 31a1 1 0 0 0 0 2 1 1 0 0 0 0-2z"/></g></svg>