<?xml version="1.0" encoding="UTF-8"?>
<svg xmlns="http://www.w3.org/2000/svg" viewBox="0 0 48 48" width="512" height="512"><g id="Water_Heater_Shower" data-name="Water Heater Shower"><path d="M25,30V8a4,4,0,0,0-4-4H11A4,4,0,0,0,7,8V30a4,4,0,0,0,4,4H21A4,4,0,0,0,25,30ZM9,30V8a2,2,0,0,1,2-2H21a2,2,0,0,1,2,2V30a2,2,0,0,1-2,2H11A2,2,0,0,1,9,30Z"/><path d="M16,20a5,5,0,1,0,5,5A5,5,0,0,0,16,20Zm0,8a3,3,0,0,1-1-5.82V24a1,1,0,0,0,2,0V22.18A3,3,0,0,1,16,28Z"/><path d="M41,4a7,7,0,0,0-4.58,12.28C39.28,23.62,36.8,27,39,27h1V41a5,5,0,0,1-5,5H25a5,5,0,0,1-4.9-4H21a1,1,0,0,0,1-1V38h1a9,9,0,0,0,9-9V9a9,9,0,0,0-9-9H9A9,9,0,0,0,0,9V29a9,9,0,0,0,9,9h7v3a1,1,0,0,0,1,1h1.08A7,7,0,0,0,25,48H35a7,7,0,0,0,7-7V27h1c2.08,0-.21-3.56,2.58-10.72A7,7,0,0,0,41,4ZM2,29V9A7,7,0,0,1,9,2H23a7,7,0,0,1,7,7V29a7,7,0,0,1-7,7H9A7,7,0,0,1,2,29Zm18,9v2H18V38ZM41,6a5,5,0,1,1-3.1,8.93A5,5,0,0,1,41,6Zm1,19H40c0-8.14-2.21-7.42-.09-7.09A7.33,7.33,0,0,0,43,17.72,25.11,25.11,0,0,0,42,25Z"/><path d="M44,12a1,1,0,0,0,0-2A1,1,0,0,0,44,12Z"/><path d="M41,9a1,1,0,0,0,0-2A1,1,0,0,0,41,9Z"/><path d="M39,11a1,1,0,0,0-2,0A1,1,0,0,0,39,11Z"/><path d="M41,15a1,1,0,0,0,0-2A1,1,0,0,0,41,15Z"/><path d="M41,12a1,1,0,0,0,0-2A1,1,0,0,0,41,12Z"/></g></svg>
