<!-- Generated by IcoMoon.io -->
<svg version="1.1" xmlns="http://www.w3.org/2000/svg" width="32" height="32" viewBox="0 0 32 32">
<title>water-heater-1</title>
<path d="M16.667 20v-14.667c0-1.473-1.194-2.667-2.667-2.667v0h-6.667c-1.473 0-2.667 1.194-2.667 2.667v0 14.667c0 1.473 1.194 2.667 2.667 2.667v0h6.667c1.473 0 2.667-1.194 2.667-2.667v0zM6 20v-14.667c0-0.736 0.597-1.333 1.333-1.333v0h6.667c0.736 0 1.333 0.597 1.333 1.333v0 14.667c0 0.736-0.597 1.333-1.333 1.333v0h-6.667c-0.736 0-1.333-0.597-1.333-1.333v0z"></path>
<path d="M10.667 13.333c-1.841 0-3.333 1.492-3.333 3.333s1.492 3.333 3.333 3.333c1.841 0 3.333-1.492 3.333-3.333v0c0-1.841-1.492-3.333-3.333-3.333v0zM10.667 18.667c-1.098-0.009-1.984-0.901-1.984-2 0-0.86 0.543-1.593 1.304-1.876l0.014-0.005v1.213c0 0.368 0.298 0.667 0.667 0.667s0.667-0.298 0.667-0.667v0-1.213c0.775 0.287 1.318 1.020 1.318 1.88 0 1.099-0.887 1.991-1.984 2h-0.001z"></path>
<path d="M27.333 2.667c-2.573 0.006-4.656 2.093-4.656 4.667 0 1.402 0.618 2.66 1.597 3.515l0.005 0.005c1.907 4.893 0.253 7.147 1.72 7.147h0.667v9.333c0 1.841-1.492 3.333-3.333 3.333v0h-6.667c-0 0-0 0-0.001 0-1.605 0-2.945-1.134-3.262-2.645l-0.004-0.022h0.6c0.368 0 0.667-0.298 0.667-0.667v0-2h0.667c3.314 0 6-2.686 6-6v0-13.333c0-3.314-2.686-6-6-6v0h-9.333c-3.314 0-6 2.686-6 6v0 13.333c0 3.314 2.686 6 6 6v0h4.667v2c0 0.368 0.298 0.667 0.667 0.667v0h0.72c0.337 2.273 2.274 3.997 4.613 4h6.667c2.577 0 4.667-2.089 4.667-4.667v0-9.333h0.667c1.387 0-0.14-2.373 1.72-7.147 0.984-0.86 1.603-2.118 1.603-3.52 0-2.574-2.083-4.661-4.656-4.667h-0.001zM1.333 19.333v-13.333c0-2.577 2.089-4.667 4.667-4.667v0h9.333c2.577 0 4.667 2.089 4.667 4.667v0 13.333c0 2.577-2.089 4.667-4.667 4.667v0h-9.333c-2.577 0-4.667-2.089-4.667-4.667v0zM13.333 25.333v1.333h-1.333v-1.333zM27.333 4c1.838 0.003 3.327 1.494 3.327 3.333 0 1.841-1.492 3.333-3.333 3.333-0.781 0-1.499-0.269-2.068-0.719l0.007 0.005c-0.778-0.616-1.273-1.56-1.273-2.62 0-1.841 1.492-3.333 3.333-3.333 0.002 0 0.004 0 0.006 0h-0zM28 16.667h-1.333c0-5.427-1.473-4.947-0.060-4.727 0.221 0.036 0.477 0.056 0.737 0.056 0.471 0 0.927-0.067 1.358-0.191l-0.035 0.009c-0.424 1.402-0.668 3.012-0.668 4.68 0 0.061 0 0.122 0.001 0.182l-0-0.009z"></path>
<path d="M29.333 8c0.368 0 0.667-0.298 0.667-0.667s-0.298-0.667-0.667-0.667v0c-0.368 0-0.667 0.298-0.667 0.667s0.298 0.667 0.667 0.667v0z"></path>
<path d="M27.333 6c0.368 0 0.667-0.298 0.667-0.667s-0.298-0.667-0.667-0.667v0c-0.368 0-0.667 0.298-0.667 0.667s0.298 0.667 0.667 0.667v0z"></path>
<path d="M26 7.333c0-0.368-0.298-0.667-0.667-0.667s-0.667 0.298-0.667 0.667v0c0 0.368 0.298 0.667 0.667 0.667s0.667-0.298 0.667-0.667v0z"></path>
<path d="M27.333 10c0.368 0 0.667-0.298 0.667-0.667s-0.298-0.667-0.667-0.667v0c-0.368 0-0.667 0.298-0.667 0.667s0.298 0.667 0.667 0.667v0z"></path>
<path d="M27.333 8c0.368 0 0.667-0.298 0.667-0.667s-0.298-0.667-0.667-0.667v0c-0.368 0-0.667 0.298-0.667 0.667s0.298 0.667 0.667 0.667v0z"></path>
</svg>
