<svg height="512" viewBox="0 0 48 48" width="512" xmlns="http://www.w3.org/2000/svg"><g id="Vacuum_Cleaner" data-name="Vacuum Cleaner"><path d="m44 36.18v-6.18a9 9 0 0 0 -5-8v-1a4 4 0 0 0 -3-3.86c0-9.29-6.95-15.14-14.5-15.14a14.51 14.51 0 0 0 -14.5 14.5v14.67a3 3 0 0 0 -2 2.83v6c-3.06 0-3.73-.2-4 .76-1 4.29-1.19 4.34-.79 4.86s-.21.38 14.79.38a1 1 0 0 0 1-1.24l-1-4a1 1 0 0 0 -1-.76h-3v-6a3 3 0 0 0 -2-2.83c0-.3 0 1.36 0-14.67a12.52 12.52 0 0 1 12.5-12.5c6.4 0 12.5 4.9 12.5 13.14a4 4 0 0 0 -3 3.86v1a9 9 0 0 0 -5 8v6.18a3 3 0 0 0 -4 2.82v4a3 3 0 0 0 5.71 1.27 4 4 0 0 0 2.29.73c10.78 0 10.91.24 12.29-.73a3 3 0 0 0 5.71-1.27v-4a3 3 0 0 0 -4-2.82zm-30.28 7.82h-11.44l.5-2h10.44zm-4.72-4h-2v-6a1 1 0 0 1 2 0zm24-19a2 2 0 0 1 4 0c0 .53.16 0-2 0s-2 .53-2 0zm2 2a7 7 0 0 1 7 7v2h-3.13a4 4 0 0 0 -7.74 0h-3.13v-2a7 7 0 0 1 7-7zm-9 20a1 1 0 0 1 -2 0v-4a1 1 0 0 1 2 0zm14 0h-10a2 2 0 0 1 -2-2v-7h4a1 1 0 0 0 1-1 2 2 0 0 1 4 0 1 1 0 0 0 1 1h4v7a2 2 0 0 1 -2 2zm6 0a1 1 0 0 1 -2 0v-4a1 1 0 0 1 2 0z"/></g></svg>