<!-- Generated by IcoMoon.io -->
<svg version="1.1" xmlns="http://www.w3.org/2000/svg" width="32" height="32" viewBox="0 0 32 32">
<title>vacuum-cleaner-1</title>
<path d="M29.333 24.12v-4.12c-0.017-2.326-1.354-4.336-3.299-5.318l-0.034-0.016v-0.667c-0.004-1.232-0.843-2.267-1.981-2.569l-0.019-0.004c0-6.193-4.633-10.093-9.667-10.093-5.337 0.004-9.663 4.329-9.667 9.666v9.78c-0.783 0.283-1.333 1.020-1.333 1.886 0 0 0 0.001 0 0.001v-0 4c-2.040 0-2.487-0.133-2.667 0.507-0.667 2.86-0.793 2.893-0.527 3.24s-0.14 0.253 9.86 0.253c0.006 0 0.013 0 0.020 0 0.368 0 0.667-0.298 0.667-0.667 0-0.057-0.007-0.112-0.021-0.165l0.001 0.005-0.667-2.667c-0.074-0.293-0.336-0.507-0.647-0.507-0.007 0-0.014 0-0.020 0l0.001-0h-2v-4c0-0 0-0.001 0-0.001 0-0.866-0.55-1.603-1.319-1.881l-0.014-0.004c0-0.2 0 0.907 0-9.78 0.008-4.599 3.734-8.326 8.333-8.333h0.001c4.267 0 8.333 3.267 8.333 8.76-1.157 0.306-1.996 1.341-2 2.573v0.667c-1.979 0.998-3.317 3.007-3.333 5.331v4.122c-0.199-0.072-0.428-0.114-0.667-0.114-1.103 0-1.997 0.892-2 1.994v2.667c0.006 1.1 0.899 1.989 2 1.989 0.793 0 1.478-0.461 1.802-1.13l0.005-0.012c0.425 0.303 0.954 0.485 1.526 0.487h0c7.187 0 7.273 0.16 8.193-0.487 0.329 0.681 1.014 1.142 1.807 1.142 1.101 0 1.994-0.889 2-1.988v-2.667c-0.003-1.102-0.897-1.994-2-1.994-0.239 0-0.468 0.042-0.681 0.119l0.014-0.004zM9.147 29.333h-7.627l0.333-1.333h6.96zM6 26.667h-1.333v-4c0-0.368 0.298-0.667 0.667-0.667s0.667 0.298 0.667 0.667v0zM22 14c0-0.736 0.597-1.333 1.333-1.333s1.333 0.597 1.333 1.333v0c0 0.353 0.107 0-1.333 0s-1.333 0.353-1.333 0zM23.333 15.333c2.577 0 4.667 2.089 4.667 4.667v0 1.333h-2.087c-0.309-1.155-1.347-1.992-2.58-1.992s-2.271 0.837-2.576 1.974l-0.004 0.019h-2.087v-1.333c0-2.577 2.089-4.667 4.667-4.667v0zM17.333 28.667c0 0.368-0.298 0.667-0.667 0.667s-0.667-0.298-0.667-0.667v0-2.667c0-0.368 0.298-0.667 0.667-0.667s0.667 0.298 0.667 0.667v0zM26.667 28.667h-6.667c-0.736 0-1.333-0.597-1.333-1.333v0-4.667h2.667c0.368 0 0.667-0.298 0.667-0.667v0c0-0.736 0.597-1.333 1.333-1.333s1.333 0.597 1.333 1.333v0c0 0.368 0.298 0.667 0.667 0.667v0h2.667v4.667c0 0.736-0.597 1.333-1.333 1.333v0zM30.667 28.667c0 0.368-0.298 0.667-0.667 0.667s-0.667-0.298-0.667-0.667v0-2.667c0-0.368 0.298-0.667 0.667-0.667s0.667 0.298 0.667 0.667v0z"></path>
</svg>
