<!-- Generated by IcoMoon.io -->
<svg version="1.1" xmlns="http://www.w3.org/2000/svg" width="32" height="32" viewBox="0 0 32 32">
<title>washing-machine-5</title>
<path d="M28 0h-24c-0.368 0-0.667 0.298-0.667 0.667v0 30.667c0 0.368 0.298 0.667 0.667 0.667v0h24c0.368 0 0.667-0.298 0.667-0.667v0-30.667c0-0.368-0.298-0.667-0.667-0.667v0zM27.333 5.333h-14.667v-4h14.667zM4.667 1.333h6.667v4h-6.667zM4.667 30.667v-24h22.667v24z"></path>
<path d="M16 9.333c-5.155 0-9.333 4.179-9.333 9.333s4.179 9.333 9.333 9.333c5.155 0 9.333-4.179 9.333-9.333v0c0-5.155-4.179-9.333-9.333-9.333v0zM16 26.667c-4.418 0-8-3.582-8-8s3.582-8 8-8c4.418 0 8 3.582 8 8v0c0 4.418-3.582 8-8 8v0z"></path>
<path d="M21.087 15.26c-0.123 0.041-0.265 0.065-0.412 0.065-0.736 0-1.333-0.597-1.333-1.333 0-0.147 0.024-0.289 0.068-0.421l-0.003 0.009c0.025-0.067 0.039-0.145 0.039-0.225 0-0.253-0.141-0.473-0.349-0.586l-0.003-0.002c-0.898-0.481-1.965-0.763-3.097-0.763-3.682 0-6.667 2.985-6.667 6.667s2.985 6.667 6.667 6.667c3.682 0 6.667-2.985 6.667-6.667 0-1.132-0.282-2.199-0.78-3.133l0.017 0.036c-0.115-0.211-0.335-0.353-0.588-0.353-0.081 0-0.158 0.014-0.23 0.041l0.005-0.002zM16 24c-0.008 0-0.017 0-0.026 0-2.946 0-5.333-2.388-5.333-5.333s2.388-5.333 5.333-5.333c0.731 0 1.427 0.147 2.061 0.413l-0.035-0.013c-0.009 0.084-0.015 0.182-0.015 0.282 0 1.473 1.194 2.667 2.667 2.667 0.099 0 0.197-0.005 0.293-0.016l-0.012 0.001c0.246 0.592 0.389 1.279 0.389 2 0 2.942-2.382 5.327-5.322 5.333h-0.001z"></path>
<path d="M17.333 3.333c0 0.736-0.597 1.333-1.333 1.333s-1.333-0.597-1.333-1.333c0-0.736 0.597-1.333 1.333-1.333s1.333 0.597 1.333 1.333z"></path>
<path d="M26 4v-1.333c0-0.368-0.298-0.667-0.667-0.667s-0.667 0.298-0.667 0.667v0 1.333c0 0.368 0.298 0.667 0.667 0.667s0.667-0.298 0.667-0.667v0z"></path>
<path d="M23.333 4v-1.333c0-0.368-0.298-0.667-0.667-0.667s-0.667 0.298-0.667 0.667v0 1.333c0 0.368 0.298 0.667 0.667 0.667s0.667-0.298 0.667-0.667v0z"></path>
</svg>
