<svg id="Laundry_Washing_Machine" height="512" viewBox="0 0 48 48" width="512" xmlns="http://www.w3.org/2000/svg" data-name="Laundry Washing Machine"><path d="m42 0h-36a1 1 0 0 0 -1 1v46a1 1 0 0 0 1 1h36a1 1 0 0 0 1-1v-46a1 1 0 0 0 -1-1zm-1 8h-22v-6h22zm-34-6h10v6h-10zm0 44v-36h34v36z"/><path d="m24 14a14 14 0 1 0 14 14 14 14 0 0 0 -14-14zm0 26a12 12 0 1 1 12-12 12 12 0 0 1 -12 12z"/><path d="m31.63 22.89a2 2 0 0 1 -2.52-2.52 1 1 0 0 0 -.47-1.22 10 10 0 1 0 4.21 4.21 1 1 0 0 0 -1.22-.47zm-7.63 13.11a8 8 0 1 1 3-15.4 4 4 0 0 0 4.4 4.4 8 8 0 0 1 -7.4 11z"/><circle cx="24" cy="5" r="2"/><path d="m39 6v-2a1 1 0 0 0 -2 0v2a1 1 0 0 0 2 0z"/><path d="m35 6v-2a1 1 0 0 0 -2 0v2a1 1 0 0 0 2 0z"/></svg>