<!-- Generated by IcoMoon.io -->
<svg version="1.1" xmlns="http://www.w3.org/2000/svg" width="32" height="32" viewBox="0 0 32 32">
<title>fan-1</title>
<path d="M32 11.333c0-0.005 0-0.010 0-0.015 0-6.259-5.074-11.333-11.333-11.333s-11.333 5.074-11.333 11.333c0 5.293 3.629 9.739 8.535 10.985l0.078 0.017-0.533 4.347h-1.413c-1.473 0-2.667 1.194-2.667 2.667s1.194 2.667 2.667 2.667v0h9.333c1.473 0 2.667-1.194 2.667-2.667s-1.194-2.667-2.667-2.667v0h-1.413l-0.533-4.347c4.979-1.262 8.606-5.7 8.613-10.986v-0.001zM10.667 11.333c0-5.523 4.477-10 10-10s10 4.477 10 10c0 5.523-4.477 10-10 10v0c-5.523 0-10-4.477-10-10v0zM26.667 29.333c0 0.736-0.597 1.333-1.333 1.333v0h-9.333c-0.736 0-1.333-0.597-1.333-1.333s0.597-1.333 1.333-1.333v0h9.333c0.736 0 1.333 0.597 1.333 1.333v0zM22.58 26.667h-1.247v-0.667c0-0.368-0.298-0.667-0.667-0.667s-0.667 0.298-0.667 0.667v0 0.667h-1.247l0.507-4.1c0.423 0.064 0.91 0.1 1.407 0.1s0.984-0.036 1.461-0.107l-0.054 0.007z"></path>
<path d="M25.333 15.333c-0.004-1.307-0.544-2.487-1.412-3.332l-0.001-0.001h4.747c1.707 0 0.233-5.333-4-5.333-1.307 0.004-2.487 0.544-3.332 1.412l-0.001 0.001v-4.747c0-1.707-5.333-0.233-5.333 4 0.004 1.307 0.544 2.487 1.412 3.332l0.001 0.001h-4.747c-1.707 0-0.233 5.333 4 5.333 1.307-0.004 2.487-0.544 3.332-1.412l0.001-0.001v4.747c0 1.707 5.333 0.233 5.333-4zM20.667 10.667c0.368 0 0.667 0.298 0.667 0.667s-0.298 0.667-0.667 0.667v0c-0.368 0-0.667-0.298-0.667-0.667s0.298-0.667 0.667-0.667v0zM21.333 18.6v-5.387c0.411-0.15 0.75-0.414 0.989-0.753l0.004-0.007c1 0.588 1.661 1.658 1.661 2.883 0 1.6-1.128 2.937-2.632 3.259l-0.022 0.004zM27.933 10.667h-5.387c-0.15-0.411-0.414-0.75-0.753-0.989l-0.007-0.004c0.588-1 1.658-1.661 2.883-1.661 1.6 0 2.937 1.128 3.259 2.632l0.004 0.022zM20 4.067v5.387c-0.411 0.15-0.75 0.414-0.989 0.753l-0.004 0.007c-1-0.588-1.661-1.658-1.661-2.883 0-1.6 1.128-2.937 2.632-3.259l0.022-0.004zM13.4 12h5.387c0.15 0.411 0.414 0.75 0.753 0.989l0.007 0.004c-0.588 1-1.658 1.661-2.883 1.661-1.6 0-2.937-1.128-3.259-2.632l-0.004-0.022z"></path>
<path d="M2 8.667h4.667c0.368 0 0.667-0.298 0.667-0.667s-0.298-0.667-0.667-0.667v0h-4.667c-0.368 0-0.667-0.298-0.667-0.667s0.298-0.667 0.667-0.667v0h1.333c0.368 0 0.667-0.298 0.667-0.667s-0.298-0.667-0.667-0.667v0h-1.333c-1.105 0-2 0.895-2 2s0.895 2 2 2v0z"></path>
<path d="M6.667 14h-4.667c-1.105 0-2 0.895-2 2s0.895 2 2 2v0h1.333c0.368 0 0.667-0.298 0.667-0.667s-0.298-0.667-0.667-0.667v0h-1.333c-0.368 0-0.667-0.298-0.667-0.667s0.298-0.667 0.667-0.667v0h4.667c0.368 0 0.667-0.298 0.667-0.667s-0.298-0.667-0.667-0.667v0z"></path>
<path d="M7.333 10.667h-5.333c-0.368 0-0.667 0.298-0.667 0.667s0.298 0.667 0.667 0.667v0h5.333c0.368 0 0.667-0.298 0.667-0.667s-0.298-0.667-0.667-0.667v0z"></path>
</svg>
