<svg height="512" viewBox="0 0 48 48" width="512" xmlns="http://www.w3.org/2000/svg"><g id="Fan"><path d="m48 17a17 17 0 1 0 -21.08 16.48l-.8 6.52h-2.12a4 4 0 0 0 0 8h14a4 4 0 0 0 0-8h-2.12l-.8-6.52a17 17 0 0 0 12.92-16.48zm-32 0a15 15 0 1 1 15 15 15 15 0 0 1 -15-15zm24 27a2 2 0 0 1 -2 2h-14a2 2 0 0 1 0-4h14a2 2 0 0 1 2 2zm-6.13-4h-1.87v-1a1 1 0 0 0 -2 0v1h-1.87l.76-6.15a14.92 14.92 0 0 0 4.22 0z"/><path d="m38 23a7 7 0 0 0 -2.12-5h7.12c2.56 0 .35-8-6-8a7 7 0 0 0 -5 2.12v-7.12c0-2.56-8-.35-8 6a7 7 0 0 0 2.12 5h-7.12c-2.56 0-.35 8 6 8a7 7 0 0 0 5-2.12v7.12c0 2.56 8 .35 8-6zm-7-7a1 1 0 0 1 0 2 1 1 0 0 1 0-2zm1 11.9v-8.08a3.08 3.08 0 0 0 1.49-1.14 5 5 0 0 1 -1.49 9.22zm9.9-11.9h-8.08a3.08 3.08 0 0 0 -1.14-1.49 5 5 0 0 1 9.22 1.49zm-11.9-9.9v8.08a3.08 3.08 0 0 0 -1.49 1.14 5 5 0 0 1 1.49-9.22zm-9.9 11.9h8.08a3.08 3.08 0 0 0 1.14 1.49 5 5 0 0 1 -9.22-1.49z"/><path d="m3 13h7a1 1 0 0 0 0-2h-7a1 1 0 0 1 0-2h2a1 1 0 0 0 0-2h-2a3 3 0 0 0 0 6z"/><path d="m10 21h-7a3 3 0 0 0 0 6h2a1 1 0 0 0 0-2h-2a1 1 0 0 1 0-2h7a1 1 0 0 0 0-2z"/><path d="m11 16h-8a1 1 0 0 0 0 2h8a1 1 0 0 0 0-2z"/></g></svg>