<!-- Generated by IcoMoon.io -->
<svg version="1.1" xmlns="http://www.w3.org/2000/svg" width="32" height="32" viewBox="0 0 32 32">
<title>gas-stove</title>
<path d="M31.333 4h-30.667c-0.368 0-0.667 0.298-0.667 0.667v0 22.667c0 0.368 0.298 0.667 0.667 0.667v0h30.667c0.368 0 0.667-0.298 0.667-0.667v0-22.667c0-0.368-0.298-0.667-0.667-0.667v0zM1.333 5.333h29.333v14.667h-29.333zM30.667 26.667h-29.333v-5.333h29.333z"></path>
<path d="M14 12h-0.72c-0.306-2.045-1.902-3.641-3.921-3.944l-0.026-0.003v-0.72c0-0.368-0.298-0.667-0.667-0.667s-0.667 0.298-0.667 0.667v0 0.72c-2.045 0.306-3.641 1.902-3.944 3.921l-0.003 0.026h-0.72c-0.368 0-0.667 0.298-0.667 0.667s0.298 0.667 0.667 0.667v0h0.72c0.306 2.045 1.902 3.641 3.921 3.944l0.026 0.003v0.72c0 0.368 0.298 0.667 0.667 0.667s0.667-0.298 0.667-0.667v0-0.72c2.045-0.306 3.641-1.902 3.944-3.921l0.003-0.026h0.72c0.368 0 0.667-0.298 0.667-0.667s-0.298-0.667-0.667-0.667v0zM11.933 12h-1.387c-0.206-0.568-0.646-1.007-1.199-1.209l-0.014-0.004v-1.387c1.311 0.274 2.326 1.289 2.596 2.578l0.004 0.022zM8.667 13.333c-0.368 0-0.667-0.298-0.667-0.667s0.298-0.667 0.667-0.667v0c0.368 0 0.667 0.298 0.667 0.667s-0.298 0.667-0.667 0.667v0zM8 9.4v1.387c-0.568 0.206-1.007 0.646-1.209 1.199l-0.004 0.014h-1.387c0.274-1.311 1.289-2.326 2.578-2.596l0.022-0.004zM5.4 13.333h1.387c0.206 0.568 0.646 1.007 1.199 1.209l0.014 0.004v1.387c-1.311-0.274-2.326-1.289-2.596-2.578l-0.004-0.022zM9.333 15.933v-1.387c0.568-0.206 1.007-0.646 1.209-1.199l0.004-0.014h1.387c-0.274 1.311-1.289 2.326-2.578 2.596l-0.022 0.004z"></path>
<path d="M28.667 12h-0.72c-0.306-2.045-1.902-3.641-3.921-3.944l-0.026-0.003v-0.72c0-0.368-0.298-0.667-0.667-0.667s-0.667 0.298-0.667 0.667v0 0.72c-2.045 0.306-3.641 1.902-3.944 3.921l-0.003 0.026h-0.72c-0.368 0-0.667 0.298-0.667 0.667s0.298 0.667 0.667 0.667v0h0.72c0.306 2.045 1.902 3.641 3.921 3.944l0.026 0.003v0.72c0 0.368 0.298 0.667 0.667 0.667s0.667-0.298 0.667-0.667v0-0.72c2.045-0.306 3.641-1.902 3.944-3.921l0.003-0.026h0.72c0.368 0 0.667-0.298 0.667-0.667s-0.298-0.667-0.667-0.667v0zM26.6 12h-1.387c-0.206-0.568-0.646-1.007-1.199-1.209l-0.014-0.004v-1.387c1.311 0.274 2.326 1.289 2.596 2.578l0.004 0.022zM23.333 13.333c-0.368 0-0.667-0.298-0.667-0.667s0.298-0.667 0.667-0.667v0c0.368 0 0.667 0.298 0.667 0.667s-0.298 0.667-0.667 0.667v0zM22.667 9.4v1.387c-0.568 0.206-1.007 0.646-1.209 1.199l-0.004 0.014h-1.387c0.274-1.311 1.289-2.326 2.578-2.596l0.022-0.004zM20.067 13.333h1.387c0.206 0.568 0.646 1.007 1.199 1.209l0.014 0.004v1.387c-1.311-0.274-2.326-1.289-2.596-2.578l-0.004-0.022zM24 15.933v-1.387c0.568-0.206 1.007-0.646 1.209-1.199l0.004-0.014h1.387c-0.274 1.311-1.289 2.326-2.578 2.596l-0.022 0.004z"></path>
<path d="M24.667 24c0 0.736-0.597 1.333-1.333 1.333s-1.333-0.597-1.333-1.333c0-0.736 0.597-1.333 1.333-1.333s1.333 0.597 1.333 1.333z"></path>
<path d="M17.333 24c0 0.736-0.597 1.333-1.333 1.333s-1.333-0.597-1.333-1.333c0-0.736 0.597-1.333 1.333-1.333s1.333 0.597 1.333 1.333z"></path>
<path d="M10 24c0 0.736-0.597 1.333-1.333 1.333s-1.333-0.597-1.333-1.333c0-0.736 0.597-1.333 1.333-1.333s1.333 0.597 1.333 1.333z"></path>
</svg>
