<?xml version="1.0" encoding="UTF-8"?>
<svg xmlns="http://www.w3.org/2000/svg" viewBox="0 0 48 48" width="512" height="512"><g id="Stove_Kitchen" data-name="Stove Kitchen"><path d="M47,6H1A1,1,0,0,0,0,7V41a1,1,0,0,0,1,1H47a1,1,0,0,0,1-1V7A1,1,0,0,0,47,6ZM2,8H46V30H2ZM46,40H2V32H46Z"/><path d="M21,18H19.92A7,7,0,0,0,14,12.08V11a1,1,0,0,0-2,0v1.08A7,7,0,0,0,6.08,18H5a1,1,0,0,0,0,2H6.08A7,7,0,0,0,12,25.92V27a1,1,0,0,0,2,0V25.92A7,7,0,0,0,19.92,20H21A1,1,0,0,0,21,18Zm-3.1,0H15.82A3,3,0,0,0,14,16.18V14.1A5,5,0,0,1,17.9,18ZM13,20a1,1,0,0,1,0-2A1,1,0,0,1,13,20Zm-1-5.9v2.08A3,3,0,0,0,10.18,18H8.1A5,5,0,0,1,12,14.1ZM8.1,20h2.08A3,3,0,0,0,12,21.82V23.9A5,5,0,0,1,8.1,20ZM14,23.9V21.82A3,3,0,0,0,15.82,20H17.9A5,5,0,0,1,14,23.9Z"/><path d="M43,18H41.92A7,7,0,0,0,36,12.08V11a1,1,0,0,0-2,0v1.08A7,7,0,0,0,28.08,18H27a1,1,0,0,0,0,2h1.08A7,7,0,0,0,34,25.92V27a1,1,0,0,0,2,0V25.92A7,7,0,0,0,41.92,20H43A1,1,0,0,0,43,18Zm-3.1,0H37.82A3,3,0,0,0,36,16.18V14.1A5,5,0,0,1,39.9,18ZM35,20a1,1,0,0,1,0-2A1,1,0,0,1,35,20Zm-1-5.9v2.08A3,3,0,0,0,32.18,18H30.1A5,5,0,0,1,34,14.1ZM30.1,20h2.08A3,3,0,0,0,34,21.82V23.9A5,5,0,0,1,30.1,20ZM36,23.9V21.82A3,3,0,0,0,37.82,20H39.9A5,5,0,0,1,36,23.9Z"/><circle cx="35" cy="36" r="2"/><circle cx="24" cy="36" r="2"/><circle cx="13" cy="36" r="2"/></g></svg>
