<!-- Generated by IcoMoon.io -->
<svg version="1.1" xmlns="http://www.w3.org/2000/svg" width="32" height="32" viewBox="0 0 32 32">
<title>electric-mixer</title>
<path d="M14 5.333h-6.667c-1.841 0-3.333 1.492-3.333 3.333s1.492 3.333 3.333 3.333v0h6.667c1.841 0 3.333-1.492 3.333-3.333s-1.492-3.333-3.333-3.333v0zM14 10.667h-6.667c-1.105 0-2-0.895-2-2s0.895-2 2-2v0h6.667c1.105 0 2 0.895 2 2s-0.895 2-2 2v0z"></path>
<path d="M20 2.773v-2.107c0-0.368-0.298-0.667-0.667-0.667v0h-4c-0.368 0-0.667 0.298-0.667 0.667v0 2h-1.333v-2c0-0.368-0.298-0.667-0.667-0.667v0h-2.667c-0.368 0-0.667 0.298-0.667 0.667v0 2h-2c-3.314 0-6 2.686-6 6v0 9.333c0 0.368 0.298 0.667 0.667 0.667v0h20.667v4.667h-0.667c-1.105 0-2 0.895-2 2v0 4.667c0 1.105 0.895 2 2 2v0h2.667c1.105 0 2-0.895 2-2v0-4.667c0-1.105-0.895-2-2-2v0h-0.667v-4.667h6c0.368 0 0.667-0.298 0.667-0.667v0-3.127c-0.008-6.194-4.625-11.307-10.605-12.093l-0.062-0.007zM21.333 30v-4.667c0-0.368 0.298-0.667 0.667-0.667v0h0.667v6h-0.667c-0.368 0-0.667-0.298-0.667-0.667v0zM24.667 24.667c0.368 0 0.667 0.298 0.667 0.667v0 4.667c0 0.368-0.298 0.667-0.667 0.667v0h-0.667v-6zM16 1.333h2.667v1.333h-2.667zM10.667 1.333h1.333v1.333h-1.333zM2.667 14.667h3.333c0 0 0 0 0.001 0 1.605 0 2.945 1.134 3.262 2.645l0.004 0.022h-6.6zM29.333 17.333h-18.72c-0.337-2.273-2.274-3.997-4.613-4h-3.334v-4.667c0-2.577 2.089-4.667 4.667-4.667v0h11.127c6.004 0.004 10.87 4.87 10.873 10.873v0z"></path>
</svg>
