<svg height="512" viewBox="0 0 48 48" width="512" xmlns="http://www.w3.org/2000/svg"><g id="Mixer"><path d="m21 8h-10a5 5 0 0 0 0 10h10a5 5 0 0 0 0-10zm0 8h-10a3 3 0 0 1 0-6h10a3 3 0 0 1 0 6z"/><path d="m30 4.16v-3.16a1 1 0 0 0 -1-1h-6a1 1 0 0 0 -1 1v3h-2v-3a1 1 0 0 0 -1-1h-4a1 1 0 0 0 -1 1v3h-3a9 9 0 0 0 -9 9v14a1 1 0 0 0 1 1h31v7h-1a3 3 0 0 0 -3 3v7a3 3 0 0 0 3 3h4a3 3 0 0 0 3-3v-7a3 3 0 0 0 -3-3h-1v-7h9a1 1 0 0 0 1-1v-4.69a18.32 18.32 0 0 0 -16-18.15zm2 40.84v-7a1 1 0 0 1 1-1h1v9h-1a1 1 0 0 1 -1-1zm5-8a1 1 0 0 1 1 1v7a1 1 0 0 1 -1 1h-1v-9zm-13-35h4v2h-4zm-8 0h2v2h-2zm-12 20h5a5 5 0 0 1 4.9 4h-9.9zm40 4h-28.08a7 7 0 0 0 -6.92-6h-5v-7a7 7 0 0 1 7-7h16.69a16.32 16.32 0 0 1 16.31 16.31z"/></g></svg>