<!-- Generated by IcoMoon.io -->
<svg version="1.1" xmlns="http://www.w3.org/2000/svg" width="32" height="32" viewBox="0 0 32 32">
<title>remote-control-3</title>
<path d="M22 0h-12c-1.105 0-2 0.895-2 2v0 28c0 1.105 0.895 2 2 2v0h12c1.105 0 2-0.895 2-2v0-28c0-1.105-0.895-2-2-2v0zM19.333 1.333v1.333h-6.667v-1.333zM22.667 30c0 0.368-0.298 0.667-0.667 0.667v0h-12c-0.368 0-0.667-0.298-0.667-0.667v0-28c0-0.368 0.298-0.667 0.667-0.667v0h1.333v2c0 0.368 0.298 0.667 0.667 0.667v0h8c0.368 0 0.667-0.298 0.667-0.667v0-2h1.333c0.368 0 0.667 0.298 0.667 0.667v0z"></path>
<path d="M16 17.333c-2.577 0-4.667 2.089-4.667 4.667s2.089 4.667 4.667 4.667c2.577 0 4.667-2.089 4.667-4.667v0c0-2.577-2.089-4.667-4.667-4.667v0zM16 25.333c-1.841 0-3.333-1.492-3.333-3.333s1.492-3.333 3.333-3.333c1.841 0 3.333 1.492 3.333 3.333v0c0 1.841-1.492 3.333-3.333 3.333v0z"></path>
<path d="M16 20c-1.105 0-2 0.895-2 2s0.895 2 2 2c1.105 0 2-0.895 2-2v0c0-1.105-0.895-2-2-2v0zM16 22.667c-0.368 0-0.667-0.298-0.667-0.667s0.298-0.667 0.667-0.667v0c0.368 0 0.667 0.298 0.667 0.667s-0.298 0.667-0.667 0.667v0z"></path>
<path d="M14.667 28h-2.667c-0.368 0-0.667 0.298-0.667 0.667s0.298 0.667 0.667 0.667v0h2.667c0.368 0 0.667-0.298 0.667-0.667s-0.298-0.667-0.667-0.667v0z"></path>
<path d="M20 28h-2.667c-0.368 0-0.667 0.298-0.667 0.667s0.298 0.667 0.667 0.667v0h2.667c0.368 0 0.667-0.298 0.667-0.667s-0.298-0.667-0.667-0.667v0z"></path>
<path d="M15.333 6.667h1.333c0.368 0 0.667-0.298 0.667-0.667s-0.298-0.667-0.667-0.667v0h-1.333c-0.368 0-0.667 0.298-0.667 0.667s0.298 0.667 0.667 0.667v0z"></path>
<path d="M15.333 9.333h1.333c0.368 0 0.667-0.298 0.667-0.667s-0.298-0.667-0.667-0.667v0h-1.333c-0.368 0-0.667 0.298-0.667 0.667s0.298 0.667 0.667 0.667v0z"></path>
<path d="M15.333 12h1.333c0.368 0 0.667-0.298 0.667-0.667s-0.298-0.667-0.667-0.667v0h-1.333c-0.368 0-0.667 0.298-0.667 0.667s0.298 0.667 0.667 0.667v0z"></path>
<path d="M15.333 14.667h1.333c0.368 0 0.667-0.298 0.667-0.667s-0.298-0.667-0.667-0.667v0h-1.333c-0.368 0-0.667 0.298-0.667 0.667s0.298 0.667 0.667 0.667v0z"></path>
<path d="M11.333 6.667h1.333c0.368 0 0.667-0.298 0.667-0.667s-0.298-0.667-0.667-0.667v0h-1.333c-0.368 0-0.667 0.298-0.667 0.667s0.298 0.667 0.667 0.667v0z"></path>
<path d="M11.333 9.333h1.333c0.368 0 0.667-0.298 0.667-0.667s-0.298-0.667-0.667-0.667v0h-1.333c-0.368 0-0.667 0.298-0.667 0.667s0.298 0.667 0.667 0.667v0z"></path>
<path d="M11.333 12h1.333c0.368 0 0.667-0.298 0.667-0.667s-0.298-0.667-0.667-0.667v0h-1.333c-0.368 0-0.667 0.298-0.667 0.667s0.298 0.667 0.667 0.667v0z"></path>
<path d="M20.667 5.333h-1.333c-0.368 0-0.667 0.298-0.667 0.667s0.298 0.667 0.667 0.667v0h1.333c0.368 0 0.667-0.298 0.667-0.667s-0.298-0.667-0.667-0.667v0z"></path>
<path d="M20.667 8h-1.333c-0.368 0-0.667 0.298-0.667 0.667s0.298 0.667 0.667 0.667v0h1.333c0.368 0 0.667-0.298 0.667-0.667s-0.298-0.667-0.667-0.667v0z"></path>
<path d="M20.667 10.667h-1.333c-0.368 0-0.667 0.298-0.667 0.667s0.298 0.667 0.667 0.667v0h1.333c0.368 0 0.667-0.298 0.667-0.667s-0.298-0.667-0.667-0.667v0z"></path>
<path d="M13.333 16c0 0.736-0.597 1.333-1.333 1.333s-1.333-0.597-1.333-1.333c0-0.736 0.597-1.333 1.333-1.333s1.333 0.597 1.333 1.333z"></path>
<path d="M21.333 16c0 0.736-0.597 1.333-1.333 1.333s-1.333-0.597-1.333-1.333c0-0.736 0.597-1.333 1.333-1.333s1.333 0.597 1.333 1.333z"></path>
</svg>
