<svg height="512" viewBox="0 0 48 48" width="512" xmlns="http://www.w3.org/2000/svg"><g id="Remote"><path d="m33 0h-18a3 3 0 0 0 -3 3v42a3 3 0 0 0 3 3h18a3 3 0 0 0 3-3v-42a3 3 0 0 0 -3-3zm-4 2v2h-10v-2zm5 43a1 1 0 0 1 -1 1h-18a1 1 0 0 1 -1-1v-42a1 1 0 0 1 1-1h2v3a1 1 0 0 0 1 1h12a1 1 0 0 0 1-1v-3h2a1 1 0 0 1 1 1z"/><path d="m24 26a7 7 0 1 0 7 7 7 7 0 0 0 -7-7zm0 12a5 5 0 1 1 5-5 5 5 0 0 1 -5 5z"/><path d="m24 30a3 3 0 1 0 3 3 3 3 0 0 0 -3-3zm0 4a1 1 0 0 1 0-2 1 1 0 0 1 0 2z"/><path d="m22 42h-4a1 1 0 0 0 0 2h4a1 1 0 0 0 0-2z"/><path d="m30 42h-4a1 1 0 0 0 0 2h4a1 1 0 0 0 0-2z"/><path d="m23 10h2a1 1 0 0 0 0-2h-2a1 1 0 0 0 0 2z"/><path d="m23 14h2a1 1 0 0 0 0-2h-2a1 1 0 0 0 0 2z"/><path d="m23 18h2a1 1 0 0 0 0-2h-2a1 1 0 0 0 0 2z"/><path d="m23 22h2a1 1 0 0 0 0-2h-2a1 1 0 0 0 0 2z"/><path d="m17 10h2a1 1 0 0 0 0-2h-2a1 1 0 0 0 0 2z"/><path d="m17 14h2a1 1 0 0 0 0-2h-2a1 1 0 0 0 0 2z"/><path d="m17 18h2a1 1 0 0 0 0-2h-2a1 1 0 0 0 0 2z"/><path d="m31 8h-2a1 1 0 0 0 0 2h2a1 1 0 0 0 0-2z"/><path d="m31 12h-2a1 1 0 0 0 0 2h2a1 1 0 0 0 0-2z"/><path d="m31 16h-2a1 1 0 0 0 0 2h2a1 1 0 0 0 0-2z"/><circle cx="18" cy="24" r="2"/><circle cx="30" cy="24" r="2"/></g></svg>