<svg height="512" viewBox="0 0 48 48" width="512" xmlns="http://www.w3.org/2000/svg"><g id="Turntable"><path d="m47 5h-46a1 1 0 0 0 -1 1v36a1 1 0 0 0 1 1h46a1 1 0 0 0 1-1v-36a1 1 0 0 0 -1-1zm-1 36h-44v-34h44z"/><path d="m22 38a14 14 0 1 0 -14-14 14 14 0 0 0 14 14zm0-26a12 12 0 1 1 -12 12 12 12 0 0 1 12-12z"/><path d="m7 39a3 3 0 1 0 -3-3 3 3 0 0 0 3 3zm0-4a1 1 0 0 1 0 2 1 1 0 0 1 0-2z"/><path d="m7 15a3 3 0 1 0 -3-3 3 3 0 0 0 3 3zm0-4a1 1 0 0 1 0 2 1 1 0 0 1 0-2z"/><path d="m37.51 34.07a2 2 0 1 0 1.49 1.93c0-.79-.68.1 2.71-3.29.42-.42.29.37.29-13.71h1a1 1 0 0 0 1-1v-5a1 1 0 0 0 -1-1h-1v-1a1 1 0 0 0 -2 0v1h-1a1 1 0 0 0 -1 1v5a1 1 0 0 0 1 1h1v12.59zm2.49-20.07h2v3h-2z"/><path d="m22 27a3 3 0 1 0 -3-3 3 3 0 0 0 3 3zm0-4a1 1 0 0 1 0 2 1 1 0 0 1 0-2z"/><path d="m22 16a8 8 0 0 1 8 8 1 1 0 0 0 2 0 10 10 0 0 0 -10-10 1 1 0 0 0 0 2z"/><path d="m22 34a1 1 0 0 0 0-2 8 8 0 0 1 -8-8 1 1 0 0 0 -2 0 10 10 0 0 0 10 10z"/></g></svg>