<!-- Generated by IcoMoon.io -->
<svg version="1.1" xmlns="http://www.w3.org/2000/svg" width="32" height="32" viewBox="0 0 32 32">
<title>turntable</title>
<path d="M31.333 3.333h-30.667c-0.368 0-0.667 0.298-0.667 0.667v0 24c0 0.368 0.298 0.667 0.667 0.667v0h30.667c0.368 0 0.667-0.298 0.667-0.667v0-24c0-0.368-0.298-0.667-0.667-0.667v0zM30.667 27.333h-29.333v-22.667h29.333z"></path>
<path d="M14.667 25.333c5.155 0 9.333-4.179 9.333-9.333s-4.179-9.333-9.333-9.333c-5.155 0-9.333 4.179-9.333 9.333v0c0 5.155 4.179 9.333 9.333 9.333v0zM14.667 8c4.418 0 8 3.582 8 8s-3.582 8-8 8c-4.418 0-8-3.582-8-8v0c0-4.418 3.582-8 8-8v0z"></path>
<path d="M4.667 26c1.105 0 2-0.895 2-2s-0.895-2-2-2c-1.105 0-2 0.895-2 2v0c0 1.105 0.895 2 2 2v0zM4.667 23.333c0.368 0 0.667 0.298 0.667 0.667s-0.298 0.667-0.667 0.667v0c-0.368 0-0.667-0.298-0.667-0.667s0.298-0.667 0.667-0.667v0z"></path>
<path d="M4.667 10c1.105 0 2-0.895 2-2s-0.895-2-2-2c-1.105 0-2 0.895-2 2v0c0 1.105 0.895 2 2 2v0zM4.667 7.333c0.368 0 0.667 0.298 0.667 0.667s-0.298 0.667-0.667 0.667v0c-0.368 0-0.667-0.298-0.667-0.667s0.298-0.667 0.667-0.667v0z"></path>
<path d="M25.007 22.713c-0.102-0.028-0.219-0.044-0.34-0.044-0.736 0-1.333 0.597-1.333 1.333s0.597 1.333 1.333 1.333c0.736 0 1.333-0.597 1.333-1.333 0-0.001 0-0.002 0-0.003v0c0-0.527-0.453 0.067 1.807-2.193 0.28-0.28 0.193 0.247 0.193-9.14h0.667c0.368 0 0.667-0.298 0.667-0.667v0-3.333c0-0.368-0.298-0.667-0.667-0.667v0h-0.667v-0.667c0-0.368-0.298-0.667-0.667-0.667s-0.667 0.298-0.667 0.667v0 0.667h-0.667c-0.368 0-0.667 0.298-0.667 0.667v0 3.333c0 0.368 0.298 0.667 0.667 0.667v0h0.667v8.393zM26.667 9.333h1.333v2h-1.333z"></path>
<path d="M14.667 18c1.105 0 2-0.895 2-2s-0.895-2-2-2c-1.105 0-2 0.895-2 2v0c0 1.105 0.895 2 2 2v0zM14.667 15.333c0.368 0 0.667 0.298 0.667 0.667s-0.298 0.667-0.667 0.667v0c-0.368 0-0.667-0.298-0.667-0.667s0.298-0.667 0.667-0.667v0z"></path>
<path d="M14.667 10.667c2.946 0 5.333 2.388 5.333 5.333v0c0 0.368 0.298 0.667 0.667 0.667s0.667-0.298 0.667-0.667v0c0-3.682-2.985-6.667-6.667-6.667v0c-0.368 0-0.667 0.298-0.667 0.667s0.298 0.667 0.667 0.667v0z"></path>
<path d="M14.667 22.667c0.368 0 0.667-0.298 0.667-0.667s-0.298-0.667-0.667-0.667v0c-2.946 0-5.333-2.388-5.333-5.333v0c0-0.368-0.298-0.667-0.667-0.667s-0.667 0.298-0.667 0.667v0c0 3.682 2.985 6.667 6.667 6.667v0z"></path>
</svg>
