<!-- Generated by IcoMoon.io -->
<svg version="1.1" xmlns="http://www.w3.org/2000/svg" width="32" height="32" viewBox="0 0 32 32">
<title>cctv-camera</title>
<path d="M31.92 0.353c-0.267-0.507 1.22-0.353-20.587-0.353-3.682 0-6.667 2.985-6.667 6.667v0c0 0.368 0.298 0.667 0.667 0.667v0h1.367c0.35 3.384 3.186 6 6.633 6 0.012 0 0.023-0 0.035-0h0.665v9.333h-7.42c-0.337-2.273-2.274-3.997-4.613-4h-1.334c-0.368 0-0.667 0.298-0.667 0.667v0 12c0 0.368 0.298 0.667 0.667 0.667v0h1.333c2.34-0.003 4.276-1.727 4.61-3.974l0.003-0.026h8.053c0.55 0.416 1.246 0.667 2 0.667 1.841 0 3.333-1.492 3.333-3.333 0-0.754-0.25-1.45-0.673-2.008l0.006 0.008v-10h8c0.368 0 0.667-0.298 0.667-0.667v0-2.667h2c0.368 0 0.667-0.298 0.667-0.667v0c0-5.82 0.127-5.66-0.367-5.92 1.7-2.493 1.873-2.593 1.62-3.060zM11.333 1.333h18.753l-3.113 4.667h-20.933c0.343-2.645 2.581-4.667 5.291-4.667 0.001 0 0.001 0 0.002 0h-0zM2 30.667h-0.667v-10.667h0.667c1.841 0 3.333 1.492 3.333 3.333v0 4c0 1.841-1.492 3.333-3.333 3.333v0zM6.667 26.667v-2.667h6.947c-0.176 0.393-0.278 0.851-0.278 1.333s0.102 0.941 0.287 1.355l-0.008-0.021zM16.667 27.333c-1.105 0-2-0.895-2-2s0.895-2 2-2c1.105 0 2 0.895 2 2v0c0 1.105-0.895 2-2 2v0zM18 22.28c-0.393-0.176-0.851-0.278-1.333-0.278s-0.941 0.102-1.355 0.287l0.021-0.008v-8.947h2.667zM26.667 12h-13.333c-2.708-0.003-4.944-2.024-5.284-4.64l-0.003-0.027h18.62zM29.333 8.667h-1.333v-1.8l1.333-2z"></path>
<path d="M16.667 24.667c-0.368 0-0.667 0.298-0.667 0.667s0.298 0.667 0.667 0.667v0c0.368 0 0.667-0.298 0.667-0.667s-0.298-0.667-0.667-0.667v0z"></path>
<path d="M12.667 4.667c0.368 0 0.667-0.298 0.667-0.667s-0.298-0.667-0.667-0.667v0c-0.368 0-0.667 0.298-0.667 0.667s0.298 0.667 0.667 0.667v0z"></path>
<path d="M10 4.667c0.368 0 0.667-0.298 0.667-0.667s-0.298-0.667-0.667-0.667v0c-0.368 0-0.667 0.298-0.667 0.667s0.298 0.667 0.667 0.667v0z"></path>
<path d="M24.667 9.333h-2.667c-0.368 0-0.667 0.298-0.667 0.667s0.298 0.667 0.667 0.667v0h2.667c0.368 0 0.667-0.298 0.667-0.667s-0.298-0.667-0.667-0.667v0z"></path>
</svg>
