<svg height="512" viewBox="0 0 48 48" width="512" xmlns="http://www.w3.org/2000/svg"><g id="CCTV"><path d="m47.88.53c-.4-.76 1.83-.53-30.88-.53a10 10 0 0 0 -10 10 1 1 0 0 0 1 1h2.05a10 10 0 0 0 10 9h1v14h-11.13a7 7 0 0 0 -6.92-6h-2a1 1 0 0 0 -1 1v18a1 1 0 0 0 1 1h2a7 7 0 0 0 6.92-6h12.08a5 5 0 0 0 7-7v-15h12a1 1 0 0 0 1-1v-4h3a1 1 0 0 0 1-1c0-8.73.19-8.49-.55-8.88 2.55-3.74 2.81-3.89 2.43-4.59zm-30.88 1.47h28.13l-4.67 7h-31.4a8 8 0 0 1 7.94-7zm-14 44h-1v-16h1a5 5 0 0 1 5 5v6a5 5 0 0 1 -5 5zm7-6v-4h10.42a5 5 0 0 0 0 4zm15 1a3 3 0 1 1 3-3 3 3 0 0 1 -3 3zm2-7.58a5 5 0 0 0 -4 0v-13.42h4zm13-15.42h-20a8 8 0 0 1 -7.93-7h27.93zm4-5h-2v-2.7l2-3z"/><path d="m25 37a1 1 0 0 0 0 2 1 1 0 0 0 0-2z"/><path d="m19 7a1 1 0 0 0 0-2 1 1 0 0 0 0 2z"/><path d="m15 7a1 1 0 0 0 0-2 1 1 0 0 0 0 2z"/><path d="m37 14h-4a1 1 0 0 0 0 2h4a1 1 0 0 0 0-2z"/></g></svg>