<!-- Generated by IcoMoon.io -->
<svg version="1.1" xmlns="http://www.w3.org/2000/svg" width="32" height="32" viewBox="0 0 32 32">
<title>vacuum-1</title>
<path d="M15 8.753c-0.22-0.087 0.28-0.087-7-0.087-4.418 0-8 3.582-8 8v0c0 3.314 2.686 6 6 6v0h21.827c2.253 0 2.933-1.753 4.080-3.66 0.573-0.947-0.093-0.647-16.907-10.253zM16.467 21.333c-1.867-5-0.6-7.847-0.107-8.667h2.307v8.667zM8 10h6.487l2.333 1.333h-8.82c-2.708 0.003-4.944 2.024-5.284 4.64l-0.003 0.027h-1.333c0.35-3.379 3.178-5.993 6.619-6h0.001zM10.040 12.667c-2.707 3.787-1.813 3.333-6 3.333 0.331-1.904 1.97-3.333 3.944-3.333 0.006 0 0.011 0 0.017 0h-0.001zM1.373 17.333h5.253c1.111-0.001 2.095-0.546 2.7-1.384l0.007-0.010 2.34-3.273h3.2c-0.633 1.447-1.333 4.34 0.173 8.667h-9.047c-0 0-0.001 0-0.001 0-2.342 0-4.281-1.725-4.616-3.974l-0.003-0.026zM27.82 21.333h-7.82v-8.2l10.407 5.78c-0.733 1.22-1.173 2.42-2.58 2.42z"></path>
<path d="M12 16.667h-1.333c-0.368 0-0.667 0.298-0.667 0.667s0.298 0.667 0.667 0.667v0h1.333c0.368 0 0.667-0.298 0.667-0.667s-0.298-0.667-0.667-0.667v0z"></path>
<path d="M12 18.667h-2.667c-0.368 0-0.667 0.298-0.667 0.667s0.298 0.667 0.667 0.667v0h2.667c0.368 0 0.667-0.298 0.667-0.667s-0.298-0.667-0.667-0.667v0z"></path>
</svg>
