<svg height="512" viewBox="0 0 48 48" width="512" xmlns="http://www.w3.org/2000/svg"><g id="Handheld_vacuum_cleaner" data-name="Handheld vacuum cleaner"><path d="m22.5 13.13c-.33-.13.42-.13-10.5-.13a12 12 0 0 0 -12 12 9 9 0 0 0 9 9h32.74c3.38 0 4.4-2.63 6.12-5.49.86-1.42-.14-.97-25.36-15.38zm2.2 18.87c-2.8-7.5-.9-11.77-.16-13h3.46v13zm-12.7-17h9.73l3.5 2h-13.23a8 8 0 0 0 -7.93 7h-2a10 10 0 0 1 9.93-9zm3.06 4c-4.06 5.68-2.72 5-9 5a6 6 0 0 1 5.94-5zm-13 7h7.88a5 5 0 0 0 4.06-2.09l3.51-4.91h4.8c-.95 2.17-2 6.51.26 13h-13.57a7 7 0 0 1 -6.93-6zm39.67 6h-11.73v-12.3l15.61 8.67c-1.1 1.83-1.76 3.63-3.87 3.63z"/><path d="m18 25h-2a1 1 0 0 0 0 2h2a1 1 0 0 0 0-2z"/><path d="m18 28h-4a1 1 0 0 0 0 2h4a1 1 0 0 0 0-2z"/></g></svg>