<!-- Generated by IcoMoon.io -->
<svg version="1.1" xmlns="http://www.w3.org/2000/svg" width="32" height="32" viewBox="0 0 32 32">
<title>mirrorless</title>
<path d="M31.333 4.667c-20.327 0-18.853-0.087-19.14 0.193l-1.527 1.533v-1.060c0-0.368-0.298-0.667-0.667-0.667v0h-9.333c-0.368 0-0.667 0.298-0.667 0.667v0 21.333c0 0.368 0.298 0.667 0.667 0.667v0h30.667c0.368 0 0.667-0.298 0.667-0.667v0-21.333c0-0.368-0.298-0.667-0.667-0.667v0zM9.333 7.333h-4v-1.333h4zM1.333 6h2.667v1.333h-2.667zM1.333 11.333h2.667v10.667h-2.667zM1.333 26v-2.667h3.333c0.368 0 0.667-0.298 0.667-0.667v0-12c0-0.368-0.298-0.667-0.667-0.667v0h-3.333v-1.333c9.407 0 8.733 0 8.927-0.053s0 0.1 2.667-2.613h17.74v4h-6.427c-1.579-1.636-3.791-2.652-6.24-2.652s-4.661 1.016-6.238 2.65l-0.002 0.003h-4.427c-0.368 0-0.667 0.298-0.667 0.667v0 12c0 0.368 0.298 0.667 0.667 0.667v0h6.067c1.303 0.837 2.893 1.335 4.6 1.335s3.297-0.497 4.634-1.355l-0.034 0.021h8.067v2.667zM30.667 22h-6.427c1.502-1.55 2.428-3.665 2.428-5.997 0-1.735-0.513-3.351-1.395-4.703l0.020 0.033h5.373zM10.667 16c0-4.050 3.283-7.333 7.333-7.333s7.333 3.283 7.333 7.333c0 4.050-3.283 7.333-7.333 7.333v0c-4.050 0-7.333-3.283-7.333-7.333v0zM11.76 22h-3.76v-10.667h2.707c-0.862 1.319-1.375 2.935-1.375 4.67 0 2.332 0.926 4.447 2.43 5.999l-0.002-0.002z"></path>
<path d="M24 16c0-3.314-2.686-6-6-6s-6 2.686-6 6c0 3.314 2.686 6 6 6v0c3.314 0 6-2.686 6-6v0zM13.333 16c0-2.577 2.089-4.667 4.667-4.667s4.667 2.089 4.667 4.667c0 2.577-2.089 4.667-4.667 4.667v0c-2.577 0-4.667-2.089-4.667-4.667v0z"></path>
</svg>
