<svg height="512" viewBox="0 0 48 48" width="512" xmlns="http://www.w3.org/2000/svg"><g id="Camera_mirrorless" data-name="Camera mirrorless"><path d="m47 7c-30.49 0-28.28-.13-28.71.29l-2.29 2.3v-1.59a1 1 0 0 0 -1-1h-14a1 1 0 0 0 -1 1v32a1 1 0 0 0 1 1h46a1 1 0 0 0 1-1v-32a1 1 0 0 0 -1-1zm-33 4h-6v-2h6zm-12-2h4v2h-4zm0 8h4v16h-4zm0 22v-4h5a1 1 0 0 0 1-1v-18a1 1 0 0 0 -1-1h-5v-2c14.11 0 13.1 0 13.39-.08s0 .15 4-3.92h26.61v6h-9.64a13 13 0 0 0 -18.72 0h-6.64a1 1 0 0 0 -1 1v18a1 1 0 0 0 1 1h9.1a12.89 12.89 0 0 0 13.8 0h12.1v4zm44-6h-9.64a12.93 12.93 0 0 0 1.58-16h8.06zm-30-9a11 11 0 1 1 11 11 11 11 0 0 1 -11-11zm1.64 9h-5.64v-16h4.06a12.93 12.93 0 0 0 1.58 16z"/><path d="m36 24a9 9 0 1 0 -9 9 9 9 0 0 0 9-9zm-16 0a7 7 0 1 1 7 7 7 7 0 0 1 -7-7z"/></g></svg>