<!-- Generated by IcoMoon.io -->
<svg version="1.1" xmlns="http://www.w3.org/2000/svg" width="32" height="32" viewBox="0 0 32 32">
<title>dishwasher</title>
<path d="M28.667 0h-25.333c-0.368 0-0.667 0.298-0.667 0.667v0 30.667c0 0.368 0.298 0.667 0.667 0.667v0h25.333c0.368 0 0.667-0.298 0.667-0.667v0-30.667c0-0.368-0.298-0.667-0.667-0.667v0zM4 6.667h1.333v15.333c0 0.368 0.298 0.667 0.667 0.667v0h20c0.368 0 0.667-0.298 0.667-0.667v0-15.333h1.333v17.333h-24zM25.333 18.667h-2.36c1.433-1.6-0.233-1.333 2.36-1.333zM22.293 17.333c-0.473 0.787-1.323 1.306-2.293 1.306s-1.82-0.519-2.287-1.294l-0.007-0.012zM17.333 16c0-1.473 1.194-2.667 2.667-2.667s2.667 1.194 2.667 2.667v0zM17.027 18.667h-2.053c0.339-0.373 0.609-0.817 0.785-1.306l0.009-0.027h0.467c0.184 0.516 0.454 0.96 0.796 1.337l-0.003-0.003zM14.293 17.333c-0.473 0.787-1.323 1.306-2.293 1.306s-1.82-0.519-2.287-1.294l-0.007-0.012zM9.333 16c0-1.473 1.194-2.667 2.667-2.667s2.667 1.194 2.667 2.667v0zM9.027 18.667h-2.36v-1.333c2.587 0 0.927-0.26 2.36 1.333zM6.667 20h18.667v1.333h-18.667zM25.333 16h-1.333c0-2.209-1.791-4-4-4s-4 1.791-4 4v0c0-2.209-1.791-4-4-4s-4 1.791-4 4v0h-1.333v-9.333h18.667zM4 1.333h24v4h-24zM28 30.667h-24v-5.333h24z"></path>
<path d="M14 9.333h4c0.368 0 0.667-0.298 0.667-0.667s-0.298-0.667-0.667-0.667v0h-4c-0.368 0-0.667 0.298-0.667 0.667s0.298 0.667 0.667 0.667v0z"></path>
<path d="M26 4c0.368 0 0.667-0.298 0.667-0.667s-0.298-0.667-0.667-0.667v0c-0.368 0-0.667 0.298-0.667 0.667s0.298 0.667 0.667 0.667v0z"></path>
<path d="M23.333 4c0.368 0 0.667-0.298 0.667-0.667s-0.298-0.667-0.667-0.667v0c-0.368 0-0.667 0.298-0.667 0.667s0.298 0.667 0.667 0.667v0z"></path>
<path d="M7.333 4c0.368 0 0.667-0.298 0.667-0.667s-0.298-0.667-0.667-0.667v0h-1.333c-0.368 0-0.667 0.298-0.667 0.667s0.298 0.667 0.667 0.667v0z"></path>
<path d="M6.667 28.667v-1.333c0-0.368-0.298-0.667-0.667-0.667s-0.667 0.298-0.667 0.667v0 1.333c0 0.368 0.298 0.667 0.667 0.667s0.667-0.298 0.667-0.667v0z"></path>
</svg>
