<svg height="512" viewBox="0 0 48 48" width="512" xmlns="http://www.w3.org/2000/svg"><g id="Dishwasher"><path d="m43 0h-38a1 1 0 0 0 -1 1v46a1 1 0 0 0 1 1h38a1 1 0 0 0 1-1v-46a1 1 0 0 0 -1-1zm-37 10h2v23a1 1 0 0 0 1 1h30a1 1 0 0 0 1-1v-23h2v26h-36zm32 18h-3.54c2.15-2.4-.35-2 3.54-2zm-4.56-2a4 4 0 0 1 -6.88 0zm-7.44-2a4 4 0 0 1 8 0zm-.46 4h-3.08a5.87 5.87 0 0 0 1.19-2h.7a5.87 5.87 0 0 0 1.19 2zm-4.1-2a4 4 0 0 1 -6.88 0zm-7.44-2a4 4 0 0 1 8 0zm-.46 4h-3.54v-2c3.88 0 1.39-.39 3.54 2zm-3.54 2h28v2h-28zm28-6h-2a6 6 0 0 0 -12 0 6 6 0 0 0 -12 0h-2v-14h28zm-32-22h36v6h-36zm36 44h-36v-8h36z"/><path d="m21 14h6a1 1 0 0 0 0-2h-6a1 1 0 0 0 0 2z"/><path d="m39 6a1 1 0 0 0 0-2 1 1 0 0 0 0 2z"/><path d="m35 6a1 1 0 0 0 0-2 1 1 0 0 0 0 2z"/><path d="m11 6a1 1 0 0 0 0-2h-2a1 1 0 0 0 0 2z"/><path d="m10 43v-2a1 1 0 0 0 -2 0v2a1 1 0 0 0 2 0z"/></g></svg>