<!-- Generated by IcoMoon.io -->
<svg version="1.1" xmlns="http://www.w3.org/2000/svg" width="32" height="32" viewBox="0 0 32 32">
<title>coffee-machine-2</title>
<path d="M31.333 16.667h-0.667v-4c0-0.368-0.298-0.667-0.667-0.667v0h-3.333v-11.333c0-0.368-0.298-0.667-0.667-0.667v0h-25.333c-0.368 0-0.667 0.298-0.667 0.667v0 30.667c0 0.368 0.298 0.667 0.667 0.667v0h25.333c0.368 0 0.667-0.298 0.667-0.667v0-18h2.667v3.333h-0.667c-0.368 0-0.667 0.298-0.667 0.667v0 6.667c0 0.368 0.298 0.667 0.667 0.667v0h2.667c0.368 0 0.667-0.298 0.667-0.667v0-6.667c0-0.368-0.298-0.667-0.667-0.667v0zM23.333 9.333h2v2.667h-2zM25.333 1.333v6.667h-6c0-2.247 0.267-4.667-2.24-6.667zM12.667 13.333h1.333v1.333h-1.333zM10 12v-1.333h6.667v1.333zM8.667 9.333v-3.333c0-2.577 2.089-4.667 4.667-4.667s4.667 2.089 4.667 4.667v0 3.333zM1.333 1.333h8.24c-2.513 2-2.24 4.52-2.24 6.667h-6zM25.333 30.667h-24v-0.667c0-1.105 0.895-2 2-2v0h20c1.105 0 2 0.895 2 2v0zM10 23.333v-3.333h6.667v3.333c0 1.841-1.492 3.333-3.333 3.333s-3.333-1.492-3.333-3.333v0zM8.667 23.333h-0.333c-0.552 0-1-0.448-1-1s0.448-1 1-1v0h0.333zM25.333 27.333c-1.167-0.887-1.467-0.667-8.74-0.667 0.867-0.847 1.405-2.027 1.407-3.333v-4c0-0.368-0.298-0.667-0.667-0.667v0h-8c-0.368 0-0.667 0.298-0.667 0.667v0 0.667h-0.333c-1.289 0-2.333 1.045-2.333 2.333s1.045 2.333 2.333 2.333v0h0.527c0.243 0.787 0.662 1.46 1.213 1.999l0.001 0.001c-7.047 0-7.533-0.227-8.74 0.667v-18h6v0.667c0 0.368 0.298 0.667 0.667 0.667v0h0.667v2c0 0.368 0.298 0.667 0.667 0.667v0h2v2c0 0.368 0.298 0.667 0.667 0.667v0h2.667c0.368 0 0.667-0.298 0.667-0.667v0-2h2c0.368 0 0.667-0.298 0.667-0.667v0-2h0.667c0.368 0 0.667-0.298 0.667-0.667v0-0.667h2.667v3.333c0 0.368 0.298 0.667 0.667 0.667v0h2.667zM30.667 23.333h-1.333v-5.333h1.333z"></path>
<path d="M22.667 4c0.368 0 0.667-0.298 0.667-0.667s-0.298-0.667-0.667-0.667v0c-0.368 0-0.667 0.298-0.667 0.667s0.298 0.667 0.667 0.667v0z"></path>
<path d="M22.667 6.667c0.368 0 0.667-0.298 0.667-0.667s-0.298-0.667-0.667-0.667v0c-0.368 0-0.667 0.298-0.667 0.667s0.298 0.667 0.667 0.667v0z"></path>
<path d="M5.333 4h-2c-0.368 0-0.667 0.298-0.667 0.667s0.298 0.667 0.667 0.667v0h2c0.368 0 0.667-0.298 0.667-0.667s-0.298-0.667-0.667-0.667v0z"></path>
</svg>
