<svg height="512" viewBox="0 0 48 48" width="512" xmlns="http://www.w3.org/2000/svg"><g id="Coffee_Machine" data-name="Coffee Machine"><path d="m47 25h-1v-6a1 1 0 0 0 -1-1h-5v-17a1 1 0 0 0 -1-1h-38a1 1 0 0 0 -1 1v46a1 1 0 0 0 1 1h38a1 1 0 0 0 1-1v-27h4v5h-1a1 1 0 0 0 -1 1v10a1 1 0 0 0 1 1h4a1 1 0 0 0 1-1v-10a1 1 0 0 0 -1-1zm-12-11h3v4h-3zm3-12v10h-9c0-3.37.4-7-3.36-10zm-19 18h2v2h-2zm-4-2v-2h10v2zm-2-4v-5a7 7 0 0 1 14 0v5zm-11-12h12.36c-3.77 3-3.36 6.78-3.36 10h-9zm36 44h-36v-1a3 3 0 0 1 3-3h30a3 3 0 0 1 3 3zm-23-11v-5h10v5a5 5 0 0 1 -10 0zm-2 0h-.5a1.5 1.5 0 0 1 0-3h.5zm25 6c-1.75-1.33-2.2-1-13.11-1a7 7 0 0 0 2.11-5v-6a1 1 0 0 0 -1-1h-12a1 1 0 0 0 -1 1v1h-.5a3.5 3.5 0 0 0 0 7h.79a7.07 7.07 0 0 0 1.82 3c-10.57 0-11.3-.34-13.11 1v-27h9v1a1 1 0 0 0 1 1h1v3a1 1 0 0 0 1 1h3v3a1 1 0 0 0 1 1h4a1 1 0 0 0 1-1v-3h3a1 1 0 0 0 1-1v-3h1a1 1 0 0 0 1-1v-1h4v5a1 1 0 0 0 1 1h4zm8-6h-2v-8h2z"/><path d="m34 6a1 1 0 0 0 0-2 1 1 0 0 0 0 2z"/><path d="m34 10a1 1 0 0 0 0-2 1 1 0 0 0 0 2z"/><path d="m8 6h-3a1 1 0 0 0 0 2h3a1 1 0 0 0 0-2z"/></g></svg>