<!-- Generated by IcoMoon.io -->
<svg version="1.1" xmlns="http://www.w3.org/2000/svg" width="32" height="32" viewBox="0 0 32 32">
<title>blender-1</title>
<path d="M26.667 2.667h-2.92l-1.153-2.3c-0.26-0.52 0.073-0.367-9.927-0.367-0.553 0-0.56 0.293-1.747 2.667h-2.253c-1.841 0-3.333 1.492-3.333 3.333v0 6c0 1.841 1.492 3.333 3.333 3.333v0h3c0.253 3.067 0.213 3.007 0.387 3.42-0.808 0.233-1.398 0.941-1.453 1.794l-0 0.006c-0.667 11.687-0.7 10.94-0.42 11.24s-0.687 0.207 13.82 0.207c0 0 0.001 0 0.001 0 0.368 0 0.667-0.298 0.667-0.667 0-0.014-0-0.028-0.001-0.042l0 0.002-0.6-10.74c-0.055-0.859-0.646-1.567-1.439-1.797l-0.014-0.003c0.18-0.433 0.080 0.307 0.947-10.127 0.153-0.060-0.127 0.147 3.527-2.773 0.32-0.26 0.247-0.393 0.247-2.52 0-0.368-0.298-0.667-0.667-0.667v0zM20.773 18.667h-6.88c-0.001 0-0.001 0-0.002 0-0.349 0-0.636-0.269-0.664-0.611l-0-0.002-1.167-14.053h10.547l-1.167 14.053c-0.028 0.345-0.315 0.613-0.665 0.613-0.001 0-0.002 0-0.002 0h0zM11.333 11.333h-2v-4.667h1.607zM13.080 1.333h8.507l0.667 1.333h-9.84zM8.667 14c-1.105 0-2-0.895-2-2v0-6c0-1.105 0.895-2 2-2v0h2.053l0.113 1.333h-2.167c-0.368 0-0.667 0.298-0.667 0.667v0 6c0 0.368 0.298 0.667 0.667 0.667v0h2.773l0.113 1.333zM23.293 30.667h-11.92l0.553-10.040c0.022-0.351 0.311-0.627 0.665-0.627 0 0 0.001 0 0.001 0h9.48c0 0 0.001 0 0.001 0 0.354 0 0.644 0.276 0.665 0.625l0 0.002zM26 5.013l-2.293 1.833 0.24-2.847h2.053z"></path>
<path d="M18.667 22.667v1.040c-0.38-0.235-0.84-0.375-1.333-0.375s-0.954 0.139-1.344 0.381l0.011-0.006v-1.040c0-0.368-0.298-0.667-0.667-0.667s-0.667 0.298-0.667 0.667v0 3.333c0 1.473 1.194 2.667 2.667 2.667s2.667-1.194 2.667-2.667v0-3.333c0-0.368-0.298-0.667-0.667-0.667s-0.667 0.298-0.667 0.667v0zM17.333 27.333c-0.736 0-1.333-0.597-1.333-1.333s0.597-1.333 1.333-1.333c0.736 0 1.333 0.597 1.333 1.333v0c0 0.736-0.597 1.333-1.333 1.333v0z"></path>
<path d="M19.333 8.6l-0.667 6.667c-0.002 0.020-0.003 0.043-0.003 0.067 0 0.37 0.3 0.67 0.67 0.67 0.347 0 0.632-0.263 0.666-0.6l0-0.003 0.667-6.667c0.002-0.020 0.003-0.043 0.003-0.067 0-0.37-0.3-0.67-0.67-0.67-0.347 0-0.632 0.263-0.666 0.6l-0 0.003z"></path>
<path d="M14 8.733l0.667 6.667c0.035 0.34 0.32 0.603 0.667 0.603 0.37 0 0.67-0.3 0.67-0.67 0-0.023-0.001-0.047-0.004-0.070l0 0.003-0.667-6.667c-0.035-0.34-0.32-0.603-0.667-0.603-0.37 0-0.67 0.3-0.67 0.67 0 0.023 0.001 0.047 0.004 0.070l-0-0.003z"></path>
</svg>
