<svg height="512" viewBox="0 0 48 48" width="512" xmlns="http://www.w3.org/2000/svg"><g id="Blender"><path d="m40 4h-4.38l-1.73-3.45c-.39-.78.11-.55-14.89-.55-.83 0-.84.44-2.62 4h-3.38a5 5 0 0 0 -5 5v9a5 5 0 0 0 5 5h4.5c.38 4.6.32 4.51.58 5.13a3 3 0 0 0 -2.18 2.7c-1 17.53-1.05 16.41-.63 16.86s-1.03.31 20.73.31a1 1 0 0 0 1-1.06l-.9-16.11a3 3 0 0 0 -2.18-2.7c.27-.65.12.46 1.42-15.19.23-.09-.19.22 5.29-4.16.48-.39.37-.59.37-3.78a1 1 0 0 0 -1-1zm-8.84 24h-10.32a1 1 0 0 1 -1-.92l-1.75-21.08h15.82l-1.75 21.08a1 1 0 0 1 -1 .92zm-14.16-11h-3v-7h2.41zm2.62-15h12.76l1 2h-14.76zm-6.62 19a3 3 0 0 1 -3-3v-9a3 3 0 0 1 3-3h3.08l.17 2h-3.25a1 1 0 0 0 -1 1v9a1 1 0 0 0 1 1h4.16l.17 2zm21.94 25h-17.88l.83-15.06a1 1 0 0 1 1-.94h14.22a1 1 0 0 1 1 .94zm4.06-38.48-3.44 2.75.36-4.27h3.08z"/><path d="m28 34v1.56a3.84 3.84 0 0 0 -4 0v-1.56a1 1 0 0 0 -2 0v5a4 4 0 0 0 8 0v-5a1 1 0 0 0 -2 0zm-2 7a2 2 0 1 1 2-2 2 2 0 0 1 -2 2z"/><path d="m29 12.9-1 10a1 1 0 0 0 2 .2l1-10a1 1 0 0 0 -2-.2z"/><path d="m21 13.1 1 10a1 1 0 0 0 2-.2l-1-10a1 1 0 0 0 -2 .2z"/></g></svg>