<!-- Generated by IcoMoon.io -->
<svg version="1.1" xmlns="http://www.w3.org/2000/svg" width="32" height="32" viewBox="0 0 32 32">
<title>toaster</title>
<path d="M31.333 15.333h-2c0-1.841-1.492-3.333-3.333-3.333v0h-1.333v-5.587c1.627-0.84 2-1.747 2-2.413 0-5.333-21.333-5.333-21.333 0 0 0.667 0.373 1.573 2 2.413v5.587h-1.333c-1.841 0-3.333 1.492-3.333 3.333v0 12.667h-0.667c-0.368 0-0.667 0.298-0.667 0.667v0 2.667c0 0.368 0.298 0.667 0.667 0.667v0h28c0.368 0 0.667-0.298 0.667-0.667v0-2.667c0-0.368-0.298-0.667-0.667-0.667v0h-0.667v-8.667h2c0.368 0 0.667-0.298 0.667-0.667v0-2.667c0-0.368-0.298-0.667-0.667-0.667v0zM8.48 5.54c-0.2-0.207-1.813-0.787-1.813-1.54 0-1.087 3.633-2.667 9.333-2.667s9.333 1.58 9.333 2.667c0 0.747-1.633 1.333-1.813 1.54s-0.187 0.060-0.187 6.46h-14.667c0-6.22 0.087-6.18-0.187-6.46zM29.333 30.667h-26.667v-1.333h26.667zM4 28v-12.667c0-1.105 0.895-2 2-2v0h20c1.105 0 2 0.895 2 2v0 12.667zM30.667 18h-1.333v-1.333h1.333z"></path>
<path d="M14 16h4c0.368 0 0.667-0.298 0.667-0.667s-0.298-0.667-0.667-0.667v0h-4c-0.368 0-0.667 0.298-0.667 0.667s0.298 0.667 0.667 0.667v0z"></path>
<path d="M18 17.333h-4c-0.368 0-0.667 0.298-0.667 0.667s0.298 0.667 0.667 0.667v0h4c0.368 0 0.667-0.298 0.667-0.667s-0.298-0.667-0.667-0.667v0z"></path>
<path d="M24.667 22.667c-1.105 0-2 0.895-2 2s0.895 2 2 2c1.105 0 2-0.895 2-2v0c0-1.105-0.895-2-2-2v0zM24.667 25.333c-0.368 0-0.667-0.298-0.667-0.667s0.298-0.667 0.667-0.667v0c0.368 0 0.667 0.298 0.667 0.667s-0.298 0.667-0.667 0.667v0z"></path>
<path d="M19.333 22.667c-1.105 0-2 0.895-2 2s0.895 2 2 2c1.105 0 2-0.895 2-2v0c0-1.105-0.895-2-2-2v0zM19.333 25.333c-0.368 0-0.667-0.298-0.667-0.667s0.298-0.667 0.667-0.667v0c0.368 0 0.667 0.298 0.667 0.667s-0.298 0.667-0.667 0.667v0z"></path>
</svg>
