<svg height="512" viewBox="0 0 48 48" width="512" xmlns="http://www.w3.org/2000/svg"><g id="Bread_Toaster" data-name="Bread Toaster"><path d="m47 23h-3a5 5 0 0 0 -5-5h-2v-8.38c2.44-1.26 3-2.62 3-3.62 0-8-32-8-32 0 0 1 .56 2.36 3 3.62v8.38h-2a5 5 0 0 0 -5 5v19h-1a1 1 0 0 0 -1 1v4a1 1 0 0 0 1 1h42a1 1 0 0 0 1-1v-4a1 1 0 0 0 -1-1h-1v-13h3a1 1 0 0 0 1-1v-4a1 1 0 0 0 -1-1zm-34.28-14.69c-.3-.31-2.72-1.18-2.72-2.31 0-1.63 5.45-4 14-4s14 2.37 14 4c0 1.12-2.45 2-2.72 2.31s-.28.09-.28 9.69h-22c0-9.33.13-9.27-.28-9.69zm31.28 37.69h-40v-2h40zm-38-4v-19a3 3 0 0 1 3-3h30a3 3 0 0 1 3 3v19zm40-15h-2v-2h2z"/><path d="m21 24h6a1 1 0 0 0 0-2h-6a1 1 0 0 0 0 2z"/><path d="m27 26h-6a1 1 0 0 0 0 2h6a1 1 0 0 0 0-2z"/><path d="m37 34a3 3 0 1 0 3 3 3 3 0 0 0 -3-3zm0 4a1 1 0 0 1 0-2 1 1 0 0 1 0 2z"/><path d="m29 34a3 3 0 1 0 3 3 3 3 0 0 0 -3-3zm0 4a1 1 0 0 1 0-2 1 1 0 0 1 0 2z"/></g></svg>