<!-- Generated by IcoMoon.io -->
<svg version="1.1" xmlns="http://www.w3.org/2000/svg" width="32" height="32" viewBox="0 0 32 32">
<title>air-conditioning</title>
<path d="M29.333 2.667h-26.667c-1.473 0-2.667 1.194-2.667 2.667v0 8c0 1.473 1.194 2.667 2.667 2.667v0h26.667c1.473 0 2.667-1.194 2.667-2.667v0-8c0-1.473-1.194-2.667-2.667-2.667v0zM4.667 14.667v-1.333h20v1.333zM29.333 14.667h-3.333v-2c0-0.368-0.298-0.667-0.667-0.667v0h-21.333c-0.368 0-0.667 0.298-0.667 0.667v0 2h-0.667c-0.736 0-1.333-0.597-1.333-1.333v0-6h20c0.368 0 0.667-0.298 0.667-0.667s-0.298-0.667-0.667-0.667v0h-20v-0.667c0-0.736 0.597-1.333 1.333-1.333v0h26.667c0.736 0 1.333 0.597 1.333 1.333v0 0.667h-5.333c-0.368 0-0.667 0.298-0.667 0.667s0.298 0.667 0.667 0.667v0h5.333v6c0 0.736-0.597 1.333-1.333 1.333v0z"></path>
<path d="M28.667 8.667c-0.368 0-0.667 0.298-0.667 0.667s0.298 0.667 0.667 0.667v0c0.368 0 0.667-0.298 0.667-0.667s-0.298-0.667-0.667-0.667v0z"></path>
<path d="M28.667 11.333c-0.368 0-0.667 0.298-0.667 0.667s0.298 0.667 0.667 0.667v0c0.368 0 0.667-0.298 0.667-0.667s-0.298-0.667-0.667-0.667v0z"></path>
<path d="M6 24.667v2c0 0.736-0.597 1.333-1.333 1.333s-1.333-0.597-1.333-1.333v0-0.667c0-0.368-0.298-0.667-0.667-0.667s-0.667 0.298-0.667 0.667v0 0.667c0 1.473 1.194 2.667 2.667 2.667s2.667-1.194 2.667-2.667v0-2c0-0.368-0.298-0.667-0.667-0.667s-0.667 0.298-0.667 0.667v0z"></path>
<path d="M14 22v4c0 0.368 0.298 0.667 0.667 0.667s0.667-0.298 0.667-0.667v0-4c0-0.368-0.298-0.667-0.667-0.667s-0.667 0.298-0.667 0.667v0z"></path>
<path d="M10 19.333v4c0 0.368 0.298 0.667 0.667 0.667s0.667-0.298 0.667-0.667v0-4c0-0.368-0.298-0.667-0.667-0.667s-0.667 0.298-0.667 0.667v0z"></path>
<path d="M26 26v0.667c0 0.736-0.597 1.333-1.333 1.333s-1.333-0.597-1.333-1.333v0-2c0-0.368-0.298-0.667-0.667-0.667s-0.667 0.298-0.667 0.667v0 2c0 1.473 1.194 2.667 2.667 2.667s2.667-1.194 2.667-2.667v0-0.667c0-0.368-0.298-0.667-0.667-0.667s-0.667 0.298-0.667 0.667v0z"></path>
<path d="M18 19.333v4c0 0.368 0.298 0.667 0.667 0.667s0.667-0.298 0.667-0.667v0-4c0-0.368-0.298-0.667-0.667-0.667s-0.667 0.298-0.667 0.667v0z"></path>
<path d="M18 26v1.333c0 0.368 0.298 0.667 0.667 0.667s0.667-0.298 0.667-0.667v0-1.333c0-0.368-0.298-0.667-0.667-0.667s-0.667 0.298-0.667 0.667v0z"></path>
<path d="M23.333 22v-1.333c0-0.368-0.298-0.667-0.667-0.667s-0.667 0.298-0.667 0.667v0 1.333c0 0.368 0.298 0.667 0.667 0.667s0.667-0.298 0.667-0.667v0z"></path>
<path d="M14 18v1.333c0 0.368 0.298 0.667 0.667 0.667s0.667-0.298 0.667-0.667v0-1.333c0-0.368-0.298-0.667-0.667-0.667s-0.667 0.298-0.667 0.667v0z"></path>
<path d="M10 26v1.333c0 0.368 0.298 0.667 0.667 0.667s0.667-0.298 0.667-0.667v0-1.333c0-0.368-0.298-0.667-0.667-0.667s-0.667 0.298-0.667 0.667v0z"></path>
<path d="M6 20.667v1.333c0 0.368 0.298 0.667 0.667 0.667s0.667-0.298 0.667-0.667v0-1.333c0-0.368-0.298-0.667-0.667-0.667s-0.667 0.298-0.667 0.667v0z"></path>
</svg>
