<svg height="512" viewBox="0 0 48 48" width="512" xmlns="http://www.w3.org/2000/svg"><g id="Air_Conditioning" data-name="Air Conditioning"><path d="m44 4h-40a4 4 0 0 0 -4 4v12a4 4 0 0 0 4 4h40a4 4 0 0 0 4-4v-12a4 4 0 0 0 -4-4zm-37 18v-2h30v2zm37 0h-5v-3a1 1 0 0 0 -1-1h-32a1 1 0 0 0 -1 1v3h-1a2 2 0 0 1 -2-2v-9h30a1 1 0 0 0 0-2h-30v-1a2 2 0 0 1 2-2h40a2 2 0 0 1 2 2v1h-8a1 1 0 0 0 0 2h8v9a2 2 0 0 1 -2 2z"/><path d="m43 13a1 1 0 0 0 0 2 1 1 0 0 0 0-2z"/><path d="m43 17a1 1 0 0 0 0 2 1 1 0 0 0 0-2z"/><path d="m9 37v3a2 2 0 0 1 -4 0v-1a1 1 0 0 0 -2 0v1a4 4 0 0 0 8 0v-3a1 1 0 0 0 -2 0z"/><path d="m21 33v6a1 1 0 0 0 2 0v-6a1 1 0 0 0 -2 0z"/><path d="m15 29v6a1 1 0 0 0 2 0v-6a1 1 0 0 0 -2 0z"/><path d="m39 39v1a2 2 0 0 1 -4 0v-3a1 1 0 0 0 -2 0v3a4 4 0 0 0 8 0v-1a1 1 0 0 0 -2 0z"/><path d="m27 29v6a1 1 0 0 0 2 0v-6a1 1 0 0 0 -2 0z"/><path d="m27 39v2a1 1 0 0 0 2 0v-2a1 1 0 0 0 -2 0z"/><path d="m35 33v-2a1 1 0 0 0 -2 0v2a1 1 0 0 0 2 0z"/><path d="m21 27v2a1 1 0 0 0 2 0v-2a1 1 0 0 0 -2 0z"/><path d="m15 39v2a1 1 0 0 0 2 0v-2a1 1 0 0 0 -2 0z"/><path d="m9 31v2a1 1 0 0 0 2 0v-2a1 1 0 0 0 -2 0z"/></g></svg>