<!-- Generated by IcoMoon.io -->
<svg version="1.1" xmlns="http://www.w3.org/2000/svg" width="32" height="32" viewBox="0 0 32 32">
<title>radio</title>
<path d="M32 11.333c0-0.733 1.013-0.12-29.333-10.24-0.126-0.617-0.663-1.074-1.308-1.074-0.736 0-1.333 0.597-1.333 1.333s0.597 1.333 1.333 1.333c0.338 0 0.647-0.126 0.883-0.334l-0.001 0.001 24.987 8.313h-26.56c-0.368 0-0.667 0.298-0.667 0.667v0 20c0 0.368 0.298 0.667 0.667 0.667v0h30.667c0.368 0 0.667-0.298 0.667-0.667v0c0-26.427 0.053-18.52 0-20zM30.667 30.667h-29.333v-18.667h29.333z"></path>
<path d="M4.82 26.773c1.467 1.589 3.56 2.581 5.885 2.581 4.418 0 8-3.582 8-8 0-3.367-2.080-6.248-5.024-7.428l-0.054-0.019c-0.877-0.355-1.895-0.56-2.96-0.56s-2.083 0.206-3.015 0.58l0.055-0.019c-2.969 1.214-5.022 4.080-5.022 7.425 0 2.104 0.812 4.018 2.14 5.446l-0.005-0.005zM15.333 26.107c-0.39 0.381-0.827 0.716-1.302 0.996l-0.032 0.017v-11.553c0.506 0.297 0.943 0.633 1.335 1.015l-0.001-0.001zM12.667 27.713c-0.385 0.13-0.836 0.23-1.302 0.284l-0.031 0.003v-13.3c0.496 0.051 0.948 0.148 1.381 0.287l-0.048-0.013zM10 28c-0.496-0.051-0.948-0.148-1.381-0.287l0.048 0.013v-12.753c0.385-0.126 0.838-0.222 1.304-0.271l0.029-0.002zM7.333 27.133c-0.506-0.297-0.943-0.633-1.335-1.015l0.001 0.001v-9.54c0.39-0.381 0.827-0.716 1.301-0.996l0.032-0.017zM4.667 24.22c-0.419-0.843-0.665-1.836-0.665-2.887s0.245-2.044 0.682-2.925l-0.017 0.039zM16.667 24.22v-5.773c0.419 0.843 0.665 1.836 0.665 2.887s-0.245 2.044-0.682 2.925l0.017-0.039z"></path>
<path d="M20.667 21.333h8c0.368 0 0.667-0.298 0.667-0.667v0-6.667c0-0.368-0.298-0.667-0.667-0.667v0h-8c-0.368 0-0.667 0.298-0.667 0.667v0 6.667c0 0.368 0.298 0.667 0.667 0.667v0zM21.333 14.667h6.667v5.333h-2.667v-0.667c0-0.368-0.298-0.667-0.667-0.667s-0.667 0.298-0.667 0.667v0 0.667h-2.667z"></path>
<path d="M22 28.667c1.105 0 2-0.895 2-2s-0.895-2-2-2c-1.105 0-2 0.895-2 2v0c0 1.105 0.895 2 2 2v0zM22 26c0.368 0 0.667 0.298 0.667 0.667s-0.298 0.667-0.667 0.667v0c-0.368 0-0.667-0.298-0.667-0.667s0.298-0.667 0.667-0.667v0z"></path>
<path d="M27.333 24.667c-1.105 0-2 0.895-2 2s0.895 2 2 2c1.105 0 2-0.895 2-2v0c0-1.105-0.895-2-2-2v0zM27.333 27.333c-0.368 0-0.667-0.298-0.667-0.667s0.298-0.667 0.667-0.667v0c0.368 0 0.667 0.298 0.667 0.667s-0.298 0.667-0.667 0.667v0z"></path>
</svg>
