<svg height="512" viewBox="0 0 48 48" width="512" xmlns="http://www.w3.org/2000/svg"><g id="Radio"><path d="m48 17c0-1.1 1.52-.18-44-15.36a2 2 0 1 0 -.64 1.89l37.48 12.47h-39.84a1 1 0 0 0 -1 1v30a1 1 0 0 0 1 1h46a1 1 0 0 0 1-1c0-39.64.08-27.78 0-30zm-2 29h-44v-28h44z"/><path d="m7.23 40.16a12 12 0 1 0 13.21-19.3 12.15 12.15 0 0 0 -8.88 0 12 12 0 0 0 -4.33 19.3zm15.77-1a10.25 10.25 0 0 1 -2 1.52v-17.33a10.25 10.25 0 0 1 2 1.52zm-4 2.41a10.14 10.14 0 0 1 -2 .43v-19.95a10.14 10.14 0 0 1 2 .41zm-4 .43a10.14 10.14 0 0 1 -2-.41v-19.13a10.14 10.14 0 0 1 2-.41zm-4-1.3a10.25 10.25 0 0 1 -2-1.52v-14.31a10.25 10.25 0 0 1 2-1.52zm-4-4.37a9.9 9.9 0 0 1 0-8.66zm18 0v-8.66a9.9 9.9 0 0 1 0 8.66z"/><path d="m31 32h12a1 1 0 0 0 1-1v-10a1 1 0 0 0 -1-1h-12a1 1 0 0 0 -1 1v10a1 1 0 0 0 1 1zm1-10h10v8h-4v-1a1 1 0 0 0 -2 0v1h-4z"/><path d="m33 43a3 3 0 1 0 -3-3 3 3 0 0 0 3 3zm0-4a1 1 0 0 1 0 2 1 1 0 0 1 0-2z"/><path d="m41 37a3 3 0 1 0 3 3 3 3 0 0 0 -3-3zm0 4a1 1 0 0 1 0-2 1 1 0 0 1 0 2z"/></g></svg>