<svg height="512" viewBox="0 0 48 48" width="512" xmlns="http://www.w3.org/2000/svg"><g id="Refrigerator_Freezer" data-name="Refrigerator Freezer"><path d="m37 3a3 3 0 0 0 -3-3h-20a3 3 0 0 0 -3 3c0 15.14-.27 14.83.78 16-1.11 1.24-.78.27-.78 26a3 3 0 0 0 3 3h20a3 3 0 0 0 3-3c0-25.79.32-24.78-.78-26 1.05-1.16.78-.58.78-16zm-24 0a1 1 0 0 1 1-1h20a1 1 0 0 1 1 1v14a1 1 0 0 1 -1 1h-17v-13a1 1 0 0 0 -2 0v13h-1a1 1 0 0 1 -1-1zm22 42a1 1 0 0 1 -1 1h-20a1 1 0 0 1 -1-1v-24a1 1 0 0 1 1-1h1v7a1 1 0 0 0 2 0v-7h17a1 1 0 0 1 1 1z"/></g></svg>