<!-- Generated by IcoMoon.io -->
<svg version="1.1" xmlns="http://www.w3.org/2000/svg" width="32" height="32" viewBox="0 0 32 32">
<title>refrigerator-3</title>
<path d="M24.667 2c0-1.105-0.895-2-2-2v0h-13.333c-1.105 0-2 0.895-2 2v0c0 10.093-0.18 9.887 0.52 10.667-0.74 0.827-0.52 0.18-0.52 17.333 0 1.105 0.895 2 2 2v0h13.333c1.105 0 2-0.895 2-2v0c0-17.193 0.213-16.52-0.52-17.333 0.7-0.773 0.52-0.387 0.52-10.667zM8.667 2c0-0.368 0.298-0.667 0.667-0.667v0h13.333c0.368 0 0.667 0.298 0.667 0.667v0 9.333c0 0.368-0.298 0.667-0.667 0.667v0h-11.333v-8.667c0-0.368-0.298-0.667-0.667-0.667s-0.667 0.298-0.667 0.667v0 8.667h-0.667c-0.368 0-0.667-0.298-0.667-0.667v0zM23.333 30c0 0.368-0.298 0.667-0.667 0.667v0h-13.333c-0.368 0-0.667-0.298-0.667-0.667v0-16c0-0.368 0.298-0.667 0.667-0.667v0h0.667v4.667c0 0.368 0.298 0.667 0.667 0.667s0.667-0.298 0.667-0.667v0-4.667h11.333c0.368 0 0.667 0.298 0.667 0.667v0z"></path>
</svg>
