<!-- Generated by IcoMoon.io -->
<svg version="1.1" xmlns="http://www.w3.org/2000/svg" width="32" height="32" viewBox="0 0 32 32">
<title>hairdryer</title>
<path d="M31.333 5.333c-5.26 0-9.293 0.527-13.14-2.347-3.387-2.52-8.76-3.113-13.060-1.147-0.048 0.014-0.090 0.035-0.128 0.061l0.001-0.001c-6.667 3.147-6.667 10.38 0 13.533 0.5 0.293 0.2-1.5 1.52 13.613 0.26 3.013 4.667 3.040 4.973 0.047l0.5-4.427h2c0.368 0 0.667-0.298 0.667-0.667v0-4c0-0.368-0.298-0.667-0.667-0.667v0h-1.433c0.333-1.487 1.22-1.933 3.433-3.74 2.547-1.1 4.367-3.593 9.533-3.593h5.8c0.368 0 0.667-0.298 0.667-0.667v0-5.333c0-0.368-0.298-0.667-0.667-0.667v0zM15.653 3.040c-0.808 0.816-1.444 1.804-1.849 2.904l-0.018 0.056c-1.326 0.168-2.341 1.289-2.341 2.647s1.015 2.479 2.328 2.645l0.013 0.001c0.42 1.164 1.057 2.159 1.868 2.981l-0.001-0.001c-1.477 0.664-3.202 1.051-5.018 1.051-1.67 0-3.263-0.327-4.719-0.921l0.083 0.030v-11.533c1.379-0.569 2.981-0.899 4.659-0.899 1.806 0 3.523 0.382 5.074 1.070l-0.080-0.032zM14 10c-0.736 0-1.333-0.597-1.333-1.333s0.597-1.333 1.333-1.333c0.736 0 1.333 0.597 1.333 1.333v0c0 0.736-0.597 1.333-1.333 1.333v0zM4.667 3.567v10.2c-4.433-2.667-4.453-7.52 0-10.2zM13.333 23.333h-1.227l0.28-2.667h0.947zM11.167 19.567l-0.993 9.387c-0.065 0.588-0.56 1.042-1.16 1.042s-1.095-0.454-1.16-1.037l-0-0.005-1.12-12.86c1.189 0.365 2.555 0.575 3.97 0.575 0.733 0 1.452-0.056 2.155-0.165l-0.078 0.010c-0.883 0.755-1.478 1.824-1.611 3.032l-0.002 0.021zM30.667 10.667c-5.14 0-9.127-0.48-13.273 2.607-0.16 0.127-0.34 0.24-0.513 0.353-0.758-0.69-1.357-1.541-1.744-2.501l-0.016-0.046c0.913-0.436 1.532-1.353 1.532-2.413s-0.619-1.977-1.516-2.406l-0.016-0.007c0.403-1.005 1.002-1.857 1.754-2.542l0.006-0.005c0.173 0.113 0.353 0.227 0.513 0.353 4.147 3.087 8.133 2.607 13.273 2.607z"></path>
</svg>
