<svg height="512" viewBox="0 0 48 48" width="512" xmlns="http://www.w3.org/2000/svg"><g id="Hair_Dryer" data-name="Hair Dryer"><path d="m47 8c-7.89 0-13.94.79-19.71-3.52-5.08-3.78-13.14-4.67-19.59-1.72a.66.66 0 0 0 -.19.09c-10 4.72-10 15.57 0 20.3.75.44.3-2.25 2.28 20.42.39 4.52 7 4.56 7.46.07l.75-6.64h3a1 1 0 0 0 1-1v-6a1 1 0 0 0 -1-1h-2.15c.5-2.23 1.83-2.9 5.15-5.61 3.82-1.65 6.55-5.39 14.3-5.39h8.7a1 1 0 0 0 1-1v-8a1 1 0 0 0 -1-1zm-23.52-3.44a12.16 12.16 0 0 0 -2.8 4.44 4 4 0 0 0 0 7.94 12.16 12.16 0 0 0 2.8 4.47 18.75 18.75 0 0 1 -14.48.24v-17.3a18.79 18.79 0 0 1 14.48.21zm-2.48 10.44a2 2 0 1 1 2-2 2 2 0 0 1 -2 2zm-14-9.65v15.3c-6.65-4-6.68-11.28 0-15.3zm13 29.65h-1.84l.42-4h1.42zm-3.25-5.65-1.49 14.08a1.75 1.75 0 0 1 -3.48 0l-1.68-19.29a21 21 0 0 0 9.07.63 7 7 0 0 0 -2.42 4.58zm29.25-13.35c-7.71 0-13.69-.72-19.91 3.91-.24.19-.51.36-.77.53a10.22 10.22 0 0 1 -2.64-3.82 4 4 0 0 0 0-7.24 10.22 10.22 0 0 1 2.64-3.82c.26.17.53.34.77.53 6.22 4.63 12.2 3.91 19.91 3.91z"/></g></svg>