<svg height="512" viewBox="0 0 48 48" width="512" xmlns="http://www.w3.org/2000/svg"><g id="Headphone"><path d="m44 30.52v-9.52a20 20 0 0 0 -40 0v9.52c-7.38 4.95-3.86 16.48 5 16.48h4a3 3 0 0 0 3-3v-12a3 3 0 0 0 -3-3h-3v-5.18a3 3 0 0 0 2-2.82 12 12 0 0 1 24 0 3 3 0 0 0 2 2.82v5.18h-3a3 3 0 0 0 -3 3v12a3 3 0 0 0 3 3h4a9 9 0 0 0 5-16.48zm-4-1.46v-5.06h2v5.53a9 9 0 0 0 -2-.47zm-34-5.06h2v5.06a9 9 0 0 0 -2 .47zm-4 14a7 7 0 0 1 6-6.93v13.86a7 7 0 0 1 -6-6.93zm12-6v12a1 1 0 0 1 -1 1h-3v-14h3a1 1 0 0 1 1 1zm10-25a14 14 0 0 0 -14 14 1 1 0 0 1 -1 1h-3c0-12 8.87-19 18-19s18 7 18 19h-3a1 1 0 0 1 -1-1 14 14 0 0 0 -14-14zm10 37v-12a1 1 0 0 1 1-1h3v14h-3a1 1 0 0 1 -1-1zm6 .93v-13.86a7 7 0 0 1 0 13.86z"/></g></svg>