<!-- Generated by IcoMoon.io -->
<svg version="1.1" xmlns="http://www.w3.org/2000/svg" width="32" height="32" viewBox="0 0 32 32">
<title>headphone</title>
<path d="M29.333 20.347v-6.347c0-7.364-5.97-13.333-13.333-13.333s-13.333 5.97-13.333 13.333v0 6.347c-4.92 3.3-2.573 10.987 3.333 10.987h2.667c1.105 0 2-0.895 2-2v0-8c0-1.105-0.895-2-2-2v0h-2v-3.453c0.782-0.282 1.331-1.017 1.333-1.88v-0c0-4.418 3.582-8 8-8s8 3.582 8 8v0c0.003 0.863 0.552 1.598 1.319 1.876l0.014 0.004v3.453h-2c-1.105 0-2 0.895-2 2v0 8c0 1.105 0.895 2 2 2v0h2.667c3.312-0.002 5.997-2.687 5.997-6 0-2.070-1.048-3.895-2.642-4.973l-0.021-0.014zM26.667 19.373v-3.373h1.333v3.687c-0.386-0.144-0.837-0.254-1.305-0.311l-0.029-0.003zM4 16h1.333v3.373c-0.496 0.059-0.947 0.169-1.375 0.327l0.042-0.013zM1.333 25.333c0-0 0-0.001 0-0.001 0-2.342 1.725-4.281 3.974-4.616l0.026-0.003v9.24c-2.275-0.338-4-2.277-4-4.619 0-0 0-0.001 0-0.001v0zM9.333 21.333v8c0 0.368-0.298 0.667-0.667 0.667v0h-2v-9.333h2c0.368 0 0.667 0.298 0.667 0.667v0zM16 4.667c-5.155 0-9.333 4.179-9.333 9.333v0c0 0.368-0.298 0.667-0.667 0.667v0h-2c0-8 5.913-12.667 12-12.667s12 4.667 12 12.667h-2c-0.368 0-0.667-0.298-0.667-0.667v0c0-5.155-4.179-9.333-9.333-9.333v0zM22.667 29.333v-8c0-0.368 0.298-0.667 0.667-0.667v0h2v9.333h-2c-0.368 0-0.667-0.298-0.667-0.667v0zM26.667 29.953v-9.24c2.279 0.334 4.008 2.275 4.008 4.62s-1.73 4.286-3.983 4.617l-0.025 0.003z"></path>
</svg>
