<!-- Generated by IcoMoon.io -->
<svg version="1.1" xmlns="http://www.w3.org/2000/svg" width="32" height="32" viewBox="0 0 32 32">
<title>rice-cooker</title>
<path d="M31.333 8h-2.040c-0.347-3.013-2.882-5.332-5.96-5.333h-4.667v-1.333h0.667c0.368 0 0.667-0.298 0.667-0.667s-0.298-0.667-0.667-0.667v0h-6.667c-0.368 0-0.667 0.298-0.667 0.667s0.298 0.667 0.667 0.667v0h0.667v1.333h-4.667c-3.078 0.002-5.613 2.32-5.957 5.306l-0.003 0.028h-2.040c-0.368 0-0.667 0.298-0.667 0.667v0 5.333c0 0.368 0.298 0.667 0.667 0.667v0h2v12.667c0 2.577 2.089 4.667 4.667 4.667v0h17.333c2.577 0 4.667-2.089 4.667-4.667v0-12.667h2c0.368 0 0.667-0.298 0.667-0.667v0-5.333c0-0.368-0.298-0.667-0.667-0.667v0zM28 26.667h-24v-17.333h24zM14.667 1.333h2.667v1.333h-2.667zM8.667 4h14.667c0 0 0.001 0 0.001 0 2.342 0 4.281 1.725 4.616 3.974l0.003 0.026h-23.907c0.338-2.275 2.277-4 4.619-4 0 0 0.001 0 0.001 0h-0zM1.333 13.333v-4h1.333v4zM24.667 30.667h-17.333c-0 0-0 0-0.001 0-1.605 0-2.945-1.134-3.262-2.645l-0.004-0.022h23.867c-0.321 1.532-1.661 2.667-3.266 2.667-0 0-0 0-0.001 0h0zM30.667 13.333h-1.333v-4h1.333z"></path>
<path d="M16 25.333c2.209 0 4-1.791 4-4v0-1.333c0-2.209-1.791-4-4-4s-4 1.791-4 4v0 1.333c0 2.209 1.791 4 4 4v0zM13.333 20c0-1.473 1.194-2.667 2.667-2.667s2.667 1.194 2.667 2.667v0 1.333c0 1.473-1.194 2.667-2.667 2.667s-2.667-1.194-2.667-2.667v0z"></path>
<path d="M16 20c0.368 0 0.667-0.298 0.667-0.667s-0.298-0.667-0.667-0.667v0c-0.368 0-0.667 0.298-0.667 0.667s0.298 0.667 0.667 0.667v0z"></path>
<path d="M16 22.667c0.368 0 0.667-0.298 0.667-0.667s-0.298-0.667-0.667-0.667v0c-0.368 0-0.667 0.298-0.667 0.667s0.298 0.667 0.667 0.667v0z"></path>
</svg>
