<svg height="512" viewBox="0 0 48 48" width="512" xmlns="http://www.w3.org/2000/svg"><g id="Rice_Cooker" data-name="Rice Cooker"><path d="m47 12h-3.06a9 9 0 0 0 -8.94-8h-7v-2h1a1 1 0 0 0 0-2h-10a1 1 0 0 0 0 2h1v2h-7a9 9 0 0 0 -8.94 8h-3.06a1 1 0 0 0 -1 1v8a1 1 0 0 0 1 1h3v19a7 7 0 0 0 7 7h26a7 7 0 0 0 7-7v-19h3a1 1 0 0 0 1-1v-8a1 1 0 0 0 -1-1zm-5 28h-36v-26h36zm-20-38h4v2h-4zm-9 4h22a7 7 0 0 1 6.93 6h-35.86a7 7 0 0 1 6.93-6zm-11 14v-6h2v6zm35 26h-26a5 5 0 0 1 -4.9-4h35.8a5 5 0 0 1 -4.9 4zm9-26h-2v-6h2z"/><path d="m24 38a6 6 0 0 0 6-6v-2a6 6 0 0 0 -12 0v2a6 6 0 0 0 6 6zm-4-8a4 4 0 0 1 8 0v2a4 4 0 0 1 -8 0z"/><path d="m24 30a1 1 0 0 0 0-2 1 1 0 0 0 0 2z"/><path d="m24 34a1 1 0 0 0 0-2 1 1 0 0 0 0 2z"/></g></svg>