<svg height="512" viewBox="0 0 48 48" width="512" xmlns="http://www.w3.org/2000/svg"><g id="Router_Modem" data-name="Router Modem"><path d="m45 32h-3l-.94-29a3.06 3.06 0 0 0 -6.12 0l-.94 29h-20l-.94-29a3.06 3.06 0 0 0 -6.12 0l-.94 29h-3a3 3 0 0 0 -3 3v10a3 3 0 0 0 3 3h42a3 3 0 0 0 3-3v-10a3 3 0 0 0 -3-3zm-8.06-29a1.06 1.06 0 0 1 2.12 0l.94 29h-4zm-28 0a1.06 1.06 0 0 1 2.12 0l.94 29h-4zm8.06 39v4h-4v-4zm6 0v4h-4v-4zm6 0v4h-4v-4zm6 0v4h-4v-4zm-24 4h-3.61l1.33-4h2.28zm26 0v-4h2.28l1.33 4zm9-1a1 1 0 0 1 -1 1h-2.28l-1.72-5.32a1 1 0 0 0 -1-.68h-32a1 1 0 0 0 -1 .68l-1.72 5.32h-2.28a1 1 0 0 1 -1-1v-10a1 1 0 0 1 1-1h42a1 1 0 0 1 1 1z"/><path d="m43 36a1 1 0 0 0 0 2 1 1 0 0 0 0-2z"/><path d="m39 36a1 1 0 0 0 0 2 1 1 0 0 0 0-2z"/><path d="m35 36a1 1 0 0 0 0 2 1 1 0 0 0 0-2z"/><path d="m19.27 9.19a10.15 10.15 0 0 1 9.46 0 1 1 0 0 0 1-1.76 12.24 12.24 0 0 0 -11.38 0 1 1 0 0 0 .92 1.76z"/><path d="m27.78 10.6a8.27 8.27 0 0 0 -7.56 0 1 1 0 0 0 .94 1.76 6.31 6.31 0 0 1 5.68 0 1 1 0 0 0 .94-1.76z"/><path d="m23 15a1 1 0 0 0 2 0 1 1 0 0 0 -2 0z"/></g></svg>