<!-- Generated by IcoMoon.io -->
<svg version="1.1" xmlns="http://www.w3.org/2000/svg" width="32" height="32" viewBox="0 0 32 32">
<title>router-1</title>
<path d="M30 21.333h-2l-0.627-19.333c0-1.127-0.913-2.040-2.040-2.040s-2.040 0.913-2.040 2.040v0l-0.627 19.333h-13.333l-0.627-19.333c0-1.127-0.913-2.040-2.040-2.040s-2.040 0.913-2.040 2.040v0l-0.627 19.333h-2c-1.105 0-2 0.895-2 2v0 6.667c0 1.105 0.895 2 2 2v0h28c1.105 0 2-0.895 2-2v0-6.667c0-1.105-0.895-2-2-2v0zM24.627 2c0-0.39 0.316-0.707 0.707-0.707s0.707 0.316 0.707 0.707v0l0.627 19.333h-2.667zM5.96 2c0-0.39 0.316-0.707 0.707-0.707s0.707 0.316 0.707 0.707v0l0.627 19.333h-2.667zM11.333 28v2.667h-2.667v-2.667zM15.333 28v2.667h-2.667v-2.667zM19.333 28v2.667h-2.667v-2.667zM23.333 28v2.667h-2.667v-2.667zM7.333 30.667h-2.407l0.887-2.667h1.52zM24.667 30.667v-2.667h1.52l0.887 2.667zM30.667 30c0 0.368-0.298 0.667-0.667 0.667v0h-1.52l-1.147-3.547c-0.091-0.266-0.34-0.454-0.632-0.454-0.012 0-0.024 0-0.036 0.001l0.002-0h-21.333c-0.010-0.001-0.023-0.001-0.035-0.001-0.292 0-0.54 0.188-0.63 0.45l-0.001 0.005-1.147 3.547h-1.52c-0.368 0-0.667-0.298-0.667-0.667v0-6.667c0-0.368 0.298-0.667 0.667-0.667v0h28c0.368 0 0.667 0.298 0.667 0.667v0z"></path>
<path d="M28.667 24c-0.368 0-0.667 0.298-0.667 0.667s0.298 0.667 0.667 0.667v0c0.368 0 0.667-0.298 0.667-0.667s-0.298-0.667-0.667-0.667v0z"></path>
<path d="M26 24c-0.368 0-0.667 0.298-0.667 0.667s0.298 0.667 0.667 0.667v0c0.368 0 0.667-0.298 0.667-0.667s-0.298-0.667-0.667-0.667v0z"></path>
<path d="M23.333 24c-0.368 0-0.667 0.298-0.667 0.667s0.298 0.667 0.667 0.667v0c0.368 0 0.667-0.298 0.667-0.667s-0.298-0.667-0.667-0.667v0z"></path>
<path d="M12.847 6.127c0.914-0.491 2-0.78 3.153-0.78s2.239 0.289 3.19 0.797l-0.036-0.018c0.096 0.055 0.211 0.088 0.333 0.088 0.373 0 0.675-0.302 0.675-0.675 0-0.25-0.136-0.468-0.338-0.585l-0.003-0.002c-1.1-0.589-2.406-0.935-3.793-0.935s-2.693 0.346-3.837 0.957l0.044-0.021c-0.176 0.122-0.29 0.323-0.29 0.55 0 0.368 0.298 0.667 0.667 0.667 0.085 0 0.166-0.016 0.241-0.045l-0.005 0.002z"></path>
<path d="M18.52 7.067c-0.732-0.384-1.6-0.61-2.52-0.61s-1.788 0.225-2.55 0.624l0.030-0.014c-0.189 0.12-0.313 0.328-0.313 0.565 0 0.368 0.298 0.667 0.667 0.667 0.099 0 0.193-0.022 0.277-0.060l-0.004 0.002c0.551-0.284 1.203-0.45 1.893-0.45s1.342 0.166 1.917 0.461l-0.024-0.011c0.080 0.037 0.174 0.058 0.273 0.058 0.368 0 0.667-0.298 0.667-0.667 0-0.237-0.124-0.445-0.31-0.564l-0.003-0.002z"></path>
<path d="M15.333 10c0 0.368 0.298 0.667 0.667 0.667s0.667-0.298 0.667-0.667v0c0-0.368-0.298-0.667-0.667-0.667s-0.667 0.298-0.667 0.667v0z"></path>
</svg>
