<svg height="512" viewBox="0 0 48 48" width="512" xmlns="http://www.w3.org/2000/svg"><g id="Home_Theater_Speaker" data-name="Home Theater Speaker"><path d="m20 0h-16a1 1 0 0 0 -1 1v46a1 1 0 0 0 1 1h16a1 1 0 0 0 1-1v-46a1 1 0 0 0 -1-1zm-1 46h-14v-44h14z"/><path d="m12 16a5 5 0 1 0 -5-5 5 5 0 0 0 5 5zm0-8a3 3 0 1 1 -3 3 3 3 0 0 1 3-3z"/><path d="m12 32a5 5 0 1 0 -5-5 5 5 0 0 0 5 5zm0-8a3 3 0 1 1 -3 3 3 3 0 0 1 3-3z"/><path d="m12 12a1 1 0 0 0 0-2 1 1 0 0 0 0 2z"/><path d="m12 28a1 1 0 0 0 0-2 1 1 0 0 0 0 2z"/><path d="m11 19a1 1 0 0 0 2 0 1 1 0 0 0 -2 0z"/><path d="m44 0h-16a1 1 0 0 0 -1 1v46a1 1 0 0 0 1 1h16a1 1 0 0 0 1-1v-46a1 1 0 0 0 -1-1zm-1 46h-14v-44h14z"/><path d="m36 16a5 5 0 1 0 -5-5 5 5 0 0 0 5 5zm0-8a3 3 0 1 1 -3 3 3 3 0 0 1 3-3z"/><path d="m36 32a5 5 0 1 0 -5-5 5 5 0 0 0 5 5zm0-8a3 3 0 1 1 -3 3 3 3 0 0 1 3-3z"/><path d="m36 12a1 1 0 0 0 0-2 1 1 0 0 0 0 2z"/><path d="m36 28a1 1 0 0 0 0-2 1 1 0 0 0 0 2z"/><path d="m35 19a1 1 0 0 0 2 0 1 1 0 0 0 -2 0z"/><path d="m8 44h8a1 1 0 0 0 1-1v-4a1 1 0 0 0 -1-1h-8a1 1 0 0 0 -1 1v4a1 1 0 0 0 1 1zm1-4h6v2h-6z"/><path d="m32 44h8a1 1 0 0 0 1-1v-4a1 1 0 0 0 -1-1h-8a1 1 0 0 0 -1 1v4a1 1 0 0 0 1 1zm1-4h6v2h-6z"/></g></svg>