<svg height="512" viewBox="0 0 48 48" width="512" xmlns="http://www.w3.org/2000/svg"><g id="Juicer"><path d="m43 22h-1v-9a3 3 0 0 0 -3-3h-3v-8h1a1 1 0 0 0 0-2h-12a1 1 0 0 0 0 2h1v8h-12.19a17.63 17.63 0 0 0 -13.52 6.29c-.41.42-.29.11-.29 10.71a1 1 0 0 0 1 1h3v19a1 1 0 0 0 1 1h36a1 1 0 0 0 1-1v-19h5c2.28 0 .65-6-4-6zm-3 0h-6v-5a1 1 0 0 1 1-1h5zm0-9v1h-5a3 3 0 0 0 -3 3v12a1 1 0 0 1 -2 0v-12a5 5 0 0 1 5-5h4a1 1 0 0 1 1 1zm-18-1h8.11c-2.66 2.6-2.11 5.43-2.11 10h-6zm6-10h6v8h-6zm-8 10v4h-16.62c5.17-4.63 10.09-4 16.62-4zm-14 16h2a1 1 0 0 0 0-2h-6v-8h18v28h-14zm34 18h-18v-22h6v5a3 3 0 0 0 6 0v-5h6zm2-20v-2h1a3 3 0 0 1 2.83 2z"/><path d="m31 35a4 4 0 1 0 4 4 4 4 0 0 0 -4-4zm0 6a2 2 0 1 1 2-2 2 2 0 0 1 -2 2z"/></g></svg>