<!-- Generated by IcoMoon.io -->
<svg version="1.1" xmlns="http://www.w3.org/2000/svg" width="32" height="32" viewBox="0 0 32 32">
<title>juicer</title>
<path d="M28.667 14.667h-0.667v-6c0-1.105-0.895-2-2-2v0h-2v-5.333h0.667c0.368 0 0.667-0.298 0.667-0.667s-0.298-0.667-0.667-0.667v0h-8c-0.368 0-0.667 0.298-0.667 0.667s0.298 0.667 0.667 0.667v0h0.667v5.333h-8.127c-0.004 0-0.009 0-0.014 0-3.604 0-6.829 1.622-8.985 4.176l-0.014 0.018c-0.273 0.28-0.193 0.073-0.193 7.14 0 0.368 0.298 0.667 0.667 0.667v0h2v12.667c0 0.368 0.298 0.667 0.667 0.667v0h24c0.368 0 0.667-0.298 0.667-0.667v0-12.667h3.333c1.52 0 0.433-4-2.667-4zM26.667 14.667h-4v-3.333c0-0.368 0.298-0.667 0.667-0.667v0h3.333zM26.667 8.667v0.667h-3.333c-1.105 0-2 0.895-2 2v0 8c0 0.368-0.298 0.667-0.667 0.667s-0.667-0.298-0.667-0.667v0-8c0-1.841 1.492-3.333 3.333-3.333v0h2.667c0.368 0 0.667 0.298 0.667 0.667v0zM14.667 8h5.407c-1.773 1.733-1.407 3.62-1.407 6.667h-4zM18.667 1.333h4v5.333h-4zM13.333 8v2.667h-11.080c3.447-3.087 6.727-2.667 11.080-2.667zM4 18.667h1.333c0.368 0 0.667-0.298 0.667-0.667s-0.298-0.667-0.667-0.667v0h-4v-5.333h12v18.667h-9.333zM26.667 30.667h-12v-14.667h4v3.333c0 1.105 0.895 2 2 2s2-0.895 2-2v0-3.333h4zM28 17.333v-1.333h0.667c0 0 0.001 0 0.001 0 0.866 0 1.603 0.55 1.881 1.319l0.004 0.014z"></path>
<path d="M20.667 23.333c-1.473 0-2.667 1.194-2.667 2.667s1.194 2.667 2.667 2.667c1.473 0 2.667-1.194 2.667-2.667v0c0-1.473-1.194-2.667-2.667-2.667v0zM20.667 27.333c-0.736 0-1.333-0.597-1.333-1.333s0.597-1.333 1.333-1.333c0.736 0 1.333 0.597 1.333 1.333v0c0 0.736-0.597 1.333-1.333 1.333v0z"></path>
</svg>
