<svg height="512" viewBox="0 0 48 48" width="512" xmlns="http://www.w3.org/2000/svg"><g id="Sewing_Machine" data-name="Sewing Machine"><path d="m44 34h-4v-3.18a3 3 0 0 0 2-2.82v-1a4 4 0 0 0 4-4v-14a4 4 0 0 0 -3-3.86v-1.14a3 3 0 0 0 -3-3h-30a3 3 0 0 0 -3 3v1.14a4 4 0 0 0 -3 3.86h-3a1 1 0 0 0 -1 1v10a1 1 0 0 0 1 1h3v23a4 4 0 0 0 4 4h36a4 4 0 0 0 4-4v-6a4 4 0 0 0 -4-4zm-22 0v-11a2 2 0 0 1 2-2h6a2 2 0 0 1 2 2 4 4 0 0 0 4 4v1a3 3 0 0 0 2 2.82v3.18zm18-6a1 1 0 0 1 -2 0v-1h2zm-27-23a5.18 5.18 0 0 0 -.18-2h24.36a5.11 5.11 0 0 0 -.18 2zm26-1a1 1 0 0 1 2 0v1h-2zm-30 0a1 1 0 0 1 2 0v1h-2zm-3 5a2 2 0 0 1 2-2h34a2 2 0 0 1 2 2v14a2 2 0 0 1 -2 2h-6a2 2 0 0 1 -2-2 4 4 0 0 0 -4-4h-6a4 4 0 0 0 -4 4v11h-14zm-4 10v-8h2v8zm44 25a2 2 0 0 1 -2 2h-36a2 2 0 0 1 -2-2v-8h38a2 2 0 0 1 2 2z"/><path d="m20.14 14a4 4 0 1 0 0-2 1 1 0 1 0 0 2zm5.86-1a2 2 0 0 1 -3.72 1h.72a1 1 0 0 0 0-2h-.72a2 2 0 0 1 3.72 1z"/></g></svg>