<!-- Generated by IcoMoon.io -->
<svg version="1.1" xmlns="http://www.w3.org/2000/svg" width="32" height="32" viewBox="0 0 32 32">
<title>sewing-machine</title>
<path d="M29.333 22.667h-2.667v-2.12c0.782-0.282 1.331-1.017 1.333-1.88v-0.667c1.473 0 2.667-1.194 2.667-2.667v0-9.333c-0.004-1.232-0.843-2.267-1.981-2.569l-0.019-0.004v-0.76c0-1.105-0.895-2-2-2v0h-20c-1.105 0-2 0.895-2 2v0 0.76c-1.157 0.306-1.996 1.341-2 2.573v0h-2c-0.368 0-0.667 0.298-0.667 0.667v0 6.667c0 0.368 0.298 0.667 0.667 0.667v0h2v15.333c0 1.473 1.194 2.667 2.667 2.667v0h24c1.473 0 2.667-1.194 2.667-2.667v0-4c0-1.473-1.194-2.667-2.667-2.667v0zM14.667 22.667v-7.333c0-0.736 0.597-1.333 1.333-1.333v0h4c0.736 0 1.333 0.597 1.333 1.333v0c0 1.473 1.194 2.667 2.667 2.667v0 0.667c0.003 0.863 0.552 1.598 1.319 1.876l0.014 0.004v2.12zM26.667 18.667c0 0.368-0.298 0.667-0.667 0.667s-0.667-0.298-0.667-0.667v0-0.667h1.333zM8.667 3.333c0.012-0.109 0.019-0.235 0.019-0.363 0-0.346-0.051-0.68-0.145-0.995l0.006 0.024h16.24c-0.089 0.289-0.14 0.622-0.14 0.966 0 0.129 0.007 0.257 0.021 0.383l-0.001-0.015zM26 2.667c0-0.368 0.298-0.667 0.667-0.667s0.667 0.298 0.667 0.667v0 0.667h-1.333zM6 2.667c0-0.368 0.298-0.667 0.667-0.667s0.667 0.298 0.667 0.667v0 0.667h-1.333zM4 6c0-0.736 0.597-1.333 1.333-1.333v0h22.667c0.736 0 1.333 0.597 1.333 1.333v0 9.333c0 0.736-0.597 1.333-1.333 1.333v0h-4c-0.736 0-1.333-0.597-1.333-1.333v0c0-1.473-1.194-2.667-2.667-2.667v0h-4c-1.473 0-2.667 1.194-2.667 2.667v0 7.333h-9.333zM1.333 12.667v-5.333h1.333v5.333zM30.667 29.333c0 0.736-0.597 1.333-1.333 1.333v0h-24c-0.736 0-1.333-0.597-1.333-1.333v0-5.333h25.333c0.736 0 1.333 0.597 1.333 1.333v0z"></path>
<path d="M13.427 9.333c0.307 1.159 1.346 2 2.582 2 1.473 0 2.667-1.194 2.667-2.667s-1.194-2.667-2.667-2.667c-1.236 0-2.275 0.841-2.578 1.981l-0.004 0.019c-0.368 0-0.667 0.298-0.667 0.667s0.298 0.667 0.667 0.667v0zM17.333 8.667c-0.008 0.73-0.602 1.32-1.333 1.32-0.485 0-0.91-0.259-1.143-0.647l-0.003-0.006h0.48c0.368 0 0.667-0.298 0.667-0.667s-0.298-0.667-0.667-0.667v0h-0.48c0.237-0.394 0.661-0.653 1.147-0.653 0.732 0 1.326 0.589 1.333 1.319v0.001z"></path>
</svg>
