<!-- Generated by IcoMoon.io -->
<svg version="1.1" xmlns="http://www.w3.org/2000/svg" width="32" height="32" viewBox="0 0 32 32">
<title>socket-5</title>
<path d="M20.667 0h-9.333c-2.577 0-4.667 2.089-4.667 4.667v0 22.667c0 2.577 2.089 4.667 4.667 4.667v0h9.333c2.577 0 4.667-2.089 4.667-4.667v0-22.667c0-2.577-2.089-4.667-4.667-4.667v0zM24 27.333c0 1.841-1.492 3.333-3.333 3.333v0h-9.333c-1.841 0-3.333-1.492-3.333-3.333v0-22.667c0-1.841 1.492-3.333 3.333-3.333v0h9.333c1.841 0 3.333 1.492 3.333 3.333v0z"></path>
<path d="M20.667 2.667h-9.333c-1.105 0-2 0.895-2 2v0 22.667c0 1.105 0.895 2 2 2v0h9.333c1.105 0 2-0.895 2-2v0-22.667c0-1.105-0.895-2-2-2v0zM21.333 27.333c0 0.368-0.298 0.667-0.667 0.667v0h-9.333c-0.368 0-0.667-0.298-0.667-0.667v0-22.667c0-0.368 0.298-0.667 0.667-0.667v0h9.333c0.368 0 0.667 0.298 0.667 0.667v0z"></path>
<path d="M16 5.333c-2.209 0-4 1.791-4 4s1.791 4 4 4c2.209 0 4-1.791 4-4v0c0-2.209-1.791-4-4-4v0zM16 12c-1.473 0-2.667-1.194-2.667-2.667s1.194-2.667 2.667-2.667c1.473 0 2.667 1.194 2.667 2.667v0c0 1.473-1.194 2.667-2.667 2.667v0z"></path>
<path d="M14.667 8.667c-0.368 0-0.667 0.298-0.667 0.667s0.298 0.667 0.667 0.667v0c0.368 0 0.667-0.298 0.667-0.667s-0.298-0.667-0.667-0.667v0z"></path>
<path d="M17.333 8.667c-0.368 0-0.667 0.298-0.667 0.667s0.298 0.667 0.667 0.667v0c0.368 0 0.667-0.298 0.667-0.667s-0.298-0.667-0.667-0.667v0z"></path>
<path d="M16 18.667c-2.209 0-4 1.791-4 4s1.791 4 4 4c2.209 0 4-1.791 4-4v0c0-2.209-1.791-4-4-4v0zM16 25.333c-1.473 0-2.667-1.194-2.667-2.667s1.194-2.667 2.667-2.667c1.473 0 2.667 1.194 2.667 2.667v0c0 1.473-1.194 2.667-2.667 2.667v0z"></path>
<path d="M14.667 22c-0.368 0-0.667 0.298-0.667 0.667s0.298 0.667 0.667 0.667v0c0.368 0 0.667-0.298 0.667-0.667s-0.298-0.667-0.667-0.667v0z"></path>
<path d="M17.333 22c-0.368 0-0.667 0.298-0.667 0.667s0.298 0.667 0.667 0.667v0c0.368 0 0.667-0.298 0.667-0.667s-0.298-0.667-0.667-0.667v0z"></path>
<path d="M17.333 16.667c0.368 0 0.667-0.298 0.667-0.667s-0.298-0.667-0.667-0.667v0h-2.667c-0.368 0-0.667 0.298-0.667 0.667s0.298 0.667 0.667 0.667v0z"></path>
</svg>
