<svg height="512" viewBox="0 0 48 48" width="512" xmlns="http://www.w3.org/2000/svg"><g id="Electronic_Plug_Socket_Station" data-name="Electronic Plug Socket Station"><path d="m31 0h-14a7 7 0 0 0 -7 7v34a7 7 0 0 0 7 7h14a7 7 0 0 0 7-7v-34a7 7 0 0 0 -7-7zm5 41a5 5 0 0 1 -5 5h-14a5 5 0 0 1 -5-5v-34a5 5 0 0 1 5-5h14a5 5 0 0 1 5 5z"/><path d="m31 4h-14a3 3 0 0 0 -3 3v34a3 3 0 0 0 3 3h14a3 3 0 0 0 3-3v-34a3 3 0 0 0 -3-3zm1 37a1 1 0 0 1 -1 1h-14a1 1 0 0 1 -1-1v-34a1 1 0 0 1 1-1h14a1 1 0 0 1 1 1z"/><path d="m24 8a6 6 0 1 0 6 6 6 6 0 0 0 -6-6zm0 10a4 4 0 1 1 4-4 4 4 0 0 1 -4 4z"/><path d="m22 13a1 1 0 0 0 0 2 1 1 0 0 0 0-2z"/><path d="m26 13a1 1 0 0 0 0 2 1 1 0 0 0 0-2z"/><path d="m24 28a6 6 0 1 0 6 6 6 6 0 0 0 -6-6zm0 10a4 4 0 1 1 4-4 4 4 0 0 1 -4 4z"/><path d="m22 33a1 1 0 0 0 0 2 1 1 0 0 0 0-2z"/><path d="m26 33a1 1 0 0 0 0 2 1 1 0 0 0 0-2z"/><path d="m26 25a1 1 0 0 0 0-2h-4a1 1 0 0 0 0 2z"/></g></svg>