<?xml version="1.0" encoding="UTF-8"?>
<svg xmlns="http://www.w3.org/2000/svg" viewBox="0 0 48 48" width="512" height="512"><g id="Kettle"><path d="M48,10.22A3.22,3.22,0,0,0,44.78,7H39.93A8,8,0,0,0,32,0H20a8,8,0,0,0-7.93,7H9a9,9,0,0,0-9,9C0,29.16-.78,27.63,6,34.41V37H4a3,3,0,0,0,0,6H6v1a1,1,0,0,0,1,1h3.65a4.93,4.93,0,0,0,4.56,3H36.79a5,5,0,0,0,5-5.26l-1.14-22.2C47.86,11.52,48,11.73,48,10.22ZM10.9,29.48c-3-3-3.9-3.52-3.9-5.14V17a3,3,0,0,1,3-3h1.69ZM14,9h24.1c4.71,91.87-3-58.62,1.59,31H12.36ZM20,2H32a6,6,0,0,1,5.92,5H14.08A6,6,0,0,1,20,2ZM2,16A7,7,0,0,1,9,9H12l-.16,3H10a5,5,0,0,0-5,5c0,10.84-1,8.38,5.76,15.17l-.2,4C.7,26.28,2,29.5,2,16ZM4,41a1,1,0,0,1,0-2H6v2Zm4,2V36.41l2.42,2.42c-.28,5.39-.19,3.54-.19,4.17Zm31,2.07c-1.23,1.3-.76.93-23.75.93a3,3,0,0,1-3-3.15l0-.85H39.74A3.51,3.51,0,0,1,39,45.07ZM45.73,11l-5.24,6.55L40.05,9h4.73A1.22,1.22,0,0,1,45.73,11Z"/><path d="M26,18a4,4,0,0,0-4,4V32a4,4,0,0,0,8,0V22A4,4,0,0,0,26,18Zm2,14a2,2,0,0,1-4,0V22a2,2,0,0,1,4,0Z"/></g></svg>
