<!-- Generated by IcoMoon.io -->
<svg version="1.1" xmlns="http://www.w3.org/2000/svg" width="32" height="32" viewBox="0 0 32 32">
<title>kettle-1</title>
<path d="M32 6.813c0-1.186-0.961-2.147-2.147-2.147v0h-3.233c-0.343-2.643-2.578-4.664-5.286-4.667h-8c-2.708 0.003-4.944 2.024-5.284 4.64l-0.003 0.027h-2.047c-3.314 0-6 2.686-6 6v0c0 8.773-0.52 7.753 4 12.273v1.727h-1.333c-1.105 0-2 0.895-2 2s0.895 2 2 2v0h1.333v0.667c0 0.368 0.298 0.667 0.667 0.667v0h2.433c0.514 1.186 1.674 2 3.024 2 0.005 0 0.011 0 0.017-0h14.386c0.001 0 0.003 0 0.005 0 1.841 0 3.333-1.492 3.333-3.333 0-0.061-0.002-0.122-0.005-0.182l0 0.008-0.76-14.8c4.807-6.013 4.9-5.873 4.9-6.88zM7.267 19.653c-2-2-2.6-2.347-2.6-3.427v-4.893c0-1.105 0.895-2 2-2v0h1.127zM9.333 6h16.067c3.14 61.247-2-39.080 1.060 20.667h-18.22zM13.333 1.333h8c0.001 0 0.002 0 0.003 0 1.974 0 3.613 1.429 3.941 3.309l0.003 0.024h-15.893c0.331-1.904 1.97-3.333 3.944-3.333 0.001 0 0.002 0 0.003 0h-0zM1.333 10.667c0-2.577 2.089-4.667 4.667-4.667v0h2l-0.107 2h-1.227c-1.841 0-3.333 1.492-3.333 3.333v0c0 7.227-0.667 5.587 3.84 10.113l-0.133 2.667c-6.573-6.593-5.707-4.447-5.707-13.447zM2.667 27.333c-0.368 0-0.667-0.298-0.667-0.667s0.298-0.667 0.667-0.667v0h1.333v1.333zM5.333 28.667v-4.393l1.613 1.613c-0.187 3.593-0.127 2.36-0.127 2.78zM26 30.047c-0.82 0.867-0.507 0.62-15.833 0.62-0.001 0-0.002 0-0.002 0-1.105 0-2-0.895-2-2 0-0.035 0.001-0.070 0.003-0.105l-0 0.005v-0.567h18.327c0.039 0.16 0.062 0.344 0.062 0.534 0 0.578-0.21 1.108-0.558 1.516l0.003-0.003zM30.487 7.333l-3.493 4.367-0.293-5.7h3.153c0.002-0 0.005-0 0.008-0 0.449 0 0.813 0.364 0.813 0.813 0 0.198-0.071 0.38-0.189 0.521l0.001-0.001z"></path>
<path d="M17.333 12c-1.473 0-2.667 1.194-2.667 2.667v0 6.667c0 1.473 1.194 2.667 2.667 2.667s2.667-1.194 2.667-2.667v0-6.667c0-1.473-1.194-2.667-2.667-2.667v0zM18.667 21.333c0 0.736-0.597 1.333-1.333 1.333s-1.333-0.597-1.333-1.333v0-6.667c0-0.736 0.597-1.333 1.333-1.333s1.333 0.597 1.333 1.333v0z"></path>
</svg>
