<svg clip-rule="evenodd" fill-rule="evenodd" height="512" stroke-linejoin="round" stroke-miterlimit="2" viewBox="0 0 101 101" width="512" xmlns="http://www.w3.org/2000/svg"><path d="m15.71 19.263v-1.134c0-4.41 1.752-8.64 4.871-11.758 3.118-3.119 7.348-4.871 11.758-4.871h.062c4.411 0 8.64 1.752 11.759 4.871 3.118 3.118 4.87 7.348 4.87 11.758v3.652c.472-.103.961-.156 1.464-.156h.013c.502 0 .992.053 1.463.156v-3.652c0-4.41 1.752-8.64 4.871-11.758 3.118-3.119 7.348-4.871 11.758-4.871h.062c4.411 0 8.64 1.752 11.759 4.871 3.118 3.118 4.87 7.348 4.87 11.758v1.134c4.982.627 9.411 3.616 11.837 8.102.656 1.214.626 2.685-.081 3.871-.708 1.186-1.987 1.913-3.368 1.913h-1.909c.036.329.054.664.054 1.004 0 4.96-3.888 8.845-8.493 8.845s-8.492-3.885-8.492-8.845c0-.34.018-.675.053-1.004h-1.909c-1.381 0-2.66-.727-3.367-1.913s-.738-2.657-.081-3.871c2.425-4.486 6.855-7.475 11.836-8.102v-1.134c0-3.371-1.339-6.603-3.722-8.987-2.384-2.383-5.616-3.722-8.987-3.722h-.062c-3.371 0-6.603 1.339-8.986 3.722-2.384 2.384-3.723 5.616-3.723 8.987v6.088c.94 1.178 1.502 2.67 1.502 4.293v67.07h12.708c1.082 0 1.96.878 1.96 1.96s-.878 1.96-1.96 1.96h-39.2c-1.082 0-1.96-.878-1.96-1.96s.878-1.96 1.96-1.96h12.708v-67.07c0-1.623.562-3.115 1.502-4.293v-6.088c0-3.371-1.339-6.603-3.722-8.987-2.384-2.383-5.616-3.722-8.987-3.722h-.062c-3.371 0-6.603 1.339-8.986 3.722-2.384 2.384-3.723 5.616-3.723 8.987v1.134c4.982.627 9.411 3.616 11.837 8.102.656 1.214.626 2.685-.081 3.871-.708 1.186-1.987 1.913-3.368 1.913h-1.909c.036.329.054.664.054 1.004 0 4.96-3.888 8.845-8.493 8.845s-8.492-3.885-8.492-8.845c0-.34.018-.675.053-1.004h-1.909c-1.381 0-2.66-.727-3.367-1.913s-.738-2.657-.081-3.871c2.425-4.486 6.855-7.475 11.836-8.102zm37.762 76.317v-67.07c0-1.638-1.328-2.965-2.965-2.965h-.013c-1.638 0-2.966 1.327-2.966 2.965v67.07zm27.898-46.068v3.92c0 1.082.878 1.96 1.96 1.96s1.96-.878 1.96-1.96v-3.92c0-1.082-.878-1.96-1.96-1.96s-1.96.878-1.96 1.96zm-65.66-.008v3.92c0 1.082.878 1.96 1.96 1.96s1.96-.878 1.96-1.96v-3.92c0-1.082-.878-1.96-1.96-1.96s-1.96.878-1.96 1.96zm56.44-2.597-1.657 3.553c-.457.98-.032 2.147.948 2.605.981.457 2.148.032 2.605-.948l1.657-3.553c.457-.981.032-2.148-.948-2.605-.981-.457-2.148-.032-2.605.948zm-65.66-.008-1.657 3.553c-.457.98-.032 2.147.948 2.605.981.457 2.148.032 2.605-.949l1.657-3.552c.457-.981.032-2.148-.948-2.605-.981-.457-2.148-.032-2.605.948zm84.468 1.498 1.656 3.552c.457.981 1.625 1.405 2.605.948s1.405-1.624.948-2.604l-1.657-3.553c-.457-.981-1.624-1.405-2.604-.948-.981.457-1.406 1.624-.948 2.605zm-65.66-.009 1.656 3.553c.457.981 1.625 1.405 2.605.948s1.405-1.624.948-2.605l-1.657-3.552c-.457-.981-1.624-1.405-2.604-.948-.981.457-1.406 1.624-.948 2.604zm-3.151-15.239h-8.954c-.063.324-.095.66-.095 1.004 0 2.718 2.048 4.925 4.572 4.925s4.573-2.207 4.573-4.925c0-.344-.033-.68-.096-1.004zm65.66 0h-8.954c-.063.324-.095.66-.095 1.004 0 2.718 2.048 4.925 4.572 4.925s4.573-2.207 4.573-4.925c0-.344-.033-.68-.096-1.004zm-59.789-3.92c-2.054-3.801-6.027-6.169-10.348-6.169-4.32 0-8.293 2.368-10.348 6.169zm65.66 0c-2.054-3.801-6.027-6.169-10.348-6.169-4.32 0-8.293 2.368-10.348 6.169z"/></svg>