<!-- Generated by IcoMoon.io -->
<svg version="1.1" xmlns="http://www.w3.org/2000/svg" width="32" height="32" viewBox="0 0 32 32">
<title>street-light</title>
<path d="M4.977 6.103v-0.359c0-1.397 0.555-2.737 1.543-3.725s2.328-1.543 3.725-1.543h0.020c1.398 0 2.737 0.555 3.726 1.543s1.543 2.328 1.543 3.725v1.157c0.15-0.033 0.304-0.049 0.464-0.049h0.004c0.159 0 0.314 0.017 0.464 0.049v-1.157c0-1.397 0.555-2.737 1.543-3.725s2.328-1.543 3.725-1.543h0.020c1.398 0 2.737 0.555 3.726 1.543s1.543 2.328 1.543 3.725v0.359c1.578 0.199 2.982 1.146 3.75 2.567 0.208 0.385 0.198 0.851-0.026 1.226s-0.63 0.606-1.067 0.606h-0.605c0.011 0.104 0.017 0.21 0.017 0.318 0 1.572-1.232 2.802-2.691 2.802s-2.691-1.231-2.691-2.802c0-0.108 0.006-0.214 0.017-0.318h-0.605c-0.438 0-0.843-0.23-1.067-0.606s-0.234-0.842-0.026-1.226c0.768-1.421 2.172-2.368 3.75-2.567v-0.359c0-1.068-0.424-2.092-1.179-2.847s-1.779-1.179-2.847-1.179h-0.020c-1.068 0-2.092 0.424-2.847 1.179s-1.18 1.779-1.18 2.847v1.929c0.298 0.373 0.476 0.846 0.476 1.36v21.25h4.026c0.343 0 0.621 0.278 0.621 0.621s-0.278 0.621-0.621 0.621h-12.42c-0.343 0-0.621-0.278-0.621-0.621s0.278-0.621 0.621-0.621h4.026v-21.25c0-0.514 0.178-0.987 0.476-1.36v-1.929c0-1.068-0.424-2.092-1.179-2.847s-1.779-1.179-2.847-1.179h-0.020c-1.068 0-2.092 0.424-2.847 1.179s-1.18 1.779-1.18 2.847v0.359c1.578 0.199 2.982 1.146 3.75 2.567 0.208 0.385 0.198 0.851-0.026 1.226s-0.63 0.606-1.067 0.606h-0.605c0.011 0.104 0.017 0.21 0.017 0.318 0 1.572-1.232 2.802-2.691 2.802s-2.691-1.231-2.691-2.802c0-0.108 0.006-0.214 0.017-0.318h-0.605c-0.438 0-0.843-0.23-1.067-0.606s-0.234-0.842-0.026-1.226c0.768-1.421 2.172-2.368 3.75-2.567zM16.942 30.283v-21.25c0-0.519-0.421-0.939-0.939-0.939h-0.004c-0.519 0-0.94 0.42-0.94 0.939v21.25zM25.781 15.687v1.242c0 0.343 0.278 0.621 0.621 0.621s0.621-0.278 0.621-0.621v-1.242c0-0.343-0.278-0.621-0.621-0.621s-0.621 0.278-0.621 0.621zM4.977 15.684v1.242c0 0.343 0.278 0.621 0.621 0.621s0.621-0.278 0.621-0.621v-1.242c0-0.343-0.278-0.621-0.621-0.621s-0.621 0.278-0.621 0.621zM22.859 14.862l-0.525 1.126c-0.145 0.31-0.010 0.68 0.3 0.825s0.681 0.010 0.825-0.3l0.525-1.126c0.145-0.311 0.010-0.681-0.3-0.825s-0.681-0.010-0.825 0.3zM2.056 14.859l-0.525 1.126c-0.145 0.31-0.010 0.68 0.3 0.825s0.681 0.010 0.825-0.301l0.525-1.125c0.145-0.311 0.010-0.681-0.3-0.825s-0.681-0.010-0.825 0.3zM28.818 15.334l0.525 1.125c0.145 0.311 0.515 0.445 0.825 0.3s0.445-0.515 0.3-0.825l-0.525-1.126c-0.145-0.311-0.515-0.445-0.825-0.3s-0.445 0.515-0.3 0.825zM8.015 15.331l0.525 1.126c0.145 0.311 0.515 0.445 0.825 0.3s0.445-0.515 0.3-0.825l-0.525-1.125c-0.145-0.311-0.515-0.445-0.825-0.3s-0.445 0.515-0.3 0.825zM7.017 10.503h-2.837c-0.020 0.103-0.030 0.209-0.030 0.318 0 0.861 0.649 1.56 1.449 1.56s1.449-0.699 1.449-1.56c0-0.109-0.010-0.215-0.030-0.318zM27.82 10.503h-2.837c-0.020 0.103-0.030 0.209-0.030 0.318 0 0.861 0.649 1.56 1.449 1.56s1.449-0.699 1.449-1.56c0-0.109-0.010-0.215-0.030-0.318zM8.877 9.261c-0.651-1.204-1.91-1.955-3.279-1.955s-2.627 0.75-3.279 1.955zM29.68 9.261c-0.651-1.204-1.91-1.955-3.279-1.955s-2.628 0.75-3.279 1.955z"></path>
</svg>
