<svg clip-rule="evenodd" fill-rule="evenodd" height="512" stroke-linejoin="round" stroke-miterlimit="2" viewBox="0 0 101 101" width="512" xmlns="http://www.w3.org/2000/svg"><path d="m33.397 12.291 7.554-7.554c2.073-2.072 4.884-3.237 7.816-3.237 2.931 0 5.743 1.165 7.815 3.237.001.001.001.001.002.002 2.073 2.073 3.237 4.884 3.237 7.815 0 1.019-.14 2.023-.411 2.986l19.561 19.561c.828-.189 1.691-.289 2.577-.289 6.382 0 11.563 5.182 11.563 11.564s-5.181 11.563-11.563 11.563c-.152 0-.303-.003-.455-.009l-15.255 20.959h3.535c2.165 0 3.92 1.755 3.92 3.92v12.771c0 2.165-1.755 3.92-3.92 3.92h-51.065c-2.165 0-3.92-1.755-3.92-3.92v-5.949c0-2.165 1.755-3.92 3.92-3.92h2.388v-1.788c0-3.008 2.439-5.447 5.447-5.447h2.503c3.008 0 5.447 2.439 5.447 5.447v1.788h3.473l3.266-5.035c.723-1.114 1.961-1.787 3.289-1.787h6.396l20.381-28.003c-.588-1.386-.914-2.91-.914-4.51 0-.85.092-1.678.266-2.476l-18.598-18.598-2.622 2.622c2.566 7.77.952 16.354-4.839 22.145-1.035 1.035-2.18 1.955-3.419 2.746-1.55.991-3.581.77-4.882-.531l-5.61-5.61-1.199 1.199c-2.073 2.073-4.884 3.238-7.816 3.238-2.931-.001-5.743-1.165-7.816-3.238l-.001-.001c-2.073-2.073-3.237-4.884-3.237-7.816 0-2.931 1.164-5.743 3.237-7.816l1.199-1.199-5.61-5.61c-1.301-1.301-1.522-3.332-.531-4.882.791-1.239 1.711-2.384 2.746-3.419 5.791-5.791 14.375-7.404 22.145-4.839zm35.976 70.518h-25.252l-4.425 6.822h-21.388v5.949h51.065zm-39.2 2.902v-1.788c0-.843-.684-1.527-1.527-1.527h-2.503c-.843 0-1.527.684-1.527 1.527v1.788zm43.032-31.332-17.84 24.51h5.625l15.946-21.908c-1.413-.615-2.679-1.505-3.731-2.602zm8.343-15.647c4.218 0 7.643 3.425 7.643 7.644 0 4.218-3.425 7.643-7.643 7.643-4.219 0-7.644-3.425-7.644-7.643 0-4.219 3.425-7.644 7.644-7.644zm-42.886 10.78c.999-.638 1.923-1.38 2.757-2.215 6.93-6.929 6.418-18.693-1.142-26.253s-19.324-8.072-26.253-1.142c-.835.835-1.577 1.758-2.215 2.757zm-21.243-15.699-1.199 1.199c-1.338 1.338-2.089 3.152-2.089 5.044s.751 3.706 2.089 5.044l.001.001c1.338 1.338 3.152 2.089 5.044 2.09 1.892 0 3.706-.752 5.044-2.09l1.199-1.199-3.658-3.659-1.248 1.248c-.765.765-2.007.765-2.772 0s-.765-2.007 0-2.772l1.248-1.248zm40.149-14.571c-.3.396-.629.773-.984 1.128l-2.16 2.16 17.475 17.474c.844-1.275 1.935-2.374 3.203-3.228zm-10.207 4.808 6.451-6.452c1.338-1.337 2.089-3.152 2.089-5.044 0-1.891-.751-3.706-2.089-5.043-.001-.001-.001-.001-.001-.002-1.338-1.337-3.152-2.089-5.044-2.089s-3.707.752-5.044 2.089l-6.451 6.451c2.062 1.112 4.014 2.549 5.777 4.312s3.2 3.716 4.312 5.778z"/></svg>