<!-- Generated by IcoMoon.io -->
<svg version="1.1" xmlns="http://www.w3.org/2000/svg" width="32" height="32" viewBox="0 0 32 32">
<title>study</title>
<path d="M10.581 3.894l2.393-2.393c0.657-0.656 1.547-1.026 2.476-1.026s1.82 0.369 2.476 1.026c0 0 0 0 0.001 0.001 0.657 0.657 1.026 1.547 1.026 2.476 0 0.323-0.044 0.641-0.13 0.946l6.198 6.198c0.262-0.060 0.536-0.092 0.816-0.092 2.022 0 3.664 1.642 3.664 3.664s-1.642 3.664-3.664 3.664c-0.048 0-0.096-0.001-0.144-0.003l-4.833 6.64h1.12c0.686 0 1.242 0.556 1.242 1.242v4.046c0 0.686-0.556 1.242-1.242 1.242h-16.179c-0.686 0-1.242-0.556-1.242-1.242v-1.885c0-0.686 0.556-1.242 1.242-1.242h0.757v-0.567c0-0.953 0.773-1.726 1.726-1.726h0.793c0.953 0 1.726 0.773 1.726 1.726v0.567h1.1l1.035-1.595c0.229-0.353 0.621-0.566 1.042-0.566h2.026l6.457-8.872c-0.186-0.439-0.29-0.922-0.29-1.429 0-0.269 0.029-0.532 0.084-0.784l-5.892-5.892-0.831 0.831c0.813 2.462 0.302 5.181-1.533 7.016-0.328 0.328-0.691 0.619-1.083 0.87-0.491 0.314-1.135 0.244-1.547-0.168l-1.777-1.777-0.38 0.38c-0.657 0.657-1.547 1.026-2.476 1.026s-1.82-0.369-2.476-1.026l-0-0c-0.657-0.657-1.026-1.547-1.026-2.476s0.369-1.82 1.026-2.476l0.38-0.38-1.777-1.777c-0.412-0.412-0.482-1.056-0.168-1.547 0.251-0.393 0.542-0.755 0.87-1.083 1.835-1.835 4.554-2.346 7.016-1.533zM21.98 26.236h-8.001l-1.402 2.161h-6.776v1.885h16.179zM9.56 27.156v-0.567c0-0.267-0.217-0.484-0.484-0.484h-0.793c-0.267 0-0.484 0.217-0.484 0.484v0.567zM23.194 17.229l-5.652 7.766h1.782l5.052-6.941c-0.448-0.195-0.849-0.477-1.182-0.824zM25.837 12.272c1.336 0 2.422 1.085 2.422 2.422s-1.085 2.422-2.422 2.422c-1.337 0-2.422-1.085-2.422-2.422s1.085-2.422 2.422-2.422zM12.249 15.687c0.316-0.202 0.609-0.437 0.873-0.702 2.196-2.195 2.033-5.923-0.362-8.318s-6.122-2.557-8.318-0.362c-0.265 0.265-0.5 0.557-0.702 0.873zM5.519 10.713l-0.38 0.38c-0.424 0.424-0.662 0.999-0.662 1.598s0.238 1.174 0.662 1.598l0 0c0.424 0.424 0.999 0.662 1.598 0.662s1.174-0.238 1.598-0.662l0.38-0.38-1.159-1.159-0.395 0.395c-0.242 0.242-0.636 0.242-0.878 0s-0.242-0.636 0-0.878l0.395-0.395zM18.239 6.096c-0.095 0.125-0.199 0.245-0.312 0.357l-0.684 0.684 5.537 5.536c0.267-0.404 0.613-0.752 1.015-1.023zM15.005 7.62l2.044-2.044c0.424-0.424 0.662-0.999 0.662-1.598s-0.238-1.174-0.662-1.598c-0-0-0-0-0-0.001-0.424-0.424-0.999-0.662-1.598-0.662s-1.175 0.238-1.598 0.662l-2.044 2.044c0.653 0.352 1.272 0.808 1.83 1.366s1.014 1.177 1.366 1.831z"></path>
</svg>
