<svg clip-rule="evenodd" fill-rule="evenodd" height="512" stroke-linejoin="round" stroke-miterlimit="2" viewBox="0 0 101 101" width="512" xmlns="http://www.w3.org/2000/svg"><path d="m22.636 29.411v-23.991c0-2.165 1.755-3.92 3.92-3.92h6.997c2.165 0 3.92 1.755 3.92 3.92v16.562c1.768.459 3.441 1.381 4.826 2.766l23.04 23.041c.453.453.772.988.957 1.558l19.693 2.43c1.487.184 2.74 1.199 3.227 2.615.487 1.417.124 2.988-.935 4.047l-39.912 39.912c-1.059 1.06-2.63 1.423-4.047.935-1.417-.487-2.432-1.739-2.615-3.226l-2.43-19.694c-.57-.185-1.106-.504-1.559-.956 0 0-13.524-13.525-23.04-23.041-4.142-4.142-4.142-10.857 0-14.999zm42.835 23.784c-.043.047-.087.093-.132.138l-22.077 22.077c-.045.045-.091.089-.137.131l2.472 20.038 39.912-39.911zm-27.998-27.078v11.933c0 4.096-3.321 7.416-7.417 7.416h-.004c-4.096 0-7.416-3.32-7.416-7.416v-3.095l-5.187 5.187c-2.611 2.611-2.611 6.844 0 9.455 9.517 9.516 23.041 23.041 23.041 23.041l22.078-22.077s-13.525-13.525-23.041-23.041c-.61-.61-1.309-1.078-2.054-1.403zm2.25 23.524 7.824 7.824c.765.765 2.007.765 2.772 0s.765-2.007 0-2.772l-7.824-7.824c-.765-.765-2.007-.765-2.772 0s-.765 2.007 0 2.772zm5.404-5.404 7.824 7.824c.765.765 2.007.765 2.772 0s.765-2.007 0-2.772l-7.824-7.824c-.765-.765-2.007-.765-2.772 0s-.765 2.007 0 2.772zm-11.574-38.817h-6.997v32.63c0 1.931 1.565 3.496 3.496 3.496h.004c1.931 0 3.497-1.565 3.497-3.496z"/></svg>