<!-- Generated by IcoMoon.io -->
<svg version="1.1" xmlns="http://www.w3.org/2000/svg" width="32" height="32" viewBox="0 0 32 32">
<title>spotlight</title>
<path d="M7.172 9.318v-7.601c0-0.686 0.556-1.242 1.242-1.242h2.217c0.686 0 1.242 0.556 1.242 1.242v5.247c0.56 0.145 1.090 0.438 1.529 0.876l7.3 7.3c0.144 0.144 0.245 0.313 0.303 0.494l6.239 0.77c0.471 0.058 0.868 0.38 1.022 0.829s0.039 0.947-0.296 1.282l-12.645 12.645c-0.336 0.336-0.833 0.451-1.282 0.296s-0.771-0.551-0.829-1.022l-0.77-6.24c-0.181-0.059-0.35-0.16-0.494-0.303 0 0-4.285-4.285-7.3-7.3-1.312-1.312-1.312-3.44 0-4.752zM20.743 16.854c-0.014 0.015-0.028 0.029-0.042 0.044l-6.995 6.995c-0.014 0.014-0.029 0.028-0.043 0.041l0.783 6.349 12.645-12.645zM11.873 8.275v3.781c0 1.298-1.052 2.35-2.35 2.35h-0.001c-1.298 0-2.35-1.052-2.35-2.35v-0.981l-1.643 1.643c-0.827 0.827-0.827 2.168 0 2.996 3.015 3.015 7.3 7.3 7.3 7.3l6.995-6.995s-4.285-4.285-7.3-7.3c-0.193-0.193-0.415-0.342-0.651-0.444zM12.585 15.728l2.479 2.479c0.242 0.242 0.636 0.242 0.878 0s0.242-0.636 0-0.878l-2.479-2.479c-0.242-0.242-0.636-0.242-0.878 0s-0.242 0.636 0 0.878zM14.298 14.016l2.479 2.479c0.242 0.242 0.636 0.242 0.878 0s0.242-0.636 0-0.878l-2.479-2.479c-0.242-0.242-0.636-0.242-0.878 0s-0.242 0.636 0 0.878zM10.631 1.717h-2.217v10.338c0 0.612 0.496 1.108 1.108 1.108h0.001c0.612 0 1.108-0.496 1.108-1.108z"></path>
</svg>
