<svg clip-rule="evenodd" fill-rule="evenodd" height="512" stroke-linejoin="round" stroke-miterlimit="2" viewBox="0 0 101 101" width="512" xmlns="http://www.w3.org/2000/svg"><path d="m8.983 27.886v17.998c-6.166 6.733-5.989 17.192.53 23.711l14.545 14.545c1.196 1.196 3.024 1.49 4.535.73.007-.004.018-.01.022-.011 3.629-1.854 7.751-4.871 11.654-8.774 3.904-3.904 6.921-8.027 8.775-11.657.773-1.513.483-3.353-.719-4.554 0 0-12.59-12.591-14.545-14.546-3.302-3.302-7.615-4.977-11.944-5.024v-12.418h34.187v17.998c-6.166 6.733-5.989 17.192.53 23.711l14.545 14.545c1.196 1.196 3.024 1.49 4.535.73.007-.004.018-.01.022-.011 3.629-1.854 7.751-4.871 11.654-8.774 3.904-3.904 6.921-8.027 8.775-11.657.773-1.513.483-3.353-.719-4.554 0 0-12.59-12.591-14.545-14.546-3.302-3.302-7.615-4.977-11.944-5.024v-12.418h26.704c2.165 0 3.92-1.755 3.92-3.92v-4.335c0-2.165-1.755-3.92-3.92-3.92h-90.16c-2.165 0-3.92 1.755-3.92 3.92v4.335c0 2.165 1.755 3.92 3.92 3.92h3.563zm36.57 34.759s-12.59-12.59-14.545-14.545c-5.17-5.17-13.552-5.17-18.721 0-.001.001-.002.001-.002.002-5.17 5.17-5.17 13.552 0 18.721l14.545 14.545h.001c3.326-1.699 7.09-4.479 10.666-8.055 3.577-3.577 6.357-7.342 8.056-10.668zm47.04 0s-12.59-12.59-14.545-14.545c-5.17-5.17-13.552-5.17-18.721 0-.001.001-.002.001-.002.002-5.17 5.17-5.17 13.552 0 18.721l14.545 14.545h.001c3.326-1.699 7.09-4.479 10.666-8.055 3.577-3.577 6.357-7.342 8.056-10.668zm-66.987-1.224c-2.881 2.881-4.586 6.108-4.93 8.247-.353 2.195.329 3.872 1.437 4.981 1.109 1.108 2.786 1.79 4.981 1.437 2.139-.344 5.366-2.049 8.247-4.93 2.88-2.88 4.585-6.107 4.929-8.246.353-2.196-.328-3.873-1.437-4.981-1.108-1.109-2.785-1.79-4.981-1.437-2.139.344-5.366 2.049-8.246 4.929zm47.04 0c-2.881 2.881-4.586 6.108-4.93 8.247-.353 2.195.329 3.872 1.437 4.981 1.109 1.108 2.786 1.79 4.981 1.437 2.139-.344 5.366-2.049 8.247-4.93 2.88-2.88 4.585-6.107 4.929-8.246.353-2.196-.328-3.873-1.437-4.981-1.108-1.109-2.785-1.79-4.981-1.437-2.139.344-5.366 2.049-8.246 4.929zm-44.268 2.772c3.084-3.084 6.527-4.649 7.683-3.492 1.157 1.156-.408 4.599-3.492 7.683-3.084 3.085-6.527 4.649-7.684 3.493-1.156-1.157.409-4.6 3.493-7.684zm47.04 0c3.084-3.084 6.527-4.649 7.683-3.492 1.157 1.156-.408 4.599-3.492 7.683-3.084 3.085-6.527 4.649-7.684 3.493-1.156-1.157.409-4.6 3.493-7.684zm-57.502-23.482v-12.825h-5.013v14.807c1.576-.934 3.27-1.595 5.013-1.982zm47.04 0v-12.825h-5.013v14.807c1.576-.934 3.27-1.595 5.013-1.982zm30.624-21.08h-90.16v4.335h90.16z"/></svg>