<!-- Generated by IcoMoon.io -->
<svg version="1.1" xmlns="http://www.w3.org/2000/svg" width="32" height="32" viewBox="0 0 32 32">
<title>theatre</title>
<path d="M2.846 8.835h-1.129c-0.686 0-1.242-0.556-1.242-1.242v-1.373c0-0.686 0.556-1.242 1.242-1.242h28.566c0.686 0 1.242 0.556 1.242 1.242v1.373c0 0.686-0.556 1.242-1.242 1.242h-8.461v3.934c1.372 0.015 2.738 0.546 3.784 1.592 0.619 0.619 4.608 4.609 4.608 4.609 0.381 0.381 0.473 0.963 0.228 1.443-0.587 1.15-1.543 2.456-2.78 3.693s-2.543 2.192-3.692 2.78c-0.001 0-0.005 0.002-0.007 0.003-0.479 0.241-1.058 0.148-1.437-0.231l-4.608-4.608c-2.065-2.065-2.122-5.379-0.168-7.512v-5.702h-10.832v3.934c1.372 0.015 2.738 0.546 3.784 1.592 0.619 0.619 4.608 4.609 4.608 4.609 0.381 0.381 0.473 0.963 0.228 1.443-0.587 1.15-1.543 2.456-2.78 3.693s-2.543 2.192-3.692 2.78c-0.001 0-0.005 0.002-0.007 0.003-0.479 0.241-1.058 0.148-1.437-0.231l-4.608-4.608c-2.065-2.065-2.122-5.379-0.168-7.512v-5.702zM14.433 19.848s-3.989-3.989-4.608-4.608c-1.638-1.638-4.294-1.638-5.931 0-0 0-0.001 0-0.001 0.001-1.638 1.638-1.638 4.294 0 5.931l4.609 4.608c1.054-0.538 2.246-1.419 3.379-2.552s2.014-2.326 2.552-3.38zM29.336 19.848s-3.989-3.989-4.608-4.608c-1.638-1.638-4.294-1.638-5.931 0-0 0-0.001 0-0.001 0.001-1.638 1.638-1.638 4.294 0 5.931l4.609 4.608c1.054-0.538 2.246-1.419 3.379-2.552s2.014-2.326 2.552-3.38zM8.113 19.46c-0.913 0.913-1.453 1.935-1.562 2.613-0.112 0.695 0.104 1.227 0.455 1.578s0.883 0.567 1.578 0.455c0.678-0.109 1.7-0.649 2.613-1.562s1.453-1.935 1.562-2.613c0.112-0.696-0.104-1.227-0.455-1.578s-0.882-0.567-1.578-0.455c-0.678 0.109-1.7 0.649-2.613 1.562zM23.017 19.46c-0.913 0.913-1.453 1.935-1.562 2.613-0.112 0.695 0.104 1.227 0.455 1.578s0.883 0.567 1.578 0.455c0.678-0.109 1.7-0.649 2.613-1.562s1.453-1.935 1.562-2.613c0.112-0.696-0.104-1.227-0.455-1.578s-0.882-0.567-1.578-0.455c-0.678 0.109-1.7 0.649-2.613 1.562zM8.991 20.338c0.977-0.977 2.068-1.473 2.434-1.106s-0.129 1.457-1.106 2.434c-0.977 0.977-2.068 1.473-2.435 1.107s0.13-1.457 1.107-2.435zM23.895 20.338c0.977-0.977 2.068-1.473 2.434-1.106s-0.129 1.457-1.106 2.434c-0.977 0.977-2.068 1.473-2.435 1.107s0.13-1.457 1.107-2.435zM5.676 12.899v-4.063h-1.588v4.691c0.499-0.296 1.036-0.505 1.588-0.628zM20.58 12.899v-4.063h-1.588v4.691c0.499-0.296 1.036-0.505 1.588-0.628zM30.283 6.22h-28.566v1.373h28.566z"></path>
</svg>
