<svg clip-rule="evenodd" fill-rule="evenodd" height="512" stroke-linejoin="round" stroke-miterlimit="2" viewBox="0 0 101 101" width="512" xmlns="http://www.w3.org/2000/svg"><path d="m48.483 52.46v-49.002c0-1.081.877-1.958 1.957-1.958 1.081 0 1.958.877 1.958 1.958v49.002c3.033.849 5.258 3.633 5.258 6.938v6.958c5.981 2.741 10.14 8.783 10.14 15.788 0 9.579-7.777 17.356-17.356 17.356s-17.356-7.777-17.356-17.356c0-7.005 4.159-13.047 10.141-15.788v-6.958c0-3.305 2.224-6.089 5.258-6.938zm1.957 16.243c7.418 0 13.441 6.023 13.441 13.441s-6.023 13.441-13.441 13.441-13.441-6.023-13.441-13.441 6.023-13.441 13.441-13.441zm-33.448-45.607v-19.638c0-1.081.877-1.958 1.957-1.958 1.081 0 1.958.877 1.958 1.958v19.638c3.033.849 5.258 3.633 5.258 6.938v6.958c5.981 2.741 10.14 8.783 10.14 15.788 0 9.579-7.777 17.356-17.356 17.356s-17.356-7.777-17.356-17.356c0-7.005 4.159-13.047 10.141-15.788v-6.958c0-3.305 2.224-6.089 5.258-6.938zm63.102 0v-19.638c0-1.081.877-1.958 1.957-1.958 1.081 0 1.958.877 1.958 1.958v19.638c3.033.849 5.258 3.633 5.258 6.938v6.958c5.981 2.741 10.14 8.783 10.14 15.788 0 9.579-7.777 17.356-17.356 17.356s-17.356-7.777-17.356-17.356c0-7.005 4.159-13.047 10.141-15.788v-6.958c0-3.305 2.224-6.089 5.258-6.938zm-61.145 16.243c7.418 0 13.441 6.023 13.441 13.441s-6.023 13.441-13.441 13.441-13.441-6.023-13.441-13.441 6.023-13.441 13.441-13.441zm63.102 0c7.418 0 13.441 6.023 13.441 13.441s-6.023 13.441-13.441 13.441-13.441-6.023-13.441-13.441 6.023-13.441 13.441-13.441zm-28.311 25.763v-5.704c0-1.817-1.472-3.289-3.289-3.289h-.022c-1.817 0-3.289 1.472-3.289 3.289v5.704c1.068-.206 2.172-.314 3.3-.314 1.129 0 2.232.108 3.3.314zm-34.583-38.352c-.069.008-.138.011-.208.011s-.139-.003-.207-.011c-1.726.102-3.093 1.533-3.093 3.284v5.704c1.068-.206 2.172-.314 3.3-.314 1.129 0 2.232.108 3.3.314v-5.704c0-1.751-1.367-3.182-3.092-3.284zm66.194 8.988v-5.704c0-1.817-1.472-3.289-3.288-3.289h-.023c-1.816 0-3.289 1.472-3.289 3.289v5.704c1.068-.206 2.172-.314 3.3-.314 1.129 0 2.232.108 3.3.314z"/></svg>