<?xml version="1.0" encoding="utf-8"?>
<!-- Generator: Adobe Illustrator 25.2.3, SVG Export Plug-In . SVG Version: 6.00 Build 0)  -->
<svg version="1.1" id="Layer_1" xmlns="http://www.w3.org/2000/svg" xmlns:xlink="http://www.w3.org/1999/xlink" x="0px" y="0px"
	 width="512px" height="512px" viewBox="0 0 512 512" style="enable-background:new 0 0 512 512;" xml:space="preserve">
<path d="M292.3,336.4v-35.3c0-16.4-10.9-30.7-26.7-35.2V17.5c-0.1-5.3-4.4-9.6-9.7-9.7c-5.5-0.1-10,4.2-10.1,9.7v248.4h0
	c-15.8,4.4-26.7,18.8-26.7,35.2v35.3c-30.3,13.9-51.4,44.5-51.4,80c0,48.6,39.4,88,88,88s88-39.4,88-88
	C343.7,380.9,322.6,350.3,292.3,336.4z M239,301.1C239,301.1,239,301.1,239,301.1c0-9.2,7.5-16.7,16.7-16.7h0.1c0,0,0,0,0,0
	c9.2,0,16.7,7.5,16.7,16.7V330c-5.4-1-11-1.6-16.7-1.6c-5.6,0-11.2,0.5-16.7,1.6V301.1z M255.7,484.6c-37.6,0-68.1-30.5-68.1-68.1
	c0-37.6,30.5-68.1,68.1-68.1l0,0c37.6,0,68.1,30.5,68.1,68.1S293.3,484.6,255.7,484.6z M132.6,187.5v-35.3
	c0-16.4-10.9-30.7-26.7-35.2V17.5c-0.1-5.3-4.4-9.6-9.7-9.7c-5.5-0.1-10,4.2-10.1,9.7v99.6c-15.8,4.4-26.7,18.8-26.7,35.2v35.3
	c-30.3,13.9-51.4,44.5-51.4,80c0,48.6,39.4,88,88,88s88-39.4,88-88C184,232,163,201.4,132.6,187.5z M79.3,152.3
	c0-8.8,6.9-16.1,15.7-16.6c0.7,0.1,1.4,0.1,2.1,0c0,0,0,0,0,0h0c0,0,0,0,0,0c8.8,0.5,15.7,7.8,15.7,16.6v28.9
	c-5.4-1-11-1.6-16.7-1.6c-5.6,0-11.2,0.5-16.7,1.6V152.3z M96.1,335.7c-37.6,0-68.1-30.5-68.1-68.1c0-37.6,30.5-68.1,68.1-68.1h0
	c37.6,0,68.1,30.5,68.1,68.1C164.2,305.2,133.7,335.7,96.1,335.7z M452.5,187.5v-35.3c0-16.4-10.9-30.7-26.6-35.2V17.5
	c-0.1-5.3-4.4-9.6-9.7-9.7c-5.5-0.1-10,4.2-10.1,9.7v99.6h0c-15.8,4.4-26.7,18.8-26.7,35.2v35.3c-30.3,13.9-51.4,44.5-51.4,80
	c0,48.6,39.4,88,88,88s88-39.4,88-88C503.9,232,482.8,201.4,452.5,187.5z M399.2,152.3L399.2,152.3c0-9.2,7.5-16.7,16.7-16.7h0.1
	c0,0,0,0,0,0c9.2,0,16.7,7.5,16.7,16.7v28.9c-5.4-1-11-1.6-16.7-1.6c-5.6,0-11.2,0.5-16.7,1.6V152.3z M415.9,335.7
	c-37.6,0-68.1-30.5-68.1-68.1c0-37.6,30.5-68.1,68.1-68.1c37.6,0,68.1,30.5,68.1,68.1C484.1,305.2,453.5,335.7,415.9,335.7z
	 M97.1,135.6C97.1,135.6,97.1,135.6,97.1,135.6C97.1,135.6,97.1,135.6,97.1,135.6L97.1,135.6z"/>
</svg>
