<svg clip-rule="evenodd" fill-rule="evenodd" height="512" stroke-linejoin="round" stroke-miterlimit="2" viewBox="0 0 101 101" width="512" xmlns="http://www.w3.org/2000/svg"><path d="m48.54 86.398v11.142c0 1.082.878 1.96 1.96 1.96s1.96-.878 1.96-1.96v-11.142c0-1.082-.878-1.96-1.96-1.96s-1.96.878-1.96 1.96zm-21.737-3.073-2.138 10.936c-.207 1.061.486 2.092 1.548 2.299 1.062.208 2.092-.486 2.3-1.547l2.137-10.936c.208-1.062-.485-2.092-1.547-2.3-1.062-.207-2.092.486-2.3 1.548zm43.547.752 2.138 10.936c.207 1.061 1.238 1.755 2.299 1.547 1.062-.207 1.755-1.238 1.548-2.299l-2.138-10.936c-.207-1.062-1.238-1.755-2.3-1.548-1.061.208-1.755 1.238-1.547 2.3zm-65.981-37.003c-.09-.737-.135-1.48-.135-2.228 0-10.339 8.999-19.877 23.202-24.852 3.854-1.398 6.422-5.059 6.422-9.161 0-.028 0-.056.001-.084.063-2.924.063-5.329.063-5.329 0-2.165 1.755-3.92 3.92-3.92h25.317c2.165 0 3.92 1.755 3.92 3.92v5.413c0 4.13 2.586 7.816 6.467 9.222 14.219 4.906 23.22 14.449 23.22 24.791 0 .748-.045 1.491-.134 2.228.452 1.545.684 3.127.684 4.731 0 6.248-3.522 12.163-9.875 16.847-8.34 6.15-21.768 10.263-36.941 10.263s-28.601-4.113-36.941-10.263c-6.353-4.684-9.875-10.599-9.875-16.847 0-1.604.232-3.186.685-4.731zm46.131-18.46c23.675 0 42.896 10.391 42.896 23.191 0 12.799-19.221 23.19-42.896 23.19s-42.896-10.391-42.896-23.19c0-12.8 19.221-23.191 42.896-23.191zm-27.037 24.948c-2.754.643-4.789 2.328-5.665 3.938-.695 1.276-.86 2.614-.563 3.886.296 1.271 1.036 2.398 2.224 3.235 1.498 1.057 4.068 1.668 6.822 1.025 2.755-.642 4.79-2.327 5.666-3.937.695-1.276.859-2.614.563-3.886-.297-1.272-1.036-2.398-2.224-3.236-1.498-1.056-4.068-1.667-6.823-1.025zm54.07.005c-2.751-.641-5.318-.029-6.814 1.027-1.186.837-1.925 1.964-2.221 3.235-.295 1.271-.13 2.608.565 3.883.876 1.607 2.909 3.29 5.66 3.93s5.318.028 6.814-1.027c1.187-.838 1.925-1.964 2.221-3.235s.13-2.608-.564-3.883c-.876-1.608-2.91-3.29-5.661-3.93zm-53.18 3.813c2.109-.492 4.053.106 4.339 1.334.287 1.227-1.193 2.623-3.301 3.115s-4.052-.106-4.339-1.334c-.286-1.228 1.193-2.623 3.301-3.115zm52.292.005c-2.104-.49-4.044.107-4.329 1.332s1.192 2.618 3.296 3.107c2.103.49 4.043-.107 4.328-1.333.285-1.225-1.192-2.617-3.295-3.106zm-26.145-15.746c-4.972 0-9.349 1.242-12.082 3.121-2.685 1.845-4.053 4.324-4.053 7.027 0 2.696 1.364 5.18 4.043 7.033 2.736 1.892 7.116 3.151 12.092 3.151s9.357-1.259 12.092-3.151c2.679-1.853 4.043-4.337 4.043-7.033 0-2.703-1.367-5.182-4.053-7.027-2.733-1.879-7.11-3.121-12.082-3.121zm0 3.9c6.753 0 12.235 2.512 12.235 6.248s-5.482 6.284-12.235 6.284-12.235-2.548-12.235-6.284 5.482-6.248 12.235-6.248zm-27.034-7.577c-2.755.641-4.79 2.325-5.667 3.935-.696 1.276-.861 2.613-.565 3.885s1.035 2.399 2.222 3.237c1.498 1.057 4.068 1.67 6.822 1.029 2.755-.641 4.791-2.326 5.668-3.935.695-1.276.861-2.614.565-3.886s-1.035-2.399-2.223-3.237c-1.497-1.057-4.067-1.669-6.822-1.028zm54.068 0c-2.754-.641-5.325-.029-6.822 1.028-1.187.838-1.926 1.965-2.222 3.237s-.131 2.61.565 3.886c.877 1.609 2.912 3.294 5.667 3.935s5.325.028 6.822-1.029c1.187-.838 1.926-1.965 2.222-3.237s.131-2.609-.564-3.885c-.877-1.61-2.913-3.294-5.668-3.935zm-.888 3.818c-2.109-.491-4.053.108-4.338 1.336-.286 1.228 1.194 2.623 3.302 3.114 2.109.49 4.053-.108 4.338-1.336.286-1.228-1.194-2.623-3.302-3.114zm-52.291 0c2.108-.491 4.052.108 4.338 1.336.285 1.228-1.195 2.623-3.303 3.114-2.109.49-4.052-.108-4.338-1.336s1.194-2.623 3.303-3.114zm67.016-3.403c-2.897-6.206-9.862-11.434-19.134-14.627-5.447-1.961-9.078-7.128-9.078-12.917v-5.413h-25.317s0 2.443-.064 5.413c0 5.762-3.615 10.906-9.036 12.857-9.257 3.238-16.219 8.478-19.114 14.689 1.155-1.199 2.468-2.343 3.931-3.422 8.34-6.15 21.768-10.263 36.941-10.263s28.601 4.113 36.941 10.263c1.463 1.078 2.775 2.222 3.93 3.42z"/></svg>