<!-- Generated by IcoMoon.io -->
<svg version="1.1" xmlns="http://www.w3.org/2000/svg" width="32" height="32" viewBox="0 0 32 32">
<title>surgery</title>
<path d="M15.379 27.374c0-0.343 0.278-0.621 0.621-0.621s0.621 0.278 0.621 0.621v3.53c0 0.343-0.278 0.621-0.621 0.621s-0.621-0.278-0.621-0.621v-3.53zM8.492 26.4c0.066-0.336 0.392-0.556 0.729-0.49s0.556 0.392 0.49 0.729l-0.677 3.465c-0.066 0.336-0.392 0.556-0.729 0.49s-0.556-0.392-0.49-0.728l0.677-3.465zM22.289 26.638c-0.066-0.336 0.154-0.663 0.49-0.729s0.663 0.154 0.729 0.49l0.677 3.465c0.066 0.336-0.154 0.663-0.49 0.728s-0.663-0.154-0.728-0.49l-0.677-3.465zM1.384 14.915c-0.028-0.233-0.043-0.469-0.043-0.706 0-3.276 2.851-6.298 7.351-7.874 1.221-0.443 2.035-1.603 2.035-2.902 0-0.009 0-0.018 0-0.027 0.020-0.926 0.020-1.688 0.020-1.688 0-0.686 0.556-1.242 1.242-1.242h8.021c0.686 0 1.242 0.556 1.242 1.242v1.715c0 1.309 0.819 2.476 2.049 2.922 4.505 1.554 7.357 4.578 7.357 7.855 0 0.237-0.014 0.472-0.042 0.706 0.143 0.489 0.217 0.991 0.217 1.499 0 1.98-1.116 3.854-3.129 5.338-2.642 1.948-6.897 3.252-11.704 3.252s-9.062-1.303-11.704-3.252c-2.013-1.484-3.129-3.358-3.129-5.338 0-0.508 0.073-1.009 0.217-1.499zM16 9.066c-7.501 0-13.591 3.292-13.591 7.348s6.090 7.347 13.591 7.347 13.591-3.292 13.591-7.347c0-4.055-6.090-7.348-13.591-7.348zM7.434 16.97c0.873-0.203 1.687-0.010 2.162 0.325 0.376 0.265 0.611 0.622 0.705 1.025s0.042 0.827-0.178 1.231c-0.278 0.51-0.922 1.044-1.795 1.247s-1.687 0.010-2.161-0.325c-0.376-0.265-0.611-0.622-0.705-1.025s-0.042-0.827 0.178-1.231c0.278-0.51 0.922-1.044 1.795-1.248zM24.565 16.972c-0.872-0.203-1.685-0.009-2.159 0.325-0.376 0.265-0.61 0.622-0.704 1.025s-0.041 0.826 0.179 1.23c0.278 0.509 0.922 1.042 1.793 1.245s1.685 0.009 2.159-0.325c0.376-0.265 0.61-0.622 0.704-1.025s0.041-0.826-0.179-1.23c-0.278-0.509-0.922-1.042-1.794-1.245zM7.716 18.18c-0.668 0.156-1.136 0.598-1.046 0.987s0.707 0.579 1.375 0.423 1.137-0.598 1.046-0.987c-0.091-0.389-0.707-0.579-1.375-0.423zM24.284 18.181c-0.667-0.155-1.281 0.034-1.372 0.422s0.378 0.829 1.044 0.984c0.666 0.155 1.281-0.034 1.371-0.422s-0.378-0.829-1.044-0.984zM16 13.193c-1.575 0-2.962 0.393-3.828 0.989-0.851 0.585-1.284 1.37-1.284 2.226 0 0.854 0.432 1.641 1.281 2.228 0.867 0.599 2.255 0.998 3.831 0.998s2.965-0.399 3.831-0.998c0.849-0.587 1.281-1.374 1.281-2.228 0-0.856-0.433-1.642-1.284-2.226-0.866-0.595-2.253-0.989-3.828-0.989zM16 14.428c2.14 0 3.876 0.796 3.876 1.98s-1.737 1.991-3.876 1.991-3.876-0.807-3.876-1.991 1.737-1.98 3.876-1.98zM7.435 12.028c0.873-0.203 1.687-0.009 2.161 0.326 0.376 0.265 0.611 0.623 0.704 1.026s0.041 0.827-0.179 1.231c-0.278 0.51-0.923 1.044-1.796 1.247s-1.687 0.009-2.161-0.326c-0.376-0.265-0.61-0.623-0.704-1.026s-0.042-0.827 0.179-1.231c0.278-0.51 0.923-1.044 1.795-1.247zM24.565 12.028c-0.873-0.203-1.687-0.009-2.161 0.326-0.376 0.265-0.61 0.623-0.704 1.026s-0.041 0.827 0.179 1.231c0.278 0.51 0.923 1.044 1.796 1.247s1.687 0.009 2.161-0.326c0.376-0.265 0.61-0.623 0.704-1.026s0.041-0.827-0.179-1.231c-0.278-0.51-0.923-1.044-1.796-1.247zM24.284 13.237c-0.668-0.156-1.284 0.034-1.374 0.423s0.378 0.831 1.046 0.987c0.668 0.155 1.284-0.034 1.374-0.423s-0.378-0.831-1.046-0.987zM7.716 13.237c0.668-0.156 1.284 0.034 1.374 0.423s-0.379 0.831-1.046 0.987c-0.668 0.155-1.284-0.034-1.374-0.423s0.378-0.831 1.046-0.987zM28.949 12.159c-0.918-1.966-3.125-3.623-6.062-4.634-1.726-0.621-2.876-2.258-2.876-4.093v-1.715h-8.021s0 0.774-0.020 1.715c0 1.826-1.145 3.455-2.863 4.074-2.933 1.026-5.139 2.686-6.056 4.654 0.366-0.38 0.782-0.742 1.245-1.084 2.642-1.948 6.897-3.252 11.704-3.252s9.062 1.303 11.704 3.252c0.464 0.342 0.879 0.704 1.245 1.084z"></path>
</svg>
