<!-- Generated by IcoMoon.io -->
<svg version="1.1" xmlns="http://www.w3.org/2000/svg" width="32" height="32" viewBox="0 0 32 32">
<title>car-light</title>
<path d="M23.874 26.591c0 0.543-0.353 1.023-0.872 1.185-1.949 0.609-4.038 0.924-6.148 0.924-9.121 0-16.379-5.797-16.379-12.7s7.259-12.7 16.379-12.7c2.109 0 4.198 0.315 6.148 0.924 0.519 0.162 0.872 0.642 0.872 1.185zM18.127 4.582c-0.423-0.027-0.847-0.041-1.272-0.041-8.355 0-15.137 5.134-15.137 11.459s6.783 11.458 15.137 11.458c0.425 0 0.85-0.014 1.272-0.041v-22.836zM19.369 4.701v22.599c1.116-0.143 2.211-0.38 3.263-0.708v-21.182c-1.052-0.328-2.146-0.565-3.263-0.708zM26.321 24.572l4.422 1.185c0.331 0.089 0.672-0.108 0.76-0.439s-0.108-0.672-0.439-0.76l-4.422-1.185c-0.331-0.089-0.672 0.108-0.761 0.439s0.108 0.672 0.439 0.76zM26.321 19.258l4.422 1.185c0.331 0.089 0.672-0.108 0.76-0.439s-0.108-0.672-0.439-0.76l-4.422-1.185c-0.331-0.089-0.672 0.108-0.761 0.439s0.108 0.672 0.439 0.761zM26.321 13.943l4.422 1.185c0.331 0.089 0.672-0.108 0.76-0.439s-0.108-0.672-0.439-0.761l-4.422-1.185c-0.331-0.089-0.672 0.108-0.761 0.439s0.108 0.672 0.439 0.761zM26.321 8.629l4.422 1.185c0.331 0.089 0.672-0.108 0.76-0.439s-0.108-0.672-0.439-0.76l-4.422-1.185c-0.331-0.089-0.672 0.108-0.761 0.439s0.108 0.672 0.439 0.76z"></path>
</svg>
