<svg clip-rule="evenodd" fill-rule="evenodd" height="512" stroke-linejoin="round" stroke-miterlimit="2" viewBox="0 0 101 101" width="512" xmlns="http://www.w3.org/2000/svg"><path d="m75.351 17.072c0-1.714-1.114-3.23-2.751-3.741-6.153-1.923-12.745-2.916-19.403-2.916-28.787 0-51.697 18.295-51.697 40.086 0 21.789 22.91 40.085 51.697 40.085 6.658 0 13.25-.993 19.403-2.916 1.637-.511 2.751-2.027 2.751-3.741zm-18.138-2.609c-1.334-.085-2.673-.128-4.016-.128-26.369 0-47.777 16.205-47.777 36.166 0 19.96 21.408 36.164 47.777 36.164 1.343 0 2.682-.043 4.016-.128v-72.075zm3.92.375v71.327c3.524-.451 6.979-1.198 10.298-2.236v-66.857c-3.319-1.036-6.773-1.784-10.298-2.234zm21.942 62.717 13.958 3.739c1.044.28 2.12-.341 2.4-1.386s-.341-2.12-1.386-2.4l-13.957-3.74c-1.045-.28-2.121.341-2.401 1.386s.341 2.12 1.386 2.4zm0-16.773 13.958 3.739c1.044.28 2.12-.341 2.4-1.386.28-1.044-.341-2.12-1.386-2.4l-13.957-3.74c-1.045-.28-2.121.341-2.401 1.386s.341 2.121 1.386 2.401zm0-16.774 13.958 3.74c1.044.28 2.12-.341 2.4-1.386s-.341-2.121-1.386-2.401l-13.957-3.739c-1.045-.28-2.121.341-2.401 1.385-.28 1.045.341 2.121 1.386 2.401zm0-16.774 13.958 3.74c1.044.28 2.12-.341 2.4-1.386s-.341-2.12-1.386-2.4l-13.957-3.74c-1.045-.28-2.121.341-2.401 1.386s.341 2.12 1.386 2.4z"/></svg>