<?xml version="1.0" encoding="utf-8"?>
<!-- Generator: Adobe Illustrator 25.2.3, SVG Export Plug-In . SVG Version: 6.00 Build 0)  -->
<svg version="1.1" id="Layer_1" xmlns="http://www.w3.org/2000/svg" xmlns:xlink="http://www.w3.org/1999/xlink" x="0px" y="0px"
	 width="512px" height="512px" viewBox="0 0 512 512" style="enable-background:new 0 0 512 512;" xml:space="preserve">
<path d="M282.6,364.4v-51.9h23.1v15c0,5.5,4.5,9.9,9.9,9.9c5.5,0,9.9-4.5,9.9-9.9v-49.8c0-5.5-4.5-9.9-9.9-9.9
	c-5.5,0-9.9,4.5-9.9,9.9v15h-23.1v-39.6c55.8-12.2,97.6-61.9,97.6-121.3C380.2,63.2,324.5,7.6,256,7.6S131.8,63.2,131.8,131.8
	c0,59.4,41.8,109.1,97.6,121.3v111.3l-72.1,109.2c-4,6.1-4.4,13.9-0.9,20.4c3.5,6.4,10.2,10.5,17.5,10.5h16c6.7,0,12.9-3.4,16.6-8.9
	l22.9-34.7v23.7c0,11,8.9,19.9,19.9,19.9h13.4c11,0,19.9-8.9,19.9-19.9v-23.7l22.9,34.7c3.7,5.6,9.9,8.9,16.6,8.9h16
	c7.3,0,14-4,17.5-10.5c3.5-6.4,3.1-14.3-0.9-20.4L282.6,364.4z M229.4,424.7L190,484.5h-16l55.5-84.1V424.7z M262.7,484.5h-13.4
	V255.7c2.2,0.1,4.4,0.2,6.7,0.2c2.3,0,4.5-0.1,6.7-0.2V484.5z M256,236c-57.6,0-104.3-46.7-104.3-104.3S198.4,27.5,256,27.5
	c57.6,0,104.3,46.7,104.3,104.3S313.6,236,256,236z M322,484.5l-39.5-59.8l0-24.3l55.5,84.1H322z M256,45.2
	c-47.8,0-86.5,38.8-86.5,86.5s38.8,86.5,86.5,86.5s86.5-38.8,86.5-86.5S303.8,45.2,256,45.2z M256,198.4
	c-36.8,0-66.7-29.9-66.7-66.7s29.9-66.7,66.7-66.7s66.7,29.9,66.7,66.7S292.8,198.4,256,198.4z"/>
</svg>
