<svg clip-rule="evenodd" fill-rule="evenodd" height="512" stroke-linejoin="round" stroke-miterlimit="2" viewBox="0 0 101 101" width="512" xmlns="http://www.w3.org/2000/svg"><path d="m45.26 49.919c-11.002-2.401-19.251-12.209-19.251-23.928 0-13.517 10.974-24.491 24.491-24.491s24.491 10.974 24.491 24.491c0 11.719-8.249 21.527-19.251 23.928v7.808h4.557v-2.955c0-1.082.878-1.96 1.96-1.96s1.96.878 1.96 1.96v9.83c0 1.081-.878 1.96-1.96 1.96s-1.96-.879-1.96-1.96v-2.955h-4.557v10.23l14.221 21.544c.795 1.203.864 2.746.18 4.017-.683 1.27-2.009 2.062-3.452 2.062h-3.163c-1.317 0-2.546-.661-3.272-1.76l-4.514-6.839v4.679c0 2.165-1.755 3.92-3.92 3.92h-2.64c-2.165 0-3.92-1.755-3.92-3.92v-4.679l-4.514 6.839c-.726 1.099-1.955 1.76-3.272 1.76h-3.163c-1.442 0-2.768-.792-3.452-2.062-.683-1.271-.614-2.814.18-4.017l14.221-21.544zm6.56.528c-.436.023-.876.035-1.32.035-.443 0-.884-.012-1.32-.035v45.133h2.64zm3.92 28.546 10.949 16.587h-3.163l-7.786-11.795zm-10.48 0-10.949 16.587h3.163l7.786-11.795zm5.24-73.573c11.354 0 20.571 9.218 20.571 20.571s-9.217 20.571-20.571 20.571c-11.353 0-20.571-9.218-20.571-20.571s9.218-20.571 20.571-20.571zm0 3.499c-9.422 0-17.072 7.65-17.072 17.072s7.65 17.072 17.072 17.072 17.072-7.65 17.072-17.072-7.65-17.072-17.072-17.072zm0 3.92c7.259 0 13.152 5.893 13.152 13.152s-5.893 13.152-13.152 13.152-13.152-5.893-13.152-13.152 5.893-13.152 13.152-13.152z"/></svg>