<!-- Generated by IcoMoon.io -->
<svg version="1.1" xmlns="http://www.w3.org/2000/svg" width="32" height="32" viewBox="0 0 32 32">
<title>chandelier-1</title>
<path d="M15.38 28.21v2.694c0 0.343 0.278 0.621 0.62 0.621s0.62-0.278 0.62-0.621v-2.694c0-0.343-0.278-0.62-0.62-0.62s-0.62 0.278-0.62 0.62zM10.037 26.41l-1.509 2.231c-0.192 0.284-0.117 0.67 0.166 0.861s0.669 0.118 0.861-0.166l1.509-2.231c0.192-0.284 0.117-0.67-0.166-0.861s-0.67-0.118-0.861 0.166zM20.936 27.105l1.509 2.231c0.192 0.284 0.578 0.358 0.862 0.166s0.358-0.578 0.166-0.861l-1.509-2.231c-0.192-0.284-0.578-0.358-0.861-0.166s-0.358 0.578-0.166 0.861zM15.38 7.010v-5.914c0-0.343 0.278-0.62 0.62-0.62s0.62 0.278 0.62 0.62v5.914c4.852 0.319 8.689 4.356 8.689 9.289 0 0.685-0.555 1.241-1.241 1.241h-5.009c0.185 0.558 0.451 1.090 0.791 1.578 0.53 0.758 0.84 1.68 0.84 2.673 0 2.589-2.102 4.691-4.691 4.691s-4.691-2.102-4.691-4.691c0-0.992 0.309-1.913 0.837-2.674 0.34-0.488 0.606-1.019 0.791-1.578h-5.006c-0.685 0-1.241-0.555-1.241-1.241 0-4.933 3.837-8.97 8.689-9.289zM17.764 17.539h-3.53c-0.221 0.814-0.581 1.588-1.069 2.288-0.387 0.557-0.614 1.234-0.614 1.963 0 1.904 1.546 3.45 3.45 3.45s3.45-1.546 3.45-3.45c0-0.729-0.227-1.406-0.616-1.962-0.489-0.7-0.849-1.475-1.070-2.289zM24.068 16.298c0-4.456-3.613-8.068-8.068-8.068s-8.068 3.612-8.068 8.068z"></path>
</svg>
