<!-- Generated by IcoMoon.io -->
<svg version="1.1" xmlns="http://www.w3.org/2000/svg" width="32" height="32" viewBox="0 0 32 32">
<title>bulb</title>
<path d="M11.657 16.224l-0-11.412c0-2.395 1.942-4.336 4.336-4.336h0.014c2.395 0 4.337 1.942 4.337 4.336l-0 11.412h0.381c0.685 0 1.241 0.555 1.241 1.241l-0 3.777c0 1.147-0.456 2.246-1.266 3.057-0.358 0.358-0.772 0.646-1.221 0.857l-0 2.89c0 0.922-0.366 1.807-1.018 2.459s-1.537 1.019-2.459 1.019-1.807-0.366-2.459-1.019c-0.652-0.652-1.019-1.537-1.019-2.459v-2.89c-0.45-0.211-0.863-0.5-1.221-0.857-0.811-0.811-1.266-1.91-1.266-3.057v-3.777c0-0.686 0.555-1.241 1.241-1.241h0.38zM18.236 28.089h-4.472c0.011 0.578 0.245 1.13 0.655 1.54 0.419 0.419 0.988 0.655 1.581 0.655s1.162-0.236 1.582-0.655c0.41-0.41 0.644-0.962 0.655-1.54zM13.764 25.525v1.323h4.473v-1.323c-0.196 0.027-0.394 0.041-0.594 0.041h-3.284c-0.2 0-0.399-0.014-0.595-0.041zM20.724 17.465h-9.448v3.777c0 0.817 0.325 1.602 0.903 2.18s1.362 0.903 2.179 0.903h3.284c0.817 0 1.601-0.325 2.18-0.903s0.903-1.362 0.903-2.18zM19.103 16.224v-11.412c0-1.71-1.386-3.095-3.095-3.095h-0.014c-1.71 0-3.095 1.386-3.095 3.095v11.412h2.482v-11.010c0-0.343 0.278-0.62 0.62-0.62s0.621 0.278 0.621 0.62v11.010z"></path>
</svg>
