<svg clip-rule="evenodd" fill-rule="evenodd" height="512" stroke-linejoin="round" stroke-miterlimit="2" viewBox="0 0 101 101" width="512" xmlns="http://www.w3.org/2000/svg"><path d="m36.791 51.207-.001-36.02c0-7.559 6.128-13.687 13.687-13.687h.045c7.559 0 13.688 6.128 13.688 13.687l-.001 36.02h1.201c2.163 0 3.918 1.753 3.918 3.917l-.001 11.922c.001 3.619-1.438 7.09-3.996 9.649-1.13 1.129-2.437 2.04-3.855 2.706l-.001 9.123c0 2.911-1.156 5.703-3.214 7.761-2.059 2.059-4.851 3.215-7.762 3.215s-5.702-1.156-7.761-3.215c-2.058-2.058-3.215-4.85-3.215-7.761v-9.123c-1.419-.666-2.725-1.577-3.855-2.706-2.559-2.559-3.996-6.03-3.996-9.649v-11.922c0-2.164 1.753-3.917 3.917-3.917h1.201zm20.767 37.448h-14.116c.034 1.825.774 3.568 2.067 4.861 1.324 1.323 3.119 2.067 4.991 2.067 1.873 0 3.668-.744 4.992-2.067 1.293-1.293 2.032-3.036 2.066-4.861zm-14.117-8.093v4.176h14.118v-4.176c-.618.086-1.245.13-1.876.13h-10.365c-.631 0-1.258-.044-1.877-.13zm21.97-25.438h-29.821v11.922c0 2.58 1.025 5.055 2.849 6.879 1.824 1.825 4.299 2.85 6.879 2.85h10.365c2.58 0 5.054-1.025 6.879-2.85 1.824-1.824 2.849-4.299 2.849-6.879zm-5.118-3.917v-36.02c0-5.396-4.374-9.77-9.77-9.77h-.045c-5.396 0-9.77 4.374-9.77 9.77v36.02h7.834v-34.749c0-1.081.877-1.958 1.958-1.958s1.959.877 1.959 1.958v34.749z"/></svg>