<?xml version="1.0" encoding="utf-8"?>
<!-- Generator: Adobe Illustrator 25.2.3, SVG Export Plug-In . SVG Version: 6.00 Build 0)  -->
<svg version="1.1" id="Layer_1" xmlns="http://www.w3.org/2000/svg" xmlns:xlink="http://www.w3.org/1999/xlink" x="0px" y="0px"
	 width="512px" height="512px" viewBox="0 0 512 512" style="enable-background:new 0 0 512 512;" xml:space="preserve">
<path d="M504,143.6c-1.5-5.3-7-8.3-12.3-6.8c-157.1,45.3-314.3,45.1-471.4,0c-5.3-1.5-10.8,1.5-12.3,6.8c-1.5,5.3,1.5,10.8,6.8,12.3
	c26.9,7.7,53.7,14.1,80.6,19.3l-5.7,23c-11.5,1.3-21.6,9.6-24.6,21.5l-6.7,26.7c-17.9,5.5-32.6,20-37.4,39.5
	c-7.4,29.6,10.7,59.7,40.3,67.1s59.7-10.7,67.1-40.3c4.9-19.5-1.3-39.2-14.5-52.5l6.7-26.7c3-11.9-2-24-11.6-30.5l6-24.2
	c43.7,7.3,87.4,11.3,131.1,11.8v28c-10.9,4-18.6,14.5-18.6,26.8v27.5c-16,9.7-26.8,27.3-26.8,47.4c0,30.6,24.8,55.4,55.4,55.4
	c30.6,0,55.4-24.8,55.4-55.4c0-20.1-10.7-37.7-26.8-47.4v-27.5c0-12.3-7.8-22.8-18.6-26.8v-28c43.7-0.5,87.4-4.4,131.1-11.8l6,24.2
	c-9.6,6.5-14.6,18.6-11.6,30.5l6.7,26.7c-13.2,13.3-19.4,33-14.5,52.5c7.4,29.6,37.5,47.7,67.1,40.3c29.6-7.4,47.7-37.5,40.3-67.1
	c-4.9-19.5-19.5-34-37.4-39.5l-6.7-26.7c-3-11.9-13-20.2-24.6-21.5l-5.7-22.9c26.9-5.1,53.7-11.6,80.6-19.3
	C502.5,154.4,505.5,148.9,504,143.6z M84.4,224.4c1.2-4.7,5.9-7.5,10.5-6.3c0,0,0,0,0.1,0c4.7,1.2,7.5,5.9,6.3,10.5l-4.9,19.7
	c-2.6-1.1-5.4-2.1-8.3-2.8c-2.9-0.7-5.8-1.2-8.6-1.4L84.4,224.4z M109.1,307.8c-4.7,19-24,30.6-43,25.8c-19-4.7-30.6-24-25.8-43
	c3.9-15.7,17.7-26.3,33-26.9l-6.3,25.5c-1.3,5.3,1.9,10.7,7.2,12c5.3,1.3,10.7-1.9,12-7.2l6.3-25.4
	C105.8,276.3,113,292.2,109.1,307.8z M247.3,245.3c0-4.8,3.9-8.7,8.7-8.7h0.1c4.8,0,8.7,3.9,8.7,8.7v20.3c-2.8-0.4-5.7-0.7-8.7-0.7
	c-3,0-5.9,0.2-8.7,0.7V245.3z M291.5,320.2c0,19.6-15.9,35.5-35.5,35.5c-19.6,0-35.5-15.9-35.5-35.5c0-16.1,10.8-29.8,25.5-34.1
	v26.2c0,5.5,4.5,9.9,9.9,9.9c5.5,0,9.9-4.5,9.9-9.9v-26.2C280.7,290.5,291.5,304.1,291.5,320.2z M437.8,301.3
	c5.3-1.3,8.6-6.7,7.2-12l-6.3-25.5c15.4,0.6,29.1,11.2,33,26.9c4.7,19-6.8,38.3-25.8,43c-19,4.7-38.3-6.8-43-25.8
	c-3.9-15.7,3.3-31.5,16.5-39.2l6.3,25.4C427.1,299.4,432.5,302.6,437.8,301.3z M417.1,218.1C417.1,218.1,417.1,218.1,417.1,218.1
	c4.7-1.2,9.4,1.7,10.6,6.3l4.9,19.7c-2.9,0.2-5.7,0.7-8.6,1.4c-2.9,0.7-5.6,1.6-8.3,2.8l-4.9-19.7
	C409.6,224,412.4,219.3,417.1,218.1z"/>
</svg>
