<svg clip-rule="evenodd" fill-rule="evenodd" height="512" stroke-linejoin="round" stroke-miterlimit="2" viewBox="0 0 101 101" width="512" xmlns="http://www.w3.org/2000/svg"><path d="m18.813 34.552c-5.298-1.014-10.595-2.281-15.893-3.8-1.04-.299-1.642-1.385-1.343-2.425.298-1.04 1.384-1.642 2.424-1.343 30.999 8.893 61.998 8.928 92.997 0 1.039-.299 2.126.302 2.425 1.341.3 1.04-.301 2.127-1.341 2.426-5.297 1.526-10.594 2.796-15.892 3.81l1.126 4.52c2.276.251 4.262 1.885 4.848 4.237l1.315 5.273c3.533 1.091 6.427 3.95 7.386 7.796 1.458 5.848-2.106 11.779-7.953 13.237-5.848 1.458-11.779-2.106-13.237-7.953-.959-3.847.255-7.73 2.862-10.351l-1.315-5.273c-.586-2.352.399-4.728 2.291-6.018l-1.19-4.772c-8.62 1.449-17.241 2.222-25.863 2.322v5.523c2.148.794 3.679 2.861 3.679 5.285v5.434c3.164 1.913 5.281 5.387 5.281 9.351 0 6.027-4.893 10.92-10.92 10.92-6.026 0-10.919-4.893-10.919-10.92 0-3.964 2.117-7.438 5.281-9.351v-5.434c0-2.424 1.531-4.491 3.678-5.285v-5.524c-8.62-.105-17.241-.882-25.86-2.331l-1.192 4.782c1.891 1.29 2.877 3.666 2.291 6.018l-1.315 5.273c2.607 2.621 3.821 6.504 2.862 10.351-1.458 5.847-7.389 9.411-13.237 7.953s-9.412-7.389-7.954-13.237c.959-3.846 3.854-6.705 7.387-7.796l1.314-5.273c.587-2.352 2.572-3.986 4.848-4.237zm33.647 21.899v5.175c0 1.081-.878 1.96-1.96 1.96-1.081 0-1.96-.879-1.96-1.96v-5.175c-2.91.849-5.039 3.538-5.039 6.721 0 3.864 3.136 7 6.999 7 3.864 0 7-3.136 7-7 0-3.183-2.129-5.872-5.04-6.721zm34.086-4.418c3.029.12 5.746 2.214 6.516 5.303.934 3.748-1.35 7.55-5.099 8.485-3.748.934-7.55-1.35-8.485-5.099-.77-3.088.645-6.213 3.264-7.74l1.252 5.02c.262 1.05 1.326 1.69 2.376 1.428s1.689-1.326 1.428-2.376zm-72.091 0c-3.03.12-5.746 2.214-6.516 5.303-.935 3.748 1.35 7.55 5.098 8.485 3.749.934 7.551-1.35 8.485-5.099.77-3.088-.645-6.213-3.264-7.74l-1.251 5.02c-.262 1.05-1.327 1.69-2.376 1.428-1.05-.262-1.69-1.326-1.428-2.376zm37.764.354v-4c0-.946-.767-1.713-1.713-1.713h-.012c-.945 0-1.712.767-1.712 1.713v4c.56-.088 1.134-.134 1.718-.134.585 0 1.159.046 1.719.134zm-33.212-3.407.968-3.882c.229-.918-.329-1.847-1.247-2.076-.004-.001-.008-.002-.012-.003-.918-.229-1.847.33-2.076 1.248l-.968 3.882c.565.049 1.133.143 1.7.285.568.141 1.113.325 1.635.546zm66.322-.831-.968-3.882c-.229-.918-1.159-1.477-2.077-1.248-.003.001-.007.002-.011.003-.918.229-1.476 1.158-1.248 2.076l.968 3.882c.522-.221 1.068-.405 1.635-.546.568-.142 1.136-.236 1.701-.285z"/></svg>