<!-- Generated by IcoMoon.io -->
<svg version="1.1" xmlns="http://www.w3.org/2000/svg" width="32" height="32" viewBox="0 0 32 32">
<title>chandelier-3</title>
<path d="M15.527 6.641v-5.545c0-0.343 0.278-0.621 0.621-0.621s0.621 0.278 0.621 0.621v5.561c5.975 0.396 10.705 5.374 10.705 11.448 0 2.014-0.53 3.992-1.537 5.737-0.222 0.384-0.632 0.621-1.075 0.621h-4.367v2.723c0 2.396-1.943 4.339-4.339 4.339h-0.014c-2.396 0-4.339-1.943-4.339-4.339v-2.723h-4.662c-0.444 0-0.854-0.237-1.075-0.621-1.007-1.744-1.537-3.723-1.537-5.737 0-6.174 4.887-11.216 11-11.464zM19.252 24.463h-2.483v2.32c0 0.343-0.279 0.621-0.621 0.621s-0.621-0.278-0.621-0.621v-2.32h-2.483v2.723c0 1.711 1.386 3.097 3.097 3.097h0.014c1.711 0 3.097-1.387 3.097-3.097zM24.861 23.221c0.898-1.555 1.371-3.32 1.371-5.116 0-5.647-4.585-10.232-10.232-10.232s-10.231 4.585-10.231 10.232c0 1.796 0.473 3.56 1.371 5.116z"></path>
</svg>
