<svg clip-rule="evenodd" fill-rule="evenodd" height="512" stroke-linejoin="round" stroke-miterlimit="2" viewBox="0 0 101 100" width="512" xmlns="http://www.w3.org/2000/svg"><path d="m49.006 20.462v-17.502c0-1.082.878-1.96 1.96-1.96 1.081 0 1.96.878 1.96 1.96v17.552c18.858 1.25 33.787 16.962 33.787 36.133 0 6.356-1.673 12.601-4.852 18.106-.7 1.213-1.994 1.96-3.394 1.96h-13.783v8.594c0 7.563-6.132 13.695-13.696 13.695h-.045c-7.563 0-13.695-6.132-13.695-13.695v-8.594h-14.715c-1.4 0-2.694-.747-3.394-1.96-3.178-5.505-4.852-11.75-4.852-18.106 0-19.487 15.426-35.399 34.719-36.183zm11.758 56.249h-7.838v7.322c0 1.082-.879 1.96-1.96 1.96-1.082 0-1.96-.878-1.96-1.96v-7.322h-7.838v8.594c0 5.399 4.376 9.776 9.775 9.776h.045c5.399 0 9.776-4.377 9.776-9.776zm17.703-3.92c2.834-4.909 4.327-10.478 4.327-16.146 0-17.824-14.471-32.294-32.294-32.294s-32.293 14.47-32.293 32.294c0 5.668 1.492 11.237 4.326 16.146z"/></svg>