<svg clip-rule="evenodd" fill-rule="evenodd" height="512" stroke-linejoin="round" stroke-miterlimit="2" viewBox="0 0 101 101" width="512" xmlns="http://www.w3.org/2000/svg"><path d="m48.469 52.797v-49.326c0-1.088.883-1.971 1.971-1.971 1.087 0 1.97.883 1.97 1.971v49.326c3.054.855 5.293 3.658 5.293 6.984v8.118c0 .806-.242 1.556-.658 2.181 1.541 2.888 2.65 7.36 2.65 12.421 0 6.12-1.621 11.378-3.667 14.015-1.61 2.076-3.59 2.984-5.528 2.984s-3.917-.908-5.527-2.984c-2.047-2.637-3.668-7.895-3.668-14.015 0-5.004 1.084-9.431 2.598-12.322-.457-.643-.726-1.43-.726-2.28v-8.118c0-3.326 2.239-6.129 5.292-6.984zm5.064 19.043h-6.065c-1.344 2.366-2.222 6.261-2.222 10.661 0 7.207 2.354 13.058 5.254 13.058s5.254-5.851 5.254-13.058c0-4.4-.878-8.295-2.221-10.661zm-36.763-48.601v-19.768c0-1.088.883-1.971 1.97-1.971 1.088 0 1.971.883 1.971 1.971v19.768c3.053.854 5.292 3.657 5.292 6.984v8.117c0 .828-.255 1.597-.692 2.232 1.528 2.889 2.624 7.338 2.624 12.371 0 6.12-1.621 11.377-3.667 14.015-1.61 2.075-3.59 2.984-5.528 2.984-1.937 0-3.917-.909-5.527-2.984-2.047-2.638-3.668-7.895-3.668-14.015 0-5.033 1.097-9.482 2.624-12.371-.437-.635-.692-1.404-.692-2.232v-8.117c0-3.327 2.239-6.13 5.293-6.984zm63.52 0v-19.768c0-1.088.883-1.971 1.97-1.971 1.088 0 1.971.883 1.971 1.971v19.768c3.053.854 5.292 3.657 5.292 6.984v8.117c0 .828-.255 1.597-.692 2.232 1.528 2.889 2.624 7.338 2.624 12.371 0 6.12-1.621 11.377-3.667 14.015-1.61 2.075-3.59 2.984-5.528 2.984s-3.917-.909-5.527-2.984c-2.047-2.638-3.668-7.895-3.668-14.015 0-5.033 1.097-9.482 2.624-12.371-.437-.635-.692-1.404-.692-2.232v-8.117c0-3.327 2.239-6.13 5.293-6.984zm-26.528 36.542c0-1.828-1.482-3.311-3.311-3.311h-.023c-1.828 0-3.31 1.483-3.31 3.311v8.118h6.644zm-31.989-17.5h-6.065c-1.344 2.366-2.222 6.261-2.222 10.662 0 7.207 2.355 13.057 5.254 13.057 2.9 0 5.254-5.85 5.254-13.057 0-4.401-.878-8.296-2.221-10.662zm63.52 0h-6.065c-1.344 2.366-2.222 6.261-2.222 10.662 0 7.207 2.354 13.057 5.254 13.057s5.254-5.85 5.254-13.057c0-4.401-.878-8.296-2.221-10.662zm.289-12.058c0-1.829-1.482-3.311-3.311-3.311h-.022c-1.829 0-3.311 1.482-3.311 3.311v8.117h6.644zm-66.633-3.305c-.069.007-.138.011-.209.011-.07 0-.14-.004-.209-.011-1.736.102-3.113 1.543-3.113 3.305v8.117h6.644v-8.117c0-1.762-1.376-3.203-3.113-3.305z"/></svg>