<!-- Generated by IcoMoon.io -->
<svg version="1.1" xmlns="http://www.w3.org/2000/svg" width="32" height="32" viewBox="0 0 32 32">
<title>chandelier-4</title>
<path d="M15.357 16.728v-15.628c0-0.345 0.28-0.624 0.624-0.624s0.624 0.28 0.624 0.624v15.628c0.968 0.271 1.677 1.159 1.677 2.213v2.572c0 0.255-0.077 0.493-0.208 0.691 0.488 0.915 0.84 2.332 0.84 3.935 0 1.939-0.514 3.605-1.162 4.44-0.51 0.658-1.137 0.945-1.751 0.945s-1.241-0.288-1.751-0.945c-0.649-0.835-1.162-2.501-1.162-4.44 0-1.585 0.343-2.988 0.823-3.904-0.145-0.204-0.23-0.453-0.23-0.722v-2.572c0-1.054 0.709-1.942 1.677-2.213zM16.961 22.761h-1.922c-0.426 0.75-0.704 1.984-0.704 3.378 0 2.283 0.746 4.137 1.665 4.137s1.665-1.854 1.665-4.137c0-1.394-0.278-2.628-0.704-3.378zM5.313 7.363v-6.263c0-0.345 0.28-0.624 0.624-0.624s0.624 0.28 0.624 0.624v6.263c0.967 0.271 1.677 1.159 1.677 2.213v2.572c0 0.262-0.081 0.506-0.219 0.707 0.484 0.915 0.831 2.325 0.831 3.92 0 1.939-0.514 3.605-1.162 4.44-0.51 0.657-1.137 0.945-1.751 0.945s-1.241-0.288-1.751-0.945c-0.649-0.836-1.162-2.501-1.162-4.44 0-1.595 0.348-3.004 0.831-3.92-0.138-0.201-0.219-0.445-0.219-0.707v-2.572c0-1.054 0.709-1.942 1.677-2.213zM25.438 7.363v-6.263c0-0.345 0.28-0.624 0.624-0.624s0.624 0.28 0.624 0.624v6.263c0.967 0.271 1.677 1.159 1.677 2.213v2.572c0 0.262-0.081 0.506-0.219 0.707 0.484 0.915 0.831 2.325 0.831 3.92 0 1.939-0.514 3.605-1.162 4.44-0.51 0.657-1.137 0.945-1.751 0.945s-1.241-0.288-1.751-0.945c-0.649-0.836-1.162-2.501-1.162-4.44 0-1.595 0.348-3.004 0.831-3.92-0.138-0.201-0.219-0.445-0.219-0.707v-2.572c0-1.054 0.709-1.942 1.677-2.213zM17.034 18.941c0-0.579-0.47-1.049-1.049-1.049h-0.007c-0.579 0-1.049 0.47-1.049 1.049v2.572h2.105zM6.898 13.396h-1.922c-0.426 0.75-0.704 1.984-0.704 3.378 0 2.283 0.746 4.137 1.665 4.137s1.665-1.853 1.665-4.137c0-1.394-0.278-2.628-0.704-3.378zM27.024 13.396h-1.922c-0.426 0.75-0.704 1.984-0.704 3.378 0 2.283 0.746 4.137 1.665 4.137s1.665-1.853 1.665-4.137c0-1.394-0.278-2.628-0.704-3.378zM27.115 9.576c0-0.579-0.47-1.049-1.049-1.049h-0.007c-0.579 0-1.049 0.47-1.049 1.049v2.572h2.105zM6.004 8.528c-0.022 0.002-0.044 0.004-0.066 0.004s-0.044-0.001-0.066-0.004c-0.55 0.032-0.986 0.489-0.986 1.047v2.572h2.105v-2.572c0-0.558-0.436-1.015-0.986-1.047z"></path>
</svg>
