<svg clip-rule="evenodd" fill-rule="evenodd" height="512" stroke-linejoin="round" stroke-miterlimit="2" viewBox="0 0 101 101" width="512" xmlns="http://www.w3.org/2000/svg"><path d="m48.54 17.392v42.215c-2.283.806-3.92 2.984-3.92 5.544v7.694c0 2.81-1.116 5.504-3.102 7.49s-4.681 3.102-7.49 3.102-5.503-1.116-7.49-3.102c-1.986-1.986-3.102-4.68-3.102-7.49v-2.598h6.256c1.223 0 2.377-.571 3.118-1.544.742-.974.986-2.237.661-3.417l-6.068-22.024c-.468-1.701-2.015-2.879-3.779-2.879h-12.136c-1.764 0-3.311 1.178-3.779 2.879l-6.068 22.024c-.325 1.18-.081 2.443.661 3.417.741.973 1.895 1.544 3.118 1.544h6.256v2.598c0 5.929 2.355 11.614 6.547 15.806 4.191 4.191 9.877 6.546 15.805 6.546s11.614-2.355 15.805-6.546c.228-.228.45-.46.667-.697.217.237.439.469.667.697 4.192 4.191 9.877 6.546 15.805 6.546h.001c5.928 0 11.613-2.355 15.805-6.546 4.191-4.192 6.546-9.877 6.546-15.806v-2.598h6.256c1.224 0 2.377-.571 3.118-1.544.742-.974.986-2.237.661-3.417l-6.068-22.024c-.468-1.701-2.015-2.879-3.779-2.879h-12.136c-1.763 0-3.31 1.178-3.779 2.879l-6.068 22.024c-.325 1.18-.08 2.443.661 3.417.742.973 1.895 1.544 3.119 1.544h6.255v2.598c0 2.81-1.116 5.504-3.102 7.49s-4.68 3.102-7.489 3.102h-.001c-2.809 0-5.503-1.116-7.49-3.102-1.986-1.986-3.102-4.68-3.102-7.49v-7.694c0-2.56-1.636-4.738-3.92-5.544v-42.215h25.84c2.165 0 3.92-1.755 3.92-3.92v-3.749c0-2.165-1.755-3.92-3.92-3.92h-55.6c-2.165 0-3.92 1.755-3.92 3.92v3.749c0 2.165 1.755 3.92 3.92 3.92zm32.944 52.855v2.598c0 3.849-1.529 7.54-4.25 10.262-2.722 2.721-6.413 4.25-10.261 4.25h-.001c-3.849 0-7.54-1.529-10.261-4.25-2.722-2.722-4.251-6.413-4.251-10.262v-7.695c0-1.081-.876-1.957-1.957-1.957h-.005c-1.081 0-1.958.876-1.958 1.957v7.695c0 3.849-1.529 7.54-4.25 10.262-2.722 2.721-6.413 4.25-10.262 4.25s-7.54-1.529-10.262-4.25c-2.721-2.722-4.25-6.413-4.25-10.262v-2.598h-3.92v2.598c0 4.889 1.942 9.577 5.399 13.034 3.456 3.456 8.144 5.398 13.033 5.398s9.577-1.942 13.034-5.398c1.406-1.407 2.562-3.017 3.438-4.762.877 1.745 2.032 3.355 3.439 4.762 3.456 3.456 8.145 5.398 13.033 5.398h.001c4.888 0 9.576-1.942 13.033-5.398 3.456-3.457 5.398-8.145 5.398-13.034v-2.598zm14.096-3.92h-24.271l6.067-22.024h12.136zm-65.888 0h-24.272l6.068-22.024h12.136zm48.608-56.604h-55.6v3.749h55.6z"/></svg>