<?xml version="1.0" encoding="utf-8"?>
<!-- Generator: Adobe Illustrator 25.2.3, SVG Export Plug-In . SVG Version: 6.00 Build 0)  -->
<svg version="1.1" id="Layer_1" xmlns="http://www.w3.org/2000/svg" xmlns:xlink="http://www.w3.org/1999/xlink" x="0px" y="0px"
	 width="512px" height="512px" viewBox="0 0 512 512" style="enable-background:new 0 0 512 512;" xml:space="preserve">
<path d="M503.7,331l-30.8-111.6c-2.4-8.6-10.2-14.6-19.2-14.6h-61.5c-8.9,0-16.8,6-19.2,14.6L342.3,331c-1.6,6-0.4,12.4,3.4,17.3
	c3.8,4.9,9.6,7.8,15.8,7.8h31.7v13.2c0,14.2-5.7,27.9-15.7,38c-10.1,10.1-23.7,15.7-38,15.7h0c-14.2,0-27.9-5.7-38-15.7
	c-10.1-10.1-15.7-23.7-15.7-38v-39c0-13-8.3-24-19.9-28.1v-214h131c11,0,19.9-8.9,19.9-19.9v-19c0-11-8.9-19.9-19.9-19.9H115.1
	c-11,0-19.9,8.9-19.9,19.9v19c0,11,8.9,19.9,19.9,19.9h131v214c-11.6,4.1-19.9,15.1-19.9,28.1v39c0,14.2-5.7,27.9-15.7,38
	c-10.1,10.1-23.7,15.7-38,15.7s-27.9-5.7-38-15.7c-10.1-10.1-15.7-23.7-15.7-38v-13.2h31.7c6.2,0,12-2.9,15.8-7.8
	c3.8-4.9,5-11.3,3.4-17.3l-30.8-111.6c-2.4-8.6-10.2-14.6-19.2-14.6H58.2c-8.9,0-16.8,6-19.2,14.6L8.3,331c-1.6,6-0.4,12.4,3.4,17.3
	c3.8,4.9,9.6,7.8,15.8,7.8h31.7v13.2c0,30.1,11.9,58.9,33.2,80.1c21.2,21.2,50.1,33.2,80.1,33.2c30.1,0,58.9-11.9,80.1-33.2
	c1.2-1.2,2.3-2.3,3.4-3.5c1.1,1.2,2.2,2.4,3.4,3.5c21.3,21.2,50.1,33.2,80.1,33.2h0c30.1,0,58.9-11.9,80.1-33.2
	c21.2-21.3,33.2-50.1,33.2-80.1v-13.2h31.7c6.2,0,12-2.9,15.8-7.8C504.1,343.3,505.3,336.9,503.7,331z M115.1,68.3v-19h281.9v19
	H115.1z M27.5,336.2l30.8-111.6h61.5l30.8,111.6H27.5z M432.9,369.3c0,24.8-9.8,48.5-27.4,66.1c-17.5,17.5-41.3,27.4-66.1,27.4h0
	c-24.8,0-48.5-9.8-66.1-27.4c-7.1-7.1-13-15.3-17.4-24.1c-4.4,8.8-10.3,17-17.4,24.1c-17.5,17.5-41.3,27.4-66.1,27.4
	s-48.5-9.8-66.1-27.4c-17.5-17.5-27.4-41.3-27.4-66.1v-13.2h19.9v13.2c0,19.5,7.8,38.2,21.5,52c13.8,13.8,32.5,21.5,52,21.5
	s38.2-7.8,52-21.5c13.8-13.8,21.5-32.5,21.5-52v-39c0-5.5,4.4-9.9,9.9-9.9h0c5.5,0,9.9,4.4,9.9,9.9v39c0,19.5,7.8,38.2,21.5,52
	c13.8,13.8,32.5,21.5,52,21.5h0c19.5,0,38.2-7.8,52-21.5c13.8-13.8,21.5-32.5,21.5-52v-13.2h19.9V369.3z M361.5,336.2l30.8-111.6
	h61.5l30.8,111.6H361.5z"/>
</svg>
