<svg clip-rule="evenodd" fill-rule="evenodd" height="512" stroke-linejoin="round" stroke-miterlimit="2" viewBox="0 0 101 101" width="512" xmlns="http://www.w3.org/2000/svg"><path d="m17.446 77.792h-2.17c-2.165 0-3.92 1.756-3.92 3.92v13.868c0 2.165 1.755 3.92 3.92 3.92h70.448c2.165 0 3.92-1.755 3.92-3.92v-13.868c0-2.164-1.755-3.92-3.92-3.92h-2.17v-21.876c0-8.725-3.466-17.093-9.636-23.263s-14.538-9.636-23.263-9.636h-.31c-8.725 0-17.093 3.466-23.263 9.636s-9.636 14.538-9.636 23.263v21.876zm68.278 12.814h-70.448v4.974h70.448zm0-3.92v-4.974h-70.448v4.974zm-6.09-8.894v-21.876c0-7.686-3.053-15.057-8.488-20.491-5.434-5.435-12.805-8.488-20.491-8.488h-.31c-7.685 0-15.056 3.053-20.491 8.488-5.435 5.434-8.488 12.805-8.488 20.491v21.876h20.999v-21.75c0-2.151.855-4.215 2.376-5.736 1.522-1.521 3.585-2.376 5.737-2.376h.045c2.151 0 4.215.855 5.736 2.376s2.376 3.585 2.376 5.736v21.75zm-24.919 0v-21.75c0-1.112-.442-2.178-1.228-2.964s-1.853-1.228-2.964-1.228h-.045c-1.112 0-2.178.442-2.965 1.228-.786.786-1.228 1.852-1.228 2.964v21.75zm-25.135-58.877-5.244-10.205c-.494-.963-1.677-1.342-2.639-.848s-1.342 1.677-.847 2.639l5.244 10.206c.494.962 1.677 1.342 2.639.847.962-.494 1.342-1.677.847-2.639zm45.327 1.792 5.244-10.206c.494-.962.114-2.145-.848-2.639s-2.144-.115-2.639.848l-5.244 10.205c-.494.962-.114 2.145.848 2.639.962.495 2.144.115 2.639-.847zm-22.447-5.999v-11.248c0-1.082-.878-1.96-1.96-1.96s-1.96.878-1.96 1.96v11.248c0 1.082.878 1.96 1.96 1.96s1.96-.878 1.96-1.96z"/></svg>