<!-- Generated by IcoMoon.io -->
<svg version="1.1" xmlns="http://www.w3.org/2000/svg" width="32" height="32" viewBox="0 0 32 32">
<title>warning</title>
<path d="M5.527 24.647v-6.931c0-2.764 1.098-5.416 3.053-7.37s4.606-3.053 7.37-3.053h0.098c2.764 0 5.416 1.098 7.37 3.053s3.053 4.606 3.053 7.37v6.931h0.688c0.686 0 1.242 0.556 1.242 1.242v4.394c0 0.686-0.556 1.242-1.242 1.242h-22.32c-0.686 0-1.242-0.556-1.242-1.242v-4.394c0-0.686 0.556-1.242 1.242-1.242h0.688zM27.16 28.707h-22.32v1.576h22.32zM27.16 27.465v-1.576h-22.32v1.576zM25.231 24.647v-6.931c0-2.435-0.967-4.771-2.689-6.492s-4.057-2.689-6.492-2.689h-0.098c-2.435 0-4.77 0.967-6.492 2.689s-2.689 4.057-2.689 6.492v6.931h6.653v-6.891c0-0.681 0.271-1.335 0.753-1.817s1.136-0.753 1.818-0.753h0.014c0.681 0 1.335 0.271 1.817 0.753s0.753 1.136 0.753 1.817v6.891zM17.335 24.647v-6.891c0-0.352-0.14-0.69-0.389-0.939s-0.587-0.389-0.939-0.389h-0.014c-0.352 0-0.69 0.14-0.939 0.389s-0.389 0.587-0.389 0.939v6.891zM9.372 5.993l-1.661-3.233c-0.157-0.305-0.531-0.425-0.836-0.269s-0.425 0.531-0.268 0.836l1.661 3.234c0.156 0.305 0.531 0.425 0.836 0.268s0.425-0.531 0.268-0.836zM23.733 6.561l1.661-3.234c0.157-0.305 0.036-0.68-0.269-0.836s-0.679-0.036-0.836 0.269l-1.661 3.233c-0.157 0.305-0.036 0.68 0.269 0.836s0.679 0.036 0.836-0.268zM16.621 4.66v-3.564c0-0.343-0.278-0.621-0.621-0.621s-0.621 0.278-0.621 0.621v3.564c0 0.343 0.278 0.621 0.621 0.621s0.621-0.278 0.621-0.621z"></path>
</svg>
