<svg clip-rule="evenodd" fill-rule="evenodd" height="512" stroke-linejoin="round" stroke-miterlimit="2" viewBox="0 0 101 101" width="512" xmlns="http://www.w3.org/2000/svg"><path d="m48.54 30.373c-2.056.325-4.049 1.166-5.774 2.522-11.921 9.372-39.768 31.263-39.768 31.263-1.314 1.033-1.828 2.784-1.282 4.364.546 1.579 2.033 2.638 3.704 2.638h31.36v14.651c0 7.565 6.133 13.698 13.698 13.698l.045-.001c7.565.001 13.697-6.132 13.697-13.698v-14.65h31.36c1.671 0 3.158-1.059 3.704-2.638.547-1.58.032-3.331-1.281-4.364 0 0-27.847-21.891-39.768-31.263-1.726-1.356-3.718-2.197-5.775-2.522v-26.921c0-1.081-.878-1.96-1.96-1.96s-1.96.879-1.96 1.96v26.921zm11.76 40.787h-7.84v13.379c0 1.082-.878 1.96-1.96 1.96s-1.96-.878-1.96-1.96v-13.379h-7.84v14.651c0 5.4 4.378 9.778 9.778 9.778h.045c5.4 0 9.777-4.378 9.777-9.778zm-15.112-35.183c3.118-2.45 7.507-2.45 10.624 0 11.921 9.372 39.768 31.263 39.768 31.263h-90.16s27.847-21.891 39.768-31.263z"/></svg>