<?xml version="1.0" encoding="utf-8"?>
<!-- Generator: Adobe Illustrator 25.2.3, SVG Export Plug-In . SVG Version: 6.00 Build 0)  -->
<svg version="1.1" id="Layer_1" xmlns="http://www.w3.org/2000/svg" xmlns:xlink="http://www.w3.org/1999/xlink" x="0px" y="0px"
	 width="512px" height="512px" viewBox="0 0 512 512" style="enable-background:new 0 0 512 512;" xml:space="preserve">
<path d="M496.8,325.2c0,0-141.2-111-201.6-158.5c-8.7-6.9-18.8-11.1-29.3-12.8V17.5c0-5.5-4.5-9.9-9.9-9.9c-5.5,0-9.9,4.5-9.9,9.9
	V154c-10.4,1.6-20.5,5.9-29.3,12.8C156.4,214.3,15.2,325.2,15.2,325.2c-6.7,5.2-9.3,14.1-6.5,22.1c2.8,8,10.3,13.4,18.8,13.4h159
	V435c0,38.3,31.1,69.4,69.4,69.4l0.2,0c38.3,0,69.4-31.1,69.4-69.4v-74.3h159c8.5,0,16-5.4,18.8-13.4
	C506.1,339.3,503.5,330.5,496.8,325.2z M305.7,435c0,27.4-22.2,49.6-49.6,49.6h-0.2c-27.4,0-49.6-22.2-49.6-49.6v-74.3h39.7v67.8
	c0,5.5,4.5,9.9,9.9,9.9s9.9-4.5,9.9-9.9v-67.8h39.7V435z M27.5,340.9c0,0,141.2-111,201.6-158.5c15.8-12.4,38.1-12.4,53.9,0
	c60.4,47.5,201.6,158.5,201.6,158.5H27.5z"/>
</svg>
