<svg clip-rule="evenodd" fill-rule="evenodd" height="512" stroke-linejoin="round" stroke-miterlimit="2" viewBox="0 0 101 101" width="512" xmlns="http://www.w3.org/2000/svg"><path d="m18.161 27.488v-6.693c-5.08-.992-10.16-2.217-15.241-3.674-1.04-.299-1.642-1.385-1.343-2.425.298-1.04 1.384-1.642 2.424-1.343 30.999 8.893 61.998 8.928 92.997 0 1.039-.299 2.126.302 2.425 1.341.3 1.04-.301 2.127-1.341 2.426-5.081 1.464-10.163 2.692-15.242 3.685v6.683h1.754c1.577 0 3.089.626 4.204 1.741s1.741 2.627 1.741 4.204v7.192c0 .571-.122 1.113-.342 1.603 1.306 4.343 2.138 9.984 2.138 16.163 0 9.625-2.02 17.943-4.701 22.091-1.942 3.003-4.417 4.302-6.754 4.302-2.336 0-4.812-1.299-6.753-4.302-2.682-4.148-4.702-12.466-4.702-22.091 0-6.179.832-11.819 2.138-16.163-.22-.49-.342-1.032-.342-1.603v-7.192c0-1.577.627-3.089 1.742-4.204 1.114-1.115 2.627-1.741 4.203-1.741h1.754v-5.964c-8.819 1.515-17.638 2.322-26.46 2.424v6.48h1.754c1.577 0 3.089.626 4.204 1.741s1.741 2.627 1.741 4.204v7.192c0 .571-.122 1.113-.342 1.603 1.306 4.345 2.139 9.985 2.139 16.163 0 9.625-2.02 17.943-4.702 22.091-1.942 3.003-4.417 4.302-6.754 4.302-2.336 0-4.812-1.299-6.753-4.302-2.682-4.148-4.702-12.466-4.702-22.091 0-6.178.833-11.819 2.138-16.163-.219-.49-.341-1.032-.341-1.603v-7.192c0-1.577.626-3.089 1.741-4.204s2.627-1.741 4.204-1.741h1.753v-6.481c-8.819-.107-17.639-.919-26.459-2.433v5.974h1.753c1.577 0 3.089.626 4.204 1.741s1.741 2.627 1.741 4.204v7.192c0 .571-.122 1.113-.341 1.603 1.305 4.344 2.138 9.984 2.138 16.163 0 9.625-2.02 17.943-4.702 22.091-1.941 3.003-4.417 4.302-6.753 4.302-2.337 0-4.812-1.299-6.754-4.302-2.682-4.148-4.702-12.466-4.702-22.091 0-6.179.833-11.82 2.139-16.163-.22-.49-.342-1.032-.342-1.603v-7.192c0-1.577.626-3.089 1.741-4.204s2.627-1.741 4.204-1.741h1.754zm30.379 19.996h-3.778c-.065 0-.13-.001-.194-.004-1.004 3.818-1.603 8.628-1.603 13.851 0 12.403 3.377 22.473 7.535 22.473 4.159 0 7.536-10.07 7.536-22.473 0-5.223-.599-10.033-1.603-13.851-.064.003-.129.004-.194.004h-3.779v19.927c0 1.082-.878 1.96-1.96 1.96-1.081 0-1.96-.878-1.96-1.96zm30.38-2.94h-3.779c-.065 0-.129-.001-.193-.004-1.004 3.818-1.603 8.628-1.603 13.851 0 12.403 3.376 22.473 7.535 22.473s7.535-10.07 7.535-22.473c0-5.224-.599-10.033-1.603-13.851-.064.003-.128.004-.193.004h-3.779v19.927c0 1.082-.878 1.96-1.96 1.96s-1.96-.878-1.96-1.96zm-60.759 0h-3.779c-.065 0-.13-.001-.194-.004-1.004 3.818-1.603 8.628-1.603 13.851 0 12.403 3.377 22.473 7.536 22.473 4.158 0 7.535-10.07 7.535-22.473 0-5.224-.599-10.034-1.603-13.851-.064.003-.129.004-.194.004h-3.778v19.927c0 1.082-.879 1.96-1.96 1.96-1.082 0-1.96-.878-1.96-1.96zm38.078-8.171c0-.537-.213-1.052-.593-1.432s-.895-.593-1.432-.593h-7.427c-.538 0-1.053.213-1.432.593-.38.38-.593.895-.593 1.432v7.192h11.477zm-30.38-2.94c0-.537-.213-1.052-.593-1.432-.379-.38-.895-.593-1.432-.593h-7.427c-.537 0-1.052.213-1.432.593s-.593.895-.593 1.432v7.192h11.477zm60.76 0c0-.537-.213-1.052-.593-1.432s-.895-.593-1.432-.593h-7.428c-.537 0-1.052.213-1.432.593-.379.38-.593.895-.593 1.432v7.192h11.478z"/></svg>