<!-- Generated by IcoMoon.io -->
<svg version="1.1" xmlns="http://www.w3.org/2000/svg" width="32" height="32" viewBox="0 0 32 32">
<title>chandelier-7</title>
<path d="M5.754 8.709v-2.121c-1.609-0.314-3.219-0.702-4.829-1.164-0.33-0.095-0.52-0.439-0.425-0.768s0.439-0.52 0.768-0.425c9.821 2.818 19.643 2.829 29.464 0 0.329-0.095 0.674 0.096 0.768 0.425s-0.095 0.674-0.425 0.769c-1.61 0.464-3.22 0.853-4.829 1.168v2.117h0.556c0.5 0 0.979 0.198 1.332 0.552s0.552 0.832 0.552 1.332v2.279c0 0.181-0.039 0.353-0.108 0.508 0.414 1.376 0.677 3.163 0.677 5.121 0 3.050-0.64 5.685-1.489 6.999-0.615 0.951-1.399 1.363-2.14 1.363s-1.525-0.412-2.14-1.363c-0.85-1.314-1.49-3.95-1.49-6.999 0-1.958 0.264-3.745 0.677-5.121-0.070-0.155-0.108-0.327-0.108-0.508v-2.279c0-0.5 0.199-0.979 0.552-1.332s0.832-0.552 1.332-0.552h0.556v-1.89c-2.794 0.48-5.588 0.736-8.383 0.768v2.053h0.556c0.5 0 0.979 0.198 1.332 0.552s0.552 0.832 0.552 1.332v2.279c0 0.181-0.039 0.353-0.108 0.508 0.414 1.377 0.678 3.164 0.678 5.121 0 3.050-0.64 5.685-1.49 6.999-0.615 0.951-1.399 1.363-2.14 1.363s-1.525-0.412-2.14-1.363c-0.85-1.314-1.49-3.95-1.49-6.999 0-1.957 0.264-3.745 0.677-5.121-0.069-0.155-0.108-0.327-0.108-0.508v-2.279c0-0.5 0.198-0.979 0.552-1.332s0.832-0.552 1.332-0.552h0.555v-2.053c-2.794-0.034-5.589-0.291-8.383-0.771v1.893h0.555c0.5 0 0.979 0.198 1.332 0.552s0.552 0.832 0.552 1.332v2.279c0 0.181-0.039 0.353-0.108 0.508 0.413 1.376 0.677 3.163 0.677 5.121 0 3.050-0.64 5.685-1.49 6.999-0.615 0.951-1.399 1.363-2.14 1.363s-1.525-0.412-2.14-1.363c-0.85-1.314-1.49-3.95-1.49-6.999 0-1.958 0.264-3.745 0.678-5.121-0.070-0.155-0.108-0.327-0.108-0.508v-2.279c0-0.5 0.198-0.979 0.552-1.332s0.832-0.552 1.332-0.552h0.556zM15.379 15.044h-1.197c-0.021 0-0.041-0-0.061-0.001-0.318 1.21-0.508 2.734-0.508 4.388 0 3.93 1.070 7.12 2.387 7.12s2.388-3.191 2.388-7.12c0-1.655-0.19-3.179-0.508-4.388-0.020 0.001-0.041 0.001-0.061 0.001h-1.197v6.314c0 0.343-0.278 0.621-0.621 0.621s-0.621-0.278-0.621-0.621zM25.004 14.113h-1.197c-0.021 0-0.041-0-0.061-0.001-0.318 1.21-0.508 2.734-0.508 4.388 0 3.93 1.070 7.12 2.387 7.12s2.387-3.191 2.387-7.12c0-1.655-0.19-3.179-0.508-4.388-0.020 0.001-0.041 0.001-0.061 0.001h-1.197v6.314c0 0.343-0.278 0.621-0.621 0.621s-0.621-0.278-0.621-0.621zM5.754 14.113h-1.197c-0.021 0-0.041-0-0.061-0.001-0.318 1.21-0.508 2.734-0.508 4.388 0 3.93 1.070 7.12 2.388 7.12s2.387-3.191 2.387-7.12c0-1.655-0.19-3.179-0.508-4.388-0.020 0.001-0.041 0.001-0.061 0.001h-1.197v6.314c0 0.343-0.279 0.621-0.621 0.621s-0.621-0.278-0.621-0.621zM17.818 11.524c0-0.17-0.067-0.333-0.188-0.454s-0.284-0.188-0.454-0.188h-2.353c-0.17 0-0.334 0.068-0.454 0.188s-0.188 0.284-0.188 0.454v2.279h3.636zM8.193 10.593c0-0.17-0.068-0.333-0.188-0.454s-0.284-0.188-0.454-0.188h-2.353c-0.17 0-0.333 0.068-0.454 0.188s-0.188 0.284-0.188 0.454v2.279h3.636zM27.444 10.593c0-0.17-0.067-0.333-0.188-0.454s-0.284-0.188-0.454-0.188h-2.353c-0.17 0-0.333 0.068-0.454 0.188s-0.188 0.284-0.188 0.454v2.279h3.637z"></path>
</svg>
