<svg clip-rule="evenodd" fill-rule="evenodd" height="512" stroke-linejoin="round" stroke-miterlimit="2" viewBox="0 0 101 101" width="512" xmlns="http://www.w3.org/2000/svg"><path d="m28.969 14.758v-11.301c0-1.08.877-1.957 1.958-1.957 1.08 0 1.957.877 1.957 1.957v11.301h3.818c1.874 0 3.67.744 4.995 2.069s2.069 3.122 2.069 4.995v11.185c0 .828-.257 1.597-.697 2.23 2.133 6.662 3.491 15.583 3.491 25.4 0 14.443-2.938 26.946-6.962 33.17-2.516 3.891-5.645 5.693-8.671 5.693-3.027 0-6.156-1.802-8.671-5.693-4.025-6.224-6.963-18.727-6.963-33.17 0-9.817 1.358-18.738 3.491-25.4-.439-.633-.697-1.402-.697-2.23v-11.185c0-1.873.744-3.67 2.069-4.995s3.122-2.069 4.995-2.069h3.818zm39.147 0v-11.301c0-1.08.877-1.957 1.958-1.957 1.08 0 1.957.877 1.957 1.957v11.301h3.818c1.874 0 3.671.744 4.995 2.069 1.325 1.325 2.069 3.122 2.069 4.995v11.185c0 .828-.257 1.597-.697 2.23 2.134 6.662 3.491 15.583 3.491 25.4 0 14.443-2.938 26.946-6.962 33.17-2.515 3.891-5.645 5.693-8.671 5.693-3.027 0-6.156-1.802-8.671-5.693-4.025-6.224-6.962-18.727-6.962-33.17 0-9.817 1.357-18.738 3.49-25.4-.439-.633-.697-1.402-.697-2.23v-11.185c0-1.873.745-3.67 2.069-4.995 1.325-1.325 3.122-2.069 4.995-2.069h3.818zm-39.147 22.163h-6.647c-1.932 6.233-3.114 14.566-3.114 23.716 0 19.288 5.251 34.948 11.719 34.948 6.467 0 11.718-15.66 11.718-34.948 0-9.15-1.181-17.483-3.114-23.716h-6.647v33.171c0 1.08-.877 1.958-1.957 1.958-1.081 0-1.958-.878-1.958-1.958zm32.5 0c-1.932 6.233-3.114 14.566-3.114 23.716 0 19.288 5.251 34.948 11.719 34.948 6.467 0 11.718-15.66 11.718-34.948 0-9.15-1.181-17.483-3.114-23.716h-6.647v33.171c0 1.08-.877 1.958-1.957 1.958-1.081 0-1.958-.878-1.958-1.958v-33.171zm-21.618-15.099c0-.835-.331-1.636-.922-2.227-.591-.59-1.392-.922-2.227-.922h-11.551c-.835 0-1.636.332-2.227.922-.59.591-.922 1.392-.922 2.227v11.185h17.849zm39.147 0c0-.835-.331-1.636-.922-2.227-.59-.59-1.391-.922-2.227-.922h-11.551c-.835 0-1.636.332-2.227.922-.59.591-.922 1.392-.922 2.227v11.185h17.849z"/></svg>