<!-- Generated by IcoMoon.io -->
<svg version="1.1" xmlns="http://www.w3.org/2000/svg" width="32" height="32" viewBox="0 0 32 32">
<title>chandelier-8</title>
<path d="M9.178 4.676v-3.58c0-0.342 0.278-0.62 0.62-0.62s0.62 0.278 0.62 0.62v3.58h1.21c0.594 0 1.163 0.236 1.583 0.656s0.656 0.989 0.656 1.583v3.544c0 0.262-0.081 0.506-0.221 0.707 0.676 2.111 1.106 4.937 1.106 8.048 0 4.576-0.931 8.537-2.206 10.509-0.797 1.233-1.789 1.804-2.747 1.804s-1.95-0.571-2.747-1.804c-1.275-1.972-2.206-5.933-2.206-10.509 0-3.11 0.43-5.937 1.106-8.048-0.139-0.201-0.221-0.444-0.221-0.707v-3.544c0-0.593 0.236-1.163 0.656-1.583s0.989-0.656 1.583-0.656h1.21zM21.581 4.676v-3.58c0-0.342 0.278-0.62 0.62-0.62s0.62 0.278 0.62 0.62v3.58h1.21c0.594 0 1.163 0.236 1.583 0.656s0.656 0.989 0.656 1.583v3.544c0 0.262-0.081 0.506-0.221 0.707 0.676 2.111 1.106 4.937 1.106 8.048 0 4.576-0.931 8.537-2.206 10.509-0.797 1.233-1.788 1.804-2.747 1.804s-1.95-0.571-2.747-1.804c-1.275-1.972-2.206-5.933-2.206-10.509 0-3.11 0.43-5.937 1.106-8.048-0.139-0.201-0.221-0.444-0.221-0.707v-3.544c0-0.593 0.236-1.163 0.656-1.583s0.989-0.656 1.583-0.656h1.21zM9.178 11.698h-2.106c-0.612 1.975-0.987 4.615-0.987 7.514 0 6.111 1.664 11.073 3.713 11.073s3.713-4.962 3.713-11.073c0-2.899-0.374-5.539-0.987-7.514h-2.106v10.51c0 0.342-0.278 0.62-0.62 0.62s-0.62-0.278-0.62-0.62zM19.475 11.698c-0.612 1.975-0.987 4.615-0.987 7.514 0 6.111 1.664 11.073 3.713 11.073s3.713-4.962 3.713-11.073c0-2.899-0.374-5.539-0.987-7.514h-2.106v10.51c0 0.342-0.278 0.62-0.62 0.62s-0.62-0.278-0.62-0.62v-10.51zM12.626 6.914c0-0.265-0.105-0.518-0.292-0.706s-0.441-0.292-0.706-0.292h-3.66c-0.265 0-0.518 0.105-0.706 0.292s-0.292 0.441-0.292 0.706v3.544h5.655zM25.029 6.914c0-0.265-0.105-0.518-0.292-0.706s-0.441-0.292-0.706-0.292h-3.66c-0.265 0-0.518 0.105-0.706 0.292s-0.292 0.441-0.292 0.706v3.544h5.655z"></path>
</svg>
