<!-- Generated by IcoMoon.io -->
<svg version="1.1" xmlns="http://www.w3.org/2000/svg" width="32" height="32" viewBox="0 0 32 32">
<title>ceiling</title>
<path d="M7.881 5.322l-6.163-0c-0.686 0-1.242-0.556-1.242-1.242v-1.373c0-0.686 0.556-1.242 1.242-1.242h28.566c0.686 0 1.242 0.556 1.242 1.242v1.374c0 0.686-0.556 1.242-1.242 1.242h-6.645v2.677c1.263 0.247 2.475 1.208 3.43 2.828 1.352 2.294 2.262 5.988 2.262 10.161 0 2.179-0.25 4.319-0.721 6.206-0.138 0.553-0.635 0.941-1.205 0.941h-0.862c-0.569 1.406-1.949 2.4-3.559 2.4s-2.99-0.994-3.559-2.4h-0.862c-0.57 0-1.067-0.388-1.205-0.941-0.471-1.887-0.721-4.028-0.721-6.206 0-4.173 0.911-7.868 2.263-10.161 0.971-1.648 2.21-2.614 3.496-2.84v-2.665h-13.274v2.677c1.262 0.247 2.475 1.208 3.429 2.827 1.352 2.294 2.263 5.988 2.263 10.161 0 2.179-0.25 4.319-0.721 6.206-0.138 0.553-0.635 0.941-1.205 0.941h-0.862c-0.569 1.406-1.949 2.4-3.559 2.4s-2.99-0.994-3.559-2.4h-0.861c-0.57 0-1.067-0.388-1.205-0.941-0.471-1.887-0.721-4.028-0.721-6.206 0-4.173 0.911-7.868 2.263-10.161 0.971-1.648 2.21-2.614 3.496-2.84v-2.665zM10.629 28.135c-0.465 0.698-1.26 1.158-2.161 1.158s-1.696-0.461-2.161-1.159h4.322zM25.145 28.135c-0.465 0.698-1.26 1.158-2.161 1.158s-1.696-0.46-2.161-1.158zM27.523 15.582c-1.313-0.512-2.871-0.805-4.539-0.805s-3.225 0.294-4.539 0.807c-0.361 1.619-0.565 3.457-0.565 5.404 0 2.073 0.236 4.11 0.684 5.905h8.841c0.448-1.796 0.684-3.832 0.684-5.905 0-1.948-0.204-3.786-0.566-5.405zM13.007 15.582c-1.313-0.512-2.871-0.805-4.539-0.805s-3.225 0.294-4.539 0.807c-0.361 1.619-0.565 3.457-0.565 5.404 0 2.073 0.236 4.11 0.684 5.905h8.841c0.448-1.796 0.684-3.832 0.684-5.905 0-1.948-0.204-3.786-0.566-5.405zM12.627 14.14c-0.925-3.003-2.444-4.963-4.158-4.963s-3.232 1.96-4.158 4.962c1.255-0.386 2.666-0.604 4.158-0.604s2.903 0.219 4.158 0.605zM27.142 14.14c-0.925-3.003-2.444-4.963-4.158-4.963s-3.232 1.96-4.158 4.962c1.255-0.386 2.666-0.604 4.158-0.604s2.903 0.219 4.158 0.605zM30.283 2.707h-28.566v1.373h28.566z"></path>
</svg>
