<svg clip-rule="evenodd" fill-rule="evenodd" height="512" stroke-linejoin="round" stroke-miterlimit="2" viewBox="0 0 101 101" width="512" xmlns="http://www.w3.org/2000/svg"><path d="m24.873 16.798-19.453-.001c-2.165 0-3.92-1.755-3.92-3.92v-4.335c0-2.165 1.755-3.92 3.92-3.92h90.16c2.165 0 3.92 1.755 3.92 3.92v4.336c0 2.164-1.755 3.919-3.92 3.919h-20.972v8.45c3.985.779 7.812 3.813 10.825 8.925 4.267 7.239 7.141 18.901 7.141 32.071 0 6.876-.789 13.632-2.275 19.588-.435 1.745-2.004 2.971-3.803 2.971h-2.72c-1.796 4.439-6.151 7.576-11.233 7.576-5.081 0-9.436-3.137-11.232-7.576h-2.72c-1.8 0-3.368-1.225-3.804-2.971-1.486-5.957-2.275-12.712-2.275-19.588 0-13.17 2.874-24.832 7.142-32.071 3.065-5.201 6.975-8.251 11.034-8.964v-8.41h-41.895v8.45c3.984.779 7.812 3.813 10.824 8.924 4.268 7.239 7.142 18.901 7.142 32.071 0 6.876-.789 13.632-2.275 19.588-.436 1.745-2.004 2.971-3.803 2.971h-2.72c-1.797 4.439-6.151 7.576-11.233 7.576s-9.436-3.137-11.233-7.576h-2.719c-1.8 0-3.368-1.225-3.804-2.971-1.486-5.957-2.275-12.712-2.275-19.588 0-13.17 2.874-24.832 7.142-32.071 3.065-5.201 6.974-8.251 11.034-8.964v-8.41zm8.676 72.004c-1.469 2.203-3.977 3.656-6.821 3.656-2.844-.001-5.352-1.454-6.821-3.657h13.642zm45.815 0c-1.469 2.203-3.976 3.656-6.821 3.656-2.844 0-5.352-1.453-6.821-3.656zm7.505-39.62c-4.144-1.617-9.062-2.542-14.326-2.542s-10.18.928-14.327 2.547c-1.14 5.111-1.784 10.911-1.784 17.056 0 6.544.745 12.972 2.159 18.639h27.905c1.414-5.667 2.158-12.095 2.158-18.639 0-6.147-.644-11.949-1.785-17.061zm-45.815 0c-4.145-1.617-9.062-2.542-14.326-2.542s-10.18.928-14.327 2.547c-1.14 5.111-1.784 10.911-1.784 17.056 0 6.544.744 12.972 2.159 18.639h27.905c1.414-5.667 2.158-12.095 2.158-18.639 0-6.147-.645-11.949-1.785-17.061zm-1.201-4.551c-2.921-9.478-7.713-15.665-13.125-15.665-5.411 0-10.202 6.185-13.124 15.662 3.96-1.219 8.414-1.908 13.124-1.908s9.163.691 13.125 1.911zm45.815 0c-2.921-9.478-7.713-15.665-13.125-15.665-5.41 0-10.202 6.185-13.124 15.662 3.961-1.219 8.414-1.908 13.124-1.908 4.711 0 9.164.691 13.125 1.911zm9.912-36.088h-90.16v4.335h90.16z"/></svg>