<svg clip-rule="evenodd" fill-rule="evenodd" height="512" stroke-linejoin="round" stroke-miterlimit="2" viewBox="0 0 101 101" width="512" xmlns="http://www.w3.org/2000/svg"><path d="m44.375 16.091h-2.401c-1.785 0-3.497-.709-4.76-1.972-1.262-1.262-1.971-2.975-1.971-4.76v-1.127c0-1.786.709-3.498 1.971-4.76 1.263-1.263 2.975-1.972 4.76-1.972h17.052c1.785 0 3.498.709 4.76 1.972 1.263 1.262 1.972 2.974 1.972 4.76v1.127c0 1.785-.709 3.498-1.972 4.76-1.262 1.263-2.975 1.972-4.76 1.972h-2.4v2.39h9.005c7.8 0 14.371 5.827 15.303 13.572 1.065 8.859 2.628 21.844 3.836 31.889.589 4.892-.946 9.802-4.215 13.488-2.732 3.081-6.457 5.06-10.482 5.628.382 1.379.58 2.815.58 4.272v8.257c0 2.161-1.752 3.913-3.913 3.913h-32.479c-2.161 0-3.913-1.752-3.913-3.913v-8.257c0-1.457.198-2.893.579-4.272-4.025-.568-7.75-2.547-10.481-5.628-3.27-3.686-4.804-8.596-4.216-13.488 1.209-10.045 2.771-23.03 3.837-31.889.932-7.745 7.502-13.572 15.303-13.572h9.005zm22.365 71.239c0-3.212-1.276-6.293-3.548-8.564-2.271-2.271-5.351-3.547-8.563-3.547h-8.257c-3.212 0-6.293 1.276-8.564 3.547s-3.547 5.352-3.547 8.564v8.257h32.479zm-22.365-64.936h-9.005c-5.82 0-10.723 4.348-11.418 10.126-1.066 8.859-2.628 21.844-3.837 31.889-.455 3.781.731 7.576 3.258 10.425 2.344 2.643 5.634 4.237 9.139 4.454.69-1.191 1.538-2.298 2.529-3.289 1.581-1.581 3.457-2.797 5.5-3.595v-4.901c-4.569-1.379-7.898-5.621-7.898-10.641v-16.932c0-4.147 1.648-8.124 4.58-11.057 1.993-1.993 4.469-3.392 7.152-4.084zm12.251 0v2.395c2.683.692 5.158 2.091 7.151 4.084 2.933 2.933 4.58 6.91 4.58 11.057v16.932c0 5.02-3.328 9.262-7.898 10.641v4.901c2.043.798 3.92 2.014 5.5 3.595.991.991 1.839 2.098 2.53 3.289 3.504-.217 6.794-1.811 9.138-4.454 2.527-2.849 3.713-6.644 3.258-10.425-1.209-10.045-2.771-23.03-3.837-31.889-.695-5.778-5.597-10.126-11.417-10.126h-9.005zm-.08 49.027v-3.446h-12.092v3.446c.634-.077 1.274-.115 1.918-.115h8.257c.644 0 1.284.038 1.917.115zm7.898-31.491c0-3.109-1.235-6.091-3.434-8.29-2.198-2.198-5.18-3.433-8.29-3.433h-4.44c-3.109 0-6.091 1.235-8.29 3.433-2.198 2.199-3.434 5.181-3.434 8.29v16.932c0 3.976 3.224 7.2 7.2 7.2h13.488c3.976 0 7.2-3.224 7.2-7.2zm-16.156-15.637h4.425v-8.202h-4.425zm13.557-16.061c0-.748-.297-1.465-.826-1.993-.528-.529-1.245-.826-1.993-.826h-17.052c-.747 0-1.464.297-1.993.826-.528.528-.825 1.245-.825 1.993v1.127c0 .748.297 1.465.825 1.993.529.529 1.246.826 1.993.826h17.052c.748 0 1.465-.297 1.993-.826.529-.528.826-1.245.826-1.993z"/></svg>