<!-- Generated by IcoMoon.io -->
<svg version="1.1" xmlns="http://www.w3.org/2000/svg" width="32" height="32" viewBox="0 0 32 32">
<title>fire-lamp</title>
<path d="M14.059 5.098h-0.761c-0.566 0-1.108-0.225-1.508-0.625s-0.624-0.943-0.624-1.508v-0.357c0-0.566 0.225-1.108 0.624-1.508s0.943-0.625 1.508-0.625h5.403c0.566 0 1.108 0.225 1.508 0.625s0.625 0.942 0.625 1.508v0.357c0 0.566-0.225 1.108-0.625 1.508s-0.943 0.625-1.508 0.625h-0.76v0.757h2.853c2.471 0 4.553 1.846 4.848 4.3 0.337 2.807 0.833 6.921 1.215 10.103 0.187 1.55-0.3 3.106-1.335 4.273-0.866 0.976-2.046 1.603-3.321 1.783 0.121 0.437 0.184 0.892 0.184 1.354v2.616c0 0.685-0.555 1.24-1.24 1.24h-10.29c-0.685 0-1.24-0.555-1.24-1.24v-2.616c0-0.462 0.063-0.917 0.183-1.354-1.275-0.18-2.455-0.807-3.321-1.783-1.036-1.168-1.522-2.724-1.336-4.273 0.383-3.183 0.878-7.297 1.216-10.103 0.295-2.454 2.377-4.3 4.848-4.3h2.853zM21.145 27.669c0-1.018-0.404-1.994-1.124-2.713s-1.695-1.124-2.713-1.124h-2.616c-1.018 0-1.994 0.404-2.713 1.124s-1.124 1.696-1.124 2.713v2.616h10.29zM14.059 7.095h-2.853c-1.844 0-3.397 1.378-3.618 3.208-0.338 2.807-0.833 6.921-1.216 10.103-0.144 1.198 0.232 2.4 1.032 3.303 0.743 0.837 1.785 1.342 2.896 1.411 0.219-0.377 0.487-0.728 0.801-1.042 0.501-0.501 1.095-0.886 1.743-1.139v-1.553c-1.448-0.437-2.502-1.781-2.502-3.371v-5.365c0-1.314 0.522-2.574 1.451-3.503 0.631-0.631 1.416-1.075 2.266-1.294zM17.941 7.095v0.759c0.85 0.219 1.634 0.662 2.266 1.294 0.929 0.929 1.451 2.189 1.451 3.503v5.365c0 1.59-1.054 2.934-2.502 3.371v1.553c0.647 0.253 1.242 0.638 1.743 1.139 0.314 0.314 0.583 0.665 0.802 1.042 1.11-0.069 2.153-0.574 2.895-1.411 0.801-0.903 1.176-2.105 1.032-3.303-0.383-3.183-0.878-7.297-1.216-10.103-0.22-1.831-1.773-3.208-3.617-3.208h-2.853zM17.916 22.628v-1.092h-3.831v1.092c0.201-0.024 0.404-0.036 0.608-0.036h2.616c0.204 0 0.407 0.012 0.607 0.036zM20.418 12.651c0-0.985-0.391-1.93-1.088-2.627s-1.641-1.088-2.627-1.088h-1.407c-0.985 0-1.93 0.391-2.627 1.088s-1.088 1.642-1.088 2.627v5.365c0 1.26 1.021 2.281 2.281 2.281h4.273c1.26 0 2.281-1.021 2.281-2.281zM15.299 7.697h1.402v-2.599h-1.402zM19.594 2.608c0-0.237-0.094-0.464-0.262-0.631s-0.394-0.262-0.631-0.262h-5.403c-0.237 0-0.464 0.094-0.631 0.262s-0.261 0.394-0.261 0.631v0.357c0 0.237 0.094 0.464 0.261 0.631s0.395 0.262 0.631 0.262h5.403c0.237 0 0.464-0.094 0.631-0.262s0.262-0.394 0.262-0.631z"></path>
</svg>
