<?xml version="1.0" encoding="utf-8"?>
<!-- Generator: Adobe Illustrator 25.2.3, SVG Export Plug-In . SVG Version: 6.00 Build 0)  -->
<svg version="1.1" id="Layer_1" xmlns="http://www.w3.org/2000/svg" xmlns:xlink="http://www.w3.org/1999/xlink" x="0px" y="0px"
	 width="512px" height="512px" viewBox="0 0 512 512" style="enable-background:new 0 0 512 512;" xml:space="preserve">
<path d="M438.3,470.7l-22.9-23.6v-55.3c10-3.6,17.1-13.1,17.1-24.3v-0.2c0-14.3-11.6-25.9-25.9-25.9h-2.1V164
	c0-15.7-7.2-29.7-18.6-38.8c9.5-7.9,15.3-19.2,15.3-31.1c0-7.8-2.7-18.8-7-30.3C385.9,42,372,17.6,372,17.6
	c-3.5-6.2-10.1-10-17.3-10c-7.1,0-13.7,3.8-17.3,10c0,0-13.8,24.3-22.1,46.2c-4.4,11.5-7,22.5-7,30.3c0,12,5.8,23.2,15.3,31.1
	c-11.3,9.1-18.6,23.1-18.6,38.8v177.4h-2.1c-14.3,0-25.9,11.6-25.9,25.9v0.2c0,11.2,7.1,20.7,17.1,24.3v55.3l-22.9,23.6
	c-5.5,5.7-7.1,14.2-4,21.6c3.1,7.3,10.3,12.1,18.3,12.1H424c8,0,15.2-4.8,18.3-12.1C445.4,484.9,443.8,476.4,438.3,470.7z
	 M354.8,27.5c0,0,26.6,46.6,26.6,66.6c0,12.3-11.9,22.2-26.6,22.2c-14.7,0-26.6-9.9-26.6-22.2C328.2,74.1,354.8,27.5,354.8,27.5z
	 M324.9,164c0-13.4,8.9-24.8,21.1-28.6c2.8,0.5,5.8,0.8,8.8,0.8c3,0,6-0.3,8.8-0.8h0c12.2,3.8,21.1,15.1,21.1,28.6v177.4h-59.8V164z
	 M296.9,367.3c0-3.3,2.7-6,6-6h103.7c3.3,0,6,2.7,6,6v0.2c0,3.3-2.7,6-6,6H302.9c-3.3,0-6-2.7-6-6V367.3z M395.6,393.3v43.8H314
	v-43.8H395.6z M285.5,484.5l26.6-27.5h85.2l26.6,27.5H285.5z M217.9,447.1v-55.3c9.9-3.6,17.1-13.1,17.1-24.3v-0.2
	c0-14.3-11.6-25.9-25.9-25.9H207V164c0-15.7-7.2-29.7-18.6-38.8c9.5-7.9,15.3-19.2,15.3-31.1c0-7.8-2.7-18.8-7-30.3
	c-8.3-21.9-22.1-46.2-22.1-46.2c-3.5-6.2-10.1-10-17.3-10s-13.7,3.8-17.3,10c0,0-13.8,24.3-22.1,46.2c-4.4,11.5-7,22.5-7,30.3
	c0,12,5.8,23.2,15.3,31.1c-11.3,9.1-18.6,23.1-18.6,38.8v177.4h-2.1c-14.3,0-25.9,11.6-25.9,25.9v0.2c0,11.2,7.1,20.7,17.1,24.3
	v55.3l-22.8,23.6c-5.6,5.7-7.1,14.2-4,21.6c3.1,7.3,10.3,12.1,18.3,12.1h138.5c8,0,15.2-4.8,18.3-12.1c3.1-7.3,1.5-15.8-4-21.6
	L217.9,447.1z M157.2,27.5c0,0,26.6,46.6,26.6,66.6c0,12.3-11.9,22.2-26.6,22.2c-14.7,0-26.6-9.9-26.6-22.2
	C130.7,74.1,157.2,27.5,157.2,27.5z M127.4,164c0-13.4,8.9-24.8,21.1-28.6c2.8,0.5,5.8,0.8,8.8,0.8c3,0,6-0.3,8.8-0.8h0
	c12.2,3.8,21.1,15.1,21.1,28.6v177.4h-59.8V164z M99.4,367.3c0-3.3,2.7-6,6-6h103.7c3.3,0,6,2.7,6,6v0.2c0,3.3-2.7,6-6,6H105.4
	c-3.3,0-6-2.7-6-6V367.3z M198,393.3v43.8h-81.6v-43.8H198z M88,484.5l26.6-27.5h85.2l26.6,27.5H88z"/>
</svg>
