<svg clip-rule="evenodd" fill-rule="evenodd" height="512" stroke-linejoin="round" stroke-miterlimit="2" viewBox="0 0 101 101" width="512" xmlns="http://www.w3.org/2000/svg"><path d="m38.779 82.865-7.635 10.394c-.875 1.191-1.006 2.773-.338 4.091.667 1.319 2.019 2.15 3.497 2.15h32.394c1.478 0 2.83-.831 3.498-2.15.667-1.318.536-2.9-.338-4.091l-7.636-10.394 9.173-12.661c.485-.669.746-1.474.746-2.3v-5.041c0-.211-.017-.421-.051-.629l-9.332-57.443c-.308-1.897-1.947-3.291-3.869-3.291h-16.775c-1.923 0-3.561 1.394-3.87 3.291l-9.332 57.443c-.034.208-.051.418-.051.629v5.041c0 .826.261 1.631.746 2.3zm19.93 1.839 7.988 10.876h-32.394l7.988-10.876zm6.671-12.88-6.492 8.96h-16.775l-6.492-8.96zm2.84-8.961h-35.44v5.041h35.44zm-28.935-40.039-5.868 36.119h34.166l-5.868-36.119zm2.811 22.848c-3.283 0-5.95 2.666-5.95 5.95s2.667 5.95 5.95 5.95c3.284 0 5.95-2.666 5.95-5.95s-2.666-5.95-5.95-5.95zm0 3.9c1.132 0 2.05.919 2.05 2.05 0 1.132-.918 2.05-2.05 2.05-1.131 0-2.05-.918-2.05-2.05 0-1.131.919-2.05 2.05-2.05zm13.277-14.042c-4.247 0-7.696 3.448-7.696 7.696s3.449 7.697 7.696 7.697c4.248 0 7.697-3.449 7.697-7.697s-3.449-7.696-7.697-7.696zm0 3.92c2.085 0 3.777 1.692 3.777 3.776 0 2.085-1.692 3.777-3.777 3.777-2.084 0-3.776-1.692-3.776-3.777 0-2.084 1.692-3.776 3.776-3.776zm-9.517-15.198c-3.502 0-6.346 2.844-6.346 6.346s2.844 6.345 6.346 6.345 6.345-2.843 6.345-6.345-2.843-6.346-6.345-6.346zm0 3.92c1.339 0 2.425 1.087 2.425 2.426 0 1.338-1.086 2.425-2.425 2.425s-2.426-1.087-2.426-2.425c0-1.339 1.087-2.426 2.426-2.426zm-5.115-14.309-.819 5.041h21.157l-.82-5.041zm18.882-3.92h-18.245l.735-4.523h16.775z"/></svg>