<?xml version="1.0" encoding="utf-8"?>
<!-- Generator: Adobe Illustrator 25.2.3, SVG Export Plug-In . SVG Version: 6.00 Build 0)  -->
<svg version="1.1" id="Layer_1" xmlns="http://www.w3.org/2000/svg" xmlns:xlink="http://www.w3.org/1999/xlink" x="0px" y="0px"
	 width="512px" height="512px" viewBox="0 0 512 512" style="enable-background:new 0 0 512 512;" xml:space="preserve">
<path d="M365.4,315.5L318.1,24.3c-1.6-9.6-9.9-16.7-19.6-16.7h-85c-9.7,0-18.1,7.1-19.6,16.7l-47.3,291.2c-0.2,1.1-0.3,2.1-0.3,3.2
	v25.6c0,4.2,1.3,8.3,3.8,11.7l46.5,64.2l-38.7,52.7c-4.4,6-5.1,14.1-1.7,20.7c3.4,6.7,10.2,10.9,17.7,10.9h164.2
	c7.5,0,14.3-4.2,17.7-10.9c3.4-6.7,2.7-14.7-1.7-20.7l-38.7-52.7l46.5-64.2c2.5-3.4,3.8-7.5,3.8-11.7v-25.6
	C365.7,317.6,365.6,316.5,365.4,315.5z M213.5,27.5h85l3.7,22.9h-92.5L213.5,27.5z M206.5,70.3h98.9l4.2,25.6H202.4L206.5,70.3z
	 M199.1,115.7h113.7l29.7,183.1H169.4L199.1,115.7z M338.1,484.5H173.9l40.5-55.1h83.2L338.1,484.5z M298.5,409.5h-85l-32.9-45.4
	h150.9L298.5,409.5z M345.8,344.2H166.2v-25.6h179.7V344.2z M213.4,231.5c-16.6,0-30.2,13.5-30.2,30.2s13.5,30.2,30.2,30.2
	c16.6,0,30.2-13.5,30.2-30.2S230,231.5,213.4,231.5z M213.4,272.1c-5.7,0-10.4-4.7-10.4-10.4c0-5.7,4.7-10.4,10.4-10.4
	c5.7,0,10.4,4.7,10.4,10.4C223.8,267.4,219.1,272.1,213.4,272.1z M280.7,180.1c-21.5,0-39,17.5-39,39s17.5,39,39,39
	c21.5,0,39-17.5,39-39C319.7,197.6,302.2,180.1,280.7,180.1z M280.7,238.3c-10.6,0-19.1-8.6-19.1-19.1c0-10.6,8.6-19.1,19.1-19.1
	c10.6,0,19.1,8.6,19.1,19.1C299.8,229.7,291.3,238.3,280.7,238.3z M232.5,187.3c17.8,0,32.2-14.4,32.2-32.2
	c0-17.8-14.4-32.2-32.2-32.2c-17.8,0-32.2,14.4-32.2,32.2C200.3,172.9,214.7,187.3,232.5,187.3z M232.5,142.8
	c6.8,0,12.3,5.5,12.3,12.3c0,6.8-5.5,12.3-12.3,12.3c-6.8,0-12.3-5.5-12.3-12.3C220.2,148.3,225.7,142.8,232.5,142.8z"/>
</svg>
