<svg clip-rule="evenodd" fill-rule="evenodd" height="512" stroke-linejoin="round" stroke-miterlimit="2" viewBox="0 0 101 101" width="512" xmlns="http://www.w3.org/2000/svg"><path d="m43.691 46.733v8.325c-1.421.782-2.711 1.81-3.805 3.055-2.682 3.053-3.919 7.114-3.395 11.144l2.243 17.26h-1.335c-3.45 0-6.247 2.797-6.247 6.247v2.816c0 2.165 1.755 3.92 3.92 3.92h30.856c2.165 0 3.92-1.755 3.92-3.92v-2.816c0-3.45-2.797-6.247-6.247-6.247h-1.335l2.244-17.26c.523-4.03-.714-8.091-3.396-11.144-1.093-1.245-2.384-2.273-3.805-3.055v-8.325h32.246c1.241 0 2.409-.588 3.149-1.585.739-.998.962-2.286.601-3.474 0 0-5.169-17.011-8.535-28.086-2.182-7.18-8.803-12.088-16.307-12.088h-35.925c-7.505 0-14.126 4.908-16.308 12.088-3.365 11.075-8.535 28.086-8.535 28.086-.361 1.188-.138 2.476.602 3.474.739.997 1.907 1.585 3.149 1.585zm22.237 46.031c0-1.285-1.042-2.327-2.327-2.327h-26.202c-1.285 0-2.327 1.042-2.327 2.327v2.816h30.856zm-7.615-6.247 2.309-17.765c.379-2.912-.515-5.846-2.453-8.052s-4.732-3.471-7.668-3.471h-.001c-2.937 0-5.731 1.265-7.669 3.471-1.937 2.206-2.831 5.14-2.453 8.052l2.309 17.765zm-4.924-32.909v-6.875h-5.778v6.875c.942-.197 1.91-.299 2.889-.299h.001c.979 0 1.946.102 2.888.299zm34.669-15.719h-75.116l-1.496 4.924h78.109zm-1.185-3.9-5.854-19.262c-1.68-5.528-6.778-9.307-12.556-9.307h-35.925c-5.779 0-10.877 3.779-12.557 9.307l-5.854 19.262z"/></svg>