<!-- Generated by IcoMoon.io -->
<svg version="1.1" xmlns="http://www.w3.org/2000/svg" width="32" height="32" viewBox="0 0 32 32">
<title>lamp-3</title>
<path d="M3.626 14.806c-0.393 0-0.764-0.186-0.998-0.502s-0.305-0.724-0.191-1.101c0 0 1.638-5.39 2.704-8.899 0.691-2.275 2.789-3.83 5.167-3.83h11.382c2.378 0 4.475 1.555 5.167 3.83 1.066 3.509 2.704 8.899 2.704 8.899 0.114 0.376 0.044 0.784-0.19 1.101s-0.605 0.502-0.998 0.502h-10.217v2.638c0.45 0.248 0.859 0.573 1.206 0.968 0.85 0.967 1.242 2.254 1.076 3.531l-0.711 5.468h0.423c1.093 0 1.979 0.886 1.979 1.979v0.892c0 0.686-0.556 1.242-1.242 1.242h-9.776c-0.686 0-1.242-0.556-1.242-1.242v-0.892c0-1.093 0.886-1.979 1.979-1.979h0.423l-0.711-5.468c-0.166-1.277 0.226-2.564 1.076-3.531 0.347-0.394 0.755-0.72 1.206-0.968v-2.638zM20.888 29.391c0-0.407-0.33-0.737-0.737-0.737h-8.302c-0.407 0-0.737 0.33-0.737 0.737v0.892h9.776zM18.475 27.411l0.732-5.628c0.12-0.923-0.163-1.852-0.777-2.551s-1.499-1.1-2.429-1.1h-0c-0.931 0-1.816 0.401-2.43 1.1s-0.897 1.628-0.777 2.551l0.732 5.628zM16.915 16.985v-2.178h-1.831v2.178c0.298-0.062 0.605-0.095 0.915-0.095h0c0.31 0 0.617 0.032 0.915 0.095zM27.9 12.004h-23.799l-0.474 1.56h24.747zM27.524 10.769l-1.855-6.103c-0.532-1.751-2.148-2.949-3.978-2.949h-11.382c-1.831 0-3.446 1.197-3.978 2.949l-1.855 6.103z"></path>
</svg>
