<!-- Generated by IcoMoon.io -->
<svg version="1.1" xmlns="http://www.w3.org/2000/svg" width="32" height="32" viewBox="0 0 32 32">
<title>lamp-4</title>
<path d="M13.927 20.982h-4.538c-0.709 0-1.381-0.318-1.83-0.867s-0.628-1.27-0.488-1.966c0.708-3.502 2.593-12.837 3.188-15.778 0.223-1.103 1.192-1.896 2.318-1.896h6.847c1.125 0 2.095 0.793 2.318 1.896l3.187 15.778c0.141 0.695-0.038 1.417-0.488 1.966s-1.121 0.867-1.83 0.867h-0.639v2.978c0.857 0.265 1.48 1.064 1.48 2.007 0 1.159-0.941 2.101-2.101 2.101s-2.1-0.941-2.1-2.101c0-0.943 0.623-1.742 1.48-2.007v-2.978h-2.657v9.301h3.278c0.343 0 0.621 0.278 0.621 0.621s-0.278 0.621-0.621 0.621h-10.701c-0.343 0-0.621-0.279-0.621-0.621s0.278-0.621 0.621-0.621h3.278zM15.169 30.283h1.662v-9.301h-1.662zM21.351 25.109c0.474 0 0.859 0.385 0.859 0.859s-0.385 0.859-0.859 0.859c-0.474 0-0.859-0.385-0.859-0.859s0.385-0.859 0.859-0.859zM20.974 4.844h-9.948l-2.738 13.551c-0.067 0.33 0.018 0.673 0.232 0.933s0.532 0.412 0.869 0.412h13.222c0.337 0 0.656-0.151 0.869-0.412s0.298-0.603 0.232-0.933zM20.731 3.644l-0.207-1.026c-0.106-0.524-0.566-0.9-1.1-0.9h-6.847c-0.534 0-0.995 0.377-1.1 0.9l-0.208 1.026z"></path>
</svg>
