<svg clip-rule="evenodd" fill-rule="evenodd" height="512" stroke-linejoin="round" stroke-miterlimit="2" viewBox="0 0 101 101" width="512" xmlns="http://www.w3.org/2000/svg"><path d="m43.957 66.225h-14.323c-2.238 0-4.358-1.004-5.776-2.737-1.417-1.732-1.982-4.009-1.539-6.204 2.233-11.054 8.185-40.517 10.061-49.799.703-3.482 3.763-5.985 7.315-5.985h21.611c3.552 0 6.611 2.503 7.315 5.985l10.06 49.799c.444 2.195-.121 4.472-1.539 6.204-1.417 1.733-3.538 2.737-5.776 2.737h-2.018v9.399c2.704.837 4.67 3.358 4.67 6.335 0 3.659-2.97 6.63-6.63 6.63-3.659 0-6.629-2.971-6.629-6.63 0-2.977 1.966-5.498 4.67-6.335v-9.399h-8.386v29.355h10.345c1.082 0 1.96.878 1.96 1.96 0 1.081-.878 1.96-1.96 1.96h-33.776c-1.082 0-1.96-.879-1.96-1.96 0-1.082.878-1.96 1.96-1.96h10.345zm3.92 29.355h5.246v-29.355h-5.246zm19.511-16.331c1.496 0 2.711 1.214 2.711 2.71s-1.215 2.71-2.711 2.71c-1.495 0-2.71-1.214-2.71-2.71s1.215-2.71 2.71-2.71zm-1.189-63.959h-31.397l-8.641 42.771c-.21 1.041.058 2.123.731 2.945.673.823 1.68 1.3 2.742 1.3h41.732c1.063 0 2.069-.477 2.742-1.3.673-.822.942-1.904.731-2.945zm-.766-3.79-.654-3.239c-.334-1.653-1.787-2.842-3.473-2.842h-21.611c-1.687 0-3.139 1.189-3.473 2.842l-.655 3.239z"/></svg>