<?xml version="1.0" encoding="utf-8"?>
<!-- Generator: Adobe Illustrator 25.2.3, SVG Export Plug-In . SVG Version: 6.00 Build 0)  -->
<svg version="1.1" id="Layer_1" xmlns="http://www.w3.org/2000/svg" xmlns:xlink="http://www.w3.org/1999/xlink" x="0px" y="0px"
	 width="512px" height="512px" viewBox="0 0 512 512" style="enable-background:new 0 0 512 512;" xml:space="preserve">
<path d="M355.1,110.5c-3.3-8-9.7-14.3-17.7-17.6c-8-3.3-17-3.2-25,0.1c-29.8,12.5-108.4,45.4-138.3,57.9c-8,3.3-14.3,9.7-17.6,17.7
	c-3.3,8-3.2,17,0.1,24.9c0,0.1,0.1,0.2,0.1,0.2c3.3,8,9.7,14.3,17.7,17.6c4.6,1.9,9.5,2.7,14.4,2.4v45.6h-8.6
	c-11,0-19.9,8.9-19.9,19.9v60.5c0,18.4,7.3,36,20.3,48.9c5.7,5.7,12.4,10.4,19.6,13.7v46.3c0,14.8,5.9,28.9,16.3,39.4
	c10.4,10.4,24.6,16.3,39.4,16.3c14.8,0,28.9-5.9,39.4-16.3c10.4-10.4,16.3-24.6,16.3-39.4v-46.3c7.2-3.4,13.8-8,19.6-13.7
	c13-13,20.3-30.6,20.3-48.9v-60.5c0-11-8.9-19.9-19.9-19.9h-8.6v-99.8l14.7-6.2c8-3.3,14.3-9.7,17.6-17.7c3.3-8,3.2-17-0.1-24.9
	C355.2,110.7,355.2,110.6,355.1,110.5z M281.3,474c-6.7,6.7-15.8,10.5-25.3,10.5c-9.5,0-18.6-3.8-25.3-10.5
	c-6.6-6.6-10.3-15.4-10.5-24.7h71.6C291.6,458.6,287.9,467.5,281.3,474z M291.8,429.5h-71.6v-21.2c3.1,0.4,6.3,0.7,9.5,0.7h52.6
	c3.2,0,6.4-0.2,9.5-0.7V429.5z M331.6,279.3v60.5c0,13.1-5.2,25.6-14.5,34.9c-9.3,9.3-21.8,14.5-34.9,14.5h-52.6
	c-13.1,0-25.6-5.2-34.9-14.5c-9.3-9.3-14.5-21.8-14.5-34.9v-60.5H331.6z M208.8,259.4v-51.9l19.9-8.3v60.3H208.8z M248.5,259.4
	v-68.6l14.9-6.2v74.8H248.5z M283.3,259.4v-83.2l19.9-8.3v91.5H283.3z M337,128.2c-1.3,3.1-3.7,5.6-6.9,6.9
	c-29.8,12.5-108.4,45.4-138.3,58c-3.1,1.3-6.6,1.3-9.7,0c-3.1-1.3-5.6-3.7-6.9-6.9l-0.1-0.2c-1.3-3.1-1.3-6.6,0-9.7
	c1.3-3.1,3.7-5.6,6.9-6.9c29.8-12.5,108.4-45.4,138.2-57.9c3.1-1.3,6.6-1.3,9.7,0c3.1,1.3,5.6,3.7,6.9,6.9c0,0.1,0.1,0.1,0.1,0.2
	C338.2,121.5,338.2,125,337,128.2z M156.9,111c3.3,8,9.7,14.3,17.7,17.6c8,3.3,17,3.2,25-0.1l138.2-57.9c8-3.3,14.3-9.7,17.6-17.7
	c3.3-8,3.2-17-0.1-24.9c0-0.1-0.1-0.2-0.1-0.2c-3.3-8-9.7-14.3-17.7-17.6c-8-3.3-17-3.2-25,0.1c-29.8,12.5-108.4,45.4-138.3,57.9
	c-8,3.3-14.3,9.7-17.6,17.7c-3.3,8-3.2,17,0.1,24.9L156.9,111z M175.1,93.3c1.3-3.1,3.7-5.6,6.9-6.9C211.8,73.9,290.3,41,320.2,28.5
	c3.1-1.3,6.6-1.3,9.7,0c3.1,1.3,5.6,3.7,6.9,6.9c0,0.1,0.1,0.2,0.1,0.2c1.3,3.1,1.3,6.6,0,9.7c-1.3,3.1-3.7,5.6-6.9,6.9
	c-29.8,12.5-108.4,45.4-138.3,57.9c-3.1,1.3-6.6,1.3-9.7,0c-3.1-1.3-5.6-3.7-6.9-6.9c0-0.1-0.1-0.2-0.1-0.2
	C173.8,100,173.8,96.5,175.1,93.3z"/>
</svg>
