<svg clip-rule="evenodd" fill-rule="evenodd" height="512" stroke-linejoin="round" stroke-miterlimit="2" viewBox="0 0 101 101" width="512" xmlns="http://www.w3.org/2000/svg"><path d="m37.271 42.182c-.958.06-1.927-.096-2.833-.467-1.578-.646-2.835-1.892-3.495-3.465-.006-.015-.012-.03-.018-.045-.66-1.573-.667-3.343-.021-4.921.646-1.579 1.892-2.836 3.465-3.495 5.888-2.468 21.384-8.963 27.272-11.431 1.573-.66 3.343-.667 4.922-.021 1.578.646 2.835 1.892 3.494 3.465.007.015.013.03.019.045.659 1.573.667 3.343.021 4.921-.646 1.579-1.893 2.836-3.466 3.495l-2.901 1.216v19.692h1.692c2.165 0 3.92 1.755 3.92 3.92v11.931c0 3.622-1.439 7.095-4 9.656-1.13 1.13-2.438 2.042-3.858 2.708v9.13c0 2.913-1.157 5.707-3.217 7.766-2.06 2.06-4.853 3.218-7.767 3.218-2.913 0-5.707-1.158-7.767-3.218-2.059-2.059-3.217-4.853-3.217-7.766v-9.13c-1.42-.666-2.727-1.578-3.857-2.708-2.561-2.561-4-6.034-4-9.656v-11.931c0-2.165 1.755-3.92 3.92-3.92h1.692zm20.292 46.465h-14.126c.034 1.826.774 3.57 2.068 4.864 1.325 1.324 3.122 2.069 4.995 2.069 1.874 0 3.671-.745 4.996-2.069 1.293-1.294 2.033-3.038 2.067-4.864zm-14.127-8.099v4.179h14.129v-4.179c-.619.086-1.247.13-1.879.13h-10.372c-.632 0-1.259-.044-1.878-.13zm21.986-25.457h-29.843v11.931c0 2.582 1.026 5.059 2.851 6.884 1.826 1.826 4.302 2.852 6.884 2.852h10.372c2.582 0 5.059-1.026 6.884-2.852 1.826-1.825 2.852-4.302 2.852-6.884zm-24.231-14.164v10.244h3.92v-11.887zm7.839-3.286v13.53h2.94v-14.762zm6.86-2.875v16.405h3.92v-18.048zm9.226-8.118c.614-.257 1.101-.748 1.353-1.364.252-.617.249-1.308-.008-1.922-.006-.015-.012-.03-.019-.044-.257-.615-.748-1.101-1.364-1.353-.616-.253-1.308-.25-1.922.008-5.888 2.468-21.383 8.963-27.271 11.431-.615.258-1.101.748-1.353 1.365-.253.616-.25 1.307.008 1.921l.018.045c.258.614.749 1.1 1.365 1.353.616.252 1.307.249 1.921-.008 5.889-2.469 21.384-8.964 27.272-11.432zm1.515-12.743c1.573-.659 2.82-1.916 3.466-3.495.646-1.578.638-3.348-.021-4.921-.006-.015-.012-.03-.019-.045-.659-1.573-1.916-2.819-3.494-3.465-1.579-.646-3.349-.639-4.922.021-5.888 2.468-21.384 8.963-27.272 11.431-1.573.659-2.819 1.916-3.465 3.495-.646 1.578-.639 3.348.021 4.921l.018.045c.66 1.573 1.917 2.819 3.495 3.465s3.349.639 4.922-.021zm-1.515-3.615c.614-.257 1.101-.748 1.353-1.364.252-.617.249-1.308-.008-1.922-.006-.015-.012-.03-.019-.045-.257-.614-.748-1.1-1.364-1.353-.616-.252-1.308-.249-1.922.009-5.888 2.468-21.383 8.963-27.271 11.431-.615.257-1.101.748-1.353 1.364-.253.617-.25 1.308.008 1.922.006.015.012.03.018.045.258.614.749 1.1 1.365 1.353.616.252 1.307.249 1.921-.009 5.889-2.468 21.384-8.963 27.272-11.431z"/></svg>