<!-- Generated by IcoMoon.io -->
<svg version="1.1" xmlns="http://www.w3.org/2000/svg" width="32" height="32" viewBox="0 0 32 32">
<title>down-left-arrow</title>
<path d="M5.513 25.121c0.128 0.136 0.303 0.212 0.489 0.211h17.331c0.369 0 0.667-0.297 0.667-0.667 0-0.368-0.297-0.667-0.667-0.667h-15.724l18.863-18.861c0.26-0.261 0.26-0.683 0-0.943-0.261-0.261-0.683-0.261-0.943 0l-18.863 18.861v-15.724c0-0.368-0.297-0.667-0.667-0.667-0.368 0-0.667 0.299-0.667 0.667v17.332c0 0.172 0.063 0.331 0.18 0.457z"></path>
</svg>
