<!-- Generated by IcoMoon.io -->
<svg version="1.1" xmlns="http://www.w3.org/2000/svg" width="32" height="32" viewBox="0 0 32 32">
<title>left-arrow</title>
<path d="M2.969 16.612l11.86 11.86c0.26 0.26 0.683 0.26 0.943 0s0.26-0.683 0-0.943l-10.895-10.895h23.757c0.368 0 0.667-0.299 0.667-0.667 0-0.369-0.299-0.667-0.667-0.667h-23.692l10.829-10.829c0.26-0.26 0.26-0.683 0-0.943-0.261-0.261-0.681-0.26-0.943 0l-11.86 11.859c-0.036 0.034-0.297 0.291-0.265 0.681 0.025 0.307 0.217 0.497 0.266 0.543z"></path>
</svg>
