<!-- Generated by IcoMoon.io -->
<svg version="1.1" xmlns="http://www.w3.org/2000/svg" width="32" height="32" viewBox="0 0 32 32">
<title>shuffle</title>
<path d="M3.334 7.997h1.765c2.011 0 3.877 0.999 4.992 2.673 0.205 0.308 0.621 0.388 0.924 0.187 0.307-0.207 0.389-0.619 0.185-0.927-1.363-2.045-3.644-3.267-6.101-3.267h-1.765c-0.368 0-0.667 0.299-0.667 0.667s0.299 0.667 0.667 0.667z"></path>
<path d="M29.137 6.858l-3.999-3.999c-0.26-0.26-0.683-0.26-0.943 0s-0.26 0.683 0 0.943l2.861 2.861h-4.156c-2.459 0-4.739 1.223-6.1 3.268l-6.709 10.061c-1.116 1.672-2.983 2.671-4.993 2.671h-1.765c-0.368 0-0.667 0.299-0.667 0.667 0 0.369 0.299 0.667 0.667 0.667h1.765c2.457 0 4.739-1.221 6.103-3.265l6.709-10.061c1.115-1.673 2.979-2.673 4.991-2.673h4.156l-2.861 2.863c-0.26 0.26-0.26 0.683 0 0.943s0.683 0.26 0.943 0l3.999-3.999c0.261-0.248 0.26-0.696 0-0.945z"></path>
<path d="M25.138 18.859c-0.26-0.26-0.683-0.26-0.943 0s-0.26 0.683 0 0.943l2.863 2.863h-4.157c-2.011 0-3.876-0.999-4.992-2.672-0.204-0.307-0.619-0.389-0.924-0.185-0.307 0.204-0.389 0.619-0.185 0.924 1.364 2.045 3.644 3.267 6.101 3.267h4.153l-2.859 2.861c-0.26 0.26-0.26 0.683 0 0.943 0.261 0.261 0.681 0.26 0.943 0l3.981-3.981c0.272-0.248 0.287-0.697 0.019-0.961z"></path>
</svg>
