<svg height="512" viewBox="0 0 24 24" width="512" xmlns="http://www.w3.org/2000/svg"><g id="sort/shuffle" fill="rgb(0,0,0)" fill-rule="evenodd"><path id="Fill-94" d="m2.50015 5.9981h1.324c1.508 0 2.908.749 3.744 2.005.154.231.466.291.693.14.23-.155.292-.464.139-.695-1.022-1.534-2.733-2.45-4.576-2.45h-1.324c-.276 0-.5.224-.5.5s.224.5.5.5"/><path id="Fill-96" d="m21.85275 5.1436-2.999-2.999c-.195-.195-.512-.195-.707 0s-.195.512 0 .707l2.146 2.146h-3.117c-1.844 0-3.554.917-4.575 2.451l-5.032 7.546c-.837 1.254-2.237 2.003-3.745 2.003h-1.324c-.276 0-.5.224-.5.5 0 .277.224.5.5.5h1.324c1.843 0 3.554-.916 4.577-2.449l5.032-7.546c.836-1.255 2.234-2.005 3.743-2.005h3.117l-2.146 2.147c-.195.195-.195.512 0 .707s.512.195.707 0l2.999-2.999c.196-.186.195-.522 0-.709"/><path id="Fill-98" d="m18.85375 14.1446c-.195-.195-.512-.195-.707 0s-.195.512 0 .707l2.147 2.147h-3.118c-1.508 0-2.907-.749-3.744-2.004-.153-.23-.464-.292-.693-.139-.23.153-.292.464-.139.693 1.023 1.534 2.733 2.45 4.576 2.45h3.115l-2.144 2.146c-.195.195-.195.512 0 .707.196.196.511.195.707 0l2.986-2.986c.204-.186.215-.523.014-.721z"/></g></svg>