<!-- Generated by IcoMoon.io -->
<svg version="1.1" xmlns="http://www.w3.org/2000/svg" width="32" height="32" viewBox="0 0 32 32">
<title>u-turn</title>
<path d="M2.847 9.121s0.017 0.017 0.017 0.017l5.332 5.332c0.26 0.26 0.681 0.26 0.943 0 0.26-0.261 0.26-0.683 0-0.943l-4.196-4.196h14.391c4.043 0 7.333 3.289 7.333 7.333s-3.291 7.333-7.333 7.333h-13.333c-0.368 0-0.667 0.299-0.667 0.667 0 0.369 0.299 0.667 0.667 0.667h13.333c4.779 0 8.667-3.888 8.667-8.667s-3.888-8.667-8.667-8.667h-14.391l4.196-4.195c0.26-0.261 0.26-0.683 0-0.943-0.261-0.261-0.683-0.261-0.943 0l-5.332 5.331c-0.253 0.241-0.264 0.676-0.017 0.929z"></path>
</svg>
