<svg height="512" viewBox="0 0 24 24" width="512" xmlns="http://www.w3.org/2000/svg"><g id="direction/u-turn-left-alt" fill="none" fill-rule="evenodd"><path id="Fill-80" d="m2.13495 6.8404s.013.013.013.013l3.999 3.999c.195.195.511.195.707 0 .195-.196.195-.512 0-.707l-3.147-3.147h10.793c3.032 0 5.5 2.467 5.5 5.5s-2.468 5.5-5.5 5.5h-10c-.276 0-.5.224-.5.5 0 .277.224.5.5.5h10c3.584 0 6.5-2.916 6.5-6.5s-2.916-6.5-6.5-6.5h-10.793l3.147-3.146c.195-.196.195-.512 0-.707-.196-.196-.512-.196-.707 0l-3.999 3.998c-.19.181-.198.507-.013.697" fill="rgb(0,0,0)"/></g></svg>