<!-- Generated by IcoMoon.io -->
<svg version="1.1" xmlns="http://www.w3.org/2000/svg" width="32" height="32" viewBox="0 0 32 32">
<title>split</title>
<path d="M24.667 26.664c0.361 0.005 0.675-0.308 0.667-0.669v-6.664c0-0.368-0.299-0.667-0.667-0.667s-0.667 0.299-0.667 0.667v5.057l-5.528-5.529c-0.261-0.26-0.683-0.26-0.944 0-0.26 0.261-0.26 0.683 0 0.944l5.529 5.528h-5.057c-0.368 0-0.667 0.299-0.667 0.667s0.299 0.667 0.667 0.667h6.665z"></path>
<path d="M14.472 15.802l9.528-9.528v5.056c0 0.369 0.299 0.667 0.667 0.667 0.369 0 0.667-0.297 0.667-0.667v-6.664c0.009-0.361-0.308-0.675-0.668-0.669h-6.665c-0.368 0-0.667 0.299-0.667 0.667 0 0.369 0.299 0.667 0.667 0.667h5.056l-9.332 9.333h-11.724c-0.368 0-0.667 0.299-0.667 0.667 0 0.369 0.299 0.667 0.667 0.667h12c0.177 0 0.347-0.069 0.472-0.195z"></path>
</svg>
