<svg height="512" viewBox="0 0 24 24" width="512" xmlns="http://www.w3.org/2000/svg"><g id="sort/split-right" fill="rgb(0,0,0)" fill-rule="evenodd"><path id="Fill-154" d="m18.50015 19.9981503c.271.0039497.506-.2310503.5-.5020503v-4.998c0-.276-.224-.5-.5-.5s-.5.224-.5.5v3.793l-4.146-4.147c-.196-.195-.512-.195-.708 0-.195.196-.195.512 0 .708l4.147 4.146h-3.793c-.276 0-.5.224-.5.5s.224.5000503.5.5000503h4.999z"/><path id="Fill-156" d="m10.85375 11.8516 7.146-7.146v3.792c0 .277.224.5.5.5.277 0 .5001506-.223.5001506-.5v-4.998c.0068494-.271-.2311506-.506-.5011506-.50205033h-4.999c-.276 0-.5.22405033-.5.50005033 0 .277.224.5.5.5h3.792l-6.999 7h-8.793c-.276 0-.5.224-.5.5 0 .277.224.5.5.5h9c.133 0 .26-.052.354-.146"/></g></svg>