<svg height="512" viewBox="0 0 24 24" width="512" xmlns="http://www.w3.org/2000/svg"><g id="sort/merge-right" fill="rgb(0,0,0)" fill-rule="evenodd"><path id="Fill-170" d="m7.14665 8.8516c.196.194.511.195.707 0 .195-.195.195-.512 0-.707l-4-4c-.195-.195-.512-.195-.707 0s-.195.512 0 .707z"/><path id="Fill-172" d="m21.86445 11.8409c.185-.188.179-.515-.012-.697l-3.999-3.999c-.195-.196-.511-.196-.707 0-.195.195-.195.511 0 .707l3.147 3.146h-9.793c-.133 0-.26.053-.354.147l-7 7c-.195.195-.195.511 0 .707.196.195.512.194.707 0l6.854-6.854h9.586l-3.147 3.147c-.195.195-.195.511 0 .707.196.195.512.195.707 0 .012-.012 4.001-3.999 4.011-4.011"/></g></svg>