<!-- Generated by IcoMoon.io -->
<svg version="1.1" xmlns="http://www.w3.org/2000/svg" width="32" height="32" viewBox="0 0 32 32">
<title>merge</title>
<path d="M9.529 11.802c0.261 0.259 0.681 0.26 0.943 0 0.26-0.26 0.26-0.683 0-0.943l-5.333-5.333c-0.26-0.26-0.683-0.26-0.943 0s-0.26 0.683 0 0.943z"></path>
<path d="M29.153 15.788c0.247-0.251 0.239-0.687-0.016-0.929l-5.332-5.332c-0.26-0.261-0.681-0.261-0.943 0-0.26 0.26-0.26 0.681 0 0.943l4.196 4.195h-13.057c-0.177 0-0.347 0.071-0.472 0.196l-9.333 9.333c-0.26 0.26-0.26 0.681 0 0.943 0.261 0.26 0.683 0.259 0.943 0l9.139-9.139h12.781l-4.196 4.196c-0.26 0.26-0.26 0.681 0 0.943 0.261 0.26 0.683 0.26 0.943 0 0.016-0.016 5.335-5.332 5.348-5.348z"></path>
</svg>
