<!-- Generated by IcoMoon.io -->
<svg version="1.1" xmlns="http://www.w3.org/2000/svg" width="32" height="32" viewBox="0 0 32 32">
<title>swap</title>
<path d="M20.667 3.997c-0.368 0-0.667 0.299-0.667 0.667v21.057l-4.195-4.196c-0.261-0.26-0.683-0.26-0.944 0-0.26 0.261-0.26 0.683 0 0.944l5.332 5.333c0.251 0.257 0.696 0.257 0.947 0l5.332-5.333c0.26-0.261 0.26-0.683 0-0.944-0.261-0.26-0.683-0.26-0.944 0l-4.195 4.196v-21.057c0-0.368-0.299-0.667-0.667-0.667z"></path>
<path d="M10.474 2.861c-0.249-0.259-0.699-0.259-0.948 0l-5.329 5.332c-0.261 0.26-0.261 0.683 0 0.943 0.259 0.26 0.681 0.26 0.941 0l4.196-4.193v21.057c0 0.367 0.297 0.667 0.667 0.667 0.368 0 0.667-0.3 0.667-0.667v-21.057l4.196 4.193c0.259 0.26 0.681 0.26 0.941 0s0.26-0.683 0-0.943z"></path>
</svg>
