<svg height="512" viewBox="0 0 24 24" width="512" xmlns="http://www.w3.org/2000/svg"><g id="sort/swap-vertical" fill="rgb(0,0,0)" fill-rule="evenodd"><path id="Fill-18" d="m15.50025 2.9981c-.276 0-.5.224-.5.5v15.793l-3.146-3.147c-.196-.195-.512-.195-.708 0-.195.196-.195.512 0 .708l3.999 4c.188.193.522.193.71 0l3.999-4c.195-.196.195-.512 0-.708-.196-.195-.512-.195-.708 0l-3.146 3.147v-15.793c0-.276-.224-.5-.5-.5"/><path id="Fill-20" d="m7.85565 2.1456c-.187-.194-.524-.194-.711 0l-3.997 3.999c-.196.195-.196.512 0 .707.194.195.511.195.706 0l3.147-3.145v15.793c0 .275.223.5.5.5.276 0 .5-.225.5-.5v-15.793l3.147 3.145c.194.195.511.195.706 0s.195-.512 0-.707z"/></g></svg>