<!-- Generated by IcoMoon.io -->
<svg version="1.1" xmlns="http://www.w3.org/2000/svg" width="32" height="32" viewBox="0 0 32 32">
<title>u-turn-1</title>
<path d="M28 13.998c0-4.779-3.888-8.667-8.667-8.667h-13.333c-0.368 0-0.667 0.299-0.667 0.667s0.299 0.667 0.667 0.667h13.333c4.044 0 7.333 3.289 7.333 7.333s-3.289 7.333-7.333 7.333h-14.391l4.196-4.195c0.26-0.261 0.26-0.683 0-0.944-0.261-0.26-0.683-0.26-0.944 0l-5.331 5.332c-0.263 0.249-0.259 0.697-0.001 0.947l5.332 5.332c0.261 0.26 0.683 0.26 0.944 0 0.26-0.261 0.26-0.683 0-0.944l-4.196-4.195h14.391c4.779 0 8.667-3.888 8.667-8.667z"></path>
</svg>
