<svg height="512" viewBox="0 0 24 24" width="512" xmlns="http://www.w3.org/2000/svg"><g id="order/loop-clockwise-alt-2" fill="rgb(0,0,0)" fill-rule="evenodd"><path id="Fill-140" d="m5.50015 18.9981c-.827 0-1.5-.673-1.5-1.5v-12c0-.827.673-1.5 1.5-1.5h6.793l-2.147 2.146c-.195.196-.195.512 0 .708.196.195.512.195.708 0l2.998-3c.197-.185.195-.522.001-.708l-2.999-3c-.196-.195-.512-.195-.708 0-.195.196-.195.512 0 .708l2.147 2.146h-6.793c-1.378 0-2.5 1.121-2.5 2.5v12c0 1.379 1.122 2.5 2.5 2.5.276 0 .5-.224.5-.5s-.224-.5-.5-.5"/><path id="Fill-142" d="m17.50015 2.9981c-.276 0-.5.224-.5.5s.224.5.5.5c.827 0 1.5.673 1.5 1.5v12c0 .827-.673 1.5-1.5 1.5h-6.793l2.147-2.146c.195-.196.195-.512 0-.708-.196-.195-.512-.195-.708 0l-2.998 3c-.197.185-.195.522-.001.708l2.999 3c.196.195.512.195.708 0 .195-.196.195-.512 0-.708l-2.147-2.146h6.793c1.378 0 2.5-1.121 2.5-2.5v-12c0-1.379-1.122-2.5-2.5-2.5"/></g></svg>