<!-- Generated by IcoMoon.io -->
<svg version="1.1" xmlns="http://www.w3.org/2000/svg" width="32" height="32" viewBox="0 0 32 32">
<title>loop</title>
<path d="M7.334 25.331c-1.103 0-2-0.897-2-2v-16c0-1.103 0.897-2 2-2h9.057l-2.863 2.861c-0.26 0.261-0.26 0.683 0 0.944 0.261 0.26 0.683 0.26 0.944 0l3.997-4c0.263-0.247 0.26-0.696 0.001-0.944l-3.999-4c-0.261-0.26-0.683-0.26-0.944 0-0.26 0.261-0.26 0.683 0 0.944l2.863 2.861h-9.057c-1.837 0-3.333 1.495-3.333 3.333v16c0 1.839 1.496 3.333 3.333 3.333 0.368 0 0.667-0.299 0.667-0.667s-0.299-0.667-0.667-0.667z"></path>
<path d="M23.334 3.997c-0.368 0-0.667 0.299-0.667 0.667s0.299 0.667 0.667 0.667c1.103 0 2 0.897 2 2v16c0 1.103-0.897 2-2 2h-9.057l2.863-2.861c0.26-0.261 0.26-0.683 0-0.944-0.261-0.26-0.683-0.26-0.944 0l-3.997 4c-0.263 0.247-0.26 0.696-0.001 0.944l3.999 4c0.261 0.26 0.683 0.26 0.944 0 0.26-0.261 0.26-0.683 0-0.944l-2.863-2.861h9.057c1.837 0 3.333-1.495 3.333-3.333v-16c0-1.839-1.496-3.333-3.333-3.333z"></path>
</svg>
